<svg width="147" height="61" viewBox="0 0 147 61" fill="none" xmlns="http://www.w3.org/2000/svg">
<mask id="path-1-inside-1_792_1299" fill="white">
<path fill-rule="evenodd" clip-rule="evenodd" d="M11.5933 60.7294L10.1044 57.2119L8.58864 60.793H3C1.34314 60.793 0 59.4498 0 57.793V3.00089C0 1.34404 1.34314 0.000892639 3 0.000892639H96.3987L97.7165 3.03028L99.0143 0.0468597L100.069 2.53809L101.143 0.000892639H135.082L136.123 2.29395L137.111 0.116714L138.37 3.03119L139.679 0.000892639H144C145.657 0.000892639 147 1.34404 147 3.00089V57.793C147 59.4498 145.657 60.793 144 60.793H69.7629L68.2471 57.2119L66.9776 60.2111L66.004 58.0117L64.7729 60.793H13.8421L12.7034 58.2568L11.5933 60.7294Z"/>
</mask>
<path fill-rule="evenodd" clip-rule="evenodd" d="M11.5933 60.7294L10.1044 57.2119L8.58864 60.793H3C1.34314 60.793 0 59.4498 0 57.793V3.00089C0 1.34404 1.34314 0.000892639 3 0.000892639H96.3987L97.7165 3.03028L99.0143 0.0468597L100.069 2.53809L101.143 0.000892639H135.082L136.123 2.29395L137.111 0.116714L138.37 3.03119L139.679 0.000892639H144C145.657 0.000892639 147 1.34404 147 3.00089V57.793C147 59.4498 145.657 60.793 144 60.793H69.7629L68.2471 57.2119L66.9776 60.2111L66.004 58.0117L64.7729 60.793H13.8421L12.7034 58.2568L11.5933 60.7294Z" fill="#024DAC"/>
<path d="M11.5933 60.7294L10.6724 61.1192L11.5663 63.231L12.5056 61.139L11.5933 60.7294ZM10.1044 57.2119L11.0253 56.8221L10.1044 54.6465L9.18353 56.8221L10.1044 57.2119ZM8.58864 60.793V61.793H9.25125L9.50954 61.1828L8.58864 60.793ZM96.3987 0.000892639L97.3157 -0.397998L97.0542 -0.999107H96.3987V0.000892639ZM97.7165 3.03028L96.7995 3.42917L97.7165 5.53723L98.6335 3.42917L97.7165 3.03028ZM99.0143 0.0468597L99.9352 -0.342939L99.0268 -2.48893L98.0973 -0.352031L99.0143 0.0468597ZM100.069 2.53809L99.1479 2.92789L100.069 5.10352L100.99 2.92789L100.069 2.53809ZM101.143 0.000892639V-0.999107H100.48L100.222 -0.388906L101.143 0.000892639ZM135.082 0.000892639L135.993 -0.412379L135.727 -0.999107H135.082V0.000892639ZM136.123 2.29395L135.212 2.70722L136.123 4.71366L137.034 2.70722L136.123 2.29395ZM137.111 0.116714L138.029 -0.279867L137.134 -2.35266L136.201 -0.296557L137.111 0.116714ZM138.37 3.03119L137.452 3.42777L138.37 5.55274L139.288 3.42777L138.37 3.03119ZM139.679 0.000892639V-0.999107H139.022L138.761 -0.395689L139.679 0.000892639ZM69.7629 60.793L68.842 61.1828L69.1003 61.793H69.7629V60.793ZM68.2471 57.2119L69.168 56.8221L68.2471 54.6465L67.3262 56.8221L68.2471 57.2119ZM66.9776 60.2111L66.0632 60.6159L66.9981 62.728L67.8985 60.6009L66.9776 60.2111ZM66.004 58.0117L66.9185 57.6069L66.004 55.5412L65.0896 57.6069L66.004 58.0117ZM64.7729 60.793V61.793H65.4238L65.6873 61.1977L64.7729 60.793ZM13.8421 60.793L12.9298 61.2026L13.1949 61.793H13.8421V60.793ZM12.7034 58.2568L13.6157 57.8472L12.7034 55.8154L11.7912 57.8472L12.7034 58.2568ZM12.5142 60.3396L11.0253 56.8221L9.18353 57.6017L10.6724 61.1192L12.5142 60.3396ZM9.18353 56.8221L7.66774 60.4032L9.50954 61.1828L11.0253 57.6017L9.18353 56.8221ZM8.58864 59.793H3V61.793H8.58864V59.793ZM3 59.793C1.89543 59.793 1 58.8975 1 57.793H-1C-1 60.0021 0.790854 61.793 3 61.793V59.793ZM1 57.793V3.00089H-1V57.793H1ZM1 3.00089C1 1.89632 1.89543 1.00089 3 1.00089V-0.999107C0.790853 -0.999107 -1 0.791757 -1 3.00089H1ZM3 1.00089H96.3987V-0.999107H3V1.00089ZM95.4817 0.399784L96.7995 3.42917L98.6335 2.63139L97.3157 -0.397998L95.4817 0.399784ZM98.6335 3.42917L99.9313 0.445751L98.0973 -0.352031L96.7995 2.63139L98.6335 3.42917ZM98.0934 0.436659L99.1479 2.92789L100.99 2.14829L99.9352 -0.342939L98.0934 0.436659ZM100.99 2.92789L102.064 0.390691L100.222 -0.388906L99.1479 2.14829L100.99 2.92789ZM101.143 1.00089H135.082V-0.999107H101.143V1.00089ZM134.172 0.414164L135.212 2.70722L137.034 1.88067L135.993 -0.412379L134.172 0.414164ZM137.034 2.70722L138.022 0.529986L136.201 -0.296557L135.212 1.88067L137.034 2.70722ZM136.193 0.513296L137.452 3.42777L139.288 2.63461L138.029 -0.279867L136.193 0.513296ZM139.288 3.42777L140.597 0.397475L138.761 -0.395689L137.452 2.63461L139.288 3.42777ZM139.679 1.00089H144V-0.999107H139.679V1.00089ZM144 1.00089C145.105 1.00089 146 1.89632 146 3.00089H148C148 0.791756 146.209 -0.999107 144 -0.999107V1.00089ZM146 3.00089V57.793H148V3.00089H146ZM146 57.793C146 58.8975 145.105 59.793 144 59.793V61.793C146.209 61.793 148 60.0021 148 57.793H146ZM144 59.793H69.7629V61.793H144V59.793ZM70.6838 60.4032L69.168 56.8221L67.3262 57.6017L68.842 61.1828L70.6838 60.4032ZM67.3262 56.8221L66.0567 59.8213L67.8985 60.6009L69.168 57.6017L67.3262 56.8221ZM67.892 59.8063L66.9185 57.6069L65.0896 58.4165L66.0632 60.6159L67.892 59.8063ZM65.0896 57.6069L63.8585 60.3882L65.6873 61.1977L66.9185 58.4165L65.0896 57.6069ZM64.7729 59.793H13.8421V61.793H64.7729V59.793ZM14.7544 60.3834L13.6157 57.8472L11.7912 58.6664L12.9298 61.2026L14.7544 60.3834ZM11.7912 57.8472L10.681 60.3198L12.5056 61.139L13.6157 58.6664L11.7912 57.8472Z" fill="#103D76" mask="url(#path-1-inside-1_792_1299)"/>
</svg>
