<svg width="248" height="316" viewBox="0 0 248 316" fill="none" xmlns="http://www.w3.org/2000/svg">
<path d="M117.854 172.189C112.705 168.011 104.244 162.48 91.4849 156.038C85.5013 154.022 70.2409 149.989 57.0686 149.989C55.6279 149.989 54.2283 149.943 52.8739 149.86C52.7033 149.85 52.5334 149.839 52.3642 149.827L1.48242 211.332L31.1944 319.957L43.5744 350.109C49.6909 343.546 57.7922 334.612 66.4253 324.726C87.323 300.796 111.336 271.286 117.854 256.314C109.04 234.466 114.182 191.197 117.854 172.189Z" fill="#31234B"/>
<path d="M190.649 149.989C177.476 149.989 162.216 154.022 156.232 156.038C155.898 156.207 155.566 156.375 155.238 156.543C143.168 162.7 135.103 168.003 130.111 172.054C133.783 191.062 138.925 234.54 130.111 256.388C136.622 271.344 160.592 300.809 181.475 324.726C190.132 334.642 198.259 343.604 204.39 350.183L216.77 320.031L246.482 211.406L195.514 149.816C193.952 149.927 192.328 149.989 190.649 149.989Z" fill="#31234B"/>
<path d="M204.39 135.901C201.314 136.995 198.344 138.079 195.476 139.152C179.292 145.208 166.386 150.911 156.232 156.038C162.216 154.022 177.476 149.989 190.649 149.989C192.328 149.989 193.952 149.927 195.514 149.816C206.197 149.053 213.962 145.957 216.77 144.304L195.514 112.174C195.52 112.187 195.526 112.199 195.531 112.212C195.535 112.219 195.538 112.225 195.541 112.232C195.655 112.478 195.77 112.726 195.885 112.976C198.849 119.432 201.791 127.065 204.39 135.901Z" fill="#55437F"/>
<path d="M91.4849 156.038C81.3565 150.924 68.4903 145.237 52.3642 139.198C49.4586 138.11 46.4471 137.011 43.3268 135.901C46.035 126.697 49.114 118.797 52.2034 112.174L30.9468 144.304C33.7692 145.966 41.5983 149.084 52.3642 149.827C52.5334 149.839 52.7033 149.85 52.8739 149.86C54.2283 149.943 55.6279 149.989 57.0686 149.989C70.2409 149.989 85.5013 154.022 91.4849 156.038Z" fill="#55437F"/>
<path d="M123.921 178.411C123.104 177.016 121.276 175.004 118.208 172.478C118.092 172.383 117.974 172.286 117.854 172.189C114.182 191.197 109.04 234.466 117.854 256.314C111.336 271.286 87.323 300.796 66.4253 324.726C71.1883 333.253 82.8685 350.752 91.4849 352.531H156.232C160.804 349.689 172.254 340.149 181.475 324.726C160.592 300.809 136.622 271.344 130.111 256.388C138.925 234.54 133.783 191.062 130.111 172.054C126.751 174.78 124.783 176.939 123.921 178.411Z" fill="#1C142C"/>
<path fill-rule="evenodd" clip-rule="evenodd" d="M52.2034 112.174L30.9468 144.304L38.7462 73.7419C50.9611 54.0931 78.6098 13.0162 91.4849 5.89817C102.008 2.60279 129.69 -2.01075 156.232 5.89817C169.107 13.0162 196.756 54.0931 208.971 73.7419L216.77 144.304L195.514 112.174L195.531 112.212C195.134 111.359 194.736 110.527 194.339 109.717C188.336 97.4635 182.466 90.0287 179.383 87.2117C167.209 89.4773 139.074 97.6416 123.921 112.174C108.767 97.6416 80.508 89.4773 68.3344 87.2117C65.05 90.2123 58.6044 98.4523 52.2034 112.174Z" fill="#31234B"/>
<path d="M179.383 87.2117C167.209 89.4773 139.074 97.6416 123.921 112.174C108.767 97.6416 80.508 89.4773 68.3344 87.2117C65.05 90.2123 58.6044 98.4523 52.2034 112.174C49.114 118.797 46.035 126.697 43.3268 135.901C46.4471 137.011 49.4586 138.11 52.3642 139.198C68.4903 145.237 81.3565 150.924 91.4849 156.038C104.244 162.48 112.705 168.011 117.854 172.189C117.974 172.286 118.092 172.383 118.208 172.478C121.276 175.004 123.104 177.016 123.921 178.411C124.783 176.939 126.751 174.78 130.111 172.054C135.103 168.003 143.168 162.7 155.238 156.543C155.566 156.375 155.898 156.207 156.232 156.038C166.386 150.911 179.292 145.208 195.476 139.152C198.344 138.079 201.314 136.995 204.39 135.901C201.791 127.065 198.849 119.432 195.885 112.976C195.77 112.726 195.655 112.478 195.541 112.232L195.531 112.212C195.134 111.359 194.736 110.527 194.339 109.717C188.336 97.4635 182.466 90.0287 179.383 87.2117Z" fill="#31234B"/>
<path d="M91.4849 156.038C85.5013 154.022 70.2409 149.989 57.0686 149.989C55.6279 149.989 54.2283 149.943 52.8739 149.86M91.4849 156.038C104.244 162.48 112.705 168.011 117.854 172.189M91.4849 156.038C104.541 162.63 113.096 168.268 118.208 172.478M91.4849 156.038C81.3565 150.924 68.4903 145.237 52.3642 139.198C49.4586 138.11 46.4471 137.011 43.3268 135.901C46.035 126.697 49.114 118.797 52.2034 112.174M30.9468 144.304L52.2034 112.174M30.9468 144.304L38.7462 73.7419C50.9611 54.0931 78.6098 13.0162 91.4849 5.89817C102.008 2.60279 129.69 -2.01075 156.232 5.89817C169.107 13.0162 196.756 54.0931 208.971 73.7419L216.77 144.304M30.9468 144.304C33.7692 145.966 41.5983 149.084 52.3642 149.827M30.9468 144.304C33.8135 145.992 41.8456 149.182 52.8739 149.86M52.2034 112.174C58.6044 98.4523 65.05 90.2123 68.3344 87.2117C80.508 89.4773 108.767 97.6416 123.921 112.174C139.074 97.6416 167.209 89.4773 179.383 87.2117C182.466 90.0287 188.336 97.4635 194.339 109.717C194.736 110.527 195.134 111.359 195.531 112.212M156.232 156.038C162.216 154.022 177.476 149.989 190.649 149.989C192.328 149.989 193.952 149.927 195.514 149.816M156.232 156.038C155.898 156.207 155.566 156.375 155.238 156.543M156.232 156.038C166.386 150.911 179.292 145.208 195.476 139.152M216.77 144.304L195.514 112.174M216.77 144.304C213.962 145.957 206.197 149.053 195.514 149.816M195.514 112.174L195.531 112.212M195.514 112.174C195.52 112.187 195.526 112.199 195.531 112.212M195.514 149.816L246.482 211.406L216.77 320.031L204.39 350.183C198.259 343.604 190.132 334.642 181.475 324.726M130.111 172.054C126.751 174.78 124.783 176.939 123.921 178.411C123.104 177.016 121.276 175.004 118.208 172.478M130.111 172.054C133.783 191.062 138.925 234.54 130.111 256.388C136.622 271.344 160.592 300.809 181.475 324.726M130.111 172.054C135.103 168.003 143.168 162.7 155.238 156.543M52.3642 149.827L1.48242 211.332L31.1944 319.957L43.5744 350.109C49.6909 343.546 57.7922 334.612 66.4253 324.726M52.3642 149.827C52.5334 149.839 52.7033 149.85 52.8739 149.86M117.854 172.189C114.182 191.197 109.04 234.466 117.854 256.314C111.336 271.286 87.323 300.796 66.4253 324.726M117.854 172.189C117.974 172.286 118.092 172.383 118.208 172.478M66.4253 324.726C71.1884 333.253 82.8685 350.752 91.4849 352.531M91.4849 352.531C100.2 352.531 138.281 352.531 156.232 352.531M91.4849 352.531H156.232M156.232 352.531C160.804 349.689 172.254 340.149 181.475 324.726M155.238 156.543C165.54 151.287 178.759 145.408 195.476 139.152M195.541 112.232C195.655 112.478 195.77 112.726 195.885 112.976C198.849 119.432 201.791 127.065 204.39 135.901C201.314 136.995 198.344 138.079 195.476 139.152M195.541 112.232C195.538 112.225 195.535 112.219 195.531 112.212M195.541 112.232L195.531 112.212M195.477 139.198C195.477 139.184 195.477 139.168 195.476 139.152" stroke="black" stroke-width="2"/>
<path d="M135.482 141.975C130.74 142.672 125.84 153.303 123.982 158.531C122.125 153.303 117.225 142.548 112.482 141.851C114.142 135.004 120.307 129.403 123.982 128.531C127.658 129.403 133.823 135.129 135.482 141.975Z" fill="#55437F" stroke="black" stroke-width="2"/>
<path d="M95.9824 87.5312C104.149 90.5312 112.982 93.0312 123.982 101.531C134.482 93.5312 143.982 89.0312 153.982 87.5312C152.982 87.1979 150.382 86.4313 147.982 86.0312C141.982 86.0312 129.482 92.5312 123.982 97.0312C117.982 92.0312 108.982 88.0312 102.482 86.0312L95.9824 87.5312Z" fill="#D9D9D9"/>
<path d="M102.482 82.6914C108.678 85.014 115.379 86.9495 123.724 93.5301C131.689 87.3366 138.896 83.8527 146.482 82.6914H102.482Z" fill="#FEBF42"/>
<path d="M123.293 173.534C123.723 179.869 128.767 184.913 135.103 185.344C128.767 185.775 123.723 190.818 123.293 197.154C122.862 190.818 117.818 185.774 111.482 185.344C117.818 184.913 122.862 179.869 123.293 173.534ZM123.26 177.263C123.228 181.738 119.608 185.358 115.133 185.39C119.608 185.422 123.228 189.042 123.26 193.517C123.292 189.042 126.912 185.422 131.387 185.39C126.912 185.358 123.292 181.738 123.26 177.263Z" fill="white"/>
<path d="M111.982 256.031C104.382 240.431 108.815 194.198 111.982 173.031H106.982C99.3973 203.371 102.47 238.89 104.967 252.948C104.969 252.532 106.335 252.643 111.982 256.031Z" fill="#FEBF42"/>
<path d="M136.387 255.531C143.987 239.931 139.554 193.698 136.387 172.531H141.387C148.972 202.871 145.899 238.39 143.402 252.448C143.4 252.032 142.034 252.143 136.387 255.531Z" fill="#FEBF42"/>
<g style="mix-blend-mode:multiply" opacity="0.58">
<path d="M129.482 145.031C126.149 147.746 124.837 149.065 123.982 150.531C123.171 149.141 121.97 147.137 118.926 144.621C113.854 140.427 105.365 134.81 92.4106 128.243C82.3609 123.149 69.5946 117.484 53.5938 111.468C55.4819 108.031 60.9819 96.5312 68.4819 88.5312C76.4819 89.5312 107.482 97.0312 123.982 114.031C137.482 99.5312 164.982 91.0311 178.982 88.5312C187.982 98.0312 191.982 107.531 193.982 111.531C177.395 117.763 165.89 123.51 155.668 128.746C143.693 134.88 134.436 140.995 129.482 145.031Z" fill="#1C142C"/>
</g>
</svg>
