<svg width="287" height="310" viewBox="0 0 287 310" fill="none" xmlns="http://www.w3.org/2000/svg">
<mask id="path-1-inside-1_1481_9975" fill="white">
<path d="M71.0605 25.9922L81.6396 0.5625H83.4854L91.3516 18.6445L99.2188 0.5625H236.286L243.678 17.3145L251.07 0.5625H254.496C255.093 0.5625 255.679 0.605713 256.253 0.6875L266.839 26.1318V296.784C266.839 303.601 261.313 309.127 254.496 309.127H208.745L197.014 281.688L185.298 309.088L175.782 286.213L166.25 309.127H49.4014L39.332 286.553L30.4092 306.553L19.9873 282.006V12.9053C19.9873 6.08866 25.5135 0.5625 32.3301 0.5625H60.4814L71.0605 25.9922Z"/>
</mask>
<path d="M71.0605 25.9922L81.6396 0.5625H83.4854L91.3516 18.6445L99.2188 0.5625H236.286L243.678 17.3145L251.07 0.5625H254.496C255.093 0.5625 255.679 0.605713 256.253 0.6875L266.839 26.1318V296.784C266.839 303.601 261.313 309.127 254.496 309.127H208.745L197.014 281.688L185.298 309.088L175.782 286.213L166.25 309.127H49.4014L39.332 286.553L30.4092 306.553L19.9873 282.006V12.9053C19.9873 6.08866 25.5135 0.5625 32.3301 0.5625H60.4814L71.0605 25.9922Z" fill="url(#paint0_linear_1481_9975)"/>
<path d="M71.0605 25.9922L67.6418 27.4144L71.0605 35.6323L74.4793 27.4144L71.0605 25.9922ZM81.6396 0.5625V-3.14027H79.1696L78.2209 -0.859741L81.6396 0.5625ZM83.4854 0.5625L86.8807 -0.914595L85.9125 -3.14027L83.4854 -3.14027V0.5625ZM91.3516 18.6445L87.9562 20.1216L91.3514 27.9261L94.7469 20.1218L91.3516 18.6445ZM99.2188 0.5625V-3.14027H96.7917L95.8234 -0.91475L99.2188 0.5625ZM236.286 0.5625L239.674 -0.932262L238.7 -3.14027L236.286 -3.14027V0.5625ZM243.678 17.3145L240.29 18.8092L243.678 26.4863L247.065 18.8094L243.678 17.3145ZM251.07 0.5625V-3.14027H248.657L247.683 -0.932428L251.07 0.5625ZM256.253 0.6875L259.672 -0.734826L258.862 -2.68085L256.775 -2.97823L256.253 0.6875ZM266.839 26.1318H270.542V25.3923L270.258 24.7095L266.839 26.1318ZM208.745 309.127L205.34 310.583L206.301 312.83H208.745V309.127ZM197.014 281.688L200.418 280.232L197.014 272.269L193.609 280.232L197.014 281.688ZM185.298 309.088L181.879 310.51L185.251 318.616L188.702 310.544L185.298 309.088ZM175.782 286.213L179.201 284.791L175.782 276.572L172.363 284.791L175.782 286.213ZM166.25 309.127V312.83H168.72L169.669 310.549L166.25 309.127ZM49.4014 309.127L46.0198 310.635L46.9986 312.83H49.4014V309.127ZM39.332 286.553L42.7136 285.044L39.3324 277.464L35.9505 285.044L39.332 286.553ZM30.4092 306.553L27.0009 308L30.3251 315.829L33.7907 308.061L30.4092 306.553ZM19.9873 282.006H16.2845V282.759L16.579 283.453L19.9873 282.006ZM60.4814 0.5625L63.9002 -0.859741L62.9514 -3.14027H60.4814V0.5625ZM71.0605 25.9922L74.4793 27.4144L85.0584 1.98474L81.6396 0.5625L78.2209 -0.859741L67.6418 24.5699L71.0605 25.9922ZM81.6396 0.5625V4.26527H83.4854V0.5625V-3.14027H81.6396V0.5625ZM83.4854 0.5625L80.09 2.0396L87.9562 20.1216L91.3516 18.6445L94.747 17.1674L86.8807 -0.914595L83.4854 0.5625ZM91.3516 18.6445L94.7469 20.1218L102.614 2.03975L99.2188 0.5625L95.8234 -0.91475L87.9562 17.1673L91.3516 18.6445ZM99.2188 0.5625V4.26527H236.286V0.5625V-3.14027H99.2188V0.5625ZM236.286 0.5625L232.898 2.05726L240.29 18.8092L243.678 17.3145L247.065 15.8197L239.674 -0.932262L236.286 0.5625ZM243.678 17.3145L247.065 18.8094L254.458 2.05743L251.07 0.5625L247.683 -0.932428L240.29 15.8195L243.678 17.3145ZM251.07 0.5625V4.26527H254.496V0.5625V-3.14027H251.07V0.5625ZM254.496 0.5625V4.26527C254.913 4.26527 255.325 4.29549 255.731 4.35323L256.253 0.6875L256.775 -2.97823C256.033 -3.08406 255.272 -3.14027 254.496 -3.14027V0.5625ZM256.253 0.6875L252.834 2.10983L263.42 27.5542L266.839 26.1318L270.258 24.7095L259.672 -0.734826L256.253 0.6875ZM266.839 26.1318H263.136V296.784H266.839H270.542V26.1318H266.839ZM266.839 296.784H263.136C263.136 301.556 259.268 305.424 254.496 305.424V309.127V312.83C263.358 312.83 270.542 305.646 270.542 296.784H266.839ZM254.496 309.127V305.424H208.745V309.127V312.83H254.496V309.127ZM208.745 309.127L212.15 307.671L200.418 280.232L197.014 281.688L193.609 283.143L205.34 310.583L208.745 309.127ZM197.014 281.688L193.609 280.232L181.893 307.632L185.298 309.088L188.702 310.544L200.418 283.143L197.014 281.688ZM185.298 309.088L188.717 307.666L179.201 284.791L175.782 286.213L172.363 287.635L181.879 310.51L185.298 309.088ZM175.782 286.213L172.363 284.791L162.831 307.705L166.25 309.127L169.669 310.549L179.201 287.635L175.782 286.213ZM166.25 309.127V305.424H49.4014V309.127V312.83H166.25V309.127ZM49.4014 309.127L52.783 307.619L42.7136 285.044L39.332 286.553L35.9504 288.061L46.0198 310.635L49.4014 309.127ZM39.332 286.553L35.9505 285.044L27.0277 305.044L30.4092 306.553L33.7907 308.061L42.7135 288.061L39.332 286.553ZM30.4092 306.553L33.8175 305.106L23.3956 280.559L19.9873 282.006L16.579 283.453L27.0009 308L30.4092 306.553ZM19.9873 282.006H23.6901V12.9053H19.9873H16.2845V282.006H19.9873ZM19.9873 12.9053H23.6901C23.6901 8.13364 27.5584 4.26527 32.3301 4.26527V0.5625V-3.14027C23.4685 -3.14027 16.2845 4.04368 16.2845 12.9053H19.9873ZM32.3301 0.5625V4.26527H60.4814V0.5625V-3.14027H32.3301V0.5625ZM60.4814 0.5625L57.0627 1.98474L67.6418 27.4144L71.0605 25.9922L74.4793 24.5699L63.9002 -0.859741L60.4814 0.5625Z" fill="url(#paint1_linear_1481_9975)" mask="url(#path-1-inside-1_1481_9975)"/>
<mask id="mask0_1481_9975" style="mask-type:alpha" maskUnits="userSpaceOnUse" x="19" y="1" width="248" height="309">
<mask id="path-3-inside-2_1481_9975" fill="white">
<path d="M71.0605 26.4297L81.6396 1H83.4854L91.3516 19.082L99.2188 1H236.286L243.678 17.752L251.07 1H254.496C255.093 1 255.679 1.04321 256.253 1.125L266.839 26.5693V297.222C266.839 304.038 261.313 309.564 254.496 309.564H208.745L197.014 282.125L185.298 309.525L175.782 286.65L166.25 309.564H49.4014L39.332 286.99L30.4092 306.99L19.9873 282.443V13.3428C19.9873 6.52616 25.5135 1 32.3301 1H60.4814L71.0605 26.4297Z"/>
</mask>
<path d="M71.0605 26.4297L81.6396 1H83.4854L91.3516 19.082L99.2188 1H236.286L243.678 17.752L251.07 1H254.496C255.093 1 255.679 1.04321 256.253 1.125L266.839 26.5693V297.222C266.839 304.038 261.313 309.564 254.496 309.564H208.745L197.014 282.125L185.298 309.525L175.782 286.65L166.25 309.564H49.4014L39.332 286.99L30.4092 306.99L19.9873 282.443V13.3428C19.9873 6.52616 25.5135 1 32.3301 1H60.4814L71.0605 26.4297Z" fill="url(#paint2_linear_1481_9975)"/>
<path d="M71.0605 26.4297L67.6418 27.8519L71.0605 36.0698L74.4793 27.8519L71.0605 26.4297ZM81.6396 1V-2.70277H79.1696L78.2209 -0.422241L81.6396 1ZM83.4854 1L86.8807 -0.477095L85.9125 -2.70277L83.4854 -2.70277V1ZM91.3516 19.082L87.9562 20.5591L91.3514 28.3636L94.7469 20.5593L91.3516 19.082ZM99.2188 1V-2.70277H96.7917L95.8234 -0.47725L99.2188 1ZM236.286 1L239.674 -0.494762L238.7 -2.70277L236.286 -2.70277V1ZM243.678 17.752L240.29 19.2467L243.678 26.9238L247.065 19.2469L243.678 17.752ZM251.07 1V-2.70277H248.657L247.683 -0.494928L251.07 1ZM256.253 1.125L259.672 -0.297326L258.862 -2.24335L256.775 -2.54073L256.253 1.125ZM266.839 26.5693H270.542V25.8298L270.258 25.147L266.839 26.5693ZM208.745 309.564L205.34 311.02L206.301 313.267H208.745V309.564ZM197.014 282.125L200.418 280.669L197.014 272.706L193.609 280.669L197.014 282.125ZM185.298 309.525L181.879 310.948L185.251 319.053L188.702 310.981L185.298 309.525ZM175.782 286.65L179.201 285.228L175.782 277.01L172.363 285.228L175.782 286.65ZM166.25 309.564V313.267H168.72L169.669 310.987L166.25 309.564ZM49.4014 309.564L46.0198 311.073L46.9986 313.267H49.4014V309.564ZM39.332 286.99L42.7136 285.482L39.3324 277.901L35.9505 285.482L39.332 286.99ZM30.4092 306.99L27.0009 308.437L30.3251 316.267L33.7907 308.499L30.4092 306.99ZM19.9873 282.443H16.2845V283.197L16.579 283.89L19.9873 282.443ZM60.4814 1L63.9002 -0.422241L62.9514 -2.70277H60.4814V1ZM71.0605 26.4297L74.4793 27.8519L85.0584 2.42224L81.6396 1L78.2209 -0.422241L67.6418 25.0074L71.0605 26.4297ZM81.6396 1V4.70277H83.4854V1V-2.70277H81.6396V1ZM83.4854 1L80.09 2.4771L87.9562 20.5591L91.3516 19.082L94.747 17.6049L86.8807 -0.477095L83.4854 1ZM91.3516 19.082L94.7469 20.5593L102.614 2.47725L99.2188 1L95.8234 -0.47725L87.9562 17.6048L91.3516 19.082ZM99.2188 1V4.70277H236.286V1V-2.70277H99.2188V1ZM236.286 1L232.898 2.49476L240.29 19.2467L243.678 17.752L247.065 16.2572L239.674 -0.494762L236.286 1ZM243.678 17.752L247.065 19.2469L254.458 2.49493L251.07 1L247.683 -0.494928L240.29 16.257L243.678 17.752ZM251.07 1V4.70277H254.496V1V-2.70277H251.07V1ZM254.496 1V4.70277C254.913 4.70277 255.325 4.73299 255.731 4.79073L256.253 1.125L256.775 -2.54073C256.033 -2.64656 255.272 -2.70277 254.496 -2.70277V1ZM256.253 1.125L252.834 2.54733L263.42 27.9917L266.839 26.5693L270.258 25.147L259.672 -0.297326L256.253 1.125ZM266.839 26.5693H263.136V297.222H266.839H270.542V26.5693H266.839ZM266.839 297.222H263.136C263.136 301.993 259.268 305.862 254.496 305.862V309.564V313.267C263.358 313.267 270.542 306.083 270.542 297.222H266.839ZM254.496 309.564V305.862H208.745V309.564V313.267H254.496V309.564ZM208.745 309.564L212.15 308.109L200.418 280.669L197.014 282.125L193.609 283.581L205.34 311.02L208.745 309.564ZM197.014 282.125L193.609 280.669L181.893 308.07L185.298 309.525L188.702 310.981L200.418 283.581L197.014 282.125ZM185.298 309.525L188.717 308.103L179.201 285.228L175.782 286.65L172.363 288.073L181.879 310.948L185.298 309.525ZM175.782 286.65L172.363 285.228L162.831 308.142L166.25 309.564L169.669 310.987L179.201 288.073L175.782 286.65ZM166.25 309.564V305.862H49.4014V309.564V313.267H166.25V309.564ZM49.4014 309.564L52.783 308.056L42.7136 285.482L39.332 286.99L35.9504 288.499L46.0198 311.073L49.4014 309.564ZM39.332 286.99L35.9505 285.482L27.0277 305.482L30.4092 306.99L33.7907 308.499L42.7135 288.499L39.332 286.99ZM30.4092 306.99L33.8175 305.543L23.3956 280.996L19.9873 282.443L16.579 283.89L27.0009 308.437L30.4092 306.99ZM19.9873 282.443H23.6901V13.3428H19.9873H16.2845V282.443H19.9873ZM19.9873 13.3428H23.6901C23.6901 8.57114 27.5584 4.70277 32.3301 4.70277V1V-2.70277C23.4685 -2.70277 16.2845 4.48118 16.2845 13.3428H19.9873ZM32.3301 1V4.70277H60.4814V1V-2.70277H32.3301V1ZM60.4814 1L57.0627 2.42224L67.6418 27.8519L71.0605 26.4297L74.4793 25.0074L63.9002 -0.422241L60.4814 1Z" fill="url(#paint3_linear_1481_9975)" mask="url(#path-3-inside-2_1481_9975)"/>
</mask>
<g mask="url(#mask0_1481_9975)">
<g style="mix-blend-mode:overlay">
<rect x="19.9873" y="0.5625" width="246.852" height="308.777" fill="url(#paint4_linear_1481_9975)"/>
</g>
<rect x="19.9873" y="0.5625" width="246.852" height="309.438" fill="url(#paint5_radial_1481_9975)" fill-opacity="0.2"/>
<path d="M114.004 57.387C64.5097 56.9006 45.6022 112.721 42.3353 140.692C41.1732 148.984 42.0005 160.179 46.8575 171.097C52.623 184.056 64.0667 196.626 84.6013 203.485C88.3715 204.745 92.4481 205.811 96.8523 206.653C105.061 208.221 114.408 209.007 125.03 208.796C125.855 208.78 126.671 208.761 127.48 208.74C141.418 208.38 152.956 207.349 162.605 205.756C171.138 204.348 178.192 202.499 184.121 200.284C205.758 192.201 215.687 175.961 219.975 167.448C224.263 158.935 224.517 157.639 225.223 152.854C227.354 138.418 223.896 118.169 216.574 99.7401C212.883 92.1013 209.254 85.0093 205.839 78.6702C199.725 69.2489 194.861 64.6847 184.447 57.387C161.345 41.1973 131.564 38.9426 120.742 37.9297C124.621 40.7673 132.38 47.5371 132.38 51.9148C113.269 44.618 100.324 46.8476 96.2399 48.8745C99.711 47.8611 108.123 48.1447 114.004 57.387Z" fill="#F2E9DD"/>
<path d="M56.4107 261.091C44.1491 285.9 56.7753 286.832 64.621 284.197C65.3725 278.615 66.4963 272.826 68.0624 266.84C61.6919 266.575 57.6402 262.896 56.4107 261.091Z" fill="#F2E9DD"/>
<path d="M200.374 296.358C206.579 295.555 209.232 290.905 210.09 285.738C210.275 284.629 210.376 283.496 210.412 282.373C210.514 279.222 210.103 276.143 209.562 273.86C208.881 270.257 207.963 266.365 206.872 262.307C201.78 266.685 187.038 269.603 180.303 270.516L184.121 282.373C185.028 285.572 186.577 290.31 189.96 293.402C191.729 295.019 193.999 296.185 196.941 296.447C197.996 296.541 199.138 296.518 200.374 296.358Z" fill="#F2E9DD"/>
<path d="M42.3353 140.692C28.655 186.965 13.668 282.897 63.1621 296.447C63.2812 296.48 63.4014 296.512 63.5228 296.545C63.6949 292.55 64.0508 288.433 64.621 284.197C56.7753 286.832 44.1491 285.9 56.4107 261.091C47.8383 247.011 36.7778 214.452 46.8575 171.097C42.0005 160.179 41.1732 148.984 42.3353 140.692Z" fill="#F2E9DD"/>
<path d="M225.223 152.854C234.296 187.109 243.865 259.266 209.562 273.86C210.103 276.143 210.514 279.222 210.412 282.373C213.804 281.225 221.323 280.429 224.263 286.428C227.551 286.177 231.021 285.65 234.677 284.805C281.893 263.54 247.111 162.932 216.574 99.7401C223.896 118.169 227.354 138.418 225.223 152.854Z" fill="#F2E9DD"/>
<path d="M210.09 285.738C209.232 290.905 206.579 295.555 200.374 296.358C199.138 296.518 197.996 296.541 196.941 296.447C197.625 299.923 197.064 314.862 196.698 321.897C200.09 323.721 207.043 325.181 207.724 316.425C230.389 321.897 234.677 296.967 218.75 295.142C226.101 294.169 225.488 288.927 224.263 286.428C221.323 280.429 213.804 281.225 210.412 282.373C210.376 283.496 210.275 284.629 210.09 285.738Z" fill="#F2E9DD"/>
<path d="M102.274 396.196C103.727 396.196 105.906 390.045 106.814 386.969C98.0595 387.408 85.3251 387.653 80.4844 386.356V391.69C79.4252 391.69 77.3067 392.231 77.3067 394.394C78.6686 397.098 100.459 396.196 102.274 396.196Z" fill="#F2E9DD"/>
<path d="M152.595 384.238C153.82 388.389 156.76 396.69 158.72 396.69C161.17 396.69 190.573 397.906 192.411 394.257C192.411 391.339 189.552 390.609 188.123 390.609V383.411C181.591 385.161 164.408 384.831 152.595 384.238Z" fill="#F2E9DD"/>
<path d="M225.223 152.854C224.517 157.639 224.263 158.935 219.975 167.448C215.687 175.961 205.758 192.201 184.121 200.284C189.739 212.797 200.895 240.066 206.872 262.307C207.963 266.365 208.881 270.257 209.562 273.86C243.865 259.266 234.296 187.109 225.223 152.854Z" fill="#DB867D"/>
<path d="M144.631 369.935C161.293 374.313 182.61 370.745 189.96 368.111C191.579 363.29 194.144 343.764 195.794 329.802C180.369 323.965 169.96 306.769 166.683 298.9C134.113 304.792 103.2 303.286 82.1511 300.22C79.6661 307.04 72.8675 321.776 65.5534 326.154C69.8414 349.786 75.6851 366.734 79.1226 375.017C84.5701 376.97 100.368 379.613 112.715 376.369C112.715 371.018 120.333 345.885 124.417 334.468C127.013 335.191 129.567 335.727 131.768 335.883C137.158 342.693 142.59 361.422 144.631 369.935Z" fill="#005E90"/>
<path fill-rule="evenodd" clip-rule="evenodd" d="M184.121 282.373L180.303 270.516L176.484 258.658L168.731 226.431C169.056 223.39 172.589 213.904 184.121 200.284C178.192 202.499 171.138 204.348 162.605 205.756C156.284 213.338 152.743 217.578 146.469 223.998C145.244 225.215 142.671 227.89 139.731 226.431C136.301 225.458 130.134 214.231 127.48 208.74C123.805 213.826 115.351 223.998 110.941 223.998C107.021 223.025 98.9349 213.458 95.382 208.796C81.1982 229.701 72.6952 249.132 68.0624 266.84C66.4963 272.826 65.3725 278.615 64.621 284.197C78.2102 288.454 121.135 294.048 184.121 282.373ZM93.7896 265.955C92.5157 260.118 95.3006 245.281 96.8523 238.592C111.962 237.173 144.754 235.187 155.045 238.592C154.555 254.159 154.024 264.942 153.82 267.779C143.678 274.363 137.952 277.81 127.48 282.373C123.192 284.805 116.569 285.413 113.391 283.589C107.388 280.143 95.0635 271.793 93.7896 265.955Z" fill="#005E90"/>
<path d="M176.484 258.658L180.303 270.516C187.038 269.603 201.78 266.685 206.872 262.307C200.895 240.066 189.739 212.797 184.121 200.284C172.589 213.904 169.056 223.39 168.731 226.431L176.484 258.658Z" fill="#008E5B"/>
<path d="M184.121 282.373C121.135 294.048 78.2102 288.454 64.621 284.197C64.0508 288.433 63.6949 292.55 63.5228 296.545C68.1714 297.789 74.5116 299.107 82.1511 300.22C103.2 303.286 134.113 304.792 166.683 298.9C174.386 297.507 182.181 295.7 189.96 293.402C186.577 290.31 185.028 285.572 184.121 282.373Z" fill="#005E90"/>
<path d="M65.5534 326.154C72.8675 321.776 79.6661 307.04 82.1511 300.22C74.5116 299.107 68.1714 297.789 63.5228 296.545C63.0577 307.341 63.9358 317.239 65.5534 326.154Z" fill="#005E90"/>
<path d="M112.715 376.369C100.368 379.613 84.5701 376.97 79.1226 375.017C77.3067 373.214 74.583 383.128 79.1226 385.832C79.4542 386.029 79.9147 386.203 80.4844 386.356C85.3251 387.653 98.0595 387.408 106.814 386.969C108.312 386.894 109.694 386.813 110.9 386.733C112.262 385.081 114.531 380.695 112.715 376.369Z" fill="#005E90"/>
<path d="M189.96 368.111C182.61 370.745 161.293 374.313 144.631 369.935C142.181 375.772 145.244 381.691 147.082 383.92C148.708 384.028 150.573 384.137 152.595 384.238C164.408 384.831 181.591 385.161 188.123 383.411C188.892 383.205 189.513 382.971 189.96 382.704C196.086 379.056 192.411 365.678 189.96 368.111Z" fill="#005E90"/>
<path d="M196.698 321.897C197.064 314.862 197.625 299.923 196.941 296.447C193.999 296.185 191.729 295.019 189.96 293.402C182.181 295.7 174.386 297.507 166.683 298.9C169.96 306.769 180.369 323.965 195.794 329.802C196.142 326.856 196.449 324.158 196.698 321.897Z" fill="#005E90"/>
<path d="M96.8523 238.592C95.3006 245.281 92.5157 260.118 93.7896 265.955C95.0635 271.793 107.388 280.143 113.391 283.589C116.569 285.413 123.192 284.805 127.48 282.373C137.952 277.81 143.678 274.363 153.82 267.779C154.024 264.942 154.555 254.159 155.045 238.592C144.754 235.187 111.962 237.173 96.8523 238.592Z" fill="#309FD9"/>
<path d="M46.8575 171.097C36.7778 214.452 47.8383 247.011 56.4107 261.091C62.949 244.172 77.7407 208.965 84.6013 203.485C64.0667 196.626 52.623 184.056 46.8575 171.097Z" fill="#DB867D"/>
<path d="M96.8523 206.653C92.4481 205.811 88.3715 204.745 84.6013 203.485C77.7407 208.965 62.949 244.172 56.4107 261.091C57.6402 262.896 61.6919 266.575 68.0624 266.84C72.6952 249.132 81.1982 229.701 95.382 208.796C95.8655 208.083 96.3556 207.369 96.8523 206.653Z" fill="#008E5B"/>
<path d="M125.03 208.796C114.408 209.007 105.061 208.221 96.8523 206.653C96.3556 207.369 95.8655 208.083 95.382 208.796C98.9349 213.458 107.021 223.025 110.941 223.998C115.351 223.998 123.805 213.826 127.48 208.74C126.671 208.761 125.855 208.78 125.03 208.796Z" fill="#008E5B"/>
<path d="M127.48 208.74C130.134 214.231 136.301 225.458 139.731 226.431C142.671 227.89 145.244 225.215 146.469 223.998C152.743 217.578 156.284 213.338 162.605 205.756C152.956 207.349 141.418 208.38 127.48 208.74Z" fill="#008E5B"/>
<path d="M42.3353 140.692C45.6022 112.721 64.5097 56.9006 114.004 57.387C108.123 48.1447 99.711 47.8611 96.2399 48.8745C100.324 46.8476 113.269 44.618 132.38 51.9148C132.38 47.5371 124.621 40.7673 120.742 37.9297C131.564 38.9426 161.345 41.1973 184.447 57.387C194.861 64.6847 199.725 69.2489 205.839 78.6702M42.3353 140.692C28.655 186.965 13.668 282.897 63.1621 296.447C63.2812 296.48 63.4014 296.512 63.5228 296.545M42.3353 140.692C41.1732 148.984 42.0005 160.179 46.8575 171.097M205.839 78.6702C209.254 85.0093 212.883 92.1013 216.574 99.7401M205.839 78.6702C209.979 85.0503 213.596 92.2447 216.574 99.7401M166.683 217.918L168.731 226.431M225.223 152.854C224.517 157.639 224.263 158.935 219.975 167.448C215.687 175.961 205.758 192.201 184.121 200.284M225.223 152.854C234.296 187.109 243.865 259.266 209.562 273.86M225.223 152.854C227.354 138.418 223.896 118.169 216.574 99.7401M209.562 273.86C208.881 270.257 207.963 266.365 206.872 262.307M209.562 273.86C210.103 276.143 210.514 279.222 210.412 282.373M184.121 200.284C189.739 212.797 200.895 240.066 206.872 262.307M184.121 200.284C172.589 213.904 169.056 223.39 168.731 226.431M184.121 200.284C178.192 202.499 171.138 204.348 162.605 205.756M184.121 282.373L180.303 270.516M184.121 282.373C121.135 294.048 78.2102 288.454 64.621 284.197M184.121 282.373C185.028 285.572 186.577 290.31 189.96 293.402M180.303 270.516L176.484 258.658L168.731 226.431M180.303 270.516C187.038 269.603 201.78 266.685 206.872 262.307M210.412 282.373C210.376 283.496 210.275 284.629 210.09 285.738C209.232 290.905 206.579 295.555 200.374 296.358C199.138 296.518 197.996 296.541 196.941 296.447M210.412 282.373C213.804 281.225 221.323 280.429 224.263 286.428M224.263 286.428C227.551 286.177 231.021 285.65 234.677 284.805C281.893 263.54 247.111 162.932 216.574 99.7401M224.263 286.428C225.488 288.927 226.101 294.169 218.75 295.142C234.677 296.967 230.389 321.897 207.724 316.425C207.043 325.181 200.09 323.722 196.698 321.897M196.698 321.897C197.064 314.862 197.625 299.923 196.941 296.447M196.698 321.897C196.449 324.158 196.142 326.856 195.794 329.802M189.96 368.111C182.61 370.745 161.293 374.313 144.631 369.935M189.96 368.111C192.411 365.678 196.086 379.056 189.96 382.704C189.513 382.971 188.892 383.205 188.123 383.411M189.96 368.111C191.579 363.29 194.144 343.764 195.794 329.802M196.941 296.447C193.999 296.185 191.729 295.019 189.96 293.402M144.631 369.935C142.181 375.772 145.244 381.691 147.082 383.92C148.708 384.028 150.573 384.137 152.595 384.238M144.631 369.935C142.59 361.422 137.158 342.693 131.768 335.883C129.567 335.727 127.013 335.191 124.417 334.468M152.595 384.238C153.82 388.389 156.76 396.69 158.72 396.69C161.17 396.69 190.573 397.906 192.411 394.257C192.411 391.339 189.552 390.609 188.123 390.609V383.411M152.595 384.238C164.408 384.831 181.591 385.161 188.123 383.411M46.8575 171.097C36.7778 214.452 47.8383 247.011 56.4107 261.091M46.8575 171.097C52.623 184.056 64.0667 196.626 84.6013 203.485M79.1226 375.017C75.6851 366.734 69.8414 349.786 65.5534 326.154M79.1226 375.017C84.5701 376.97 100.368 379.613 112.715 376.369M79.1226 375.017C77.3067 373.214 74.583 383.128 79.1226 385.832C79.4542 386.029 79.9147 386.203 80.4844 386.356M96.8523 206.653C105.061 208.221 114.408 209.007 125.03 208.796C125.855 208.78 126.671 208.761 127.48 208.74M96.8523 206.653C92.4481 205.811 88.3715 204.745 84.6013 203.485M96.8523 206.653C96.3556 207.369 95.8655 208.083 95.382 208.796M64.621 284.197C56.7753 286.832 44.1491 285.9 56.4107 261.091M64.621 284.197C65.3725 278.615 66.4964 272.826 68.0624 266.84M64.621 284.197C64.0508 288.433 63.6949 292.55 63.5228 296.545M56.4107 261.091C62.949 244.172 77.7407 208.965 84.6013 203.485M56.4107 261.091C57.6402 262.896 61.6919 266.575 68.0624 266.84M68.0624 266.84C72.6952 249.132 81.1982 229.701 95.382 208.796M95.382 208.796C98.9349 213.458 107.021 223.026 110.941 223.998C115.351 223.998 123.805 213.826 127.48 208.74M127.48 208.74C130.134 214.231 136.301 225.458 139.731 226.431C142.671 227.89 145.244 225.215 146.469 223.998C152.743 217.578 156.284 213.338 162.605 205.756M127.48 208.74C141.418 208.38 152.956 207.349 162.605 205.756M189.96 293.402C182.181 295.7 174.386 297.507 166.683 298.9M82.1511 300.22C79.6661 307.04 72.8675 321.776 65.5534 326.154M82.1511 300.22C103.2 303.286 134.113 304.792 166.683 298.9M82.1511 300.22C74.5116 299.107 68.1714 297.789 63.5228 296.545M65.5534 326.154C63.9358 317.239 63.0577 307.341 63.5228 296.545M166.683 298.9C169.96 306.769 180.369 323.965 195.794 329.802M110.328 329.194C113.241 330.571 118.922 332.938 124.417 334.468M124.417 334.468C120.333 345.885 112.715 371.018 112.715 376.369M112.715 376.369C114.531 380.695 112.262 385.081 110.9 386.733C109.694 386.813 108.312 386.894 106.814 386.969M106.814 386.969C105.906 390.045 103.727 396.196 102.274 396.196C100.459 396.196 78.6686 397.098 77.3067 394.394C77.3067 392.231 79.4252 391.69 80.4844 391.69V386.356M106.814 386.969C98.0595 387.408 85.3251 387.653 80.4844 386.356M96.8523 238.592C95.3006 245.281 92.5157 260.118 93.7896 265.955C95.0635 271.793 107.388 280.143 113.391 283.589C116.569 285.413 123.192 284.805 127.48 282.373C137.952 277.81 143.678 274.363 153.82 267.779C154.024 264.942 154.555 254.159 155.045 238.592C144.754 235.187 111.962 237.173 96.8523 238.592Z" stroke="#503C3C" stroke-width="2.00902" stroke-linecap="round"/>
<path d="M111.147 269.617C110.708 274.176 112.852 273.181 114.822 272.049C120.711 268.664 129.659 261.87 129.344 256.239C129.243 254.452 128.21 252.782 125.848 251.375C123.654 250.068 121.746 249.834 120.097 250.353C114.382 252.154 111.781 263.01 111.147 269.617Z" fill="#F96B35"/>
<path d="M120.097 250.353C121.746 249.834 123.654 250.068 125.848 251.375C128.21 252.782 129.243 254.452 129.344 256.239C133.197 258.063 136.259 251.992 131.972 248.952C136.872 245.305 126.459 238.616 125.233 244.695C119.108 241.047 116.658 248.942 120.097 250.353Z" fill="#5FBE50"/>
<path d="M120.097 250.353C114.382 252.154 111.781 263.01 111.147 269.617C110.708 274.176 112.852 273.181 114.822 272.049C120.711 268.664 129.659 261.87 129.344 256.239M120.097 250.353C121.746 249.834 123.654 250.068 125.848 251.375C128.21 252.782 129.243 254.452 129.344 256.239M120.097 250.353C116.658 248.942 119.108 241.047 125.233 244.695C126.459 238.616 136.872 245.305 131.972 248.952C136.259 251.992 133.197 258.063 129.344 256.239" stroke="#503C3C" stroke-width="2.00902"/>
<path d="M102.378 217.052C101.901 216.398 100.885 216.509 100.62 217.273C99.5155 220.453 97.927 225.986 97.6532 230.126C97.6126 230.741 98.1529 231.212 98.7633 231.129C113.612 229.131 144.766 230.071 153.907 231.143C154.519 231.215 155.05 230.741 155.079 230.125C155.289 225.658 156.653 220.725 158.25 216.421C158.673 215.281 156.563 213.933 155.758 214.845C150.286 221.038 146.447 224.765 142.329 227.039C138.499 228.555 130.69 210.013 126.402 210.621C122.114 211.229 114.151 223.999 110.476 223.999C107.807 223.999 104.17 219.511 102.378 217.052Z" fill="#008E5B" stroke="#503C3C" stroke-width="2.00902"/>
<path d="M168.056 227.043C170.63 252.185 175.406 299.403 187.657 292.106C181.683 287.173 171.059 246.056 168.056 227.043Z" fill="#2A5375" fill-opacity="0.5"/>
<path d="M56.6046 282.869C57.8622 286.429 62.8904 284.6 63.9217 283.589C66.9113 256.248 85.6666 221.541 95.2168 207.302C92.0991 206.972 93.9367 207.405 92.0991 206.797C83.3972 215.932 54.8512 272.235 56.5695 282.734C56.5773 282.782 56.5885 282.823 56.6046 282.869Z" fill="#775959" fill-opacity="0.5"/>
<path d="M127.014 208.799C97.4076 211.028 39.1743 200.529 43.0947 140.695C45.3526 156.694 63.8104 199.803 127.014 208.799Z" fill="#503C3C" fill-opacity="0.3"/>
<path d="M76.1725 215.485C43.3397 206.729 37.5815 170.285 41.8694 146.773C39.9092 180.825 68.4133 198.662 82.9104 203.324C78.6227 210.621 79.8478 208.188 76.1725 215.485Z" fill="#503C3C" fill-opacity="0.3" stroke="#503C3C" stroke-opacity="0.3" stroke-width="2.00902"/>
<path d="M226.862 140.695C228.822 174.747 197.868 195.624 183.371 200.286C192.757 219.791 209.405 264.851 211.548 281.767C214.611 279.335 210.935 224.609 201.747 208.191C225.853 183.502 228.701 151.531 226.862 140.695Z" fill="#503C3C" fill-opacity="0.3" stroke="#503C3C" stroke-opacity="0.3" stroke-width="2.00902"/>
<path d="M114.764 57.9947C112.804 52.6437 106.189 49.2791 103.126 48.2656C111.947 48.7521 122.319 56.1705 125.79 59.8189C125.178 59.2108 121.135 57.9947 114.764 57.9947Z" fill="#503C3C" fill-opacity="0.3" stroke="#503C3C" stroke-opacity="0.3" stroke-width="2.00902"/>
<path d="M133.754 53.1301C131.794 47.7791 125.178 40.158 122.115 39.1445C130.936 39.631 143.759 54.3462 147.23 57.9946C146.617 57.3866 140.492 54.9543 133.754 53.1301Z" fill="#503C3C" fill-opacity="0.3" stroke="#503C3C" stroke-opacity="0.3" stroke-width="2.00902"/>
<path d="M109.863 228.864C103.003 228.377 87.8116 197.244 95.7748 210.014C103.738 222.783 109.283 225.794 111.089 225.215C116.275 223.818 123.356 211.86 126.402 211.838C129.449 211.816 137.061 228.256 142.329 228.256C147.596 228.256 156.417 214.27 163.155 206.973C146.004 236.161 142.329 230.08 139.266 230.08C136.203 230.08 131.303 221.567 126.402 214.27C116.602 223.391 116.724 229.35 109.863 228.864Z" fill="#503C3C" fill-opacity="0.3" stroke="#503C3C" stroke-opacity="0.3" stroke-width="2.00902"/>
<path d="M100.592 126.648C97.5914 136.272 92.0499 143.119 83.4557 140.479C75.412 138.008 74.1844 129.082 77.1846 119.457C80.1848 109.833 85.2127 102.989 94.4007 104.812C102.364 107.245 103.592 117.023 100.592 126.648Z" fill="black"/>
<path d="M161.237 122.595C160.523 132.645 163.19 141.02 172.164 141.648C180.563 142.237 184.964 134.358 185.678 124.308C186.393 114.258 184.203 106.071 174.974 104.468C166.663 103.873 161.952 112.545 161.237 122.595Z" fill="black"/>
<path d="M68.0605 106.031C69.4898 98.1263 77.3713 84.2623 97.463 92.0456" stroke="black" stroke-width="2.00902" stroke-linecap="round"/>
<path d="M192.46 107.435C191.548 99.4545 184.587 85.1135 164.03 91.5906" stroke="black" stroke-width="2.00902" stroke-linecap="round"/>
<mask id="path-24-inside-3_1481_9975" fill="white">
<ellipse cx="63.1607" cy="141.302" rx="1.2251" ry="1.21614"/>
</mask>
<ellipse cx="63.1607" cy="141.302" rx="1.2251" ry="1.21614" fill="black"/>
<path d="M64.3858 141.302H62.3767C62.3767 140.85 62.7416 140.509 63.1607 140.509V142.518V144.527C64.9329 144.527 66.3948 143.097 66.3948 141.302H64.3858ZM63.1607 142.518V140.509C63.5797 140.509 63.9446 140.85 63.9446 141.302H61.9355H59.9265C59.9265 143.097 61.3884 144.527 63.1607 144.527V142.518ZM61.9355 141.302H63.9446C63.9446 141.754 63.5797 142.095 63.1607 142.095V140.086V138.077C61.3884 138.077 59.9265 139.507 59.9265 141.302H61.9355ZM63.1607 140.086V142.095C62.7416 142.095 62.3767 141.754 62.3767 141.302H64.3858H66.3948C66.3948 139.507 64.9329 138.077 63.1607 138.077V140.086Z" fill="#503C3C" mask="url(#path-24-inside-3_1481_9975)"/>
<mask id="path-26-inside-4_1481_9975" fill="white">
<ellipse cx="1.2251" cy="1.21614" rx="1.2251" ry="1.21614" transform="matrix(-1 0 0 1 194.245 143.734)"/>
</mask>
<ellipse cx="1.2251" cy="1.21614" rx="1.2251" ry="1.21614" transform="matrix(-1 0 0 1 194.245 143.734)" fill="black"/>
<path d="M191.795 144.951H193.804C193.804 144.499 193.439 144.158 193.02 144.158V146.167V148.176C191.248 148.176 189.786 146.746 189.786 144.951H191.795ZM193.02 146.167V144.158C192.601 144.158 192.236 144.499 192.236 144.951H194.245H196.254C196.254 146.746 194.792 148.176 193.02 148.176V146.167ZM194.245 144.951H192.236C192.236 145.402 192.601 145.743 193.02 145.743V143.734V141.725C194.792 141.725 196.254 143.155 196.254 144.951H194.245ZM193.02 143.734V145.743C193.439 145.743 193.804 145.402 193.804 144.951H191.795H189.786C189.786 143.155 191.248 141.725 193.02 141.725V143.734Z" fill="#503C3C" mask="url(#path-26-inside-4_1481_9975)"/>
<mask id="path-28-inside-5_1481_9975" fill="white">
<ellipse cx="65.6108" cy="153.462" rx="1.2251" ry="1.21614"/>
</mask>
<ellipse cx="65.6108" cy="153.462" rx="1.2251" ry="1.21614" fill="black"/>
<path d="M66.8359 153.462H64.8269C64.8269 153.01 65.1918 152.669 65.6108 152.669V154.678V156.687C67.3831 156.687 68.845 155.257 68.845 153.462H66.8359ZM65.6108 154.678V152.669C66.0298 152.669 66.3948 153.01 66.3948 153.462H64.3857H62.3767C62.3767 155.257 63.8386 156.687 65.6108 156.687V154.678ZM64.3857 153.462H66.3948C66.3948 153.914 66.0298 154.255 65.6108 154.255V152.246V150.237C63.8386 150.237 62.3767 151.667 62.3767 153.462H64.3857ZM65.6108 152.246V154.255C65.1918 154.255 64.8269 153.914 64.8269 153.462H66.8359H68.845C68.845 151.667 67.3831 150.237 65.6108 150.237V152.246Z" fill="#503C3C" mask="url(#path-28-inside-5_1481_9975)"/>
<mask id="path-30-inside-6_1481_9975" fill="white">
<ellipse cx="1.2251" cy="1.21614" rx="1.2251" ry="1.21614" transform="matrix(-1 0 0 1 191.796 155.895)"/>
</mask>
<ellipse cx="1.2251" cy="1.21614" rx="1.2251" ry="1.21614" transform="matrix(-1 0 0 1 191.796 155.895)" fill="black"/>
<path d="M189.346 157.111H191.355C191.355 156.659 190.99 156.318 190.571 156.318V158.327V160.336C188.799 160.336 187.337 158.906 187.337 157.111H189.346ZM190.571 158.327V156.318C190.152 156.318 189.787 156.659 189.787 157.111H191.796H193.805C193.805 158.906 192.343 160.336 190.571 160.336V158.327ZM191.796 157.111H189.787C189.787 157.562 190.152 157.904 190.571 157.904V155.895V153.886C192.343 153.886 193.805 155.316 193.805 157.111H191.796ZM190.571 155.895V157.904C190.99 157.904 191.355 157.562 191.355 157.111H189.346H187.337C187.337 155.316 188.799 153.886 190.571 153.886V155.895Z" fill="#503C3C" mask="url(#path-30-inside-6_1481_9975)"/>
<mask id="path-32-inside-7_1481_9975" fill="white">
<ellipse cx="74.187" cy="142.513" rx="1.2251" ry="1.21614"/>
</mask>
<ellipse cx="74.187" cy="142.513" rx="1.2251" ry="1.21614" fill="black"/>
<path d="M75.4121 142.513H73.4031C73.4031 142.061 73.768 141.72 74.187 141.72V143.729V145.738C75.9592 145.738 77.4211 144.308 77.4211 142.513H75.4121ZM74.187 143.729V141.72C74.606 141.72 74.9709 142.061 74.9709 142.513H72.9619H70.9529C70.9529 144.308 72.4148 145.738 74.187 145.738V143.729ZM72.9619 142.513H74.9709C74.9709 142.965 74.606 143.306 74.187 143.306V141.297V139.288C72.4148 139.288 70.9529 140.718 70.9529 142.513H72.9619ZM74.187 141.297V143.306C73.768 143.306 73.4031 142.965 73.4031 142.513H75.4121H77.4211C77.4211 140.718 75.9592 139.288 74.187 139.288V141.297Z" fill="#503C3C" mask="url(#path-32-inside-7_1481_9975)"/>
<mask id="path-34-inside-8_1481_9975" fill="white">
<ellipse cx="1.2251" cy="1.21614" rx="1.2251" ry="1.21614" transform="matrix(-1 0 0 1 183.22 144.945)"/>
</mask>
<ellipse cx="1.2251" cy="1.21614" rx="1.2251" ry="1.21614" transform="matrix(-1 0 0 1 183.22 144.945)" fill="black"/>
<path d="M180.77 146.161H182.779C182.779 145.71 182.414 145.369 181.995 145.369V147.378V149.387C180.222 149.387 178.761 147.957 178.761 146.161H180.77ZM181.995 147.378V145.369C181.576 145.369 181.211 145.71 181.211 146.161H183.22H185.229C185.229 147.957 183.767 149.387 181.995 149.387V147.378ZM183.22 146.161H181.211C181.211 146.613 181.576 146.954 181.995 146.954V144.945V142.936C183.767 142.936 185.229 144.366 185.229 146.161H183.22ZM181.995 144.945V146.954C182.414 146.954 182.779 146.613 182.779 146.161H180.77H178.761C178.761 144.366 180.222 142.936 181.995 142.936V144.945Z" fill="#503C3C" mask="url(#path-34-inside-8_1481_9975)"/>
<path d="M111.015 134.969C110.355 135.362 109.034 136.765 109.034 139.229C109.034 141.694 117.97 149.258 122.438 152.732L138.022 140.933C138.902 139.775 140.135 137.132 138.022 135.821C135.381 134.182 121.316 129.921 111.015 134.969Z" fill="#DB867D"/>
<path d="M122.578 152.855C117.678 149.41 108.122 141.667 109.102 138.262M122.578 152.855L137.892 140.694M122.578 152.855V159.544M122.578 159.544L118.29 164.409M122.578 159.544L127.479 164.409" stroke="black" stroke-width="2.00902" stroke-linecap="round"/>
<path d="M110.94 134.61C115.024 132.785 126.132 130.475 137.893 135.826" stroke="black" stroke-width="2.00902" stroke-linecap="round"/>
</g>
<defs>
<linearGradient id="paint0_linear_1481_9975" x1="143.413" y1="0.5625" x2="143.413" y2="309.127" gradientUnits="userSpaceOnUse">
<stop stop-color="#070D1A"/>
<stop offset="1" stop-color="#213A75"/>
</linearGradient>
<linearGradient id="paint1_linear_1481_9975" x1="143.413" y1="0.5625" x2="143.413" y2="309.127" gradientUnits="userSpaceOnUse">
<stop stop-color="#213A75"/>
<stop offset="1" stop-color="#0A1122"/>
</linearGradient>
<linearGradient id="paint2_linear_1481_9975" x1="143.413" y1="1" x2="143.413" y2="475.004" gradientUnits="userSpaceOnUse">
<stop stop-color="#C0DA92"/>
<stop offset="1" stop-color="#005B43"/>
</linearGradient>
<linearGradient id="paint3_linear_1481_9975" x1="143.413" y1="1" x2="143.413" y2="475.004" gradientUnits="userSpaceOnUse">
<stop stop-color="#A9BE83"/>
<stop offset="1" stop-color="#106D54"/>
</linearGradient>
<linearGradient id="paint4_linear_1481_9975" x1="143.413" y1="0.5625" x2="143.413" y2="309.339" gradientUnits="userSpaceOnUse">
<stop stop-color="#859BCF"/>
<stop offset="1" stop-color="#364567"/>
</linearGradient>
<radialGradient id="paint5_radial_1481_9975" cx="0" cy="0" r="1" gradientUnits="userSpaceOnUse" gradientTransform="translate(143.413 155.281) rotate(90) scale(154.719 123.426)">
<stop stop-color="#666666"/>
<stop offset="1"/>
</radialGradient>
</defs>
</svg>
