<svg width="329" height="217" viewBox="0 0 329 217" fill="none" xmlns="http://www.w3.org/2000/svg">
<path d="M141.257 143.598C142.157 143.598 142.886 142.869 142.886 141.969C142.886 141.069 142.157 140.339 141.257 140.339V143.598ZM62.9894 140.817C62.3531 141.453 62.3531 142.485 62.9894 143.121L73.359 153.491C73.9954 154.127 75.0271 154.127 75.6634 153.491C76.2997 152.854 76.2997 151.823 75.6634 151.186L66.446 141.969L75.6634 132.751C76.2997 132.115 76.2997 131.083 75.6634 130.447C75.0271 129.811 73.9954 129.811 73.359 130.447L62.9894 140.817ZM141.257 141.969V140.339H64.1416V141.969V143.598H141.257V141.969Z" fill="#583311"/>
<path d="M122.014 43.6333C122.914 43.6333 123.643 42.9038 123.643 42.0039C123.643 41.104 122.914 40.3745 122.014 40.3745V43.6333ZM43.7463 40.8517C43.1099 41.4881 43.1099 42.5198 43.7463 43.1561L54.1159 53.5257C54.7522 54.162 55.7839 54.162 56.4202 53.5257C57.0566 52.8894 57.0566 51.8577 56.4202 51.2214L47.2028 42.0039L56.4202 32.7865C57.0566 32.1501 57.0566 31.1184 56.4202 30.4821C55.7839 29.8458 54.7522 29.8458 54.1159 30.4821L43.7463 40.8517ZM122.014 42.0039V40.3745H44.8984V42.0039V43.6333H122.014V42.0039Z" fill="#583311"/>
<path d="M110.96 54.1055L77.0654 54.1055" stroke="#A88771" stroke-width="3.25886" stroke-linecap="round" stroke-linejoin="round"/>
<path d="M122.935 132.629L89.04 132.629" stroke="#A88771" stroke-width="3.25886" stroke-linecap="round" stroke-linejoin="round"/>
<path d="M125.008 32.4609L91.1133 32.4609" stroke="#A88771" stroke-width="3.25886" stroke-linecap="round" stroke-linejoin="round"/>
<path d="M136.981 154.273L103.087 154.273" stroke="#A88771" stroke-width="3.25886" stroke-linecap="round" stroke-linejoin="round"/>
<path d="M13.213 10.4377L65.3854 6.65669C70.0586 6.31801 74.3735 9.17017 75.8932 13.6024L119.193 139.89C120.822 144.643 118.792 149.879 114.384 152.29L61.1206 181.428C55.2898 184.618 48.0082 181.545 46.226 175.142L4.01716 23.4977C2.26896 17.2169 6.71055 10.909 13.213 10.4377Z" stroke="#A88771" stroke-width="3.25886" stroke-linejoin="round" stroke-dasharray="6.52 6.52"/>
<path d="M136.904 56.6506C135.396 58.9809 134.869 61.5243 135.42 63.812C135.925 65.9143 137.269 67.6474 139.305 68.8247C143.184 71.0672 152.163 74.0516 152.543 74.1776L152.545 74.1729L155.048 83.0249C153.435 84.4403 148.158 89.0901 145.551 91.621C143.04 94.0583 142.481 98.8933 142.371 101.558C142.33 102.558 142.63 103.565 143.217 104.392C144.685 106.459 148.553 111.676 152.757 115.452C153.332 115.969 153.876 116.416 154.398 116.81C152.295 122.314 151.868 127.716 153.277 131.36C154.622 134.844 160.4 139.706 166.273 142.615C164.548 144.239 161.333 147.751 160.03 152.412C158.275 158.694 162.878 164.847 168.218 168.158C171.569 170.236 175.509 171.323 179.323 171.322C179.416 171.322 179.507 171.313 179.599 171.312L180.247 172.791C180.368 173.147 180.823 174.197 182.156 174.857C182.882 175.215 183.733 175.395 184.706 175.395C186.229 175.395 188.051 174.955 190.153 174.078C190.321 174.034 190.49 173.981 190.661 173.912C191.769 173.408 198.179 170.052 206.477 165.671C210.829 168.169 238.883 183.738 258.951 182.061C261.94 185.551 282.318 209.369 287.331 216.108L289.073 214.812C289.039 214.766 289.001 214.715 288.965 214.667C283.355 207.176 261.182 181.325 260.235 180.22C260.003 179.951 259.656 179.812 259.301 179.847C241.436 181.66 215.622 168.241 208.768 164.461C225.391 155.676 247.898 143.688 251.784 141.618C252.226 143.069 252.487 144.51 252.407 145.79L254.575 145.925C254.953 139.88 249.218 131.484 248.973 131.13C248.951 131.097 248.928 131.066 248.902 131.037C235.63 115.618 235.545 95.0335 235.864 88.7834C235.999 88.9947 236.113 89.1957 236.179 89.3736C237.403 92.6367 242.103 96.7811 245.395 96.7811C245.477 96.7811 245.558 96.7785 245.638 96.7732L245.497 94.6054C243.427 94.7361 239.21 91.2667 238.213 88.6109C237.304 86.1851 232.775 82.5276 230.48 80.7893C232.816 79.2898 234.565 76.8985 234.694 72.7015L232.523 72.6346C232.33 78.9091 227.838 80.023 223.083 81.2024C222.626 81.3157 222.174 81.4278 221.733 81.5434C217.453 82.6642 211.128 81.6374 204.38 78.7264C198.885 76.356 197.982 72.5519 197.384 70.0346L197.353 69.9049C197.327 69.7935 197.342 69.7409 197.385 69.672C197.441 69.5812 197.53 69.4927 197.636 69.4056C199.406 70.5196 201.582 71.7526 202.549 71.7526C202.605 71.7526 202.658 71.7483 202.706 71.7396C203.352 71.6224 214.991 67.8912 215.673 67.2778C215.802 67.1609 216.078 66.8241 215.831 66.2236C215.646 65.7743 214.951 64.8917 214.138 64.094C215.845 63.4871 217.329 62.9887 218.121 62.8568C219.184 62.6796 220.339 61.7848 221.937 60.546C224.324 58.6965 227.294 56.3944 230.612 56.0489C235.693 55.5169 244.273 62.8857 247.502 65.659L247.851 65.9587C250.415 68.1567 260.622 75.0173 267.377 79.5571C268.899 80.5797 270.24 81.4809 271.269 82.1779C276.468 85.7001 292.864 120.697 293.4 125.879C293.969 131.382 298.465 136.236 298.656 136.44C298.733 136.522 298.822 136.591 298.921 136.646C300.213 137.366 305.549 142.026 326.76 165.151L327.295 164.661L328.361 163.683C312.371 146.25 302.883 136.553 300.144 134.847C299.513 134.137 296.013 130.026 295.561 125.655C295.032 120.538 278.691 84.5821 272.487 80.3793C271.456 79.6813 270.113 78.7785 268.589 77.754C261.877 73.2424 251.732 66.4244 249.265 64.3091L248.917 64.0111C245.173 60.7943 236.4 53.2622 230.387 53.8881C229.103 54.0218 227.879 54.3933 226.726 54.8964L208.959 7.92701C208.134 5.05536 205.045 -0.224375 199.093 0.00738446C191.63 0.307091 145.521 3.91997 145.056 3.95658C145.032 3.95843 145.008 3.96109 144.984 3.96451C144.957 3.96836 144.796 3.99454 144.552 4.0544C142.949 4.31706 139.921 5.72402 137.97 8.5897C136.26 11.1028 135.768 14.2237 136.562 17.6677L146.372 52.3497C144.108 52.4706 139.172 53.145 136.904 56.6506ZM139.313 10.5657C139.312 11.3483 139.413 12.1809 139.628 13.0663C140.216 15.4839 144.21 29.0986 149.737 47.942C153.324 60.1724 157.358 73.9255 161.382 87.7574C159.86 86.6277 158.609 85.8385 157.997 85.4685L138.666 17.1285C138.094 14.643 138.313 12.4404 139.313 10.5657ZM211.558 63.7658C212.129 63.8576 213.917 65.6066 214.475 66.4415C212.371 67.3127 203.293 70.3082 202.502 70.4535C202.501 70.4535 202.502 70.4535 202.502 70.4535C202.012 70.4535 199.988 69.3442 198.066 68.1317C205.093 64.9799 210.604 63.8136 211.558 63.7658ZM182.316 172.132C182.302 172.077 182.283 172.023 182.26 171.971L181.896 171.141C182.923 171.004 183.928 170.785 184.895 170.476C185.093 170.79 185.301 171.076 185.522 171.32C185.794 171.875 186.156 172.464 186.623 172.968C184.747 173.404 183.701 173.176 183.186 172.941C182.492 172.625 182.317 172.132 182.316 172.132ZM162.123 152.996C163.48 148.137 167.331 144.545 168.434 143.593C168.918 143.79 169.398 143.973 169.873 144.135C172.691 145.1 175.155 145.649 177.29 145.79C180.729 146.49 189.403 149.204 190.705 153.892C192.321 159.71 189.263 166.74 184.412 168.357C179.698 169.929 173.932 169.145 169.363 166.311C165.893 164.161 160.463 158.935 162.123 152.996ZM155.303 130.577C153.935 127.036 154.84 121.968 156.255 118.048C157.962 119.017 159.347 119.316 160.512 119.316C161.559 119.316 162.43 119.074 163.199 118.861C163.343 118.821 163.484 118.782 163.623 118.746C164.418 118.538 165.577 117.828 166.794 116.72C169.779 117.182 181.44 119.368 185.385 125.796C189.922 133.191 185.113 140.596 182.945 142.316C181.674 143.323 179.918 143.763 177.649 143.646C177.602 143.636 177.567 143.629 177.548 143.626L177.545 143.641C175.603 143.526 173.29 143.009 170.577 142.079C164.395 139.962 156.686 134.157 155.303 130.577ZM144.542 101.648C144.619 99.7626 145.02 95.1634 147.064 93.1799C149.277 91.032 153.582 87.2125 155.704 85.342L156.025 86.4776C156.102 86.7507 156.284 86.9831 156.53 87.1241C156.647 87.1912 168.241 93.928 170 102.136C171.802 110.545 164.376 116.304 163.075 116.643C162.925 116.682 162.773 116.725 162.617 116.768C160.775 117.28 158.687 117.86 154.208 113.836C150.167 110.206 146.415 105.142 144.989 103.134C144.679 102.697 144.52 102.17 144.542 101.648ZM151.828 71.6381C149.125 70.701 143.202 68.5679 140.393 66.9438C138.884 66.0718 137.895 64.8131 137.532 63.3038C137.122 61.6004 137.547 59.6567 138.728 57.8307C140.624 54.9009 145.435 54.5409 146.98 54.5022L151.828 71.6381Z" fill="#583311"/>
<path d="M157.951 114.879C158.063 114.958 158.194 114.997 158.326 114.997C158.454 114.997 158.582 114.959 158.693 114.884C158.917 114.731 159.023 114.456 158.959 114.192C158.26 111.304 160.868 102.686 161.931 99.6093C162.018 99.3573 161.943 99.0778 161.742 98.9036C158.443 96.0487 151.81 97.0347 151.529 97.0779C151.324 97.1098 151.146 97.2368 151.05 97.4206C150.958 97.5975 148.801 101.793 149.554 105.621C150.313 109.482 157.64 114.66 157.951 114.879ZM152.062 98.3233C153.344 98.1756 157.993 97.794 160.55 99.6231C159.918 101.513 157.561 108.837 157.545 112.957C155.147 111.107 151.294 107.713 150.833 105.37C150.275 102.536 151.609 99.308 152.062 98.3233Z" fill="#583311"/>
<path d="M178.956 141.969C179.144 141.969 179.327 141.887 179.452 141.739C182.218 138.488 183.554 132.784 183.067 129.497C182.862 128.114 182.362 127.159 181.581 126.656C178.941 124.96 170.814 124.882 170.47 124.879C170.282 124.885 170.078 124.969 169.953 125.127C169.802 125.319 166.233 129.898 165.987 135.307C165.985 135.357 165.988 135.407 165.997 135.456C166.51 138.209 175.907 141.118 178.776 141.943C178.835 141.96 178.896 141.969 178.956 141.969ZM167.294 135.278C167.52 131.012 170.071 127.185 170.79 126.187C173.261 126.229 179.035 126.57 180.876 127.753C181.314 128.034 181.634 128.722 181.777 129.688C182.198 132.525 181.046 137.579 178.723 140.57C173.409 139.002 167.697 136.601 167.294 135.278Z" fill="#583311"/>
<path d="M170.537 161.91C172.476 164.536 182.562 167.023 183.705 167.299C183.756 167.311 183.807 167.317 183.858 167.317C184.047 167.317 184.23 167.235 184.355 167.087C186.121 165.006 186.718 154.389 186.781 153.185C186.794 152.924 186.651 152.681 186.417 152.566C183.373 151.075 172.568 151.524 172.11 151.543C171.872 151.554 171.658 151.693 171.553 151.907C171.479 152.058 169.742 155.674 170.414 161.596C170.427 161.71 170.469 161.818 170.537 161.91ZM172.577 152.829C175.718 152.716 182.854 152.671 185.454 153.576C185.216 157.706 184.536 164.07 183.569 165.923C180.381 165.125 173.266 163.05 171.689 161.262C171.225 156.852 172.195 153.816 172.577 152.829Z" fill="#583311"/>
</svg>
