<svg width="159" height="212" viewBox="0 0 159 212" fill="none" xmlns="http://www.w3.org/2000/svg">
<path d="M148.63 88.3859L156.562 83.3315C159.481 81.468 159.481 77.2052 156.562 75.3415L148.63 70.2871L154.979 63.3526C157.321 60.7966 156.216 56.6737 152.91 55.635L143.939 52.7984L148.276 44.4541C149.875 41.3786 147.74 37.6846 144.277 37.5362L134.877 37.1157L136.905 27.9384C137.656 24.5577 134.638 21.54 131.249 22.2902L122.063 24.3186L121.643 14.9271C121.486 11.464 117.792 9.33674 114.717 10.9281L106.372 15.2652L103.536 6.30241C102.489 2.99599 98.366 1.89941 95.8098 4.2328L88.867 10.5818L83.8044 2.6579C81.9409 -0.260967 77.6699 -0.260967 75.8062 2.6579L70.7436 10.5818L63.8008 4.2328C61.2448 1.89103 57.1219 2.99597 56.0747 6.30241L53.2382 15.2652L44.8938 10.9281C41.8183 9.32849 38.1244 11.4641 37.9677 14.9271L37.5472 24.3186L28.3617 22.2902C24.9727 21.5399 21.9633 24.5577 22.7053 27.9384L24.7337 37.1157L15.3586 37.5197C11.8955 37.6764 9.76001 41.3703 11.3596 44.4376L15.6967 52.7819L6.72568 55.6185C3.41927 56.6656 2.31445 60.7801 4.65607 63.3361L11.005 70.2707L3.07294 75.3251C0.154072 77.1885 0.154072 81.4513 3.07294 83.315L11.005 88.3694L4.6643 95.3204C2.32254 97.8764 3.42748 101.999 6.73391 103.038L15.705 105.875L11.3678 114.219C9.76822 117.294 11.9038 120.988 15.3668 121.137L24.7666 121.557L22.7382 130.735C21.9879 134.115 25.0057 137.133 28.3946 136.383L37.5801 134.354L38.0007 143.746C38.1573 147.209 41.8512 149.336 44.9267 147.745L53.2711 143.408L56.1076 152.371C57.1548 155.677 61.2775 156.774 63.8337 154.44L70.7765 148.091L75.8391 156.015C77.7026 158.934 81.9736 158.934 83.8373 156.015L88.8999 148.091L95.8427 154.44C98.3987 156.782 102.522 155.677 103.569 152.371L106.405 143.408L114.75 147.745C117.825 149.345 121.519 147.209 121.676 143.746L122.096 134.354L131.282 136.383C134.663 137.133 137.68 134.115 136.938 130.735L134.91 121.557L144.31 121.137C147.773 120.98 149.908 117.286 148.309 114.219L143.971 105.875L152.943 103.038C156.249 101.991 157.354 97.8764 155.012 95.3204L148.63 88.3859ZM98.2339 84.7166L109.613 119.472L79.8224 97.9917L50.0321 119.472L61.4108 84.7166L31.6205 63.2367H68.4357L79.8226 28.4902L91.2013 63.2452H128.016L98.2339 84.7166Z" fill="#583311"/>
<path d="M133.25 149.645C130.727 151.599 128.105 153.429 125.376 155.111L134.199 188.036L118.903 180.368C116.858 179.345 114.368 180.013 113.115 181.918L103.707 196.199L95.7995 166.69C92.8477 167.267 89.8463 167.695 86.8037 167.968L97.5971 208.221C98.4546 211.891 103.74 212.756 105.719 209.532L118.45 190.213L139.138 200.586C142.452 202.392 146.616 199.003 145.52 195.392L133.25 149.645Z" fill="#583311" fill-opacity="0.5"/>
<path d="M63.743 167.08L55.9346 196.195L46.5266 181.914C45.265 179.993 42.7501 179.35 40.7382 180.364L25.4429 188.032L33.9605 156.27C31.2148 154.671 28.568 152.931 26.0202 151.051L14.1303 195.395C13.0336 199.007 17.1975 202.396 20.5122 200.59L41.2001 190.217L53.931 209.536C55.9181 212.76 61.1952 211.894 62.0528 208.225L72.7966 168.144C69.7293 167.938 66.7115 167.583 63.743 167.08Z" fill="#583311" fill-opacity="0.5"/>
</svg>
