<svg width="1144" height="486" viewBox="0 0 1144 486" fill="none" xmlns="http://www.w3.org/2000/svg">
<g filter="url(#filter0_d_1036_5102)">
<mask id="path-1-inside-1_1036_5102" fill="white">
<path d="M639.386 20.6025L647.957 0H649.45L655.824 14.6504L662.198 0H1040.37L1046.03 12.8184L1051.68 0H1056.49L1065.06 20.6025L1073.63 0H1130C1135.52 8.76189e-06 1140 4.47716 1140 10V468C1140 473.523 1135.52 478 1130 478H424.079L417.031 461.516L409.983 478H405.158L399.826 465.183L394.494 478H140.744L135.843 467.011L130.941 478H126.402L119.403 461.517L112.404 478H14C8.47716 478 4 473.523 4 468V10C4 4.47716 8.47715 1.85224e-07 14 0H630.814L639.386 20.6025Z"/>
</mask>
<path d="M639.386 20.6025L647.957 0H649.45L655.824 14.6504L662.198 0H1040.37L1046.03 12.8184L1051.68 0H1056.49L1065.06 20.6025L1073.63 0H1130C1135.52 8.76189e-06 1140 4.47716 1140 10V468C1140 473.523 1135.52 478 1130 478H424.079L417.031 461.516L409.983 478H405.158L399.826 465.183L394.494 478H140.744L135.843 467.011L130.941 478H126.402L119.403 461.517L112.404 478H14C8.47716 478 4 473.523 4 468V10C4 4.47716 8.47715 1.85224e-07 14 0H630.814L639.386 20.6025Z" fill="#FEEDD5"/>
<path d="M639.386 20.6025L636.616 21.7549L639.386 28.4127L642.156 21.7549L639.386 20.6025ZM647.957 0V-3H645.956L645.187 -1.15235L647.957 0ZM649.45 0L652.201 -1.19686L651.417 -3H649.45V0ZM655.824 14.6504L653.073 15.8472L655.824 22.1701L658.575 15.8472L655.824 14.6504ZM662.198 0V-3H660.232L659.447 -1.19686L662.198 0ZM1040.37 0L1043.12 -1.21112L1042.33 -3H1040.37V0ZM1046.03 12.8184L1043.28 14.0295L1046.03 20.2495L1048.77 14.0295L1046.03 12.8184ZM1051.68 0V-3H1049.73L1048.94 -1.21112L1051.68 0ZM1056.49 0L1059.26 -1.15235L1058.49 -3H1056.49V0ZM1065.06 20.6025L1062.29 21.7549L1065.06 28.4127L1067.83 21.7549L1065.06 20.6025ZM1073.63 0V-3H1071.63L1070.86 -1.15235L1073.63 0ZM1130 0L1130 -3H1130V0ZM1140 468L1143 468V468H1140ZM1130 478L1130 481H1130L1130 478ZM424.079 478L421.321 479.179L422.099 481H424.079V478ZM417.031 461.516L419.79 460.336L417.031 453.884L414.273 460.336L417.031 461.516ZM409.983 478V481H411.963L412.742 479.179L409.983 478ZM405.158 478L402.388 479.152L403.157 481H405.158V478ZM399.826 465.183L402.596 464.03L399.826 457.372L397.056 464.03L399.826 465.183ZM394.494 478V481H396.495L397.264 479.152L394.494 478ZM140.744 478L138.004 479.222L138.797 481H140.744V478ZM135.843 467.011L138.583 465.789L135.843 459.646L133.103 465.789L135.843 467.011ZM130.941 478V481H132.888L133.681 479.222L130.941 478ZM126.402 478L123.641 479.173L124.417 481H126.402V478ZM119.403 461.517L122.165 460.344L119.403 453.841L116.642 460.344L119.403 461.517ZM112.404 478V481H114.39L115.166 479.173L112.404 478ZM14 478L14 481H14V478ZM4 10L1 10V10H4ZM14 0L14 -3L14 -3L14 0ZM630.814 0L633.584 -1.15235L632.816 -3H630.814V0ZM642.156 21.7549L650.727 1.15235L645.187 -1.15235L636.616 19.4502L642.156 21.7549ZM647.957 3H649.45V-3H647.957V3ZM646.699 1.19686L653.073 15.8472L658.575 13.4535L652.201 -1.19686L646.699 1.19686ZM658.575 15.8472L664.949 1.19686L659.447 -1.19686L653.073 13.4535L658.575 15.8472ZM662.198 3H1040.37V-3H662.198V3ZM1037.63 1.21112L1043.28 14.0295L1048.77 11.6072L1043.12 -1.21112L1037.63 1.21112ZM1048.77 14.0295L1054.43 1.21112L1048.94 -1.21112L1043.28 11.6072L1048.77 14.0295ZM1051.68 3H1056.49V-3H1051.68V3ZM1053.72 1.15235L1062.29 21.7549L1067.83 19.4502L1059.26 -1.15235L1053.72 1.15235ZM1067.83 21.7549L1076.4 1.15235L1070.86 -1.15235L1062.29 19.4502L1067.83 21.7549ZM1073.63 3H1130V-3H1073.63V3ZM1130 3C1133.87 3.00001 1137 6.13402 1137 10H1143C1143 2.8203 1137.18 -2.99999 1130 -3L1130 3ZM1137 10V468H1143V10H1137ZM1137 468C1137 471.866 1133.87 475 1130 475L1130 481C1137.18 481 1143 475.18 1143 468L1137 468ZM1130 475H424.079V481H1130V475ZM426.838 476.821L419.79 460.336L414.273 462.695L421.321 479.179L426.838 476.821ZM414.273 460.336L407.225 476.821L412.742 479.179L419.79 462.695L414.273 460.336ZM409.983 475H405.158V481H409.983V475ZM407.928 476.848L402.596 464.03L397.056 466.335L402.388 479.152L407.928 476.848ZM397.056 464.03L391.724 476.848L397.264 479.152L402.596 466.335L397.056 464.03ZM394.494 475H140.744V481H394.494V475ZM143.484 476.778L138.583 465.789L133.103 468.233L138.004 479.222L143.484 476.778ZM133.103 465.789L128.202 476.778L133.681 479.222L138.583 468.233L133.103 465.789ZM130.941 475H126.402V481H130.941V475ZM129.164 476.827L122.165 460.344L116.642 462.689L123.641 479.173L129.164 476.827ZM116.642 460.344L109.643 476.827L115.166 479.173L122.165 462.689L116.642 460.344ZM112.404 475H14V481H112.404V475ZM14 475C10.134 475 7 471.866 7 468H1C1 475.18 6.82031 481 14 481L14 475ZM7 468V10H1V468H7ZM7 10C7 6.13401 10.134 3 14 3L14 -3C6.8203 -3 1 2.8203 1 10L7 10ZM14 3H630.814V-3H14V3ZM628.045 1.15235L636.616 21.7549L642.156 19.4502L633.584 -1.15235L628.045 1.15235Z" fill="#CDAB94" mask="url(#path-1-inside-1_1036_5102)"/>
</g>
<path d="M490.88 231H483.23C482.618 231 482.346 230.728 482.346 230.014C482.346 229.368 482.55 229.028 482.992 228.858L483.978 228.45C484.862 228.076 485.338 227.566 485.338 226.172V212.028C485.338 210.634 484.862 210.09 483.978 209.75L482.992 209.342C482.55 209.172 482.346 208.832 482.346 208.186C482.346 207.472 482.618 207.2 483.23 207.2H490.88C491.492 207.2 491.764 207.472 491.764 208.186C491.764 208.832 491.56 209.172 491.118 209.342L490.132 209.75C489.248 210.09 488.772 210.634 488.772 212.028V226.172C488.772 227.566 489.248 228.076 490.132 228.45L491.118 228.858C491.56 229.028 491.764 229.368 491.764 230.014C491.764 230.728 491.492 231 490.88 231ZM509.165 224.948C509.879 225.152 510.117 225.764 509.777 226.614C508.859 229.164 506.785 231.544 503.521 231.544C499.815 231.544 498.251 228.96 498.251 224.982V215.938H496.483C495.973 215.938 495.735 215.734 495.735 215.054C495.735 214.51 495.837 214.408 496.279 213.864L499.849 209.92C500.359 209.342 501.481 209.58 501.481 210.328V213.286H507.227C508.111 213.286 508.383 213.592 508.383 214.578C508.383 215.53 508.111 215.938 507.227 215.938H501.481V225.152C501.481 227.872 502.399 228.824 503.929 228.824C505.731 228.824 506.615 227.532 507.635 225.492C507.941 224.948 508.349 224.71 509.165 224.948ZM515.572 206.656C516.796 206.656 517.714 207.506 517.714 209.036C517.714 211.858 515.64 214.646 514.586 215.496C514.178 215.836 513.668 216.108 513.124 215.632C512.716 215.292 512.75 214.85 513.022 214.476C513.736 213.558 514.518 212.572 514.994 210.872C514.076 210.634 513.43 209.818 513.43 208.798C513.43 207.574 514.348 206.656 515.572 206.656ZM529.744 220.596C533.076 221.378 535.388 222.874 535.388 226.172C535.388 229.572 533.28 231.544 529.472 231.544C527.33 231.544 525.868 230.49 524.78 229.164L524.61 230.252C524.474 231.068 524.134 231.204 523.454 231.204C522.604 231.204 522.468 231 522.162 229.742L521.21 225.798C521.006 224.846 521.176 224.574 522.026 224.2C522.842 223.894 523.25 224.132 523.624 224.608C525.324 227.328 527.024 228.892 529.302 228.892C531.172 228.892 532.362 228.008 532.362 226.376C532.362 224.506 530.832 223.996 527.16 223.146C523.454 222.262 521.584 220.426 521.584 217.4C521.584 214.714 523.624 212.742 526.31 212.742C528.724 212.742 530.22 213.83 531.308 215.19L531.478 214.034C531.614 213.218 531.954 213.082 532.634 213.082C533.518 213.082 533.654 213.286 533.926 214.544L534.674 217.842C534.878 218.794 534.708 219.168 533.858 219.508C533.076 219.848 532.668 219.61 532.26 219.1C530.696 216.754 529.132 215.36 527.024 215.36C525.596 215.36 524.61 215.938 524.61 217.298C524.61 219.202 525.97 219.712 529.744 220.596ZM552.001 227.94H555.877C559.141 227.94 561.317 228.892 561.317 231.986C561.317 235.794 557.475 237.664 552.239 237.664C546.459 237.664 543.535 236.134 543.535 233.516C543.535 231.748 544.895 230.49 547.717 229.98C546.867 229.334 546.357 228.45 546.357 227.43C546.357 226.24 546.935 225.186 548.329 224.574C546.153 223.452 544.929 221.344 544.929 218.862C544.929 215.598 547.207 212.742 552.239 212.742C554.857 212.742 555.979 212.64 557.917 211.416C558.631 210.94 559.277 210.6 559.957 210.6C560.807 210.6 561.317 211.144 561.317 211.994C561.317 213.864 559.141 214.272 556.081 214.136C558.019 215.258 558.937 217.094 558.937 218.862C558.937 222.466 556.659 225.356 551.933 225.356H551.865C550.097 225.356 549.179 225.73 549.179 226.648C549.179 227.362 549.961 227.94 552.001 227.94ZM551.933 215.156C549.655 215.156 548.091 216.346 548.091 218.624C548.091 221.276 549.723 222.874 552.001 222.874C554.279 222.874 555.809 221.684 555.809 219.372C555.809 216.754 554.211 215.156 551.933 215.156ZM552.375 235.046C556.149 235.046 558.461 233.992 558.461 232.428C558.461 231.34 557.747 231.034 555.945 231.034H551.117C547.649 231.034 546.697 231.884 546.697 232.938C546.697 234.196 547.921 235.046 552.375 235.046ZM580.001 228.314L580.715 228.552C581.395 228.79 581.599 228.994 581.599 229.538C581.599 230.15 581.429 230.354 580.953 230.49L578.029 231.238C577.009 231.476 576.465 231.034 576.465 229.98V228.008L575.003 229.062C572.147 231.136 570.447 231.544 568.475 231.544C565.959 231.544 563.885 229.878 563.885 226.512C563.885 223.588 565.891 221.412 570.685 220.392L575.751 219.338V217.944C575.751 216.38 575.071 215.428 573.473 215.428C569.903 215.428 568.713 218.318 566.299 218.318C565.415 218.318 564.871 217.774 564.871 216.924C564.871 214.714 569.665 212.742 573.711 212.742C577.349 212.742 578.981 214.646 578.981 218.454V226.614C578.981 227.532 579.185 228.008 580.001 228.314ZM573.643 227.43L575.751 226.104V221.514L572.079 222.466C568.679 223.384 567.115 224.336 567.115 226.444C567.115 228.144 568.101 228.96 569.495 228.96C570.685 228.96 571.637 228.688 573.643 227.43ZM615.166 228.654L615.982 228.994C616.56 229.232 616.662 229.436 616.662 230.082C616.662 230.728 616.424 231 615.846 231H609.08C608.502 231 608.264 230.728 608.264 230.116C608.264 229.47 608.366 229.232 608.91 228.994L609.76 228.654C610.644 228.314 610.848 227.77 610.848 226.818V218.148C610.848 216.074 609.76 215.19 607.55 216.244L602.382 218.794V226.818C602.382 227.77 602.62 228.314 603.47 228.654L604.286 228.994C604.83 229.232 604.966 229.436 604.966 230.082C604.966 230.728 604.728 231 604.15 231H597.384C596.84 231 596.568 230.728 596.568 230.082C596.568 229.436 596.704 229.232 597.248 228.994L598.064 228.654C598.914 228.314 599.152 227.77 599.152 226.818V218.148C599.152 216.074 598.064 215.19 595.854 216.244L590.652 218.794V226.818C590.652 227.77 590.89 228.314 591.74 228.654L592.556 228.994C593.1 229.232 593.236 229.436 593.236 230.082C593.236 230.728 592.998 231 592.42 231H585.654C585.076 231 584.804 230.728 584.804 230.116C584.804 229.47 584.94 229.232 585.484 228.994L586.334 228.654C587.184 228.314 587.422 227.77 587.422 226.818V218.25C587.422 216.992 587.286 216.55 586.232 216.176L585.552 215.938C584.94 215.7 584.804 215.53 584.804 214.986C584.804 214.544 584.94 214.374 585.416 214.204L588.748 212.98C590.006 212.504 590.652 212.81 590.652 214.068V216.686L594.834 214.068C598.336 211.824 602.076 212.402 602.348 216.686L606.53 214.068C610.168 211.722 614.078 212.47 614.078 217.23V226.818C614.078 227.77 614.316 228.314 615.166 228.654ZM635.581 224.234C636.431 224.472 636.533 225.084 636.295 225.968C635.615 228.722 632.827 231.544 628.203 231.544C622.933 231.544 619.601 227.6 619.601 222.228C619.601 216.89 622.593 212.742 628.203 212.742C632.657 212.742 635.343 215.632 635.921 218.726C636.159 219.984 635.751 220.562 634.765 220.902L623.443 224.914C624.293 227.09 626.061 228.688 628.645 228.688C631.331 228.688 632.929 227.566 634.017 224.982C634.357 224.234 634.799 224.03 635.581 224.234ZM627.863 215.598C624.667 215.632 622.797 217.91 622.831 221.82C622.831 222.194 622.865 222.534 622.899 222.908L632.521 219.066C631.739 217.128 630.175 215.564 627.863 215.598ZM658.461 224.948C659.175 225.152 659.413 225.764 659.073 226.614C658.155 229.164 656.081 231.544 652.817 231.544C649.111 231.544 647.547 228.96 647.547 224.982V215.938H645.779C645.269 215.938 645.031 215.734 645.031 215.054C645.031 214.51 645.133 214.408 645.575 213.864L649.145 209.92C649.655 209.342 650.777 209.58 650.777 210.328V213.286H656.523C657.407 213.286 657.679 213.592 657.679 214.578C657.679 215.53 657.407 215.938 656.523 215.938H650.777V225.152C650.777 227.872 651.695 228.824 653.225 228.824C655.027 228.824 655.911 227.532 656.931 225.492C657.237 224.948 657.645 224.71 658.461 224.948ZM665.751 210.362C664.527 210.362 663.575 209.41 663.575 208.186C663.575 206.962 664.527 206.01 665.751 206.01C667.009 206.01 667.961 206.962 667.961 208.186C667.961 209.41 667.009 210.362 665.751 210.362ZM669.457 231H662.759C662.147 231 661.875 230.728 661.875 230.116C661.875 229.504 661.977 229.3 662.521 229.028L663.133 228.756C664.187 228.314 664.493 227.804 664.493 226.818V218.318C664.493 216.856 664.323 216.55 662.623 215.972C662.011 215.768 661.875 215.564 661.875 215.088C661.875 214.578 662.011 214.374 662.487 214.204L665.819 212.98C667.077 212.504 667.723 212.81 667.723 214.068V226.818C667.723 227.77 667.995 228.314 668.879 228.688L669.491 228.926C670.205 229.232 670.341 229.504 670.341 230.116C670.341 230.728 670.103 231 669.457 231ZM703.793 228.654L704.609 228.994C705.187 229.232 705.289 229.436 705.289 230.082C705.289 230.728 705.051 231 704.473 231H697.707C697.129 231 696.891 230.728 696.891 230.116C696.891 229.47 696.993 229.232 697.537 228.994L698.387 228.654C699.271 228.314 699.475 227.77 699.475 226.818V218.148C699.475 216.074 698.387 215.19 696.177 216.244L691.009 218.794V226.818C691.009 227.77 691.247 228.314 692.097 228.654L692.913 228.994C693.457 229.232 693.593 229.436 693.593 230.082C693.593 230.728 693.355 231 692.777 231H686.011C685.467 231 685.195 230.728 685.195 230.082C685.195 229.436 685.331 229.232 685.875 228.994L686.691 228.654C687.541 228.314 687.779 227.77 687.779 226.818V218.148C687.779 216.074 686.691 215.19 684.481 216.244L679.279 218.794V226.818C679.279 227.77 679.517 228.314 680.367 228.654L681.183 228.994C681.727 229.232 681.863 229.436 681.863 230.082C681.863 230.728 681.625 231 681.047 231H674.281C673.703 231 673.431 230.728 673.431 230.116C673.431 229.47 673.567 229.232 674.111 228.994L674.961 228.654C675.811 228.314 676.049 227.77 676.049 226.818V218.25C676.049 216.992 675.913 216.55 674.859 216.176L674.179 215.938C673.567 215.7 673.431 215.53 673.431 214.986C673.431 214.544 673.567 214.374 674.043 214.204L677.375 212.98C678.633 212.504 679.279 212.81 679.279 214.068V216.686L683.461 214.068C686.963 211.824 690.703 212.402 690.975 216.686L695.157 214.068C698.795 211.722 702.705 212.47 702.705 217.23V226.818C702.705 227.77 702.943 228.314 703.793 228.654ZM724.208 224.234C725.058 224.472 725.16 225.084 724.922 225.968C724.242 228.722 721.454 231.544 716.83 231.544C711.56 231.544 708.228 227.6 708.228 222.228C708.228 216.89 711.22 212.742 716.83 212.742C721.284 212.742 723.97 215.632 724.548 218.726C724.786 219.984 724.378 220.562 723.392 220.902L712.07 224.914C712.92 227.09 714.688 228.688 717.272 228.688C719.958 228.688 721.556 227.566 722.644 224.982C722.984 224.234 723.426 224.03 724.208 224.234ZM716.49 215.598C713.294 215.632 711.424 217.91 711.458 221.82C711.458 222.194 711.492 222.534 711.526 222.908L721.148 219.066C720.366 217.128 718.802 215.564 716.49 215.598ZM733.112 224.676C732.058 224.676 731.786 224.234 731.752 223.52L731.174 208.934C731.106 207.574 731.684 207.03 733.112 207.03C734.506 207.03 735.084 207.574 735.016 208.934L734.438 223.52C734.404 224.234 734.166 224.676 733.112 224.676ZM733.146 231.544C731.888 231.544 730.936 230.592 730.936 229.334C730.936 228.11 731.888 227.158 733.146 227.158C734.37 227.158 735.322 228.11 735.322 229.334C735.322 230.592 734.37 231.544 733.146 231.544ZM506.044 269.45L507.03 269.858C507.472 270.028 507.676 270.368 507.676 271.014C507.676 271.728 507.404 272 506.792 272H499.142C498.53 272 498.258 271.728 498.258 271.014C498.258 270.368 498.462 270.028 498.904 269.858L499.89 269.45C500.774 269.076 501.25 268.566 501.25 267.172V261.256H488.772V267.172C488.772 268.566 489.248 269.076 490.132 269.45L491.118 269.858C491.56 270.028 491.764 270.368 491.764 271.014C491.764 271.728 491.492 272 490.88 272H483.23C482.618 272 482.346 271.728 482.346 271.014C482.346 270.368 482.55 270.028 482.992 269.858L483.978 269.45C484.862 269.076 485.338 268.566 485.338 267.172V253.028C485.338 251.634 484.862 251.09 483.978 250.75L482.992 250.342C482.55 250.172 482.346 249.832 482.346 249.186C482.346 248.472 482.618 248.2 483.23 248.2H490.88C491.492 248.2 491.764 248.472 491.764 249.186C491.764 249.832 491.56 250.172 491.118 250.342L490.132 250.75C489.248 251.09 488.772 251.634 488.772 253.028V258.366H501.25V253.028C501.25 251.634 500.774 251.09 499.89 250.75L498.904 250.342C498.462 250.172 498.258 249.832 498.258 249.186C498.258 248.472 498.53 248.2 499.142 248.2H506.792C507.404 248.2 507.676 248.472 507.676 249.186C507.676 249.832 507.472 250.172 507.03 250.342L506.044 250.75C505.16 251.09 504.684 251.634 504.684 253.028V267.172C504.684 268.566 505.16 269.076 506.044 269.45ZM528.13 269.314L528.844 269.552C529.524 269.79 529.728 269.994 529.728 270.538C529.728 271.15 529.558 271.354 529.082 271.49L526.158 272.238C525.138 272.476 524.594 272.034 524.594 270.98V269.008L523.132 270.062C520.276 272.136 518.576 272.544 516.604 272.544C514.088 272.544 512.014 270.878 512.014 267.512C512.014 264.588 514.02 262.412 518.814 261.392L523.88 260.338V258.944C523.88 257.38 523.2 256.428 521.602 256.428C518.032 256.428 516.842 259.318 514.428 259.318C513.544 259.318 513 258.774 513 257.924C513 255.714 517.794 253.742 521.84 253.742C525.478 253.742 527.11 255.646 527.11 259.454V267.614C527.11 268.532 527.314 269.008 528.13 269.314ZM521.772 268.43L523.88 267.104V262.514L520.208 263.466C516.808 264.384 515.244 265.336 515.244 267.444C515.244 269.144 516.23 269.96 517.624 269.96C518.814 269.96 519.766 269.688 521.772 268.43ZM545.099 254.286H551.185C551.797 254.286 552.035 254.558 552.035 255.17C552.035 255.782 551.933 256.02 551.321 256.36C550.369 256.836 549.893 257.482 549.281 258.808L543.535 270.776C543.059 271.796 542.685 272.102 541.223 272.102C539.523 272.102 539.183 271.762 538.741 270.64L533.675 258.502C533.131 257.21 532.689 256.87 531.567 256.36C530.853 256.02 530.751 255.782 530.751 255.17C530.751 254.558 530.989 254.286 531.601 254.286H538.639C539.285 254.286 539.523 254.558 539.523 255.204C539.523 255.816 539.421 256.122 538.673 256.394C537.347 256.836 537.007 257.618 537.585 259.08L541.631 269.314L546.187 259.012C546.799 257.618 546.391 256.802 545.031 256.36C544.317 256.088 544.215 255.782 544.215 255.204C544.215 254.558 544.453 254.286 545.099 254.286ZM569.665 265.234C570.515 265.472 570.617 266.084 570.379 266.968C569.699 269.722 566.911 272.544 562.287 272.544C557.017 272.544 553.685 268.6 553.685 263.228C553.685 257.89 556.677 253.742 562.287 253.742C566.741 253.742 569.427 256.632 570.005 259.726C570.243 260.984 569.835 261.562 568.849 261.902L557.527 265.914C558.377 268.09 560.145 269.688 562.729 269.688C565.415 269.688 567.013 268.566 568.101 265.982C568.441 265.234 568.883 265.03 569.665 265.234ZM561.947 256.598C558.751 256.632 556.881 258.91 556.915 262.82C556.915 263.194 556.949 263.534 556.983 263.908L566.605 260.066C565.823 258.128 564.259 256.564 561.947 256.598ZM593.463 249.73C593.871 251.124 593.225 251.94 592.171 251.94C591.253 251.94 590.743 251.498 590.165 250.614C589.213 249.152 588.125 248.404 587.003 248.404C585.847 248.404 585.201 249.186 585.201 251.26V254.286H589.961C590.845 254.286 591.151 254.592 591.151 255.578C591.151 256.53 590.845 256.938 589.961 256.938H585.201V267.716C585.201 268.634 585.337 269.076 586.935 269.552L588.329 269.926C589.417 270.232 589.519 270.47 589.519 271.048C589.519 271.694 589.281 272 588.635 272H580.271C579.625 272 579.353 271.694 579.353 271.082C579.353 270.47 579.489 270.232 580.169 269.926L580.883 269.62C581.767 269.212 581.971 268.634 581.971 267.75V256.938H580.509C579.625 256.938 579.353 256.53 579.353 255.578C579.353 254.592 579.625 254.286 580.509 254.286H581.971V251.532C581.971 247.52 584.249 245.854 586.867 245.854C590.165 245.854 592.953 247.86 593.463 249.73ZM612.214 269.042L613.2 269.382C613.778 269.62 613.948 269.756 613.948 270.3C613.948 270.776 613.812 271.014 613.302 271.184L610.004 272.306C608.746 272.714 608.1 272.476 608.1 271.15V268.634L604.258 271.218C600.926 273.496 596.71 273.054 596.71 267.852V259.318C596.71 258.128 596.608 257.618 595.622 257.244L594.84 256.972C594.228 256.768 594.092 256.598 594.092 256.088C594.092 255.544 594.194 255.374 594.738 255.204L598.002 253.98C599.226 253.538 599.94 253.776 599.94 255.136V267.376C599.94 269.28 601.198 269.994 603.578 268.804L608.1 266.492V259.318C608.1 258.094 607.998 257.652 607.012 257.278L606.196 256.972C605.618 256.734 605.482 256.598 605.482 256.088C605.482 255.544 605.584 255.374 606.128 255.204L609.392 253.98C610.616 253.538 611.33 253.776 611.33 255.136V267.036C611.33 268.158 611.398 268.736 612.214 269.042ZM636.175 269.654L636.991 269.994C637.535 270.232 637.671 270.436 637.671 271.082C637.671 271.728 637.433 272 636.855 272H630.089C629.511 272 629.273 271.728 629.273 271.116C629.273 270.47 629.375 270.232 629.919 269.994L630.769 269.654C631.619 269.314 631.857 268.77 631.857 267.818V259.148C631.857 257.074 630.769 256.156 628.559 257.244L623.357 259.794V267.818C623.357 268.77 623.595 269.314 624.445 269.654L625.261 269.994C625.805 270.232 625.907 270.436 625.907 271.082C625.907 271.728 625.669 272 625.125 272H618.359C617.781 272 617.509 271.728 617.509 271.116C617.509 270.47 617.645 270.232 618.189 269.994L619.039 269.654C619.889 269.314 620.127 268.77 620.127 267.818V259.25C620.127 257.992 619.991 257.55 618.937 257.176L618.257 256.938C617.645 256.7 617.509 256.53 617.509 255.986C617.509 255.544 617.645 255.374 618.121 255.204L621.453 253.98C622.711 253.504 623.357 253.81 623.357 255.068V257.686L627.539 255.034C631.177 252.688 635.087 253.436 635.087 258.196V267.818C635.087 268.77 635.325 269.314 636.175 269.654ZM662.482 269.314L663.196 269.552C663.876 269.79 664.08 269.994 664.08 270.538C664.08 271.15 663.91 271.354 663.434 271.49L660.51 272.238C659.49 272.476 658.946 272.034 658.946 270.98V269.008L657.484 270.062C654.628 272.136 652.928 272.544 650.956 272.544C648.44 272.544 646.366 270.878 646.366 267.512C646.366 264.588 648.372 262.412 653.166 261.392L658.232 260.338V258.944C658.232 257.38 657.552 256.428 655.954 256.428C652.384 256.428 651.194 259.318 648.78 259.318C647.896 259.318 647.352 258.774 647.352 257.924C647.352 255.714 652.146 253.742 656.192 253.742C659.83 253.742 661.462 255.646 661.462 259.454V267.614C661.462 268.532 661.666 269.008 662.482 269.314ZM656.124 268.43L658.232 267.104V262.514L654.56 263.466C651.16 264.384 649.596 265.336 649.596 267.444C649.596 269.144 650.582 269.96 651.976 269.96C653.166 269.96 654.118 269.688 656.124 268.43ZM685.952 269.654L686.768 269.994C687.312 270.232 687.448 270.436 687.448 271.082C687.448 271.728 687.21 272 686.632 272H679.866C679.288 272 679.05 271.728 679.05 271.116C679.05 270.47 679.152 270.232 679.696 269.994L680.546 269.654C681.396 269.314 681.634 268.77 681.634 267.818V259.148C681.634 257.074 680.546 256.156 678.336 257.244L673.134 259.794V267.818C673.134 268.77 673.372 269.314 674.222 269.654L675.038 269.994C675.582 270.232 675.683 270.436 675.683 271.082C675.683 271.728 675.446 272 674.902 272H668.136C667.558 272 667.286 271.728 667.286 271.116C667.286 270.47 667.422 270.232 667.966 269.994L668.816 269.654C669.666 269.314 669.904 268.77 669.904 267.818V259.25C669.904 257.992 669.768 257.55 668.714 257.176L668.034 256.938C667.422 256.7 667.286 256.53 667.286 255.986C667.286 255.544 667.422 255.374 667.898 255.204L671.23 253.98C672.488 253.504 673.134 253.81 673.134 255.068V257.686L677.316 255.034C680.954 252.688 684.864 253.436 684.864 258.196V267.818C684.864 268.77 685.102 269.314 685.952 269.654ZM708.925 269.314L709.639 269.552C710.319 269.79 710.523 269.994 710.523 270.538C710.523 271.15 710.353 271.354 709.877 271.49L706.953 272.238C705.899 272.476 705.355 272.034 705.355 270.98V268.396C704.131 270.844 701.853 272.544 698.521 272.544C694.101 272.544 690.395 268.906 690.395 263.33C690.395 257.244 694.033 253.742 698.521 253.742C701.275 253.742 703.315 255 704.675 257.278V251.294C704.675 249.832 704.505 249.56 702.839 248.982C702.227 248.744 702.091 248.608 702.091 248.064C702.091 247.622 702.227 247.452 702.703 247.282L706.001 246.058C707.225 245.582 707.905 245.82 707.905 247.112V267.614C707.905 268.532 708.109 269.008 708.925 269.314ZM699.643 269.688C702.873 269.654 704.641 267.614 704.675 263.942V263.738C704.607 260.1 702.669 256.564 698.589 256.598C695.767 256.632 693.489 258.604 693.523 262.65C693.591 266.322 695.665 269.722 699.643 269.688ZM726.529 268.94H730.405C733.669 268.94 735.845 269.892 735.845 272.986C735.845 276.794 732.003 278.664 726.767 278.664C720.987 278.664 718.063 277.134 718.063 274.516C718.063 272.748 719.423 271.49 722.245 270.98C721.395 270.334 720.885 269.45 720.885 268.43C720.885 267.24 721.463 266.186 722.857 265.574C720.681 264.452 719.457 262.344 719.457 259.862C719.457 256.598 721.735 253.742 726.767 253.742C729.385 253.742 730.507 253.64 732.445 252.416C733.159 251.94 733.805 251.6 734.485 251.6C735.335 251.6 735.845 252.144 735.845 252.994C735.845 254.864 733.669 255.272 730.609 255.136C732.547 256.258 733.465 258.094 733.465 259.862C733.465 263.466 731.187 266.356 726.461 266.356H726.393C724.625 266.356 723.707 266.73 723.707 267.648C723.707 268.362 724.489 268.94 726.529 268.94ZM726.461 256.156C724.183 256.156 722.619 257.346 722.619 259.624C722.619 262.276 724.251 263.874 726.529 263.874C728.807 263.874 730.337 262.684 730.337 260.372C730.337 257.754 728.739 256.156 726.461 256.156ZM726.903 276.046C730.677 276.046 732.989 274.992 732.989 273.428C732.989 272.34 732.275 272.034 730.473 272.034H725.645C722.177 272.034 721.225 272.884 721.225 273.938C721.225 275.196 722.449 276.046 726.903 276.046ZM746.585 272.544C741.077 272.544 737.847 268.294 737.847 262.99C737.847 257.584 741.145 253.742 746.585 253.742C751.991 253.742 755.289 257.89 755.289 262.922C755.289 268.6 752.025 272.544 746.585 272.544ZM747.163 269.688C749.815 269.688 752.093 267.716 752.093 263.772C752.093 260.168 749.951 256.598 746.075 256.598C742.811 256.598 741.077 259.012 741.077 262.412C741.077 266.016 743.117 269.688 747.163 269.688ZM778.454 249.73C778.862 251.124 778.216 251.94 777.162 251.94C776.244 251.94 775.734 251.498 775.156 250.614C774.204 249.152 773.116 248.404 771.994 248.404C770.838 248.404 770.192 249.186 770.192 251.26V254.286H774.952C775.836 254.286 776.142 254.592 776.142 255.578C776.142 256.53 775.836 256.938 774.952 256.938H770.192V267.716C770.192 268.634 770.328 269.076 771.926 269.552L773.32 269.926C774.408 270.232 774.51 270.47 774.51 271.048C774.51 271.694 774.272 272 773.626 272H765.262C764.616 272 764.344 271.694 764.344 271.082C764.344 270.47 764.48 270.232 765.16 269.926L765.874 269.62C766.758 269.212 766.962 268.634 766.962 267.75V256.938H765.5C764.616 256.938 764.344 256.53 764.344 255.578C764.344 254.592 764.616 254.286 765.5 254.286H766.962V251.532C766.962 247.52 769.24 245.854 771.858 245.854C775.156 245.854 777.944 247.86 778.454 249.73ZM788.06 272.544C782.552 272.544 779.322 268.294 779.322 262.99C779.322 257.584 782.62 253.742 788.06 253.742C793.466 253.742 796.764 257.89 796.764 262.922C796.764 268.6 793.5 272.544 788.06 272.544ZM788.638 269.688C791.29 269.688 793.568 267.716 793.568 263.772C793.568 260.168 791.426 256.598 787.55 256.598C784.286 256.598 782.552 259.012 782.552 262.412C782.552 266.016 784.592 269.688 788.638 269.688ZM811.599 253.742C812.517 253.742 813.129 254.32 813.129 255.204C813.129 256.7 812.007 257.244 810.307 257.924C808.199 258.808 806.805 260.032 806.125 261.46V267.852C806.125 268.974 806.533 269.484 808.845 269.96C809.661 270.164 809.797 270.47 809.797 271.082C809.797 271.728 809.559 272 808.879 272H801.161C800.549 272 800.277 271.728 800.277 271.116C800.277 270.504 800.413 270.198 801.127 269.926C802.487 269.484 802.895 268.94 802.895 267.818V259.216C802.895 257.754 802.725 257.482 801.025 256.87C800.413 256.666 800.277 256.496 800.277 255.986C800.277 255.51 800.413 255.34 800.889 255.17L804.187 253.946C805.411 253.504 806.091 253.742 806.091 255.034V258.434C807.655 255.68 810.171 253.742 811.599 253.742ZM834.32 265.948C835.034 266.152 835.272 266.764 834.932 267.614C834.014 270.164 831.94 272.544 828.676 272.544C824.97 272.544 823.406 269.96 823.406 265.982V256.938H821.638C821.128 256.938 820.89 256.734 820.89 256.054C820.89 255.51 820.992 255.408 821.434 254.864L825.004 250.92C825.514 250.342 826.636 250.58 826.636 251.328V254.286H832.382C833.266 254.286 833.538 254.592 833.538 255.578C833.538 256.53 833.266 256.938 832.382 256.938H826.636V266.152C826.636 268.872 827.554 269.824 829.084 269.824C830.886 269.824 831.77 268.532 832.79 266.492C833.096 265.948 833.504 265.71 834.32 265.948ZM856.706 269.926C857.454 270.198 857.59 270.504 857.59 271.116C857.59 271.728 857.318 272 856.672 272H850.076C849.396 272 849.158 271.728 849.158 271.082C849.158 270.47 849.26 270.198 849.974 269.926C851.3 269.484 851.742 268.94 851.742 267.818V259.148C851.742 257.074 850.62 256.19 848.444 257.244L843.242 259.794V267.818C843.242 268.94 843.65 269.484 844.976 269.926C845.69 270.198 845.792 270.47 845.792 271.082C845.792 271.728 845.554 272 844.908 272H838.278C837.632 272 837.394 271.728 837.394 271.116C837.394 270.504 837.53 270.198 838.244 269.926C839.57 269.484 840.012 268.94 840.012 267.818V251.362C840.012 249.9 839.842 249.628 838.108 249.016C837.53 248.812 837.394 248.642 837.394 248.132C837.394 247.656 837.53 247.486 837.972 247.316L841.304 246.092C842.562 245.616 843.242 245.922 843.242 247.18V257.652L847.424 255.034C851.062 252.722 854.972 253.436 854.972 258.23V267.818C854.972 268.94 855.38 269.484 856.706 269.926ZM876.525 265.234C877.375 265.472 877.477 266.084 877.239 266.968C876.559 269.722 873.771 272.544 869.147 272.544C863.877 272.544 860.545 268.6 860.545 263.228C860.545 257.89 863.537 253.742 869.147 253.742C873.601 253.742 876.287 256.632 876.865 259.726C877.103 260.984 876.695 261.562 875.709 261.902L864.387 265.914C865.237 268.09 867.005 269.688 869.589 269.688C872.275 269.688 873.873 268.566 874.961 265.982C875.301 265.234 875.743 265.03 876.525 265.234ZM868.807 256.598C865.611 256.632 863.741 258.91 863.775 262.82C863.775 263.194 863.809 263.534 863.843 263.908L873.465 260.066C872.683 258.128 871.119 256.564 868.807 256.598ZM910.148 254.286H916.574C917.186 254.286 917.424 254.558 917.424 255.17C917.424 255.782 917.288 255.986 916.608 256.36C915.554 256.87 915.044 257.278 914.33 258.808L908.618 270.776C908.142 271.796 907.768 272.102 906.442 272.102C904.98 272.102 904.64 271.762 904.198 270.64L901.342 263.806L898.01 270.776C897.534 271.796 897.16 272.102 895.732 272.102C894.032 272.102 893.76 271.762 893.318 270.64L888.252 258.502C887.708 257.21 887.266 256.87 886.144 256.36C885.43 256.02 885.328 255.782 885.328 255.17C885.328 254.558 885.566 254.286 886.178 254.286H893.182C893.828 254.286 894.066 254.558 894.066 255.17C894.066 255.782 893.93 256.122 893.25 256.394C891.924 256.836 891.618 257.652 892.128 259.012L896.174 269.246L900.016 260.61L899.132 258.502C898.588 257.21 898.146 256.87 897.024 256.36C896.344 256.02 896.242 255.782 896.242 255.17C896.242 254.558 896.48 254.286 897.092 254.286H904.402C904.98 254.286 905.218 254.558 905.218 255.204C905.218 255.816 905.116 256.122 904.436 256.36C902.566 256.87 902.464 257.618 903.042 259.08L906.884 268.872L911.236 259.012C911.882 257.618 911.44 256.802 910.08 256.36C909.4 256.122 909.298 255.782 909.298 255.204C909.298 254.558 909.536 254.286 910.148 254.286ZM923.828 251.362C922.604 251.362 921.652 250.41 921.652 249.186C921.652 247.962 922.604 247.01 923.828 247.01C925.086 247.01 926.038 247.962 926.038 249.186C926.038 250.41 925.086 251.362 923.828 251.362ZM927.534 272H920.836C920.224 272 919.952 271.728 919.952 271.116C919.952 270.504 920.054 270.3 920.598 270.028L921.21 269.756C922.264 269.314 922.57 268.804 922.57 267.818V259.318C922.57 257.856 922.4 257.55 920.7 256.972C920.088 256.768 919.952 256.564 919.952 256.088C919.952 255.578 920.088 255.374 920.564 255.204L923.896 253.98C925.154 253.504 925.8 253.81 925.8 255.068V267.818C925.8 268.77 926.072 269.314 926.956 269.688L927.568 269.926C928.282 270.232 928.418 270.504 928.418 271.116C928.418 271.728 928.18 272 927.534 272ZM950.174 269.654L950.99 269.994C951.534 270.232 951.67 270.436 951.67 271.082C951.67 271.728 951.432 272 950.854 272H944.088C943.51 272 943.272 271.728 943.272 271.116C943.272 270.47 943.374 270.232 943.918 269.994L944.768 269.654C945.618 269.314 945.856 268.77 945.856 267.818V259.148C945.856 257.074 944.768 256.156 942.558 257.244L937.356 259.794V267.818C937.356 268.77 937.594 269.314 938.444 269.654L939.26 269.994C939.804 270.232 939.906 270.436 939.906 271.082C939.906 271.728 939.668 272 939.124 272H932.358C931.78 272 931.508 271.728 931.508 271.116C931.508 270.47 931.644 270.232 932.188 269.994L933.038 269.654C933.888 269.314 934.126 268.77 934.126 267.818V259.25C934.126 257.992 933.99 257.55 932.936 257.176L932.256 256.938C931.644 256.7 931.508 256.53 931.508 255.986C931.508 255.544 931.644 255.374 932.12 255.204L935.452 253.98C936.71 253.504 937.356 253.81 937.356 255.068V257.686L941.538 255.034C945.176 252.688 949.086 253.436 949.086 258.196V267.818C949.086 268.77 949.324 269.314 950.174 269.654ZM959.445 265.676C958.391 265.676 958.119 265.234 958.085 264.52L957.507 249.934C957.439 248.574 958.017 248.03 959.445 248.03C960.839 248.03 961.417 248.574 961.349 249.934L960.771 264.52C960.737 265.234 960.499 265.676 959.445 265.676ZM959.479 272.544C958.221 272.544 957.269 271.592 957.269 270.334C957.269 269.11 958.221 268.158 959.479 268.158C960.703 268.158 961.655 269.11 961.655 270.334C961.655 271.592 960.703 272.544 959.479 272.544Z" fill="#583311"/>
<ellipse cx="482.994" cy="115.312" rx="2.92589" ry="2.9943" transform="rotate(-90 482.994 115.312)" fill="#D1AF98"/>
<ellipse cx="491.978" cy="115.312" rx="2.92589" ry="2.9943" transform="rotate(-90 491.978 115.312)" fill="#D1AF98"/>
<ellipse cx="487.486" cy="119.703" rx="2.92589" ry="2.9943" transform="rotate(-90 487.486 119.703)" fill="#D1AF98"/>
<ellipse cx="487.486" cy="110.926" rx="2.92589" ry="2.9943" transform="rotate(-90 487.486 110.926)" fill="#D1AF98"/>
<path d="M499 115L948 115" stroke="#D1AF98" stroke-width="2"/>
<path d="M959.952 119.6V119.616C959.802 119.594 959.462 119.583 958.931 119.583C958.161 119.583 957.708 119.561 957.569 119.517C957.647 119.472 957.76 119.428 957.91 119.384C958.065 119.334 958.186 119.279 958.275 119.218C958.369 119.151 958.452 119.052 958.524 118.919C958.535 118.897 958.554 118.853 958.582 118.786C958.615 118.72 958.64 118.67 958.657 118.637L958.897 118.545L958.69 118.396L958.707 118.089C958.823 117.973 958.881 117.798 958.881 117.566C958.881 117.538 958.867 117.488 958.839 117.417C958.817 117.345 958.809 117.292 958.814 117.259L958.98 115.441C958.992 115.352 959.019 115.189 959.063 114.951C959.108 114.708 959.13 114.52 959.13 114.387C959.108 114.32 959.097 114.218 959.097 114.08C959.097 113.875 959.077 113.565 959.039 113.15C959 112.735 958.98 112.425 958.98 112.22C958.98 112.181 958.989 112.129 959.005 112.062C959.028 111.991 959.041 111.944 959.047 111.921C959.08 111.75 959.097 111.493 959.097 111.149C959.097 111.072 959.088 110.967 959.072 110.834C959.055 110.696 959.047 110.588 959.047 110.51C959.047 110.411 959.066 110.275 959.105 110.104C959.144 109.932 959.166 109.824 959.171 109.78L959.113 109.672C959.025 109.661 958.889 109.655 958.707 109.655C958.624 109.655 958.505 109.653 958.35 109.647C958.195 109.641 958.076 109.639 957.993 109.639C957.832 109.572 957.572 109.539 957.212 109.539C957.102 109.539 956.938 109.55 956.723 109.572C956.512 109.594 956.357 109.605 956.258 109.605C956.197 109.605 956.083 109.556 955.917 109.456C955.829 109.605 955.757 109.688 955.702 109.705C955.585 109.744 955.37 109.788 955.054 109.838C954.744 109.882 954.506 109.946 954.34 110.029C954.335 110.029 954.329 110.026 954.324 110.021C954.318 110.015 954.313 110.012 954.307 110.012C954.279 110.012 954.238 110.023 954.183 110.045C954.133 110.068 954.094 110.079 954.066 110.079L954.033 110.062L954 109.962C954.304 109.381 954.479 109.069 954.523 109.024C954.661 108.914 954.725 108.825 954.714 108.759C954.742 108.709 954.783 108.637 954.838 108.543C954.899 108.449 954.946 108.374 954.979 108.319C955.013 108.258 955.049 108.186 955.087 108.103C955.132 108.014 955.165 107.931 955.187 107.854C955.292 107.821 955.428 107.754 955.594 107.655C955.76 107.555 955.873 107.492 955.934 107.464C955.945 107.464 955.959 107.467 955.976 107.472C955.998 107.478 956.014 107.48 956.025 107.48C956.125 107.48 956.202 107.469 956.258 107.447L956.291 107.414H956.349C956.499 107.414 956.662 107.447 956.839 107.514L956.938 107.788C956.972 107.777 957.019 107.738 957.08 107.671C957.14 107.599 957.196 107.563 957.246 107.563C957.34 107.563 957.475 107.569 957.652 107.58C957.829 107.591 957.965 107.597 958.059 107.597L958.134 107.63C958.278 107.63 958.493 107.658 958.781 107.713C959.069 107.763 959.288 107.788 959.437 107.788L959.578 107.995C959.633 107.984 959.722 107.948 959.844 107.887C959.971 107.821 960.073 107.788 960.151 107.788C960.488 107.788 960.998 107.81 961.678 107.854C962.359 107.898 962.871 107.92 963.214 107.92C963.474 107.92 963.839 107.879 964.31 107.796C964.785 107.713 965.178 107.63 965.488 107.547C965.505 107.552 965.552 107.575 965.629 107.613C965.707 107.646 965.768 107.666 965.812 107.671L965.92 107.53C966.119 107.447 966.327 107.375 966.542 107.314L966.717 107.348C966.49 107.724 966.343 108.039 966.277 108.294C966.199 108.394 966.125 108.565 966.053 108.809C965.876 109.03 965.757 109.215 965.696 109.365C965.624 109.426 965.477 109.564 965.256 109.78C965.217 109.78 965.159 109.777 965.082 109.771C965.01 109.76 964.954 109.755 964.916 109.755C964.816 109.755 964.622 109.78 964.334 109.83C964.263 109.758 964.099 109.722 963.845 109.722C963.767 109.722 963.657 109.716 963.513 109.705C963.369 109.694 963.258 109.688 963.181 109.688C963.087 109.688 962.993 109.697 962.898 109.713C962.804 109.73 962.691 109.758 962.558 109.796C962.425 109.83 962.337 109.852 962.292 109.863L962.176 109.78C961.949 109.868 961.684 109.913 961.379 109.913C961.197 109.913 961.067 109.907 960.989 109.896L960.923 109.979L960.956 110.062V110.759C960.956 111.396 960.973 111.861 961.006 112.154C961.006 112.17 961.014 112.262 961.031 112.428C961.047 112.588 961.056 112.713 961.056 112.801C961.056 112.929 961.039 113.119 961.006 113.374C960.973 113.629 960.956 113.822 960.956 113.955C960.956 114.038 960.995 114.118 961.072 114.196C961.072 114.268 961.067 114.37 961.056 114.503C961.045 114.636 961.039 114.738 961.039 114.81C961.039 114.865 961.058 114.951 961.097 115.067C961.136 115.178 961.155 115.261 961.155 115.316V115.814C961.139 115.826 961.097 115.85 961.031 115.889C960.97 115.928 960.926 115.964 960.898 115.997L961.172 116.155C961.183 116.199 961.188 116.26 961.188 116.337C961.188 116.404 961.183 116.495 961.172 116.611C961.161 116.728 961.155 116.813 961.155 116.869C961.155 117.096 961.208 117.248 961.313 117.325L961.255 117.458L961.363 117.491C961.39 117.574 961.415 117.663 961.438 117.757C961.46 117.845 961.482 117.945 961.504 118.056C961.526 118.166 961.545 118.252 961.562 118.313C961.523 118.424 961.473 118.518 961.413 118.595L961.545 118.62C961.711 118.902 961.872 119.104 962.027 119.226C962.082 119.27 962.174 119.32 962.301 119.375C962.434 119.425 962.528 119.472 962.583 119.517C962.494 119.517 962.359 119.519 962.176 119.525C961.994 119.53 961.858 119.533 961.77 119.533L961.637 119.4L961.512 119.55C961.462 119.55 961.385 119.544 961.28 119.533C961.18 119.522 961.105 119.517 961.056 119.517C960.884 119.517 960.76 119.533 960.682 119.566C960.571 119.544 960.4 119.533 960.167 119.533C960.167 119.577 960.096 119.6 959.952 119.6ZM973.658 119.741C973.508 119.741 973.348 119.73 973.176 119.708C973.01 119.691 972.828 119.669 972.629 119.641C972.429 119.613 972.274 119.594 972.164 119.583C972.081 119.544 972.009 119.461 971.948 119.334C971.876 119.356 971.757 119.378 971.591 119.4C971.536 119.373 971.383 119.301 971.134 119.185C970.885 119.068 970.683 118.963 970.528 118.869C970.373 118.77 970.246 118.662 970.147 118.545C970.064 118.451 970.019 118.371 970.014 118.305C970.008 118.238 969.986 118.194 969.947 118.172C969.914 118.144 969.798 118.1 969.599 118.039C969.317 117.618 969.175 117.311 969.175 117.118C969.175 117.062 969.184 116.982 969.2 116.877C969.217 116.766 969.225 116.683 969.225 116.628C969.225 116.396 969.117 116.213 968.901 116.08C968.791 115.549 968.735 114.733 968.735 113.631C968.735 113.57 968.722 113.479 968.694 113.357C968.672 113.236 968.661 113.142 968.661 113.075C968.661 112.976 968.672 112.757 968.694 112.419C968.722 112.082 968.735 111.83 968.735 111.664C968.735 111.57 968.722 111.44 968.694 111.274C968.727 111.191 968.769 111.116 968.818 111.05C968.735 110.939 968.694 110.848 968.694 110.776C968.694 110.732 968.702 110.665 968.719 110.577C968.741 110.483 968.752 110.413 968.752 110.369C968.752 110.236 968.711 110.128 968.628 110.045L968.661 109.913C968.639 109.686 968.594 109.345 968.528 108.892L968.561 108.775C968.517 108.676 968.412 108.551 968.246 108.402C968.085 108.252 967.986 108.15 967.947 108.095H967.897C967.809 107.973 967.759 107.909 967.748 107.904L967.623 107.721C967.712 107.716 967.858 107.718 968.063 107.729C968.268 107.741 968.401 107.743 968.462 107.738L968.984 107.705L969.308 107.954C969.447 107.86 969.599 107.777 969.765 107.705H970.039C970.116 107.705 970.224 107.707 970.362 107.713C970.506 107.718 970.614 107.721 970.686 107.721V107.754C970.725 107.754 970.783 107.749 970.86 107.738C970.943 107.727 971.004 107.721 971.043 107.721C971.104 107.721 971.198 107.729 971.325 107.746C971.453 107.763 971.547 107.771 971.608 107.771C971.663 107.771 971.735 107.76 971.823 107.738V107.788C971.785 107.821 971.693 107.887 971.549 107.987C971.411 108.086 971.323 108.153 971.284 108.186C971.251 108.219 971.187 108.283 971.093 108.377C971.004 108.465 970.946 108.546 970.919 108.618C970.891 108.684 970.86 108.773 970.827 108.883C970.8 108.994 970.786 109.116 970.786 109.249C970.786 109.343 970.761 109.495 970.711 109.705C970.667 109.91 970.647 110.065 970.653 110.17L970.553 110.286C970.653 110.773 970.703 111.102 970.703 111.274C970.703 111.324 970.694 111.398 970.678 111.498C970.661 111.592 970.653 111.664 970.653 111.714C970.653 111.93 970.681 112.248 970.736 112.668C970.791 113.083 970.819 113.399 970.819 113.615C970.786 113.665 970.769 113.717 970.769 113.772C970.769 113.817 970.78 113.886 970.802 113.98C970.83 114.069 970.844 114.135 970.844 114.179C970.844 114.262 970.833 114.384 970.811 114.544C970.794 114.705 970.786 114.827 970.786 114.91C970.786 115.092 970.86 115.269 971.01 115.441C971.01 116.011 971.17 116.487 971.491 116.869C971.818 117.245 972.263 117.488 972.828 117.599C972.839 117.643 972.875 117.715 972.936 117.815C972.997 117.915 973.03 117.984 973.035 118.022C973.118 117.901 973.179 117.793 973.218 117.699H973.326C973.47 117.699 973.672 117.671 973.932 117.616C974.197 117.555 974.397 117.524 974.529 117.524C974.64 117.524 974.737 117.483 974.82 117.4C974.908 117.317 974.994 117.203 975.077 117.06C975.16 116.916 975.221 116.822 975.26 116.777L975.517 116.661C975.517 116.567 975.495 116.431 975.451 116.254C975.561 116.166 975.65 116.03 975.716 115.848C975.788 115.665 975.824 115.493 975.824 115.333C975.824 115.244 975.805 115.153 975.766 115.059C975.827 114.838 975.869 114.492 975.891 114.021C975.913 113.551 975.929 113.274 975.941 113.191V113.158C975.941 113.125 975.932 113.067 975.916 112.984C975.899 112.895 975.891 112.834 975.891 112.801C975.891 112.729 975.899 112.616 975.916 112.461C975.932 112.306 975.941 112.187 975.941 112.104C975.941 111.938 975.927 111.692 975.899 111.365C975.871 111.039 975.858 110.798 975.858 110.643C975.858 110.588 975.88 110.513 975.924 110.419C975.974 110.325 976.001 110.258 976.007 110.22L975.824 109.996C975.846 109.918 975.858 109.799 975.858 109.639C975.858 109.55 975.816 109.437 975.733 109.298C975.656 109.16 975.617 109.047 975.617 108.958C975.589 108.897 975.553 108.836 975.509 108.775C975.465 108.709 975.412 108.637 975.351 108.56C975.296 108.482 975.254 108.424 975.227 108.385C975.21 108.313 975.18 108.247 975.135 108.186C975.091 108.12 975.036 108.053 974.969 107.987C974.903 107.92 974.853 107.865 974.82 107.821C974.881 107.832 975.066 107.837 975.376 107.837L975.451 107.871H975.6C975.678 107.871 975.786 107.854 975.924 107.821C976.068 107.782 976.159 107.76 976.198 107.754C976.441 107.821 976.782 107.854 977.219 107.854C977.313 107.854 977.443 107.851 977.609 107.846C977.781 107.84 977.905 107.837 977.983 107.837C978.016 107.837 978.066 107.835 978.132 107.829C978.204 107.824 978.256 107.821 978.29 107.821L978.389 107.721C978.666 107.749 978.829 107.76 978.879 107.754C978.669 107.893 978.528 108.017 978.456 108.128C978.384 108.239 978.326 108.369 978.281 108.518C978.237 108.667 978.171 108.809 978.082 108.941C978.082 109.096 978.068 109.323 978.041 109.622C978.013 109.921 977.999 110.148 977.999 110.303C977.999 110.38 978.002 110.491 978.007 110.635C978.013 110.779 978.016 110.889 978.016 110.967C978.016 111.033 978.007 111.133 977.991 111.266C977.974 111.398 977.966 111.498 977.966 111.564L978.016 111.581V111.697C978.016 111.891 978.024 112.184 978.041 112.577C978.057 112.965 978.066 113.255 978.066 113.449C978.06 113.454 978.03 113.479 977.974 113.523C977.924 113.568 977.883 113.609 977.85 113.648C977.822 113.687 977.808 113.723 977.808 113.756C977.808 113.806 977.836 113.872 977.891 113.955C977.952 114.038 977.988 114.091 977.999 114.113C977.977 114.312 977.958 114.65 977.941 115.125C977.93 115.601 977.902 115.967 977.858 116.221L977.642 116.371L977.841 116.611L977.675 117.392C977.498 117.447 977.39 117.566 977.352 117.749C977.307 117.787 977.258 117.854 977.202 117.948C977.147 118.042 977.105 118.105 977.078 118.139C976.596 118.709 976.093 119.118 975.567 119.367C975.047 119.616 974.41 119.741 973.658 119.741ZM985.737 119.6V119.616C985.588 119.594 985.247 119.583 984.716 119.583C983.947 119.583 983.493 119.561 983.355 119.517C983.432 119.472 983.546 119.428 983.695 119.384C983.85 119.334 983.972 119.279 984.06 119.218C984.154 119.151 984.237 119.052 984.309 118.919C984.32 118.897 984.34 118.853 984.367 118.786C984.401 118.72 984.425 118.67 984.442 118.637L984.683 118.545L984.475 118.396L984.492 118.089C984.608 117.973 984.666 117.798 984.666 117.566C984.666 117.538 984.652 117.488 984.625 117.417C984.603 117.345 984.594 117.292 984.6 117.259L984.766 115.441C984.777 115.352 984.805 115.189 984.849 114.951C984.893 114.708 984.915 114.52 984.915 114.387C984.893 114.32 984.882 114.218 984.882 114.08C984.882 113.875 984.863 113.565 984.824 113.15C984.785 112.735 984.766 112.425 984.766 112.22C984.766 112.181 984.774 112.129 984.791 112.062C984.813 111.991 984.827 111.944 984.832 111.921C984.865 111.75 984.882 111.493 984.882 111.149C984.882 111.072 984.874 110.967 984.857 110.834C984.841 110.696 984.832 110.588 984.832 110.51C984.832 110.411 984.852 110.275 984.89 110.104C984.929 109.932 984.951 109.824 984.957 109.78L984.899 109.672C984.81 109.661 984.675 109.655 984.492 109.655C984.409 109.655 984.29 109.653 984.135 109.647C983.98 109.641 983.861 109.639 983.778 109.639C983.618 109.572 983.357 109.539 982.998 109.539C982.887 109.539 982.724 109.55 982.508 109.572C982.298 109.594 982.143 109.605 982.043 109.605C981.982 109.605 981.869 109.556 981.703 109.456C981.614 109.605 981.542 109.688 981.487 109.705C981.371 109.744 981.155 109.788 980.84 109.838C980.53 109.882 980.292 109.946 980.126 110.029C980.12 110.029 980.115 110.026 980.109 110.021C980.104 110.015 980.098 110.012 980.092 110.012C980.065 110.012 980.023 110.023 979.968 110.045C979.918 110.068 979.879 110.079 979.852 110.079L979.819 110.062L979.785 109.962C980.09 109.381 980.264 109.069 980.308 109.024C980.447 108.914 980.51 108.825 980.499 108.759C980.527 108.709 980.568 108.637 980.624 108.543C980.685 108.449 980.732 108.374 980.765 108.319C980.798 108.258 980.834 108.186 980.873 108.103C980.917 108.014 980.95 107.931 980.972 107.854C981.078 107.821 981.213 107.754 981.379 107.655C981.545 107.555 981.659 107.492 981.719 107.464C981.731 107.464 981.744 107.467 981.761 107.472C981.783 107.478 981.8 107.48 981.811 107.48C981.91 107.48 981.988 107.469 982.043 107.447L982.076 107.414H982.134C982.284 107.414 982.447 107.447 982.624 107.514L982.724 107.788C982.757 107.777 982.804 107.738 982.865 107.671C982.926 107.599 982.981 107.563 983.031 107.563C983.125 107.563 983.261 107.569 983.438 107.58C983.615 107.591 983.75 107.597 983.844 107.597L983.919 107.63C984.063 107.63 984.279 107.658 984.567 107.713C984.854 107.763 985.073 107.788 985.222 107.788L985.363 107.995C985.419 107.984 985.507 107.948 985.629 107.887C985.756 107.821 985.859 107.788 985.936 107.788C986.274 107.788 986.783 107.81 987.464 107.854C988.144 107.898 988.656 107.92 988.999 107.92C989.259 107.92 989.625 107.879 990.095 107.796C990.571 107.713 990.964 107.63 991.274 107.547C991.29 107.552 991.337 107.575 991.415 107.613C991.492 107.646 991.553 107.666 991.597 107.671L991.705 107.53C991.904 107.447 992.112 107.375 992.328 107.314L992.502 107.348C992.275 107.724 992.129 108.039 992.062 108.294C991.985 108.394 991.91 108.565 991.838 108.809C991.661 109.03 991.542 109.215 991.481 109.365C991.409 109.426 991.263 109.564 991.041 109.78C991.002 109.78 990.944 109.777 990.867 109.771C990.795 109.76 990.74 109.755 990.701 109.755C990.601 109.755 990.408 109.78 990.12 109.83C990.048 109.758 989.885 109.722 989.63 109.722C989.553 109.722 989.442 109.716 989.298 109.705C989.154 109.694 989.043 109.688 988.966 109.688C988.872 109.688 988.778 109.697 988.684 109.713C988.59 109.73 988.476 109.758 988.343 109.796C988.211 109.83 988.122 109.852 988.078 109.863L987.962 109.78C987.735 109.868 987.469 109.913 987.165 109.913C986.982 109.913 986.852 109.907 986.775 109.896L986.708 109.979L986.741 110.062V110.759C986.741 111.396 986.758 111.861 986.791 112.154C986.791 112.17 986.8 112.262 986.816 112.428C986.833 112.588 986.841 112.713 986.841 112.801C986.841 112.929 986.824 113.119 986.791 113.374C986.758 113.629 986.741 113.822 986.741 113.955C986.741 114.038 986.78 114.118 986.858 114.196C986.858 114.268 986.852 114.37 986.841 114.503C986.83 114.636 986.824 114.738 986.824 114.81C986.824 114.865 986.844 114.951 986.883 115.067C986.921 115.178 986.941 115.261 986.941 115.316V115.814C986.924 115.826 986.883 115.85 986.816 115.889C986.755 115.928 986.711 115.964 986.683 115.997L986.957 116.155C986.968 116.199 986.974 116.26 986.974 116.337C986.974 116.404 986.968 116.495 986.957 116.611C986.946 116.728 986.941 116.813 986.941 116.869C986.941 117.096 986.993 117.248 987.098 117.325L987.04 117.458L987.148 117.491C987.176 117.574 987.201 117.663 987.223 117.757C987.245 117.845 987.267 117.945 987.289 118.056C987.311 118.166 987.331 118.252 987.347 118.313C987.309 118.424 987.259 118.518 987.198 118.595L987.331 118.62C987.497 118.902 987.657 119.104 987.812 119.226C987.868 119.27 987.959 119.32 988.086 119.375C988.219 119.425 988.313 119.472 988.368 119.517C988.28 119.517 988.144 119.519 987.962 119.525C987.779 119.53 987.643 119.533 987.555 119.533L987.422 119.4L987.298 119.55C987.248 119.55 987.17 119.544 987.065 119.533C986.966 119.522 986.891 119.517 986.841 119.517C986.669 119.517 986.545 119.533 986.467 119.566C986.357 119.544 986.185 119.533 985.953 119.533C985.953 119.577 985.881 119.6 985.737 119.6ZM998.007 119.89C997.686 119.89 997.075 119.829 996.173 119.708C996.09 119.647 996.023 119.528 995.973 119.351C995.879 119.406 995.741 119.456 995.558 119.5C995.514 119.478 995.406 119.42 995.235 119.326C995.069 119.226 994.952 119.157 994.886 119.118C994.825 119.079 994.731 119.021 994.604 118.944C994.482 118.861 994.374 118.783 994.28 118.711C994.192 118.634 994.103 118.551 994.014 118.462C993.007 117.472 992.504 116.304 992.504 114.959C992.504 114.81 992.462 114.55 992.379 114.179C992.39 114.085 992.41 113.814 992.437 113.366C992.459 112.818 992.54 112.242 992.678 111.639C992.822 111.03 993.024 110.552 993.284 110.203C993.361 110.092 993.492 110.018 993.674 109.979C993.702 109.747 993.741 109.589 993.79 109.506C994.067 109.047 994.441 108.662 994.911 108.352C995.387 108.037 995.879 107.815 996.388 107.688C996.903 107.555 997.443 107.486 998.007 107.48L997.957 107.414C998.013 107.403 998.098 107.397 998.215 107.397C998.464 107.397 998.837 107.409 999.335 107.431C999.446 107.492 999.532 107.605 999.593 107.771C999.759 107.721 999.922 107.688 1000.08 107.671C1000.17 107.716 1000.32 107.796 1000.54 107.912C1000.76 108.028 1000.93 108.12 1001.05 108.186C1001.16 108.252 1001.3 108.347 1001.46 108.468C1001.63 108.584 1001.77 108.703 1001.88 108.825C1002.16 109.13 1002.39 109.398 1002.57 109.63C1002.76 109.857 1002.94 110.126 1003.13 110.436C1003.32 110.74 1003.45 111.058 1003.54 111.39C1003.62 111.717 1003.66 112.057 1003.65 112.411C1003.67 112.5 1003.68 112.563 1003.68 112.602C1003.68 112.751 1003.65 112.876 1003.59 112.976L1003.83 113.158C1003.8 113.319 1003.78 113.689 1003.75 114.271C1003.72 114.846 1003.66 115.286 1003.57 115.59L1003.21 115.74L1003.44 116.03C1003.3 116.484 1003.13 116.847 1002.92 117.118C1002.9 117.14 1002.88 117.173 1002.84 117.217C1002.8 117.262 1002.77 117.303 1002.75 117.342C1002.73 117.375 1002.72 117.414 1002.71 117.458C1002.52 117.602 1002.28 117.868 1001.99 118.255C1001.7 118.642 1001.47 118.911 1001.28 119.06C1001.23 119.099 1001.18 119.132 1001.12 119.16C1001.07 119.187 1001 119.218 1000.91 119.251C1000.82 119.279 1000.76 119.298 1000.73 119.309C999.855 119.696 998.948 119.89 998.007 119.89ZM998.381 118.172C998.502 118.172 998.721 118.141 999.036 118.081C999.352 118.014 999.51 117.948 999.51 117.881C999.902 117.754 1000.26 117.441 1000.59 116.943C1000.92 116.44 1001.13 115.956 1001.22 115.491L1001.38 115.441V115.366C1001.38 115.344 1001.36 115.294 1001.34 115.217C1001.31 115.139 1001.29 115.076 1001.29 115.026C1001.29 114.876 1001.33 114.655 1001.39 114.362C1001.46 114.069 1001.49 113.85 1001.49 113.706C1001.49 113.573 1001.47 113.363 1001.44 113.075C1001.4 112.787 1001.37 112.599 1001.33 112.511V112.478C1001.33 112.422 1001.28 112.336 1001.19 112.22C1001.14 111.899 1001.07 111.617 1000.98 111.374C1000.89 111.125 1000.8 110.934 1000.72 110.801C1000.64 110.668 1000.54 110.491 1000.42 110.27C1000.31 110.048 1000.22 109.816 1000.13 109.572H999.883C999.783 109.489 999.604 109.401 999.344 109.307C999.089 109.213 998.912 109.118 998.812 109.024C998.74 109.002 998.655 108.986 998.555 108.975C998.461 108.964 998.383 108.958 998.323 108.958C998.267 108.952 998.176 108.952 998.049 108.958C997.921 108.958 997.841 108.958 997.808 108.958C997.736 108.958 997.683 108.964 997.65 108.975L997.742 109.099C997.16 109.16 996.754 109.246 996.521 109.356C996.294 109.467 996.015 109.733 995.683 110.153L995.309 110.17L995.442 110.543C995.038 111.252 994.817 111.88 994.778 112.428C994.773 112.527 994.748 112.721 994.703 113.009C994.665 113.291 994.645 113.512 994.645 113.673C994.645 113.767 994.662 113.9 994.695 114.071C994.728 114.243 994.745 114.37 994.745 114.453C994.745 114.564 994.706 114.722 994.629 114.926C994.789 115.02 994.903 115.106 994.969 115.184C995.008 115.477 995.152 115.845 995.401 116.288C995.655 116.73 995.918 117.137 996.189 117.508H996.314C996.369 117.552 996.488 117.632 996.671 117.749C996.859 117.865 996.994 117.962 997.077 118.039C997.155 118.039 997.296 118.078 997.501 118.155C997.611 118.15 997.769 118.153 997.974 118.164C998.179 118.169 998.314 118.172 998.381 118.172ZM1015.18 119.649C1014.86 119.611 1014.39 119.583 1013.78 119.566C1013.17 119.55 1012.75 119.533 1012.52 119.517C1012.63 119.45 1012.77 119.331 1012.94 119.16C1012.95 119.115 1012.96 119.055 1012.96 118.977C1012.96 118.833 1012.9 118.623 1012.79 118.346C1012.58 118.141 1012.32 117.809 1012.01 117.35C1011.71 116.891 1011.55 116.548 1011.53 116.321C1011.38 116.277 1011.25 116.171 1011.14 116.005C1011.03 115.839 1010.93 115.648 1010.85 115.433C1010.77 115.217 1010.68 114.998 1010.58 114.777C1010.49 114.556 1010.36 114.348 1010.19 114.154C1010.02 113.955 1009.82 113.811 1009.58 113.723L1009.49 113.822C1009.44 113.739 1009.36 113.656 1009.25 113.573C1009.14 113.49 1009.04 113.432 1008.95 113.399C1009 113.327 1009.08 113.172 1009.19 112.934C1009.39 112.89 1009.54 112.862 1009.63 112.851C1009.74 112.801 1009.91 112.757 1010.15 112.718C1010.4 112.674 1010.57 112.627 1010.68 112.577C1010.96 112.45 1011.24 112.259 1011.53 112.004C1011.83 111.75 1012.02 111.506 1012.11 111.274L1011.97 111.133C1012.02 110.911 1012.05 110.759 1012.05 110.676C1012.05 110.283 1011.91 109.99 1011.63 109.796C1011.57 109.785 1011.49 109.78 1011.36 109.78C1011.34 109.769 1011.28 109.736 1011.19 109.68C1011.1 109.625 1011.03 109.589 1011 109.572C1010.97 109.556 1010.92 109.528 1010.83 109.489C1010.76 109.445 1010.69 109.415 1010.64 109.398C1010.6 109.381 1010.54 109.362 1010.47 109.34C1010.4 109.318 1010.33 109.304 1010.26 109.298C1010.19 109.287 1010.13 109.282 1010.05 109.282C1009.89 109.282 1009.72 109.293 1009.54 109.315C1009.36 109.332 1009.16 109.354 1008.94 109.381C1008.73 109.409 1008.57 109.428 1008.45 109.439C1008.36 109.854 1008.32 110.46 1008.32 111.257C1008.32 111.302 1008.31 111.368 1008.29 111.457C1008.26 111.54 1008.25 111.603 1008.25 111.647C1008.25 111.775 1008.34 111.949 1008.51 112.17C1008.46 113.017 1008.43 113.584 1008.43 113.872C1008.43 114.055 1008.46 114.401 1008.51 114.91C1008.45 114.971 1008.35 115.045 1008.22 115.134C1008.27 115.156 1008.35 115.178 1008.48 115.2C1008.56 115.676 1008.61 116.072 1008.61 116.387C1008.61 116.492 1008.6 116.633 1008.58 116.811L1008.68 116.902C1008.68 117.295 1008.72 117.718 1008.81 118.172C1008.74 118.26 1008.7 118.335 1008.69 118.396L1008.93 118.512C1009.03 118.667 1009.13 118.808 1009.26 118.936C1009.38 119.057 1009.48 119.149 1009.56 119.209C1009.63 119.265 1009.78 119.367 1009.99 119.517C1009.79 119.517 1009.51 119.528 1009.15 119.55L1009.03 119.417L1008.87 119.55C1008.8 119.539 1008.69 119.533 1008.54 119.533H1007.76H1007.72C1007.64 119.533 1007.57 119.5 1007.5 119.434C1007.43 119.461 1007.33 119.483 1007.19 119.5C1007.05 119.517 1006.95 119.539 1006.87 119.566C1006.2 119.544 1005.68 119.533 1005.33 119.533C1005.62 119.411 1005.82 119.281 1005.91 119.143C1006.01 119.005 1006.09 118.767 1006.16 118.429L1006.29 118.313L1006.19 118.105L1006.24 117.732C1006.34 117.599 1006.38 117.378 1006.38 117.068C1006.38 116.896 1006.36 116.728 1006.31 116.562C1006.43 116.384 1006.48 115.969 1006.48 115.316V114.553C1006.48 114.254 1006.49 114.06 1006.5 113.972C1006.51 113.916 1006.55 113.842 1006.61 113.748C1006.67 113.653 1006.71 113.57 1006.71 113.499C1006.71 113.465 1006.69 113.41 1006.65 113.333C1006.62 113.255 1006.6 113.197 1006.6 113.158C1006.6 112.992 1006.58 112.74 1006.55 112.403C1006.52 112.065 1006.5 111.813 1006.5 111.647C1006.5 111.598 1006.51 111.523 1006.53 111.423C1006.54 111.318 1006.55 111.241 1006.55 111.191C1006.55 111.064 1006.53 110.817 1006.48 110.452C1006.43 110.081 1006.42 109.799 1006.45 109.605C1006.35 109.605 1006.14 109.675 1005.82 109.813C1005.69 109.791 1005.58 109.78 1005.51 109.78C1005.44 109.78 1005.34 109.796 1005.21 109.83C1005.07 109.863 1004.97 109.879 1004.9 109.879L1005.01 109.688C1005.08 109.561 1005.13 109.453 1005.17 109.365C1005.21 109.271 1005.22 109.204 1005.21 109.166C1005.32 108.983 1005.51 108.717 1005.76 108.369C1006.02 108.014 1006.21 107.746 1006.33 107.563C1006.61 107.646 1006.82 107.721 1006.96 107.788H1007.15L1007.23 107.854C1007.45 107.821 1007.89 107.804 1008.54 107.804C1008.64 107.804 1008.78 107.79 1008.97 107.763C1009.15 107.735 1009.29 107.721 1009.39 107.721C1009.63 107.721 1010.06 107.741 1010.69 107.779C1011.32 107.812 1011.69 107.843 1011.8 107.871C1011.84 107.882 1011.87 107.909 1011.9 107.954C1011.92 107.998 1011.95 108.028 1011.97 108.045L1012.14 107.837C1012.52 107.909 1012.88 108.034 1013.23 108.211C1013.59 108.382 1013.91 108.632 1014.18 108.958C1014.46 109.279 1014.59 109.63 1014.59 110.012C1014.59 110.317 1014.52 110.638 1014.39 110.975C1014.25 111.313 1014.08 111.598 1013.88 111.83C1013.55 112.19 1013.24 112.497 1012.93 112.751L1013.02 112.818C1012.95 112.934 1012.8 113.072 1012.59 113.233C1012.39 113.388 1012.22 113.482 1012.1 113.515C1012.09 113.515 1012.04 113.526 1011.95 113.548C1011.85 113.57 1011.78 113.593 1011.74 113.615C1011.88 113.72 1012.11 113.997 1012.43 114.445C1012.74 114.888 1012.91 115.117 1012.94 115.134C1013.42 115.953 1013.89 116.645 1014.37 117.209C1014.35 117.264 1014.33 117.347 1014.3 117.458C1014.36 117.447 1014.44 117.441 1014.56 117.441C1014.85 117.785 1015.12 118.039 1015.37 118.205L1015.42 118.33C1015.52 118.357 1015.63 118.44 1015.76 118.579C1015.88 118.711 1015.97 118.792 1016 118.819C1015.97 118.985 1015.95 119.077 1015.94 119.093L1016.15 119.027C1016.38 119.187 1016.67 119.345 1017.01 119.5C1016.75 119.566 1016.5 119.6 1016.24 119.6C1016.19 119.6 1016.11 119.591 1016 119.575C1015.91 119.558 1015.83 119.55 1015.78 119.55C1015.75 119.55 1015.69 119.561 1015.6 119.583C1015.51 119.561 1015.43 119.55 1015.37 119.55C1015.36 119.55 1015.34 119.55 1015.32 119.55C1015.29 119.555 1015.27 119.561 1015.24 119.566C1015.22 119.572 1015.2 119.583 1015.19 119.6C1015.18 119.616 1015.18 119.633 1015.18 119.649ZM1017.88 119.583H1017.4V119.5C1017.5 119.478 1017.63 119.384 1017.78 119.218C1017.94 119.046 1018.03 118.908 1018.06 118.803C1018.1 118.709 1018.13 118.565 1018.16 118.371C1018.19 118.177 1018.22 118.034 1018.26 117.939C1018.22 117.746 1018.21 117.461 1018.21 117.084C1018.21 116.642 1018.24 115.983 1018.31 115.109C1018.39 114.229 1018.42 113.568 1018.42 113.125L1018.68 113.025L1018.53 112.901C1018.47 112.619 1018.44 112.303 1018.44 111.955C1018.44 111.783 1018.45 111.526 1018.46 111.183C1018.49 110.84 1018.5 110.585 1018.5 110.419C1018.5 110.364 1018.5 110.281 1018.52 110.17C1018.54 110.054 1018.55 109.968 1018.55 109.913C1018.55 109.813 1018.54 109.711 1018.51 109.605C1018.5 109.5 1018.47 109.384 1018.43 109.257C1018.4 109.13 1018.37 109.03 1018.36 108.958L1018.47 108.792L1018.31 108.726C1018.28 108.537 1018.21 108.36 1018.09 108.194C1017.97 108.028 1017.83 107.92 1017.66 107.871C1017.7 107.843 1017.76 107.821 1017.82 107.804C1017.88 107.788 1017.93 107.779 1017.97 107.779C1018.01 107.774 1018.07 107.768 1018.16 107.763C1018.24 107.757 1018.29 107.754 1018.32 107.754C1018.38 107.777 1018.45 107.793 1018.52 107.804C1018.6 107.815 1018.66 107.824 1018.7 107.829C1018.75 107.829 1018.82 107.829 1018.92 107.829C1019.02 107.824 1019.09 107.821 1019.12 107.821C1019.24 107.821 1019.42 107.829 1019.67 107.846C1019.91 107.862 1020.09 107.871 1020.21 107.871C1020.46 107.871 1020.74 107.843 1021.04 107.788L1021.42 107.871V107.887H1021.4C1021.07 108.097 1020.84 108.396 1020.7 108.784C1020.58 109.171 1020.5 109.622 1020.46 110.137L1020.24 110.236L1020.45 110.369C1020.4 110.519 1020.38 110.696 1020.38 110.9C1020.38 111.044 1020.39 111.263 1020.42 111.556C1020.45 111.849 1020.46 112.071 1020.46 112.22C1020.46 112.226 1020.46 112.253 1020.44 112.303C1020.42 112.347 1020.41 112.372 1020.41 112.378C1020.42 112.444 1020.43 112.574 1020.45 112.768C1020.47 112.962 1020.48 113.114 1020.48 113.225C1020.48 113.236 1020.47 113.288 1020.44 113.382C1020.42 113.476 1020.4 113.532 1020.4 113.548C1020.45 113.908 1020.48 114.237 1020.48 114.536C1020.48 114.614 1020.47 114.73 1020.46 114.885C1020.44 115.04 1020.43 115.156 1020.43 115.233C1020.43 115.482 1020.46 115.853 1020.53 116.346C1020.6 116.838 1020.64 117.209 1020.64 117.458V117.524L1020.45 117.749L1020.65 117.832L1020.77 118.62L1020.84 118.653C1020.85 118.703 1020.86 118.75 1020.88 118.794C1020.9 118.839 1020.91 118.886 1020.94 118.936C1020.96 118.985 1020.99 119.027 1021 119.06C1021.02 119.088 1021.05 119.129 1021.09 119.185C1021.13 119.24 1021.16 119.279 1021.17 119.301C1021.19 119.317 1021.22 119.359 1021.27 119.425C1021.32 119.486 1021.35 119.522 1021.35 119.533V119.583C1021.28 119.572 1021.17 119.561 1021.02 119.55C1020.87 119.539 1020.76 119.528 1020.69 119.517L1020.56 119.384L1020.41 119.55H1019.53C1019.45 119.55 1019.37 119.547 1019.29 119.542C1019.2 119.536 1019.11 119.528 1019 119.517C1018.9 119.511 1018.82 119.506 1018.76 119.5L1018.63 119.243L1018.51 119.45C1018.26 119.45 1018.05 119.494 1017.88 119.583ZM1026.72 119.6H1026.23C1026.17 119.6 1026.1 119.591 1026.03 119.575C1025.96 119.558 1025.89 119.536 1025.8 119.508C1025.73 119.481 1025.66 119.461 1025.62 119.45C1025.56 119.489 1025.51 119.514 1025.45 119.525C1025.4 119.536 1025.34 119.542 1025.27 119.542C1025.21 119.547 1025.15 119.555 1025.1 119.566L1024.82 119.467C1024.77 119.472 1024.7 119.489 1024.59 119.517C1024.49 119.55 1024.41 119.566 1024.35 119.566C1024.28 119.566 1024.18 119.553 1024.03 119.525C1023.88 119.497 1023.76 119.489 1023.67 119.5L1023.53 119.45C1023.4 119.207 1023.3 118.996 1023.25 118.819L1023.33 118.72L1023.28 118.67C1023.31 118.432 1023.45 118.158 1023.69 117.848C1024.17 117.195 1024.5 116.437 1024.67 115.574L1024.82 115.366C1024.8 115.278 1024.79 115.206 1024.79 115.15C1024.79 114.957 1024.89 114.6 1025.1 114.08C1025.3 113.554 1025.47 113.202 1025.6 113.025L1025.59 112.735C1025.61 112.685 1025.65 112.635 1025.7 112.585C1025.76 112.536 1025.79 112.45 1025.79 112.328C1025.79 112.256 1025.81 112.187 1025.84 112.121C1026.07 111.706 1026.31 111.102 1026.57 110.311C1026.84 109.514 1026.98 108.917 1026.98 108.518C1027.01 108.468 1027.08 108.418 1027.17 108.369C1027.27 108.319 1027.34 108.277 1027.37 108.244L1027.58 108.418L1027.73 108.244C1027.9 108.189 1028.01 108.15 1028.06 108.128C1028.12 108.106 1028.17 108.067 1028.23 108.012C1028.3 107.956 1028.38 107.865 1028.48 107.738C1028.53 107.71 1028.59 107.669 1028.67 107.613H1028.83L1028.99 107.771C1029.08 107.771 1029.15 107.846 1029.17 107.995C1029.21 108.205 1029.29 108.496 1029.4 108.867C1029.51 109.232 1029.58 109.467 1029.6 109.572C1029.73 109.677 1029.88 109.996 1030.04 110.527C1030.2 111.053 1030.32 111.481 1030.38 111.813L1030.48 111.905C1030.48 111.96 1030.49 112.021 1030.51 112.087C1030.53 112.148 1030.54 112.195 1030.55 112.229C1030.57 112.262 1030.6 112.32 1030.63 112.403C1030.68 112.48 1030.7 112.527 1030.71 112.544L1030.55 112.834L1030.82 112.901C1030.9 113.36 1031.09 114.027 1031.38 114.901C1031.68 115.77 1031.94 116.396 1032.15 116.777C1032.18 116.822 1032.24 116.916 1032.34 117.06C1032.44 117.198 1032.51 117.309 1032.54 117.392L1032.66 117.475C1032.66 117.48 1032.81 117.793 1033.12 118.413C1033.07 118.496 1033.02 118.587 1032.97 118.687H1033.24L1034.02 119.533C1033.88 119.522 1033.68 119.517 1033.41 119.517C1033.38 119.517 1033.34 119.514 1033.28 119.508C1033.23 119.503 1033.18 119.5 1033.16 119.5C1033.1 119.5 1033.03 119.511 1032.97 119.533C1032.81 119.511 1032.69 119.5 1032.61 119.5C1032.55 119.5 1032.45 119.506 1032.33 119.517C1032.2 119.528 1032.1 119.533 1032.03 119.533C1032 119.533 1031.95 119.525 1031.9 119.508C1031.84 119.492 1031.8 119.483 1031.76 119.483C1031.71 119.483 1031.64 119.492 1031.53 119.508C1031.43 119.525 1031.35 119.533 1031.3 119.533C1031.09 119.533 1030.89 119.517 1030.68 119.483C1030.43 119.539 1030.13 119.566 1029.77 119.566C1029.72 119.566 1029.64 119.564 1029.54 119.558C1029.44 119.553 1029.36 119.55 1029.31 119.55C1029.59 119.367 1029.75 119.248 1029.8 119.193C1029.83 119.171 1029.85 119.14 1029.87 119.102C1029.9 119.057 1029.93 118.996 1029.98 118.919C1030.03 118.841 1030.08 118.764 1030.13 118.687C1030.21 118.548 1030.25 118.462 1030.26 118.429L1030.13 118.238C1030.09 118.105 1030.08 117.975 1030.08 117.848C1030.08 117.754 1030.09 117.63 1030.11 117.475C1029.99 117.209 1029.85 116.799 1029.66 116.246C1029.49 115.687 1029.36 115.322 1029.3 115.15C1028.94 115.167 1028.46 115.258 1027.85 115.424C1027.25 115.59 1026.83 115.759 1026.61 115.931C1026.41 116.49 1026.28 117.073 1026.23 117.682C1026.21 117.704 1026.18 117.732 1026.15 117.765C1026.13 117.793 1026.1 117.832 1026.08 117.881C1026.05 117.926 1026.04 117.956 1026.03 117.973C1026.07 118.05 1026.09 118.128 1026.09 118.205C1026.09 118.249 1026.07 118.316 1026.05 118.404C1026.04 118.493 1026.03 118.545 1026.03 118.562C1026.07 118.617 1026.1 118.678 1026.12 118.745C1026.15 118.811 1026.17 118.889 1026.18 118.977C1026.2 119.066 1026.22 119.132 1026.23 119.176C1026.46 119.353 1026.62 119.494 1026.72 119.6ZM1027.12 114.262C1027.22 114.246 1027.36 114.221 1027.56 114.188C1027.77 114.154 1027.93 114.127 1028.05 114.104C1028.17 114.077 1028.32 114.041 1028.48 113.997C1028.65 113.947 1028.8 113.889 1028.92 113.822C1028.92 113.75 1028.89 113.612 1028.83 113.407C1028.78 113.197 1028.76 113.034 1028.77 112.917C1028.69 112.801 1028.61 112.619 1028.53 112.37C1028.46 112.121 1028.42 111.919 1028.41 111.764C1028.37 111.675 1028.32 111.537 1028.27 111.349C1028.22 111.16 1028.19 111.028 1028.15 110.95C1028.06 111.116 1027.97 111.263 1027.87 111.39C1027.83 111.683 1027.76 111.988 1027.68 112.303C1027.6 112.613 1027.5 112.97 1027.38 113.374C1027.26 113.778 1027.17 114.074 1027.12 114.262ZM1022.83 119.691C1022.77 119.691 1022.6 119.677 1022.32 119.649C1022.56 119.411 1022.75 119.174 1022.89 118.936L1022.97 118.886C1023.03 118.908 1023.07 118.93 1023.11 118.952C1023.11 118.991 1023.11 119.032 1023.13 119.077C1023.15 119.121 1023.17 119.154 1023.19 119.176C1023.2 119.198 1023.23 119.234 1023.27 119.284C1023.31 119.334 1023.33 119.367 1023.35 119.384V119.55C1023.23 119.55 1023.15 119.589 1023.12 119.666C1023.09 119.666 1023.04 119.669 1022.97 119.674C1022.91 119.685 1022.86 119.691 1022.83 119.691ZM1036.49 119.517C1036.32 119.517 1036.06 119.511 1035.71 119.5C1035.36 119.489 1035.1 119.483 1034.94 119.483V119.434L1035.08 119.309C1035.13 119.276 1035.18 119.218 1035.24 119.135C1035.31 119.046 1035.36 118.972 1035.39 118.911C1035.43 118.844 1035.47 118.745 1035.54 118.612C1035.61 118.479 1035.64 118.407 1035.65 118.396L1035.67 118.172C1035.82 117.906 1035.89 117.585 1035.89 117.209L1035.94 117.118L1035.96 116.47L1036.21 116.188L1035.99 116.047C1036.07 115.195 1036.11 114.362 1036.11 113.548C1036.11 113.189 1036.11 112.929 1036.1 112.768L1036.31 112.478L1036.13 112.121V112.021C1036.13 111.883 1036.13 111.67 1036.11 111.382C1036.1 111.094 1036.1 110.881 1036.1 110.743C1036.1 110.704 1036.11 110.638 1036.13 110.543C1036.15 110.449 1036.16 110.397 1036.16 110.386C1036.1 110.286 1036.03 110.209 1035.94 110.153C1035.93 110.043 1035.91 109.846 1035.89 109.564C1035.87 109.276 1035.85 109.058 1035.82 108.908C1035.81 108.809 1035.7 108.676 1035.5 108.51C1035.3 108.338 1035.2 108.2 1035.19 108.095L1035.01 107.854C1035.09 107.843 1035.23 107.818 1035.42 107.779C1035.6 107.735 1035.75 107.71 1035.86 107.705L1036.16 107.97L1036.36 107.754C1036.42 107.749 1036.5 107.746 1036.6 107.746C1036.71 107.741 1036.81 107.735 1036.9 107.729C1036.99 107.724 1037.07 107.716 1037.15 107.705C1037.25 107.738 1037.36 107.754 1037.48 107.754C1037.48 107.754 1037.51 107.746 1037.55 107.729C1037.6 107.713 1037.63 107.705 1037.64 107.705C1038.07 107.793 1038.4 107.826 1038.61 107.804L1038.66 107.837L1038.78 107.821L1038.81 107.788C1038.94 107.81 1039.04 107.821 1039.1 107.821V107.871C1038.6 108.247 1038.3 108.632 1038.21 109.024L1037.97 109.182L1038.17 109.381C1038.16 109.453 1038.14 109.561 1038.11 109.705C1038.09 109.843 1038.06 109.971 1038.05 110.087C1038.03 110.203 1038.03 110.314 1038.03 110.419C1038.01 110.452 1038 110.549 1038 110.709C1038 111.08 1038.01 111.636 1038.03 112.378C1038.05 113.119 1038.06 113.676 1038.06 114.046C1038.06 114.439 1038.08 114.733 1038.11 114.926L1037.93 115.25C1037.94 115.283 1037.97 115.333 1038.02 115.399C1038.08 115.466 1038.11 115.524 1038.11 115.574C1038.15 115.801 1038.18 116.13 1038.18 116.562C1038.19 116.988 1038.21 117.303 1038.24 117.508L1038.39 117.765C1038.57 117.854 1038.71 117.898 1038.81 117.898C1038.94 117.898 1039.12 117.881 1039.36 117.848C1039.6 117.815 1039.78 117.798 1039.9 117.798H1040.02C1040.05 117.798 1040.07 117.815 1040.1 117.848C1040.13 117.881 1040.16 117.898 1040.19 117.898C1040.31 117.898 1040.49 117.87 1040.73 117.815C1040.98 117.76 1041.17 117.732 1041.29 117.732C1041.52 117.732 1041.78 117.685 1042.06 117.591C1042.35 117.491 1042.59 117.375 1042.8 117.242H1042.83C1042.96 117.12 1043.11 116.938 1043.29 116.694C1043.32 116.65 1043.34 116.573 1043.36 116.462C1043.38 116.351 1043.41 116.277 1043.44 116.238H1043.49L1043.56 116.171C1043.56 116.232 1043.58 116.318 1043.62 116.429C1043.66 116.534 1043.69 116.611 1043.69 116.661C1043.62 116.766 1043.58 116.841 1043.58 116.885L1043.78 117.051C1043.81 117.156 1043.88 117.452 1044 117.939C1044.12 118.421 1044.23 118.789 1044.32 119.043C1044.32 119.082 1044.33 119.143 1044.35 119.226C1044.36 119.304 1044.37 119.362 1044.37 119.4C1044.37 119.411 1044.37 119.428 1044.36 119.45C1044.36 119.472 1044.36 119.489 1044.36 119.5L1044.19 119.517C1043.63 119.517 1043.08 119.5 1042.56 119.467L1042.36 119.259C1042.33 119.259 1042.26 119.301 1042.16 119.384C1042.05 119.461 1041.99 119.5 1041.96 119.5C1041.8 119.5 1041.55 119.486 1041.23 119.458C1040.9 119.431 1040.66 119.417 1040.5 119.417C1040.34 119.417 1040.1 119.425 1039.79 119.442C1039.48 119.458 1039.25 119.467 1039.09 119.467H1037.69L1037.71 119.417C1037.62 119.423 1037.49 119.436 1037.33 119.458C1037.16 119.475 1037.01 119.489 1036.87 119.5C1036.74 119.511 1036.61 119.517 1036.49 119.517Z" fill="#D1AF98"/>
<ellipse cx="1120.31" cy="18.9943" rx="2.92589" ry="2.9943" fill="#D1AF98"/>
<ellipse cx="1120.31" cy="27.9787" rx="2.92589" ry="2.9943" fill="#D1AF98"/>
<ellipse cx="1115.93" cy="23.4865" rx="2.92589" ry="2.9943" fill="#D1AF98"/>
<ellipse cx="1124.7" cy="23.4865" rx="2.92589" ry="2.9943" fill="#D1AF98"/>
<path d="M1120.32 35.0781V210.263" stroke="#D1AF98" stroke-width="2"/>
<rect x="43" y="35" width="1058" height="408" stroke="#D1AF98" stroke-width="2"/>
<ellipse cx="25.3146" cy="441.287" rx="2.92589" ry="2.9943" fill="#D1AF98"/>
<ellipse cx="25.3146" cy="450.272" rx="2.92589" ry="2.9943" fill="#D1AF98"/>
<ellipse cx="20.9259" cy="445.779" rx="2.92589" ry="2.9943" fill="#D1AF98"/>
<ellipse cx="29.7032" cy="445.779" rx="2.92589" ry="2.9943" fill="#D1AF98"/>
<path d="M25.3154 259V434.185" stroke="#D1AF98" stroke-width="2"/>
<path d="M308.63 221.386L316.562 216.331C319.481 214.468 319.481 210.205 316.562 208.342L308.63 203.287L314.979 196.353C317.321 193.797 316.216 189.674 312.91 188.635L303.939 185.798L308.276 177.454C309.875 174.379 307.74 170.685 304.277 170.536L294.877 170.116L296.905 160.938C297.656 157.558 294.638 154.54 291.249 155.29L282.063 157.319L281.643 147.927C281.486 144.464 277.792 142.337 274.717 143.928L266.372 148.265L263.536 139.302C262.489 135.996 258.366 134.899 255.81 137.233L248.867 143.582L243.804 135.658C241.941 132.739 237.67 132.739 235.806 135.658L230.744 143.582L223.801 137.233C221.245 134.891 217.122 135.996 216.075 139.302L213.238 148.265L204.894 143.928C201.818 142.328 198.124 144.464 197.968 147.927L197.547 157.319L188.362 155.29C184.973 154.54 181.963 157.558 182.705 160.938L184.734 170.116L175.359 170.52C171.896 170.676 169.76 174.37 171.36 177.438L175.697 185.782L166.726 188.618C163.419 189.666 162.314 193.78 164.656 196.336L171.005 203.271L163.073 208.325C160.154 210.189 160.154 214.451 163.073 216.315L171.005 221.369L164.664 228.32C162.323 230.876 163.427 234.999 166.734 236.038L175.705 238.875L171.368 247.219C169.768 250.294 171.904 253.988 175.367 254.137L184.767 254.557L182.738 263.735C181.988 267.115 185.006 270.133 188.395 269.383L197.58 267.354L198.001 276.746C198.157 280.209 201.851 282.336 204.927 280.745L213.271 276.408L216.108 285.371C217.155 288.677 221.277 289.774 223.834 287.44L230.776 281.091L235.839 289.015C237.703 291.934 241.974 291.934 243.837 289.015L248.9 281.091L255.843 287.44C258.399 289.782 262.522 288.677 263.569 285.371L266.405 276.408L274.75 280.745C277.825 282.345 281.519 280.209 281.676 276.746L282.096 267.354L291.282 269.383C294.663 270.133 297.68 267.115 296.938 263.735L294.91 254.557L304.31 254.137C307.773 253.98 309.908 250.286 308.309 247.219L303.971 238.875L312.943 236.038C316.249 234.991 317.354 230.876 315.012 228.32L308.63 221.386ZM258.234 217.717L269.613 252.472L239.822 230.992L210.032 252.472L221.411 217.717L191.621 196.237H228.436L239.823 161.49L251.201 196.245H288.016L258.234 217.717Z" fill="#583311"/>
<path d="M293.25 282.645C290.727 284.599 288.105 286.429 285.376 288.111L294.199 321.036L278.903 313.368C276.858 312.345 274.368 313.013 273.115 314.918L263.707 329.199L255.799 299.69C252.848 300.267 249.846 300.695 246.804 300.968L257.597 341.221C258.455 344.891 263.74 345.756 265.719 342.532L278.45 323.213L299.138 333.586C302.452 335.392 306.616 332.003 305.52 328.392L293.25 282.645Z" fill="#583311" fill-opacity="0.5"/>
<path d="M223.743 300.08L215.935 329.195L206.527 314.914C205.265 312.993 202.75 312.35 200.738 313.364L185.443 321.032L193.961 289.27C191.215 287.671 188.568 285.931 186.02 284.051L174.13 328.395C173.034 332.007 177.198 335.396 180.512 333.59L201.2 323.217L213.931 342.536C215.918 345.76 221.195 344.894 222.053 341.225L232.797 301.144C229.729 300.938 226.711 300.583 223.743 300.08Z" fill="#583311" fill-opacity="0.5"/>
<defs>
<filter id="filter0_d_1036_5102" x="0" y="0" width="1144" height="486" filterUnits="userSpaceOnUse" color-interpolation-filters="sRGB">
<feFlood flood-opacity="0" result="BackgroundImageFix"/>
<feColorMatrix in="SourceAlpha" type="matrix" values="0 0 0 0 0 0 0 0 0 0 0 0 0 0 0 0 0 0 127 0" result="hardAlpha"/>
<feOffset dy="4"/>
<feGaussianBlur stdDeviation="2"/>
<feComposite in2="hardAlpha" operator="out"/>
<feColorMatrix type="matrix" values="0 0 0 0 0 0 0 0 0 0 0 0 0 0 0 0 0 0 0.25 0"/>
<feBlend mode="normal" in2="BackgroundImageFix" result="effect1_dropShadow_1036_5102"/>
<feBlend mode="normal" in="SourceGraphic" in2="effect1_dropShadow_1036_5102" result="shape"/>
</filter>
</defs>
</svg>
