<svg width="249" height="306" viewBox="0 0 249 306" fill="none" xmlns="http://www.w3.org/2000/svg">
<rect width="4" height="30" transform="matrix(-1 0 0 1 234.648 115)" fill="#583311" fill-opacity="0.5"/>
<rect x="51.2031" y="25.582" width="4" height="30" fill="#583311" fill-opacity="0.5"/>
<rect width="4" height="60" transform="matrix(-1 0 0 1 248.648 100)" fill="#583311" fill-opacity="0.5"/>
<rect width="8" height="60" transform="matrix(-1 0 0 1 128.698 76.7266)" fill="#583311"/>
<rect x="146.735" y="166.727" width="8" height="60" transform="rotate(180 146.735 166.727)" fill="#583311"/>
<path d="M124.698 58.6914L140.319 85.7471H109.078L124.698 58.6914Z" fill="#583311"/>
<rect x="37.2031" y="10.582" width="4" height="60" fill="#583311" fill-opacity="0.5"/>
<path d="M142.735 184.766L158.356 157.71H127.115L142.735 184.766Z" fill="#583311"/>
<path fill-rule="evenodd" clip-rule="evenodd" d="M91.5346 16.0687C88.6291 16.3778 85.4392 17.5403 83.0042 19.1772C78.1112 22.4666 75.07 27.5995 74.5167 33.5021C74.4548 34.1622 74.4175 38.9297 74.4175 46.197L74.4175 57.8349L73.6564 57.6139C70.6057 56.7278 67.064 56.9937 64.3799 58.3104C60.7309 60.1005 57.9838 63.8742 57.008 68.4371C56.7457 69.6637 56.7823 72.065 57.1025 74.6334C57.9561 81.4801 58.0562 89.0374 57.35 93.3099C57.0814 94.935 56.5782 96.7257 55.2797 100.677C51.2832 112.838 47.5668 122.033 41.7439 134.168C39.6546 138.522 31.7994 153.986 24.4878 168.14C18.6643 179.413 18.6501 179.444 18.1269 182.315C17.4979 185.765 17.3116 188.394 17.204 195.336C17.0916 202.579 16.972 204.187 16.3441 206.892C16.1326 207.803 15.6556 210.225 15.2842 212.273C14.2329 218.073 13.5178 220.993 12.2882 224.506C9.60787 232.163 6.04893 238.815 0.926865 245.74C0.399689 246.453 -0.0171838 247.05 0.000545211 247.068C0.140557 247.209 3.94406 250.162 3.98489 250.162C4.15164 250.162 6.40888 247.092 8.00258 244.697C10.0144 241.675 11.1901 239.614 13.1645 235.651C16.9841 227.984 19.6481 219.546 21.2214 210.132C22.012 205.401 22.253 202.263 22.3348 195.636C22.3932 190.9 22.5009 188.349 22.7267 186.351C22.9482 184.391 23.3109 182.354 23.5868 181.522C23.9119 180.541 25.0894 178.169 29.2529 170.11C38.2493 152.696 45.2152 138.924 47.5782 133.88C52.8339 122.66 56.0671 114.58 59.9022 103.079C62.539 95.1719 62.915 93.0438 62.9161 86.0213C62.9168 81.6486 62.7088 78.1812 62.187 73.8646C61.856 71.1268 61.8951 69.66 62.3338 68.3442C63.7383 64.1324 66.9201 61.8273 70.7039 62.2801C74.6402 62.7512 77.2628 64.9761 80.4511 70.5491C81.4161 72.2359 83.7702 76.9855 84.3805 78.4774C87.7195 86.6383 89.4403 96.1479 89.2408 105.338C89.1584 109.132 88.8643 111.806 88.1155 115.572C87.1262 120.548 85.8183 124.743 82.4679 133.688C76.8872 148.587 75.1459 155.246 74.5158 164.101C74.3768 166.054 74.3785 221.153 74.5176 222.637C74.8584 226.276 76.1838 229.71 78.3649 232.606C79.1283 233.619 80.952 235.447 81.9672 236.216C84.829 238.384 88.1133 239.686 91.6876 240.068C92.3052 240.134 101.177 240.168 118.076 240.168C142.031 240.168 143.53 240.177 143.471 240.332C143.328 240.704 141.461 243.716 140.207 245.597C136.669 250.902 133.904 254.319 129.858 258.385C125.123 263.143 121.493 266.015 112.882 271.815C105.513 276.779 101.755 279.043 96.9861 281.392C92.993 283.359 89.9596 284.589 84.8153 286.33C79.4153 288.157 78.0296 288.703 75.3758 290.048C71.6978 291.913 67.8504 294.523 64.355 297.523C62.9637 298.718 59.2759 302.337 59.2759 302.508C59.2759 302.566 59.9332 303.212 60.7367 303.944C61.54 304.677 62.3758 305.439 62.5938 305.638L62.9903 306L64.3196 304.642C68.5588 300.312 73.1249 296.934 78.107 294.442C80.1139 293.438 81.4092 292.931 85.5341 291.532C91.0698 289.655 93.5011 288.711 97.2736 286.973C102.773 284.44 107.033 281.933 115.6 276.186C124.464 270.239 128.536 267.021 133.504 262.037C136.723 258.808 138.474 256.774 141.289 252.997C143.952 249.423 146.825 244.978 148.71 241.513L149.416 240.216L161.965 240.161C174.287 240.108 174.534 240.103 175.569 239.901C177.15 239.592 178.546 239.17 179.856 238.604C186.062 235.924 190.411 230.169 191.285 223.479C191.375 222.797 191.429 221.598 191.429 220.322V218.265L191.741 218.217C191.912 218.191 192.415 218.12 192.858 218.061C194.333 217.864 196.244 217.198 197.609 216.408C198.467 215.91 204.83 211.325 205.881 210.447C209.227 207.65 211.128 202.934 210.692 198.508C210.347 195.004 208.905 192.016 206.393 189.598C204.449 187.727 201.842 186.369 199.379 185.946C199.012 185.883 198.713 185.806 198.713 185.775C198.713 185.745 200.621 184.341 202.953 182.656C206.781 179.891 207.311 179.476 208.398 178.383C211.557 175.208 213.144 171.113 212.964 166.604C212.678 159.432 207.849 153.566 200.738 151.752L200.32 151.645L201.073 151.094C201.488 150.791 202.527 150.036 203.382 149.415C204.237 148.795 205.308 147.935 205.762 147.504C207.906 145.469 209.454 142.616 210.13 139.454C210.312 138.599 210.346 138.143 210.35 136.474C210.354 134.792 210.322 134.345 210.135 133.416C208.803 126.795 203.703 121.733 197.18 120.56C195.58 120.272 192.913 120.285 191.645 120.587L191.429 120.639V119.15C191.429 118.073 191.462 117.637 191.549 117.57C191.615 117.519 192.143 117.29 192.723 117.062C194.472 116.373 198.914 114.452 201.156 113.414C206.247 111.059 209.515 109.134 213.04 106.414C215.581 104.452 216.909 103.225 217.894 101.926C220.9 97.9654 221.761 92.5878 220.316 86.7994C219.957 85.3605 219.576 84.4811 218.779 83.2509C216.489 79.7169 212.749 77.1927 208.326 76.1953C207.509 76.0112 207.102 75.9831 205.229 75.982C202.881 75.9808 202.538 76.0236 199.767 76.6641C197.64 77.1555 195.582 77.7675 193.485 78.5324C192.481 78.8985 191.608 79.1982 191.544 79.1982C191.455 79.1982 191.429 74.0883 191.429 56.4752C191.429 31.5951 191.455 32.7925 190.866 30.461C190.325 28.3218 189.462 26.3719 188.255 24.5647C185.241 20.0498 180.873 17.2176 175.329 16.1836C174.469 16.0231 172.175 16.0131 133.355 16.001C110.769 15.994 91.9502 16.0244 91.5346 16.0687ZM145.07 23.9811C145.896 24.2764 146.378 24.8994 146.463 25.7787C146.544 26.6178 146.063 27.4436 145.287 27.797C144.922 27.9633 144.303 27.9721 132.914 27.9742L120.927 27.9763L120.504 27.7526C119.692 27.3225 119.304 26.3843 119.502 25.3269C119.59 24.8555 120.339 24.1003 120.854 23.9639C121.105 23.8973 125.157 23.8619 132.971 23.858C142.547 23.8534 144.777 23.8761 145.07 23.9811ZM181.192 33.0792C182.519 33.5971 183.395 34.3765 183.989 35.5684C184.173 35.936 184.366 36.5173 184.426 36.8829C184.505 37.3637 184.527 49.0581 184.508 80.7834L184.481 124.029L180.073 127.223C170.867 133.893 170.718 134.004 169.825 134.889C167.575 137.119 166.087 140.017 165.54 143.235C165.25 144.943 165.317 147.565 165.692 149.208C166.428 152.429 167.924 155.105 170.264 157.385C172.317 159.386 174.673 160.709 177.514 161.458L177.926 161.567L173.489 164.775C168.575 168.329 167.521 169.225 166.232 170.947C165.047 172.53 164.074 174.544 163.587 176.425C162.808 179.43 162.911 182.534 163.887 185.48C165.922 191.622 171.445 195.879 177.941 196.312C178.455 196.346 178.875 196.387 178.875 196.403C178.875 196.418 178.72 196.696 178.531 197.02C177.723 198.402 177.099 200.124 176.808 201.775C176.598 202.964 176.587 205.376 176.786 206.46L176.923 207.205L131.348 207.203C81.0664 207.202 85.1895 207.254 83.963 206.602C82.8565 206.013 81.8773 204.764 81.5465 203.518C81.4374 203.107 81.4154 198.861 81.4144 178.076L81.4132 153.128L81.8888 151.383C83.1059 146.919 84.2274 143.62 87.5441 134.749C91.3538 124.559 92.8498 119.326 93.7672 112.978C95.1533 103.386 94.2295 92.3726 91.2 82.3672C90.0788 78.6647 88.8761 75.7113 86.8762 71.7503C84.826 67.6898 83.5397 65.52 82.0229 63.5644L81.4132 62.7782V49.9142C81.4132 38.6731 81.4317 36.9789 81.56 36.4853C82.0377 34.646 83.6164 33.1987 85.4888 32.8835C85.7509 32.8394 107.247 32.8091 133.259 32.8163L180.552 32.8294L181.192 33.0792ZM206.427 80.9385C209.563 81.3238 212.708 83.1906 214.42 85.6828C215.077 86.6399 215.26 87.0406 215.528 88.1077C216.72 92.8587 215.848 97.0672 213.092 99.8595C212.314 100.649 210.55 102.086 208.698 103.443C206.199 105.272 203.393 106.867 199.341 108.759C196.947 109.877 191.699 112.161 191.523 112.161C191.462 112.161 191.429 107.288 191.429 98.4149V84.6691L191.884 84.473C193.044 83.9733 196.566 82.7052 197.97 82.2821C200.116 81.6354 202.585 81.0957 204.319 80.8941C204.933 80.8227 205.599 80.8367 206.427 80.9385ZM195.38 125.519C197.9 125.765 200.162 126.816 201.946 128.572C205.668 132.233 206.35 137.882 203.586 142.144C202.696 143.516 201.997 144.079 194.001 149.862C189.41 153.182 186.169 155.461 185.712 155.691C184.117 156.493 182.642 156.802 180.792 156.722C174.878 156.469 170.189 151.285 170.476 145.316C170.6 142.72 171.639 140.33 173.402 138.588C174.399 137.601 188.924 127.086 190.087 126.507C191.1 126.004 192.376 125.632 193.442 125.528C193.89 125.484 194.299 125.444 194.352 125.438C194.405 125.433 194.867 125.469 195.38 125.519ZM199.24 156.714C202.463 157.378 205.144 159.402 206.653 162.31C209.033 166.898 207.766 172.623 203.678 175.752C202.238 176.855 184.695 189.504 184.216 189.785C179.498 192.558 173.151 191.092 170.074 186.518C168.782 184.597 168.237 182.796 168.239 180.456C168.242 177.855 168.976 175.756 170.602 173.695C170.928 173.282 171.424 172.746 171.705 172.504C172.44 171.868 190.853 158.532 191.751 157.985C193.912 156.669 196.713 156.193 199.24 156.714ZM199.079 191.147C201.229 191.777 202.936 193.041 204.167 194.915C206.471 198.423 205.972 203.153 202.988 206.1C202.353 206.726 197.203 210.534 195.416 211.699C193.979 212.634 192.477 213.067 190.663 213.067C188.141 213.067 185.977 212.139 184.234 210.31C182.966 208.979 182.125 207.303 181.843 205.546C181.685 204.558 181.772 202.862 182.031 201.871C182.426 200.363 183.38 198.738 184.473 197.713C185.263 196.972 191.705 192.314 192.594 191.84C194.036 191.073 194.985 190.867 196.892 190.909C198.056 190.934 198.529 190.986 199.079 191.147ZM134.792 213.117C138.27 213.856 140.99 216.415 142.043 219.938C142.281 220.734 142.302 220.938 142.303 222.485C142.305 224.408 142.178 225.046 141.512 226.471C141 227.566 140.529 228.258 139.7 229.131C137.761 231.171 135.107 232.225 132.308 232.064C129.253 231.889 126.55 230.35 124.883 227.837C124.267 226.908 123.962 226.254 123.605 225.093C123.367 224.32 123.349 224.139 123.349 222.485C123.349 220.824 123.366 220.652 123.609 219.863C124.38 217.353 126.019 215.313 128.275 214.052C129.243 213.512 130.508 213.137 132.061 212.93C132.537 212.867 134.127 212.976 134.792 213.117Z" fill="#583311"/>
<path d="M70.5713 237.465C70.5716 242.65 73.4578 252.84 85 252.119C96.5422 251.398 154.435 251.819 181.939 252.119C186.673 251.968 196.277 248.827 196.818 237.465" stroke="#583311" stroke-opacity="0.5" stroke-width="5"/>
<path d="M70.5713 17.9258C70.5716 12.7405 73.4578 2.55018 85 3.27148C96.5422 3.99279 154.435 3.57203 181.939 3.27148C186.673 3.42215 196.277 6.56394 196.818 17.9258" stroke="#583311" stroke-opacity="0.5" stroke-width="5"/>
</svg>
