<svg width="148" height="61" viewBox="0 0 148 61" fill="none" xmlns="http://www.w3.org/2000/svg">
<mask id="path-1-inside-1_854_4239" fill="white">
<path fill-rule="evenodd" clip-rule="evenodd" d="M12.5252 60.9364L11.0363 57.4189L9.52052 61H3.93188C2.27502 61 0.931885 59.6569 0.931885 58V3.20792C0.931885 1.55107 2.27502 0.207924 3.93188 0.207924H97.3306L98.6484 3.23731L99.9462 0.253891L101.001 2.74512L102.075 0.207924H136.014L137.055 2.50098L138.043 0.323746L139.302 3.23822L140.611 0.207924H144.932C146.589 0.207924 147.932 1.55107 147.932 3.20792V58C147.932 59.6569 146.589 61 144.932 61H70.6948L69.179 57.4189L67.9095 60.4181L66.9359 58.2188L65.7048 61H14.774L13.6353 58.4639L12.5252 60.9364Z"/>
</mask>
<path fill-rule="evenodd" clip-rule="evenodd" d="M12.5252 60.9364L11.0363 57.4189L9.52052 61H3.93188C2.27502 61 0.931885 59.6569 0.931885 58V3.20792C0.931885 1.55107 2.27502 0.207924 3.93188 0.207924H97.3306L98.6484 3.23731L99.9462 0.253891L101.001 2.74512L102.075 0.207924H136.014L137.055 2.50098L138.043 0.323746L139.302 3.23822L140.611 0.207924H144.932C146.589 0.207924 147.932 1.55107 147.932 3.20792V58C147.932 59.6569 146.589 61 144.932 61H70.6948L69.179 57.4189L67.9095 60.4181L66.9359 58.2188L65.7048 61H14.774L13.6353 58.4639L12.5252 60.9364Z" fill="#024DAC"/>
<path d="M12.5252 60.9364L11.6043 61.3262L12.4982 63.438L13.4375 61.346L12.5252 60.9364ZM11.0363 57.4189L11.9572 57.0291L11.0363 54.8535L10.1154 57.0291L11.0363 57.4189ZM9.52052 61V62H10.1831L10.4414 61.3898L9.52052 61ZM97.3306 0.207924L98.2476 -0.190968L97.9861 -0.792076H97.3306V0.207924ZM98.6484 3.23731L97.7314 3.6362L98.6484 5.74426L99.5654 3.6362L98.6484 3.23731ZM99.9462 0.253891L100.867 -0.135906L99.9587 -2.2819L99.0292 -0.145L99.9462 0.253891ZM101.001 2.74512L100.08 3.13492L101.001 5.31055L101.922 3.13492L101.001 2.74512ZM102.075 0.207924V-0.792076H101.412L101.154 -0.181873L102.075 0.207924ZM136.014 0.207924L136.925 -0.205349L136.659 -0.792076H136.014V0.207924ZM137.055 2.50098L136.144 2.91425L137.055 4.92069L137.966 2.91425L137.055 2.50098ZM138.043 0.323746L138.961 -0.0728378L138.066 -2.14563L137.132 -0.0895271L138.043 0.323746ZM139.302 3.23822L138.384 3.63481L139.302 5.75977L140.22 3.63481L139.302 3.23822ZM140.611 0.207924V-0.792076H139.954L139.693 -0.18866L140.611 0.207924ZM70.6948 61L69.7739 61.3898L70.0321 62H70.6948V61ZM69.179 57.4189L70.0999 57.0291L69.179 54.8535L68.2581 57.0291L69.179 57.4189ZM67.9095 60.4181L66.9951 60.8229L67.93 62.935L68.8304 60.8079L67.9095 60.4181ZM66.9359 58.2188L67.8503 57.814L66.9359 55.7482L66.0215 57.814L66.9359 58.2188ZM65.7048 61V62H66.3557L66.6192 61.4048L65.7048 61ZM14.774 61L13.8617 61.4096L14.1268 62H14.774V61ZM13.6353 58.4639L14.5476 58.0543L13.6353 56.0224L12.723 58.0543L13.6353 58.4639ZM13.4461 60.5466L11.9572 57.0291L10.1154 57.8087L11.6043 61.3262L13.4461 60.5466ZM10.1154 57.0291L8.59962 60.6102L10.4414 61.3898L11.9572 57.8087L10.1154 57.0291ZM9.52052 60H3.93188V62H9.52052V60ZM3.93188 60C2.82732 60 1.93188 59.1046 1.93188 58H-0.0681152C-0.0681152 60.2091 1.72273 62 3.93188 62V60ZM1.93188 58V3.20792H-0.0681152V58H1.93188ZM1.93188 3.20792C1.93188 2.10336 2.82732 1.20792 3.93188 1.20792V-0.792076C1.72273 -0.792076 -0.0681152 0.998787 -0.0681152 3.20792H1.93188ZM3.93188 1.20792H97.3306V-0.792076H3.93188V1.20792ZM96.4136 0.606815L97.7314 3.6362L99.5654 2.83842L98.2476 -0.190968L96.4136 0.606815ZM99.5654 3.6362L100.863 0.652782L99.0292 -0.145L97.7314 2.83842L99.5654 3.6362ZM99.0253 0.643688L100.08 3.13492L101.922 2.35532L100.867 -0.135906L99.0253 0.643688ZM101.922 3.13492L102.995 0.597721L101.154 -0.181873L100.08 2.35532L101.922 3.13492ZM102.075 1.20792H136.014V-0.792076H102.075V1.20792ZM135.104 0.621197L136.144 2.91425L137.966 2.0877L136.925 -0.205349L135.104 0.621197ZM137.966 2.91425L138.954 0.737019L137.132 -0.0895271L136.144 2.0877L137.966 2.91425ZM137.125 0.720329L138.384 3.63481L140.22 2.84164L138.961 -0.0728378L137.125 0.720329ZM140.22 3.63481L141.529 0.604507L139.693 -0.18866L138.384 2.84164L140.22 3.63481ZM140.611 1.20792H144.932V-0.792076H140.611V1.20792ZM144.932 1.20792C146.036 1.20792 146.932 2.10336 146.932 3.20792H148.932C148.932 0.998787 147.141 -0.792076 144.932 -0.792076V1.20792ZM146.932 3.20792V58H148.932V3.20792H146.932ZM146.932 58C146.932 59.1046 146.036 60 144.932 60V62C147.141 62 148.932 60.2091 148.932 58H146.932ZM144.932 60H70.6948V62H144.932V60ZM71.6157 60.6102L70.0999 57.0291L68.2581 57.8087L69.7739 61.3898L71.6157 60.6102ZM68.2581 57.0291L66.9886 60.0283L68.8304 60.8079L70.0999 57.8087L68.2581 57.0291ZM68.8239 60.0133L67.8503 57.814L66.0215 58.6235L66.9951 60.8229L68.8239 60.0133ZM66.0215 57.814L64.7904 60.5952L66.6192 61.4048L67.8503 58.6235L66.0215 57.814ZM65.7048 60H14.774V62H65.7048V60ZM15.6862 60.5904L14.5476 58.0543L12.7231 58.8735L13.8617 61.4096L15.6862 60.5904ZM12.723 58.0543L11.6129 60.5268L13.4375 61.346L14.5476 58.8735L12.723 58.0543Z" fill="#103D76" mask="url(#path-1-inside-1_854_4239)"/>
<path d="M36.2716 38.8835L35.5716 38.5755L35.2356 38.9395C33.4996 38.9395 29.8316 37.9315 28.1516 37.2035C28.2916 36.5875 28.3756 35.8595 28.6276 35.2715C28.7116 35.1035 28.8796 34.9635 28.9636 34.7955C29.1596 34.3475 29.1036 33.7595 29.2436 33.2835C29.5236 33.0595 29.6916 32.7235 29.9156 32.4435L30.0556 32.7515C30.0556 33.0595 30.3916 33.3115 30.4476 33.6475C30.5036 34.0115 31.6796 34.9355 32.0156 35.1035C33.1076 35.1875 34.0596 35.6075 35.0676 36.0275C35.6556 35.9435 36.5796 35.4115 37.1116 35.4675C37.6436 35.2155 38.5956 34.9355 38.5956 34.2075C38.8196 34.0675 39.0716 33.7315 39.0716 33.4515C39.0716 33.3955 39.0156 33.3395 39.0156 33.2835C39.3516 31.8555 36.1876 30.0355 35.0396 29.7275C34.6196 29.6155 34.1996 29.5035 33.8076 29.3635C33.6676 29.1955 33.4716 29.0275 33.2476 29.0275C32.5756 28.7475 32.0716 28.2715 31.3716 28.0475C31.1756 27.9915 30.3636 27.4035 30.1956 27.2355C29.3556 26.3955 29.0476 24.9395 28.9076 23.8195C28.9636 23.7355 29.3556 23.4275 29.3556 23.3715C29.3556 23.2035 29.0756 23.0635 29.0756 22.9515V22.8675C29.0756 22.3075 30.3916 20.3195 30.8956 20.0675C32.0156 19.5075 33.2756 18.6955 34.5636 18.6955L34.9276 19.0315C35.1236 18.5275 35.2916 18.4995 35.6556 18.4995C36.8036 18.4995 37.9236 18.6675 39.0716 18.6675C39.4076 18.6675 39.7436 18.8075 40.0796 18.8075C40.3316 18.9755 40.4716 19.2555 40.6956 19.4515L40.7516 19.7595L40.9476 20.0395C40.9476 20.3195 41.1996 20.5155 41.1716 20.8235L41.3396 21.1035V21.1315C41.3396 21.3275 41.0876 21.2435 41.0876 21.5235C41.0876 21.6075 41.1436 21.7475 41.1716 21.8315C41.0596 21.9715 40.9756 22.1395 40.9476 22.3075C40.7796 22.4475 40.6116 22.6155 40.4716 22.7835C40.0516 22.9795 39.9676 23.5115 39.6316 23.7915L39.4356 23.5395C39.4636 23.3995 39.4916 23.2595 39.4916 23.1195C39.4916 22.3075 39.2396 22.1115 38.5396 21.7755L38.4836 21.6075C37.6156 21.4675 36.6076 21.2155 35.7396 21.2155C35.5716 21.2155 35.1796 21.4115 35.0116 21.4675L34.9276 21.5515C34.5076 21.6355 34.1156 21.7195 33.6956 21.8315L33.6116 21.8035C33.1916 21.9995 33.2196 22.5875 32.8836 22.8675C32.7996 23.0915 32.6036 23.8475 32.6036 24.0715C32.6036 24.4075 32.6876 24.4635 32.9396 24.6875C33.0516 24.9675 33.2476 25.2195 33.4436 25.4435C34.5076 26.0315 35.8236 26.9835 36.9996 27.2355C38.0076 27.9355 39.2116 28.2435 40.1356 29.0835C40.3316 29.2515 40.5556 29.3915 40.7796 29.5595C41.3396 29.9515 41.3956 30.6795 41.9276 31.0715L42.0956 31.4355C42.0956 32.2475 42.4596 33.0035 42.4596 33.8435L42.0956 34.2355V34.4315C42.0956 34.4595 42.0956 34.9075 42.2636 34.8515C42.0956 35.5515 41.6196 36.6715 41.0876 37.1755C40.6396 37.5955 40.0796 37.8475 39.6876 38.3235C39.4076 38.4075 39.0436 38.4635 38.7916 38.6315C37.9516 38.7715 37.1116 38.7155 36.2716 38.8835ZM41.5636 20.8795L41.4236 20.7955C41.3116 20.4875 41.3396 20.1795 41.2836 19.8715C41.2276 19.6475 41.0876 19.4515 41.0036 19.2275L41.1996 19.1435C41.3116 19.1715 41.4516 19.1995 41.5916 19.1995C41.6756 19.1995 41.7596 19.1995 41.8436 19.1715L42.2356 19.5355C42.0396 19.9835 41.8436 20.4595 41.5636 20.8795ZM53.5077 38.7715V38.7995C53.1437 38.7435 52.4997 38.7435 51.8277 38.7435C50.8757 38.7435 49.9237 38.7435 49.5877 38.6315C50.2317 38.2955 50.7637 38.3795 51.1557 37.6515C51.2397 37.4835 51.2957 37.3155 51.3797 37.1755L51.7717 37.0355L51.4357 36.7835L51.4637 36.2795C51.6597 36.0835 51.7437 35.6635 51.7437 35.4115C51.7437 35.2435 51.6037 35.0755 51.6317 34.9075L51.9117 31.9115C51.9677 31.3235 52.1637 30.7635 52.1637 30.1755C52.1077 30.0075 52.1077 29.8395 52.1077 29.6715C52.1077 28.6635 51.9117 27.6275 51.9117 26.6195C51.9117 26.4515 51.9957 26.2835 52.0237 26.1155C52.1077 25.6955 52.1077 25.2755 52.1077 24.8555C52.1077 24.4915 52.0237 24.1555 52.0237 23.7915C52.0237 23.3715 52.1637 22.9795 52.2197 22.5875L52.1357 22.4195C51.9117 22.3915 51.6877 22.3915 51.4637 22.3915C51.0717 22.3915 50.6797 22.3635 50.2877 22.3635C49.8957 22.1955 49.4197 22.1955 48.9997 22.1955C48.4677 22.1955 47.9357 22.3075 47.4317 22.3075C47.2637 22.3075 47.0117 22.1395 46.8717 22.0555C46.7877 22.1955 46.6757 22.4195 46.5077 22.4755C45.7797 22.7275 44.9957 22.6435 44.2677 23.0075C44.2397 23.0075 44.2397 22.9795 44.2117 22.9795C44.0717 22.9795 43.9597 23.0915 43.8197 23.0915L43.7637 23.0635L43.7077 22.8955C43.8757 22.5875 44.3797 21.5515 44.5757 21.3555C44.7157 21.2435 44.9117 21.1035 44.8837 20.9075C45.1637 20.4315 45.4997 19.9555 45.6677 19.4235C46.1157 19.2835 46.4797 18.9755 46.8997 18.7795C46.9557 18.7795 46.9837 18.8075 47.0397 18.8075C47.1797 18.8075 47.2917 18.8075 47.4317 18.7515L47.4877 18.6955H47.5717C47.7957 18.6955 48.1597 18.7795 48.3837 18.8635L48.5517 19.3115C48.7477 19.2555 48.8317 18.9475 49.0557 18.9475C49.5037 18.9475 49.9517 19.0035 50.3997 19.0035L50.5117 19.0595C51.2397 19.0595 51.9397 19.3115 52.6677 19.3115L52.8917 19.6475C53.2277 19.5635 53.5077 19.3115 53.8437 19.3115C55.5237 19.3115 57.2037 19.5355 58.8837 19.5355C59.8077 19.5355 61.7397 19.1715 62.6357 18.9195C62.8037 18.9755 62.9717 19.0875 63.1677 19.1155L63.3357 18.8915C63.6717 18.7515 64.0077 18.6395 64.3717 18.5275L64.6517 18.5835C64.3717 19.0315 64.0637 19.6195 63.9237 20.1515C63.7277 20.4035 63.6437 20.7115 63.5597 20.9915C63.3357 21.2715 63.1117 21.5795 62.9717 21.9155C62.7197 22.1115 62.4677 22.3635 62.2437 22.5875C62.0477 22.5875 61.8797 22.5595 61.6837 22.5595C61.3757 22.5595 61.0397 22.6155 60.7317 22.6715C60.5637 22.5035 60.1437 22.5035 59.9197 22.5035C59.5557 22.5035 59.1917 22.4475 58.8277 22.4475C58.3237 22.4475 57.8477 22.6155 57.3717 22.7275L57.1757 22.5875C56.7557 22.7555 56.3077 22.8115 55.8597 22.8115C55.6357 22.8115 55.4117 22.8115 55.2157 22.7835L55.1037 22.9235L55.1597 23.0635V24.2115C55.1597 24.9955 55.1597 25.7795 55.2437 26.5075C55.2717 26.8715 55.3277 27.2075 55.3277 27.5715C55.3277 28.2155 55.1597 28.8315 55.1597 29.4755C55.1597 29.6155 55.2437 29.7555 55.3557 29.8675C55.3557 30.2035 55.2997 30.5395 55.2997 30.8755C55.2997 31.1555 55.4957 31.4355 55.4957 31.7155V32.5275C55.3557 32.6395 55.1877 32.6955 55.0757 32.8355L55.5237 33.0875C55.5517 33.1995 55.5517 33.3115 55.5517 33.3955C55.5517 33.7035 55.4957 33.9835 55.4957 34.2635C55.4957 34.5155 55.5237 34.8515 55.7477 35.0195L55.6637 35.2435L55.8317 35.2995C55.9997 35.7475 56.0557 36.1955 56.1677 36.6435C56.1117 36.8115 56.0277 36.9795 55.9157 37.1195L56.1397 37.1475C56.3637 37.5115 56.5877 37.8755 56.9237 38.1555C57.2037 38.3795 57.5677 38.4075 57.8477 38.6315C57.3997 38.6315 56.9517 38.6595 56.5037 38.6595L56.2797 38.4355L56.0837 38.6875C55.8317 38.6875 55.5797 38.6315 55.3277 38.6315C55.1317 38.6315 54.9077 38.6315 54.7117 38.7155C54.4317 38.6595 54.1517 38.6595 53.8717 38.6595C53.8717 38.7435 53.5637 38.7715 53.5077 38.7715ZM68.3948 38.7715H67.5828C67.2188 38.7715 66.9108 38.6035 66.5748 38.5195C66.2668 38.7435 66.0428 38.6315 65.7068 38.7155L65.2588 38.5475C64.9788 38.5755 64.7548 38.7155 64.4748 38.7155C64.0828 38.7155 63.7468 38.5475 63.3548 38.6035L63.1308 38.5195C62.9348 38.1835 62.7668 37.8475 62.6548 37.4835L62.7948 37.3155L62.7108 37.2315C62.7948 36.6715 63.0468 36.3355 63.3828 35.8875C64.1668 34.8515 64.7548 33.3955 65.0068 32.1355L65.2588 31.7995C65.2308 31.6875 65.2028 31.5475 65.2028 31.4355C65.2028 30.7635 66.1268 28.4955 66.5468 27.9355L66.5188 27.4595C66.6868 27.0955 66.8548 27.3195 66.8548 26.7875C66.8548 26.6755 66.8828 26.5635 66.9388 26.4515C67.6388 25.1915 68.7868 21.9155 68.8148 20.5155C68.9828 20.2915 69.2628 20.2635 69.4588 20.0675L69.7948 20.3475L70.0468 20.0675C70.7468 19.8435 70.8308 19.8435 71.2788 19.2275C71.3908 19.1715 71.4748 19.1155 71.5868 19.0315H71.8668L72.1188 19.2835C72.3148 19.2835 72.3988 19.4795 72.4268 19.6475C72.5948 20.5435 72.9028 21.3835 73.1268 22.2515C73.6028 22.6435 74.2748 25.2475 74.4148 25.9475L74.5828 26.0875C74.5828 26.4795 74.7788 26.8155 74.9468 27.1515L74.6948 27.6275L75.1428 27.7395C75.3948 29.2235 76.5988 32.8355 77.3268 34.1235C77.5228 34.4595 77.8308 34.7675 77.9708 35.1315L78.1668 35.2715C78.4468 35.7755 78.6708 36.3075 78.9228 36.8115C78.8388 36.9515 78.7548 37.0915 78.6708 37.2595H79.1188L80.4068 38.6595C80.0708 38.6315 79.7348 38.6315 79.3988 38.6315C79.2588 38.6315 79.1188 38.6035 78.9788 38.6035C78.8668 38.6035 78.7548 38.6315 78.6708 38.6595C78.4748 38.6315 78.2788 38.6035 78.0828 38.6035C77.7748 38.6035 77.4668 38.6595 77.1308 38.6595C76.9628 38.6595 76.8508 38.5755 76.6828 38.5755C76.4308 38.5755 76.1788 38.6595 75.9268 38.6595C75.5908 38.6595 75.2268 38.6315 74.8908 38.5755C74.4148 38.6875 73.9108 38.7155 73.4068 38.7155C73.1548 38.7155 72.9028 38.6875 72.6508 38.6875C73.1548 38.3515 73.3228 38.2395 73.4628 38.0995C73.6028 37.9595 73.6868 37.7355 73.9948 37.2595C74.0788 37.1195 74.1908 37.0075 74.2188 36.8395L73.9948 36.5315C73.9388 36.3075 73.9108 36.1115 73.9108 35.8875C73.9108 35.6915 73.9388 35.4675 73.9668 35.2715C73.4628 34.1235 73.0708 32.6395 72.6228 31.4355C71.5868 31.4915 69.0108 32.1075 68.1988 32.7235C67.8628 33.6755 67.6668 34.5995 67.5828 35.6075C67.4148 35.7195 67.3588 35.9155 67.2468 36.0835C67.3028 36.1955 67.3308 36.3355 67.3308 36.4755C67.3308 36.6715 67.2748 36.8675 67.2468 37.0635C67.4708 37.3715 67.4708 37.7355 67.5828 38.0715C67.8628 38.2955 68.1428 38.5195 68.3948 38.7715ZM69.0388 29.9795C70.0188 29.7835 71.1108 29.6995 72.0068 29.2515C71.9508 28.7475 71.7268 28.2715 71.7548 27.7675C71.4748 27.3755 71.1948 26.3395 71.1668 25.8635C70.9428 25.4435 70.9428 24.9395 70.7468 24.5195C70.6068 24.7715 70.4388 25.0235 70.2708 25.2475C70.0188 26.8715 69.4588 28.4115 69.0388 29.9795ZM61.9828 38.9115C61.7028 38.9115 61.4228 38.8835 61.1428 38.8555C61.5068 38.4915 61.8148 38.0995 62.0668 37.6795L62.2068 37.5955C62.2068 37.5955 62.3468 37.6515 62.4308 37.7075C62.4308 37.9875 62.6548 38.1835 62.8228 38.4075V38.6875C62.6828 38.6875 62.5148 38.7435 62.4588 38.8835C62.2908 38.8835 62.1508 38.9115 61.9828 38.9115ZM97.2056 38.8555C95.7496 38.6875 94.2656 38.7435 92.8096 38.6315C93.0896 38.4635 93.2856 38.2675 93.5096 38.0435C93.5376 37.9315 93.5376 37.8475 93.5376 37.7355C93.5376 37.3715 93.3976 37.0355 93.2576 36.6995C92.6416 36.1115 91.2696 34.1795 91.1856 33.3675C89.8416 32.9475 90.0656 29.8955 87.9656 29.0835L87.8256 29.2515C87.6576 28.9715 87.2376 28.6635 86.9296 28.5515C87.0976 28.3275 87.2096 28.0475 87.3216 27.7955C87.5736 27.7395 87.7976 27.6835 88.0496 27.6555C88.5816 27.4035 89.2256 27.4595 89.7856 27.2075C90.5696 26.8435 91.8296 25.8915 92.1376 25.0515L91.9136 24.8275C91.9696 24.5755 92.0256 24.3235 92.0256 24.0715C92.0256 23.5115 91.8016 22.9235 91.3536 22.6155C91.2136 22.5875 91.0456 22.5875 90.9056 22.5875C90.2056 22.1955 89.5896 21.7755 88.7496 21.7755C87.8536 21.7755 86.9856 21.9435 86.1176 22.0275C85.9216 22.9235 85.8936 24.1275 85.8936 25.0235C85.8936 25.2475 85.7816 25.4435 85.7816 25.6675C85.7816 26.0035 86.0056 26.2835 86.2016 26.5355C86.1456 27.4595 86.0896 28.4115 86.0896 29.3355C86.0896 29.8955 86.1456 30.4835 86.2016 31.0435C86.0616 31.1835 85.8936 31.2955 85.7256 31.4075C85.8656 31.4635 86.0056 31.4915 86.1456 31.5195C86.2576 32.1075 86.3696 32.8355 86.3696 33.4795C86.3696 33.7315 86.3416 33.9555 86.3136 34.1795L86.4816 34.3195C86.4816 35.0195 86.5656 35.7195 86.7056 36.4195C86.6216 36.5315 86.5376 36.6435 86.5096 36.7835L86.9016 36.9795C87.4056 37.7915 87.8816 38.0995 88.6376 38.6315C88.1896 38.6315 87.7136 38.6595 87.2656 38.6875L87.0696 38.4635L86.7896 38.6875C86.6216 38.6595 86.4256 38.6595 86.2576 38.6595C85.8376 38.6595 85.4176 38.6875 84.9696 38.6595H84.9136C84.7736 38.6595 84.6336 38.5755 84.5496 38.4915C84.2136 38.6315 83.8496 38.5755 83.5136 38.7155C82.6736 38.6875 81.8056 38.6595 80.9656 38.6595C81.9736 38.2395 82.1136 37.8755 82.3376 36.8395L82.5616 36.6435L82.3936 36.3075L82.4776 35.6915C82.7016 35.3835 82.7016 34.9635 82.7016 34.5995C82.7016 34.3195 82.6736 34.0395 82.5896 33.7595C82.8416 33.3955 82.8696 32.5555 82.8696 31.7155V30.4555C82.8696 30.0635 82.8696 29.7275 82.8976 29.5035C82.9536 29.1955 83.2336 29.0555 83.2336 28.7195C83.2336 28.5515 83.0656 28.3555 83.0656 28.1595C83.0656 27.3195 82.8976 26.5075 82.8976 25.6675C82.8976 25.4155 82.9816 25.1635 82.9816 24.9115C82.9816 24.0435 82.7016 23.1755 82.8136 22.3075C82.4776 22.3075 82.0856 22.5035 81.7776 22.6435C81.6096 22.6155 81.4416 22.5875 81.2736 22.5875C80.9376 22.5875 80.6016 22.7555 80.2656 22.7555C80.3776 22.5315 80.8536 21.8035 80.7696 21.5795C81.3576 20.6835 82.0296 19.8435 82.6176 18.9475C82.9816 19.0595 83.3176 19.1435 83.6536 19.3115H83.9616L84.1016 19.4235C84.8296 19.3115 85.5296 19.3395 86.2576 19.3395C86.7336 19.3395 87.1816 19.1995 87.6576 19.1995C88.2736 19.1995 91.2416 19.3395 91.6336 19.4515C91.8016 19.5075 91.7736 19.6475 91.9136 19.7315L92.1936 19.3955C93.8736 19.7035 96.2256 20.9635 96.2256 22.9795C96.2256 23.9875 95.7216 25.2195 95.0496 25.9755C94.5176 26.5635 94.0976 26.9835 93.4816 27.4875L93.6496 27.5995C93.3976 27.9635 92.5296 28.6355 92.1096 28.7475C91.9136 28.8035 91.7176 28.8315 91.5216 28.9155C92.1376 29.3635 93.2856 31.2675 93.5096 31.4075C94.2096 32.6115 94.9656 33.7595 95.8616 34.8235C95.8056 34.9635 95.7776 35.1035 95.7496 35.2435C95.8896 35.2155 96.0296 35.2155 96.1696 35.2155C96.5616 35.6915 96.9816 36.1395 97.5136 36.4755L97.5976 36.6715C98.0176 36.7835 98.2136 37.2315 98.5496 37.4835C98.5216 37.6235 98.5216 37.7915 98.4376 37.9315L98.8016 37.8195C99.2496 38.1275 99.7256 38.3795 100.202 38.6035C99.7816 38.7155 99.3616 38.7715 98.9416 38.7715C98.6896 38.7715 98.4376 38.6875 98.1856 38.6875C98.0736 38.6875 97.9896 38.7155 97.8776 38.7435C97.7656 38.7155 97.6256 38.6875 97.5136 38.6875C97.4296 38.6875 97.1496 38.7155 97.2056 38.8555ZM110.407 38.7715V38.7995C110.043 38.7435 109.399 38.7435 108.727 38.7435C107.775 38.7435 106.823 38.7435 106.487 38.6315C107.131 38.2955 107.663 38.3795 108.055 37.6515C108.139 37.4835 108.195 37.3155 108.279 37.1755L108.671 37.0355L108.335 36.7835L108.363 36.2795C108.559 36.0835 108.643 35.6635 108.643 35.4115C108.643 35.2435 108.503 35.0755 108.531 34.9075L108.811 31.9115C108.867 31.3235 109.063 30.7635 109.063 30.1755C109.007 30.0075 109.007 29.8395 109.007 29.6715C109.007 28.6635 108.811 27.6275 108.811 26.6195C108.811 26.4515 108.895 26.2835 108.923 26.1155C109.007 25.6955 109.007 25.2755 109.007 24.8555C109.007 24.4915 108.923 24.1555 108.923 23.7915C108.923 23.3715 109.063 22.9795 109.119 22.5875L109.035 22.4195C108.811 22.3915 108.587 22.3915 108.363 22.3915C107.971 22.3915 107.579 22.3635 107.187 22.3635C106.795 22.1955 106.319 22.1955 105.899 22.1955C105.367 22.1955 104.835 22.3075 104.331 22.3075C104.163 22.3075 103.911 22.1395 103.771 22.0555C103.687 22.1955 103.575 22.4195 103.407 22.4755C102.679 22.7275 101.895 22.6435 101.167 23.0075C101.139 23.0075 101.139 22.9795 101.111 22.9795C100.971 22.9795 100.859 23.0915 100.719 23.0915L100.663 23.0635L100.607 22.8955C100.775 22.5875 101.279 21.5515 101.475 21.3555C101.615 21.2435 101.811 21.1035 101.783 20.9075C102.063 20.4315 102.399 19.9555 102.567 19.4235C103.015 19.2835 103.379 18.9755 103.799 18.7795C103.855 18.7795 103.883 18.8075 103.939 18.8075C104.079 18.8075 104.191 18.8075 104.331 18.7515L104.387 18.6955H104.471C104.695 18.6955 105.059 18.7795 105.283 18.8635L105.451 19.3115C105.647 19.2555 105.731 18.9475 105.955 18.9475C106.403 18.9475 106.851 19.0035 107.299 19.0035L107.411 19.0595C108.139 19.0595 108.839 19.3115 109.567 19.3115L109.791 19.6475C110.127 19.5635 110.407 19.3115 110.743 19.3115C112.423 19.3115 114.103 19.5355 115.783 19.5355C116.707 19.5355 118.639 19.1715 119.535 18.9195C119.703 18.9755 119.871 19.0875 120.067 19.1155L120.235 18.8915C120.571 18.7515 120.907 18.6395 121.271 18.5275L121.551 18.5835C121.271 19.0315 120.963 19.6195 120.823 20.1515C120.627 20.4035 120.543 20.7115 120.459 20.9915C120.235 21.2715 120.011 21.5795 119.871 21.9155C119.619 22.1115 119.367 22.3635 119.143 22.5875C118.947 22.5875 118.779 22.5595 118.583 22.5595C118.275 22.5595 117.939 22.6155 117.631 22.6715C117.463 22.5035 117.043 22.5035 116.819 22.5035C116.455 22.5035 116.091 22.4475 115.727 22.4475C115.223 22.4475 114.747 22.6155 114.271 22.7275L114.075 22.5875C113.655 22.7555 113.207 22.8115 112.759 22.8115C112.535 22.8115 112.311 22.8115 112.115 22.7835L112.003 22.9235L112.059 23.0635V24.2115C112.059 24.9955 112.059 25.7795 112.143 26.5075C112.171 26.8715 112.227 27.2075 112.227 27.5715C112.227 28.2155 112.059 28.8315 112.059 29.4755C112.059 29.6155 112.143 29.7555 112.255 29.8675C112.255 30.2035 112.199 30.5395 112.199 30.8755C112.199 31.1555 112.395 31.4355 112.395 31.7155V32.5275C112.255 32.6395 112.087 32.6955 111.975 32.8355L112.423 33.0875C112.451 33.1995 112.451 33.3115 112.451 33.3955C112.451 33.7035 112.395 33.9835 112.395 34.2635C112.395 34.5155 112.423 34.8515 112.647 35.0195L112.563 35.2435L112.731 35.2995C112.899 35.7475 112.955 36.1955 113.067 36.6435C113.011 36.8115 112.927 36.9795 112.815 37.1195L113.039 37.1475C113.263 37.5115 113.487 37.8755 113.823 38.1555C114.103 38.3795 114.467 38.4075 114.747 38.6315C114.299 38.6315 113.851 38.6595 113.403 38.6595L113.179 38.4355L112.983 38.6875C112.731 38.6875 112.479 38.6315 112.227 38.6315C112.031 38.6315 111.807 38.6315 111.611 38.7155C111.331 38.6595 111.051 38.6595 110.771 38.6595C110.771 38.7435 110.463 38.7715 110.407 38.7715Z" fill="white"/>
</svg>
