<svg width="201" height="216" viewBox="0 0 201 216" fill="none" xmlns="http://www.w3.org/2000/svg">
<g filter="url(#filter0_d_835_1670)">
<mask id="path-1-inside-1_835_1670" fill="white">
<path fill-rule="evenodd" clip-rule="evenodd" d="M175.585 5.08279L182.642 22.0454V202.481C182.642 207.026 178.958 210.709 174.413 210.709H143.912L136.091 192.416L128.281 210.684L121.937 195.435L115.582 210.709H37.6826L30.9703 195.661L25.023 208.994L18.0742 192.628V13.2284C18.0742 8.68398 21.7582 5 26.3026 5H45.0712L52.1235 21.9521L59.1758 5H60.4064L65.6508 17.0547L70.8953 5H162.273L167.202 16.1698L172.131 5H174.413C174.811 5 175.202 5.02823 175.585 5.08279Z"/>
</mask>
<path fill-rule="evenodd" clip-rule="evenodd" d="M175.585 5.08279L182.642 22.0454V202.481C182.642 207.026 178.958 210.709 174.413 210.709H143.912L136.091 192.416L128.281 210.684L121.937 195.435L115.582 210.709H37.6826L30.9703 195.661L25.023 208.994L18.0742 192.628V13.2284C18.0742 8.68398 21.7582 5 26.3026 5H45.0712L52.1235 21.9521L59.1758 5H60.4064L65.6508 17.0547L70.8953 5H162.273L167.202 16.1698L172.131 5H174.413C174.811 5 175.202 5.02823 175.585 5.08279Z" fill="url(#paint0_linear_835_1670)"/>
<path d="M175.585 5.08279L177.864 4.13463L177.325 2.8373L175.934 2.63899L175.585 5.08279ZM182.642 22.0454H185.11V21.5524L184.921 21.0973L182.642 22.0454ZM143.912 210.709L141.643 211.68L142.283 213.178H143.912V210.709ZM136.091 192.416L138.361 191.446L136.091 186.137L133.822 191.446L136.091 192.416ZM128.281 210.684L126.002 211.632L128.25 217.036L130.551 211.655L128.281 210.684ZM121.937 195.435L124.216 194.486L121.937 189.008L119.658 194.486L121.937 195.435ZM115.582 210.709V213.178H117.229L117.862 211.658L115.582 210.709ZM37.6826 210.709L35.4282 211.715L36.0807 213.178H37.6826V210.709ZM30.9703 195.661L33.2247 194.656L30.9703 189.601L28.7158 194.656L30.9703 195.661ZM25.023 208.994L22.7508 209.959L24.9672 215.179L27.2774 210L25.023 208.994ZM18.0742 192.628H15.6057V193.131L15.802 193.593L18.0742 192.628ZM45.0712 5L47.3503 4.05184L46.7178 2.53149H45.0712V5ZM52.1235 21.9521L49.8443 22.9003L52.1235 28.3789L54.4027 22.9003L52.1235 21.9521ZM59.1758 5V2.53149H57.5292L56.8967 4.05184L59.1758 5ZM60.4064 5L62.6699 4.01522L62.0244 2.53149H60.4064V5ZM65.6508 17.0547L63.3873 18.0395L65.6508 23.2424L67.9144 18.0395L65.6508 17.0547ZM70.8953 5V2.53149H69.2772L68.6317 4.01522L70.8953 5ZM162.273 5L164.531 4.00343L163.882 2.53149H162.273V5ZM167.202 16.1698L164.943 17.1664L167.202 22.2843L169.46 17.1664L167.202 16.1698ZM172.131 5V2.53149H170.522L169.872 4.00343L172.131 5ZM173.306 6.03095L180.363 22.9936L184.921 21.0973L177.864 4.13463L173.306 6.03095ZM180.173 22.0454V202.481H185.11V22.0454H180.173ZM180.173 202.481C180.173 205.662 177.594 208.241 174.413 208.241V213.178C180.321 213.178 185.11 208.389 185.11 202.481H180.173ZM174.413 208.241H143.912V213.178H174.413V208.241ZM146.182 209.739L138.361 191.446L133.822 193.386L141.643 211.68L146.182 209.739ZM133.822 191.446L126.011 209.714L130.551 211.655L138.361 193.386L133.822 191.446ZM130.56 209.736L124.216 194.486L119.658 196.383L126.002 211.632L130.56 209.736ZM119.658 194.486L113.303 209.761L117.862 211.658L124.216 196.383L119.658 194.486ZM115.582 208.241H37.6826V213.178H115.582V208.241ZM39.937 209.704L33.2247 194.656L28.7158 196.667L35.4282 211.715L39.937 209.704ZM28.7158 194.656L22.7686 207.989L27.2774 210L33.2247 196.667L28.7158 194.656ZM27.2952 208.03L20.3464 191.664L15.802 193.593L22.7508 209.959L27.2952 208.03ZM20.5427 192.628V13.2284H15.6057V192.628H20.5427ZM20.5427 13.2284C20.5427 10.0473 23.1215 7.46851 26.3026 7.46851V2.53149C20.3949 2.53149 15.6057 7.32065 15.6057 13.2284H20.5427ZM26.3026 7.46851H45.0712V2.53149H26.3026V7.46851ZM42.792 5.94816L49.8443 22.9003L54.4027 21.004L47.3503 4.05184L42.792 5.94816ZM54.4027 22.9003L61.455 5.94816L56.8967 4.05184L49.8443 21.004L54.4027 22.9003ZM59.1758 7.46851H60.4064V2.53149H59.1758V7.46851ZM58.1428 5.98478L63.3873 18.0395L67.9144 16.0699L62.6699 4.01522L58.1428 5.98478ZM67.9144 18.0395L73.1589 5.98478L68.6317 4.01522L63.3873 16.0699L67.9144 18.0395ZM70.8953 7.46851H162.273V2.53149H70.8953V7.46851ZM160.015 5.99657L164.943 17.1664L169.46 15.1732L164.531 4.00343L160.015 5.99657ZM169.46 17.1664L174.389 5.99657L169.872 4.00343L164.943 15.1732L169.46 17.1664ZM172.131 7.46851H174.413V2.53149H172.131V7.46851ZM174.413 7.46851C174.694 7.46851 174.969 7.48843 175.237 7.52659L175.934 2.63899C175.436 2.56802 174.928 2.53149 174.413 2.53149V7.46851Z" fill="url(#paint1_linear_835_1670)" mask="url(#path-1-inside-1_835_1670)"/>
<g clip-path="url(#clip0_835_1670)">
<path d="M135.875 136.46C135.471 136.65 135.298 137.132 135.488 137.536C135.678 137.94 136.16 138.113 136.564 137.922L135.875 136.46ZM101.327 69.5248L100.76 70.1017L101.327 70.6579L101.893 70.1017L101.327 69.5248ZM46.3468 178.404L47.1055 178.683L47.1122 178.665L47.118 178.646L46.3468 178.404ZM45.1584 185.904L44.3514 185.953L45.1584 185.904ZM48.9416 171.268L49.6913 171.571L48.9416 171.268ZM45.1831 183.744L45.9893 183.807L45.1831 183.744ZM121.891 148.657L122.675 148.46L122.663 148.412L122.645 148.366L121.891 148.657ZM149.785 184.384L148.992 184.54L148.996 184.559L149 184.578L149.785 184.384ZM143.671 198.752L143.771 199.554L143.671 198.752ZM132.455 189.82L131.677 190.04L131.68 190.049L132.455 189.82ZM150.137 191.969L150.934 192.107L150.137 191.969ZM130.316 182.248L129.532 182.445L129.535 182.456L129.538 182.468L130.316 182.248ZM147.996 177.005L148.774 176.787L147.996 177.005ZM150.351 189.82L149.543 189.793L150.351 189.82ZM141.387 198.809L141.318 199.614L141.387 198.809ZM136.742 196.864L136.209 197.472L136.742 196.864ZM78.7983 167.749L79.3922 167.201L79.3922 167.201L78.7983 167.749ZM120.63 145.385L120.229 144.683L120.199 144.7L120.171 144.719L120.63 145.385ZM80.4006 168.068L80.0977 167.318H80.0976L80.4006 168.068ZM71.5352 144.98L72.3385 144.888L71.5352 144.98ZM169.244 132.852L169.696 133.522L170.573 132.93L169.771 132.24L169.244 132.852ZM134.646 142.15L133.844 142.254L133.86 142.373L133.909 142.482L134.646 142.15ZM143.981 164.79L143.222 165.068L143.981 164.79ZM160.754 127.399L160.447 128.147L160.754 127.399ZM151.456 202.267L152.235 202.049L152.225 202.013L152.211 201.978L151.456 202.267ZM140.541 222.478L139.93 221.948L139.776 222.126L139.741 222.358L140.541 222.478ZM99.3051 225.229L99.2846 226.038L99.3051 225.229ZM92.8367 224.983L92.8778 224.175L92.2576 224.144L92.0672 224.735L92.8367 224.983ZM54.0267 220.172L54.8005 219.938L54.7498 219.77L54.6344 219.639L54.0267 220.172ZM80.7086 262.623L80.9307 263.401L81.3458 263.282L81.4782 262.871L80.7086 262.623ZM117.901 263.432L117.165 263.766L117.292 264.046L117.573 264.171L117.901 263.432ZM104.965 225.308L105.734 225.059L105.553 224.501L104.967 224.499L104.965 225.308ZM45.1584 210.068L44.3929 209.808L44.2426 210.25L44.5508 210.601L45.1584 210.068ZM153.073 208.047L153.684 208.577L153.969 208.248L153.852 207.829L153.073 208.047ZM77.8788 48.3596L78.1536 49.12L79.5616 48.6111L78.3639 47.7128L77.8788 48.3596ZM71.8147 39.0614L72.3496 38.4551L70.5101 36.8319L71.0241 39.2308L71.8147 39.0614ZM90.4112 47.5511L90.2473 48.3428L90.7945 46.8392L90.4112 47.5511ZM88.3898 21.6777L89.1812 21.5121L88.6494 18.9715L87.6443 21.3646L88.3898 21.6777ZM111.838 46.3382L111.568 47.1007L111.604 47.1134L111.641 47.1226L111.838 46.3382ZM63.9638 262.145L64.5009 262.749H64.5009L63.9638 262.145ZM64.451 263.54L64.4129 264.347L64.451 263.54ZM136.368 261.472L135.842 262.086L136.368 261.472ZM135.961 262.872L136.07 263.673L135.961 262.872ZM65.3816 260.885L64.8444 260.281H64.8444L65.3816 260.885ZM65.8548 259.207L66.6286 258.973L65.8548 259.207ZM135.014 259.312L134.214 259.192L135.014 259.312ZM135.56 260.78L136.087 260.166L135.56 260.78ZM165.605 96.8722L164.807 96.9995L165.605 96.8722ZM123.157 49.1682L123.432 48.4078L123.393 48.3938L123.353 48.3838L123.157 49.1682ZM32.6005 69.7859L33.131 69.1758L33.109 69.1566L33.0856 69.1391L32.6005 69.7859ZM3.89731 94.8507L3.1666 94.5046L3.15039 94.5388L3.13745 94.5744L3.89731 94.8507ZM33.0048 127.192L33.4685 127.855L33.4851 127.843L33.5012 127.831L33.0048 127.192ZM40.1345 120.32L40.8016 119.863L40.1345 120.32ZM21.6852 88.7867L22.0341 89.5161L21.6852 88.7867ZM27.0161 102.374C27.3756 102.109 27.4523 101.603 27.1874 101.244C26.9225 100.884 26.4163 100.808 26.0568 101.072L27.0161 102.374ZM168.031 69.6447L167.546 68.9978L167.521 69.0165L167.498 69.0371L168.031 69.6447ZM177.33 69.6447L177.668 68.9106L177.33 69.6447ZM196.735 94.7095L197.494 94.4331L197.482 94.3976L197.465 94.3633L196.735 94.7095ZM167.627 127.051L167.131 127.689L167.147 127.702L167.163 127.713L167.627 127.051ZM178.947 88.6454L178.598 89.3748L178.947 88.6454ZM174.575 100.931C174.216 100.666 173.709 100.743 173.445 101.102C173.18 101.462 173.256 101.968 173.616 102.233L174.575 100.931ZM180.149 71.8073L179.591 72.3921L180.149 71.8073ZM236.353 31.3802L236.033 32.1229L236.353 31.3802ZM235.544 82.7226L235.612 81.9169L235.578 81.9141H235.544V82.7226ZM234.332 42.6998L234.678 41.9691L234.635 41.949L234.591 41.9339L234.332 42.6998ZM242.417 68.8361L243.053 69.3351L242.417 68.8361ZM227.055 58.4664L226.253 58.3595L226.252 58.3719L227.055 58.4664ZM71.8147 60.892L72.0704 61.659L72.0797 61.6559L72.0889 61.6526L71.8147 60.892ZM136.564 137.922C145.262 133.822 161.244 119.3 156.29 95.6367L154.707 95.968C159.456 118.65 144.156 132.556 135.875 136.46L136.564 137.922ZM156.29 95.6367C153.828 83.8734 148.079 75.3134 142.326 69.5414C136.6 63.7951 130.816 60.7605 128.205 60.1076L127.812 61.6764C130.052 62.2363 135.588 65.0704 141.181 70.6828C146.748 76.2695 152.319 84.5584 154.707 95.968L156.29 95.6367ZM128.205 60.1076C125.724 59.4873 121.834 58.7604 117.063 59.6722C112.284 60.5854 106.685 63.1298 100.76 68.9479L101.893 70.1017C107.611 64.4872 112.928 62.1088 117.366 61.2605C121.812 60.4109 125.442 61.0838 127.812 61.6764L128.205 60.1076ZM44.3514 185.953C44.4582 187.714 44.89 189.491 45.8828 190.973C46.8884 192.474 48.4331 193.618 50.6462 194.146L51.0219 192.574C49.1878 192.136 47.9961 191.222 47.2263 190.073C46.4437 188.905 46.0613 187.436 45.9655 185.855L44.3514 185.953ZM47.118 178.646C47.8148 176.434 48.689 174.053 49.6913 171.571L48.1919 170.966C47.1781 173.476 46.2882 175.898 45.5756 178.161L47.118 178.646ZM49.6913 171.571C55.1876 157.962 63.0554 144.844 67.6535 137.316L66.2735 136.473C61.674 144.003 53.7429 157.221 48.1919 170.966L49.6913 171.571ZM45.5881 178.124C45.0467 179.594 44.5386 181.591 44.377 183.682L45.9893 183.807C46.138 181.883 46.6088 180.032 47.1055 178.683L45.5881 178.124ZM44.377 183.682C44.3192 184.43 44.3053 185.193 44.3514 185.953L45.9655 185.855C45.9246 185.179 45.9364 184.491 45.9893 183.807L44.377 183.682ZM133.233 189.601L131.094 182.028L129.538 182.468L131.677 190.04L133.233 189.601ZM150.579 184.228C150.121 181.9 149.504 179.394 148.774 176.787L147.217 177.223C147.939 179.801 148.544 182.264 148.992 184.54L150.579 184.228ZM130.42 183.05C132.688 182.755 136.294 182.138 139.768 181.239C141.506 180.79 143.223 180.268 144.73 179.674C146.225 179.086 147.566 178.408 148.51 177.629L147.481 176.382C146.731 177 145.575 177.604 144.138 178.17C142.712 178.731 141.062 179.235 139.363 179.674C135.965 180.552 132.426 181.158 130.212 181.446L130.42 183.05ZM149 184.578C149.345 185.973 149.608 187.865 149.543 189.793L151.159 189.848C151.23 187.752 150.946 185.711 150.57 184.19L149 184.578ZM149.543 189.793C149.52 190.479 149.456 191.165 149.34 191.831L150.934 192.107C151.063 191.358 151.134 190.597 151.159 189.848L149.543 189.793ZM143.572 197.95C142.801 198.046 142.098 198.058 141.456 198.003L141.318 199.614C142.081 199.679 142.897 199.663 143.771 199.554L143.572 197.95ZM141.456 198.003C139.681 197.852 138.331 197.182 137.276 196.256L136.209 197.472C137.508 198.611 139.179 199.432 141.318 199.614L141.456 198.003ZM137.276 196.256C135.18 194.418 133.809 191.55 133.231 189.591L131.68 190.049C132.308 192.178 133.803 195.361 136.209 197.472L137.276 196.256ZM120.171 144.719C109.015 152.422 92.5323 162.293 80.0977 167.318L80.7036 168.818C93.296 163.728 109.89 153.783 121.089 146.05L120.171 144.719ZM78.2044 168.298C78.8703 169.019 79.878 169.151 80.7036 168.818L80.0976 167.318C79.8091 167.435 79.5418 167.363 79.3922 167.201L78.2044 168.298ZM122.645 148.366L121.384 145.094L119.875 145.675L121.136 148.948L122.645 148.366ZM79.3922 167.201C77.5808 165.24 76.0571 161.873 74.8604 157.824C73.6715 153.802 72.8342 149.208 72.3385 144.888L70.7319 145.073C71.2352 149.459 72.0877 154.148 73.3097 158.283C74.5239 162.391 76.1323 166.055 78.2044 168.298L79.3922 167.201ZM72.3385 144.888C71.9003 141.069 71.738 140.583 71.8144 137.865L70.198 137.819C70.1174 140.683 70.3008 141.315 70.7319 145.073L72.3385 144.888ZM51.5774 193.678L72.2786 145.298L70.7919 144.662L50.0907 193.042L51.5774 193.678ZM144.74 164.511C141.709 156.254 138.142 147.949 135.384 141.819L133.909 142.482C136.659 148.595 140.21 156.861 143.222 165.068L144.74 164.511ZM141.137 144.287C139.064 143.779 137.051 142.862 135.114 141.491L134.179 142.81C136.274 144.294 138.472 145.299 140.752 145.858L141.137 144.287ZM144.698 165.164C145.857 162.946 147.085 159.277 147.015 155.412C146.945 151.518 145.551 147.384 141.416 144.416L140.473 145.729C144.1 148.333 145.335 151.932 145.399 155.441C145.462 158.979 144.327 162.382 143.265 164.415L144.698 165.164ZM148.774 176.787C148.215 174.79 147.573 172.714 146.872 170.599L145.337 171.108C146.031 173.203 146.666 175.254 147.217 177.223L148.774 176.787ZM146.872 170.599C146.208 168.594 145.49 166.554 144.74 164.511L143.222 165.068C143.967 167.097 144.679 169.122 145.337 171.108L146.872 170.599ZM168.791 132.182C162.596 136.368 158.255 139.408 154.649 141.447L155.444 142.854C159.125 140.774 163.549 137.676 169.696 133.522L168.791 132.182ZM154.649 141.447C152.093 142.891 149.954 143.804 147.84 144.256C145.735 144.707 143.613 144.71 141.081 144.276L140.808 145.87C143.501 146.331 145.836 146.339 148.179 145.838C150.513 145.338 152.812 144.342 155.444 142.854L154.649 141.447ZM146.886 171.059C147.895 167.225 149.553 161.191 151.245 155.552C152.946 149.88 154.656 144.703 155.767 142.517L154.326 141.784C153.135 144.126 151.384 149.459 149.696 155.087C147.997 160.748 146.335 166.801 145.323 170.648L146.886 171.059ZM160.447 128.147C162.824 129.123 165.586 130.769 168.716 133.465L169.771 132.24C166.531 129.45 163.624 127.704 161.061 126.651L160.447 128.147ZM149.34 191.831C149.132 193.031 148.763 194.151 148.188 195.093L149.569 195.935C150.276 194.775 150.701 193.449 150.934 192.107L149.34 191.831ZM148.188 195.093C147.29 196.567 145.859 197.666 143.572 197.95L143.771 199.554C146.561 199.208 148.421 197.818 149.569 195.935L148.188 195.093ZM148.123 195.803L150.701 202.555L152.211 201.978L149.634 195.226L148.123 195.803ZM150.651 200.289C150.626 200.557 150.595 200.977 150.587 201.375C150.582 201.574 150.583 201.779 150.594 201.962C150.603 202.117 150.623 202.353 150.701 202.555L152.211 201.978C152.231 202.03 152.217 202.016 152.208 201.866C152.2 201.744 152.199 201.587 152.203 201.412C152.211 201.062 152.238 200.682 152.261 200.441L150.651 200.289ZM139.741 222.358L134.214 259.192L135.813 259.432L141.34 222.598L139.741 222.358ZM135.034 261.394L135.842 262.086L136.894 260.858L136.087 260.166L135.034 261.394ZM99.3255 224.421C97.2184 224.368 95.0687 224.287 92.8778 224.175L92.7957 225.79C95.0004 225.902 97.1639 225.984 99.2846 226.038L99.3255 224.421ZM64.5009 262.749L65.9187 261.489L64.8444 260.281L63.4266 261.541L64.5009 262.749ZM66.6286 258.973L54.8005 219.938L53.2529 220.407L65.081 259.442L66.6286 258.973ZM92.0672 224.735L79.939 262.375L81.4782 262.871L93.6063 225.231L92.0672 224.735ZM80.4865 261.846C78.8423 262.315 73.345 263.15 64.489 262.732L64.4129 264.347C73.358 264.769 79.0506 263.938 80.9307 263.401L80.4865 261.846ZM135.853 262.071C132.957 262.464 129.121 262.892 125.691 263.078C123.975 263.171 122.374 263.202 121.051 263.14C119.694 263.076 118.735 262.917 118.23 262.693L117.573 264.171C118.38 264.529 119.609 264.691 120.975 264.755C122.375 264.821 124.035 264.787 125.778 264.692C129.267 264.504 133.149 264.069 136.07 263.673L135.853 262.071ZM104.967 224.499C103.122 224.495 101.242 224.47 99.3255 224.421L99.2846 226.038C101.213 226.086 103.106 226.112 104.963 226.116L104.967 224.499ZM118.638 263.097C117.851 261.367 115.544 254.698 112.958 246.988C110.382 239.308 107.553 230.67 105.734 225.059L104.196 225.557C106.015 231.172 108.846 239.816 111.425 247.502C113.993 255.159 116.335 261.939 117.165 263.766L118.638 263.097ZM54.6344 219.639L45.7661 209.535L44.5508 210.601L53.4191 220.706L54.6344 219.639ZM45.924 210.328L51.5996 193.62L50.0684 193.1L44.3929 209.808L45.924 210.328ZM141.151 223.008L153.684 208.577L152.463 207.516L139.93 221.948L141.151 223.008ZM153.852 207.829L152.235 202.049L150.677 202.484L152.294 208.264L153.852 207.829ZM78.3639 47.7128C76.8333 46.5648 73.5195 43.1583 72.6053 38.892L71.0241 39.2308C72.0504 44.0201 75.6901 47.7288 77.3936 49.0064L78.3639 47.7128ZM71.2798 39.6676C74.1256 42.1787 77.8917 44.1401 81.4042 45.571C84.9237 47.0048 88.2456 47.9287 90.2473 48.3428L90.575 46.7593C88.6688 46.3649 85.4415 45.4696 82.0143 44.0734C78.5801 42.6744 75.0018 40.7953 72.3496 38.4551L71.2798 39.6676ZM90.7945 46.8392C87.8067 45.2303 82.4294 37.9572 89.1353 21.9908L87.6443 21.3646C80.7667 37.7399 86.0083 46.0986 90.0278 48.263L90.7945 46.8392ZM87.5984 21.8434C89.1057 29.0451 93.9712 34.9508 98.9606 39.2304C103.951 43.5105 109.17 46.2544 111.568 47.1007L112.107 45.5758C109.923 44.805 104.874 42.1721 100.013 38.003C95.1521 33.8333 90.5846 28.2173 89.1812 21.5121L87.5984 21.8434ZM63.4266 261.541C62.3577 262.491 62.9586 264.279 64.4129 264.347L64.489 262.732C64.4815 262.732 64.4808 262.731 64.4845 262.732C64.488 262.733 64.4921 262.736 64.4956 262.738C64.4989 262.741 64.5005 262.743 64.501 262.744C64.5014 262.744 64.501 262.744 64.5006 262.743C64.5002 262.741 64.5001 262.741 64.5001 262.741C64.5001 262.741 64.5002 262.742 64.4995 262.745C64.4987 262.749 64.4974 262.752 64.496 262.754C64.4945 262.757 64.495 262.755 64.5009 262.749L63.4266 261.541ZM135.842 262.086C135.847 262.09 135.848 262.092 135.846 262.09C135.845 262.089 135.844 262.086 135.843 262.083C135.842 262.079 135.843 262.079 135.842 262.082C135.842 262.085 135.841 262.082 135.847 262.077C135.85 262.074 135.853 262.072 135.856 262.071C135.86 262.069 135.859 262.07 135.853 262.071L136.07 263.673C137.462 263.485 137.939 261.754 136.894 260.858L135.842 262.086ZM65.9187 261.489C66.6259 260.861 66.903 259.878 66.6286 258.973L65.081 259.442C65.1725 259.744 65.0801 260.071 64.8444 260.281L65.9187 261.489ZM134.214 259.192C134.09 260.018 134.4 260.85 135.034 261.394L136.087 260.166C135.875 259.985 135.772 259.708 135.813 259.432L134.214 259.192ZM166.404 96.7449C164.058 82.0297 156.119 70.9584 147.386 63.0721C138.659 55.1913 129.106 50.4586 123.432 48.4078L122.882 49.9286C128.393 51.9205 137.755 56.5544 146.302 64.2723C154.842 71.9846 162.534 82.7439 164.807 96.9995L166.404 96.7449ZM131.1 182.051L122.675 148.46L121.107 148.853L129.532 182.445L131.1 182.051ZM111.641 47.1226L122.961 49.9526L123.353 48.3838L112.034 45.5538L111.641 47.1226ZM66.7557 137.676C77.4926 140.53 105.952 144.672 134.245 138.493L133.9 136.914C105.918 143.025 77.726 138.919 67.1712 136.113L66.7557 137.676ZM134.245 138.493C141.124 136.991 150.515 133.608 157.482 126.845L156.355 125.685C149.692 132.153 140.632 135.443 133.9 136.914L134.245 138.493ZM157.482 126.845C164.212 120.312 168.624 110.673 166.404 96.7449L164.807 96.9995C166.943 110.401 162.713 119.514 156.355 125.685L157.482 126.845ZM156.778 127.062C157.88 127.256 159.104 127.595 160.447 128.147L161.061 126.651C159.613 126.056 158.278 125.684 157.059 125.469L156.778 127.062ZM121.031 146.087L134.473 138.406L133.671 137.001L120.229 144.683L121.031 146.087ZM135.448 142.047L134.874 137.6L133.27 137.807L133.844 142.254L135.448 142.047ZM36.2288 96.1908C37.3033 89.4506 39.5883 83.4956 42.5993 78.2753L41.1986 77.4674C38.097 82.8446 35.7399 88.9858 34.6319 95.9362L36.2288 96.1908ZM42.5993 78.2753C52.3462 61.3771 69.7083 52.1725 78.1536 49.12L77.6039 47.5992C68.9652 50.7216 51.2086 60.1128 41.1986 77.4674L42.5993 78.2753ZM42.4295 77.2612L33.131 69.1758L32.07 70.3961L41.3684 78.4815L42.4295 77.2612ZM33.0856 69.1391C32.3806 68.6103 30.9399 68.098 29.1923 67.9494C27.4096 67.7979 25.2111 68.0145 22.9635 69.0518L23.6411 70.5201C25.598 69.6169 27.5094 69.4293 29.0553 69.5607C30.6361 69.6951 31.7423 70.153 32.1154 70.4328L33.0856 69.1391ZM22.9635 69.0518C22.3363 69.3413 21.6287 69.8521 20.8839 70.4916C20.1295 71.1393 19.2975 71.9535 18.4194 72.8867C16.6627 74.7536 14.6914 77.1288 12.7452 79.6745C8.8611 84.7554 5.02153 90.5887 3.1666 94.5046L4.62802 95.1968C6.41156 91.4316 10.1723 85.7028 14.0299 80.6566C15.9546 78.1389 17.8897 75.8094 19.597 73.9949C20.451 73.0874 21.2404 72.3168 21.9373 71.7185C22.6438 71.112 23.2172 70.7157 23.6411 70.5201L22.9635 69.0518ZM3.13745 94.5744C2.30295 96.8692 1.98598 98.6917 2.16251 100.556C2.3369 102.398 2.98825 104.215 3.96265 106.489L5.44898 105.852C4.48288 103.598 3.92141 101.978 3.7724 100.404C3.62552 98.8525 3.87455 97.2792 4.65717 95.127L3.13745 94.5744ZM3.96265 106.489C4.48557 107.709 5.56968 109.429 6.97234 111.345C8.38543 113.276 10.1553 115.452 12.0845 117.594C15.9184 121.851 20.471 126.074 24.1535 127.916L24.8767 126.469C21.4848 124.773 17.103 120.75 13.286 116.512C11.3898 114.406 9.65501 112.273 8.2773 110.39C6.88918 108.493 5.89631 106.896 5.44898 105.852L3.96265 106.489ZM24.1535 127.916C24.8736 128.276 26.1428 129.073 27.7082 129.353C29.3429 129.645 31.2778 129.388 33.4685 127.855L32.5411 126.53C30.6891 127.826 29.1877 127.974 27.9925 127.761C26.728 127.535 25.7737 126.918 24.8767 126.469L24.1535 127.916ZM67.1472 136.107C59.5899 134.344 47.5772 129.753 40.8016 119.863L39.4675 120.777C46.5872 131.169 59.0888 135.888 66.7797 137.682L67.1472 136.107ZM40.8016 119.863C36.8196 114.05 34.6084 106.355 36.2288 96.1908L34.6319 95.9362C32.9494 106.49 35.2408 114.607 39.4675 120.777L40.8016 119.863ZM33.5012 127.831C37.1895 124.962 39.7023 122.218 40.7771 120.81L39.4919 119.829C38.5088 121.117 36.097 123.763 32.5084 126.554L33.5012 127.831ZM36.1863 95.7768C35.4103 93.7308 33.759 90.8775 31.2826 88.9833C28.7549 87.0499 25.3673 86.1294 21.3364 88.0573L22.0341 89.5161C25.4417 87.8863 28.1855 88.6503 30.3001 90.2677C32.466 91.9244 33.9681 94.4883 34.6743 96.3503L36.1863 95.7768ZM21.3364 88.0573C16.2181 90.5051 15.4533 95.6616 16.9976 99.3568C17.7682 101.201 19.1444 102.771 20.937 103.468C22.7701 104.182 24.9034 103.931 27.0161 102.374L26.0568 101.072C24.329 102.346 22.7732 102.448 21.5238 101.962C20.2338 101.459 19.1339 100.275 18.4896 98.7333C17.204 95.657 17.8541 91.5152 22.0341 89.5161L21.3364 88.0573ZM159.195 78.479L168.565 70.2523L167.498 69.0371L158.128 77.2638L159.195 78.479ZM168.517 70.2915C168.89 70.0117 169.996 69.5538 171.577 69.4194C173.122 69.288 175.034 69.4756 176.991 70.3788L177.668 68.9106C175.421 67.8732 173.222 67.6566 171.44 67.8082C169.692 67.9567 168.251 68.4691 167.546 68.9978L168.517 70.2915ZM195.975 94.9858C196.757 97.1379 197.006 98.7113 196.86 100.263C196.711 101.837 196.149 103.456 195.183 105.711L196.669 106.348C197.644 104.074 198.295 102.257 198.469 100.415C198.646 98.5505 198.329 96.728 197.494 94.4331L195.975 94.9858ZM195.183 105.711C194.736 106.754 193.743 108.352 192.355 110.249C190.977 112.132 189.242 114.265 187.346 116.37C183.529 120.608 179.147 124.632 175.755 126.328L176.478 127.774C180.161 125.933 184.714 121.709 188.547 117.453C190.477 115.311 192.247 113.135 193.66 111.204C195.062 109.287 196.146 107.568 196.669 106.348L195.183 105.711ZM175.755 126.328C174.858 126.776 173.904 127.394 172.639 127.62C171.444 127.833 169.943 127.685 168.091 126.389L167.163 127.713C169.354 129.247 171.289 129.503 172.924 129.211C174.489 128.932 175.758 128.134 176.478 127.774L175.755 126.328ZM165.958 96.209C166.664 94.347 168.166 91.7831 170.332 90.1265C172.446 88.509 175.19 87.7451 178.598 89.3748L179.296 87.916C175.265 85.9881 171.877 86.9087 169.349 88.842C166.873 90.7362 165.222 93.5895 164.446 95.6355L165.958 96.209ZM178.598 89.3748C182.778 91.3739 183.428 95.5157 182.142 98.592C181.498 100.134 180.398 101.318 179.108 101.82C177.859 102.307 176.303 102.204 174.575 100.931L173.616 102.233C175.729 103.79 177.862 104.041 179.695 103.327C181.488 102.629 182.864 101.06 183.634 99.2155C185.179 95.5203 184.414 90.3639 179.296 87.916L178.598 89.3748ZM168.124 126.413C165.897 124.681 164.398 123.372 163.347 122.324L162.205 123.468C163.32 124.581 164.875 125.935 167.131 127.689L168.124 126.413ZM163.347 122.324C162.693 121.671 162.215 121.122 161.845 120.638L160.56 121.619C160.98 122.17 161.508 122.773 162.205 123.468L163.347 122.324ZM161.492 127.73L163.513 123.227L162.038 122.565L160.016 127.067L161.492 127.73ZM176.991 70.3788C177.601 70.6604 178.487 71.3387 179.591 72.3921L180.707 71.2225C179.587 70.1525 178.538 69.3118 177.668 68.9106L176.991 70.3788ZM180.909 72.0824C184.322 62.6516 191.108 49.5647 200.576 40.396C210.022 31.2491 222.017 26.0925 236.033 32.1229L236.673 30.6375C221.847 24.2592 209.178 29.8158 199.451 39.2344C189.747 48.6312 182.852 61.9623 179.389 71.5322L180.909 72.0824ZM236.033 32.1229C244.586 35.8027 249.943 40.8695 252.913 46.3268C255.885 51.7873 256.499 57.6966 255.469 63.1161C254.438 68.5429 251.761 73.4561 248.185 76.904C244.609 80.3516 240.179 82.2975 235.612 81.9169L235.477 83.5284C240.613 83.9563 245.48 81.7583 249.308 78.0681C253.135 74.3781 255.967 69.1593 257.058 63.418C258.15 57.6696 257.501 51.3749 254.333 45.5538C251.163 39.7294 245.503 34.4368 236.673 30.6375L236.033 32.1229ZM179.591 72.3921C182.378 75.0525 186.129 79.6909 189.459 84.4021L190.779 83.4688C187.427 78.7251 183.605 73.9888 180.707 71.2225L179.591 72.3921ZM189.459 84.4021C192.23 88.3233 194.671 92.2423 196.004 95.0556L197.465 94.3633C196.074 91.4257 193.57 87.4183 190.779 83.4688L189.459 84.4021ZM190.893 84.1704C193.387 75.9595 198.898 63.8955 206.486 54.8315C214.097 45.7407 223.567 39.9125 234.073 43.4657L234.591 41.9339C223.104 38.0485 212.985 44.5506 205.246 53.7934C197.485 63.0631 191.886 75.3362 189.345 83.7004L190.893 84.1704ZM233.986 43.4305C241.379 46.9325 243.854 52.4207 244.239 57.3992C244.432 59.9101 244.093 62.3041 243.558 64.257C243.017 66.2295 242.295 67.6812 241.781 68.3372L243.053 69.3351C243.752 68.4446 244.546 66.7657 245.117 64.6847C245.693 62.5841 246.061 60.0017 245.851 57.2747C245.427 51.7775 242.647 45.744 234.678 41.9691L233.986 43.4305ZM241.781 68.3372C241.009 69.3207 239.638 70.2 237.992 70.697C236.355 71.1913 234.531 71.281 232.894 70.7836C231.277 70.2922 229.815 69.2219 228.851 67.3243C227.878 65.4076 227.384 62.585 227.858 58.5608L226.252 58.3719C225.755 62.5948 226.246 65.7656 227.41 68.0564C228.582 70.3664 230.407 71.718 232.424 72.3308C234.42 72.9376 236.576 72.8138 238.459 72.2451C240.334 71.679 242.025 70.6457 243.053 69.3351L241.781 68.3372ZM227.856 58.5732C228.006 57.4522 227.893 55.7615 226.902 54.5003C225.84 53.1485 223.982 52.5391 221.199 53.235L221.591 54.8038C223.982 54.206 225.089 54.8094 225.631 55.4992C226.244 56.2796 226.373 57.4592 226.253 58.3595L227.856 58.5732ZM221.199 53.235C220.156 53.4956 219.217 54.2385 218.426 55.2049C217.626 56.1821 216.924 57.4532 216.37 58.8969C215.263 61.7826 214.712 65.4594 215.238 69.0934C215.766 72.7374 217.386 76.3704 220.65 79.0867C223.914 81.8021 228.738 83.5311 235.544 83.5311V81.9141C229.01 81.9141 224.586 80.2574 221.685 77.8436C218.785 75.4307 217.321 72.191 216.839 68.8614C216.355 65.5218 216.864 62.1238 217.88 59.476C218.387 58.153 219.011 57.0427 219.677 56.2291C220.352 55.4047 221.017 54.9474 221.591 54.8038L221.199 53.235ZM67.3082 136.164C59.0128 132.253 43.6039 118.759 48.35 96.0879L46.7672 95.7566C41.8108 119.432 57.9348 133.533 66.6187 137.626L67.3082 136.164ZM48.35 96.0879C53.1502 73.1587 66.3139 63.5779 72.0704 61.659L71.559 60.1249C65.1875 62.2488 51.6695 72.3399 46.7672 95.7566L48.35 96.0879ZM72.0889 61.6526C76.9611 59.8962 89.37 58.9174 100.76 70.1017L101.893 68.9479C89.9972 57.2669 76.91 58.1957 71.5405 60.1314L72.0889 61.6526Z" fill="black"/>
<path d="M68.0137 117.261C55.0879 103.955 66.4731 83.8558 86.3676 93.9471M68.0137 117.261L86.3676 93.9471M68.0137 117.261C72.8562 122.246 79.8284 125.805 87.5804 127.717M86.3676 93.9471C87.6284 94.5867 88.9234 95.3475 90.2486 96.239C91.6774 97.2973 94.0163 98.5219 96.8786 99.2273M96.8786 99.2273L87.5804 127.717M96.8786 99.2273C99.6156 99.9018 102.831 100.102 106.187 99.2273M87.5804 127.717C96.1567 129.833 105.687 129.932 114.344 127.717M106.187 99.2273C108.259 98.6875 110.384 97.7384 112.484 96.239C113.772 95.3184 115.03 94.5627 116.25 93.9471M106.187 99.2273L114.344 127.717M114.344 127.717C121.116 125.984 127.353 122.835 132.181 118.125C132.866 117.457 133.495 116.797 134.072 116.148M116.25 93.9471C123.596 90.2374 129.522 91.616 132.181 92.6562C137.42 95.5954 144.647 104.23 134.072 116.148M116.25 93.9471L134.072 116.148" stroke="black" stroke-width="1.61708"/>
<path d="M41.0898 94.8511C41.0898 92.5602 42.3027 87.5742 48.3667 87.1699C54.1882 87.8168 55.3741 92.5602 55.2393 94.8511C55.1046 96.8724 53.6222 101.724 48.3667 101.319C41.8984 100.822 43.0465 91.5387 48.3667 92.4254C53.218 93.234 50.3881 98.8938 48.3667 97.2767" stroke="black" stroke-width="1.61708" stroke-linecap="round"/>
<path d="M160.764 94.8511C160.764 92.5602 159.551 87.5742 153.487 87.1699C147.665 87.8168 146.479 92.5602 146.614 94.8511C146.749 96.8724 148.231 101.724 153.487 101.319C159.955 100.822 158.807 91.5387 153.487 92.4254C148.636 93.234 151.465 98.8938 153.487 97.2767" stroke="black" stroke-width="1.61708" stroke-linecap="round"/>
<path fill-rule="evenodd" clip-rule="evenodd" d="M91.5536 77.2755C87.2861 74.0037 82.8908 71.6468 81.6963 71.1918C81.6151 71.1608 81.5263 71.1258 81.43 71.0879C80.11 70.5681 77.3989 69.5004 74.0221 70.8654C70.399 72.3299 66.1247 75.7899 64.4404 77.3369L62.4499 79.9348L68.9182 84.3818L65.684 80.3391L67.199 79.0727C68.03 78.1827 71.5156 75.1776 74.1136 74.5529C73.409 75.4326 72.9728 76.5146 72.9225 77.6981C72.7897 80.8211 75.3947 83.4681 78.7407 83.6103C82.0868 83.7525 84.9069 81.3362 85.0397 78.2132C85.0886 77.0632 84.7662 75.9777 84.1723 75.0581C85.5677 75.3283 87.1724 75.858 88.8456 76.4103C89.736 76.7042 90.6457 77.0045 91.5536 77.2755Z" fill="black"/>
<path fill-rule="evenodd" clip-rule="evenodd" d="M109.548 77.5294C113.815 74.2576 118.211 71.9007 119.405 71.4457C119.486 71.4147 119.575 71.3797 119.672 71.3418C120.992 70.822 123.703 69.7543 127.079 71.1193C130.703 72.5838 134.977 76.0438 136.661 77.5908L138.652 80.1887L132.183 84.6357L135.418 80.593L133.903 79.3266C133.072 78.4366 129.586 75.4315 126.988 74.8068C127.693 75.6865 128.129 76.7685 128.179 77.952C128.312 81.075 125.707 83.722 122.361 83.8642C119.015 84.0064 116.195 81.5901 116.062 78.4671C116.013 77.3171 116.335 76.2316 116.929 75.312C115.534 75.5822 113.929 76.1119 112.256 76.6642C111.366 76.9581 110.456 77.2584 109.548 77.5294Z" fill="black"/>
</g>
<path d="M195.717 183.097L182.643 191.812V163.124L195.717 160.219L187.001 177.649L195.717 183.097Z" fill="#B9B9B9"/>
<path d="M5 187.413L18.0742 191.811V167.44L5 164.535L11.4711 177.484L5 187.413Z" fill="#B9B9B9"/>
<rect x="14.584" y="156.406" width="169.461" height="35" fill="#D9D9D9"/>
<path d="M41.9707 179.631H40.7695C39.9492 179.631 39.0475 179.436 38.0645 179.045C37.0814 178.648 36.3555 178.156 35.8867 177.57C35.8411 177.518 35.7858 177.434 35.7207 177.316C35.6621 177.193 35.623 177.115 35.6035 177.082C35.6035 176.945 35.4993 176.665 35.291 176.242C35.0892 175.812 34.9818 175.575 34.9688 175.529L35.1445 175.051L34.7637 174.943C34.653 174.605 34.5814 174.11 34.5488 173.459C34.5163 172.808 34.474 172.355 34.4219 172.102L34.6074 171.945L34.4219 171.77C34.4349 171.711 34.4609 171.62 34.5 171.496C34.5456 171.372 34.5749 171.281 34.5879 171.223C34.7637 170.201 35.1087 169.279 35.623 168.459C36.1374 167.639 36.8177 166.968 37.6641 166.447C37.7812 166.376 37.9082 166.307 38.0449 166.242C38.1816 166.177 38.3444 166.102 38.5332 166.018C38.722 165.933 38.8522 165.874 38.9238 165.842C38.9499 165.855 39.0052 165.897 39.0898 165.969C39.181 166.034 39.2396 166.066 39.2656 166.066C39.2852 166.066 39.3014 166.044 39.3145 165.998C39.3275 165.946 39.3372 165.891 39.3438 165.832C39.3568 165.773 39.3698 165.738 39.3828 165.725C39.8385 165.699 40.1738 165.64 40.3887 165.549C40.4473 165.549 40.5384 165.546 40.6621 165.539C40.7923 165.533 40.8867 165.529 40.9453 165.529C41.082 165.529 41.2904 165.539 41.5703 165.559C41.8503 165.578 42.0618 165.588 42.2051 165.588C42.2702 165.588 42.3711 165.578 42.5078 165.559C42.6445 165.539 42.7454 165.529 42.8105 165.529C42.9733 165.529 43.1458 165.539 43.3281 165.559C43.5169 165.572 43.6764 165.588 43.8066 165.607C43.9368 165.627 44.1094 165.656 44.3242 165.695C44.5456 165.728 44.7116 165.751 44.8223 165.764V165.783L45.1641 165.686L45.4473 165.871C45.4277 165.956 45.3984 166.057 45.3594 166.174C45.3203 166.285 45.291 166.382 45.2715 166.467C45.2585 166.551 45.2552 166.659 45.2617 166.789L45.291 166.828L45.125 167.746L45.0859 167.785C44.9948 168.039 44.9297 168.299 44.8906 168.566L44.9102 168.645C44.819 168.794 44.7507 168.967 44.7051 169.162C44.653 169.195 44.5814 169.26 44.4902 169.357C44.4056 169.449 44.3372 169.51 44.2852 169.543L44.1094 169.445C44.1094 169.439 44.1191 169.393 44.1387 169.309C44.1582 169.217 44.168 169.149 44.168 169.104C44.168 168.869 44.1126 168.654 44.002 168.459C43.8913 168.257 43.748 168.094 43.5723 167.971C43.3965 167.84 43.1947 167.733 42.9668 167.648C42.7454 167.557 42.5241 167.495 42.3027 167.463C42.0814 167.424 41.8633 167.404 41.6484 167.404C41.4336 167.404 41.1243 167.447 40.7207 167.531C40.3171 167.616 40.0176 167.661 39.8223 167.668C39.7832 167.688 39.6335 167.756 39.373 167.873C39.1126 167.99 38.9173 168.094 38.7871 168.186L38.5039 168.107V168.186C38.5039 168.225 38.5104 168.283 38.5234 168.361C38.5365 168.433 38.543 168.488 38.543 168.527C38.2435 168.638 37.9701 168.944 37.7227 169.445C37.4753 169.94 37.3418 170.373 37.3223 170.744C37.2572 170.816 37.1986 170.923 37.1465 171.066C37.1009 171.21 37.0879 171.324 37.1074 171.408C37.0814 171.512 37.0684 171.597 37.0684 171.662C37.0684 171.747 37.0911 171.857 37.1367 171.994C37.1888 172.131 37.2181 172.229 37.2246 172.287C37.1986 172.378 37.1855 172.525 37.1855 172.727C37.1855 173.417 37.2702 174.009 37.4395 174.504C37.6152 174.992 37.9115 175.539 38.3281 176.145C38.4518 176.327 38.5853 176.486 38.7285 176.623C38.8717 176.753 39.0345 176.861 39.2168 176.945C39.3991 177.023 39.5586 177.089 39.6953 177.141C39.8385 177.193 40.0306 177.232 40.2715 177.258C40.5124 177.277 40.6947 177.294 40.8184 177.307C40.9486 177.313 41.1569 177.32 41.4434 177.326L41.668 177.707L41.8828 177.326C42.4818 177.326 43.0221 177.209 43.5039 176.975C43.9922 176.74 44.373 176.379 44.6465 175.891L44.7832 175.822C44.8678 175.972 44.9102 176.187 44.9102 176.467C44.9102 176.551 44.9069 176.672 44.9004 176.828C44.8939 176.984 44.8906 177.092 44.8906 177.15C44.8906 177.3 44.9232 177.44 44.9883 177.57C44.9883 177.583 44.9818 177.609 44.9688 177.648C44.9557 177.688 44.9492 177.714 44.9492 177.727C44.9492 177.831 44.959 177.98 44.9785 178.176C44.998 178.371 45.0078 178.521 45.0078 178.625L44.9883 178.664L44.7637 178.83C44.6465 178.869 44.4935 178.944 44.3047 179.055C44.1224 179.165 44.002 179.237 43.9434 179.27C43.7741 179.289 43.4648 179.354 43.0156 179.465C42.5729 179.576 42.2246 179.631 41.9707 179.631ZM48.5914 179.426C48.4156 179.426 48.1585 179.419 47.8199 179.406C47.4814 179.393 47.2242 179.387 47.0484 179.387V179.348C47.1396 179.289 47.1884 179.25 47.1949 179.23C47.26 179.191 47.3284 179.123 47.4 179.025C47.4716 178.921 47.5465 178.794 47.6246 178.645C47.7092 178.488 47.7581 178.397 47.7711 178.371L47.7906 178.166C47.8036 178.146 47.8557 178.078 47.9469 177.961C48.0445 177.837 48.0999 177.746 48.1129 177.688V177.648C48.1129 177.609 48.0966 177.544 48.0641 177.453C48.0315 177.355 48.0152 177.287 48.0152 177.248L48.0543 177.17C48.0608 176.955 48.0771 176.662 48.1031 176.291C48.1357 175.92 48.152 175.598 48.152 175.324C48.152 175.129 48.165 174.784 48.191 174.289C48.2236 173.788 48.2301 173.381 48.2105 173.068L48.4352 172.805L48.2496 172.463C48.2561 172.255 48.2529 172.049 48.2398 171.848C48.2333 171.646 48.2171 171.434 48.191 171.213C48.165 170.992 48.1422 170.809 48.1227 170.666C48.1031 170.523 48.0706 170.318 48.025 170.051C47.9859 169.777 47.9566 169.576 47.9371 169.445C47.9241 169.361 47.8134 169.234 47.6051 169.064C47.4033 168.889 47.2991 168.755 47.2926 168.664L47.1363 168.449C47.221 168.443 47.3609 168.42 47.5562 168.381C47.7516 168.335 47.8915 168.309 47.9762 168.303C48.0934 168.4 48.2398 168.449 48.4156 168.449C48.5133 168.449 48.663 168.426 48.8648 168.381C49.0667 168.335 49.2034 168.309 49.275 168.303C49.3076 168.316 49.3596 168.378 49.4312 168.488C49.5094 168.592 49.5647 168.645 49.5973 168.645C49.6038 168.645 49.6298 168.589 49.6754 168.479C49.721 168.361 49.747 168.303 49.7535 168.303C50.2418 168.394 50.5608 168.43 50.7105 168.41L50.7691 168.43L50.8961 168.41L50.9352 168.391C50.9677 168.391 51.0133 168.394 51.0719 168.4C51.1305 168.407 51.176 168.41 51.2086 168.41V168.469C50.7984 168.762 50.5152 169.1 50.359 169.484C50.2027 169.868 50.1344 170.331 50.1539 170.871C50.1279 170.897 50.1148 171.05 50.1148 171.33C50.1148 171.46 50.1181 171.636 50.1246 171.857C50.1311 172.079 50.1344 172.202 50.1344 172.229C50.1344 172.456 50.1409 172.798 50.1539 173.254C50.1669 173.703 50.1734 174.042 50.1734 174.27C50.1734 174.315 50.1311 174.393 50.0465 174.504C49.9618 174.608 49.9228 174.683 49.9293 174.729C49.9358 174.768 49.9879 174.829 50.0855 174.914C50.1832 174.992 50.232 175.051 50.232 175.09C50.2711 175.708 50.2906 176.333 50.2906 176.965C50.2906 177.18 50.3102 177.365 50.3492 177.521L50.5152 177.766C50.5934 177.811 50.6617 177.844 50.7203 177.863C50.7854 177.876 50.8342 177.886 50.8668 177.893C50.8993 177.893 50.9612 177.893 51.0523 177.893C51.1435 177.886 51.2184 177.883 51.277 177.883C51.3681 177.883 51.5016 177.87 51.6773 177.844C51.8596 177.811 52.0061 177.798 52.1168 177.805C52.1428 177.798 52.1754 177.814 52.2145 177.854C52.2535 177.893 52.2861 177.909 52.3121 177.902C52.3772 177.896 52.5465 177.87 52.8199 177.824C53.0934 177.772 53.2919 177.746 53.4156 177.746C53.65 177.746 53.9104 177.701 54.1969 177.609C54.4898 177.518 54.7275 177.411 54.9098 177.287H54.9293C55.053 177.176 55.206 177.004 55.3883 176.77C55.4208 176.73 55.4501 176.656 55.4762 176.545C55.5022 176.434 55.5283 176.363 55.5543 176.33H55.5934L55.6715 176.262C55.6715 176.32 55.691 176.402 55.7301 176.506C55.7757 176.61 55.8017 176.685 55.8082 176.73C55.8668 176.952 55.8961 177.076 55.8961 177.102C55.9221 177.18 55.9449 177.323 55.9645 177.531C55.9905 177.733 56.0198 177.886 56.0523 177.99C56.0589 178.01 56.0882 178.029 56.1402 178.049C56.1923 178.068 56.2216 178.088 56.2281 178.107C56.2411 178.166 56.2672 178.299 56.3062 178.508C56.3518 178.71 56.3941 178.863 56.4332 178.967C56.4332 178.993 56.443 179.061 56.4625 179.172C56.482 179.276 56.4853 179.354 56.4723 179.406C56.4332 179.419 56.3746 179.426 56.2965 179.426C55.8863 179.426 55.2711 179.41 54.4508 179.377C53.6305 179.344 53.0185 179.328 52.6148 179.328C52.5953 179.328 52.5367 179.338 52.4391 179.357C52.3414 179.377 52.273 179.387 52.234 179.387C52.1428 179.387 52.0549 179.348 51.9703 179.27C51.8857 179.185 51.8141 179.143 51.7555 179.143C51.6904 179.143 51.596 179.182 51.4723 179.26C51.3486 179.331 51.2542 179.367 51.1891 179.367H49.8121L49.8316 179.328C49.1676 179.393 48.7542 179.426 48.5914 179.426ZM65.173 179.504H64.675C64.8768 179.328 65.0428 179.188 65.173 179.084C65.1796 179.051 65.1958 178.99 65.2219 178.898C65.2479 178.801 65.2707 178.723 65.2902 178.664C65.3163 178.599 65.3456 178.54 65.3781 178.488C65.3391 178.254 65.3195 178.133 65.3195 178.127C65.3195 178.12 65.3391 178.039 65.3781 177.883C65.287 177.727 65.2186 177.635 65.173 177.609C65.1145 176.958 64.968 176.311 64.7336 175.666C64.6359 175.588 64.4764 175.549 64.2551 175.549C64.0402 175.549 63.7733 175.585 63.4543 175.656C63.1418 175.721 62.813 175.803 62.468 175.9C62.1229 175.998 61.8918 176.06 61.7746 176.086C61.69 176.307 61.6053 176.551 61.5207 176.818C61.4361 177.079 61.3612 177.274 61.2961 177.404C61.3091 177.469 61.3156 177.583 61.3156 177.746C61.3156 177.935 61.3026 178.075 61.2766 178.166L61.1398 178.342C61.1529 178.413 61.1984 178.501 61.2766 178.605L61.5988 179.104C61.6379 179.143 61.8039 179.257 62.0969 179.445C62.0448 179.445 61.9667 179.449 61.8625 179.455C61.7648 179.462 61.69 179.465 61.6379 179.465C61.3059 179.465 61.0064 179.439 60.7395 179.387C60.6092 179.413 60.4009 179.426 60.1145 179.426C60.0624 179.426 59.9842 179.419 59.8801 179.406C59.7759 179.393 59.701 179.387 59.6555 179.387L59.6164 179.396V179.406C59.6034 179.419 59.5904 179.426 59.5773 179.426C59.4602 179.426 59.3332 179.419 59.1965 179.406C59.0598 179.393 58.9654 179.387 58.9133 179.387C58.8742 179.387 58.7505 179.4 58.5422 179.426C58.5031 179.406 58.4576 179.396 58.4055 179.396C58.3534 179.39 58.2915 179.39 58.2199 179.396C58.1548 179.403 58.1125 179.406 58.093 179.406C58.0279 179.406 57.9237 179.41 57.7805 179.416C57.6437 179.423 57.5428 179.426 57.4777 179.426C57.5168 179.374 57.5656 179.338 57.6242 179.318C57.6893 179.292 57.7479 179.273 57.8 179.26C57.8586 179.24 57.94 179.178 58.0441 179.074C58.1483 178.964 58.259 178.807 58.3762 178.605H58.6398C58.6268 178.573 58.6008 178.527 58.5617 178.469C58.5292 178.404 58.5064 178.355 58.4934 178.322C58.5454 178.218 58.6236 178.101 58.7277 177.971C58.8319 177.834 58.91 177.714 58.9621 177.609L59.0598 177.521C59.19 177.222 59.3234 176.958 59.4602 176.73C59.662 176.379 59.9126 175.764 60.2121 174.885C60.5181 173.999 60.7069 173.345 60.7785 172.922L61.0617 172.844L60.8957 172.57C61.0454 172.271 61.1203 172.056 61.1203 171.926L61.218 171.848C61.2245 171.802 61.2408 171.701 61.2668 171.545C61.2928 171.382 61.3189 171.239 61.3449 171.115C61.371 170.985 61.4003 170.845 61.4328 170.695C61.4719 170.546 61.5142 170.419 61.5598 170.314C61.6118 170.21 61.6639 170.135 61.716 170.09C61.716 169.875 61.7128 169.719 61.7062 169.621C61.7062 169.517 61.69 169.403 61.6574 169.279C61.6314 169.156 61.5858 169.045 61.5207 168.947L61.3742 168.723C61.3677 168.716 61.3254 168.697 61.2473 168.664C61.1691 168.632 61.1268 168.612 61.1203 168.605C61.1073 168.586 61.1008 168.547 61.1008 168.488C61.1008 168.43 61.0943 168.391 61.0812 168.371L62.0773 168.322L62.302 168.469L63.4348 168.41L63.4738 168.605L63.9426 168.371L64.5578 168.303L64.9191 168.371L65.4367 168.322L65.593 168.371C65.619 168.443 65.6125 168.488 65.5734 168.508C65.2935 168.729 65.0949 169.087 64.9777 169.582L65.0949 169.943C65.0949 170.301 65.1568 170.686 65.2805 171.096C65.4042 171.506 65.5637 171.857 65.759 172.15C65.798 172.209 65.8176 172.274 65.8176 172.346C65.8176 172.424 65.8241 172.482 65.8371 172.521C65.8501 172.554 65.8632 172.574 65.8762 172.58C65.8957 172.587 65.9185 172.603 65.9445 172.629C65.9706 172.655 65.9934 172.694 66.0129 172.746L65.9934 173.029C66.1301 173.192 66.2993 173.534 66.5012 174.055C66.7095 174.576 66.8137 174.934 66.8137 175.129C66.8137 175.161 66.7941 175.217 66.7551 175.295C66.7225 175.373 66.703 175.422 66.6965 175.441L66.9406 175.549C67.0122 175.926 67.1359 176.32 67.3117 176.73C67.4875 177.141 67.6893 177.492 67.9172 177.785C67.9628 177.844 67.9986 177.893 68.0246 177.932C68.0507 177.964 68.0702 178 68.0832 178.039C68.1027 178.078 68.1125 178.111 68.1125 178.137C68.119 178.156 68.1288 178.199 68.1418 178.264C68.1548 178.329 68.1678 178.384 68.1809 178.43L68.2395 178.684L68.4934 178.645L68.5812 178.703C68.7245 178.944 68.91 179.178 69.1379 179.406C69.0337 179.419 68.7928 179.426 68.4152 179.426C68.3501 179.413 68.2232 179.403 68.0344 179.396C67.8456 179.383 67.7186 179.387 67.6535 179.406C67.4777 179.445 67.3443 179.465 67.2531 179.465C67.1945 179.465 67.1132 179.449 67.009 179.416C66.9048 179.383 66.8267 179.367 66.7746 179.367L66.5207 179.465C66.4751 179.452 66.3579 179.442 66.1691 179.436C65.9868 179.429 65.8566 179.4 65.7785 179.348C65.7395 179.354 65.6483 179.38 65.5051 179.426C65.3684 179.478 65.2577 179.504 65.173 179.504ZM62.1945 174.631C62.6763 174.52 63.3501 174.318 64.216 174.025C64.1965 173.947 64.1411 173.765 64.05 173.479C63.9589 173.186 63.8937 172.941 63.8547 172.746C63.8286 172.616 63.7733 172.404 63.6887 172.111C63.6105 171.812 63.5617 171.584 63.5422 171.428L63.259 171.008C63.2264 171.086 63.1841 171.216 63.132 171.398C63.0865 171.581 63.0409 171.717 62.9953 171.809C62.9823 171.945 62.9367 172.137 62.8586 172.385C62.7805 172.632 62.7056 172.811 62.634 172.922C62.6405 173.039 62.5689 173.335 62.4191 173.811C62.2759 174.286 62.201 174.559 62.1945 174.631ZM80.1824 179.709C80.1629 179.696 80.1303 179.667 80.0848 179.621C80.0392 179.582 79.9969 179.546 79.9578 179.514C79.9188 179.488 79.8797 179.465 79.8406 179.445C79.7951 179.315 79.7104 179.182 79.5867 179.045C79.4695 178.908 79.3263 178.765 79.157 178.615C78.9878 178.465 78.8706 178.355 78.8055 178.283C78.7924 178.277 78.7534 178.267 78.6883 178.254C78.6232 178.241 78.5874 178.231 78.5809 178.225L76.9793 176.467C76.9402 176.35 76.9207 176.216 76.9207 176.066C76.7189 176.132 76.5919 176.138 76.5398 176.086C76.4096 175.956 76.1232 175.624 75.6805 175.09C75.6805 175.083 75.5861 174.992 75.3973 174.816C75.215 174.641 75.0262 174.462 74.8309 174.279L74.5379 174.006C74.4663 173.954 74.3947 173.902 74.323 173.85C74.2514 173.791 74.1896 173.742 74.1375 173.703C74.0854 173.658 74.0203 173.599 73.9422 173.527C73.8706 173.456 73.8152 173.404 73.7762 173.371C73.7371 173.332 73.6753 173.27 73.5906 173.186C73.5125 173.094 73.4604 173.036 73.4344 173.01C73.4083 172.984 73.3465 172.922 73.2488 172.824C73.1577 172.72 73.1023 172.655 73.0828 172.629V172.521C73.0698 172.515 72.9884 172.437 72.8387 172.287C72.8257 172.385 72.8191 172.684 72.8191 173.186C72.8191 173.426 72.8387 173.68 72.8777 173.947L72.6824 174.064L72.8582 174.348C72.8061 174.751 72.7801 175.126 72.7801 175.471C72.7801 175.965 72.8289 176.298 72.9266 176.467C72.894 176.564 72.8777 176.636 72.8777 176.682C72.8777 176.792 72.8875 176.958 72.907 177.18C72.9331 177.401 72.9461 177.564 72.9461 177.668V177.902C72.9461 178.007 72.9786 178.101 73.0438 178.186L72.907 178.625L73.2391 178.605C73.4279 178.99 73.6102 179.283 73.7859 179.484C73.7664 179.484 73.7339 179.481 73.6883 179.475C73.6427 179.468 73.6069 179.465 73.5809 179.465C73.5027 179.465 73.379 179.475 73.2098 179.494C73.0405 179.514 72.9168 179.523 72.8387 179.523C72.7085 179.523 72.3927 179.514 71.8914 179.494C71.3901 179.475 71.0743 179.465 70.9441 179.465C70.9051 179.465 70.8432 179.475 70.7586 179.494C70.6805 179.514 70.6219 179.523 70.5828 179.523L69.9383 179.484C69.9513 179.452 69.9936 179.387 70.0652 179.289C70.1434 179.185 70.1889 179.117 70.202 179.084C70.3191 178.947 70.3875 178.801 70.407 178.645L70.5438 178.527C70.5958 178.371 70.6349 178.186 70.6609 177.971C70.687 177.756 70.713 177.593 70.7391 177.482L70.9637 177.268C70.9441 177.255 70.9181 177.222 70.8855 177.17C70.8595 177.118 70.8335 177.082 70.8074 177.062C70.866 176.893 70.9051 176.701 70.9246 176.486C70.9376 176.434 70.9441 176.327 70.9441 176.164V175.305C70.9572 175.116 70.9669 174.787 70.9734 174.318C70.9865 173.85 71.0027 173.485 71.0223 173.225C71.0418 172.99 71.0418 172.756 71.0223 172.521C71.0743 172.417 71.1004 172.245 71.1004 172.004C71.1004 171.9 71.0939 171.753 71.0809 171.564C71.0678 171.376 71.0613 171.236 71.0613 171.145C71.0613 171.021 71.0646 170.848 71.0711 170.627C71.0776 170.406 71.0809 170.24 71.0809 170.129C71.0874 170.116 71.0581 170.018 70.993 169.836C70.9279 169.654 70.8595 169.465 70.7879 169.27C70.7228 169.074 70.687 168.96 70.6805 168.928V168.908C70.6805 168.798 70.6935 168.723 70.7195 168.684C70.7586 168.632 70.7781 168.547 70.7781 168.43V168.244C70.8172 168.205 70.9539 168.169 71.1883 168.137C71.4292 168.098 71.5594 168.055 71.5789 168.01L72.1258 168.547C72.2169 168.71 72.3699 168.902 72.5848 169.123C72.7996 169.338 72.9982 169.523 73.1805 169.68C73.3693 169.836 73.5971 170.021 73.8641 170.236C73.9227 170.282 73.9682 170.318 74.0008 170.344C74.0529 170.376 74.0789 170.516 74.0789 170.764C74.3068 170.861 74.4402 170.936 74.4793 170.988C74.5444 171.073 74.6616 171.184 74.8309 171.32C75.0066 171.451 75.1303 171.558 75.202 171.643C75.228 171.669 75.2573 171.714 75.2898 171.779C75.3224 171.844 75.3452 171.887 75.3582 171.906C75.853 172.473 76.3283 172.938 76.784 173.303C76.9663 173.452 77.3048 173.771 77.7996 174.26C78.2944 174.748 78.6036 175.038 78.7273 175.129C78.7273 175.07 78.7143 174.979 78.6883 174.855C78.6688 174.732 78.659 174.641 78.659 174.582C78.659 174.504 78.6655 174.354 78.6785 174.133C78.6915 173.911 78.698 173.762 78.698 173.684C78.698 173.592 78.6753 173.462 78.6297 173.293C78.5841 173.124 78.5613 172.993 78.5613 172.902C78.5613 172.798 78.5711 172.648 78.5906 172.453C78.6102 172.258 78.6199 172.108 78.6199 172.004V171.242C78.6199 170.695 78.5874 170.223 78.5223 169.826L78.7469 169.543L78.4246 169.387L78.2391 169.006L78.0828 168.869C78.0438 168.798 77.9786 168.736 77.8875 168.684C77.7964 168.625 77.7475 168.553 77.741 168.469C77.8191 168.469 77.9396 168.472 78.1023 168.479C78.2651 168.485 78.3855 168.488 78.4637 168.488H78.8445C78.9943 168.488 79.1147 168.475 79.2059 168.449C79.323 168.462 79.5151 168.469 79.782 168.469C79.9839 168.469 80.1173 168.449 80.1824 168.41C80.215 168.404 80.2996 168.391 80.4363 168.371C80.573 168.352 80.6805 168.342 80.7586 168.342C80.7846 168.342 80.8725 168.358 81.0223 168.391C81.1785 168.417 81.2729 168.436 81.3055 168.449C81.1427 168.534 81.0027 168.661 80.8855 168.83C80.6967 169.064 80.573 169.266 80.5145 169.436C80.4559 169.605 80.4266 169.829 80.4266 170.109C80.4266 170.415 80.4201 170.62 80.407 170.725L80.202 170.93L80.407 171.066C80.3875 171.125 80.3777 171.226 80.3777 171.369C80.3777 171.512 80.3973 171.734 80.4363 172.033C80.4819 172.326 80.5047 172.551 80.5047 172.707C80.5047 172.915 80.4819 173.221 80.4363 173.625C80.3973 174.029 80.3777 174.335 80.3777 174.543C80.3777 174.621 80.3322 174.761 80.241 174.963C80.3517 175.373 80.407 175.633 80.407 175.744C80.407 175.972 80.4298 176.145 80.4754 176.262C80.521 176.372 80.5438 176.542 80.5438 176.77C80.5438 176.835 80.5503 176.929 80.5633 177.053C80.5763 177.17 80.5828 177.261 80.5828 177.326C80.5828 177.424 80.6219 177.658 80.7 178.029C80.7846 178.4 80.827 178.638 80.827 178.742L80.9051 178.85C80.879 178.915 80.7651 179.064 80.5633 179.299C80.368 179.533 80.241 179.67 80.1824 179.709ZM96.2168 179.846L95.9434 179.543C95.9434 179.361 95.8424 179.182 95.6406 179.006C95.5234 178.648 95.377 178.381 95.2012 178.205L95.2793 177.766L95.0449 177.668C94.9342 177.329 94.7324 176.87 94.4395 176.291C94.153 175.705 93.974 175.331 93.9023 175.168C93.9089 175.025 93.6712 174.471 93.1895 173.508C92.7142 172.538 92.444 171.945 92.3789 171.73C92.3659 171.965 92.3301 172.212 92.2715 172.473C92.2129 172.733 92.1348 173.02 92.0371 173.332C91.946 173.645 91.8809 173.889 91.8418 174.064C91.7962 174.136 91.7539 174.312 91.7148 174.592C91.6758 174.865 91.6465 175.142 91.627 175.422C91.6139 175.695 91.5977 176.005 91.5781 176.35C91.5586 176.688 91.5456 176.887 91.5391 176.945L91.4805 177.043C91.4284 177.349 91.4023 177.818 91.4023 178.449C91.4023 178.527 91.4349 178.632 91.5 178.762C91.5456 178.814 91.6009 178.934 91.666 179.123C91.7311 179.305 91.8092 179.426 91.9004 179.484C91.6204 179.471 91.194 179.465 90.6211 179.465C90.276 179.465 90.0156 179.484 89.8398 179.523C89.7617 179.51 89.6478 179.504 89.498 179.504H89.2637C89.0033 179.504 88.8145 179.478 88.6973 179.426L87.7402 179.484L87.7012 179.465L87.8965 179.143L88.082 179.045C88.1146 178.804 88.248 178.436 88.4824 177.941C88.7233 177.44 88.8698 177.062 88.9219 176.809L89.2637 176.584L89.0781 176.086C89.1823 175.865 89.2539 175.546 89.293 175.129C89.3385 174.712 89.3874 174.419 89.4395 174.25C89.4655 174.165 89.5436 173.99 89.6738 173.723C89.804 173.449 89.8789 173.225 89.8984 173.049C90.0221 172.86 90.084 172.518 90.084 172.023C90.084 171.848 90.1426 171.604 90.2598 171.291C90.377 170.979 90.4453 170.757 90.4648 170.627C90.5104 170.347 90.5853 169.956 90.6895 169.455C90.8001 168.947 90.8717 168.599 90.9043 168.41L90.8652 168.225C90.8848 168.146 90.9141 168.023 90.9531 167.854C90.9987 167.678 91.0312 167.541 91.0508 167.443C91.0768 167.339 91.0996 167.215 91.1191 167.072C91.1387 166.923 91.1452 166.786 91.1387 166.662C91.2298 166.376 91.2982 166.138 91.3438 165.949C91.3893 165.904 91.4674 165.734 91.5781 165.441L91.8027 165.344L91.9004 165.529L92.3594 165.842C92.4049 165.933 92.4798 166.053 92.584 166.203C92.6882 166.346 92.7598 166.454 92.7988 166.525C92.8509 166.61 92.8835 166.737 92.8965 166.906C92.9095 167.076 92.9258 167.189 92.9453 167.248C92.9648 167.3 93.0137 167.368 93.0918 167.453C93.1699 167.531 93.2188 167.596 93.2383 167.648C93.2383 167.883 93.541 168.723 94.1465 170.168C94.7585 171.607 95.0645 172.408 95.0645 172.57C95.0645 172.622 95.0579 172.648 95.0449 172.648C95.0319 172.648 95.0254 172.674 95.0254 172.727C95.0254 172.753 95.0319 172.772 95.0449 172.785L95.3184 172.863C95.3509 172.941 95.3965 173.101 95.4551 173.342C95.5137 173.583 95.5885 173.765 95.6797 173.889C95.7708 174.012 95.862 174.156 95.9531 174.318C96.0508 174.481 96.1257 174.618 96.1777 174.729C96.2298 174.833 96.3014 174.989 96.3926 175.197C96.4902 175.406 96.5586 175.549 96.5977 175.627L97.0859 174.787C97.138 174.683 97.1999 174.51 97.2715 174.27C97.3431 174.022 97.4115 173.84 97.4766 173.723C97.5677 173.579 97.763 173.218 98.0625 172.639C98.3685 172.053 98.6159 171.636 98.8047 171.389C98.8242 171.363 98.8698 171.324 98.9414 171.271C99.0195 171.213 99.0651 171.171 99.0781 171.145C99.1367 171.047 99.166 170.933 99.166 170.803C99.166 170.744 99.1562 170.686 99.1367 170.627C99.1758 170.516 99.2897 170.275 99.4785 169.904C99.6673 169.533 99.8398 169.185 99.9961 168.859C100.159 168.534 100.24 168.342 100.24 168.283L100.797 167.15L101.041 166.926L100.982 166.623C101.074 166.317 101.272 165.878 101.578 165.305L101.744 165.383L101.861 165.607C102.33 165.887 102.584 166.04 102.623 166.066C102.708 166.288 102.77 166.503 102.809 166.711C102.848 166.913 102.867 167.079 102.867 167.209C102.874 167.333 102.877 167.551 102.877 167.863C102.877 168.729 102.997 169.624 103.238 170.549L103.141 170.764C103.154 170.842 103.193 170.962 103.258 171.125C103.329 171.281 103.365 171.408 103.365 171.506C103.365 172.326 103.443 172.84 103.6 173.049C103.606 173.107 103.629 173.27 103.668 173.537C103.714 173.798 103.736 173.999 103.736 174.143C103.736 174.175 103.717 174.289 103.678 174.484C103.691 174.491 103.71 174.507 103.736 174.533C103.769 174.559 103.795 174.582 103.814 174.602C103.834 174.615 103.857 174.634 103.883 174.66C103.909 174.68 103.928 174.702 103.941 174.729C103.961 174.748 103.974 174.768 103.98 174.787C104.046 174.956 104.104 175.256 104.156 175.686C104.215 176.115 104.283 176.434 104.361 176.643C104.4 176.753 104.462 176.997 104.547 177.375C104.638 177.746 104.729 178.016 104.82 178.186C104.97 178.439 105.383 178.866 106.061 179.465C105.878 179.465 105.598 179.488 105.221 179.533C104.843 179.579 104.563 179.602 104.381 179.602L104.186 179.25C104.186 179.322 104.163 179.387 104.117 179.445C104.072 179.51 104.013 179.543 103.941 179.543C103.824 179.543 103.655 179.556 103.434 179.582C103.212 179.615 103.049 179.631 102.945 179.631H101.92C101.49 179.631 101.152 179.608 100.904 179.562C101.002 179.523 101.093 179.41 101.178 179.221C101.262 179.025 101.324 178.908 101.363 178.869C101.383 178.771 101.448 178.618 101.559 178.41C101.669 178.202 101.725 178.033 101.725 177.902C101.725 177.798 101.708 177.645 101.676 177.443C101.65 177.242 101.637 177.089 101.637 176.984C101.637 176.958 101.646 176.919 101.666 176.867C101.692 176.815 101.705 176.776 101.705 176.75C101.705 176.444 101.682 175.985 101.637 175.373C101.598 174.755 101.578 174.292 101.578 173.986C101.578 173.902 101.507 173.54 101.363 172.902C101.22 172.258 101.139 171.844 101.119 171.662C101.054 171.87 100.813 172.271 100.396 172.863C99.9863 173.449 99.7812 173.843 99.7812 174.045C99.7812 174.11 99.6934 174.309 99.5176 174.641C99.3483 174.966 99.1595 175.318 98.9512 175.695C98.7493 176.073 98.6257 176.311 98.5801 176.408C98.5605 176.46 98.5345 176.542 98.502 176.652C98.4694 176.757 98.4434 176.835 98.4238 176.887C98.3783 177.004 98.2611 177.222 98.0723 177.541C97.89 177.86 97.7793 178.12 97.7402 178.322C97.6816 178.4 97.6035 178.527 97.5059 178.703C97.4147 178.872 97.3594 178.973 97.3398 179.006C97.2031 179.038 97.1087 179.064 97.0566 179.084C97.0046 179.104 96.9427 179.143 96.8711 179.201C96.7995 179.253 96.7376 179.328 96.6855 179.426C96.5553 179.497 96.3991 179.637 96.2168 179.846ZM112.662 179.787C112.408 179.787 112.04 179.774 111.558 179.748C111.252 179.585 111.015 179.517 110.845 179.543C110.787 179.51 110.598 179.419 110.279 179.27C109.966 179.12 109.716 178.986 109.527 178.869C109.338 178.752 109.175 178.625 109.039 178.488C108.941 178.384 108.791 178.238 108.589 178.049C108.388 177.854 108.238 177.707 108.14 177.609C108.049 177.512 107.932 177.378 107.789 177.209C107.652 177.033 107.551 176.877 107.486 176.74C107.427 176.597 107.372 176.424 107.32 176.223C107.268 176.021 107.242 175.809 107.242 175.588C107.209 175.497 107.18 175.37 107.154 175.207C107.128 175.038 107.102 174.917 107.076 174.846L107.056 174.904C107.076 174.755 107.092 174.423 107.105 173.908C107.125 173.394 107.177 172.987 107.261 172.688L107.584 172.502L107.398 172.209C107.515 171.851 107.668 171.535 107.857 171.262C107.981 171.079 108.062 170.907 108.101 170.744C108.225 170.627 108.384 170.445 108.58 170.197C108.782 169.95 108.983 169.738 109.185 169.562C109.393 169.387 109.657 169.221 109.976 169.064C110.992 168.57 111.874 168.322 112.623 168.322C112.877 168.322 113.476 168.384 114.42 168.508C114.452 168.527 114.485 168.56 114.517 168.605C114.556 168.645 114.586 168.68 114.605 168.713L114.625 168.762C114.787 168.723 114.927 168.697 115.045 168.684C115.116 168.723 115.246 168.791 115.435 168.889C115.624 168.986 115.761 169.061 115.845 169.113C115.936 169.165 116.05 169.24 116.187 169.338C116.324 169.429 116.448 169.527 116.558 169.631L116.802 169.846C117.688 170.796 118.121 171.796 118.101 172.844C118.101 172.863 118.121 172.984 118.16 173.205C118.205 173.426 118.231 173.547 118.238 173.566C118.212 173.729 118.199 173.977 118.199 174.309C118.179 175.428 117.925 176.395 117.437 177.209C117.411 177.248 117.336 177.281 117.213 177.307C117.095 177.333 117.03 177.378 117.017 177.443C116.978 177.476 116.962 177.541 116.968 177.639C116.981 177.73 116.978 177.798 116.959 177.844C116.692 178.195 116.321 178.563 115.845 178.947C115.793 178.986 115.741 179.019 115.689 179.045C115.643 179.064 115.588 179.087 115.523 179.113C115.458 179.133 115.403 179.156 115.357 179.182C114.66 179.514 113.827 179.689 112.857 179.709L112.896 179.768C112.844 179.781 112.766 179.787 112.662 179.787ZM112.759 178.01C112.922 178.01 113.017 178.003 113.043 177.99L112.964 177.863C113.557 177.798 113.974 177.717 114.214 177.619C114.455 177.515 114.709 177.277 114.976 176.906L115.279 176.867L115.181 176.584C115.214 176.525 115.289 176.392 115.406 176.184C115.53 175.975 115.614 175.822 115.66 175.725C115.712 175.62 115.764 175.484 115.816 175.314C115.875 175.139 115.904 174.976 115.904 174.826C115.904 174.715 115.923 174.507 115.963 174.201C116.002 173.895 116.021 173.664 116.021 173.508C116.021 173.371 116.015 173.27 116.002 173.205C115.995 173.16 115.976 173.094 115.943 173.01C115.91 172.919 115.891 172.85 115.884 172.805V172.746C115.884 172.694 115.894 172.629 115.914 172.551C115.94 172.466 115.966 172.398 115.992 172.346L116.021 172.268C115.819 172.183 115.699 172.115 115.66 172.062C115.627 171.887 115.552 171.714 115.435 171.545C115.318 171.376 115.155 171.184 114.947 170.969C114.745 170.747 114.608 170.594 114.537 170.51H114.42C114.361 170.471 114.214 170.399 113.98 170.295C113.746 170.184 113.586 170.093 113.502 170.021C113.43 170.021 113.296 169.989 113.101 169.924C113.01 169.924 112.873 169.921 112.691 169.914C112.509 169.908 112.372 169.904 112.281 169.904C112.222 169.904 112.112 169.917 111.949 169.943C111.793 169.963 111.636 169.995 111.48 170.041C111.33 170.087 111.259 170.129 111.265 170.168C110.875 170.298 110.513 170.546 110.181 170.91C109.856 171.275 109.664 171.639 109.605 172.004H109.556V172.424C109.556 172.561 109.537 172.762 109.498 173.029C109.459 173.296 109.439 173.495 109.439 173.625C109.439 173.638 109.436 173.736 109.429 173.918C109.423 174.1 109.42 174.25 109.42 174.367C109.42 174.595 109.433 174.729 109.459 174.768C109.459 174.839 109.507 174.924 109.605 175.021C109.683 175.406 109.768 175.702 109.859 175.91C109.95 176.112 110.123 176.385 110.377 176.73C110.416 176.789 110.471 176.864 110.543 176.955C110.614 177.04 110.673 177.121 110.718 177.199C110.77 177.271 110.813 177.352 110.845 177.443H110.963C111.054 177.515 111.223 177.596 111.47 177.688C111.718 177.772 111.887 177.857 111.978 177.941C112.121 177.987 112.382 178.01 112.759 178.01ZM129.907 179.709C129.888 179.696 129.855 179.667 129.81 179.621C129.764 179.582 129.722 179.546 129.683 179.514C129.644 179.488 129.605 179.465 129.566 179.445C129.52 179.315 129.435 179.182 129.312 179.045C129.195 178.908 129.051 178.765 128.882 178.615C128.713 178.465 128.596 178.355 128.53 178.283C128.517 178.277 128.478 178.267 128.413 178.254C128.348 178.241 128.312 178.231 128.306 178.225L126.704 176.467C126.665 176.35 126.646 176.216 126.646 176.066C126.444 176.132 126.317 176.138 126.265 176.086C126.135 175.956 125.848 175.624 125.405 175.09C125.405 175.083 125.311 174.992 125.122 174.816C124.94 174.641 124.751 174.462 124.556 174.279L124.263 174.006C124.191 173.954 124.12 173.902 124.048 173.85C123.976 173.791 123.915 173.742 123.863 173.703C123.81 173.658 123.745 173.599 123.667 173.527C123.596 173.456 123.54 173.404 123.501 173.371C123.462 173.332 123.4 173.27 123.316 173.186C123.238 173.094 123.185 173.036 123.159 173.01C123.133 172.984 123.071 172.922 122.974 172.824C122.883 172.72 122.827 172.655 122.808 172.629V172.521C122.795 172.515 122.713 172.437 122.564 172.287C122.551 172.385 122.544 172.684 122.544 173.186C122.544 173.426 122.564 173.68 122.603 173.947L122.407 174.064L122.583 174.348C122.531 174.751 122.505 175.126 122.505 175.471C122.505 175.965 122.554 176.298 122.652 176.467C122.619 176.564 122.603 176.636 122.603 176.682C122.603 176.792 122.613 176.958 122.632 177.18C122.658 177.401 122.671 177.564 122.671 177.668V177.902C122.671 178.007 122.704 178.101 122.769 178.186L122.632 178.625L122.964 178.605C123.153 178.99 123.335 179.283 123.511 179.484C123.491 179.484 123.459 179.481 123.413 179.475C123.368 179.468 123.332 179.465 123.306 179.465C123.228 179.465 123.104 179.475 122.935 179.494C122.765 179.514 122.642 179.523 122.564 179.523C122.433 179.523 122.118 179.514 121.616 179.494C121.115 179.475 120.799 179.465 120.669 179.465C120.63 179.465 120.568 179.475 120.484 179.494C120.405 179.514 120.347 179.523 120.308 179.523L119.663 179.484C119.676 179.452 119.719 179.387 119.79 179.289C119.868 179.185 119.914 179.117 119.927 179.084C120.044 178.947 120.113 178.801 120.132 178.645L120.269 178.527C120.321 178.371 120.36 178.186 120.386 177.971C120.412 177.756 120.438 177.593 120.464 177.482L120.689 177.268C120.669 177.255 120.643 177.222 120.611 177.17C120.585 177.118 120.558 177.082 120.532 177.062C120.591 176.893 120.63 176.701 120.65 176.486C120.663 176.434 120.669 176.327 120.669 176.164V175.305C120.682 175.116 120.692 174.787 120.698 174.318C120.711 173.85 120.728 173.485 120.747 173.225C120.767 172.99 120.767 172.756 120.747 172.521C120.799 172.417 120.825 172.245 120.825 172.004C120.825 171.9 120.819 171.753 120.806 171.564C120.793 171.376 120.786 171.236 120.786 171.145C120.786 171.021 120.79 170.848 120.796 170.627C120.803 170.406 120.806 170.24 120.806 170.129C120.812 170.116 120.783 170.018 120.718 169.836C120.653 169.654 120.585 169.465 120.513 169.27C120.448 169.074 120.412 168.96 120.405 168.928V168.908C120.405 168.798 120.418 168.723 120.445 168.684C120.484 168.632 120.503 168.547 120.503 168.43V168.244C120.542 168.205 120.679 168.169 120.913 168.137C121.154 168.098 121.284 168.055 121.304 168.01L121.851 168.547C121.942 168.71 122.095 168.902 122.31 169.123C122.525 169.338 122.723 169.523 122.905 169.68C123.094 169.836 123.322 170.021 123.589 170.236C123.648 170.282 123.693 170.318 123.726 170.344C123.778 170.376 123.804 170.516 123.804 170.764C124.032 170.861 124.165 170.936 124.204 170.988C124.269 171.073 124.387 171.184 124.556 171.32C124.732 171.451 124.855 171.558 124.927 171.643C124.953 171.669 124.982 171.714 125.015 171.779C125.047 171.844 125.07 171.887 125.083 171.906C125.578 172.473 126.053 172.938 126.509 173.303C126.691 173.452 127.03 173.771 127.525 174.26C128.019 174.748 128.329 175.038 128.452 175.129C128.452 175.07 128.439 174.979 128.413 174.855C128.394 174.732 128.384 174.641 128.384 174.582C128.384 174.504 128.39 174.354 128.404 174.133C128.417 173.911 128.423 173.762 128.423 173.684C128.423 173.592 128.4 173.462 128.355 173.293C128.309 173.124 128.286 172.993 128.286 172.902C128.286 172.798 128.296 172.648 128.316 172.453C128.335 172.258 128.345 172.108 128.345 172.004V171.242C128.345 170.695 128.312 170.223 128.247 169.826L128.472 169.543L128.15 169.387L127.964 169.006L127.808 168.869C127.769 168.798 127.704 168.736 127.613 168.684C127.521 168.625 127.473 168.553 127.466 168.469C127.544 168.469 127.665 168.472 127.827 168.479C127.99 168.485 128.111 168.488 128.189 168.488H128.57C128.719 168.488 128.84 168.475 128.931 168.449C129.048 168.462 129.24 168.469 129.507 168.469C129.709 168.469 129.842 168.449 129.907 168.41C129.94 168.404 130.025 168.391 130.161 168.371C130.298 168.352 130.405 168.342 130.484 168.342C130.51 168.342 130.598 168.358 130.747 168.391C130.904 168.417 130.998 168.436 131.03 168.449C130.868 168.534 130.728 168.661 130.611 168.83C130.422 169.064 130.298 169.266 130.239 169.436C130.181 169.605 130.152 169.829 130.152 170.109C130.152 170.415 130.145 170.62 130.132 170.725L129.927 170.93L130.132 171.066C130.113 171.125 130.103 171.226 130.103 171.369C130.103 171.512 130.122 171.734 130.161 172.033C130.207 172.326 130.23 172.551 130.23 172.707C130.23 172.915 130.207 173.221 130.161 173.625C130.122 174.029 130.103 174.335 130.103 174.543C130.103 174.621 130.057 174.761 129.966 174.963C130.077 175.373 130.132 175.633 130.132 175.744C130.132 175.972 130.155 176.145 130.2 176.262C130.246 176.372 130.269 176.542 130.269 176.77C130.269 176.835 130.275 176.929 130.288 177.053C130.301 177.17 130.308 177.261 130.308 177.326C130.308 177.424 130.347 177.658 130.425 178.029C130.51 178.4 130.552 178.638 130.552 178.742L130.63 178.85C130.604 178.915 130.49 179.064 130.288 179.299C130.093 179.533 129.966 179.67 129.907 179.709ZM144.067 179.426C143.891 179.439 143.764 179.445 143.686 179.445C143.498 179.445 143.305 179.426 143.11 179.387V179.406C143.11 179.413 143.078 179.423 143.012 179.436C142.921 179.468 142.873 179.491 142.866 179.504C142.827 179.504 142.713 179.497 142.524 179.484C142.342 179.471 142.208 179.465 142.124 179.465C142.033 179.465 141.981 179.471 141.968 179.484C141.915 179.484 141.854 179.458 141.782 179.406C141.717 179.354 141.678 179.328 141.665 179.328C141.645 179.328 141.61 179.351 141.557 179.396C141.505 179.442 141.427 179.465 141.323 179.465C141.219 179.465 141.063 179.481 140.854 179.514C140.652 179.546 140.496 179.562 140.386 179.562H139.77C139.796 179.53 139.826 179.488 139.858 179.436C139.891 179.383 139.93 179.279 139.975 179.123C140.021 178.96 140.031 178.801 140.005 178.645C139.972 178.618 139.94 178.586 139.907 178.547C139.874 178.508 139.839 178.465 139.8 178.42C139.767 178.368 139.741 178.329 139.721 178.303L139.848 177.971L139.448 177.844C139.357 177.746 139.269 177.635 139.184 177.512C139.1 177.382 139.022 177.274 138.95 177.189C138.937 177.176 138.898 177.128 138.833 177.043C138.768 176.958 138.719 176.906 138.686 176.887C138.654 176.828 138.266 176.382 137.524 175.549C137.479 175.412 137.365 175.236 137.182 175.021C137.007 174.8 136.841 174.615 136.684 174.465L136.45 174.23L135.845 174.602C135.832 174.725 135.825 174.852 135.825 174.982C135.825 175.243 135.851 175.383 135.903 175.402C135.903 175.663 135.939 176.099 136.011 176.711C136.017 176.841 136.02 176.913 136.02 176.926C136.027 176.939 136.056 177.007 136.108 177.131C136.16 177.274 136.225 177.574 136.304 178.029C136.277 178.055 136.264 178.107 136.264 178.186C136.271 178.342 136.31 178.488 136.382 178.625C136.453 178.755 136.525 178.856 136.596 178.928C136.675 178.999 136.789 179.097 136.938 179.221C137.095 179.338 137.205 179.426 137.27 179.484C137.231 179.497 137.186 179.504 137.134 179.504C137.088 179.504 137.036 179.501 136.977 179.494C136.925 179.488 136.883 179.484 136.85 179.484C136.766 179.484 136.658 179.497 136.528 179.523C136.45 179.484 136.401 179.484 136.382 179.523C136.317 179.523 136.219 179.51 136.089 179.484C135.965 179.465 135.884 179.452 135.845 179.445C135.76 179.471 135.669 179.491 135.571 179.504C135.48 179.517 135.408 179.523 135.356 179.523C135.304 179.53 135.216 179.53 135.093 179.523C134.975 179.523 134.894 179.523 134.848 179.523C134.809 179.523 134.748 179.504 134.663 179.465C134.585 179.426 134.526 179.406 134.487 179.406C134.448 179.406 134.399 179.436 134.341 179.494C134.282 179.553 134.236 179.582 134.204 179.582C134.158 179.582 134.09 179.572 133.999 179.553C133.914 179.533 133.849 179.523 133.804 179.523C133.745 179.523 133.657 179.53 133.54 179.543C133.429 179.556 133.345 179.562 133.286 179.562C133.26 179.562 133.214 179.559 133.149 179.553C133.091 179.546 133.048 179.543 133.022 179.543C133.061 179.491 133.133 179.439 133.237 179.387C133.341 179.328 133.41 179.283 133.442 179.25C133.683 179.035 133.804 178.641 133.804 178.068C133.804 178.029 133.81 177.938 133.823 177.795C133.843 177.652 133.856 177.531 133.862 177.434C133.875 177.336 133.875 177.261 133.862 177.209C133.862 177.053 133.882 176.818 133.921 176.506C133.96 176.187 133.983 175.995 133.989 175.93C133.989 175.904 134.009 175.871 134.048 175.832C134.087 175.793 134.126 175.76 134.165 175.734L134.223 175.686C134.067 175.549 133.989 175.448 133.989 175.383C133.983 175.135 133.999 174.764 134.038 174.27C134.077 173.768 134.093 173.394 134.087 173.146C134.087 173.003 134.061 172.889 134.009 172.805C134.074 172.661 134.106 172.469 134.106 172.229C134.106 172.001 134.061 171.805 133.97 171.643C133.996 171.239 134.009 171.027 134.009 171.008C134.009 170.878 133.989 170.624 133.95 170.246V170.266C133.872 170.038 133.764 169.826 133.628 169.631V169.562C133.589 169.504 133.52 169.436 133.423 169.357C133.332 169.273 133.273 169.214 133.247 169.182L132.944 168.928C132.905 168.902 132.863 168.846 132.817 168.762C132.772 168.677 132.729 168.618 132.69 168.586V168.547L132.622 168.508L132.641 168.43H132.671C132.762 168.443 132.915 168.449 133.13 168.449C133.182 168.475 133.227 168.488 133.266 168.488L133.305 168.469L133.569 168.527L133.686 168.586L133.784 168.508H134.507L134.682 168.684L134.848 168.508C134.966 168.469 135.086 168.449 135.21 168.449C135.301 168.449 135.441 168.459 135.63 168.479C135.818 168.498 135.958 168.508 136.05 168.508C136.128 168.508 136.232 168.495 136.362 168.469L136.264 168.684C136.147 168.768 136.059 168.993 136.001 169.357C135.949 169.715 135.923 170.018 135.923 170.266C135.923 170.37 135.906 170.568 135.874 170.861C135.841 171.148 135.825 171.356 135.825 171.486C135.825 171.662 135.845 171.789 135.884 171.867C135.845 172.102 135.825 172.222 135.825 172.229C135.825 172.339 135.845 172.492 135.884 172.688C136.248 172.46 136.483 172.307 136.587 172.229C136.619 172.209 136.658 172.17 136.704 172.111C136.756 172.053 136.789 172.017 136.802 172.004C136.828 171.978 136.886 171.958 136.977 171.945C137.075 171.926 137.137 171.906 137.163 171.887C137.182 171.874 137.199 171.835 137.212 171.77C137.231 171.704 137.251 171.662 137.27 171.643C137.531 171.369 137.817 171.125 138.13 170.91C138.143 170.871 138.263 170.728 138.491 170.48C138.725 170.227 138.865 170.09 138.911 170.07C138.93 170.012 138.963 169.956 139.009 169.904C139.054 169.852 139.11 169.797 139.175 169.738C139.246 169.68 139.298 169.634 139.331 169.602L139.546 169.543L139.526 169.309C139.546 169.243 139.572 169.172 139.604 169.094C139.637 169.016 139.66 168.947 139.673 168.889C139.692 168.824 139.702 168.742 139.702 168.645C139.695 168.632 139.679 168.605 139.653 168.566C139.634 168.521 139.624 168.488 139.624 168.469C139.8 168.469 140.06 168.462 140.405 168.449C140.75 168.436 141.004 168.43 141.167 168.43C141.199 168.43 141.232 168.452 141.264 168.498C141.297 168.544 141.33 168.566 141.362 168.566C141.427 168.566 141.538 168.54 141.694 168.488C141.85 168.43 141.955 168.397 142.007 168.391C142.182 168.443 142.368 168.469 142.563 168.469C142.641 168.469 142.762 168.462 142.925 168.449C143.087 168.436 143.221 168.43 143.325 168.43L143.022 168.664C142.814 168.723 142.453 168.957 141.938 169.367C141.43 169.771 141.128 170.064 141.03 170.246H140.845L140.766 170.324L140.825 170.422C140.317 170.741 139.992 171.001 139.848 171.203L139.565 171.262L139.585 171.486C139.285 171.831 139.044 172.098 138.862 172.287C138.68 172.469 138.449 172.674 138.169 172.902C138.104 172.902 138.029 172.945 137.944 173.029L138.247 173.322C138.292 173.439 138.423 173.641 138.637 173.928C138.859 174.214 138.976 174.38 138.989 174.426C139.464 174.842 139.77 175.129 139.907 175.285L139.829 175.725C140.018 175.751 140.177 175.777 140.307 175.803C140.32 175.822 140.333 175.852 140.346 175.891C140.36 175.923 140.373 175.949 140.386 175.969H140.405C140.529 176.105 140.675 176.281 140.845 176.496C141.014 176.711 141.173 176.9 141.323 177.062C141.473 177.225 141.642 177.378 141.831 177.521L141.85 177.648C142.182 177.883 142.394 178.075 142.485 178.225C142.726 178.342 142.853 178.404 142.866 178.41C142.892 178.462 143.006 178.573 143.208 178.742C143.41 178.911 143.602 179.068 143.784 179.211L144.067 179.426ZM150.239 179.562L150.161 179.289C150.043 179.432 149.972 179.504 149.946 179.504C149.815 179.504 149.643 179.501 149.428 179.494C149.22 179.488 149.051 179.484 148.92 179.484C148.614 179.484 148.422 179.465 148.344 179.426C148.123 179.426 147.931 179.419 147.768 179.406C147.612 179.393 147.423 179.387 147.202 179.387C147.156 179.387 147.097 179.357 147.026 179.299C146.961 179.24 146.905 179.211 146.86 179.211L146.743 179.367C146.69 179.387 146.404 179.4 145.883 179.406C145.362 179.413 145.056 179.439 144.965 179.484C144.978 179.471 144.985 179.452 144.985 179.426C144.985 179.419 144.975 179.39 144.955 179.338C144.936 179.286 144.939 179.257 144.965 179.25C145.167 179.152 145.333 179.032 145.463 178.889C145.6 178.739 145.688 178.615 145.727 178.518C145.766 178.42 145.779 178.355 145.766 178.322L146 177.307C146.007 177.242 146.023 177.062 146.049 176.77C146.075 176.47 146.098 176.255 146.118 176.125H146.079C146.079 176.066 146.075 176.008 146.069 175.949C146.062 175.884 146.059 175.822 146.059 175.764V175.666C146.085 175.627 146.127 175.552 146.186 175.441C146.16 175.279 146.147 175.048 146.147 174.748C146.147 174.507 146.137 174.273 146.118 174.045C146.202 173.908 146.245 173.729 146.245 173.508C146.245 173.417 146.215 173.277 146.157 173.088C146.105 172.899 146.079 172.753 146.079 172.648C146.079 172.596 146.085 172.548 146.098 172.502C146.111 172.45 146.124 172.411 146.137 172.385C146.157 172.359 146.183 172.316 146.215 172.258C146.254 172.199 146.284 172.157 146.303 172.131L146.166 171.867C146.179 171.776 146.186 171.649 146.186 171.486C146.186 171.304 146.17 171.135 146.137 170.979C146.111 170.816 146.062 170.607 145.991 170.354C145.919 170.093 145.87 169.904 145.844 169.787L146.059 169.602L145.805 169.465C145.773 169.413 145.685 169.335 145.541 169.23C145.398 169.12 145.31 169.038 145.278 168.986L144.926 168.684L144.858 168.566C144.949 168.553 145.082 168.531 145.258 168.498C145.44 168.459 145.61 168.43 145.766 168.41C145.922 168.384 146.075 168.371 146.225 168.371C146.297 168.371 146.407 168.384 146.557 168.41C146.707 168.436 146.821 168.449 146.899 168.449C146.99 168.449 147.159 168.443 147.407 168.43C147.654 168.417 147.827 168.41 147.924 168.41C147.963 168.423 148.048 168.43 148.178 168.43C148.289 168.43 148.461 168.423 148.696 168.41C148.937 168.397 149.08 168.391 149.125 168.391C149.204 168.391 149.314 168.4 149.457 168.42C149.601 168.439 149.708 168.449 149.78 168.449C149.91 168.449 149.991 168.423 150.024 168.371C150.056 168.378 150.095 168.41 150.141 168.469C150.193 168.527 150.226 168.56 150.239 168.566L150.385 168.342C150.483 168.361 150.567 168.371 150.639 168.371C150.724 168.371 150.857 168.355 151.039 168.322C151.228 168.29 151.394 168.283 151.537 168.303C151.817 168.348 152.273 168.371 152.905 168.371H153.881L153.842 168.605C153.816 168.645 153.784 168.719 153.745 168.83C153.705 168.941 153.673 169.048 153.647 169.152C153.621 169.257 153.592 169.38 153.559 169.523C153.526 169.66 153.507 169.742 153.5 169.768C153.455 169.794 153.419 169.855 153.393 169.953C153.367 170.044 153.351 170.096 153.344 170.109C153.37 170.37 153.295 170.588 153.12 170.764C153.113 170.751 153.093 170.725 153.061 170.686C153.035 170.64 153.015 170.611 153.002 170.598C152.996 170.578 152.98 170.549 152.954 170.51C152.927 170.471 152.905 170.441 152.885 170.422C152.872 170.402 152.849 170.376 152.817 170.344C152.791 170.305 152.765 170.279 152.739 170.266C152.719 170.246 152.693 170.223 152.661 170.197C152.635 170.171 152.605 170.152 152.573 170.139C152.547 170.119 152.517 170.103 152.485 170.09H152.377C152.11 169.953 151.433 169.885 150.346 169.885C149.734 169.885 149.334 169.878 149.145 169.865C148.943 169.852 148.657 169.846 148.286 169.846L148.12 170.324L147.885 170.422L148.139 170.705C148.139 170.764 148.133 170.826 148.12 170.891C148.107 170.956 148.1 171.008 148.1 171.047V171.867L148.061 171.887C148.048 171.965 148.041 172.059 148.041 172.17C148.041 172.215 148.051 172.284 148.071 172.375C148.09 172.466 148.093 172.603 148.08 172.785C148.146 172.792 148.211 172.795 148.276 172.795C148.341 172.788 148.435 172.782 148.559 172.775C148.689 172.769 148.79 172.766 148.862 172.766C148.985 172.766 149.06 172.772 149.086 172.785L149.321 172.766L150.864 172.746L151.02 172.902L151.166 172.746L151.918 172.805L151.957 172.824L151.987 173.088L152.045 173.186C152.058 173.29 152.14 173.511 152.289 173.85C152.446 174.182 152.53 174.4 152.543 174.504L152.426 174.67C152.289 174.605 151.821 174.491 151.02 174.328L150.864 174.143C150.831 174.149 150.779 174.178 150.707 174.23C150.642 174.283 150.593 174.309 150.561 174.309C149.871 174.309 149.431 174.289 149.243 174.25L149.125 174.289L148.461 174.162L148.403 174.211L148.1 174.309C148.126 174.465 148.139 174.676 148.139 174.943V175.686L148.002 175.891C148.002 175.91 148.032 175.933 148.09 175.959C148.149 175.985 148.178 176.008 148.178 176.027C148.178 176.158 148.178 176.249 148.178 176.301C148.178 176.353 148.185 176.441 148.198 176.564C148.211 176.688 148.22 176.783 148.227 176.848C148.227 176.887 148.243 176.949 148.276 177.033C148.315 177.118 148.331 177.183 148.325 177.229L148.305 177.443C148.383 177.456 148.52 177.492 148.715 177.551C148.917 177.603 149.073 177.635 149.184 177.648C149.262 177.661 149.376 177.668 149.526 177.668C149.578 177.668 149.653 177.665 149.75 177.658C149.855 177.652 149.933 177.648 149.985 177.648C150.043 177.648 150.177 177.661 150.385 177.688C150.398 177.688 150.427 177.707 150.473 177.746C150.519 177.785 150.548 177.805 150.561 177.805C150.574 177.805 150.607 177.782 150.659 177.736C150.717 177.691 150.773 177.668 150.825 177.668C151.925 177.629 152.543 177.58 152.68 177.521C152.726 177.502 152.827 177.417 152.983 177.268C153.146 177.111 153.26 177.023 153.325 177.004L153.481 176.848C153.513 176.88 153.588 177.027 153.705 177.287C153.823 177.541 153.888 177.694 153.901 177.746C154.174 178.599 154.334 179.126 154.379 179.328H154.262C153.644 179.328 153.23 179.354 153.022 179.406L152.983 179.387C152.534 179.426 152.081 179.445 151.625 179.445H151.479L151.381 179.328C151.355 179.335 151.319 179.361 151.274 179.406C151.235 179.445 151.192 179.465 151.147 179.465C151.062 179.465 150.912 179.481 150.698 179.514C150.483 179.546 150.33 179.562 150.239 179.562ZM162.201 179.562H160.648C160.447 179.562 160.137 179.556 159.721 179.543C159.304 179.53 158.992 179.523 158.783 179.523V179.426C158.9 179.387 159.005 179.338 159.096 179.279C159.187 179.214 159.258 179.162 159.311 179.123C159.363 179.084 159.424 179.006 159.496 178.889C159.568 178.771 159.61 178.697 159.623 178.664C159.643 178.632 159.691 178.534 159.77 178.371C159.789 178.339 159.838 178.312 159.916 178.293C159.994 178.267 160.043 178.238 160.062 178.205C160.049 178.173 160.01 178.111 159.945 178.02C159.88 177.922 159.848 177.857 159.848 177.824C159.848 177.694 159.88 177.515 159.945 177.287C160.01 177.059 160.043 176.88 160.043 176.75C160.043 176.49 160.03 176.099 160.004 175.578C159.978 175.057 159.965 174.667 159.965 174.406C159.932 174.367 159.89 174.299 159.838 174.201C159.792 174.097 159.753 174.025 159.721 173.986C159.61 173.856 159.503 173.713 159.398 173.557C159.301 173.4 159.197 173.225 159.086 173.029C158.975 172.827 158.887 172.674 158.822 172.57C158.686 172.342 158.412 171.968 158.002 171.447L158.021 171.35C157.859 171.07 157.546 170.656 157.084 170.109L157.201 169.865L157.006 169.748C156.635 169.208 156.088 168.827 155.365 168.605L155.385 168.527C155.619 168.527 155.893 168.495 156.205 168.43L156.322 168.566L156.4 168.43C156.492 168.43 156.618 168.439 156.781 168.459C156.944 168.479 157.064 168.488 157.143 168.488C157.383 168.488 157.605 168.462 157.807 168.41C157.982 168.443 158.24 168.475 158.578 168.508C158.917 168.54 159.158 168.566 159.301 168.586C159.132 168.814 159.047 168.993 159.047 169.123C159.047 169.227 159.079 169.335 159.145 169.445L158.969 169.602L159.164 169.729C159.197 169.774 159.252 169.855 159.33 169.973C159.415 170.09 159.477 170.181 159.516 170.246C159.555 170.311 159.604 170.393 159.662 170.49C159.727 170.588 159.783 170.682 159.828 170.773C159.874 170.865 159.913 170.956 159.945 171.047C160.049 171.359 160.115 171.545 160.141 171.604C160.212 171.773 160.342 171.997 160.531 172.277C160.727 172.557 160.857 172.759 160.922 172.883C161.033 172.668 161.257 172.342 161.596 171.906C161.941 171.47 162.172 171.115 162.289 170.842C162.458 170.666 162.566 170.48 162.611 170.285C162.657 170.083 162.722 169.924 162.807 169.807L163.129 169.689L163.021 169.445C163.028 169.426 163.041 169.396 163.061 169.357C163.087 169.318 163.103 169.289 163.109 169.27C163.083 169.172 163.021 169.051 162.924 168.908C162.878 168.882 162.807 168.837 162.709 168.771C162.618 168.706 162.569 168.671 162.562 168.664C162.712 168.638 162.813 168.573 162.865 168.469C163.119 168.43 163.526 168.41 164.086 168.41H164.701C164.831 168.41 165.02 168.433 165.268 168.479C165.515 168.524 165.701 168.547 165.824 168.547C165.87 168.547 165.99 168.514 166.186 168.449C166.622 168.521 166.856 168.56 166.889 168.566C166.837 168.605 166.762 168.667 166.664 168.752C166.573 168.837 166.521 168.882 166.508 168.889C166.404 168.973 166.225 169.077 165.971 169.201C165.717 169.318 165.535 169.426 165.424 169.523C165.268 169.647 165.02 169.934 164.682 170.383L164.301 170.568C164.307 170.588 164.327 170.62 164.359 170.666C164.398 170.705 164.421 170.731 164.428 170.744C164.343 170.868 164.229 171.047 164.086 171.281C163.943 171.509 163.835 171.672 163.764 171.77C163.712 171.854 163.62 171.981 163.49 172.15C163.36 172.313 163.266 172.447 163.207 172.551C163.083 172.766 163.015 172.932 163.002 173.049L163.021 173.107C162.956 173.166 162.82 173.339 162.611 173.625C162.41 173.911 162.208 174.097 162.006 174.182L162.123 174.348C162.097 174.478 162.084 174.689 162.084 174.982V175.646C162.084 176.988 162.139 177.727 162.25 177.863L162.367 178.625L162.445 178.645C162.452 178.69 162.475 178.752 162.514 178.83C162.553 178.908 162.576 178.96 162.582 178.986C162.602 179.006 162.65 179.061 162.729 179.152C162.807 179.243 162.872 179.309 162.924 179.348L163.129 179.523C162.908 179.523 162.745 179.517 162.641 179.504C162.367 179.543 162.221 179.562 162.201 179.562Z" fill="black"/>
</g>
<defs>
<filter id="filter0_d_835_1670" x="0" y="0" width="200.717" height="215.709" filterUnits="userSpaceOnUse" color-interpolation-filters="sRGB">
<feFlood flood-opacity="0" result="BackgroundImageFix"/>
<feColorMatrix in="SourceAlpha" type="matrix" values="0 0 0 0 0 0 0 0 0 0 0 0 0 0 0 0 0 0 127 0" result="hardAlpha"/>
<feOffset/>
<feGaussianBlur stdDeviation="2.5"/>
<feComposite in2="hardAlpha" operator="out"/>
<feColorMatrix type="matrix" values="0 0 0 0 0 0 0 0 0 0 0 0 0 0 0 0 0 0 0.25 0"/>
<feBlend mode="normal" in2="BackgroundImageFix" result="effect1_dropShadow_835_1670"/>
<feBlend mode="normal" in="SourceGraphic" in2="effect1_dropShadow_835_1670" result="shape"/>
</filter>
<linearGradient id="paint0_linear_835_1670" x1="100.358" y1="5" x2="100.358" y2="267.652" gradientUnits="userSpaceOnUse">
<stop stop-color="#2660E1"/>
<stop offset="1" stop-color="#FF9434"/>
</linearGradient>
<linearGradient id="paint1_linear_835_1670" x1="100.358" y1="5" x2="100.358" y2="267.652" gradientUnits="userSpaceOnUse">
<stop stop-color="#2554BB"/>
<stop offset="1" stop-color="#D88D49"/>
</linearGradient>
<clipPath id="clip0_835_1670">
<rect width="160" height="168" fill="white" transform="translate(20.1426 17.8555)"/>
</clipPath>
</defs>
</svg>
