<svg width="184" height="136" viewBox="0 0 184 136" fill="none" xmlns="http://www.w3.org/2000/svg">
<g clip-path="url(#clip0_1686_3377)">
<path opacity="0.6" d="M177.349 49.0941C177.207 48.3741 177.027 47.3091 176.817 45.7566C177.364 44.6316 177.649 43.4091 177.649 42.2091V30.7641C177.649 29.7891 177.499 28.7541 177.177 27.5766C177.484 26.5791 177.649 25.5141 177.649 24.4041V24.3516C181.519 21.2541 182.899 19.5966 182.899 16.2891V8.78906H120.057C115.894 8.78906 110.299 8.89406 103.407 9.11156C102.064 8.89406 100.594 8.78906 98.9595 8.78906H92.697L91.5495 15.1041H21.6945L21.627 15.1416C21.3645 15.1191 21.102 15.1041 20.832 15.1041H8.12695V29.3241L10.5345 31.5516C14.1345 34.8816 15.492 36.6966 15.9645 37.4241V64.2066C15.9645 65.9541 16.3995 67.5516 17.1795 68.9166L16.842 71.4741V71.9691C16.842 74.9466 17.4645 78.9291 18.7395 84.1566L20.277 90.4341L45.417 88.1166H58.3695V114.472C57.6345 115.394 57.087 116.032 56.682 116.482H51.4845V130.544L55.8495 132.554C60.6645 134.774 64.407 135.809 67.632 135.809H93.6345C99.072 135.809 101.862 131.249 103.249 127.417L105.004 122.572L95.6595 114.479C95.157 112.649 94.1595 107.752 92.9145 95.1966C94.332 93.5316 95.052 91.4316 95.052 89.3466V59.9016C95.052 57.6141 94.5195 54.7641 93.3495 50.9241C94.3545 48.9966 95.052 46.5291 95.052 43.4166V40.1991H102.777C102.694 41.5566 102.657 42.8391 102.657 44.0541V44.3991C102.657 45.8766 102.732 47.4816 102.889 49.2666C102.492 49.5366 101.959 49.8741 101.232 50.2941L97.4895 52.4616V64.6266H127.504V64.8816H172.962C174.597 64.8816 178.654 64.3191 180.994 59.1441L183.507 53.5791L177.349 49.1016V49.0941ZM131.119 50.3016L129.642 49.6191C128.959 49.3041 128.442 49.0341 128.067 48.8091C128.127 47.9316 128.217 46.7316 128.374 45.0891L128.404 44.7366V44.3841C128.404 43.6266 128.322 42.8916 128.157 42.1791C128.239 41.4741 128.299 40.8066 128.337 40.1841H133.639L131.577 50.0466C131.577 50.0466 131.389 50.1441 131.104 50.2941L131.119 50.3016ZM58.3695 36.6291V59.2716H52.1295C51.9045 57.5466 51.597 56.0616 51.192 54.7716C52.107 49.8141 52.557 43.8516 52.5645 36.6441L55.482 33.2166L58.362 36.6291H58.3695Z" fill="black" fill-opacity="0.6"/>
<path d="M169.849 41.2542C169.707 40.5342 169.527 39.4692 169.317 37.9167C169.864 36.7917 170.149 35.5692 170.149 34.3692V22.9242C170.149 21.9492 169.999 20.9142 169.677 19.7367C169.984 18.7392 170.149 17.6742 170.149 16.5642V16.5117C174.019 13.4142 175.399 11.7567 175.399 8.44922V0.949219H112.557C108.394 0.949219 102.799 1.05422 95.907 1.27172C94.5645 1.05422 93.0945 0.949219 91.4595 0.949219H85.197L84.0495 7.26422H14.1945L14.127 7.30172C13.8645 7.27922 13.602 7.26422 13.332 7.26422H0.626953V21.4842L3.03445 23.7117C6.63445 27.0417 7.99195 28.8567 8.46445 29.5842V56.3667C8.46445 58.1142 8.89945 59.7117 9.67945 61.0767L9.34195 63.6342V64.1292C9.34195 67.1067 9.96445 71.0892 11.2395 76.3167L12.777 82.5942L37.917 80.2767H50.8695V106.632C50.1345 107.554 49.587 108.192 49.182 108.642H43.9845V122.704L48.3495 124.714C53.1645 126.934 56.907 127.969 60.132 127.969H86.1345C91.572 127.969 94.362 123.409 95.7495 119.577L97.5045 114.732L88.1595 106.639C87.657 104.809 86.6595 99.9117 85.4145 87.3567C86.832 85.6917 87.552 83.5917 87.552 81.5067V52.0617C87.552 49.7742 87.0195 46.9242 85.8495 43.0842C86.8545 41.1567 87.552 38.6892 87.552 35.5767V32.3592H95.277C95.1945 33.7167 95.157 34.9992 95.157 36.2142V36.5592C95.157 38.0367 95.232 39.6417 95.3895 41.4267C94.992 41.6967 94.4595 42.0342 93.732 42.4542L89.9895 44.6217V56.7867H120.004V57.0417H165.462C167.097 57.0417 171.154 56.4792 173.494 51.3042L176.007 45.7392L169.849 41.2617V41.2542ZM123.619 42.4542L122.142 41.7717C121.459 41.4567 120.942 41.1867 120.567 40.9617C120.627 40.0842 120.717 38.8842 120.874 37.2417L120.904 36.8892V36.5367C120.904 35.7792 120.822 35.0442 120.657 34.3317C120.739 33.6267 120.799 32.9592 120.837 32.3367H126.139L124.077 42.1992C124.077 42.1992 123.889 42.2967 123.604 42.4467L123.619 42.4542ZM50.8695 28.7817V51.4242H44.6295C44.4045 49.6992 44.097 48.2142 43.692 46.9242C44.607 41.9667 45.057 36.0042 45.0645 28.7967L47.982 25.3692L50.862 28.7817H50.8695Z" fill="#68685D"/>
<path d="M8.43461 14.7653H13.6321C14.2171 14.7653 14.5096 15.0578 14.5096 15.6428L16.2646 14.7653H47.4646L37.8721 26.0453V28.6103C37.8721 36.4703 37.3096 42.8228 36.1846 47.6528C37.3096 49.5053 37.8721 53.5628 37.8721 59.8103L39.6271 58.9328H56.9821L58.6696 59.8103V26.0453L49.1446 14.7653H91.6246C91.6246 15.3503 87.8671 19.1153 80.3446 26.0453V35.5703C80.3446 38.3078 79.4896 40.3328 77.7796 41.6528C79.4896 46.5353 80.3446 50.0003 80.3446 52.0553V81.5003C80.3446 82.6253 79.4896 83.1878 77.7796 83.1878C79.4896 102.283 81.2221 111.823 82.9771 111.823L88.9846 117.02C88.1521 119.315 87.2971 120.463 86.4196 120.463H60.4171C58.3696 120.463 55.4821 119.608 51.7771 117.898V116.143C52.9021 116.143 55.1971 113.825 58.6621 109.183V72.7778H37.8646L18.8221 74.5328C17.6971 69.9428 17.1346 66.4778 17.1346 64.1303L17.9371 58.0478C16.8121 58.0478 16.2496 57.4853 16.2496 56.3603V28.6028C16.2496 26.5028 13.6396 23.0378 8.41211 18.2003V14.7578L8.43461 14.7653Z" fill="url(#paint0_linear_1686_3377)"/>
<path d="M91.7673 8.44922C93.2748 8.44922 94.5723 8.56172 95.6523 8.79422C102.852 8.56922 108.59 8.44922 112.857 8.44922H122.337L124.475 10.4592C124.587 10.0317 124.887 9.82172 125.375 9.82172L125.802 10.4592V24.8517H124.902C123.477 22.2342 122.765 20.4567 122.765 19.5117V18.1467C121.34 18.1467 119.907 16.5942 118.452 13.4892H113.712V30.5292C113.712 31.7517 113.57 33.3192 113.285 35.2242C113.57 35.5917 113.712 36.0342 113.712 36.5442C113.427 39.5592 113.285 41.6817 113.285 42.9042C113.285 44.8392 115.295 46.7367 119.307 48.5817V49.2642H97.7898V48.9192C101.232 46.9242 102.957 45.3642 102.957 44.2242C102.957 43.7367 103.1 43.3017 103.385 42.8967C103.1 40.4517 102.957 38.3292 102.957 36.5367V36.1917C102.957 32.4942 103.385 28.0392 104.24 22.8267C103.385 18.8142 102.957 15.6942 102.957 13.4742H98.6448C97.6173 14.3292 95.3298 18.1167 91.7673 24.8292H91.3398V10.7967L91.7673 8.44922Z" fill="url(#paint1_linear_1686_3377)"/>
<path d="M129.388 8.44922H131.826C132.111 8.44922 132.253 8.56172 132.253 8.79422L133.063 8.44922H147.583L143.143 12.8442V13.8267C143.143 16.8717 142.873 19.3467 142.333 21.2592C142.873 21.9717 143.143 23.5392 143.143 25.9542L143.953 25.6092H152.023L152.833 25.9542V12.8442L148.393 8.44922H168.208C168.208 8.67422 166.461 10.1442 162.958 12.8442V16.5567C162.958 17.6067 162.546 18.3942 161.721 18.9042C162.546 20.8092 162.958 22.1517 162.958 22.9167V34.3617C162.958 34.8192 162.546 35.0442 161.721 35.0442C162.546 42.4467 163.356 46.1442 164.158 46.1442L166.978 48.1917C166.581 49.0767 166.183 49.5192 165.786 49.5192H153.658C152.691 49.5192 151.341 49.1892 149.601 48.5367V47.8542C150.141 47.8542 151.221 46.9542 152.848 45.1617V31.0317H143.158V34.3617C142.363 36.8967 141.966 38.8167 141.966 40.1292C142.761 41.8392 143.301 43.7442 143.586 45.8517C143.931 45.8517 145.266 46.9617 147.598 49.1817V49.5267H127.828V48.8892C131.331 47.0367 133.078 45.4617 133.078 44.1492V38.0892C133.078 37.8642 133.206 37.7442 133.461 37.7442C133.461 37.5192 133.333 37.3992 133.078 37.3992L134.271 31.6767C133.731 29.9142 133.461 28.5717 133.461 27.6642L133.843 25.3167C133.333 25.3167 133.078 25.0917 133.078 24.6342V13.8342C133.078 13.0392 131.856 11.6967 129.403 9.82172V8.45672L129.388 8.44922Z" fill="url(#paint2_linear_1686_3377)"/>
</g>
<defs>
<linearGradient id="paint0_linear_1686_3377" x1="50.0371" y1="120.448" x2="50.0371" y2="14.7653" gradientUnits="userSpaceOnUse">
<stop stop-color="#BFBA9F"/>
<stop offset="0.3" stop-color="#8C8C84"/>
<stop offset="0.5" stop-color="#BFBA9F"/>
<stop offset="0.7" stop-color="#8C8C84"/>
<stop offset="1" stop-color="#BFBA9F"/>
</linearGradient>
<linearGradient id="paint1_linear_1686_3377" x1="108.575" y1="49.2717" x2="108.575" y2="8.44922" gradientUnits="userSpaceOnUse">
<stop stop-color="#BFBA9F"/>
<stop offset="0.3" stop-color="#8C8C84"/>
<stop offset="0.5" stop-color="#BFBA9F"/>
<stop offset="0.7" stop-color="#8C8C84"/>
<stop offset="1" stop-color="#BFBA9F"/>
</linearGradient>
<linearGradient id="paint2_linear_1686_3377" x1="148.003" y1="49.5267" x2="148.003" y2="8.44922" gradientUnits="userSpaceOnUse">
<stop stop-color="#BFBA9F"/>
<stop offset="0.3" stop-color="#8C8C84"/>
<stop offset="0.5" stop-color="#BFBA9F"/>
<stop offset="0.7" stop-color="#8C8C84"/>
<stop offset="1" stop-color="#BFBA9F"/>
</linearGradient>
<clipPath id="clip0_1686_3377">
<rect width="182.88" height="134.842" fill="white" transform="translate(0.626953 0.949219)"/>
</clipPath>
</defs>
</svg>
