<svg width="165" height="206" viewBox="0 0 165 206" fill="none" xmlns="http://www.w3.org/2000/svg">
<mask id="path-1-inside-1_772_1987" fill="white">
<path fill-rule="evenodd" clip-rule="evenodd" d="M0.141891 17.0449L7.19832 0.0828257C7.58112 0.0282403 7.9724 0 8.37029 0H10.6548L15.5837 11.1697L20.5126 0H111.888L117.132 12.0552L122.377 0H123.607L130.659 16.9528L137.712 0H156.481C161.026 0 164.709 3.68398 164.709 8.22838V187.627L157.759 203.996L151.812 190.661L145.099 205.709H67.2024L60.8478 190.435L54.502 205.688L46.69 187.416L38.8691 205.709H8.37027C3.82587 205.709 0.141891 202.026 0.141891 197.481V17.0449ZM97.0908 48.1031H67.7573C64.4055 48.1031 61.6883 50.8203 61.6883 54.1721V127C61.6883 130.352 64.4055 133.069 67.7573 133.069H97.0908C100.443 133.069 103.16 130.352 103.16 127V54.1721C103.16 50.8203 100.443 48.1031 97.0908 48.1031ZM67.7573 46.0801C63.2882 46.0801 59.6653 49.703 59.6653 54.1721V59.2296C59.1067 59.2296 58.6538 59.6824 58.6538 60.2411V62.2641C58.6538 62.8227 59.1067 63.2756 59.6653 63.2756V64.2871C59.1067 64.2871 58.6538 64.7399 58.6538 65.2986V69.3446C58.6538 69.9032 59.1067 70.3561 59.6653 70.3561V71.3676C59.1067 71.3676 58.6538 71.8204 58.6538 72.3791V78.4481C58.6538 79.0067 59.1067 79.4595 59.6653 79.4595V127C59.6653 131.469 63.2882 135.092 67.7573 135.092H97.0908C101.56 135.092 105.183 131.469 105.183 127V79.4595C105.741 79.4595 106.194 79.0067 106.194 78.4481V70.3561C106.194 69.7974 105.741 69.3446 105.183 69.3446V54.1721C105.183 49.703 101.56 46.0801 97.0908 46.0801H67.7573ZM74.8378 52.1491C74.8378 51.0318 75.7435 50.1261 76.8608 50.1261H88.9988C90.1161 50.1261 91.0218 51.0318 91.0218 52.1491C91.0218 53.2664 90.1161 54.1721 88.9988 54.1721H76.8608C75.7435 54.1721 74.8378 53.2664 74.8378 52.1491Z"/>
</mask>
<path fill-rule="evenodd" clip-rule="evenodd" d="M0.141891 17.0449L7.19832 0.0828257C7.58112 0.0282403 7.9724 0 8.37029 0H10.6548L15.5837 11.1697L20.5126 0H111.888L117.132 12.0552L122.377 0H123.607L130.659 16.9528L137.712 0H156.481C161.026 0 164.709 3.68398 164.709 8.22838V187.627L157.759 203.996L151.812 190.661L145.099 205.709H67.2024L60.8478 190.435L54.502 205.688L46.69 187.416L38.8691 205.709H8.37027C3.82587 205.709 0.141891 202.026 0.141891 197.481V17.0449ZM97.0908 48.1031H67.7573C64.4055 48.1031 61.6883 50.8203 61.6883 54.1721V127C61.6883 130.352 64.4055 133.069 67.7573 133.069H97.0908C100.443 133.069 103.16 130.352 103.16 127V54.1721C103.16 50.8203 100.443 48.1031 97.0908 48.1031ZM67.7573 46.0801C63.2882 46.0801 59.6653 49.703 59.6653 54.1721V59.2296C59.1067 59.2296 58.6538 59.6824 58.6538 60.2411V62.2641C58.6538 62.8227 59.1067 63.2756 59.6653 63.2756V64.2871C59.1067 64.2871 58.6538 64.7399 58.6538 65.2986V69.3446C58.6538 69.9032 59.1067 70.3561 59.6653 70.3561V71.3676C59.1067 71.3676 58.6538 71.8204 58.6538 72.3791V78.4481C58.6538 79.0067 59.1067 79.4595 59.6653 79.4595V127C59.6653 131.469 63.2882 135.092 67.7573 135.092H97.0908C101.56 135.092 105.183 131.469 105.183 127V79.4595C105.741 79.4595 106.194 79.0067 106.194 78.4481V70.3561C106.194 69.7974 105.741 69.3446 105.183 69.3446V54.1721C105.183 49.703 101.56 46.0801 97.0908 46.0801H67.7573ZM74.8378 52.1491C74.8378 51.0318 75.7435 50.1261 76.8608 50.1261H88.9988C90.1161 50.1261 91.0218 51.0318 91.0218 52.1491C91.0218 53.2664 90.1161 54.1721 88.9988 54.1721H76.8608C75.7435 54.1721 74.8378 53.2664 74.8378 52.1491Z" fill="#FBC25C"/>
<path d="M7.19832 0.0828257L5.35174 -0.685377L5.78899 -1.73644L6.91598 -1.89715L7.19832 0.0828257ZM0.141891 17.0449H-1.85811V16.6454L-1.70469 16.2766L0.141891 17.0449ZM10.6548 0V-2H11.9584L12.4846 -0.807425L10.6548 0ZM15.5837 11.1697L17.4135 11.9771L15.5837 16.1237L13.7539 11.9771L15.5837 11.1697ZM20.5126 0L18.6828 -0.807425L19.2091 -2H20.5126V0ZM111.888 0V-2H113.199L113.722 -0.797875L111.888 0ZM117.132 12.0552L118.966 12.8531L117.132 17.0685L115.298 12.8531L117.132 12.0552ZM122.377 0L120.543 -0.797874L121.066 -2H122.377V0ZM123.607 0V-2H124.941L125.453 -0.768203L123.607 0ZM130.659 16.9528L132.506 17.721L130.659 22.1598L128.813 17.721L130.659 16.9528ZM137.712 0L135.865 -0.768203L136.378 -2H137.712V0ZM164.709 187.627H166.709V188.034L166.55 188.409L164.709 187.627ZM157.759 203.996L159.6 204.777L157.805 209.007L155.933 204.81L157.759 203.996ZM151.812 190.661L149.985 189.847L151.812 185.752L153.638 189.847L151.812 190.661ZM145.099 205.709L146.926 206.524L146.397 207.709H145.099V205.709ZM67.2024 205.709V207.709H65.8682L65.3558 206.478L67.2024 205.709ZM60.8478 190.435L59.0012 189.666L60.8478 185.228L62.6944 189.666L60.8478 190.435ZM54.502 205.688L56.3485 206.457L54.5271 210.835L52.663 206.475L54.502 205.688ZM46.69 187.416L44.8511 186.63L46.69 182.329L48.529 186.63L46.69 187.416ZM38.8691 205.709L40.7081 206.496L40.1892 207.709H38.8691V205.709ZM59.6653 59.2296H61.6653V61.2296H59.6653V59.2296ZM59.6653 63.2756V61.2756H61.6653V63.2756H59.6653ZM59.6653 64.2871H61.6653V66.2871H59.6653V64.2871ZM59.6653 70.3561V68.3561H61.6653V70.3561H59.6653ZM59.6653 71.3676H61.6653V73.3676H59.6653V71.3676ZM59.6653 79.4595V77.4595H61.6653V79.4595H59.6653ZM105.183 79.4595H103.183V77.4595H105.183V79.4595ZM105.183 69.3446V71.3446H103.183V69.3446H105.183ZM7.19832 0.0828257L9.0449 0.851028L1.98847 17.8131L0.141891 17.0449L-1.70469 16.2766L5.35174 -0.685377L7.19832 0.0828257ZM8.37029 0V2C8.06715 2 7.77022 2.02151 7.48066 2.0628L7.19832 0.0828257L6.91598 -1.89715C7.39201 -1.96503 7.87764 -2 8.37029 -2V0ZM10.6548 0V2H8.37029V0V-2H10.6548V0ZM15.5837 11.1697L13.7539 11.9771L8.82507 0.807425L10.6548 0L12.4846 -0.807425L17.4135 10.3623L15.5837 11.1697ZM20.5126 0L22.3423 0.807425L17.4135 11.9771L15.5837 11.1697L13.7539 10.3623L18.6828 -0.807425L20.5126 0ZM111.888 0V2H20.5126V0V-2H111.888V0ZM117.132 12.0552L115.298 12.8531L110.054 0.797875L111.888 0L113.722 -0.797875L118.966 11.2573L117.132 12.0552ZM122.377 0L124.211 0.797874L118.966 12.8531L117.132 12.0552L115.298 11.2573L120.543 -0.797874L122.377 0ZM123.607 0V2H122.377V0V-2H123.607V0ZM130.659 16.9528L128.813 17.721L121.76 0.768203L123.607 0L125.453 -0.768203L132.506 16.1846L130.659 16.9528ZM137.712 0L139.558 0.768203L132.506 17.721L130.659 16.9528L128.813 16.1846L135.865 -0.768203L137.712 0ZM156.481 0V2H137.712V0V-2H156.481V0ZM164.709 8.22838H162.709C162.709 4.78854 159.921 2 156.481 2V0V-2C162.13 -2 166.709 2.57941 166.709 8.22838H164.709ZM164.709 187.627H162.709V8.22838H164.709H166.709V187.627H164.709ZM157.759 203.996L155.919 203.214L162.869 186.845L164.709 187.627L166.55 188.409L159.6 204.777L157.759 203.996ZM151.812 190.661L153.638 189.847L159.586 203.181L157.759 203.996L155.933 204.81L149.985 191.476L151.812 190.661ZM145.099 205.709L143.273 204.895L149.985 189.847L151.812 190.661L153.638 191.476L146.926 206.524L145.099 205.709ZM67.2024 205.709V203.709H145.099V205.709V207.709H67.2024V205.709ZM60.8478 190.435L62.6944 189.666L69.0489 204.941L67.2024 205.709L65.3558 206.478L59.0012 191.203L60.8478 190.435ZM54.502 205.688L52.6554 204.92L59.0012 189.666L60.8478 190.435L62.6944 191.203L56.3485 206.457L54.502 205.688ZM46.69 187.416L48.529 186.63L56.3409 204.902L54.502 205.688L52.663 206.475L44.8511 188.202L46.69 187.416ZM38.8691 205.709L37.0301 204.923L44.8511 186.63L46.69 187.416L48.529 188.202L40.7081 206.496L38.8691 205.709ZM8.37027 205.709V203.709H38.8691V205.709V207.709H8.37027V205.709ZM0.141891 197.481H2.14189C2.14189 200.921 4.93044 203.709 8.37027 203.709V205.709V207.709C2.7213 207.709 -1.85811 203.13 -1.85811 197.481H0.141891ZM0.141891 17.0449H2.14189V197.481H0.141891H-1.85811V17.0449H0.141891ZM67.7573 48.1031V46.1031H97.0908V48.1031V50.1031H67.7573V48.1031ZM61.6883 54.1721H59.6883C59.6883 49.7157 63.3009 46.1031 67.7573 46.1031V48.1031V50.1031C65.5101 50.1031 63.6883 51.9248 63.6883 54.1721H61.6883ZM61.6883 127H59.6883V54.1721H61.6883H63.6883V127H61.6883ZM67.7573 133.069V135.069C63.3009 135.069 59.6883 131.456 59.6883 127H61.6883H63.6883C63.6883 129.247 65.5101 131.069 67.7573 131.069V133.069ZM97.0908 133.069V135.069H67.7573V133.069V131.069H97.0908V133.069ZM103.16 127H105.16C105.16 131.456 101.547 135.069 97.0908 135.069V133.069V131.069C99.338 131.069 101.16 129.247 101.16 127H103.16ZM103.16 54.1721H105.16V127H103.16H101.16V54.1721H103.16ZM97.0908 48.1031V46.1031C101.547 46.1031 105.16 49.7157 105.16 54.1721H103.16H101.16C101.16 51.9248 99.338 50.1031 97.0908 50.1031V48.1031ZM59.6653 54.1721H57.6653C57.6653 48.5984 62.1836 44.0801 67.7573 44.0801V46.0801V48.0801C64.3928 48.0801 61.6653 50.8076 61.6653 54.1721H59.6653ZM59.6653 59.2296H57.6653V54.1721H59.6653H61.6653V59.2296H59.6653ZM58.6538 60.2411H56.6538C56.6538 58.5778 58.0021 57.2296 59.6653 57.2296V59.2296V61.2296C60.2112 61.2296 60.6538 60.787 60.6538 60.2411H58.6538ZM58.6538 62.2641H56.6538V60.2411H58.6538H60.6538V62.2641H58.6538ZM59.6653 63.2756V65.2756C58.0021 65.2756 56.6538 63.9273 56.6538 62.2641H58.6538H60.6538C60.6538 61.7181 60.2112 61.2756 59.6653 61.2756V63.2756ZM59.6653 64.2871H57.6653V63.2756H59.6653H61.6653V64.2871H59.6653ZM58.6538 65.2986H56.6538C56.6538 63.6354 58.0021 62.2871 59.6653 62.2871V64.2871V66.2871C60.2112 66.2871 60.6538 65.8445 60.6538 65.2986H58.6538ZM58.6538 69.3446H56.6538V65.2986H58.6538H60.6538V69.3446H58.6538ZM59.6653 70.3561V72.3561C58.0021 72.3561 56.6538 71.0078 56.6538 69.3446H58.6538H60.6538C60.6538 68.7987 60.2112 68.3561 59.6653 68.3561V70.3561ZM59.6653 71.3676H57.6653V70.3561H59.6653H61.6653V71.3676H59.6653ZM58.6538 72.3791H56.6538C56.6538 70.7158 58.0021 69.3676 59.6653 69.3676V71.3676V73.3676C60.2112 73.3676 60.6538 72.925 60.6538 72.3791H58.6538ZM58.6538 78.4481H56.6538V72.3791H58.6538H60.6538V78.4481H58.6538ZM59.6653 79.4595V81.4595C58.0021 81.4595 56.6538 80.1113 56.6538 78.4481H58.6538H60.6538C60.6538 77.9021 60.2112 77.4595 59.6653 77.4595V79.4595ZM59.6653 127H57.6653V79.4595H59.6653H61.6653V127H59.6653ZM67.7573 135.092V137.092C62.1836 137.092 57.6653 132.574 57.6653 127H59.6653H61.6653C61.6653 130.365 64.3928 133.092 67.7573 133.092V135.092ZM97.0908 135.092V137.092H67.7573V135.092V133.092H97.0908V135.092ZM105.183 127H107.183C107.183 132.574 102.664 137.092 97.0908 137.092V135.092V133.092C100.455 133.092 103.183 130.365 103.183 127H105.183ZM105.183 79.4595H107.183V127H105.183H103.183V79.4595H105.183ZM106.194 78.4481H108.194C108.194 80.1113 106.846 81.4595 105.183 81.4595V79.4595V77.4595C104.637 77.4595 104.194 77.9021 104.194 78.4481H106.194ZM106.194 70.3561H108.194V78.4481H106.194H104.194V70.3561H106.194ZM105.183 69.3446V67.3446C106.846 67.3446 108.194 68.6929 108.194 70.3561H106.194H104.194C104.194 70.902 104.637 71.3446 105.183 71.3446V69.3446ZM105.183 54.1721H107.183V69.3446H105.183H103.183V54.1721H105.183ZM97.0908 46.0801V44.0801C102.664 44.0801 107.183 48.5984 107.183 54.1721H105.183H103.183C103.183 50.8076 100.455 48.0801 97.0908 48.0801V46.0801ZM67.7573 46.0801V44.0801H97.0908V46.0801V48.0801H67.7573V46.0801ZM76.8608 50.1261V52.1261C76.8566 52.1261 76.8545 52.1265 76.854 52.1266C76.8534 52.1267 76.8529 52.1268 76.8524 52.1271C76.8511 52.1276 76.848 52.1293 76.8445 52.1328C76.841 52.1363 76.8393 52.1394 76.8388 52.1407C76.8386 52.1412 76.8384 52.1417 76.8383 52.1423C76.8382 52.1428 76.8378 52.1448 76.8378 52.1491H74.8378H72.8378C72.8378 49.9272 74.6389 48.1261 76.8608 48.1261V50.1261ZM88.9988 50.1261V52.1261H76.8608V50.1261V48.1261H88.9988V50.1261ZM91.0218 52.1491H89.0218C89.0218 52.1448 89.0214 52.1428 89.0213 52.1423C89.0212 52.1417 89.021 52.1412 89.0208 52.1407C89.0202 52.1394 89.0186 52.1363 89.0151 52.1328C89.0115 52.1293 89.0085 52.1276 89.0072 52.1271C89.0066 52.1268 89.0062 52.1267 89.0056 52.1266C89.0051 52.1265 89.003 52.1261 88.9988 52.1261V50.1261V48.1261C91.2207 48.1261 93.0218 49.9272 93.0218 52.1491H91.0218ZM88.9988 54.1721V52.1721C89.003 52.1721 89.0051 52.1717 89.0056 52.1716C89.0062 52.1714 89.0066 52.1713 89.0072 52.1711C89.0085 52.1705 89.0115 52.1689 89.0151 52.1653C89.0186 52.1618 89.0202 52.1587 89.0208 52.1574C89.021 52.1569 89.0212 52.1565 89.0213 52.1559C89.0214 52.1553 89.0218 52.1533 89.0218 52.1491H91.0218H93.0218C93.0218 54.371 91.2207 56.1721 88.9988 56.1721V54.1721ZM76.8608 54.1721V52.1721H88.9988V54.1721V56.1721H76.8608V54.1721ZM74.8378 52.1491H76.8378C76.8378 52.1533 76.8382 52.1553 76.8383 52.1559C76.8384 52.1565 76.8386 52.1569 76.8388 52.1574C76.8393 52.1587 76.841 52.1618 76.8445 52.1654C76.848 52.1689 76.8511 52.1705 76.8524 52.1711C76.8529 52.1713 76.8534 52.1714 76.854 52.1716C76.8545 52.1717 76.8566 52.1721 76.8608 52.1721V54.1721V56.1721C74.6389 56.1721 72.8378 54.3709 72.8378 52.1491H74.8378Z" fill="#E0A640" mask="url(#path-1-inside-1_772_1987)"/>
</svg>
