<svg width="166" height="135" viewBox="0 0 166 135" fill="none" xmlns="http://www.w3.org/2000/svg">
<path opacity="0.6" d="M164.629 30.7589L164.449 29.4389L163.826 28.2614C162.289 25.3664 161.681 23.9564 161.456 23.3564V21.9839L160.316 20.1614C155.284 12.0914 146.306 8.00391 133.631 8.00391H98.5013V8.88141C96.7612 8.22891 95.0887 8.00391 93.6187 8.00391H77.9662V21.8639L83.0062 24.2114V30.9314L81.7087 30.2039C80.0888 29.2964 78.9938 28.3064 78.4688 27.2489L78.0188 26.3564L77.3512 25.6064C76.1737 24.2864 74.4487 22.8164 72.0562 21.7814L71.8988 19.3814L67.5188 17.6264C61.0312 15.0314 52.9162 13.7114 43.3988 13.7114C43.0162 13.7114 42.6263 13.7114 42.2363 13.7114H41.4038L37.5262 14.6339L36.9712 14.8664C34.3312 15.9539 30.5887 17.4539 25.8263 19.3364C22.2638 17.2889 18.9113 16.2839 15.6562 16.2839H8.15625V86.5664L21.9188 65.7089C31.0312 51.8939 37.3088 46.2089 41.2612 43.9589C41.9963 43.8989 42.6937 43.8689 43.3462 43.8689C46.0762 43.8689 47.3363 44.4089 47.6213 44.6939C47.7338 44.8064 48.0112 45.3989 48.0037 46.8089V47.3264L48.0713 47.8439C49.4963 58.5464 45.7312 60.5264 43.8262 61.2914C33.4687 64.4189 25.5562 68.4914 19.7738 73.6964L18.9487 72.9764L15.4763 78.1289L13.9012 79.8614L14.0587 80.2439C10.6012 85.4639 8.83875 91.4039 8.82375 97.9064L8.17125 133.959L43.4137 133.681C45.9788 134.041 48.4987 134.229 50.9062 134.229C57.8587 134.229 64.2112 132.721 69.8587 129.744C73.1287 131.499 76.2188 132.354 79.2337 132.354H86.7337V63.8564H111.679V61.5914C111.994 62.0339 112.309 62.4764 112.624 62.9114L112.736 63.0689V63.4664H113.021L116.644 68.5814L125.081 63.5189C127.256 63.5714 129.326 63.6539 131.246 63.7889L131.509 63.8039H131.771C136.909 63.8039 142.324 62.9489 147.866 61.2689C150.311 60.7139 152.171 58.9589 154.369 56.4464C156.829 55.5689 159.589 53.6639 161.704 49.6814C163.399 46.4864 164.524 42.1889 165.146 36.5489L165.191 36.1364V35.7239C165.191 35.1014 165.154 34.3814 164.651 30.7289L164.629 30.7589ZM72.9637 82.9439C69.6187 88.0064 58.1587 104.551 50.7113 105.541C50.4112 105.564 50.1113 105.579 49.8112 105.579L45.9712 105.451L46.0762 99.2264L46.0013 98.6639C45.7687 96.9539 45.2287 92.9789 53.9737 88.9064C71.4937 83.5289 80.2913 73.8464 84.4688 63.8714H85.5638L72.9637 82.9439Z" fill="black" fill-opacity="0.6"/>
<path d="M157.128 23.2592L156.948 21.9392L156.326 20.7617C154.788 17.8667 154.181 16.4567 153.956 15.8567V14.4842L152.816 12.6617C147.783 4.59922 138.806 0.511719 126.131 0.511719H91.0009V1.38922C89.2609 0.736719 87.5884 0.511719 86.1184 0.511719H70.4659V14.3717L75.5059 16.7192V23.4392L74.2084 22.7117C72.5884 21.8042 71.4934 20.8142 70.9684 19.7567L70.5184 18.8642L69.8509 18.1142C68.6734 16.7942 66.9484 15.3242 64.5559 14.2892L64.3984 11.8892L60.0184 10.1342C53.5309 7.53922 45.4159 6.21922 35.8984 6.21922C35.5159 6.21922 35.1259 6.21922 34.7359 6.21922H33.9034L30.0259 7.14172L29.4709 7.37422C26.8309 8.46172 23.0884 9.96172 18.3259 11.8442C14.7634 9.79672 11.4109 8.79172 8.15594 8.79172H0.648438V79.0742L14.4109 58.2167C23.5234 44.4017 29.8009 38.7167 33.7534 36.4667C34.4884 36.4067 35.1859 36.3767 35.8384 36.3767C38.5684 36.3767 39.8284 36.9167 40.1134 37.2017C40.2259 37.3142 40.5034 37.9067 40.4959 39.3167V39.8342L40.5634 40.3517C41.9884 51.0542 38.2234 53.0342 36.3184 53.7992C25.9609 56.9267 18.0484 60.9992 12.2659 66.2042L11.4409 65.4842L7.96844 70.6367L6.39344 72.3692L6.55094 72.7517C3.09344 77.9717 1.33094 83.9117 1.31594 90.4142L0.655937 126.474L35.8984 126.197C38.4634 126.557 40.9834 126.744 43.3909 126.744C50.3434 126.744 56.6959 125.237 62.3434 122.259C65.6134 124.014 68.7034 124.869 71.7184 124.869H79.2184V56.3717H104.163V54.1067C104.478 54.5492 104.793 54.9917 105.108 55.4267L105.221 55.5842V55.9817H105.506L109.128 61.0967L117.566 56.0342C119.741 56.0867 121.811 56.1692 123.731 56.3042L123.993 56.3192H124.256C129.393 56.3192 134.808 55.4642 140.351 53.7842C142.796 53.2292 144.656 51.4742 146.853 48.9617C149.313 48.0842 152.073 46.1792 154.188 42.1967C155.883 39.0017 157.008 34.7042 157.631 29.0642L157.676 28.6517V28.2392C157.676 27.6167 157.638 26.8967 157.136 23.2442L157.128 23.2592ZM65.4634 75.4442C62.1184 80.5067 50.6584 97.0517 43.2109 98.0417C42.9109 98.0642 42.6109 98.0792 42.3109 98.0792L38.4709 97.9517L38.5759 91.7267L38.5009 91.1642C38.2684 89.4542 37.7284 85.4792 46.4734 81.4067C63.9934 76.0292 72.7909 66.3467 76.9684 56.3717H78.0634L65.4634 75.4442Z" fill="#8C8C8C"/>
<path d="M43.8188 74.378C62.4188 68.813 72.0938 57.5105 72.8213 40.4705C72.7237 36.2255 71.9662 32.4905 70.5487 29.2655C67.5712 27.608 65.4713 25.553 64.2487 23.1155C62.6362 21.308 60.3638 20.408 57.4388 20.408L57.2212 17.1155C51.3638 14.7755 43.8937 13.6505 34.8113 13.748C33.9788 13.943 33.1538 14.138 32.3213 14.333C28.9988 15.698 24.0412 17.678 17.4562 20.2655C13.8937 17.6255 10.7887 16.313 8.15625 16.313V54.1055C17.3363 40.193 25.3913 31.763 32.3288 28.838V29.0555H32.6213C42.9263 28.0805 48.0487 31.523 48.0037 39.383C49.5187 50.7605 46.4438 57.938 38.7788 60.9155C27.9863 64.1405 20.1037 68.483 15.1237 73.9505L18.0562 81.203L12.9263 76.733C10.1888 80.783 8.82375 85.373 8.82375 90.503L8.31375 118.921L36.4387 118.703C46.6912 120.263 55.3612 118.508 62.4412 113.431C66.0037 116.071 69.1087 117.383 71.7412 117.383V79.5905C60.9037 96.0005 51.6487 104.641 43.9837 105.518C43.3987 105.571 42.8138 105.593 42.2288 105.593L30.8737 105.226L31.0912 92.1905C30.0637 84.623 34.3162 78.6905 43.8337 74.393L43.8188 74.378Z" fill="url(#paint0_linear_1698_4134)"/>
<path d="M149.696 24.2789C147.536 20.2064 146.449 17.6639 146.449 16.6364C142.864 10.8839 136.084 8.01141 126.124 8.01141H118.691C118.301 8.01141 117.694 8.15391 116.899 8.41641V8.01141H98.4937V9.59391C101.029 11.1614 102.491 11.9414 102.889 11.9414V26.0714L94.9012 15.8639C92.4562 10.6289 89.5237 8.00391 86.1037 8.00391H77.9512V9.58641L82.9912 11.9339V45.7514C80.0587 46.8089 78.5962 47.8439 78.5962 48.8714H96.6562C96.6562 47.8439 95.2012 46.8089 92.2987 45.7514V26.0639C93.5512 26.8589 94.1737 27.6464 94.1737 28.4114C100.549 36.4964 106.226 44.0564 111.214 51.0839L112.496 50.3114L111.859 44.8064V27.6389L112.496 23.7089C112.069 23.7089 111.859 22.9289 111.859 21.3614V15.0839C111.859 12.4064 112.759 10.7039 114.551 9.98391V10.0064C116.711 10.0064 118.099 12.6539 118.691 17.9489C118.091 20.9114 117.791 25.3364 117.791 31.2314V32.8964C117.791 33.5789 118.406 35.1314 119.629 37.5539V37.8539H119.156L118.219 37.5539L117.791 41.5214V44.1689L112.706 48.1364V48.4814H113.606C117.446 48.4814 120.994 48.5939 124.241 48.8264C128.794 48.8264 133.579 48.0464 138.589 46.4789C138.956 46.4789 140.351 45.0389 142.774 42.1664C146.674 42.1664 149.134 37.5239 150.161 28.2464C150.161 27.8789 150.004 26.5514 149.689 24.2789H149.696ZM139.069 27.2714V31.2389C137.704 39.2114 134.314 43.1939 128.906 43.1939H128.434V13.9889L127.961 13.3514L130.736 13.6514C135.206 13.6514 137.981 17.4089 139.061 24.9239V26.2889L139.534 26.9264C139.219 26.9264 139.061 27.0389 139.061 27.2714H139.069Z" fill="url(#paint1_linear_1698_4134)"/>
<defs>
<linearGradient id="paint0_linear_1698_4134" x1="40.4888" y1="119.243" x2="40.4888" y2="13.733" gradientUnits="userSpaceOnUse">
<stop stop-color="#E6E6E6"/>
<stop offset="0.27" stop-color="#B3B3B3"/>
<stop offset="0.47" stop-color="#E6E6E6"/>
<stop offset="0.75" stop-color="#B3B3B3"/>
<stop offset="0.94" stop-color="#E6E6E6" stop-opacity="0.91"/>
</linearGradient>
<linearGradient id="paint1_linear_1698_4134" x1="114.064" y1="51.0989" x2="114.064" y2="8.01141" gradientUnits="userSpaceOnUse">
<stop stop-color="#E6E6E6"/>
<stop offset="0.27" stop-color="#B3B3B3"/>
<stop offset="0.47" stop-color="#E6E6E6"/>
<stop offset="0.75" stop-color="#B3B3B3"/>
<stop offset="0.94" stop-color="#E6E6E6" stop-opacity="0.91"/>
</linearGradient>
</defs>
</svg>
