<svg width="349" height="250" viewBox="0 0 349 250" fill="none" xmlns="http://www.w3.org/2000/svg">
<g clip-path="url(#clip0_1789_3594)">
<path d="M-17.4185 146.083L134.811 191.757L140.427 192.886L343.174 252.483L350.431 194.573L212.214 180.929L348.223 158.32L321.134 85.9677L204.987 158.744L300.833 42.0905L224.569 -9.63173L176.205 152.959L183.296 -18.0794L106.825 -9.7326L148.255 153.938L67.4794 18.0231L27.6447 59.9618L139.908 166.396L0.108087 102.488L-17.4185 146.083Z" fill="url(#paint0_radial_1789_3594)"/>
<mask id="path-2-inside-1_1789_3594" fill="white">
<path d="M179.534 72.5703C182.429 72.5703 185.287 72.73 188.1 73.04C168.945 83.0467 155.871 103.101 155.871 126.208C155.871 159.316 182.71 186.155 215.818 186.155C230.012 186.155 243.053 181.221 253.322 172.976C243.499 204.381 214.178 227.172 179.534 227.172C136.842 227.172 102.233 192.563 102.233 149.871C102.233 107.179 136.842 72.5704 179.534 72.5703Z"/>
</mask>
<path d="M179.534 72.5703C182.429 72.5703 185.287 72.73 188.1 73.04C168.945 83.0467 155.871 103.101 155.871 126.208C155.871 159.316 182.71 186.155 215.818 186.155C230.012 186.155 243.053 181.221 253.322 172.976C243.499 204.381 214.178 227.172 179.534 227.172C136.842 227.172 102.233 192.563 102.233 149.871C102.233 107.179 136.842 72.5704 179.534 72.5703Z" fill="#583311"/>
<path d="M179.534 72.5703V69.4152H179.534L179.534 72.5703ZM188.1 73.04L189.561 75.8366L198.744 71.0391L188.445 69.9039L188.1 73.04ZM155.871 126.208H152.716V126.208L155.871 126.208ZM215.818 186.155L215.818 189.31H215.818V186.155ZM253.322 172.976L256.334 173.918L259.427 164.027L251.347 170.515L253.322 172.976ZM179.534 227.172L179.534 230.327H179.534V227.172ZM102.233 149.871H99.0783H102.233ZM179.534 72.5703V75.7254C182.313 75.7254 185.056 75.8787 187.754 76.1762L188.1 73.04L188.445 69.9039C185.519 69.5813 182.545 69.4152 179.534 69.4152V72.5703ZM188.1 73.04L186.639 70.2435C166.484 80.7727 152.716 101.88 152.716 126.208H155.871H159.026C159.026 104.321 171.406 85.3207 189.561 75.8366L188.1 73.04ZM155.871 126.208L152.716 126.208C152.716 161.058 180.968 189.31 215.818 189.31L215.818 186.155L215.818 183C184.453 183 159.026 157.573 159.026 126.208L155.871 126.208ZM215.818 186.155V189.31C230.757 189.31 244.489 184.114 255.298 175.436L253.322 172.976L251.347 170.515C241.618 178.327 229.268 183 215.818 183V186.155ZM253.322 172.976L250.311 172.034C240.887 202.161 212.759 224.017 179.534 224.017V227.172V230.327C215.597 230.327 246.11 206.602 256.334 173.918L253.322 172.976ZM179.534 227.172L179.534 224.017C138.585 224.017 105.389 190.821 105.389 149.871H102.233H99.0783C99.0783 194.306 135.1 230.327 179.534 230.327L179.534 227.172ZM102.233 149.871H105.389C105.389 108.922 138.585 75.7256 179.534 75.7254L179.534 72.5703L179.534 69.4152C135.1 69.4153 99.0783 105.437 99.0783 149.871H102.233Z" fill="#583311" mask="url(#path-2-inside-1_1789_3594)"/>
<path d="M231.339 138.83L225.284 122.36L231.339 110.434L237.905 125.2L231.339 138.83Z" fill="#A88771" stroke="#583311" stroke-width="0.631027"/>
<path d="M133.531 249.26L127.476 232.79L133.531 220.863L140.096 235.629L133.531 249.26Z" fill="#583311" fill-opacity="0.5" stroke="#583311" stroke-width="0.315514"/>
<path d="M60.9616 211.396L54.9062 194.926L60.9616 183L67.5268 197.766L60.9616 211.396Z" fill="#583311" fill-opacity="0.5" stroke="#583311" stroke-width="0.315514"/>
<path d="M212.409 224.017L206.354 207.548L212.409 195.621L218.974 210.387L212.409 224.017Z" fill="#A88771" fill-opacity="0.5" stroke="#583311" stroke-width="0.315514"/>
<path d="M109.675 100.968L99.0781 73.518L109.675 53.6406L121.164 78.2507L109.675 100.968Z" fill="#583311" fill-opacity="0.5" stroke="#583311" stroke-width="0.315514"/>
<path d="M122.55 110.436L118.009 101.286L122.55 94.6602L127.474 102.864L122.55 110.436Z" fill="#A88771" stroke="#583311" stroke-width="0.315514"/>
<path d="M239.291 148.295L234.749 139.145L239.291 132.52L244.214 140.723L239.291 148.295Z" fill="#583311" fill-opacity="0.5" stroke="#583311" stroke-width="0.631027"/>
<path d="M49.9829 217.705L45.4414 208.555L49.9829 201.93L54.9068 210.133L49.9829 217.705Z" fill="#A88771" fill-opacity="0.5" stroke="#583311" stroke-width="0.315514"/>
<path d="M226.543 233.484L218.974 213.354L226.543 198.777L234.749 216.825L226.543 233.484Z" fill="#583311" fill-opacity="0.5" stroke="#583311" stroke-width="0.315514"/>
<path d="M141.482 227.174L136.94 218.024L141.482 211.398L146.406 219.602L141.482 227.174Z" fill="#A88771" fill-opacity="0.5" stroke="#583311" stroke-width="0.315514"/>
</g>
<defs>
<radialGradient id="paint0_radial_1789_3594" cx="0" cy="0" r="1" gradientUnits="userSpaceOnUse" gradientTransform="translate(180.627 110.971) rotate(101.364) scale(106.709 187.244)">
<stop stop-color="#A88771" stop-opacity="0.56"/>
<stop offset="1" stop-color="#A88771" stop-opacity="0"/>
</radialGradient>
<clipPath id="clip0_1789_3594">
<rect width="348.147" height="248.828" fill="white" transform="translate(0.350586 0.429688)"/>
</clipPath>
</defs>
</svg>
