<svg width="191" height="206" viewBox="0 0 191 206" fill="none" xmlns="http://www.w3.org/2000/svg">
<mask id="path-1-inside-1_835_1464" fill="white">
<path fill-rule="evenodd" clip-rule="evenodd" d="M170.585 0.0827901L177.642 17.0454V197.481C177.642 202.026 173.958 205.709 169.413 205.709H138.912L131.091 187.416L123.281 205.684L116.937 190.435L110.582 205.709H32.6826L25.9703 190.661L20.023 203.994L13.0742 187.628V8.22838C13.0742 3.68398 16.7582 0 21.3026 0H40.0712L47.1235 16.9521L54.1758 0H55.4064L60.6508 12.0547L65.8953 0H157.273L162.202 11.1698L167.131 0H169.413C169.811 0 170.202 0.028228 170.585 0.0827901Z"/>
</mask>
<path fill-rule="evenodd" clip-rule="evenodd" d="M170.585 0.0827901L177.642 17.0454V197.481C177.642 202.026 173.958 205.709 169.413 205.709H138.912L131.091 187.416L123.281 205.684L116.937 190.435L110.582 205.709H32.6826L25.9703 190.661L20.023 203.994L13.0742 187.628V8.22838C13.0742 3.68398 16.7582 0 21.3026 0H40.0712L47.1235 16.9521L54.1758 0H55.4064L60.6508 12.0547L65.8953 0H157.273L162.202 11.1698L167.131 0H169.413C169.811 0 170.202 0.028228 170.585 0.0827901Z" fill="url(#paint0_linear_835_1464)"/>
<path d="M170.585 0.0827901L172.864 -0.86537L172.325 -2.1627L170.934 -2.36101L170.585 0.0827901ZM177.642 17.0454H180.11V16.5524L179.921 16.0973L177.642 17.0454ZM138.912 205.709L136.643 206.68L137.283 208.178H138.912V205.709ZM131.091 187.416L133.361 186.446L131.091 181.137L128.822 186.446L131.091 187.416ZM123.281 205.684L121.002 206.632L123.25 212.036L125.551 206.655L123.281 205.684ZM116.937 190.435L119.216 189.486L116.937 184.008L114.658 189.486L116.937 190.435ZM110.582 205.709V208.178H112.229L112.862 206.658L110.582 205.709ZM32.6826 205.709L30.4282 206.715L31.0807 208.178H32.6826V205.709ZM25.9703 190.661L28.2247 189.656L25.9703 184.601L23.7158 189.656L25.9703 190.661ZM20.023 203.994L17.7508 204.959L19.9672 210.179L22.2774 205L20.023 203.994ZM13.0742 187.628H10.6057V188.131L10.802 188.593L13.0742 187.628ZM40.0712 0L42.3503 -0.94816L41.7178 -2.46851H40.0712V0ZM47.1235 16.9521L44.8443 17.9003L47.1235 23.3789L49.4027 17.9003L47.1235 16.9521ZM54.1758 0V-2.46851H52.5291L51.8967 -0.94816L54.1758 0ZM55.4064 0L57.6699 -0.984782L57.0244 -2.46851H55.4064V0ZM60.6508 12.0547L58.3873 13.0395L60.6508 18.2424L62.9144 13.0395L60.6508 12.0547ZM65.8953 0V-2.46851H64.2772L63.6317 -0.984782L65.8953 0ZM157.273 0L159.531 -0.996571L158.882 -2.46851H157.273V0ZM162.202 11.1698L159.943 12.1664L162.202 17.2843L164.46 12.1664L162.202 11.1698ZM167.131 0V-2.46851H165.522L164.872 -0.996571L167.131 0ZM168.306 1.03095L175.363 17.9936L179.921 16.0973L172.864 -0.86537L168.306 1.03095ZM175.173 17.0454V197.481H180.11V17.0454H175.173ZM175.173 197.481C175.173 200.662 172.594 203.241 169.413 203.241V208.178C175.321 208.178 180.11 203.389 180.11 197.481H175.173ZM169.413 203.241H138.912V208.178H169.413V203.241ZM141.182 204.739L133.361 186.446L128.822 188.386L136.643 206.68L141.182 204.739ZM128.822 186.446L121.011 204.714L125.551 206.655L133.361 188.386L128.822 186.446ZM125.56 204.736L119.216 189.486L114.658 191.383L121.002 206.632L125.56 204.736ZM114.658 189.486L108.303 204.761L112.862 206.658L119.216 191.383L114.658 189.486ZM110.582 203.241H32.6826V208.178H110.582V203.241ZM34.937 204.704L28.2247 189.656L23.7158 191.667L30.4282 206.715L34.937 204.704ZM23.7158 189.656L17.7686 202.989L22.2774 205L28.2247 191.667L23.7158 189.656ZM22.2952 203.03L15.3464 186.664L10.802 188.593L17.7508 204.959L22.2952 203.03ZM15.5427 187.628V8.22838H10.6057V187.628H15.5427ZM15.5427 8.22838C15.5427 5.0473 18.1215 2.46851 21.3026 2.46851V-2.46851C15.3949 -2.46851 10.6057 2.32065 10.6057 8.22838H15.5427ZM21.3026 2.46851H40.0712V-2.46851H21.3026V2.46851ZM37.792 0.94816L44.8443 17.9003L49.4027 16.004L42.3503 -0.94816L37.792 0.94816ZM49.4027 17.9003L56.455 0.94816L51.8967 -0.94816L44.8443 16.004L49.4027 17.9003ZM54.1758 2.46851H55.4064V-2.46851H54.1758V2.46851ZM53.1428 0.984782L58.3873 13.0395L62.9144 11.0699L57.6699 -0.984782L53.1428 0.984782ZM62.9144 13.0395L68.1589 0.984782L63.6317 -0.984782L58.3873 11.0699L62.9144 13.0395ZM65.8953 2.46851H157.273V-2.46851H65.8953V2.46851ZM155.015 0.996571L159.943 12.1664L164.46 10.1732L159.531 -0.996571L155.015 0.996571ZM164.46 12.1664L169.389 0.996571L164.872 -0.996571L159.943 10.1732L164.46 12.1664ZM167.131 2.46851H169.413V-2.46851H167.131V2.46851ZM169.413 2.46851C169.694 2.46851 169.969 2.48843 170.237 2.52659L170.934 -2.36101C170.436 -2.43198 169.928 -2.46851 169.413 -2.46851V2.46851Z" fill="url(#paint1_linear_835_1464)" mask="url(#path-1-inside-1_835_1464)"/>
<g clip-path="url(#clip0_835_1464)">
<path d="M29.5514 93.1767C31.7075 74.5802 44.186 37.4682 76.851 37.7916C72.9701 31.6469 67.4181 31.4583 65.1272 32.1321C67.8223 30.7845 76.3659 29.3022 88.9792 34.1534C88.9792 31.2429 83.8584 26.7421 81.298 24.8555C88.4401 25.5289 108.095 27.0279 123.342 37.7916C130.215 42.6434 133.425 45.6779 137.46 51.9416M29.5514 93.1767C20.5227 123.941 10.6316 187.721 43.2966 196.729C43.3752 196.751 43.4546 196.773 43.5347 196.794M29.5514 93.1767C28.7844 98.6893 29.3304 106.132 32.5359 113.391M137.46 51.9416C139.714 56.1561 142.109 60.8712 144.545 65.9498M137.46 51.9416C140.193 56.1833 142.58 60.9665 144.545 65.9498M111.618 144.52L112.97 150.179M150.253 101.263C149.787 104.444 149.62 105.305 146.79 110.965C143.96 116.625 137.407 127.422 123.127 132.796M150.253 101.263C156.241 124.037 162.556 172.01 139.917 181.712M150.253 101.263C151.659 91.6646 149.377 78.2024 144.545 65.9498M139.917 181.712C139.468 179.317 138.862 176.73 138.142 174.031M139.917 181.712C140.274 183.23 140.546 185.278 140.479 187.372M123.127 132.796C126.834 141.115 134.197 159.245 138.142 174.031M123.127 132.796C115.516 141.851 113.184 148.158 112.97 150.179M123.127 132.796C119.214 134.268 114.558 135.498 108.927 136.434M123.127 187.372L120.607 179.489M123.127 187.372C81.5575 195.134 53.228 191.415 44.2595 188.585M123.127 187.372C123.725 189.499 124.748 192.649 126.981 194.705M120.607 179.489L118.087 171.606L112.97 150.179M120.607 179.489C125.052 178.883 134.782 176.942 138.142 174.031M140.479 187.372C140.455 188.119 140.388 188.872 140.266 189.609C139.7 193.045 137.949 196.136 133.853 196.67C133.038 196.777 132.284 196.792 131.588 196.729M140.479 187.372C142.717 186.609 147.679 186.08 149.62 190.068M149.62 190.068C151.79 189.901 154.08 189.551 156.492 188.989C187.654 174.851 164.699 107.963 144.545 65.9498M149.62 190.068C150.428 191.73 150.833 195.215 145.981 195.862C156.492 197.075 153.662 213.65 138.704 210.011C138.255 215.833 133.666 214.863 131.428 213.65M131.428 213.65C131.669 208.973 132.039 199.041 131.588 196.729M131.428 213.65C131.263 215.153 131.06 216.947 130.831 218.905M126.981 244.374C122.129 246.126 108.061 248.498 97.0646 245.587M126.981 244.374C128.598 242.757 131.023 251.651 126.981 254.077C126.685 254.254 126.275 254.41 125.768 254.547M126.981 244.374C128.049 241.17 129.742 228.188 130.831 218.905M131.588 196.729C129.646 196.555 128.148 195.78 126.981 194.705M97.0646 245.587C95.4475 249.468 97.4689 253.403 98.6817 254.885C99.7553 254.957 100.986 255.03 102.32 255.097M97.0646 245.587C95.717 239.927 92.1324 227.476 88.5748 222.948C87.1222 222.844 85.4366 222.488 83.7236 222.008M102.32 255.097C103.129 257.856 105.069 263.375 106.363 263.375C107.98 263.375 127.385 264.184 128.598 261.758C128.598 259.818 126.711 259.332 125.768 259.332V254.547M102.32 255.097C110.116 255.491 121.457 255.71 125.768 254.547M32.5359 113.391C25.8835 142.215 33.1832 163.862 38.8408 173.223M32.5359 113.391C36.3411 122.007 43.8936 130.364 57.446 134.924M53.8302 248.966C51.5615 243.459 47.7048 232.192 44.8748 216.48M53.8302 248.966C57.4254 250.264 67.8515 252.022 76.0007 249.865M53.8302 248.966C52.6317 247.768 50.8341 254.359 53.8302 256.156C54.0491 256.288 54.3529 256.403 54.729 256.505M65.5314 137.03C70.9491 138.073 77.1178 138.595 84.1279 138.455C84.6723 138.444 85.2113 138.432 85.7449 138.418M65.5314 137.03C62.6247 136.471 59.9342 135.761 57.446 134.924M65.5314 137.03C65.2036 137.506 64.8801 137.981 64.561 138.455M44.2595 188.585C39.0814 190.337 30.7485 189.717 38.8408 173.223M44.2595 188.585C44.7554 184.874 45.4971 181.025 46.5307 177.045M44.2595 188.585C43.8831 191.401 43.6482 194.139 43.5347 196.794M38.8408 173.223C43.156 161.975 52.9182 138.567 57.446 134.924M38.8408 173.223C39.6523 174.423 42.3263 176.869 46.5307 177.045M46.5307 177.045C49.5882 165.272 55.2 152.354 64.561 138.455M64.561 138.455C66.9058 141.555 72.2423 147.915 74.8296 148.562C77.7404 148.562 83.3193 141.799 85.7449 138.418M85.7449 138.418C87.4968 142.069 91.5664 149.533 93.8304 150.179C95.7709 151.15 97.4688 149.371 98.2773 148.562C102.418 144.294 104.755 141.475 108.927 136.434M85.7449 138.418C94.9438 138.178 102.559 137.493 108.927 136.434M126.981 194.705C121.846 196.233 116.702 197.434 111.618 198.36M55.8289 199.238C54.1888 203.772 49.7019 213.569 44.8748 216.48M55.8289 199.238C69.7209 201.276 90.1229 202.277 111.618 198.36M55.8289 199.238C50.787 198.498 46.6026 197.622 43.5347 196.794M44.8748 216.48C43.8072 210.553 43.2277 203.972 43.5347 196.794M111.618 198.36C113.781 203.592 120.651 215.024 130.831 218.905M74.4254 218.501C76.3474 219.416 80.097 220.991 83.7236 222.008M83.7236 222.008C81.0285 229.598 76.0007 246.307 76.0007 249.865M76.0007 249.865C77.1991 252.741 75.7011 255.657 74.8023 256.756C74.0066 256.809 73.0947 256.862 72.1059 256.912M72.1059 256.912C71.5067 258.957 70.0686 263.047 69.1099 263.047C67.9115 263.047 53.5306 263.647 52.6317 261.849C52.6317 260.411 54.0299 260.051 54.729 260.051V256.505M72.1059 256.912C66.3281 257.204 57.9237 257.367 54.729 256.505M65.5314 158.265C64.5073 162.712 62.6693 172.576 63.5101 176.457C64.3508 180.338 72.4848 185.89 76.4467 188.181C78.5442 189.394 82.915 188.989 85.7449 187.372C92.6562 184.339 96.4353 182.047 103.129 177.67C103.263 175.783 103.614 168.614 103.937 158.265C97.1454 156.001 75.5034 157.321 65.5314 158.265Z" stroke="black" stroke-width="1.61708" stroke-linecap="round"/>
<path d="M80.8726 166.082C77.1008 167.279 75.3837 174.497 74.9654 178.889C74.6756 181.92 76.0906 181.259 77.391 180.506C81.2779 178.256 87.1833 173.739 86.975 169.995M80.8726 166.082C81.9607 165.737 83.2197 165.892 84.6679 166.761C86.2265 167.696 86.9088 168.807 86.975 169.995M80.8726 166.082C78.6026 165.144 80.2197 159.895 84.2624 162.32C85.0709 158.279 91.9435 162.726 88.7094 165.15C91.5393 167.172 89.5179 171.208 86.975 169.995" stroke="black" stroke-width="1.61708"/>
<path d="M67.9999 83.8418C66.0198 90.2406 62.3626 94.7929 56.6906 93.0377C51.3819 91.395 50.5717 85.4603 52.5518 79.0615C54.5319 72.6627 57.8502 68.1124 63.914 69.3247C69.1697 70.9424 69.98 77.443 67.9999 83.8418Z" fill="black"/>
<path d="M108.025 81.1447C107.553 87.8262 109.314 93.3939 115.236 93.812C120.78 94.2034 123.684 88.9649 124.156 82.2834C124.628 75.6018 123.182 70.1587 117.091 69.0926C111.606 68.6972 108.497 74.4631 108.025 81.1447Z" fill="black"/>
<path d="M46.5303 70.133C47.4736 64.8775 52.6752 55.6601 65.9353 60.8348" stroke="black" stroke-width="1.61708" stroke-linecap="round"/>
<path d="M128.631 71.0635C128.03 65.758 123.435 56.2235 109.868 60.5297" stroke="black" stroke-width="1.61708" stroke-linecap="round"/>
<circle cx="43.2963" cy="93.58" r="0.404271" fill="black" stroke="black" stroke-width="0.808541"/>
<circle cx="0.808541" cy="0.808541" r="0.404271" transform="matrix(-1 0 0 1 129.81 95.1973)" fill="black" stroke="black" stroke-width="0.808541"/>
<circle cx="44.9135" cy="101.666" r="0.404271" fill="black" stroke="black" stroke-width="0.808541"/>
<circle cx="0.808541" cy="0.808541" r="0.404271" transform="matrix(-1 0 0 1 128.193 103.283)" fill="black" stroke="black" stroke-width="0.808541"/>
<circle cx="50.5732" cy="94.3886" r="0.404271" fill="black" stroke="black" stroke-width="0.808541"/>
<circle cx="0.808541" cy="0.808541" r="0.404271" transform="matrix(-1 0 0 1 122.533 96.0059)" fill="black" stroke="black" stroke-width="0.808541"/>
<path d="M82.5109 101.261C79.2768 98.9702 72.9702 93.8225 73.617 91.5586M82.5109 101.261L92.6177 93.1757M82.5109 101.261V105.708M82.5109 105.708L79.6811 108.942M82.5109 105.708L85.7451 108.942" stroke="black" stroke-width="1.61708" stroke-linecap="round"/>
<path d="M74.8296 89.135C77.5247 87.9222 84.8555 86.3859 92.6175 89.9435" stroke="black" stroke-width="1.61708" stroke-linecap="round"/>
<path d="M69.3448 144.171C68.9569 143.646 68.1361 143.736 67.9277 144.355C67.2205 146.458 66.2737 149.851 66.072 152.471C66.0339 152.965 66.4749 153.344 66.9668 153.279C76.7425 151.993 96.8115 152.592 103.016 153.292C103.509 153.348 103.941 152.966 103.968 152.47C104.106 150.021 104.749 147.372 105.561 144.926C105.87 143.997 104.069 142.867 103.415 143.596C100.318 147.052 98.0073 149.214 95.545 150.583C93.0176 151.591 87.8638 139.264 85.0339 139.668C82.204 140.072 76.9485 148.562 74.5229 148.562C72.8408 148.562 70.5755 145.84 69.3448 144.171Z" stroke="black" stroke-width="1.61708"/>
</g>
<path d="M190.717 178.097L177.643 186.812V158.124L190.717 155.219L182.001 172.649L190.717 178.097Z" fill="#B9B9B9"/>
<path d="M0 182.413L13.0742 186.811V162.44L0 159.535L6.47115 172.484L0 182.413Z" fill="#B9B9B9"/>
<rect x="9.58398" y="151.406" width="169.461" height="35" fill="#D9D9D9"/>
<path d="M43.5301 174.631H42.3289C41.5086 174.631 40.6069 174.436 39.6238 174.045C38.6408 173.648 37.9148 173.156 37.4461 172.57C37.4005 172.518 37.3452 172.434 37.2801 172.316C37.2215 172.193 37.1824 172.115 37.1629 172.082C37.1629 171.945 37.0587 171.665 36.8504 171.242C36.6486 170.812 36.5411 170.575 36.5281 170.529L36.7039 170.051L36.323 169.943C36.2124 169.605 36.1408 169.11 36.1082 168.459C36.0757 167.808 36.0333 167.355 35.9813 167.102L36.1668 166.945L35.9813 166.77C35.9943 166.711 36.0203 166.62 36.0594 166.496C36.1049 166.372 36.1342 166.281 36.1473 166.223C36.323 165.201 36.6681 164.279 37.1824 163.459C37.6967 162.639 38.3771 161.968 39.2234 161.447C39.3406 161.376 39.4676 161.307 39.6043 161.242C39.741 161.177 39.9038 161.102 40.0926 161.018C40.2814 160.933 40.4116 160.874 40.4832 160.842C40.5092 160.855 40.5646 160.897 40.6492 160.969C40.7404 161.034 40.799 161.066 40.825 161.066C40.8445 161.066 40.8608 161.044 40.8738 160.998C40.8868 160.946 40.8966 160.891 40.9031 160.832C40.9161 160.773 40.9292 160.738 40.9422 160.725C41.3979 160.699 41.7332 160.64 41.948 160.549C42.0066 160.549 42.0978 160.546 42.2215 160.539C42.3517 160.533 42.4461 160.529 42.5047 160.529C42.6414 160.529 42.8497 160.539 43.1297 160.559C43.4096 160.578 43.6212 160.588 43.7645 160.588C43.8296 160.588 43.9305 160.578 44.0672 160.559C44.2039 160.539 44.3048 160.529 44.3699 160.529C44.5327 160.529 44.7052 160.539 44.8875 160.559C45.0763 160.572 45.2358 160.588 45.366 160.607C45.4962 160.627 45.6688 160.656 45.8836 160.695C46.1049 160.728 46.271 160.751 46.3816 160.764V160.783L46.7234 160.686L47.0066 160.871C46.9871 160.956 46.9578 161.057 46.9188 161.174C46.8797 161.285 46.8504 161.382 46.8309 161.467C46.8178 161.551 46.8146 161.659 46.8211 161.789L46.8504 161.828L46.6844 162.746L46.6453 162.785C46.5542 163.039 46.4891 163.299 46.45 163.566L46.4695 163.645C46.3784 163.794 46.31 163.967 46.2645 164.162C46.2124 164.195 46.1408 164.26 46.0496 164.357C45.965 164.449 45.8966 164.51 45.8445 164.543L45.6688 164.445C45.6688 164.439 45.6785 164.393 45.698 164.309C45.7176 164.217 45.7273 164.149 45.7273 164.104C45.7273 163.869 45.672 163.654 45.5613 163.459C45.4507 163.257 45.3074 163.094 45.1316 162.971C44.9559 162.84 44.754 162.733 44.5262 162.648C44.3048 162.557 44.0835 162.495 43.8621 162.463C43.6408 162.424 43.4227 162.404 43.2078 162.404C42.993 162.404 42.6837 162.447 42.2801 162.531C41.8764 162.616 41.577 162.661 41.3816 162.668C41.3426 162.688 41.1928 162.756 40.9324 162.873C40.672 162.99 40.4767 163.094 40.3465 163.186L40.0633 163.107V163.186C40.0633 163.225 40.0698 163.283 40.0828 163.361C40.0958 163.433 40.1023 163.488 40.1023 163.527C39.8029 163.638 39.5294 163.944 39.282 164.445C39.0346 164.94 38.9012 165.373 38.8816 165.744C38.8165 165.816 38.7579 165.923 38.7059 166.066C38.6603 166.21 38.6473 166.324 38.6668 166.408C38.6408 166.512 38.6277 166.597 38.6277 166.662C38.6277 166.747 38.6505 166.857 38.6961 166.994C38.7482 167.131 38.7775 167.229 38.784 167.287C38.7579 167.378 38.7449 167.525 38.7449 167.727C38.7449 168.417 38.8296 169.009 38.9988 169.504C39.1746 169.992 39.4708 170.539 39.8875 171.145C40.0112 171.327 40.1447 171.486 40.2879 171.623C40.4311 171.753 40.5939 171.861 40.7762 171.945C40.9585 172.023 41.118 172.089 41.2547 172.141C41.3979 172.193 41.59 172.232 41.8309 172.258C42.0717 172.277 42.254 172.294 42.3777 172.307C42.5079 172.313 42.7163 172.32 43.0027 172.326L43.2273 172.707L43.4422 172.326C44.0411 172.326 44.5815 172.209 45.0633 171.975C45.5516 171.74 45.9324 171.379 46.2059 170.891L46.3426 170.822C46.4272 170.972 46.4695 171.187 46.4695 171.467C46.4695 171.551 46.4663 171.672 46.4598 171.828C46.4533 171.984 46.45 172.092 46.45 172.15C46.45 172.3 46.4826 172.44 46.5477 172.57C46.5477 172.583 46.5411 172.609 46.5281 172.648C46.5151 172.688 46.5086 172.714 46.5086 172.727C46.5086 172.831 46.5184 172.98 46.5379 173.176C46.5574 173.371 46.5672 173.521 46.5672 173.625L46.5477 173.664L46.323 173.83C46.2059 173.869 46.0529 173.944 45.8641 174.055C45.6818 174.165 45.5613 174.237 45.5027 174.27C45.3335 174.289 45.0242 174.354 44.575 174.465C44.1323 174.576 43.784 174.631 43.5301 174.631ZM50.1508 174.426C49.975 174.426 49.7178 174.419 49.3793 174.406C49.0408 174.393 48.7836 174.387 48.6078 174.387V174.348C48.699 174.289 48.7478 174.25 48.7543 174.23C48.8194 174.191 48.8878 174.123 48.9594 174.025C49.031 173.921 49.1059 173.794 49.184 173.645C49.2686 173.488 49.3174 173.397 49.3305 173.371L49.35 173.166C49.363 173.146 49.4151 173.078 49.5063 172.961C49.6039 172.837 49.6592 172.746 49.6723 172.688V172.648C49.6723 172.609 49.656 172.544 49.6234 172.453C49.5909 172.355 49.5746 172.287 49.5746 172.248L49.6137 172.17C49.6202 171.955 49.6365 171.662 49.6625 171.291C49.6951 170.92 49.7113 170.598 49.7113 170.324C49.7113 170.129 49.7243 169.784 49.7504 169.289C49.7829 168.788 49.7895 168.381 49.7699 168.068L49.9945 167.805L49.809 167.463C49.8155 167.255 49.8122 167.049 49.7992 166.848C49.7927 166.646 49.7764 166.434 49.7504 166.213C49.7243 165.992 49.7016 165.809 49.682 165.666C49.6625 165.523 49.6299 165.318 49.5844 165.051C49.5453 164.777 49.516 164.576 49.4965 164.445C49.4835 164.361 49.3728 164.234 49.1645 164.064C48.9626 163.889 48.8585 163.755 48.852 163.664L48.6957 163.449C48.7803 163.443 48.9203 163.42 49.1156 163.381C49.3109 163.335 49.4509 163.309 49.5355 163.303C49.6527 163.4 49.7992 163.449 49.975 163.449C50.0727 163.449 50.2224 163.426 50.4242 163.381C50.626 163.335 50.7628 163.309 50.8344 163.303C50.8669 163.316 50.919 163.378 50.9906 163.488C51.0688 163.592 51.1241 163.645 51.1566 163.645C51.1632 163.645 51.1892 163.589 51.2348 163.479C51.2803 163.361 51.3064 163.303 51.3129 163.303C51.8012 163.394 52.1202 163.43 52.2699 163.41L52.3285 163.43L52.4555 163.41L52.4945 163.391C52.5271 163.391 52.5727 163.394 52.6313 163.4C52.6898 163.407 52.7354 163.41 52.768 163.41V163.469C52.3578 163.762 52.0746 164.1 51.9184 164.484C51.7621 164.868 51.6938 165.331 51.7133 165.871C51.6872 165.897 51.6742 166.05 51.6742 166.33C51.6742 166.46 51.6775 166.636 51.684 166.857C51.6905 167.079 51.6938 167.202 51.6938 167.229C51.6938 167.456 51.7003 167.798 51.7133 168.254C51.7263 168.703 51.7328 169.042 51.7328 169.27C51.7328 169.315 51.6905 169.393 51.6059 169.504C51.5212 169.608 51.4822 169.683 51.4887 169.729C51.4952 169.768 51.5473 169.829 51.6449 169.914C51.7426 169.992 51.7914 170.051 51.7914 170.09C51.8305 170.708 51.85 171.333 51.85 171.965C51.85 172.18 51.8695 172.365 51.9086 172.521L52.0746 172.766C52.1527 172.811 52.2211 172.844 52.2797 172.863C52.3448 172.876 52.3936 172.886 52.4262 172.893C52.4587 172.893 52.5206 172.893 52.6117 172.893C52.7029 172.886 52.7777 172.883 52.8363 172.883C52.9275 172.883 53.0609 172.87 53.2367 172.844C53.419 172.811 53.5655 172.798 53.6762 172.805C53.7022 172.798 53.7348 172.814 53.7738 172.854C53.8129 172.893 53.8454 172.909 53.8715 172.902C53.9366 172.896 54.1059 172.87 54.3793 172.824C54.6527 172.772 54.8513 172.746 54.975 172.746C55.2094 172.746 55.4698 172.701 55.7563 172.609C56.0492 172.518 56.2868 172.411 56.4691 172.287H56.4887C56.6124 172.176 56.7654 172.004 56.9477 171.77C56.9802 171.73 57.0095 171.656 57.0355 171.545C57.0616 171.434 57.0876 171.363 57.1137 171.33H57.1527L57.2309 171.262C57.2309 171.32 57.2504 171.402 57.2895 171.506C57.335 171.61 57.3611 171.685 57.3676 171.73C57.4262 171.952 57.4555 172.076 57.4555 172.102C57.4815 172.18 57.5043 172.323 57.5238 172.531C57.5499 172.733 57.5792 172.886 57.6117 172.99C57.6182 173.01 57.6475 173.029 57.6996 173.049C57.7517 173.068 57.781 173.088 57.7875 173.107C57.8005 173.166 57.8266 173.299 57.8656 173.508C57.9112 173.71 57.9535 173.863 57.9926 173.967C57.9926 173.993 58.0023 174.061 58.0219 174.172C58.0414 174.276 58.0447 174.354 58.0316 174.406C57.9926 174.419 57.934 174.426 57.8559 174.426C57.4457 174.426 56.8305 174.41 56.0102 174.377C55.1898 174.344 54.5779 174.328 54.1742 174.328C54.1547 174.328 54.0961 174.338 53.9984 174.357C53.9008 174.377 53.8324 174.387 53.7934 174.387C53.7022 174.387 53.6143 174.348 53.5297 174.27C53.4451 174.185 53.3734 174.143 53.3148 174.143C53.2497 174.143 53.1553 174.182 53.0316 174.26C52.9079 174.331 52.8135 174.367 52.7484 174.367H51.3715L51.391 174.328C50.727 174.393 50.3135 174.426 50.1508 174.426ZM66.7324 174.504H66.2344C66.4362 174.328 66.6022 174.188 66.7324 174.084C66.7389 174.051 66.7552 173.99 66.7812 173.898C66.8073 173.801 66.8301 173.723 66.8496 173.664C66.8757 173.599 66.9049 173.54 66.9375 173.488C66.8984 173.254 66.8789 173.133 66.8789 173.127C66.8789 173.12 66.8984 173.039 66.9375 172.883C66.8464 172.727 66.778 172.635 66.7324 172.609C66.6738 171.958 66.5273 171.311 66.293 170.666C66.1953 170.588 66.0358 170.549 65.8145 170.549C65.5996 170.549 65.3327 170.585 65.0137 170.656C64.7012 170.721 64.3724 170.803 64.0273 170.9C63.6823 170.998 63.4512 171.06 63.334 171.086C63.2493 171.307 63.1647 171.551 63.0801 171.818C62.9954 172.079 62.9206 172.274 62.8555 172.404C62.8685 172.469 62.875 172.583 62.875 172.746C62.875 172.935 62.862 173.075 62.8359 173.166L62.6992 173.342C62.7122 173.413 62.7578 173.501 62.8359 173.605L63.1582 174.104C63.1973 174.143 63.3633 174.257 63.6562 174.445C63.6042 174.445 63.526 174.449 63.4219 174.455C63.3242 174.462 63.2493 174.465 63.1973 174.465C62.8652 174.465 62.5658 174.439 62.2988 174.387C62.1686 174.413 61.9603 174.426 61.6738 174.426C61.6217 174.426 61.5436 174.419 61.4395 174.406C61.3353 174.393 61.2604 174.387 61.2148 174.387L61.1758 174.396V174.406C61.1628 174.419 61.1497 174.426 61.1367 174.426C61.0195 174.426 60.8926 174.419 60.7559 174.406C60.6191 174.393 60.5247 174.387 60.4727 174.387C60.4336 174.387 60.3099 174.4 60.1016 174.426C60.0625 174.406 60.0169 174.396 59.9648 174.396C59.9128 174.39 59.8509 174.39 59.7793 174.396C59.7142 174.403 59.6719 174.406 59.6523 174.406C59.5872 174.406 59.4831 174.41 59.3398 174.416C59.2031 174.423 59.1022 174.426 59.0371 174.426C59.0762 174.374 59.125 174.338 59.1836 174.318C59.2487 174.292 59.3073 174.273 59.3594 174.26C59.418 174.24 59.4993 174.178 59.6035 174.074C59.7077 173.964 59.8184 173.807 59.9355 173.605H60.1992C60.1862 173.573 60.1602 173.527 60.1211 173.469C60.0885 173.404 60.0658 173.355 60.0527 173.322C60.1048 173.218 60.1829 173.101 60.2871 172.971C60.3913 172.834 60.4694 172.714 60.5215 172.609L60.6191 172.521C60.7493 172.222 60.8828 171.958 61.0195 171.73C61.2214 171.379 61.472 170.764 61.7715 169.885C62.0775 168.999 62.2663 168.345 62.3379 167.922L62.6211 167.844L62.4551 167.57C62.6048 167.271 62.6797 167.056 62.6797 166.926L62.7773 166.848C62.7839 166.802 62.8001 166.701 62.8262 166.545C62.8522 166.382 62.8783 166.239 62.9043 166.115C62.9303 165.985 62.9596 165.845 62.9922 165.695C63.0312 165.546 63.0736 165.419 63.1191 165.314C63.1712 165.21 63.2233 165.135 63.2754 165.09C63.2754 164.875 63.2721 164.719 63.2656 164.621C63.2656 164.517 63.2493 164.403 63.2168 164.279C63.1908 164.156 63.1452 164.045 63.0801 163.947L62.9336 163.723C62.9271 163.716 62.8848 163.697 62.8066 163.664C62.7285 163.632 62.6862 163.612 62.6797 163.605C62.6667 163.586 62.6602 163.547 62.6602 163.488C62.6602 163.43 62.6536 163.391 62.6406 163.371L63.6367 163.322L63.8613 163.469L64.9941 163.41L65.0332 163.605L65.502 163.371L66.1172 163.303L66.4785 163.371L66.9961 163.322L67.1523 163.371C67.1784 163.443 67.1719 163.488 67.1328 163.508C66.8529 163.729 66.6543 164.087 66.5371 164.582L66.6543 164.943C66.6543 165.301 66.7161 165.686 66.8398 166.096C66.9635 166.506 67.123 166.857 67.3184 167.15C67.3574 167.209 67.377 167.274 67.377 167.346C67.377 167.424 67.3835 167.482 67.3965 167.521C67.4095 167.554 67.4225 167.574 67.4355 167.58C67.4551 167.587 67.4779 167.603 67.5039 167.629C67.5299 167.655 67.5527 167.694 67.5723 167.746L67.5527 168.029C67.6895 168.192 67.8587 168.534 68.0605 169.055C68.2689 169.576 68.373 169.934 68.373 170.129C68.373 170.161 68.3535 170.217 68.3145 170.295C68.2819 170.373 68.2624 170.422 68.2559 170.441L68.5 170.549C68.5716 170.926 68.6953 171.32 68.8711 171.73C69.0469 172.141 69.2487 172.492 69.4766 172.785C69.5221 172.844 69.5579 172.893 69.584 172.932C69.61 172.964 69.6296 173 69.6426 173.039C69.6621 173.078 69.6719 173.111 69.6719 173.137C69.6784 173.156 69.6882 173.199 69.7012 173.264C69.7142 173.329 69.7272 173.384 69.7402 173.43L69.7988 173.684L70.0527 173.645L70.1406 173.703C70.2839 173.944 70.4694 174.178 70.6973 174.406C70.5931 174.419 70.3522 174.426 69.9746 174.426C69.9095 174.413 69.7826 174.403 69.5938 174.396C69.4049 174.383 69.278 174.387 69.2129 174.406C69.0371 174.445 68.9036 174.465 68.8125 174.465C68.7539 174.465 68.6725 174.449 68.5684 174.416C68.4642 174.383 68.3861 174.367 68.334 174.367L68.0801 174.465C68.0345 174.452 67.9173 174.442 67.7285 174.436C67.5462 174.429 67.416 174.4 67.3379 174.348C67.2988 174.354 67.2077 174.38 67.0645 174.426C66.9277 174.478 66.8171 174.504 66.7324 174.504ZM63.7539 169.631C64.2357 169.52 64.9095 169.318 65.7754 169.025C65.7559 168.947 65.7005 168.765 65.6094 168.479C65.5182 168.186 65.4531 167.941 65.4141 167.746C65.388 167.616 65.3327 167.404 65.248 167.111C65.1699 166.812 65.1211 166.584 65.1016 166.428L64.8184 166.008C64.7858 166.086 64.7435 166.216 64.6914 166.398C64.6458 166.581 64.6003 166.717 64.5547 166.809C64.5417 166.945 64.4961 167.137 64.418 167.385C64.3398 167.632 64.265 167.811 64.1934 167.922C64.1999 168.039 64.1283 168.335 63.9785 168.811C63.8353 169.286 63.7604 169.559 63.7539 169.631ZM81.7418 174.709C81.7223 174.696 81.6897 174.667 81.6441 174.621C81.5986 174.582 81.5563 174.546 81.5172 174.514C81.4781 174.488 81.4391 174.465 81.4 174.445C81.3544 174.315 81.2698 174.182 81.1461 174.045C81.0289 173.908 80.8857 173.765 80.7164 173.615C80.5471 173.465 80.4299 173.355 80.3648 173.283C80.3518 173.277 80.3128 173.267 80.2477 173.254C80.1826 173.241 80.1467 173.231 80.1402 173.225L78.5387 171.467C78.4996 171.35 78.4801 171.216 78.4801 171.066C78.2783 171.132 78.1513 171.138 78.0992 171.086C77.969 170.956 77.6826 170.624 77.2398 170.09C77.2398 170.083 77.1454 169.992 76.9566 169.816C76.7744 169.641 76.5855 169.462 76.3902 169.279L76.0973 169.006C76.0257 168.954 75.954 168.902 75.8824 168.85C75.8108 168.791 75.749 168.742 75.6969 168.703C75.6448 168.658 75.5797 168.599 75.5016 168.527C75.4299 168.456 75.3746 168.404 75.3355 168.371C75.2965 168.332 75.2346 168.27 75.15 168.186C75.0719 168.094 75.0198 168.036 74.9938 168.01C74.9677 167.984 74.9059 167.922 74.8082 167.824C74.7171 167.72 74.6617 167.655 74.6422 167.629V167.521C74.6292 167.515 74.5478 167.437 74.398 167.287C74.385 167.385 74.3785 167.684 74.3785 168.186C74.3785 168.426 74.398 168.68 74.4371 168.947L74.2418 169.064L74.4176 169.348C74.3655 169.751 74.3395 170.126 74.3395 170.471C74.3395 170.965 74.3883 171.298 74.4859 171.467C74.4534 171.564 74.4371 171.636 74.4371 171.682C74.4371 171.792 74.4469 171.958 74.4664 172.18C74.4924 172.401 74.5055 172.564 74.5055 172.668V172.902C74.5055 173.007 74.538 173.101 74.6031 173.186L74.4664 173.625L74.7984 173.605C74.9872 173.99 75.1695 174.283 75.3453 174.484C75.3258 174.484 75.2932 174.481 75.2477 174.475C75.2021 174.468 75.1663 174.465 75.1402 174.465C75.0621 174.465 74.9384 174.475 74.7691 174.494C74.5999 174.514 74.4762 174.523 74.398 174.523C74.2678 174.523 73.9521 174.514 73.4508 174.494C72.9495 174.475 72.6337 174.465 72.5035 174.465C72.4645 174.465 72.4026 174.475 72.318 174.494C72.2398 174.514 72.1813 174.523 72.1422 174.523L71.4977 174.484C71.5107 174.452 71.553 174.387 71.6246 174.289C71.7027 174.185 71.7483 174.117 71.7613 174.084C71.8785 173.947 71.9469 173.801 71.9664 173.645L72.1031 173.527C72.1552 173.371 72.1943 173.186 72.2203 172.971C72.2464 172.756 72.2724 172.593 72.2984 172.482L72.523 172.268C72.5035 172.255 72.4775 172.222 72.4449 172.17C72.4189 172.118 72.3928 172.082 72.3668 172.062C72.4254 171.893 72.4645 171.701 72.484 171.486C72.497 171.434 72.5035 171.327 72.5035 171.164V170.305C72.5165 170.116 72.5263 169.787 72.5328 169.318C72.5458 168.85 72.5621 168.485 72.5816 168.225C72.6012 167.99 72.6012 167.756 72.5816 167.521C72.6337 167.417 72.6598 167.245 72.6598 167.004C72.6598 166.9 72.6533 166.753 72.6402 166.564C72.6272 166.376 72.6207 166.236 72.6207 166.145C72.6207 166.021 72.624 165.848 72.6305 165.627C72.637 165.406 72.6402 165.24 72.6402 165.129C72.6467 165.116 72.6174 165.018 72.5523 164.836C72.4872 164.654 72.4189 164.465 72.3473 164.27C72.2822 164.074 72.2464 163.96 72.2398 163.928V163.908C72.2398 163.798 72.2529 163.723 72.2789 163.684C72.318 163.632 72.3375 163.547 72.3375 163.43V163.244C72.3766 163.205 72.5133 163.169 72.7477 163.137C72.9885 163.098 73.1188 163.055 73.1383 163.01L73.6852 163.547C73.7763 163.71 73.9293 163.902 74.1441 164.123C74.359 164.338 74.5576 164.523 74.7398 164.68C74.9286 164.836 75.1565 165.021 75.4234 165.236C75.482 165.282 75.5276 165.318 75.5602 165.344C75.6122 165.376 75.6383 165.516 75.6383 165.764C75.8661 165.861 75.9996 165.936 76.0387 165.988C76.1038 166.073 76.221 166.184 76.3902 166.32C76.566 166.451 76.6897 166.558 76.7613 166.643C76.7874 166.669 76.8167 166.714 76.8492 166.779C76.8818 166.844 76.9046 166.887 76.9176 166.906C77.4124 167.473 77.8876 167.938 78.3434 168.303C78.5257 168.452 78.8642 168.771 79.359 169.26C79.8538 169.748 80.163 170.038 80.2867 170.129C80.2867 170.07 80.2737 169.979 80.2477 169.855C80.2281 169.732 80.2184 169.641 80.2184 169.582C80.2184 169.504 80.2249 169.354 80.2379 169.133C80.2509 168.911 80.2574 168.762 80.2574 168.684C80.2574 168.592 80.2346 168.462 80.1891 168.293C80.1435 168.124 80.1207 167.993 80.1207 167.902C80.1207 167.798 80.1305 167.648 80.15 167.453C80.1695 167.258 80.1793 167.108 80.1793 167.004V166.242C80.1793 165.695 80.1467 165.223 80.0816 164.826L80.3063 164.543L79.984 164.387L79.7984 164.006L79.6422 163.869C79.6031 163.798 79.538 163.736 79.4469 163.684C79.3557 163.625 79.3069 163.553 79.3004 163.469C79.3785 163.469 79.499 163.472 79.6617 163.479C79.8245 163.485 79.9449 163.488 80.023 163.488H80.4039C80.5536 163.488 80.6741 163.475 80.7652 163.449C80.8824 163.462 81.0745 163.469 81.3414 163.469C81.5432 163.469 81.6767 163.449 81.7418 163.41C81.7744 163.404 81.859 163.391 81.9957 163.371C82.1324 163.352 82.2398 163.342 82.318 163.342C82.344 163.342 82.4319 163.358 82.5816 163.391C82.7379 163.417 82.8323 163.436 82.8648 163.449C82.7021 163.534 82.5621 163.661 82.4449 163.83C82.2561 164.064 82.1324 164.266 82.0738 164.436C82.0152 164.605 81.9859 164.829 81.9859 165.109C81.9859 165.415 81.9794 165.62 81.9664 165.725L81.7613 165.93L81.9664 166.066C81.9469 166.125 81.9371 166.226 81.9371 166.369C81.9371 166.512 81.9566 166.734 81.9957 167.033C82.0413 167.326 82.0641 167.551 82.0641 167.707C82.0641 167.915 82.0413 168.221 81.9957 168.625C81.9566 169.029 81.9371 169.335 81.9371 169.543C81.9371 169.621 81.8915 169.761 81.8004 169.963C81.9111 170.373 81.9664 170.633 81.9664 170.744C81.9664 170.972 81.9892 171.145 82.0348 171.262C82.0803 171.372 82.1031 171.542 82.1031 171.77C82.1031 171.835 82.1096 171.929 82.1227 172.053C82.1357 172.17 82.1422 172.261 82.1422 172.326C82.1422 172.424 82.1813 172.658 82.2594 173.029C82.344 173.4 82.3863 173.638 82.3863 173.742L82.4645 173.85C82.4384 173.915 82.3245 174.064 82.1227 174.299C81.9273 174.533 81.8004 174.67 81.7418 174.709ZM95.7254 174.631C95.5431 174.631 95.2729 174.608 94.9148 174.562C94.5568 174.523 94.3582 174.504 94.3191 174.504C93.8113 174.465 93.0464 174.445 92.0242 174.445C91.7964 174.445 91.4513 174.436 90.9891 174.416C90.5333 174.396 90.1915 174.387 89.9637 174.387C90.2501 174.178 90.4552 173.98 90.5789 173.791L90.8816 173.723L90.784 173.449C91.2723 172.961 91.5164 172.339 91.5164 171.584C91.5164 171.441 91.5034 171.193 91.4773 170.842C91.6271 170.536 91.702 169.976 91.702 169.162C91.702 169.038 91.6987 168.872 91.6922 168.664C91.6857 168.456 91.6824 168.316 91.6824 168.244L91.8191 168.107C91.7801 167.326 91.7605 166.538 91.7605 165.744C91.7605 165.62 91.7703 165.438 91.7898 165.197C91.8094 164.95 91.8191 164.761 91.8191 164.631C91.8191 164.468 91.8061 164.224 91.7801 163.898C91.754 163.573 91.741 163.329 91.741 163.166C91.741 163.055 91.754 162.883 91.7801 162.648C91.6499 162.648 91.3895 162.727 90.9988 162.883C90.8426 162.857 90.7156 162.844 90.618 162.844C90.5333 162.844 90.4064 162.867 90.2371 162.912C90.0678 162.951 89.9409 162.971 89.8563 162.971C90.1492 162.508 90.2762 162.229 90.2371 162.131C90.3803 161.936 90.5984 161.643 90.8914 161.252C91.1844 160.855 91.3992 160.559 91.5359 160.363C91.9396 160.48 92.2 160.568 92.3172 160.627H92.5418L92.659 160.705C92.9259 160.666 93.4663 160.646 94.2801 160.646C94.4493 160.646 94.7 160.62 95.032 160.568C95.3641 160.516 95.6147 160.49 95.784 160.49C96.2397 160.49 96.6206 160.5 96.9266 160.52C97.2391 160.533 97.6036 160.565 98.0203 160.617C98.4435 160.669 98.8341 160.76 99.1922 160.891C99.5503 161.021 99.8725 161.187 100.159 161.389C100.159 161.402 100.162 161.418 100.169 161.438C100.175 161.457 100.179 161.473 100.179 161.486C100.179 161.597 100.152 161.717 100.1 161.848L100.462 162.004C100.468 162.049 100.488 162.137 100.52 162.268C100.553 162.398 100.576 162.512 100.589 162.609C100.608 162.701 100.618 162.792 100.618 162.883C100.618 163.02 100.589 163.192 100.53 163.4C100.478 163.602 100.416 163.739 100.345 163.811C100.227 164.279 99.9474 164.755 99.5047 165.236C99.0685 165.718 98.6193 166.076 98.157 166.311L98.0789 166.291L97.8836 166.408C98.782 166.617 99.4266 166.835 99.8172 167.062C99.8432 167.115 99.8855 167.163 99.9441 167.209C100.003 167.248 100.052 167.277 100.091 167.297C100.136 167.316 100.198 167.342 100.276 167.375C100.361 167.401 100.416 167.417 100.442 167.424C100.488 167.489 100.569 167.567 100.686 167.658C100.804 167.743 100.882 167.805 100.921 167.844L101.057 167.766C101.656 168.547 101.956 169.367 101.956 170.227C101.956 170.858 101.855 171.402 101.653 171.857C101.458 172.313 101.126 172.743 100.657 173.146L100.179 173.127L100.345 173.469C99.6935 173.97 99.0262 174.302 98.3426 174.465L98.2449 174.406C97.5288 174.556 96.6889 174.631 95.7254 174.631ZM94.1434 166.262C94.1954 166.262 94.2866 166.249 94.4168 166.223C94.547 166.197 94.6479 166.19 94.7195 166.203L94.7781 166.145C95.4161 166.145 95.9533 166.034 96.3895 165.812C96.8322 165.591 97.1707 165.21 97.4051 164.67C97.6395 164.546 97.7436 164.299 97.7176 163.928C97.7566 163.85 97.7762 163.762 97.7762 163.664C97.7762 163.26 97.4832 162.88 96.8973 162.521C96.8842 162.365 96.6238 162.287 96.116 162.287C95.7514 162.287 95.0255 162.346 93.9383 162.463C93.8992 162.613 93.8797 162.834 93.8797 163.127C93.8797 163.374 93.9057 163.778 93.9578 164.338C94.0099 164.891 94.0359 165.308 94.0359 165.588C94.0359 165.874 94.0229 166.092 93.9969 166.242C94.0229 166.255 94.0717 166.262 94.1434 166.262ZM95.9207 172.824C96.116 172.824 96.4741 172.779 96.9949 172.688C97.5223 172.596 97.8315 172.515 97.9227 172.443C98.0659 172.326 98.2124 172.134 98.3621 171.867C98.5118 171.75 98.6551 171.516 98.7918 171.164C98.9285 170.806 98.9969 170.52 98.9969 170.305L99.0652 170.324C99.0652 170.109 99.0555 169.904 99.0359 169.709L99.2605 169.543L98.9969 169.426C99.0099 169.139 98.8992 168.863 98.6648 168.596C98.4305 168.322 98.1505 168.111 97.825 167.961C97.4995 167.805 97.1967 167.72 96.9168 167.707C96.5327 167.557 96.1551 167.482 95.784 167.482C95.5496 167.482 95.3738 167.489 95.2566 167.502L95.2176 167.443H94.9441C94.5275 167.443 94.2117 167.45 93.9969 167.463C93.9578 167.561 93.9383 167.668 93.9383 167.785C93.9383 168.117 93.9643 168.345 94.0164 168.469L94.0848 168.488C94.0783 168.553 94.062 168.674 94.0359 168.85C94.0099 169.019 93.9969 169.152 93.9969 169.25C93.9969 169.523 94.0978 170.217 94.2996 171.33L94.0652 171.506L94.2801 171.662C94.2801 171.916 94.3322 172.131 94.4363 172.307L94.3973 172.385L94.5633 172.629C94.9604 172.759 95.4129 172.824 95.9207 172.824ZM108.782 174.631C108.026 174.631 107.388 174.517 106.868 174.289C106.347 174.055 105.845 173.667 105.364 173.127C105.344 173.101 105.305 173.042 105.246 172.951C105.194 172.86 105.146 172.798 105.1 172.766C105.054 172.577 104.941 172.463 104.758 172.424C104.745 172.333 104.719 172.206 104.68 172.043C104.641 171.88 104.615 171.76 104.602 171.682L104.797 171.467L104.582 171.33C104.543 171.096 104.517 170.757 104.504 170.314C104.498 169.865 104.478 169.536 104.446 169.328C104.459 169.309 104.482 169.279 104.514 169.24C104.553 169.195 104.582 169.152 104.602 169.113C104.628 169.074 104.641 169.038 104.641 169.006C104.641 168.973 104.625 168.941 104.592 168.908C104.566 168.869 104.527 168.83 104.475 168.791C104.423 168.745 104.39 168.716 104.377 168.703C104.377 168.521 104.384 168.247 104.397 167.883C104.416 167.518 104.426 167.245 104.426 167.062V166.945L104.485 166.926C104.485 166.867 104.475 166.776 104.455 166.652C104.436 166.529 104.426 166.434 104.426 166.369C104.426 166.304 104.429 166.203 104.436 166.066C104.442 165.93 104.446 165.822 104.446 165.744C104.446 165.607 104.429 165.399 104.397 165.119C104.371 164.833 104.358 164.615 104.358 164.465C104.273 164.341 104.208 164.211 104.163 164.074C104.117 163.931 104.055 163.807 103.977 163.703C103.905 163.592 103.765 163.472 103.557 163.342H103.704C103.866 163.342 103.987 163.335 104.065 163.322L104.163 163.41C104.195 163.41 104.244 163.413 104.309 163.42C104.381 163.426 104.433 163.43 104.465 163.43C104.543 163.43 104.674 163.433 104.856 163.439C105.045 163.446 105.188 163.449 105.286 163.449C105.663 163.449 105.982 163.413 106.243 163.342C106.262 163.348 106.347 163.371 106.496 163.41C106.646 163.449 106.76 163.469 106.838 163.469H107.004L107.063 163.43H107.346C107.476 163.43 107.567 163.423 107.62 163.41C107.593 163.449 107.545 163.501 107.473 163.566C107.401 163.632 107.343 163.697 107.297 163.762C107.258 163.82 107.232 163.882 107.219 163.947C107.193 163.98 107.148 164.035 107.082 164.113C107.017 164.185 106.962 164.25 106.916 164.309C106.877 164.367 106.845 164.426 106.819 164.484C106.825 164.569 106.786 164.68 106.702 164.816C106.623 164.947 106.584 165.051 106.584 165.129C106.584 165.201 106.597 165.314 106.623 165.471L106.438 165.666C106.438 165.712 106.461 165.78 106.506 165.871C106.558 165.956 106.584 166.021 106.584 166.066C106.584 166.223 106.568 166.454 106.536 166.76C106.51 167.066 106.496 167.294 106.496 167.443C106.496 167.515 106.506 167.626 106.526 167.775C106.552 167.925 106.565 168.036 106.565 168.107C106.565 168.14 106.552 168.202 106.526 168.293C106.5 168.378 106.49 168.436 106.496 168.469C106.51 168.592 106.519 168.778 106.526 169.025C106.539 169.273 106.555 169.497 106.575 169.699C106.601 169.895 106.636 170.07 106.682 170.227C106.643 170.305 106.623 170.393 106.623 170.49C106.623 170.653 106.656 170.819 106.721 170.988C106.786 171.158 106.881 171.278 107.004 171.35C106.952 171.506 106.926 171.633 106.926 171.73L107.18 171.848C107.213 171.88 107.271 171.968 107.356 172.111C107.447 172.255 107.535 172.365 107.62 172.443C107.711 172.515 107.812 172.551 107.922 172.551C108.052 172.551 108.248 172.577 108.508 172.629C108.775 172.681 108.98 172.707 109.123 172.707H109.221C109.247 172.792 109.306 172.893 109.397 173.01C109.403 172.977 109.439 172.912 109.504 172.814C109.569 172.717 109.608 172.648 109.621 172.609C110.188 172.512 110.631 172.287 110.95 171.936C111.275 171.577 111.438 171.128 111.438 170.588C111.588 170.412 111.663 170.246 111.663 170.09C111.663 170.005 111.653 169.888 111.633 169.738C111.614 169.589 111.604 169.478 111.604 169.406C111.604 169.361 111.614 169.296 111.633 169.211C111.653 169.12 111.663 169.051 111.663 169.006C111.663 168.967 111.649 168.921 111.623 168.869C111.623 168.667 111.649 168.368 111.702 167.971C111.754 167.574 111.78 167.277 111.78 167.082C111.78 167.036 111.773 166.968 111.76 166.877C111.747 166.779 111.741 166.708 111.741 166.662C111.741 166.467 111.793 166.154 111.897 165.725L111.78 165.627C111.786 165.516 111.767 165.367 111.721 165.178C111.682 164.989 111.663 164.852 111.663 164.768C111.663 164.644 111.646 164.53 111.614 164.426C111.588 164.315 111.558 164.227 111.526 164.162C111.493 164.09 111.435 164.016 111.35 163.938C111.265 163.859 111.197 163.801 111.145 163.762C111.099 163.723 111.015 163.664 110.891 163.586C110.767 163.501 110.676 163.436 110.618 163.391V163.322C110.748 163.355 110.836 163.371 110.881 163.371C110.94 163.371 111.024 163.365 111.135 163.352C111.252 163.332 111.34 163.322 111.399 163.322C111.438 163.322 111.496 163.326 111.575 163.332C111.659 163.339 111.721 163.342 111.76 163.342V163.322C111.825 163.322 111.929 163.319 112.073 163.312C112.216 163.306 112.327 163.303 112.405 163.303H112.678C112.789 163.348 112.942 163.43 113.137 163.547L113.459 163.303L113.977 163.322C114.042 163.329 114.176 163.329 114.377 163.322C114.579 163.316 114.726 163.316 114.817 163.322L114.7 163.488C114.648 163.527 114.595 163.586 114.543 163.664H114.504C114.459 163.723 114.355 163.824 114.192 163.967C114.029 164.104 113.925 164.217 113.879 164.309L113.918 164.426C113.879 164.654 113.834 164.973 113.782 165.383L113.821 165.51C113.743 165.575 113.704 165.673 113.704 165.803C113.704 165.848 113.71 165.917 113.723 166.008C113.736 166.092 113.743 166.158 113.743 166.203C113.743 166.249 113.704 166.33 113.625 166.447C113.632 166.46 113.651 166.493 113.684 166.545C113.717 166.59 113.736 166.63 113.743 166.662C113.73 166.714 113.723 166.828 113.723 167.004C113.723 167.154 113.733 167.395 113.752 167.727C113.772 168.059 113.782 168.273 113.782 168.371C113.782 168.43 113.769 168.518 113.743 168.635C113.717 168.745 113.704 168.83 113.704 168.889C113.704 169.878 113.648 170.643 113.538 171.184C113.329 171.288 113.225 171.464 113.225 171.711C113.225 171.763 113.232 171.841 113.245 171.945C113.258 172.043 113.264 172.118 113.264 172.17C113.264 172.391 113.124 172.678 112.844 173.029C112.649 173.088 112.532 173.13 112.493 173.156C112.46 173.176 112.437 173.218 112.424 173.283C112.418 173.342 112.375 173.417 112.297 173.508C112.193 173.618 112.06 173.723 111.897 173.82C111.741 173.911 111.545 174.006 111.311 174.104C111.083 174.201 110.933 174.27 110.862 174.309C110.738 174.309 110.618 174.289 110.5 174.25C110.435 174.361 110.364 174.439 110.286 174.484C109.452 174.582 108.951 174.631 108.782 174.631ZM126.643 174.709C126.623 174.696 126.59 174.667 126.545 174.621C126.499 174.582 126.457 174.546 126.418 174.514C126.379 174.488 126.34 174.465 126.301 174.445C126.255 174.315 126.171 174.182 126.047 174.045C125.93 173.908 125.786 173.765 125.617 173.615C125.448 173.465 125.331 173.355 125.266 173.283C125.253 173.277 125.214 173.267 125.148 173.254C125.083 173.241 125.048 173.231 125.041 173.225L123.439 171.467C123.4 171.35 123.381 171.216 123.381 171.066C123.179 171.132 123.052 171.138 123 171.086C122.87 170.956 122.583 170.624 122.141 170.09C122.141 170.083 122.046 169.992 121.857 169.816C121.675 169.641 121.486 169.462 121.291 169.279L120.998 169.006C120.926 168.954 120.855 168.902 120.783 168.85C120.712 168.791 120.65 168.742 120.598 168.703C120.546 168.658 120.48 168.599 120.402 168.527C120.331 168.456 120.275 168.404 120.236 168.371C120.197 168.332 120.135 168.27 120.051 168.186C119.973 168.094 119.921 168.036 119.895 168.01C119.868 167.984 119.807 167.922 119.709 167.824C119.618 167.72 119.562 167.655 119.543 167.629V167.521C119.53 167.515 119.449 167.437 119.299 167.287C119.286 167.385 119.279 167.684 119.279 168.186C119.279 168.426 119.299 168.68 119.338 168.947L119.143 169.064L119.318 169.348C119.266 169.751 119.24 170.126 119.24 170.471C119.24 170.965 119.289 171.298 119.387 171.467C119.354 171.564 119.338 171.636 119.338 171.682C119.338 171.792 119.348 171.958 119.367 172.18C119.393 172.401 119.406 172.564 119.406 172.668V172.902C119.406 173.007 119.439 173.101 119.504 173.186L119.367 173.625L119.699 173.605C119.888 173.99 120.07 174.283 120.246 174.484C120.227 174.484 120.194 174.481 120.148 174.475C120.103 174.468 120.067 174.465 120.041 174.465C119.963 174.465 119.839 174.475 119.67 174.494C119.501 174.514 119.377 174.523 119.299 174.523C119.169 174.523 118.853 174.514 118.352 174.494C117.85 174.475 117.535 174.465 117.404 174.465C117.365 174.465 117.303 174.475 117.219 174.494C117.141 174.514 117.082 174.523 117.043 174.523L116.398 174.484C116.411 174.452 116.454 174.387 116.525 174.289C116.604 174.185 116.649 174.117 116.662 174.084C116.779 173.947 116.848 173.801 116.867 173.645L117.004 173.527C117.056 173.371 117.095 173.186 117.121 172.971C117.147 172.756 117.173 172.593 117.199 172.482L117.424 172.268C117.404 172.255 117.378 172.222 117.346 172.17C117.32 172.118 117.294 172.082 117.268 172.062C117.326 171.893 117.365 171.701 117.385 171.486C117.398 171.434 117.404 171.327 117.404 171.164V170.305C117.417 170.116 117.427 169.787 117.434 169.318C117.447 168.85 117.463 168.485 117.482 168.225C117.502 167.99 117.502 167.756 117.482 167.521C117.535 167.417 117.561 167.245 117.561 167.004C117.561 166.9 117.554 166.753 117.541 166.564C117.528 166.376 117.521 166.236 117.521 166.145C117.521 166.021 117.525 165.848 117.531 165.627C117.538 165.406 117.541 165.24 117.541 165.129C117.548 165.116 117.518 165.018 117.453 164.836C117.388 164.654 117.32 164.465 117.248 164.27C117.183 164.074 117.147 163.96 117.141 163.928V163.908C117.141 163.798 117.154 163.723 117.18 163.684C117.219 163.632 117.238 163.547 117.238 163.43V163.244C117.277 163.205 117.414 163.169 117.648 163.137C117.889 163.098 118.02 163.055 118.039 163.01L118.586 163.547C118.677 163.71 118.83 163.902 119.045 164.123C119.26 164.338 119.458 164.523 119.641 164.68C119.829 164.836 120.057 165.021 120.324 165.236C120.383 165.282 120.428 165.318 120.461 165.344C120.513 165.376 120.539 165.516 120.539 165.764C120.767 165.861 120.9 165.936 120.939 165.988C121.005 166.073 121.122 166.184 121.291 166.32C121.467 166.451 121.59 166.558 121.662 166.643C121.688 166.669 121.717 166.714 121.75 166.779C121.783 166.844 121.805 166.887 121.818 166.906C122.313 167.473 122.788 167.938 123.244 168.303C123.426 168.452 123.765 168.771 124.26 169.26C124.755 169.748 125.064 170.038 125.188 170.129C125.188 170.07 125.174 169.979 125.148 169.855C125.129 169.732 125.119 169.641 125.119 169.582C125.119 169.504 125.126 169.354 125.139 169.133C125.152 168.911 125.158 168.762 125.158 168.684C125.158 168.592 125.135 168.462 125.09 168.293C125.044 168.124 125.021 167.993 125.021 167.902C125.021 167.798 125.031 167.648 125.051 167.453C125.07 167.258 125.08 167.108 125.08 167.004V166.242C125.08 165.695 125.048 165.223 124.982 164.826L125.207 164.543L124.885 164.387L124.699 164.006L124.543 163.869C124.504 163.798 124.439 163.736 124.348 163.684C124.257 163.625 124.208 163.553 124.201 163.469C124.279 163.469 124.4 163.472 124.562 163.479C124.725 163.485 124.846 163.488 124.924 163.488H125.305C125.454 163.488 125.575 163.475 125.666 163.449C125.783 163.462 125.975 163.469 126.242 163.469C126.444 163.469 126.577 163.449 126.643 163.41C126.675 163.404 126.76 163.391 126.896 163.371C127.033 163.352 127.141 163.342 127.219 163.342C127.245 163.342 127.333 163.358 127.482 163.391C127.639 163.417 127.733 163.436 127.766 163.449C127.603 163.534 127.463 163.661 127.346 163.83C127.157 164.064 127.033 164.266 126.975 164.436C126.916 164.605 126.887 164.829 126.887 165.109C126.887 165.415 126.88 165.62 126.867 165.725L126.662 165.93L126.867 166.066C126.848 166.125 126.838 166.226 126.838 166.369C126.838 166.512 126.857 166.734 126.896 167.033C126.942 167.326 126.965 167.551 126.965 167.707C126.965 167.915 126.942 168.221 126.896 168.625C126.857 169.029 126.838 169.335 126.838 169.543C126.838 169.621 126.792 169.761 126.701 169.963C126.812 170.373 126.867 170.633 126.867 170.744C126.867 170.972 126.89 171.145 126.936 171.262C126.981 171.372 127.004 171.542 127.004 171.77C127.004 171.835 127.01 171.929 127.023 172.053C127.036 172.17 127.043 172.261 127.043 172.326C127.043 172.424 127.082 172.658 127.16 173.029C127.245 173.4 127.287 173.638 127.287 173.742L127.365 173.85C127.339 173.915 127.225 174.064 127.023 174.299C126.828 174.533 126.701 174.67 126.643 174.709ZM139.601 174.709C139.582 174.696 139.549 174.667 139.504 174.621C139.458 174.582 139.416 174.546 139.377 174.514C139.337 174.488 139.298 174.465 139.259 174.445C139.214 174.315 139.129 174.182 139.005 174.045C138.888 173.908 138.745 173.765 138.576 173.615C138.407 173.465 138.289 173.355 138.224 173.283C138.211 173.277 138.172 173.267 138.107 173.254C138.042 173.241 138.006 173.231 138 173.225L136.398 171.467C136.359 171.35 136.339 171.216 136.339 171.066C136.138 171.132 136.011 171.138 135.959 171.086C135.828 170.956 135.542 170.624 135.099 170.09C135.099 170.083 135.005 169.992 134.816 169.816C134.634 169.641 134.445 169.462 134.25 169.279L133.957 169.006C133.885 168.954 133.813 168.902 133.742 168.85C133.67 168.791 133.608 168.742 133.556 168.703C133.504 168.658 133.439 168.599 133.361 168.527C133.289 168.456 133.234 168.404 133.195 168.371C133.156 168.332 133.094 168.27 133.009 168.186C132.931 168.094 132.879 168.036 132.853 168.01C132.827 167.984 132.765 167.922 132.668 167.824C132.576 167.72 132.521 167.655 132.502 167.629V167.521C132.489 167.515 132.407 167.437 132.257 167.287C132.244 167.385 132.238 167.684 132.238 168.186C132.238 168.426 132.257 168.68 132.296 168.947L132.101 169.064L132.277 169.348C132.225 169.751 132.199 170.126 132.199 170.471C132.199 170.965 132.248 171.298 132.345 171.467C132.313 171.564 132.296 171.636 132.296 171.682C132.296 171.792 132.306 171.958 132.326 172.18C132.352 172.401 132.365 172.564 132.365 172.668V172.902C132.365 173.007 132.397 173.101 132.462 173.186L132.326 173.625L132.658 173.605C132.847 173.99 133.029 174.283 133.205 174.484C133.185 174.484 133.153 174.481 133.107 174.475C133.061 174.468 133.026 174.465 133 174.465C132.921 174.465 132.798 174.475 132.629 174.494C132.459 174.514 132.336 174.523 132.257 174.523C132.127 174.523 131.811 174.514 131.31 174.494C130.809 174.475 130.493 174.465 130.363 174.465C130.324 174.465 130.262 174.475 130.177 174.494C130.099 174.514 130.041 174.523 130.002 174.523L129.357 174.484C129.37 174.452 129.412 174.387 129.484 174.289C129.562 174.185 129.608 174.117 129.621 174.084C129.738 173.947 129.806 173.801 129.826 173.645L129.962 173.527C130.015 173.371 130.054 173.186 130.08 172.971C130.106 172.756 130.132 172.593 130.158 172.482L130.382 172.268C130.363 172.255 130.337 172.222 130.304 172.17C130.278 172.118 130.252 172.082 130.226 172.062C130.285 171.893 130.324 171.701 130.343 171.486C130.356 171.434 130.363 171.327 130.363 171.164V170.305C130.376 170.116 130.386 169.787 130.392 169.318C130.405 168.85 130.421 168.485 130.441 168.225C130.461 167.99 130.461 167.756 130.441 167.521C130.493 167.417 130.519 167.245 130.519 167.004C130.519 166.9 130.513 166.753 130.5 166.564C130.487 166.376 130.48 166.236 130.48 166.145C130.48 166.021 130.483 165.848 130.49 165.627C130.496 165.406 130.5 165.24 130.5 165.129C130.506 165.116 130.477 165.018 130.412 164.836C130.347 164.654 130.278 164.465 130.207 164.27C130.142 164.074 130.106 163.96 130.099 163.928V163.908C130.099 163.798 130.112 163.723 130.138 163.684C130.177 163.632 130.197 163.547 130.197 163.43V163.244C130.236 163.205 130.373 163.169 130.607 163.137C130.848 163.098 130.978 163.055 130.998 163.01L131.545 163.547C131.636 163.71 131.789 163.902 132.004 164.123C132.218 164.338 132.417 164.523 132.599 164.68C132.788 164.836 133.016 165.021 133.283 165.236C133.341 165.282 133.387 165.318 133.42 165.344C133.472 165.376 133.498 165.516 133.498 165.764C133.726 165.861 133.859 165.936 133.898 165.988C133.963 166.073 134.08 166.184 134.25 166.32C134.425 166.451 134.549 166.558 134.621 166.643C134.647 166.669 134.676 166.714 134.709 166.779C134.741 166.844 134.764 166.887 134.777 166.906C135.272 167.473 135.747 167.938 136.203 168.303C136.385 168.452 136.724 168.771 137.218 169.26C137.713 169.748 138.022 170.038 138.146 170.129C138.146 170.07 138.133 169.979 138.107 169.855C138.087 169.732 138.078 169.641 138.078 169.582C138.078 169.504 138.084 169.354 138.097 169.133C138.11 168.911 138.117 168.762 138.117 168.684C138.117 168.592 138.094 168.462 138.048 168.293C138.003 168.124 137.98 167.993 137.98 167.902C137.98 167.798 137.99 167.648 138.009 167.453C138.029 167.258 138.039 167.108 138.039 167.004V166.242C138.039 165.695 138.006 165.223 137.941 164.826L138.166 164.543L137.843 164.387L137.658 164.006L137.502 163.869C137.462 163.798 137.397 163.736 137.306 163.684C137.215 163.625 137.166 163.553 137.16 163.469C137.238 163.469 137.358 163.472 137.521 163.479C137.684 163.485 137.804 163.488 137.882 163.488H138.263C138.413 163.488 138.533 163.475 138.625 163.449C138.742 163.462 138.934 163.469 139.201 163.469C139.403 163.469 139.536 163.449 139.601 163.41C139.634 163.404 139.718 163.391 139.855 163.371C139.992 163.352 140.099 163.342 140.177 163.342C140.203 163.342 140.291 163.358 140.441 163.391C140.597 163.417 140.692 163.436 140.724 163.449C140.561 163.534 140.421 163.661 140.304 163.83C140.115 164.064 139.992 164.266 139.933 164.436C139.875 164.605 139.845 164.829 139.845 165.109C139.845 165.415 139.839 165.62 139.826 165.725L139.621 165.93L139.826 166.066C139.806 166.125 139.796 166.226 139.796 166.369C139.796 166.512 139.816 166.734 139.855 167.033C139.901 167.326 139.923 167.551 139.923 167.707C139.923 167.915 139.901 168.221 139.855 168.625C139.816 169.029 139.796 169.335 139.796 169.543C139.796 169.621 139.751 169.761 139.66 169.963C139.77 170.373 139.826 170.633 139.826 170.744C139.826 170.972 139.849 171.145 139.894 171.262C139.94 171.372 139.962 171.542 139.962 171.77C139.962 171.835 139.969 171.929 139.982 172.053C139.995 172.17 140.002 172.261 140.002 172.326C140.002 172.424 140.041 172.658 140.119 173.029C140.203 173.4 140.246 173.638 140.246 173.742L140.324 173.85C140.298 173.915 140.184 174.064 139.982 174.299C139.787 174.533 139.66 174.67 139.601 174.709ZM148.556 174.562H147.003C146.801 174.562 146.492 174.556 146.075 174.543C145.659 174.53 145.346 174.523 145.138 174.523V174.426C145.255 174.387 145.359 174.338 145.45 174.279C145.542 174.214 145.613 174.162 145.665 174.123C145.717 174.084 145.779 174.006 145.851 173.889C145.922 173.771 145.965 173.697 145.978 173.664C145.997 173.632 146.046 173.534 146.124 173.371C146.144 173.339 146.193 173.312 146.271 173.293C146.349 173.267 146.398 173.238 146.417 173.205C146.404 173.173 146.365 173.111 146.3 173.02C146.235 172.922 146.202 172.857 146.202 172.824C146.202 172.694 146.235 172.515 146.3 172.287C146.365 172.059 146.398 171.88 146.398 171.75C146.398 171.49 146.385 171.099 146.359 170.578C146.333 170.057 146.32 169.667 146.32 169.406C146.287 169.367 146.245 169.299 146.193 169.201C146.147 169.097 146.108 169.025 146.075 168.986C145.965 168.856 145.857 168.713 145.753 168.557C145.655 168.4 145.551 168.225 145.441 168.029C145.33 167.827 145.242 167.674 145.177 167.57C145.04 167.342 144.767 166.968 144.357 166.447L144.376 166.35C144.213 166.07 143.901 165.656 143.439 165.109L143.556 164.865L143.361 164.748C142.989 164.208 142.443 163.827 141.72 163.605L141.739 163.527C141.974 163.527 142.247 163.495 142.56 163.43L142.677 163.566L142.755 163.43C142.846 163.43 142.973 163.439 143.136 163.459C143.299 163.479 143.419 163.488 143.497 163.488C143.738 163.488 143.96 163.462 144.161 163.41C144.337 163.443 144.594 163.475 144.933 163.508C145.271 163.54 145.512 163.566 145.655 163.586C145.486 163.814 145.402 163.993 145.402 164.123C145.402 164.227 145.434 164.335 145.499 164.445L145.323 164.602L145.519 164.729C145.551 164.774 145.607 164.855 145.685 164.973C145.769 165.09 145.831 165.181 145.87 165.246C145.909 165.311 145.958 165.393 146.017 165.49C146.082 165.588 146.137 165.682 146.183 165.773C146.228 165.865 146.267 165.956 146.3 166.047C146.404 166.359 146.469 166.545 146.495 166.604C146.567 166.773 146.697 166.997 146.886 167.277C147.081 167.557 147.211 167.759 147.277 167.883C147.387 167.668 147.612 167.342 147.95 166.906C148.295 166.47 148.527 166.115 148.644 165.842C148.813 165.666 148.92 165.48 148.966 165.285C149.012 165.083 149.077 164.924 149.161 164.807L149.484 164.689L149.376 164.445C149.383 164.426 149.396 164.396 149.415 164.357C149.441 164.318 149.458 164.289 149.464 164.27C149.438 164.172 149.376 164.051 149.279 163.908C149.233 163.882 149.161 163.837 149.064 163.771C148.973 163.706 148.924 163.671 148.917 163.664C149.067 163.638 149.168 163.573 149.22 163.469C149.474 163.43 149.881 163.41 150.441 163.41H151.056C151.186 163.41 151.375 163.433 151.622 163.479C151.87 163.524 152.055 163.547 152.179 163.547C152.224 163.547 152.345 163.514 152.54 163.449C152.976 163.521 153.211 163.56 153.243 163.566C153.191 163.605 153.116 163.667 153.019 163.752C152.928 163.837 152.876 163.882 152.863 163.889C152.758 163.973 152.579 164.077 152.325 164.201C152.071 164.318 151.889 164.426 151.779 164.523C151.622 164.647 151.375 164.934 151.036 165.383L150.655 165.568C150.662 165.588 150.682 165.62 150.714 165.666C150.753 165.705 150.776 165.731 150.782 165.744C150.698 165.868 150.584 166.047 150.441 166.281C150.297 166.509 150.19 166.672 150.118 166.77C150.066 166.854 149.975 166.981 149.845 167.15C149.715 167.313 149.62 167.447 149.562 167.551C149.438 167.766 149.37 167.932 149.357 168.049L149.376 168.107C149.311 168.166 149.174 168.339 148.966 168.625C148.764 168.911 148.562 169.097 148.361 169.182L148.478 169.348C148.452 169.478 148.439 169.689 148.439 169.982V170.646C148.439 171.988 148.494 172.727 148.605 172.863L148.722 173.625L148.8 173.645C148.807 173.69 148.829 173.752 148.868 173.83C148.907 173.908 148.93 173.96 148.937 173.986C148.956 174.006 149.005 174.061 149.083 174.152C149.161 174.243 149.226 174.309 149.279 174.348L149.484 174.523C149.262 174.523 149.099 174.517 148.995 174.504C148.722 174.543 148.575 174.562 148.556 174.562Z" fill="black"/>
<defs>
<linearGradient id="paint0_linear_835_1464" x1="95.358" y1="0" x2="95.358" y2="316.003" gradientUnits="userSpaceOnUse">
<stop stop-color="#C0DA92"/>
<stop offset="1" stop-color="#005B43"/>
</linearGradient>
<linearGradient id="paint1_linear_835_1464" x1="95.358" y1="0" x2="95.358" y2="316.003" gradientUnits="userSpaceOnUse">
<stop stop-color="#A9BE83"/>
<stop offset="1" stop-color="#106D54"/>
</linearGradient>
<clipPath id="clip0_835_1464">
<rect width="162" height="156" fill="white" transform="translate(12.7109 24.8555)"/>
</clipPath>
</defs>
</svg>
