<svg width="95" height="120" viewBox="0 0 95 120" fill="none" xmlns="http://www.w3.org/2000/svg">
<path fill-rule="evenodd" clip-rule="evenodd" d="M69.9736 89.4612L69.9736 119.777L0.503054 59.999L69.9736 0.220634L69.9736 30.538C55.0582 32.4409 43.5409 44.906 43.5409 59.9996C43.5409 75.0932 55.0582 87.5582 69.9736 89.4612Z" fill="#583311" fill-opacity="0.5"/>
<path fill-rule="evenodd" clip-rule="evenodd" d="M52.7153 60.202C63.6925 56.6391 71.6095 46.5234 71.6095 34.6009C71.6095 34.2453 71.6025 33.8913 71.5885 33.5391C84.8441 35.5114 95.0002 46.6972 95.0002 60.2009C95.0002 73.7045 84.8441 84.8902 71.5886 86.8626C71.6025 86.5111 71.6095 86.1579 71.6095 85.803C71.6095 73.8805 63.6925 63.7649 52.7153 60.202Z" fill="#583311" fill-opacity="0.5"/>
</svg>
