<svg width="67" height="22" viewBox="0 0 67 22" fill="none" xmlns="http://www.w3.org/2000/svg">
<path fill-rule="evenodd" clip-rule="evenodd" d="M11.7783 15.6233L11.7783 20.3809L0.87535 10.999L11.7783 1.61719L11.7783 6.37548C9.43711 6.67385 7.6292 8.63031 7.6292 10.9994C7.6292 13.3685 9.43711 15.3249 11.7783 15.6233Z" fill="white"/>
<path fill-rule="evenodd" clip-rule="evenodd" d="M9.0708 11.0327C10.7927 10.473 12.0343 8.88585 12.0343 7.01533C12.0343 6.95918 12.0332 6.90328 12.031 6.84766C14.1116 7.157 15.7058 8.91265 15.7058 11.0321C15.7058 13.1516 14.1116 14.9072 12.031 15.2166C12.0332 15.1613 12.0343 15.1058 12.0343 15.05C12.0343 13.1795 10.7927 11.5924 9.0708 11.0327Z" fill="white"/>
<path d="M26.4957 16.1909C26.3408 16.1909 26.1111 16.1715 25.8067 16.1328C25.5024 16.0996 25.3336 16.083 25.3004 16.083C24.8687 16.0498 24.2185 16.0332 23.3497 16.0332C23.156 16.0332 22.8627 16.0249 22.4698 16.0083C22.0825 15.9917 21.7919 15.9834 21.5982 15.9834C21.8417 15.8063 22.016 15.6375 22.1212 15.4771L22.3785 15.4189L22.2955 15.1865C22.7105 14.7715 22.9181 14.243 22.9181 13.6011C22.9181 13.4793 22.907 13.269 22.8849 12.9702C23.0121 12.7101 23.0758 12.2342 23.0758 11.5425C23.0758 11.4373 23.073 11.2962 23.0675 11.1191C23.0619 10.9421 23.0592 10.8231 23.0592 10.7622L23.1754 10.646C23.1422 9.98193 23.1256 9.31234 23.1256 8.63721C23.1256 8.53206 23.1339 8.37712 23.1505 8.17236C23.1671 7.96208 23.1754 7.8016 23.1754 7.69092C23.1754 7.55257 23.1643 7.34505 23.1422 7.06836C23.1201 6.79167 23.109 6.58415 23.109 6.4458C23.109 6.35173 23.1201 6.20508 23.1422 6.00586C23.0315 6.00586 22.8102 6.07227 22.4781 6.20508C22.3453 6.18294 22.2374 6.17188 22.1544 6.17188C22.0825 6.17188 21.9745 6.19124 21.8307 6.22998C21.6868 6.26318 21.5789 6.27979 21.5069 6.27979C21.756 5.88688 21.8639 5.64893 21.8307 5.56592C21.9524 5.3999 22.1378 5.15088 22.3868 4.81885C22.6358 4.48128 22.8185 4.22949 22.9347 4.06348C23.2778 4.16309 23.4991 4.23779 23.5987 4.2876H23.7896L23.8893 4.354C24.1161 4.3208 24.5755 4.3042 25.2672 4.3042C25.4111 4.3042 25.6241 4.28206 25.9063 4.23779C26.1886 4.19352 26.4016 4.17139 26.5455 4.17139C26.9329 4.17139 27.2566 4.17969 27.5167 4.19629C27.7823 4.20736 28.0922 4.23503 28.4464 4.2793C28.8061 4.32357 29.1381 4.40104 29.4425 4.51172C29.7468 4.6224 30.0208 4.76351 30.2643 4.93506C30.2643 4.94613 30.267 4.95996 30.2726 4.97656C30.2781 4.99316 30.2809 5.007 30.2809 5.01807C30.2809 5.11214 30.2587 5.21452 30.2145 5.3252L30.5216 5.45801C30.5271 5.49674 30.5437 5.57145 30.5714 5.68213C30.5991 5.79281 30.6184 5.88965 30.6295 5.97266C30.6461 6.05013 30.6544 6.1276 30.6544 6.20508C30.6544 6.32129 30.6295 6.46794 30.5797 6.64502C30.5354 6.81657 30.4828 6.93278 30.422 6.99365C30.3224 7.39209 30.0844 7.79606 29.7081 8.20557C29.3373 8.61507 28.9555 8.91943 28.5626 9.11865L28.4962 9.10205L28.3302 9.20166C29.0938 9.37874 29.6417 9.56413 29.9737 9.75781C29.9959 9.80208 30.0318 9.84359 30.0816 9.88232C30.1314 9.91553 30.1729 9.94043 30.2062 9.95703C30.2449 9.97363 30.2975 9.99577 30.3639 10.0234C30.4358 10.0456 30.4828 10.0594 30.505 10.0649C30.5437 10.1203 30.6129 10.1867 30.7125 10.2642C30.8121 10.3361 30.8785 10.3887 30.9117 10.4219L31.0279 10.3555C31.537 11.0195 31.7916 11.7168 31.7916 12.4473C31.7916 12.984 31.7058 13.4461 31.5343 13.8335C31.3683 14.2209 31.086 14.5861 30.6876 14.9292L30.2809 14.9126L30.422 15.2031C29.8686 15.6292 29.3014 15.9115 28.7203 16.0498L28.6373 16C28.0286 16.1273 27.3147 16.1909 26.4957 16.1909ZM25.151 9.07715C25.1952 9.07715 25.2727 9.06608 25.3834 9.04395C25.4941 9.02181 25.5798 9.01628 25.6407 9.02734L25.6905 8.97754C26.2328 8.97754 26.6894 8.88346 27.0602 8.69531C27.4365 8.50716 27.7242 8.18343 27.9234 7.72412C28.1227 7.61898 28.2112 7.40869 28.1891 7.09326C28.2223 7.02686 28.2389 6.95215 28.2389 6.86914C28.2389 6.52604 27.9898 6.20231 27.4918 5.89795C27.4807 5.76514 27.2594 5.69873 26.8277 5.69873C26.5178 5.69873 25.9008 5.74854 24.9767 5.84814C24.9435 5.97542 24.9269 6.16357 24.9269 6.4126C24.9269 6.62288 24.949 6.96598 24.9933 7.44189C25.0375 7.91227 25.0597 8.26644 25.0597 8.50439C25.0597 8.74788 25.0486 8.93327 25.0265 9.06055C25.0486 9.07161 25.0901 9.07715 25.151 9.07715ZM26.6617 14.6553C26.8277 14.6553 27.1321 14.6165 27.5748 14.5391C28.023 14.4616 28.2859 14.3924 28.3634 14.3315C28.4851 14.2319 28.6096 14.0687 28.7369 13.8418C28.8642 13.7422 28.9859 13.543 29.1021 13.2441C29.2184 12.9398 29.2765 12.6963 29.2765 12.5137L29.3346 12.5303C29.3346 12.3477 29.3263 12.1733 29.3097 12.0073L29.5006 11.8662L29.2765 11.7666C29.2875 11.5231 29.1935 11.2879 28.9942 11.061C28.795 10.8286 28.5571 10.6488 28.2804 10.5215C28.0037 10.3887 27.7464 10.3167 27.5084 10.3057C27.1819 10.1784 26.8609 10.1147 26.5455 10.1147C26.3463 10.1147 26.1969 10.1203 26.0973 10.1313L26.0641 10.0815H25.8316C25.4775 10.0815 25.2091 10.0871 25.0265 10.0981C24.9933 10.1812 24.9767 10.2725 24.9767 10.3721C24.9767 10.6543 24.9988 10.848 25.0431 10.9531L25.1012 10.9697C25.0956 11.0251 25.0818 11.1274 25.0597 11.2769C25.0375 11.4207 25.0265 11.5342 25.0265 11.6172C25.0265 11.8496 25.1122 12.439 25.2838 13.3853L25.0846 13.5347L25.2672 13.6675C25.2672 13.8833 25.3115 14.0659 25.4 14.2153L25.3668 14.2817L25.5079 14.4893C25.8455 14.5999 26.2301 14.6553 26.6617 14.6553ZM36.425 16.0996H35.9353C35.8688 16.0996 35.7997 16.0913 35.7277 16.0747C35.6613 16.0581 35.5866 16.036 35.5036 16.0083C35.4261 15.9806 35.3653 15.9613 35.321 15.9502C35.2657 15.9889 35.2103 16.0138 35.155 16.0249C35.0996 16.036 35.0388 16.0415 34.9724 16.0415C34.906 16.047 34.8479 16.0553 34.798 16.0664L34.5241 15.9668C34.4743 15.9723 34.3968 15.9889 34.2917 16.0166C34.1921 16.0498 34.1118 16.0664 34.051 16.0664C33.9846 16.0664 33.8767 16.0526 33.7272 16.0249C33.5778 15.9972 33.4589 15.9889 33.3703 16L33.2292 15.9502C33.0964 15.7067 33.0023 15.4964 32.947 15.3193L33.03 15.2197L32.9802 15.1699C33.0134 14.932 33.149 14.658 33.3869 14.3481C33.8739 13.6951 34.2032 12.937 34.3747 12.0737L34.5241 11.8662C34.502 11.7777 34.4909 11.7057 34.4909 11.6504C34.4909 11.4567 34.5933 11.0998 34.798 10.5796C35.0028 10.0539 35.1716 9.70247 35.3044 9.52539L35.2878 9.23486C35.3099 9.18506 35.3487 9.13525 35.404 9.08545C35.4649 9.03564 35.4953 8.94987 35.4953 8.82812C35.4953 8.75618 35.5119 8.68701 35.5451 8.62061C35.772 8.20557 36.0155 7.60238 36.2756 6.81104C36.5412 6.01416 36.6768 5.4165 36.6823 5.01807C36.7155 4.96826 36.7792 4.91846 36.8732 4.86865C36.9729 4.81885 37.0393 4.77734 37.0725 4.74414L37.28 4.91846L37.4294 4.74414C37.6009 4.6888 37.7116 4.65007 37.7614 4.62793C37.8168 4.60579 37.8749 4.56706 37.9357 4.51172C38.0021 4.45638 38.0824 4.36507 38.1765 4.23779C38.2263 4.21012 38.2899 4.16862 38.3674 4.11328H38.5334L38.6911 4.271C38.7852 4.271 38.8461 4.3457 38.8737 4.49512C38.9125 4.7054 38.9872 4.99593 39.0979 5.3667C39.2085 5.73193 39.2777 5.96712 39.3054 6.07227C39.4326 6.17741 39.5765 6.49561 39.737 7.02686C39.903 7.55257 40.0192 7.98145 40.0856 8.31348L40.1853 8.40479C40.1853 8.46012 40.1936 8.521 40.2102 8.5874C40.2268 8.64827 40.2406 8.69531 40.2517 8.72852C40.2683 8.76172 40.2959 8.81982 40.3347 8.90283C40.3789 8.98031 40.4038 9.02734 40.4094 9.04395L40.2517 9.33447L40.5256 9.40088C40.6031 9.86019 40.7884 10.527 41.0817 11.4014C41.3806 12.2702 41.6379 12.8955 41.8537 13.2773C41.8814 13.3216 41.945 13.4157 42.0446 13.5596C42.1442 13.6979 42.2106 13.8086 42.2438 13.8916L42.3601 13.9746C42.3601 13.9801 42.5122 14.2928 42.8166 14.9126C42.7668 14.9956 42.717 15.0869 42.6672 15.1865H42.9411L43.7214 16.0332C43.583 16.0221 43.3783 16.0166 43.1071 16.0166C43.0795 16.0166 43.038 16.0138 42.9826 16.0083C42.9273 16.0028 42.8858 16 42.8581 16C42.7972 16 42.7336 16.0111 42.6672 16.0332C42.5122 16.0111 42.3933 16 42.3103 16C42.2494 16 42.1553 16.0055 42.028 16.0166C41.9007 16.0277 41.8011 16.0332 41.7292 16.0332C41.696 16.0332 41.6517 16.0249 41.5964 16.0083C41.541 15.9917 41.4968 15.9834 41.4636 15.9834C41.4138 15.9834 41.3363 15.9917 41.2312 16.0083C41.126 16.0249 41.0485 16.0332 40.9987 16.0332C40.794 16.0332 40.5865 16.0166 40.3762 15.9834C40.1327 16.0387 39.8311 16.0664 39.4714 16.0664C39.4216 16.0664 39.3441 16.0636 39.239 16.0581C39.1394 16.0526 39.0646 16.0498 39.0148 16.0498C39.286 15.8672 39.4493 15.7482 39.5046 15.6929C39.5267 15.6707 39.5489 15.6403 39.571 15.6016C39.5987 15.5573 39.6346 15.4964 39.6789 15.4189C39.7287 15.3415 39.7785 15.264 39.8283 15.1865C39.9113 15.0482 39.9556 14.9624 39.9611 14.9292L39.8283 14.7383C39.7951 14.6055 39.7785 14.4754 39.7785 14.3481C39.7785 14.2541 39.7896 14.1296 39.8117 13.9746C39.6955 13.709 39.5461 13.2995 39.3635 12.7461C39.1864 12.1872 39.0646 11.8219 38.9982 11.6504C38.6441 11.667 38.1626 11.7583 37.5539 11.9243C36.9507 12.0903 36.5357 12.2591 36.3088 12.4307C36.1096 12.9896 35.9851 13.5734 35.9353 14.1821C35.9076 14.2043 35.8799 14.2319 35.8522 14.2651C35.8301 14.2928 35.8052 14.3315 35.7775 14.3813C35.7554 14.4256 35.7388 14.4561 35.7277 14.4727C35.7665 14.5501 35.7858 14.6276 35.7858 14.7051C35.7858 14.7493 35.7748 14.8158 35.7526 14.9043C35.736 14.9928 35.7277 15.0454 35.7277 15.062C35.7665 15.1174 35.7969 15.1782 35.819 15.2446C35.8467 15.311 35.8688 15.3885 35.8854 15.4771C35.9021 15.5656 35.9187 15.632 35.9353 15.6763C36.1566 15.8534 36.3199 15.9945 36.425 16.0996ZM36.8234 10.7622C36.9175 10.7456 37.0642 10.7207 37.2634 10.6875C37.4681 10.6543 37.6314 10.6266 37.7531 10.6045C37.8749 10.5768 38.0187 10.5409 38.1848 10.4966C38.3508 10.4468 38.4974 10.3887 38.6247 10.3223C38.6192 10.2503 38.5887 10.112 38.5334 9.90723C38.4836 9.69694 38.4615 9.53369 38.467 9.41748C38.3895 9.30127 38.312 9.11865 38.2346 8.86963C38.1626 8.62061 38.1211 8.41862 38.1101 8.26367C38.0658 8.17513 38.0187 8.03678 37.9689 7.84863C37.9247 7.66048 37.8859 7.52767 37.8527 7.4502C37.7642 7.61621 37.6701 7.76286 37.5705 7.89014C37.5262 8.18343 37.4626 8.48779 37.3796 8.80322C37.3021 9.11312 37.2025 9.47005 37.0808 9.87402C36.959 10.278 36.8732 10.5741 36.8234 10.7622ZM32.5319 16.1909C32.4711 16.1909 32.3023 16.1771 32.0256 16.1494C32.2635 15.9115 32.4517 15.6735 32.59 15.4355L32.673 15.3857C32.7284 15.4079 32.7727 15.43 32.8059 15.4521C32.8059 15.4909 32.8142 15.5324 32.8308 15.5767C32.8529 15.6209 32.8723 15.6541 32.8889 15.6763C32.9055 15.6984 32.9331 15.7344 32.9719 15.7842C33.0106 15.834 33.0355 15.8672 33.0466 15.8838V16.0498C32.9304 16.0498 32.8557 16.0885 32.8225 16.166C32.7893 16.166 32.7395 16.1688 32.673 16.1743C32.6122 16.1854 32.5651 16.1909 32.5319 16.1909ZM50.2059 16.1909H49.1849C48.4876 16.1909 47.7212 16.0249 46.8855 15.6929C46.0499 15.3553 45.4329 14.9375 45.0345 14.4395C44.9957 14.3952 44.9487 14.3232 44.8934 14.2236C44.8436 14.1185 44.8104 14.0521 44.7937 14.0244C44.7937 13.9082 44.7052 13.6702 44.5281 13.3105C44.3566 12.9453 44.2653 12.7433 44.2542 12.7046L44.4036 12.2979L44.0799 12.2065C43.9858 11.9188 43.9249 11.4982 43.8973 10.9448C43.8696 10.3914 43.8336 10.0068 43.7894 9.79102L43.9471 9.6582L43.7894 9.50879C43.8004 9.45898 43.8226 9.38151 43.8558 9.27637C43.8945 9.17122 43.9194 9.09375 43.9305 9.04395C44.0799 8.17513 44.3732 7.39209 44.8104 6.69482C45.2475 5.99756 45.8258 5.42757 46.5452 4.98486C46.6448 4.92399 46.7527 4.86589 46.8689 4.81055C46.9852 4.75521 47.1235 4.69157 47.284 4.61963C47.4445 4.54769 47.5551 4.49788 47.616 4.47021C47.6381 4.48128 47.6852 4.51725 47.7571 4.57812C47.8346 4.63346 47.8844 4.66113 47.9065 4.66113C47.9231 4.66113 47.937 4.64176 47.948 4.60303C47.9591 4.55876 47.9674 4.51172 47.9729 4.46191C47.984 4.41211 47.9951 4.38167 48.0062 4.37061C48.3935 4.34847 48.6785 4.29867 48.8611 4.22119C48.9109 4.22119 48.9884 4.21842 49.0936 4.21289C49.2042 4.20736 49.2845 4.20459 49.3343 4.20459C49.4505 4.20459 49.6276 4.21289 49.8655 4.22949C50.1035 4.24609 50.2833 4.25439 50.4051 4.25439C50.4604 4.25439 50.5462 4.24609 50.6624 4.22949C50.7786 4.21289 50.8644 4.20459 50.9197 4.20459C51.0581 4.20459 51.2047 4.21289 51.3597 4.22949C51.5201 4.24056 51.6557 4.25439 51.7664 4.271C51.8771 4.2876 52.0237 4.3125 52.2063 4.3457C52.3945 4.37337 52.5356 4.39274 52.6297 4.40381V4.42041L52.9202 4.3374L53.1609 4.49512C53.1443 4.56706 53.1194 4.65283 53.0862 4.75244C53.053 4.84652 53.0281 4.92952 53.0115 5.00146C53.0005 5.0734 52.9977 5.16471 53.0032 5.27539L53.0281 5.30859L52.887 6.08887L52.8538 6.12207C52.7763 6.33789 52.721 6.55924 52.6878 6.78613L52.7044 6.85254C52.6269 6.97982 52.5688 7.12646 52.5301 7.29248C52.4858 7.32015 52.4249 7.37549 52.3475 7.4585C52.2755 7.53597 52.2174 7.58854 52.1731 7.61621L52.0237 7.5332C52.0237 7.52767 52.032 7.48893 52.0486 7.41699C52.0652 7.33952 52.0735 7.28141 52.0735 7.24268C52.0735 7.04346 52.0265 6.86084 51.9324 6.69482C51.8383 6.52327 51.7166 6.38493 51.5672 6.27979C51.4178 6.16911 51.2462 6.0778 51.0525 6.00586C50.8644 5.92839 50.6762 5.87581 50.4881 5.84814C50.2999 5.81494 50.1145 5.79834 49.9319 5.79834C49.7493 5.79834 49.4865 5.83431 49.1434 5.90625C48.8003 5.97819 48.5457 6.01693 48.3797 6.02246C48.3465 6.03906 48.2192 6.09717 47.9979 6.19678C47.7765 6.29639 47.6105 6.38493 47.4998 6.4624L47.2591 6.396V6.4624C47.2591 6.49561 47.2646 6.54541 47.2757 6.61182C47.2868 6.67269 47.2923 6.71973 47.2923 6.75293C47.0377 6.84701 46.8053 7.1071 46.595 7.5332C46.3847 7.95378 46.2713 8.32178 46.2547 8.63721C46.1993 8.69808 46.1495 8.78939 46.1053 8.91113C46.0665 9.03288 46.0555 9.12972 46.0721 9.20166C46.0499 9.2902 46.0389 9.36214 46.0389 9.41748C46.0389 9.48942 46.0582 9.5835 46.097 9.69971C46.1412 9.81592 46.1661 9.89893 46.1717 9.94873C46.1495 10.0262 46.1385 10.1507 46.1385 10.3223C46.1385 10.9089 46.2104 11.4124 46.3543 11.833C46.5037 12.248 46.7555 12.7129 47.1097 13.2275C47.2148 13.3825 47.3283 13.5181 47.45 13.6343C47.5717 13.745 47.7101 13.8363 47.865 13.9082C48.02 13.9746 48.1556 14.0299 48.2718 14.0742C48.3935 14.1185 48.5568 14.1517 48.7615 14.1738C48.9663 14.1904 49.1212 14.2043 49.2264 14.2153C49.337 14.2209 49.5141 14.2264 49.7576 14.2319L49.9485 14.5557L50.1312 14.2319C50.6403 14.2319 51.0996 14.1323 51.5091 13.9331C51.9241 13.7339 52.2479 13.4268 52.4803 13.0117L52.5965 12.9536C52.6684 13.0809 52.7044 13.2635 52.7044 13.5015C52.7044 13.5734 52.7016 13.6758 52.6961 13.8086C52.6906 13.9414 52.6878 14.0327 52.6878 14.0825C52.6878 14.2098 52.7155 14.3288 52.7708 14.4395C52.7708 14.4505 52.7653 14.4727 52.7542 14.5059C52.7431 14.5391 52.7376 14.5612 52.7376 14.5723C52.7376 14.6608 52.7459 14.7881 52.7625 14.9541C52.7791 15.1201 52.7874 15.2474 52.7874 15.3359L52.7708 15.3691L52.5799 15.5103C52.4803 15.5435 52.3502 15.6071 52.1897 15.7012C52.0348 15.7952 51.9324 15.8561 51.8826 15.8838C51.7387 15.9004 51.4759 15.9557 51.094 16.0498C50.7177 16.1439 50.4217 16.1909 50.2059 16.1909ZM56.1674 16.1909C56.1231 16.1909 56.0539 16.1771 55.9599 16.1494C55.8713 16.1273 55.8049 16.1162 55.7606 16.1162C55.7053 16.1162 55.6168 16.1245 55.495 16.1411C55.3733 16.1577 55.2847 16.166 55.2294 16.166C55.1187 16.166 55.0357 16.1605 54.9804 16.1494C55.0191 16.0941 55.091 16.036 55.1962 15.9751C55.3069 15.9087 55.376 15.8617 55.4037 15.834C55.5144 15.7399 55.5974 15.6154 55.6527 15.4604C55.7136 15.3 55.7496 15.1589 55.7606 15.0371C55.7717 14.9154 55.7772 14.7604 55.7772 14.5723C55.7772 14.4948 55.8243 14.4035 55.9184 14.2983C56.018 14.1932 56.0678 14.1019 56.0678 14.0244C56.0678 13.9746 56.029 13.9082 55.9516 13.8252C55.8796 13.7367 55.8381 13.6785 55.827 13.6509V13.5679C55.827 13.3521 55.8464 13.0311 55.8852 12.605C55.9239 12.1733 55.9433 11.8496 55.9433 11.6338C55.9433 11.3903 55.9599 11.0278 55.9931 10.5464C56.0318 10.0649 56.0512 9.70247 56.0512 9.45898C56.0512 9.2487 56.0207 9.09375 55.9599 8.99414C56.0207 8.81706 56.0512 8.62614 56.0512 8.42139C56.0512 8.12809 56.0097 7.90674 55.9267 7.75732L55.9599 7.33398C55.9931 7.32845 56.0318 7.30078 56.0761 7.25098C56.1259 7.20117 56.1674 7.17074 56.2006 7.15967C56.184 7.14307 56.1591 7.11816 56.1259 7.08496C56.0927 7.05176 56.0595 7.02409 56.0263 7.00195C55.9986 6.97982 55.9709 6.96322 55.9433 6.95215C55.9377 6.87467 55.9294 6.70036 55.9184 6.4292L55.9101 6.21338V6.25488V6.27979C55.8658 6.11377 55.7579 5.88688 55.5863 5.59912V5.54102C55.5476 5.48568 55.4784 5.41097 55.3788 5.31689C55.2847 5.21729 55.2294 5.15641 55.2128 5.13428C55.2847 5.0568 55.3705 4.87142 55.4701 4.57812L55.6361 4.51172V4.49512L55.744 4.40381C55.9045 4.39274 56.148 4.39827 56.4745 4.42041L56.5409 4.38721L56.7982 4.40381C56.8868 4.38167 57.0224 4.37061 57.205 4.37061C57.288 4.37061 57.4097 4.37614 57.5702 4.38721C57.7307 4.39827 57.8524 4.40381 57.9354 4.40381C58.107 4.40381 58.237 4.39274 58.3256 4.37061L58.226 4.61133C58.1042 4.71094 58.0157 4.94336 57.9604 5.30859C57.9105 5.67383 57.8856 5.99756 57.8856 6.27979C57.8856 6.41813 57.8718 6.63118 57.8441 6.91895C57.8165 7.20671 57.8026 7.42253 57.8026 7.56641C57.8026 7.74902 57.8192 7.8846 57.8524 7.97314C57.8469 8.00081 57.8386 8.04232 57.8275 8.09766C57.822 8.14746 57.8165 8.1945 57.8109 8.23877C57.8054 8.28304 57.8026 8.32454 57.8026 8.36328C57.8026 8.5459 57.8192 8.71191 57.8524 8.86133C57.8856 8.83919 57.9631 8.78662 58.0849 8.70361C58.2066 8.61507 58.2896 8.5542 58.3339 8.521C58.3837 8.48779 58.4473 8.43522 58.5248 8.36328C58.6078 8.29134 58.6825 8.2194 58.7489 8.14746C58.7932 8.09766 58.8734 8.03402 58.9896 7.95654C59.1059 7.87354 59.1861 7.80713 59.2304 7.75732C59.4517 7.4917 59.734 7.23161 60.077 6.97705C60.0937 6.92725 60.2154 6.7723 60.4423 6.51221C60.6747 6.25212 60.8186 6.10547 60.8739 6.07227C60.8905 5.98372 60.9569 5.88688 61.0731 5.78174C61.1894 5.6766 61.2585 5.61019 61.2807 5.58252L61.5048 5.52441C61.5048 5.49674 61.502 5.45524 61.4965 5.3999C61.4909 5.34456 61.4882 5.30306 61.4882 5.27539C61.4882 5.23665 61.5159 5.13981 61.5712 4.98486C61.6265 4.82992 61.6542 4.69434 61.6542 4.57812C61.6099 4.48958 61.5878 4.42041 61.5878 4.37061C61.7095 4.37061 61.9503 4.37061 62.31 4.37061C62.6752 4.36507 62.9851 4.35677 63.2396 4.3457C63.4942 4.33464 63.7377 4.31527 63.9701 4.2876C64.1417 4.34294 64.3354 4.37061 64.5512 4.37061C64.6286 4.37061 64.7449 4.36507 64.8998 4.354C65.0603 4.34294 65.1876 4.3374 65.2816 4.3374C65.2595 4.35954 65.2097 4.39827 65.1322 4.45361C65.0603 4.50342 65.0077 4.54492 64.9745 4.57812C64.7532 4.64453 64.3907 4.89079 63.8871 5.31689C63.3891 5.73747 63.0875 6.05013 62.9823 6.25488L62.8827 6.29639L62.7997 6.37939L62.7831 6.4624C62.761 6.479 62.6973 6.52604 62.5922 6.60352C62.487 6.67546 62.4096 6.73079 62.3598 6.76953C62.31 6.80827 62.2436 6.86084 62.1605 6.92725C62.0775 6.99365 62.0056 7.05729 61.9447 7.11816C61.8894 7.1735 61.8396 7.23161 61.7953 7.29248L61.4882 7.38379L61.5546 7.58301C61.0676 8.19173 60.5917 8.69808 60.1269 9.10205C60.0328 9.10205 59.9581 9.14079 59.9027 9.21826L60.2099 9.52539C60.2541 9.63607 60.3842 9.84635 60.6 10.1562C60.8214 10.4661 60.9403 10.6515 60.9569 10.7124C61.0123 10.7677 61.1091 10.8618 61.2475 10.9946C61.3858 11.1274 61.502 11.2437 61.5961 11.3433C61.6902 11.4373 61.7787 11.5342 61.8617 11.6338L61.8783 11.75C61.8894 11.7611 61.9364 11.8302 62.0194 11.9575C62.1024 12.0793 62.1854 12.1512 62.2685 12.1733C62.2795 12.1899 62.2934 12.2204 62.31 12.2646C62.3266 12.3034 62.3404 12.3311 62.3515 12.3477V12.3643C62.523 12.5579 62.7278 12.7655 62.9657 12.9868C63.2092 13.2026 63.3891 13.3576 63.5053 13.4517C63.627 13.5457 63.8567 13.7256 64.1942 13.9912L64.2108 14.1323C64.233 14.1489 64.2717 14.1794 64.327 14.2236C64.3824 14.2679 64.4211 14.3011 64.4433 14.3232C64.4709 14.3398 64.5069 14.3675 64.5512 14.4062C64.601 14.445 64.6369 14.481 64.6591 14.5142C64.6867 14.5418 64.7172 14.5778 64.7504 14.6221C64.7836 14.6608 64.8113 14.6995 64.8334 14.7383C65.0714 14.8545 65.2014 14.9181 65.2235 14.9292C65.5334 15.466 65.8738 15.8285 66.2445 16.0166C66.156 16.0277 66.0149 16.0332 65.8212 16.0332C65.6496 16.0332 65.4698 16.0166 65.2816 15.9834C65.3093 15.9945 65.337 16.0083 65.3646 16.0249C65.3923 16.0415 65.4228 16.0609 65.456 16.083C65.4892 16.1051 65.5141 16.1217 65.5307 16.1328C65.3757 16.1273 65.2263 16.1107 65.0824 16.083C64.9441 16.0553 64.7891 16.0194 64.6176 15.9751C64.4516 15.9253 64.3104 15.8893 64.1942 15.8672C64.2053 15.8893 64.2108 15.9281 64.2108 15.9834C64.2108 16.0498 64.1749 16.1107 64.1029 16.166C64.0033 16.166 63.8677 16.1494 63.6962 16.1162C63.5246 16.083 63.3891 16.0664 63.2895 16.0664C63.1677 16.0664 62.9796 16.083 62.725 16.1162C62.476 16.1494 62.2851 16.166 62.1522 16.166H61.7289C61.906 15.9447 61.9945 15.679 61.9945 15.3691C61.9945 15.2917 61.989 15.2363 61.9779 15.2031C61.9337 15.1589 61.8756 15.0924 61.8036 15.0039C61.7317 14.9098 61.6874 14.8517 61.6708 14.8296L61.6542 14.6553L61.5048 14.6055C61.4218 14.5114 61.3222 14.3537 61.206 14.1323C61.0953 13.9054 60.9957 13.745 60.9071 13.6509L61.015 13.3687C60.9874 13.341 60.9514 13.3271 60.9071 13.3271C60.8905 13.3271 60.8656 13.3327 60.8324 13.3438C60.7992 13.3493 60.7743 13.3521 60.7577 13.3521C60.7522 13.3521 60.7356 13.3465 60.7079 13.3354C60.6802 13.3188 60.6636 13.3105 60.6581 13.3105C60.6028 13.2054 60.517 13.0809 60.4008 12.937C60.2901 12.7876 60.2016 12.6769 60.1352 12.605C60.0743 12.5275 59.9525 12.3919 59.7699 12.1982C59.5928 12.0046 59.5015 11.9049 59.496 11.8994C59.3964 11.5951 59.0284 11.1247 58.392 10.4883L57.8192 10.9033C57.7916 11.18 57.7777 11.3543 57.7777 11.4263C57.7777 11.62 57.8026 11.7279 57.8524 11.75C57.8524 11.9603 57.8912 12.4196 57.9687 13.1279L57.8192 13.3853L58.0517 13.5845C58.1236 13.7726 58.1928 14.0853 58.2592 14.5225C58.237 14.5557 58.226 14.611 58.226 14.6885C58.226 14.849 58.2619 15.0011 58.3339 15.145C58.4058 15.2834 58.4805 15.394 58.558 15.4771C58.6355 15.5545 58.7489 15.6597 58.8983 15.7925C59.0533 15.9198 59.164 16.0166 59.2304 16.083C59.164 16.1051 59.0948 16.1162 59.0229 16.1162C58.9786 16.1162 58.9177 16.1134 58.8402 16.1079C58.7628 16.1024 58.6936 16.0996 58.6327 16.0996C58.5774 16.0996 58.5248 16.1051 58.475 16.1162C58.4141 16.0885 58.3699 16.0885 58.3422 16.1162C58.2702 16.1162 58.1734 16.1051 58.0517 16.083C57.9299 16.0664 57.8469 16.0553 57.8026 16.0498C57.7805 16.0609 57.7501 16.0664 57.7113 16.0664C57.6671 16.0664 57.6034 16.0443 57.5204 16C57.4374 15.9557 57.3655 15.9336 57.3046 15.9336L57.1884 16.1494C57.1441 16.1494 57.0777 16.1439 56.9892 16.1328C56.9062 16.1217 56.8425 16.1162 56.7982 16.1162C56.7318 16.1162 56.6267 16.1273 56.4828 16.1494C56.3389 16.1771 56.2338 16.1909 56.1674 16.1909ZM54.9804 5.10107L54.9057 4.86865C54.8559 4.84098 54.8061 4.78288 54.7562 4.69434C54.712 4.60026 54.6732 4.53939 54.64 4.51172V4.45361L54.5819 4.40381L54.5985 4.3374L54.64 4.3208C54.7396 4.34294 54.8863 4.354 55.08 4.354C55.1298 4.38721 55.1796 4.40381 55.2294 4.40381L55.2626 4.38721C55.2958 4.39827 55.3428 4.40658 55.4037 4.41211C55.4646 4.41211 55.5033 4.41488 55.5199 4.42041L55.5033 4.47021L55.4369 4.49512C55.4314 4.50618 55.4175 4.53385 55.3954 4.57812C55.3733 4.6224 55.3567 4.65837 55.3456 4.68604C55.3345 4.70817 55.3152 4.74137 55.2875 4.78564C55.2654 4.82992 55.2432 4.86589 55.2211 4.89355C55.199 4.92122 55.1741 4.95166 55.1464 4.98486C55.1187 5.01807 55.091 5.04574 55.0634 5.06787C55.0357 5.08447 55.008 5.09554 54.9804 5.10107Z" fill="white"/>
</svg>
