<svg width="245" height="260" viewBox="0 0 245 260" fill="none" xmlns="http://www.w3.org/2000/svg">
<path d="M157.588 120.05C157.588 120.05 157.732 119.761 157.781 119.617L171.246 61.2361C172.881 54.2152 168.937 47.194 162.06 44.8857C155.568 42.7217 148.307 45.7032 145.229 51.8586L111.134 119.618C108.682 124.523 107.335 130.053 107.335 135.583C107.335 145.97 103.247 155.684 96.1783 162.946C95.5531 161.118 93.7257 159.772 91.706 159.772H61.0249C58.38 159.772 56.216 161.936 56.216 164.581V164.87H4.80893C2.164 164.87 0 167.034 0 169.679C0 172.323 2.164 174.487 4.80893 174.487H56.2652V226.23H4.80893C2.164 226.23 0 228.394 0 231.039C0 233.684 2.164 235.848 4.80893 235.848H56.2652V236.184C56.2652 238.829 58.4292 240.993 61.0742 240.993H91.7553C94.4002 240.993 96.5642 238.829 96.5642 236.184V225.653H124.36C140.47 225.653 154.56 214.785 158.695 199.204L166.149 170.927V170.783L172.015 143.853C172.352 142.458 172.496 140.967 172.496 139.477C172.496 130.388 166.293 122.453 157.588 120.145L157.588 120.05ZM149.365 196.704C146.383 208.053 136.092 215.987 124.358 215.987H96.563V175.208C109.355 166.022 117.001 151.403 117.001 135.533C117.001 131.493 117.963 127.502 119.742 123.895L153.837 56.1363C154.799 54.2128 157.011 53.2991 159.03 53.9723C161.146 54.6937 162.349 56.8577 161.868 59.0216L148.403 117.403C148.21 118.172 148.307 118.942 148.499 119.663C146.046 120.144 143.642 121.058 141.478 122.452C136.958 125.338 133.832 129.858 132.678 135.1L127.292 159.914C126.715 162.511 128.398 165.059 130.946 165.637C133.543 166.214 136.092 164.53 136.669 161.982L142.055 137.168C142.632 134.427 144.267 132.07 146.624 130.58C148.98 129.041 151.817 128.56 154.607 129.137C159.416 130.147 162.878 134.475 162.878 139.38C162.878 140.197 162.782 140.919 162.638 141.688L156.771 168.618V168.714L149.413 196.702L149.365 196.704Z" fill="#583311"/>
<path d="M163.089 18.9375H181.901C182.878 18.9375 183.669 21.5944 183.669 23.7464V248.755C183.669 251.412 182.878 253.564 181.901 253.564H163.089C162.112 253.564 161.321 250.907 161.321 248.755V23.7464C161.321 21.0895 162.112 18.9375 163.089 18.9375Z" fill="#583311"/>
<path d="M19.4763 131.831H52.8972L47.7999 136.928C45.9244 138.804 45.9244 141.834 47.7999 143.709C48.7617 144.671 49.9639 145.104 51.2143 145.104C52.4647 145.104 53.6668 144.623 54.6287 143.709L67.9013 130.436C69.7768 128.561 69.7768 125.531 67.9013 123.656L53.2342 108.989C51.3587 107.113 48.3289 107.113 46.4537 108.989C44.5784 110.864 44.5782 113.894 46.4537 115.769L52.8978 122.213H19.4769C16.832 122.213 14.668 124.377 14.668 127.022C14.668 129.667 16.8314 131.831 19.4763 131.831Z" fill="#583311" fill-opacity="0.5"/>
<path d="M50.1569 80.714H83.5778L78.4805 85.8113C76.605 87.6868 76.605 90.7165 78.4805 92.5918C79.4423 93.5536 80.6445 93.9864 81.895 93.9864C83.1454 93.9864 84.3475 93.5055 85.3094 92.5918L98.582 79.3191C100.457 77.4436 100.457 74.4139 98.582 72.5386L83.9149 57.8715C82.0394 55.996 79.0096 55.996 77.1343 57.8715C75.2591 59.747 75.2588 62.7767 77.1343 64.652L83.5785 71.0961H50.1576C47.5126 71.0961 45.3486 73.2601 45.3486 75.905C45.3486 78.55 47.512 80.714 50.1569 80.714Z" fill="#583311" fill-opacity="0.5"/>
<path d="M80.8357 24.4498H114.257L109.159 29.5471C107.284 31.4226 107.284 34.4523 109.159 36.3276C110.121 37.2894 111.323 37.7222 112.574 37.7222C113.824 37.7222 115.026 37.2413 115.988 36.3276L129.261 23.055C130.174 22.1412 130.655 20.939 130.655 19.6405C130.655 18.342 130.126 17.1399 129.261 16.2261L114.594 1.55897C112.718 -0.316531 109.688 -0.316531 107.813 1.55897C105.938 3.43446 105.938 6.46423 107.813 8.33948L114.257 14.7836H80.8363C78.1913 14.7836 76.0273 16.9476 76.0273 19.5925C76.0273 22.2374 78.1913 24.4014 80.8363 24.4014L80.8357 24.4498Z" fill="#583311" fill-opacity="0.5"/>
</svg>
