<svg width="230" height="300" viewBox="0 0 230 300" fill="none" xmlns="http://www.w3.org/2000/svg">
<path d="M15.5563 119.386C15.5651 119.293 16.507 110.021 23.924 105.71C24.206 105.546 24.3889 105.254 24.4139 104.929C24.4385 104.604 24.3015 104.287 24.0477 104.083C23.8254 103.904 18.5604 99.7324 14.0698 102.365C11.8585 103.661 10.3285 105.926 9.87249 108.579C9.43778 111.109 9.76854 115.133 13.8136 119.934C14.0046 120.161 14.2833 120.285 14.5702 120.285C14.6693 120.285 14.7692 120.271 14.8667 120.24C15.2477 120.12 15.5197 119.784 15.5563 119.386ZM13.9896 116.892C11.697 113.487 11.5125 110.727 11.8243 108.914C12.1808 106.838 13.3644 105.074 15.0713 104.073C15.7948 103.649 16.5699 103.483 17.3401 103.483C18.9705 103.483 20.5782 104.227 21.6232 104.839C16.6364 108.383 14.7091 113.819 13.9896 116.892Z" fill="#583311"/>
<path d="M5.09899 126.764C4.87301 127.08 4.6156 127.415 4.34284 127.772C1.91928 130.934 -2.59148 136.822 4.10036 144.603C4.53384 145.107 5.01319 145.682 5.53131 146.303C7.59202 148.774 10.1299 151.814 12.8843 154.253C11.2187 154.701 9.35151 155.699 7.82592 157.825C7.57494 158.174 7.30425 158.539 7.02307 158.917C3.92792 163.082 -1.25194 170.052 7.03677 176.781C8.58248 178.036 10.0622 179.332 11.4927 180.586C15.1609 183.801 18.5219 186.74 21.9512 188.078V207.108C21.9512 213.327 27.0102 218.386 33.2291 218.386H68.2862C70.0967 221.157 83.1909 240.205 103.476 244.42C125.166 248.927 136.514 275.046 144.754 300L147.475 299.102L147.887 298.965C139.352 273.116 127.481 246.038 104.147 241.189C87.9316 237.82 76.2504 223.736 72.3212 218.386H122.243C128.462 218.386 133.521 213.327 133.521 207.108V204.136C134.199 206.208 134.945 208.342 135.772 210.549L138.862 209.391C121.093 161.961 140.332 147.746 140.529 147.608L139.588 146.252L138.655 144.891C138.364 145.09 135.971 146.81 133.521 150.761V120.887C136.775 121.935 141.527 124.011 143.47 127.005C142.612 130.688 141.763 134.842 141.615 135.569L144.849 136.226C145.786 131.616 147.404 124.216 148.025 122.726C148.773 120.931 147.637 116.963 144.63 108.163C143.909 106.051 143.227 104.057 143.022 103.184C143.02 103.176 143.016 103.169 143.014 103.161C145.783 103.156 151.092 102.746 155.542 100.049L154.516 98.3553C149.818 101.203 143.842 101.23 141.938 101.157C141.083 100.098 139.843 99.0564 138.486 97.919C135.931 95.7779 133.035 93.3507 132.697 90.8095C132.616 90.2052 132.477 89.3265 132.303 88.2364C129.129 68.2984 129.749 57.4154 134.145 55.8905C135.439 55.442 136.586 55.5721 137.664 56.1616L137.202 57.945C136.864 59.2499 137.026 60.6212 137.66 61.8052C139.502 65.2536 144.154 73.6382 147.528 77.0129C147.808 77.2936 148.163 77.4415 148.546 77.4415C148.625 77.4415 148.704 77.4354 148.785 77.4226C149.75 77.2713 150.767 76.0069 151.56 74.7417C153.076 75.9217 154.372 76.999 155.527 77.9632C158.439 80.3949 160.74 82.3157 164.337 83.9859C166.163 84.8338 167.962 90.8746 169.55 96.2048C171.6 103.091 173.925 110.896 177.915 115.858C185.923 125.82 191.199 136.553 191.358 143.203C191.396 144.809 191.543 147.453 191.729 150.799C192.415 163.14 193.691 186.11 191.566 197.729C188.855 212.545 189.356 214.522 193.703 220.111C195.088 221.892 201.242 232.942 207.758 244.64C214.02 255.884 221.106 268.605 226.877 278.432C226.947 278.551 227.019 278.675 227.088 278.793L229.933 277.119C224.144 267.28 216.97 254.399 210.641 243.034C202.709 228.794 197.774 219.97 196.308 218.085C192.802 213.577 192.17 212.765 194.812 198.323C197.008 186.318 195.717 163.094 195.024 150.616C194.839 147.299 194.694 144.679 194.657 143.124C194.445 134.22 186.891 121.757 180.487 113.791C176.903 109.333 174.676 101.858 172.712 95.2627C170.583 88.1137 168.901 82.4669 165.726 80.9929C162.522 79.5051 160.475 77.7958 157.642 75.4298C156.217 74.241 154.603 72.8935 152.585 71.3643C150.675 69.9172 148.907 66.6695 147.198 63.5284C143.912 57.4914 140.197 50.6699 133.521 52.6309V11.2782C133.521 5.05941 128.461 0 122.243 0H33.229C27.0101 0 21.9511 5.05941 21.9511 11.2782V57.6024C20.0178 57.2833 17.0982 57.3315 12.7754 58.5075C8.3919 59.6995 5.39469 62.2298 4.33599 65.6323C3.26203 69.082 4.29853 73.0154 7.17975 76.424C11.4903 81.5242 19.6282 86.7889 21.9511 88.2408V92.8109C5.94458 93.4224 4.76749 101.979 4.12899 106.619L4.08105 106.966C3.53034 110.9 7.3799 118.605 11.5901 123.358C9.4265 123.69 6.67837 124.552 5.09899 126.764ZM14.1866 126.458C14.224 126.458 14.2607 126.458 14.2962 126.458C15.7408 127.013 23.5267 130.169 29.0643 135.784C31.755 138.513 31.1141 142.661 30.4921 144.89C29.0048 150.225 25.1933 154.523 22.5671 155.189C18.172 156.302 11.5974 148.423 8.0656 144.189C7.53584 143.554 7.0456 142.966 6.60288 142.451C1.65823 136.702 4.47625 133.024 6.9626 129.779C7.25912 129.392 7.53864 129.026 7.78442 128.682C9.10135 126.838 12.5671 126.458 14.1866 126.458ZM7.34896 107.424L7.39814 107.069C8.00644 102.65 8.83429 96.6387 21.9512 96.113V97.2945C21.9512 97.8432 22.224 98.356 22.6792 98.6626C22.7468 98.7086 29.4491 103.349 28.9544 113.656C28.6761 119.456 26.2682 122.135 24.2975 123.362C22.2062 124.664 19.5208 124.927 17.453 124.029C13.092 122.136 6.83571 111.092 7.34896 107.424ZM9.70001 74.2937C7.56166 71.7638 6.75518 68.9643 7.48675 66.6129C8.20948 64.292 10.3374 62.5904 13.6416 61.6917C18.1888 60.4547 20.7098 60.6571 21.9512 60.9717V84.3131C18.7227 82.185 12.9214 78.1049 9.70001 74.2937ZM10.5073 159.748C12.0631 157.579 14.1708 157.216 15.4084 157.216C15.9023 157.216 16.258 157.274 16.3845 157.298C23.6101 159.528 30.3961 164.604 34.1072 170.559C35.4117 172.652 35.5898 175.295 34.6088 177.999C33.3962 181.34 30.5573 184.25 27.5439 185.24C23.374 186.61 19.0905 182.856 13.668 178.104C12.2142 176.83 10.7107 175.513 9.11662 174.219C3.70104 169.822 5.93088 165.919 9.67179 160.886C9.96468 160.492 10.2463 160.113 10.5073 159.748ZM136.366 100.448C137.821 101.668 139.632 103.186 139.809 103.94C140.052 104.97 140.694 106.85 141.507 109.229C142.704 112.732 145.185 119.993 144.953 121.521C144.809 121.88 144.638 122.425 144.452 123.09C141.128 119.949 136.063 118.176 133.521 117.439V97.9507C134.459 98.8484 135.448 99.6788 136.366 100.448ZM148.642 75.317C145.476 71.9459 141.154 64.1427 139.406 60.8719C139.007 60.127 138.905 59.2645 139.119 58.4423L139.363 57.5022C140.975 59.1682 142.52 61.8376 144.299 65.1059C146.1 68.4139 147.814 71.5388 149.996 73.4836C149.494 74.2994 148.982 74.9997 148.642 75.317Z" fill="#583311"/>
<path d="M17.3169 150.75C17.5002 150.914 17.7358 151.002 17.9767 151.002C18.0497 151.002 18.1229 150.994 18.1959 150.977C18.5081 150.906 18.7671 150.688 18.8904 150.393C18.9287 150.301 22.7787 141.155 26.8576 138.287C27.1073 138.111 27.2624 137.829 27.277 137.524C27.2915 137.219 27.1642 136.923 26.9317 136.725C26.0985 136.012 18.6663 129.845 14.2841 132.845C10.21 135.633 8.68569 140.585 10.8857 143.885C12.7062 146.615 17.1296 150.582 17.3169 150.75ZM15.4025 134.479C15.888 134.147 16.4713 134.006 17.113 134.006C19.5366 134.006 22.7892 136.029 24.7096 137.482C21.5327 140.372 18.7824 145.85 17.6323 148.346C16.2267 147.023 13.7142 144.557 12.5334 142.787C11.1363 140.691 11.836 136.919 15.4025 134.479Z" fill="#583311"/>
<path d="M15.1684 174.273C15.2824 174.525 18.0411 180.46 24.9472 183.393C25.0713 183.446 25.2031 183.472 25.3343 183.472C25.4862 183.472 25.6381 183.437 25.777 183.367C29.3258 181.593 31.9443 173.236 32.2312 172.289C32.3219 171.99 32.2658 171.665 32.0793 171.413C31.8191 171.061 25.6256 162.802 19.9003 164.944C15.284 166.675 14.7357 171.632 15.0906 174.01C15.1044 174.101 15.1305 174.19 15.1684 174.273ZM20.5956 166.798C23.9728 165.533 28.3976 169.949 30.1851 172.198C29.1872 175.297 27.1616 179.977 25.2618 181.367C19.9305 178.913 17.4432 174.388 17.0323 173.578C16.9406 172.707 16.6763 168.268 20.5956 166.798Z" fill="#583311"/>
<path d="M45.1538 99.6741C44.6004 100.168 44.5519 101.016 45.0455 101.57C45.5391 102.123 46.3878 102.172 46.9412 101.678L45.1538 99.6741ZM104.514 85.941C105.152 85.5629 105.363 84.7393 104.985 84.1014L98.8241 73.7057C98.446 73.0678 97.6224 72.8571 96.9845 73.2352C96.3466 73.6132 96.1359 74.4368 96.5139 75.0748L101.99 84.3154L92.7496 89.7917C92.1117 90.1697 91.901 90.9933 92.2791 91.6313C92.6572 92.2692 93.4808 92.4799 94.1187 92.1018L104.514 85.941ZM46.0475 100.676L46.9412 101.678C51.2747 97.8131 59.3642 92.3413 69.4262 88.628C79.4821 84.917 91.4134 82.9959 103.497 86.0867L103.83 84.7859L104.163 83.4851C91.399 80.2204 78.893 82.272 68.4965 86.1087C58.1061 89.9432 49.7281 95.5943 45.1538 99.6741L46.0475 100.676Z" fill="#A88771"/>
<path d="M106.506 122.103C107.059 121.61 107.108 120.761 106.614 120.208C106.121 119.654 105.272 119.606 104.718 120.099L106.506 122.103ZM47.1453 135.836C46.5074 136.214 46.2967 137.038 46.6747 137.676L52.8356 148.072C53.2136 148.71 54.0373 148.92 54.6752 148.542C55.3131 148.164 55.5238 147.341 55.1457 146.703L49.6694 137.462L58.91 131.986C59.548 131.608 59.7586 130.784 59.3806 130.146C59.0025 129.508 58.1789 129.297 57.541 129.676L47.1453 135.836ZM105.612 121.101L104.718 120.099C100.385 123.964 92.2955 129.436 82.2335 133.149C72.1776 136.86 60.2462 138.781 48.1625 135.691L47.8298 136.991L47.4971 138.292C60.2607 141.557 72.7666 139.505 83.1632 135.669C93.5535 131.834 101.932 126.183 106.506 122.103L105.612 121.101Z" fill="#A88771"/>
</svg>
