<svg width="600" height="191" viewBox="0 0 600 191" fill="none" xmlns="http://www.w3.org/2000/svg">
<mask id="path-1-inside-1_850_3941" fill="white">
<path fill-rule="evenodd" clip-rule="evenodd" d="M445.499 0.296875L449.898 5.1856L454.298 0.296875H593.889C597.264 0.296875 600 3.03301 600 6.4082V184.889C600 188.264 597.264 191 593.889 191H241.149L234.845 183.871L228.54 191H228.054L222.97 185.092L217.886 191H45.6503L40.7646 185.704L35.8788 191H35.6798L29.4181 183.87L23.1565 191H6.11134C2.73615 191 1.52588e-05 188.264 1.52588e-05 184.889V6.40821C1.52588e-05 3.03302 2.73615 0.296875 6.11134 0.296875H432.637L438.552 7.17178L444.468 0.296875H445.499Z"/>
</mask>
<path fill-rule="evenodd" clip-rule="evenodd" d="M445.499 0.296875L449.898 5.1856L454.298 0.296875H593.889C597.264 0.296875 600 3.03301 600 6.4082V184.889C600 188.264 597.264 191 593.889 191H241.149L234.845 183.871L228.54 191H228.054L222.97 185.092L217.886 191H45.6503L40.7646 185.704L35.8788 191H35.6798L29.4181 183.87L23.1565 191H6.11134C2.73615 191 1.52588e-05 188.264 1.52588e-05 184.889V6.40821C1.52588e-05 3.03302 2.73615 0.296875 6.11134 0.296875H432.637L438.552 7.17178L444.468 0.296875H445.499Z" fill="#FEEDD5"/>
<path d="M449.898 5.1856L448.536 6.41198L449.898 7.92646L451.261 6.41198L449.898 5.1856ZM445.499 0.296875L446.862 -0.929509L446.316 -1.53652H445.499V0.296875ZM454.298 0.296875V-1.53652H453.481L452.935 -0.929509L454.298 0.296875ZM241.149 191L239.775 192.215L240.323 192.833H241.149V191ZM234.845 183.871L236.218 182.657L234.845 181.103L233.471 182.657L234.845 183.871ZM228.54 191V192.833H229.367L229.914 192.215L228.54 191ZM228.054 191L226.664 192.196L227.212 192.833H228.054V191ZM222.97 185.092L224.36 183.896L222.97 182.281L221.58 183.896L222.97 185.092ZM217.886 191V192.833H218.727L219.276 192.196L217.886 191ZM45.6503 191L44.3028 192.243L44.8473 192.833H45.6503V191ZM40.7646 185.704L42.1121 184.461L40.7646 183.001L39.4171 184.461L40.7646 185.704ZM35.8788 191V192.833H36.6818L37.2263 192.243L35.8788 191ZM35.6798 191L34.3022 192.21L34.8498 192.833H35.6798V191ZM29.4181 183.87L30.7957 182.66L29.4181 181.092L28.0406 182.66L29.4181 183.87ZM23.1565 191V192.833H23.9865L24.5341 192.21L23.1565 191ZM432.637 0.296875L434.026 -0.898959L433.478 -1.53652H432.637V0.296875ZM438.552 7.17178L437.163 8.36761L438.552 9.98266L439.942 8.36761L438.552 7.17178ZM444.468 0.296875V-1.53652H443.627L443.078 -0.898959L444.468 0.296875ZM451.261 3.95921L446.862 -0.929509L444.136 1.52326L448.536 6.41198L451.261 3.95921ZM452.935 -0.929509L448.536 3.95921L451.261 6.41198L455.661 1.52326L452.935 -0.929509ZM593.889 -1.53652H454.298V2.13027H593.889V-1.53652ZM601.833 6.4082C601.833 2.02045 598.276 -1.53652 593.889 -1.53652V2.13027C596.251 2.13027 598.167 4.04557 598.167 6.4082H601.833ZM601.833 184.889V6.4082H598.167V184.889H601.833ZM593.889 192.833C598.276 192.833 601.833 189.276 601.833 184.889H598.167C598.167 187.251 596.251 189.167 593.889 189.167V192.833ZM241.149 192.833H593.889V189.167H241.149V192.833ZM233.471 185.086L239.775 192.215L242.522 189.785L236.218 182.657L233.471 185.086ZM229.914 192.215L236.218 185.086L233.471 182.657L227.167 189.785L229.914 192.215ZM228.054 192.833H228.54V189.167H228.054V192.833ZM229.443 189.804L224.36 183.896L221.58 186.288L226.664 192.196L229.443 189.804ZM221.58 183.896L216.497 189.804L219.276 192.196L224.36 186.288L221.58 183.896ZM45.6503 192.833H217.886V189.167H45.6503V192.833ZM39.4171 186.948L44.3028 192.243L46.9978 189.757L42.1121 184.461L39.4171 186.948ZM37.2263 192.243L42.1121 186.948L39.4171 184.461L34.5313 189.757L37.2263 192.243ZM35.6798 192.833H35.8788V189.167H35.6798V192.833ZM28.0406 185.08L34.3022 192.21L37.0573 189.79L30.7957 182.66L28.0406 185.08ZM24.5341 192.21L30.7957 185.08L28.0406 182.66L21.779 189.79L24.5341 192.21ZM6.11134 192.833H23.1565V189.167H6.11134V192.833ZM-1.83338 184.889C-1.83338 189.276 1.72359 192.833 6.11134 192.833V189.167C3.7487 189.167 1.83341 187.251 1.83341 184.889H-1.83338ZM-1.83338 6.40821V184.889H1.83341V6.40821H-1.83338ZM6.11134 -1.53652C1.72359 -1.53652 -1.83338 2.02046 -1.83338 6.40821H1.83341C1.83341 4.04557 3.74871 2.13027 6.11134 2.13027V-1.53652ZM432.637 -1.53652H6.11134V2.13027H432.637V-1.53652ZM439.942 5.97594L434.026 -0.898959L431.247 1.49271L437.163 8.36761L439.942 5.97594ZM443.078 -0.898959L437.163 5.97594L439.942 8.36761L445.858 1.49271L443.078 -0.898959ZM445.499 -1.53652H444.468V2.13027H445.499V-1.53652Z" fill="#CDAB94" mask="url(#path-1-inside-1_850_3941)"/>
<path d="M177.214 87.4099L182.043 84.3328C183.82 83.1983 183.82 80.6032 182.043 79.4686L177.214 76.3915L181.079 72.1698C182.505 70.6138 181.832 68.1038 179.819 67.4714L174.358 65.7445L176.998 60.6646C177.972 58.7923 176.672 56.5434 174.564 56.4531L168.841 56.1971L170.076 50.61C170.533 48.5518 168.696 46.7147 166.633 47.1714L161.04 48.4063L160.784 42.6888C160.689 40.5806 158.44 39.2855 156.568 40.2543L151.488 42.8947L149.761 37.4382C149.124 35.4253 146.614 34.7577 145.058 36.1782L140.831 40.0434L137.749 35.2195C136.614 33.4425 134.014 33.4425 132.88 35.2195L129.797 40.0434L125.571 36.1782C124.015 34.7526 121.505 35.4253 120.867 37.4382L119.14 42.8947L114.06 40.2543C112.188 39.2804 109.939 40.5806 109.844 42.6888L109.588 48.4063L103.996 47.1714C101.933 46.7146 100.1 48.5518 100.552 50.61L101.787 56.1971L96.0796 56.443C93.9713 56.5384 92.6712 58.7872 93.645 60.6545L96.2854 65.7345L90.8239 67.4614C88.811 68.0989 88.1384 70.6037 89.564 72.1598L93.4292 76.3815L88.6002 79.4586C86.8232 80.593 86.8232 83.1882 88.6002 84.3228L93.4292 87.3998L89.569 91.6315C88.1433 93.1876 88.816 95.6976 90.8289 96.33L96.2904 98.0568L93.65 103.137C92.6762 105.009 93.9763 107.258 96.0846 107.348L101.807 107.604L100.572 113.191C100.115 115.25 101.953 117.087 104.016 116.63L109.608 115.395L109.864 121.113C109.959 123.221 112.208 124.516 114.08 123.547L119.16 120.907L120.887 126.363C121.525 128.376 124.035 129.044 125.591 127.623L129.817 123.758L132.9 128.582C134.034 130.359 136.634 130.359 137.769 128.582L140.851 123.758L145.078 127.623C146.634 129.049 149.144 128.376 149.781 126.363L151.508 120.907L156.588 123.547C158.46 124.521 160.709 123.221 160.804 121.113L161.061 115.395L166.653 116.63C168.711 117.087 170.548 115.25 170.096 113.191L168.861 107.604L174.584 107.348C176.692 107.253 177.992 105.004 177.018 103.137L174.378 98.0568L179.839 96.33C181.852 95.6925 182.525 93.1876 181.099 91.6315L177.214 87.4099ZM146.533 85.176L153.461 106.335L135.325 93.2578L117.188 106.335L124.116 85.176L105.98 72.0993H128.392L135.325 50.9459L142.252 72.1044H164.665L146.533 85.176Z" fill="#583311"/>
<path d="M167.851 124.703C166.315 125.893 164.719 127.007 163.057 128.031L168.428 148.076L159.117 143.407C157.872 142.785 156.356 143.191 155.593 144.351L149.865 153.045L145.051 135.08C143.254 135.431 141.427 135.692 139.575 135.858L146.146 160.364C146.668 162.598 149.886 163.125 151.09 161.162L158.841 149.401L171.435 155.716C173.453 156.815 175.988 154.752 175.321 152.553L167.851 124.703Z" fill="#583311" fill-opacity="0.5"/>
<path d="M125.536 135.319L120.782 153.044L115.054 144.35C114.286 143.18 112.755 142.789 111.531 143.406L102.219 148.074L107.404 128.738C105.733 127.764 104.121 126.705 102.57 125.561L95.3318 152.557C94.6642 154.756 97.1991 156.819 99.2171 155.719L111.812 149.405L119.562 161.166C120.772 163.128 123.985 162.601 124.507 160.368L131.047 135.967C129.18 135.841 127.343 135.625 125.536 135.319Z" fill="#583311" fill-opacity="0.5"/>
<rect x="19.123" y="11.2986" width="561.375" height="168.811" stroke="#D1AF98" stroke-width="1.22227"/>
<ellipse cx="10.7489" cy="22.5885" rx="2.0618" ry="2.11001" fill="#D1AF98"/>
<ellipse cx="10.7489" cy="28.9186" rx="2.0618" ry="2.11001" fill="#D1AF98"/>
<ellipse cx="7.6563" cy="25.7545" rx="2.0618" ry="2.11001" fill="#D1AF98"/>
<ellipse cx="13.8418" cy="25.7545" rx="2.0618" ry="2.11001" fill="#D1AF98"/>
<ellipse cx="10.7489" cy="162.378" rx="2.0618" ry="2.11001" fill="#D1AF98"/>
<ellipse cx="10.7489" cy="168.708" rx="2.0618" ry="2.11001" fill="#D1AF98"/>
<ellipse cx="7.6563" cy="165.544" rx="2.0618" ry="2.11001" fill="#D1AF98"/>
<ellipse cx="13.8418" cy="165.544" rx="2.0618" ry="2.11001" fill="#D1AF98"/>
<path d="M10.7492 33.9238V157.373" stroke="#D1AF98" stroke-width="1.22227"/>
<ellipse cx="589.029" cy="22.2917" rx="2.0618" ry="2.11001" fill="#D1AF98"/>
<ellipse cx="589.029" cy="28.6217" rx="2.0618" ry="2.11001" fill="#D1AF98"/>
<ellipse cx="585.936" cy="25.4577" rx="2.0618" ry="2.11001" fill="#D1AF98"/>
<ellipse cx="592.121" cy="25.4577" rx="2.0618" ry="2.11001" fill="#D1AF98"/>
<ellipse cx="589.029" cy="162.081" rx="2.0618" ry="2.11001" fill="#D1AF98"/>
<ellipse cx="589.029" cy="168.411" rx="2.0618" ry="2.11001" fill="#D1AF98"/>
<ellipse cx="585.936" cy="165.247" rx="2.0618" ry="2.11001" fill="#D1AF98"/>
<ellipse cx="592.121" cy="165.247" rx="2.0618" ry="2.11001" fill="#D1AF98"/>
<path d="M589.029 33.627V157.076" stroke="#D1AF98" stroke-width="1.22227"/>
<path d="M250.4 98H245.9C245.54 98 245.38 97.84 245.38 97.42C245.38 97.04 245.5 96.84 245.76 96.74L246.34 96.5C246.86 96.28 247.14 95.98 247.14 95.16V86.84C247.14 86.02 246.86 85.7 246.34 85.5L245.76 85.26C245.5 85.16 245.38 84.96 245.38 84.58C245.38 84.16 245.54 84 245.9 84H250.4C250.76 84 250.92 84.16 250.92 84.58C250.92 84.96 250.8 85.16 250.54 85.26L249.96 85.5C249.44 85.7 249.16 86.02 249.16 86.84V95.16C249.16 95.98 249.44 96.28 249.96 96.5L250.54 96.74C250.8 96.84 250.92 97.04 250.92 97.42C250.92 97.84 250.76 98 250.4 98ZM261.321 94.44C261.741 94.56 261.881 94.92 261.681 95.42C261.141 96.92 259.921 98.32 258.001 98.32C255.821 98.32 254.901 96.8 254.901 94.46V89.14H253.861C253.561 89.14 253.421 89.02 253.421 88.62C253.421 88.3 253.481 88.24 253.741 87.92L255.841 85.6C256.141 85.26 256.801 85.4 256.801 85.84V87.58H260.181C260.701 87.58 260.861 87.76 260.861 88.34C260.861 88.9 260.701 89.14 260.181 89.14H256.801V94.56C256.801 96.16 257.341 96.72 258.241 96.72C259.301 96.72 259.821 95.96 260.421 94.76C260.601 94.44 260.841 94.3 261.321 94.44ZM265.254 83.68C265.974 83.68 266.514 84.18 266.514 85.08C266.514 86.74 265.294 88.38 264.674 88.88C264.434 89.08 264.134 89.24 263.814 88.96C263.574 88.76 263.594 88.5 263.754 88.28C264.174 87.74 264.634 87.16 264.914 86.16C264.374 86.02 263.994 85.54 263.994 84.94C263.994 84.22 264.534 83.68 265.254 83.68ZM273.755 91.88C275.715 92.34 277.075 93.22 277.075 95.16C277.075 97.16 275.835 98.32 273.595 98.32C272.335 98.32 271.475 97.7 270.835 96.92L270.735 97.56C270.655 98.04 270.455 98.12 270.055 98.12C269.555 98.12 269.475 98 269.295 97.26L268.735 94.94C268.615 94.38 268.715 94.22 269.215 94C269.695 93.82 269.935 93.96 270.155 94.24C271.155 95.84 272.155 96.76 273.495 96.76C274.595 96.76 275.295 96.24 275.295 95.28C275.295 94.18 274.395 93.88 272.235 93.38C270.055 92.86 268.955 91.78 268.955 90C268.955 88.42 270.155 87.26 271.735 87.26C273.155 87.26 274.035 87.9 274.675 88.7L274.775 88.02C274.855 87.54 275.055 87.46 275.455 87.46C275.975 87.46 276.055 87.58 276.215 88.32L276.655 90.26C276.775 90.82 276.675 91.04 276.175 91.24C275.715 91.44 275.475 91.3 275.235 91C274.315 89.62 273.395 88.8 272.155 88.8C271.315 88.8 270.735 89.14 270.735 89.94C270.735 91.06 271.535 91.36 273.755 91.88ZM287.177 96.2H289.457C291.377 96.2 292.657 96.76 292.657 98.58C292.657 100.82 290.397 101.92 287.317 101.92C283.917 101.92 282.197 101.02 282.197 99.48C282.197 98.44 282.997 97.7 284.657 97.4C284.157 97.02 283.857 96.5 283.857 95.9C283.857 95.2 284.197 94.58 285.017 94.22C283.737 93.56 283.017 92.32 283.017 90.86C283.017 88.94 284.357 87.26 287.317 87.26C288.857 87.26 289.517 87.2 290.657 86.48C291.077 86.2 291.457 86 291.857 86C292.357 86 292.657 86.32 292.657 86.82C292.657 87.92 291.377 88.16 289.577 88.08C290.717 88.74 291.257 89.82 291.257 90.86C291.257 92.98 289.917 94.68 287.137 94.68H287.097C286.057 94.68 285.517 94.9 285.517 95.44C285.517 95.86 285.977 96.2 287.177 96.2ZM287.137 88.68C285.797 88.68 284.877 89.38 284.877 90.72C284.877 92.28 285.837 93.22 287.177 93.22C288.517 93.22 289.417 92.52 289.417 91.16C289.417 89.62 288.477 88.68 287.137 88.68ZM287.397 100.38C289.617 100.38 290.977 99.76 290.977 98.84C290.977 98.2 290.557 98.02 289.497 98.02H286.657C284.617 98.02 284.057 98.52 284.057 99.14C284.057 99.88 284.777 100.38 287.397 100.38ZM303.812 96.42L304.232 96.56C304.632 96.7 304.752 96.82 304.752 97.14C304.752 97.5 304.652 97.62 304.372 97.7L302.652 98.14C302.052 98.28 301.732 98.02 301.732 97.4V96.24L300.872 96.86C299.192 98.08 298.192 98.32 297.032 98.32C295.552 98.32 294.332 97.34 294.332 95.36C294.332 93.64 295.512 92.36 298.332 91.76L301.312 91.14V90.32C301.312 89.4 300.912 88.84 299.972 88.84C297.872 88.84 297.172 90.54 295.752 90.54C295.232 90.54 294.912 90.22 294.912 89.72C294.912 88.42 297.732 87.26 300.112 87.26C302.252 87.26 303.212 88.38 303.212 90.62V95.42C303.212 95.96 303.332 96.24 303.812 96.42ZM300.072 95.9L301.312 95.12V92.42L299.152 92.98C297.152 93.52 296.232 94.08 296.232 95.32C296.232 96.32 296.812 96.8 297.632 96.8C298.332 96.8 298.892 96.64 300.072 95.9ZM324.663 96.62L325.143 96.82C325.483 96.96 325.542 97.08 325.542 97.46C325.542 97.84 325.403 98 325.062 98H321.082C320.742 98 320.603 97.84 320.603 97.48C320.603 97.1 320.662 96.96 320.983 96.82L321.482 96.62C322.003 96.42 322.122 96.1 322.122 95.54V90.44C322.122 89.22 321.482 88.7 320.182 89.32L317.142 90.82V95.54C317.142 96.1 317.283 96.42 317.782 96.62L318.262 96.82C318.582 96.96 318.663 97.08 318.663 97.46C318.663 97.84 318.522 98 318.183 98H314.202C313.882 98 313.722 97.84 313.722 97.46C313.722 97.08 313.802 96.96 314.122 96.82L314.602 96.62C315.102 96.42 315.242 96.1 315.242 95.54V90.44C315.242 89.22 314.602 88.7 313.302 89.32L310.242 90.82V95.54C310.242 96.1 310.382 96.42 310.882 96.62L311.362 96.82C311.682 96.96 311.762 97.08 311.762 97.46C311.762 97.84 311.622 98 311.282 98H307.302C306.962 98 306.802 97.84 306.802 97.48C306.802 97.1 306.882 96.96 307.202 96.82L307.702 96.62C308.202 96.42 308.342 96.1 308.342 95.54V90.5C308.342 89.76 308.262 89.5 307.642 89.28L307.242 89.14C306.882 89 306.802 88.9 306.802 88.58C306.802 88.32 306.882 88.22 307.162 88.12L309.122 87.4C309.862 87.12 310.242 87.3 310.242 88.04V89.58L312.702 88.04C314.762 86.72 316.962 87.06 317.122 89.58L319.583 88.04C321.723 86.66 324.023 87.1 324.023 89.9V95.54C324.023 96.1 324.162 96.42 324.663 96.62ZM336.836 94.02C337.336 94.16 337.396 94.52 337.256 95.04C336.856 96.66 335.216 98.32 332.496 98.32C329.396 98.32 327.436 96 327.436 92.84C327.436 89.7 329.196 87.26 332.496 87.26C335.116 87.26 336.696 88.96 337.036 90.78C337.176 91.52 336.936 91.86 336.356 92.06L329.696 94.42C330.196 95.7 331.236 96.64 332.756 96.64C334.336 96.64 335.276 95.98 335.916 94.46C336.116 94.02 336.376 93.9 336.836 94.02ZM332.296 88.94C330.416 88.96 329.316 90.3 329.336 92.6C329.336 92.82 329.356 93.02 329.376 93.24L335.036 90.98C334.576 89.84 333.656 88.92 332.296 88.94ZM350.624 94.44C351.044 94.56 351.184 94.92 350.984 95.42C350.444 96.92 349.224 98.32 347.304 98.32C345.124 98.32 344.204 96.8 344.204 94.46V89.14H343.164C342.864 89.14 342.724 89.02 342.724 88.62C342.724 88.3 342.784 88.24 343.044 87.92L345.144 85.6C345.444 85.26 346.104 85.4 346.104 85.84V87.58H349.484C350.004 87.58 350.164 87.76 350.164 88.34C350.164 88.9 350.004 89.14 349.484 89.14H346.104V94.56C346.104 96.16 346.644 96.72 347.544 96.72C348.604 96.72 349.124 95.96 349.724 94.76C349.904 94.44 350.144 94.3 350.624 94.44ZM355.077 85.86C354.357 85.86 353.797 85.3 353.797 84.58C353.797 83.86 354.357 83.3 355.077 83.3C355.817 83.3 356.377 83.86 356.377 84.58C356.377 85.3 355.817 85.86 355.077 85.86ZM357.257 98H353.317C352.957 98 352.797 97.84 352.797 97.48C352.797 97.12 352.857 97 353.177 96.84L353.537 96.68C354.157 96.42 354.337 96.12 354.337 95.54V90.54C354.337 89.68 354.237 89.5 353.237 89.16C352.877 89.04 352.797 88.92 352.797 88.64C352.797 88.34 352.877 88.22 353.157 88.12L355.117 87.4C355.857 87.12 356.237 87.3 356.237 88.04V95.54C356.237 96.1 356.397 96.42 356.917 96.64L357.277 96.78C357.697 96.96 357.777 97.12 357.777 97.48C357.777 97.84 357.637 98 357.257 98ZM377.62 96.62L378.1 96.82C378.44 96.96 378.5 97.08 378.5 97.46C378.5 97.84 378.36 98 378.02 98H374.04C373.7 98 373.56 97.84 373.56 97.48C373.56 97.1 373.62 96.96 373.94 96.82L374.44 96.62C374.96 96.42 375.08 96.1 375.08 95.54V90.44C375.08 89.22 374.44 88.7 373.14 89.32L370.1 90.82V95.54C370.1 96.1 370.24 96.42 370.74 96.62L371.22 96.82C371.54 96.96 371.62 97.08 371.62 97.46C371.62 97.84 371.48 98 371.14 98H367.16C366.84 98 366.68 97.84 366.68 97.46C366.68 97.08 366.76 96.96 367.08 96.82L367.56 96.62C368.06 96.42 368.2 96.1 368.2 95.54V90.44C368.2 89.22 367.56 88.7 366.26 89.32L363.2 90.82V95.54C363.2 96.1 363.34 96.42 363.84 96.62L364.32 96.82C364.64 96.96 364.72 97.08 364.72 97.46C364.72 97.84 364.58 98 364.24 98H360.26C359.92 98 359.76 97.84 359.76 97.48C359.76 97.1 359.84 96.96 360.16 96.82L360.66 96.62C361.16 96.42 361.3 96.1 361.3 95.54V90.5C361.3 89.76 361.22 89.5 360.6 89.28L360.2 89.14C359.84 89 359.76 88.9 359.76 88.58C359.76 88.32 359.84 88.22 360.12 88.12L362.08 87.4C362.82 87.12 363.2 87.3 363.2 88.04V89.58L365.66 88.04C367.72 86.72 369.92 87.06 370.08 89.58L372.54 88.04C374.68 86.66 376.98 87.1 376.98 89.9V95.54C376.98 96.1 377.12 96.42 377.62 96.62ZM389.793 94.02C390.293 94.16 390.353 94.52 390.213 95.04C389.813 96.66 388.173 98.32 385.453 98.32C382.353 98.32 380.393 96 380.393 92.84C380.393 89.7 382.153 87.26 385.453 87.26C388.073 87.26 389.653 88.96 389.993 90.78C390.133 91.52 389.893 91.86 389.313 92.06L382.653 94.42C383.153 95.7 384.193 96.64 385.713 96.64C387.293 96.64 388.233 95.98 388.873 94.46C389.073 94.02 389.333 93.9 389.793 94.02ZM385.253 88.94C383.373 88.96 382.273 90.3 382.293 92.6C382.293 92.82 382.313 93.02 382.333 93.24L387.993 90.98C387.533 89.84 386.613 88.92 385.253 88.94ZM395.195 94.28C394.575 94.28 394.415 94.02 394.395 93.6L394.055 85.02C394.015 84.22 394.355 83.9 395.195 83.9C396.015 83.9 396.355 84.22 396.315 85.02L395.975 93.6C395.955 94.02 395.815 94.28 395.195 94.28ZM395.215 98.32C394.475 98.32 393.915 97.76 393.915 97.02C393.915 96.3 394.475 95.74 395.215 95.74C395.935 95.74 396.495 96.3 396.495 97.02C396.495 97.76 395.935 98.32 395.215 98.32ZM259.32 121.5L259.9 121.74C260.16 121.84 260.28 122.04 260.28 122.42C260.28 122.84 260.12 123 259.76 123H255.26C254.9 123 254.74 122.84 254.74 122.42C254.74 122.04 254.86 121.84 255.12 121.74L255.7 121.5C256.22 121.28 256.5 120.98 256.5 120.16V116.68H249.16V120.16C249.16 120.98 249.44 121.28 249.96 121.5L250.54 121.74C250.8 121.84 250.92 122.04 250.92 122.42C250.92 122.84 250.76 123 250.4 123H245.9C245.54 123 245.38 122.84 245.38 122.42C245.38 122.04 245.5 121.84 245.76 121.74L246.34 121.5C246.86 121.28 247.14 120.98 247.14 120.16V111.84C247.14 111.02 246.86 110.7 246.34 110.5L245.76 110.26C245.5 110.16 245.38 109.96 245.38 109.58C245.38 109.16 245.54 109 245.9 109H250.4C250.76 109 250.92 109.16 250.92 109.58C250.92 109.96 250.8 110.16 250.54 110.26L249.96 110.5C249.44 110.7 249.16 111.02 249.16 111.84V114.98H256.5V111.84C256.5 111.02 256.22 110.7 255.7 110.5L255.12 110.26C254.86 110.16 254.74 109.96 254.74 109.58C254.74 109.16 254.9 109 255.26 109H259.76C260.12 109 260.28 109.16 260.28 109.58C260.28 109.96 260.16 110.16 259.9 110.26L259.32 110.5C258.8 110.7 258.52 111.02 258.52 111.84V120.16C258.52 120.98 258.8 121.28 259.32 121.5ZM272.476 121.42L272.896 121.56C273.296 121.7 273.416 121.82 273.416 122.14C273.416 122.5 273.316 122.62 273.036 122.7L271.316 123.14C270.716 123.28 270.396 123.02 270.396 122.4V121.24L269.536 121.86C267.856 123.08 266.856 123.32 265.696 123.32C264.216 123.32 262.996 122.34 262.996 120.36C262.996 118.64 264.176 117.36 266.996 116.76L269.976 116.14V115.32C269.976 114.4 269.576 113.84 268.636 113.84C266.536 113.84 265.836 115.54 264.416 115.54C263.896 115.54 263.576 115.22 263.576 114.72C263.576 113.42 266.396 112.26 268.776 112.26C270.916 112.26 271.876 113.38 271.876 115.62V120.42C271.876 120.96 271.996 121.24 272.476 121.42ZM268.736 120.9L269.976 120.12V117.42L267.816 117.98C265.816 118.52 264.896 119.08 264.896 120.32C264.896 121.32 265.476 121.8 266.296 121.8C266.996 121.8 267.556 121.64 268.736 120.9ZM282.623 112.58H286.203C286.563 112.58 286.703 112.74 286.703 113.1C286.703 113.46 286.643 113.6 286.283 113.8C285.723 114.08 285.443 114.46 285.083 115.24L281.703 122.28C281.423 122.88 281.203 123.06 280.343 123.06C279.343 123.06 279.143 122.86 278.883 122.2L275.903 115.06C275.583 114.3 275.323 114.1 274.663 113.8C274.243 113.6 274.183 113.46 274.183 113.1C274.183 112.74 274.323 112.58 274.683 112.58H278.823C279.203 112.58 279.343 112.74 279.343 113.12C279.343 113.48 279.283 113.66 278.843 113.82C278.063 114.08 277.863 114.54 278.203 115.4L280.583 121.42L283.263 115.36C283.623 114.54 283.383 114.06 282.583 113.8C282.163 113.64 282.103 113.46 282.103 113.12C282.103 112.74 282.243 112.58 282.623 112.58ZM297.238 119.02C297.738 119.16 297.798 119.52 297.658 120.04C297.258 121.66 295.618 123.32 292.898 123.32C289.798 123.32 287.838 121 287.838 117.84C287.838 114.7 289.598 112.26 292.898 112.26C295.518 112.26 297.098 113.96 297.438 115.78C297.578 116.52 297.338 116.86 296.758 117.06L290.098 119.42C290.598 120.7 291.638 121.64 293.158 121.64C294.738 121.64 295.678 120.98 296.318 119.46C296.518 119.02 296.778 118.9 297.238 119.02ZM292.698 113.94C290.818 113.96 289.718 115.3 289.738 117.6C289.738 117.82 289.758 118.02 289.778 118.24L295.438 115.98C294.978 114.84 294.058 113.92 292.698 113.94ZM311.566 109.9C311.806 110.72 311.426 111.2 310.806 111.2C310.266 111.2 309.966 110.94 309.626 110.42C309.066 109.56 308.426 109.12 307.766 109.12C307.086 109.12 306.706 109.58 306.706 110.8V112.58H309.506C310.026 112.58 310.206 112.76 310.206 113.34C310.206 113.9 310.026 114.14 309.506 114.14H306.706V120.48C306.706 121.02 306.786 121.28 307.726 121.56L308.546 121.78C309.186 121.96 309.246 122.1 309.246 122.44C309.246 122.82 309.106 123 308.726 123H303.806C303.426 123 303.266 122.82 303.266 122.46C303.266 122.1 303.346 121.96 303.746 121.78L304.166 121.6C304.686 121.36 304.806 121.02 304.806 120.5V114.14H303.946C303.426 114.14 303.266 113.9 303.266 113.34C303.266 112.76 303.426 112.58 303.946 112.58H304.806V110.96C304.806 108.6 306.146 107.62 307.686 107.62C309.626 107.62 311.266 108.8 311.566 109.9ZM322.761 121.26L323.341 121.46C323.681 121.6 323.781 121.68 323.781 122C323.781 122.28 323.701 122.42 323.401 122.52L321.461 123.18C320.721 123.42 320.341 123.28 320.341 122.5V121.02L318.081 122.54C316.121 123.88 313.641 123.62 313.641 120.56V115.54C313.641 114.84 313.581 114.54 313.001 114.32L312.541 114.16C312.181 114.04 312.101 113.94 312.101 113.64C312.101 113.32 312.161 113.22 312.481 113.12L314.401 112.4C315.121 112.14 315.541 112.28 315.541 113.08V120.28C315.541 121.4 316.281 121.82 317.681 121.12L320.341 119.76V115.54C320.341 114.82 320.281 114.56 319.701 114.34L319.221 114.16C318.881 114.02 318.801 113.94 318.801 113.64C318.801 113.32 318.861 113.22 319.181 113.12L321.101 112.4C321.821 112.14 322.241 112.28 322.241 113.08V120.08C322.241 120.74 322.281 121.08 322.761 121.26ZM337.021 121.62L337.501 121.82C337.821 121.96 337.901 122.08 337.901 122.46C337.901 122.84 337.761 123 337.421 123H333.441C333.101 123 332.961 122.84 332.961 122.48C332.961 122.1 333.021 121.96 333.341 121.82L333.841 121.62C334.341 121.42 334.481 121.1 334.481 120.54V115.44C334.481 114.22 333.841 113.68 332.541 114.32L329.481 115.82V120.54C329.481 121.1 329.621 121.42 330.121 121.62L330.601 121.82C330.921 121.96 330.981 122.08 330.981 122.46C330.981 122.84 330.841 123 330.521 123H326.541C326.201 123 326.041 122.84 326.041 122.48C326.041 122.1 326.121 121.96 326.441 121.82L326.941 121.62C327.441 121.42 327.581 121.1 327.581 120.54V115.5C327.581 114.76 327.501 114.5 326.881 114.28L326.481 114.14C326.121 114 326.041 113.9 326.041 113.58C326.041 113.32 326.121 113.22 326.401 113.12L328.361 112.4C329.101 112.12 329.481 112.3 329.481 113.04V114.58L331.941 113.02C334.081 111.64 336.381 112.08 336.381 114.88V120.54C336.381 121.1 336.521 121.42 337.021 121.62ZM352.825 121.42L353.245 121.56C353.645 121.7 353.765 121.82 353.765 122.14C353.765 122.5 353.665 122.62 353.385 122.7L351.665 123.14C351.065 123.28 350.745 123.02 350.745 122.4V121.24L349.885 121.86C348.205 123.08 347.205 123.32 346.045 123.32C344.565 123.32 343.345 122.34 343.345 120.36C343.345 118.64 344.525 117.36 347.345 116.76L350.325 116.14V115.32C350.325 114.4 349.925 113.84 348.985 113.84C346.885 113.84 346.185 115.54 344.765 115.54C344.245 115.54 343.925 115.22 343.925 114.72C343.925 113.42 346.745 112.26 349.125 112.26C351.265 112.26 352.225 113.38 352.225 115.62V120.42C352.225 120.96 352.345 121.24 352.825 121.42ZM349.085 120.9L350.325 120.12V117.42L348.165 117.98C346.165 118.52 345.245 119.08 345.245 120.32C345.245 121.32 345.825 121.8 346.645 121.8C347.345 121.8 347.905 121.64 349.085 120.9ZM366.795 121.62L367.275 121.82C367.595 121.96 367.675 122.08 367.675 122.46C367.675 122.84 367.535 123 367.195 123H363.215C362.875 123 362.735 122.84 362.735 122.48C362.735 122.1 362.795 121.96 363.115 121.82L363.615 121.62C364.115 121.42 364.255 121.1 364.255 120.54V115.44C364.255 114.22 363.615 113.68 362.315 114.32L359.255 115.82V120.54C359.255 121.1 359.395 121.42 359.895 121.62L360.375 121.82C360.695 121.96 360.755 122.08 360.755 122.46C360.755 122.84 360.615 123 360.295 123H356.315C355.975 123 355.815 122.84 355.815 122.48C355.815 122.1 355.895 121.96 356.215 121.82L356.715 121.62C357.215 121.42 357.355 121.1 357.355 120.54V115.5C357.355 114.76 357.275 114.5 356.655 114.28L356.255 114.14C355.895 114 355.815 113.9 355.815 113.58C355.815 113.32 355.895 113.22 356.175 113.12L358.135 112.4C358.875 112.12 359.255 112.3 359.255 113.04V114.58L361.715 113.02C363.855 111.64 366.155 112.08 366.155 114.88V120.54C366.155 121.1 366.295 121.42 366.795 121.62ZM380.473 121.42L380.893 121.56C381.293 121.7 381.413 121.82 381.413 122.14C381.413 122.5 381.313 122.62 381.033 122.7L379.313 123.14C378.693 123.28 378.373 123.02 378.373 122.4V120.88C377.653 122.32 376.313 123.32 374.353 123.32C371.753 123.32 369.573 121.18 369.573 117.9C369.573 114.32 371.713 112.26 374.353 112.26C375.973 112.26 377.173 113 377.973 114.34V110.82C377.973 109.96 377.873 109.8 376.893 109.46C376.533 109.32 376.453 109.24 376.453 108.92C376.453 108.66 376.533 108.56 376.813 108.46L378.753 107.74C379.473 107.46 379.873 107.6 379.873 108.36V120.42C379.873 120.96 379.993 121.24 380.473 121.42ZM375.013 121.64C376.913 121.62 377.953 120.42 377.973 118.26V118.14C377.933 116 376.793 113.92 374.393 113.94C372.733 113.96 371.393 115.12 371.413 117.5C371.453 119.66 372.673 121.66 375.013 121.64ZM391.158 121.2H393.438C395.358 121.2 396.638 121.76 396.638 123.58C396.638 125.82 394.378 126.92 391.298 126.92C387.898 126.92 386.178 126.02 386.178 124.48C386.178 123.44 386.978 122.7 388.638 122.4C388.138 122.02 387.838 121.5 387.838 120.9C387.838 120.2 388.178 119.58 388.998 119.22C387.718 118.56 386.998 117.32 386.998 115.86C386.998 113.94 388.338 112.26 391.298 112.26C392.838 112.26 393.498 112.2 394.638 111.48C395.058 111.2 395.438 111 395.838 111C396.338 111 396.638 111.32 396.638 111.82C396.638 112.92 395.358 113.16 393.558 113.08C394.698 113.74 395.238 114.82 395.238 115.86C395.238 117.98 393.898 119.68 391.118 119.68H391.078C390.038 119.68 389.498 119.9 389.498 120.44C389.498 120.86 389.958 121.2 391.158 121.2ZM391.118 113.68C389.778 113.68 388.858 114.38 388.858 115.72C388.858 117.28 389.818 118.22 391.158 118.22C392.498 118.22 393.398 117.52 393.398 116.16C393.398 114.62 392.458 113.68 391.118 113.68ZM391.378 125.38C393.598 125.38 394.958 124.76 394.958 123.84C394.958 123.2 394.538 123.02 393.478 123.02H390.638C388.598 123.02 388.038 123.52 388.038 124.14C388.038 124.88 388.758 125.38 391.378 125.38ZM403.12 123.32C399.88 123.32 397.98 120.82 397.98 117.7C397.98 114.52 399.92 112.26 403.12 112.26C406.3 112.26 408.24 114.7 408.24 117.66C408.24 121 406.32 123.32 403.12 123.32ZM403.46 121.64C405.02 121.64 406.36 120.48 406.36 118.16C406.36 116.04 405.1 113.94 402.82 113.94C400.9 113.94 399.88 115.36 399.88 117.36C399.88 119.48 401.08 121.64 403.46 121.64ZM422.197 109.9C422.437 110.72 422.057 111.2 421.437 111.2C420.897 111.2 420.597 110.94 420.257 110.42C419.697 109.56 419.057 109.12 418.397 109.12C417.717 109.12 417.337 109.58 417.337 110.8V112.58H420.137C420.657 112.58 420.837 112.76 420.837 113.34C420.837 113.9 420.657 114.14 420.137 114.14H417.337V120.48C417.337 121.02 417.417 121.28 418.357 121.56L419.177 121.78C419.817 121.96 419.877 122.1 419.877 122.44C419.877 122.82 419.737 123 419.357 123H414.437C414.057 123 413.897 122.82 413.897 122.46C413.897 122.1 413.977 121.96 414.377 121.78L414.797 121.6C415.317 121.36 415.437 121.02 415.437 120.5V114.14H414.577C414.057 114.14 413.897 113.9 413.897 113.34C413.897 112.76 414.057 112.58 414.577 112.58H415.437V110.96C415.437 108.6 416.777 107.62 418.317 107.62C420.257 107.62 421.897 108.8 422.197 109.9ZM428.012 123.32C424.772 123.32 422.872 120.82 422.872 117.7C422.872 114.52 424.812 112.26 428.012 112.26C431.192 112.26 433.132 114.7 433.132 117.66C433.132 121 431.212 123.32 428.012 123.32ZM428.352 121.64C429.912 121.64 431.252 120.48 431.252 118.16C431.252 116.04 429.992 113.94 427.712 113.94C425.792 113.94 424.772 115.36 424.772 117.36C424.772 119.48 425.972 121.64 428.352 121.64ZM442.023 112.26C442.563 112.26 442.923 112.6 442.923 113.12C442.923 114 442.263 114.32 441.263 114.72C440.023 115.24 439.203 115.96 438.803 116.8V120.56C438.803 121.22 439.043 121.52 440.403 121.8C440.883 121.92 440.963 122.1 440.963 122.46C440.963 122.84 440.823 123 440.423 123H435.883C435.523 123 435.363 122.84 435.363 122.48C435.363 122.12 435.443 121.94 435.863 121.78C436.663 121.52 436.903 121.2 436.903 120.54V115.48C436.903 114.62 436.803 114.46 435.803 114.1C435.443 113.98 435.363 113.88 435.363 113.58C435.363 113.3 435.443 113.2 435.723 113.1L437.663 112.38C438.383 112.12 438.783 112.26 438.783 113.02V115.02C439.703 113.4 441.183 112.26 442.023 112.26ZM455.718 119.44C456.138 119.56 456.278 119.92 456.078 120.42C455.538 121.92 454.318 123.32 452.398 123.32C450.218 123.32 449.298 121.8 449.298 119.46V114.14H448.258C447.958 114.14 447.818 114.02 447.818 113.62C447.818 113.3 447.878 113.24 448.138 112.92L450.238 110.6C450.538 110.26 451.198 110.4 451.198 110.84V112.58H454.578C455.098 112.58 455.258 112.76 455.258 113.34C455.258 113.9 455.098 114.14 454.578 114.14H451.198V119.56C451.198 121.16 451.738 121.72 452.638 121.72C453.698 121.72 454.218 120.96 454.818 119.76C454.998 119.44 455.238 119.3 455.718 119.44ZM469.051 121.78C469.491 121.94 469.571 122.12 469.571 122.48C469.571 122.84 469.411 123 469.031 123H465.151C464.751 123 464.611 122.84 464.611 122.46C464.611 122.1 464.671 121.94 465.091 121.78C465.871 121.52 466.131 121.2 466.131 120.54V115.44C466.131 114.22 465.471 113.7 464.191 114.32L461.131 115.82V120.54C461.131 121.2 461.371 121.52 462.151 121.78C462.571 121.94 462.631 122.1 462.631 122.46C462.631 122.84 462.491 123 462.111 123H458.211C457.831 123 457.691 122.84 457.691 122.48C457.691 122.12 457.771 121.94 458.191 121.78C458.971 121.52 459.231 121.2 459.231 120.54V110.86C459.231 110 459.131 109.84 458.111 109.48C457.771 109.36 457.691 109.26 457.691 108.96C457.691 108.68 457.771 108.58 458.031 108.48L459.991 107.76C460.731 107.48 461.131 107.66 461.131 108.4V114.56L463.591 113.02C465.731 111.66 468.031 112.08 468.031 114.9V120.54C468.031 121.2 468.271 121.52 469.051 121.78ZM480.873 119.02C481.373 119.16 481.433 119.52 481.293 120.04C480.893 121.66 479.253 123.32 476.533 123.32C473.433 123.32 471.473 121 471.473 117.84C471.473 114.7 473.233 112.26 476.533 112.26C479.153 112.26 480.733 113.96 481.073 115.78C481.213 116.52 480.973 116.86 480.393 117.06L473.733 119.42C474.233 120.7 475.273 121.64 476.793 121.64C478.373 121.64 479.313 120.98 479.953 119.46C480.153 119.02 480.413 118.9 480.873 119.02ZM476.333 113.94C474.453 113.96 473.353 115.3 473.373 117.6C473.373 117.82 473.393 118.02 473.413 118.24L479.073 115.98C478.613 114.84 477.693 113.92 476.333 113.94ZM500.981 112.58H504.761C505.121 112.58 505.261 112.74 505.261 113.1C505.261 113.46 505.181 113.58 504.781 113.8C504.161 114.1 503.861 114.34 503.441 115.24L500.081 122.28C499.801 122.88 499.581 123.06 498.801 123.06C497.941 123.06 497.741 122.86 497.481 122.2L495.801 118.18L493.841 122.28C493.561 122.88 493.341 123.06 492.501 123.06C491.501 123.06 491.341 122.86 491.081 122.2L488.101 115.06C487.781 114.3 487.521 114.1 486.861 113.8C486.441 113.6 486.381 113.46 486.381 113.1C486.381 112.74 486.521 112.58 486.881 112.58H491.001C491.381 112.58 491.521 112.74 491.521 113.1C491.521 113.46 491.441 113.66 491.041 113.82C490.261 114.08 490.081 114.56 490.381 115.36L492.761 121.38L495.021 116.3L494.501 115.06C494.181 114.3 493.921 114.1 493.261 113.8C492.861 113.6 492.801 113.46 492.801 113.1C492.801 112.74 492.941 112.58 493.301 112.58H497.601C497.941 112.58 498.081 112.74 498.081 113.12C498.081 113.48 498.021 113.66 497.621 113.8C496.521 114.1 496.461 114.54 496.801 115.4L499.061 121.16L501.621 115.36C502.001 114.54 501.741 114.06 500.941 113.8C500.541 113.66 500.481 113.46 500.481 113.12C500.481 112.74 500.621 112.58 500.981 112.58ZM509.193 110.86C508.473 110.86 507.913 110.3 507.913 109.58C507.913 108.86 508.473 108.3 509.193 108.3C509.933 108.3 510.493 108.86 510.493 109.58C510.493 110.3 509.933 110.86 509.193 110.86ZM511.373 123H507.433C507.073 123 506.913 122.84 506.913 122.48C506.913 122.12 506.973 122 507.293 121.84L507.653 121.68C508.273 121.42 508.453 121.12 508.453 120.54V115.54C508.453 114.68 508.353 114.5 507.353 114.16C506.993 114.04 506.913 113.92 506.913 113.64C506.913 113.34 506.993 113.22 507.273 113.12L509.233 112.4C509.973 112.12 510.353 112.3 510.353 113.04V120.54C510.353 121.1 510.513 121.42 511.033 121.64L511.393 121.78C511.813 121.96 511.893 122.12 511.893 122.48C511.893 122.84 511.753 123 511.373 123ZM524.855 121.62L525.335 121.82C525.655 121.96 525.735 122.08 525.735 122.46C525.735 122.84 525.595 123 525.255 123H521.275C520.935 123 520.795 122.84 520.795 122.48C520.795 122.1 520.855 121.96 521.175 121.82L521.675 121.62C522.175 121.42 522.315 121.1 522.315 120.54V115.44C522.315 114.22 521.675 113.68 520.375 114.32L517.315 115.82V120.54C517.315 121.1 517.455 121.42 517.955 121.62L518.435 121.82C518.755 121.96 518.815 122.08 518.815 122.46C518.815 122.84 518.675 123 518.355 123H514.375C514.035 123 513.875 122.84 513.875 122.48C513.875 122.1 513.955 121.96 514.275 121.82L514.775 121.62C515.275 121.42 515.415 121.1 515.415 120.54V115.5C515.415 114.76 515.335 114.5 514.715 114.28L514.315 114.14C513.955 114 513.875 113.9 513.875 113.58C513.875 113.32 513.955 113.22 514.235 113.12L516.195 112.4C516.935 112.12 517.315 112.3 517.315 113.04V114.58L519.775 113.02C521.915 111.64 524.215 112.08 524.215 114.88V120.54C524.215 121.1 524.355 121.42 524.855 121.62ZM530.474 119.28C529.854 119.28 529.694 119.02 529.674 118.6L529.334 110.02C529.294 109.22 529.634 108.9 530.474 108.9C531.294 108.9 531.634 109.22 531.594 110.02L531.254 118.6C531.234 119.02 531.094 119.28 530.474 119.28ZM530.494 123.32C529.754 123.32 529.194 122.76 529.194 122.02C529.194 121.3 529.754 120.74 530.494 120.74C531.214 120.74 531.774 121.3 531.774 122.02C531.774 122.76 531.214 123.32 530.494 123.32Z" fill="#583311"/>
<ellipse cx="245.573" cy="70.0626" rx="1.53696" ry="1.5729" transform="rotate(-90 245.573 70.0626)" fill="#D1AF98"/>
<ellipse cx="250.292" cy="70.0626" rx="1.53696" ry="1.5729" transform="rotate(-90 250.292 70.0626)" fill="#D1AF98"/>
<ellipse cx="247.932" cy="72.3673" rx="1.53696" ry="1.5729" transform="rotate(-90 247.932 72.3673)" fill="#D1AF98"/>
<ellipse cx="247.932" cy="67.7599" rx="1.53696" ry="1.5729" transform="rotate(-90 247.932 67.7599)" fill="#D1AF98"/>
<path d="M253.981 69.8984L489.839 69.8984" stroke="#D1AF98" stroke-width="1.05059"/>
<path d="M496.116 71.9169V71.9258C496 71.9079 495.795 71.9079 495.58 71.9079C495.277 71.9079 494.973 71.9079 494.866 71.8722C495.071 71.7651 495.241 71.7918 495.366 71.5597C495.393 71.5061 495.411 71.4525 495.437 71.4078L495.562 71.3632L495.455 71.2828L495.464 71.1221C495.527 71.0596 495.553 70.9256 495.553 70.8453C495.553 70.7917 495.509 70.7381 495.518 70.6845L495.607 69.729C495.625 69.5415 495.687 69.3629 495.687 69.1753C495.67 69.1218 495.67 69.0682 495.67 69.0146C495.67 68.6931 495.607 68.3627 495.607 68.0412C495.607 67.9876 495.634 67.9341 495.643 67.8805C495.67 67.7465 495.67 67.6126 495.67 67.4786C495.67 67.3625 495.643 67.2554 495.643 67.1393C495.643 67.0053 495.687 66.8803 495.705 66.7553L495.678 66.7017C495.607 66.6928 495.536 66.6928 495.464 66.6928C495.339 66.6928 495.214 66.6839 495.089 66.6839C494.964 66.6303 494.812 66.6303 494.678 66.6303C494.509 66.6303 494.339 66.666 494.178 66.666C494.125 66.666 494.044 66.6124 494 66.5856C493.973 66.6303 493.937 66.7017 493.884 66.7196C493.651 66.7999 493.401 66.7732 493.169 66.8892C493.16 66.8892 493.16 66.8803 493.151 66.8803C493.107 66.8803 493.071 66.916 493.026 66.916L493.008 66.9071L492.991 66.8535C493.044 66.7553 493.205 66.4249 493.267 66.3624C493.312 66.3266 493.375 66.282 493.366 66.2195C493.455 66.0677 493.562 65.9159 493.616 65.7462C493.759 65.7015 493.875 65.6033 494.009 65.5408C494.026 65.5408 494.035 65.5497 494.053 65.5497C494.098 65.5497 494.134 65.5497 494.178 65.5319L494.196 65.514H494.223C494.294 65.514 494.41 65.5408 494.482 65.5676L494.535 65.7105C494.598 65.6926 494.625 65.5944 494.696 65.5944C494.839 65.5944 494.982 65.6122 495.125 65.6122L495.161 65.6301C495.393 65.6301 495.616 65.7105 495.848 65.7105L495.92 65.8176C496.027 65.7908 496.116 65.7105 496.223 65.7105C496.759 65.7105 497.295 65.7819 497.831 65.7819C498.125 65.7819 498.741 65.6658 499.027 65.5855C499.081 65.6033 499.134 65.639 499.197 65.648L499.251 65.5765C499.358 65.5319 499.465 65.4962 499.581 65.4604L499.67 65.4783C499.581 65.6212 499.483 65.8087 499.438 65.9784C499.376 66.0587 499.349 66.157 499.322 66.2463C499.251 66.3356 499.179 66.4338 499.134 66.541C499.054 66.6035 498.974 66.6839 498.902 66.7553C498.84 66.7553 498.786 66.7464 498.724 66.7464C498.625 66.7464 498.518 66.7642 498.42 66.7821C498.366 66.7285 498.232 66.7285 498.161 66.7285C498.045 66.7285 497.929 66.7106 497.813 66.7106C497.652 66.7106 497.5 66.7642 497.348 66.7999L497.286 66.7553C497.152 66.8089 497.009 66.8267 496.866 66.8267C496.795 66.8267 496.723 66.8267 496.661 66.8178L496.625 66.8625L496.643 66.9071V67.2732C496.643 67.5233 496.643 67.7733 496.67 68.0055C496.679 68.1216 496.697 68.2288 496.697 68.3448C496.697 68.5502 496.643 68.7467 496.643 68.9521C496.643 68.9967 496.67 69.0414 496.705 69.0771C496.705 69.1843 496.688 69.2914 496.688 69.3986C496.688 69.4879 496.75 69.5772 496.75 69.6665V69.9255C496.705 69.9612 496.652 69.979 496.616 70.0237L496.759 70.1041C496.768 70.1398 496.768 70.1755 496.768 70.2023C496.768 70.3005 496.75 70.3898 496.75 70.4791C496.75 70.5595 496.759 70.6667 496.83 70.7202L496.804 70.7917L496.857 70.8095C496.911 70.9524 496.929 71.0953 496.964 71.2382C496.947 71.2918 496.92 71.3453 496.884 71.39L496.955 71.3989C497.027 71.515 497.098 71.6311 497.206 71.7204C497.295 71.7918 497.411 71.8008 497.5 71.8722C497.357 71.8722 497.214 71.8811 497.072 71.8811L497 71.8097L496.938 71.8901C496.857 71.8901 496.777 71.8722 496.697 71.8722C496.634 71.8722 496.563 71.8722 496.5 71.899C496.411 71.8811 496.321 71.8811 496.232 71.8811C496.232 71.9079 496.134 71.9169 496.116 71.9169ZM503.319 71.9883C503.051 71.9883 502.792 71.9347 502.533 71.9079C502.479 71.8811 502.444 71.8276 502.417 71.774C502.354 71.7918 502.292 71.8008 502.229 71.8097C501.988 71.6847 501.649 71.5686 501.47 71.3632C501.301 71.1667 501.524 71.2025 501.185 71.0953C501.104 70.9792 500.961 70.756 500.961 70.6131C500.961 70.5238 500.988 70.4434 500.988 70.3541C500.988 70.238 500.917 70.1309 500.818 70.0683C500.729 69.6486 500.729 69.2111 500.729 68.7824C500.729 68.6842 500.693 68.586 500.693 68.4877C500.693 68.3181 500.729 67.9876 500.729 67.7465C500.729 67.6662 500.72 67.5947 500.711 67.5411C500.729 67.4965 500.747 67.4608 500.774 67.425C500.747 67.3893 500.711 67.3268 500.711 67.2822C500.711 67.2107 500.738 67.1393 500.738 67.0678C500.738 67.0053 500.72 66.9428 500.676 66.8982L500.693 66.8267C500.676 66.6481 500.649 66.4695 500.622 66.2909L500.64 66.2284C500.577 66.0945 500.408 65.9873 500.318 65.8712H500.292C500.265 65.8355 500.247 65.7998 500.211 65.773L500.149 65.6748C500.283 65.6658 500.488 65.6926 500.586 65.6837L500.863 65.6658L501.033 65.7998C501.113 65.7462 501.193 65.7015 501.274 65.6658H501.417C501.533 65.6658 501.64 65.6748 501.756 65.6748V65.6926C501.819 65.6926 501.881 65.6748 501.944 65.6748C502.042 65.6748 502.14 65.7015 502.238 65.7015C502.274 65.7015 502.319 65.6926 502.354 65.6837V65.7105C502.051 65.9427 501.81 66.0498 501.81 66.4785C501.81 66.6392 501.729 66.7999 501.738 66.9607L501.685 67.0232C501.72 67.1929 501.765 67.3625 501.765 67.5411C501.765 67.6215 501.738 67.6929 501.738 67.7733C501.738 68.1127 501.828 68.4341 501.828 68.7735C501.81 68.8003 501.801 68.8271 501.801 68.8539C501.801 68.9253 501.836 68.9967 501.836 69.0682C501.836 69.1932 501.81 69.3271 501.81 69.4522C501.81 69.5504 501.863 69.6576 501.926 69.729C501.926 70.3362 502.292 70.747 502.881 70.8631C502.899 70.9346 502.979 71.0239 502.988 71.0864C503.024 71.0328 503.06 70.9792 503.087 70.9167H503.14C503.363 70.9167 503.56 70.8274 503.774 70.8274C503.971 70.8274 504.051 70.5595 504.158 70.4345L504.292 70.372C504.292 70.3005 504.274 70.2291 504.256 70.1576C504.382 70.0594 504.453 69.8272 504.453 69.6754C504.453 69.6308 504.444 69.5772 504.426 69.5325C504.507 69.2378 504.48 68.8539 504.515 68.5502V68.5324C504.515 68.4788 504.489 68.3984 504.489 68.3448C504.489 68.2288 504.515 68.1037 504.515 67.9787C504.515 67.7197 504.471 67.4608 504.471 67.2107C504.471 67.1304 504.542 67.0589 504.551 66.9875L504.453 66.8714C504.471 66.8089 504.471 66.7464 504.471 66.6839C504.471 66.5499 504.346 66.4606 504.346 66.3266C504.292 66.2195 504.212 66.1213 504.14 66.023C504.114 65.898 503.998 65.8266 503.926 65.7283C504.024 65.7462 504.123 65.7373 504.221 65.7373L504.256 65.7551H504.337C504.444 65.7551 504.542 65.7105 504.649 65.6926C504.81 65.7373 504.998 65.7462 505.185 65.7462C505.328 65.7462 505.462 65.7373 505.587 65.7373C505.641 65.7373 505.694 65.7283 505.748 65.7283L505.801 65.6748C505.891 65.6837 505.971 65.7015 506.06 65.6926C505.685 65.9427 505.837 66.032 505.641 66.3177C505.641 66.5588 505.596 66.791 505.596 67.0321C505.596 67.1482 505.605 67.2643 505.605 67.3804C505.605 67.4876 505.578 67.5858 505.578 67.6929L505.605 67.7019V67.7644C505.605 68.068 505.632 68.3806 505.632 68.6842C505.596 68.7199 505.498 68.7824 505.498 68.8449C505.498 68.9164 505.569 68.9699 505.596 69.0325C505.551 69.3986 505.587 69.7736 505.525 70.1398L505.408 70.2202L505.516 70.3452L505.426 70.756C505.337 70.7827 505.275 70.8542 505.257 70.9435C505.194 70.9971 505.167 71.0864 505.114 71.1489C504.614 71.7472 504.114 71.9883 503.319 71.9883ZM509.661 71.9169V71.9258C509.545 71.9079 509.34 71.9079 509.125 71.9079C508.822 71.9079 508.518 71.9079 508.411 71.8722C508.616 71.7651 508.786 71.7918 508.911 71.5597C508.938 71.5061 508.956 71.4525 508.982 71.4078L509.107 71.3632L509 71.2828L509.009 71.1221C509.072 71.0596 509.098 70.9256 509.098 70.8453C509.098 70.7917 509.054 70.7381 509.063 70.6845L509.152 69.729C509.17 69.5415 509.232 69.3629 509.232 69.1753C509.215 69.1218 509.215 69.0682 509.215 69.0146C509.215 68.6931 509.152 68.3627 509.152 68.0412C509.152 67.9876 509.179 67.9341 509.188 67.8805C509.215 67.7465 509.215 67.6126 509.215 67.4786C509.215 67.3625 509.188 67.2554 509.188 67.1393C509.188 67.0053 509.232 66.8803 509.25 66.7553L509.223 66.7017C509.152 66.6928 509.081 66.6928 509.009 66.6928C508.884 66.6928 508.759 66.6839 508.634 66.6839C508.509 66.6303 508.357 66.6303 508.223 66.6303C508.054 66.6303 507.884 66.666 507.723 66.666C507.67 66.666 507.589 66.6124 507.545 66.5856C507.518 66.6303 507.482 66.7017 507.429 66.7196C507.196 66.7999 506.946 66.7732 506.714 66.8892C506.705 66.8892 506.705 66.8803 506.696 66.8803C506.652 66.8803 506.616 66.916 506.571 66.916L506.553 66.9071L506.536 66.8535C506.589 66.7553 506.75 66.4249 506.812 66.3624C506.857 66.3266 506.92 66.282 506.911 66.2195C507 66.0677 507.107 65.9159 507.161 65.7462C507.303 65.7015 507.42 65.6033 507.554 65.5408C507.571 65.5408 507.58 65.5497 507.598 65.5497C507.643 65.5497 507.679 65.5497 507.723 65.5319L507.741 65.514H507.768C507.839 65.514 507.955 65.5408 508.027 65.5676L508.08 65.7105C508.143 65.6926 508.17 65.5944 508.241 65.5944C508.384 65.5944 508.527 65.6122 508.67 65.6122L508.706 65.6301C508.938 65.6301 509.161 65.7105 509.393 65.7105L509.465 65.8176C509.572 65.7908 509.661 65.7105 509.768 65.7105C510.304 65.7105 510.84 65.7819 511.376 65.7819C511.67 65.7819 512.286 65.6658 512.572 65.5855C512.626 65.6033 512.679 65.639 512.742 65.648L512.795 65.5765C512.903 65.5319 513.01 65.4962 513.126 65.4604L513.215 65.4783C513.126 65.6212 513.028 65.8087 512.983 65.9784C512.92 66.0587 512.894 66.157 512.867 66.2463C512.795 66.3356 512.724 66.4338 512.679 66.541C512.599 66.6035 512.519 66.6839 512.447 66.7553C512.385 66.7553 512.331 66.7464 512.269 66.7464C512.17 66.7464 512.063 66.7642 511.965 66.7821C511.911 66.7285 511.777 66.7285 511.706 66.7285C511.59 66.7285 511.474 66.7106 511.358 66.7106C511.197 66.7106 511.045 66.7642 510.893 66.7999L510.831 66.7553C510.697 66.8089 510.554 66.8267 510.411 66.8267C510.34 66.8267 510.268 66.8267 510.206 66.8178L510.17 66.8625L510.188 66.9071V67.2732C510.188 67.5233 510.188 67.7733 510.215 68.0055C510.224 68.1216 510.241 68.2288 510.241 68.3448C510.241 68.5502 510.188 68.7467 510.188 68.9521C510.188 68.9967 510.215 69.0414 510.25 69.0771C510.25 69.1843 510.233 69.2914 510.233 69.3986C510.233 69.4879 510.295 69.5772 510.295 69.6665V69.9255C510.25 69.9612 510.197 69.979 510.161 70.0237L510.304 70.1041C510.313 70.1398 510.313 70.1755 510.313 70.2023C510.313 70.3005 510.295 70.3898 510.295 70.4791C510.295 70.5595 510.304 70.6667 510.375 70.7202L510.349 70.7917L510.402 70.8095C510.456 70.9524 510.474 71.0953 510.509 71.2382C510.492 71.2918 510.465 71.3453 510.429 71.39L510.5 71.3989C510.572 71.515 510.643 71.6311 510.75 71.7204C510.84 71.7918 510.956 71.8008 511.045 71.8722C510.902 71.8722 510.759 71.8811 510.617 71.8811L510.545 71.8097L510.483 71.8901C510.402 71.8901 510.322 71.8722 510.241 71.8722C510.179 71.8722 510.108 71.8722 510.045 71.899C509.956 71.8811 509.866 71.8811 509.777 71.8811C509.777 71.9079 509.679 71.9169 509.661 71.9169ZM516.118 72.0687C515.796 72.0687 515.475 72.0151 515.153 71.9704C515.091 71.9258 515.064 71.8454 515.046 71.7829C514.983 71.8186 514.903 71.8454 514.832 71.8633C514.537 71.6936 514.26 71.5597 514.019 71.3185C513.51 70.8185 513.224 70.2023 513.224 69.479C513.224 69.3539 513.188 69.1843 513.162 69.0682C513.18 68.9253 513.18 68.7824 513.188 68.6395C513.206 68.1484 513.34 67.3804 513.635 66.9785C513.68 66.916 513.76 66.8803 513.84 66.8625C513.849 66.7821 513.858 66.6839 513.903 66.6124C514.358 65.8534 515.278 65.5587 516.118 65.5497L516.091 65.514C516.135 65.5051 516.18 65.5051 516.225 65.5051C516.421 65.5051 516.618 65.514 516.814 65.5229C516.877 65.5587 516.921 65.6301 516.948 65.7015C517.037 65.6748 517.118 65.6569 517.207 65.648C517.528 65.8266 517.895 65.9784 518.154 66.2552C518.645 66.791 519.109 67.3625 519.082 68.1394C519.091 68.1752 519.1 68.202 519.1 68.2377C519.1 68.3002 519.082 68.3806 519.047 68.4341L519.172 68.5324C519.109 68.961 519.163 69.3897 519.038 69.8094L518.85 69.8897L518.966 70.0416C518.904 70.238 518.823 70.4434 518.698 70.6131C518.654 70.6756 518.6 70.7113 518.582 70.7917C518.288 71.0239 518.127 71.3989 517.832 71.6311C517.743 71.7025 517.653 71.7204 517.546 71.7651C517.082 71.9704 516.627 72.0687 516.118 72.0687ZM516.314 71.1667C516.394 71.1667 516.903 71.0953 516.903 71.0149C517.35 70.872 517.716 70.1844 517.805 69.7558L517.886 69.729V69.6933C517.886 69.6486 517.841 69.5861 517.841 69.5147C517.841 69.2825 517.948 69.0503 517.948 68.8181C517.948 68.702 517.904 68.2913 517.859 68.193V68.1752C517.859 68.1216 517.823 68.0859 517.787 68.0412C517.671 67.3 517.439 67.2554 517.234 66.6481H517.1C516.93 66.5142 516.689 66.5053 516.537 66.3624C516.376 66.3088 516.18 66.3266 516.01 66.3266C515.984 66.3266 515.957 66.3266 515.93 66.3356L515.975 66.3981C515.394 66.4606 515.26 66.4874 514.894 66.9518L514.698 66.9607L514.769 67.1571C514.59 67.4697 514.448 67.7822 514.421 68.1484C514.403 68.3716 514.349 68.577 514.349 68.8003C514.349 68.9432 514.403 69.0771 514.403 69.2111C514.403 69.2825 514.367 69.3897 514.34 69.4611C514.403 69.4968 514.474 69.5415 514.519 69.595C514.564 69.9433 514.948 70.5327 515.162 70.8185H515.225C515.358 70.9167 515.51 70.9881 515.626 71.0953C515.707 71.0953 515.778 71.131 515.85 71.1578C516.001 71.1489 516.162 71.1667 516.314 71.1667ZM525.149 71.9437C524.685 71.8901 524.212 71.9079 523.747 71.8722C523.837 71.8186 523.899 71.7561 523.971 71.6847C523.979 71.649 523.979 71.6222 523.979 71.5864C523.979 71.4704 523.935 71.3632 523.89 71.256C523.694 71.0685 523.256 70.4523 523.229 70.1934C522.801 70.0594 522.872 69.086 522.202 68.8271L522.158 68.8806C522.104 68.7913 521.97 68.6931 521.872 68.6574C521.926 68.586 521.961 68.4967 521.997 68.4163C522.077 68.3984 522.149 68.3806 522.229 68.3716C522.399 68.2913 522.604 68.3091 522.783 68.2288C523.033 68.1127 523.435 67.809 523.533 67.5411L523.462 67.4697C523.479 67.3893 523.497 67.309 523.497 67.2286C523.497 67.05 523.426 66.8625 523.283 66.7642C523.238 66.7553 523.185 66.7553 523.14 66.7553C522.917 66.6303 522.72 66.4963 522.452 66.4963C522.167 66.4963 521.89 66.5499 521.613 66.5767C521.551 66.8625 521.542 67.2464 521.542 67.5322C521.542 67.6036 521.506 67.6662 521.506 67.7376C521.506 67.8448 521.577 67.9341 521.64 68.0144C521.622 68.3091 521.604 68.6127 521.604 68.9074C521.604 69.086 521.622 69.2736 521.64 69.4522C521.595 69.4968 521.542 69.5325 521.488 69.5683C521.533 69.5861 521.577 69.595 521.622 69.604C521.658 69.7915 521.693 70.0237 521.693 70.2291C521.693 70.3095 521.684 70.3809 521.676 70.4523L521.729 70.497C521.729 70.7202 521.756 70.9435 521.801 71.1667C521.774 71.2025 521.747 71.2382 521.738 71.2828L521.863 71.3453C522.024 71.6043 522.176 71.7025 522.417 71.8722C522.274 71.8722 522.122 71.8811 521.979 71.8901L521.917 71.8186L521.827 71.8901C521.774 71.8811 521.711 71.8811 521.658 71.8811C521.524 71.8811 521.39 71.8901 521.247 71.8811H521.229C521.184 71.8811 521.14 71.8544 521.113 71.8276C521.006 71.8722 520.89 71.8544 520.783 71.899C520.515 71.8901 520.238 71.8811 519.97 71.8811C520.291 71.7472 520.336 71.6311 520.407 71.3007L520.479 71.2382L520.425 71.131L520.452 70.9346C520.524 70.8363 520.524 70.7024 520.524 70.5863C520.524 70.497 520.515 70.4077 520.488 70.3184C520.568 70.2023 520.577 69.9344 520.577 69.6665V69.2646C520.577 69.1396 520.577 69.0325 520.586 68.961C520.604 68.8628 520.693 68.8181 520.693 68.711C520.693 68.6574 520.64 68.5949 520.64 68.5324C520.64 68.2645 520.586 68.0055 520.586 67.7376C520.586 67.6572 520.613 67.5769 520.613 67.4965C520.613 67.2197 520.524 66.9428 520.559 66.666C520.452 66.666 520.327 66.7285 520.229 66.7732C520.175 66.7642 520.122 66.7553 520.068 66.7553C519.961 66.7553 519.854 66.8089 519.747 66.8089C519.782 66.7374 519.934 66.5053 519.907 66.4338C520.095 66.148 520.309 65.8801 520.497 65.5944C520.613 65.6301 520.72 65.6569 520.827 65.7105H520.925L520.97 65.7462C521.202 65.7105 521.425 65.7194 521.658 65.7194C521.809 65.7194 521.952 65.6748 522.104 65.6748C522.301 65.6748 523.247 65.7194 523.372 65.7551C523.426 65.773 523.417 65.8176 523.462 65.8444L523.551 65.7373C524.087 65.8355 524.837 66.2373 524.837 66.8803C524.837 67.2018 524.676 67.5947 524.462 67.8358C524.292 68.0234 524.158 68.1573 523.962 68.3181L524.015 68.3538C523.935 68.4699 523.658 68.6842 523.524 68.7199C523.462 68.7378 523.399 68.7467 523.337 68.7735C523.533 68.9164 523.899 69.5236 523.971 69.5683C524.194 69.9523 524.435 70.3184 524.721 70.6577C524.703 70.7024 524.694 70.747 524.685 70.7917C524.73 70.7827 524.774 70.7827 524.819 70.7827C524.944 70.9346 525.078 71.0774 525.248 71.1846L525.274 71.2471C525.408 71.2828 525.471 71.4257 525.578 71.5061C525.569 71.5507 525.569 71.6043 525.542 71.649L525.658 71.6132C525.801 71.7115 525.953 71.7918 526.105 71.8633C525.971 71.899 525.837 71.9169 525.703 71.9169C525.623 71.9169 525.542 71.8901 525.462 71.8901C525.426 71.8901 525.399 71.899 525.364 71.9079C525.328 71.899 525.283 71.8901 525.248 71.8901C525.221 71.8901 525.131 71.899 525.149 71.9437ZM526.564 71.9079H526.314V71.8633C526.421 71.8365 526.627 71.5954 526.662 71.4971C526.716 71.3453 526.707 71.1846 526.761 71.0417C526.734 70.8899 526.734 70.747 526.734 70.5952C526.734 69.8987 526.85 69.2111 526.85 68.5145L526.984 68.4609L526.904 68.3984C526.868 68.2377 526.859 68.068 526.859 67.8983C526.859 67.6304 526.886 67.3625 526.886 67.0946C526.886 67.0053 526.913 66.916 526.913 66.8267C526.913 66.6481 526.85 66.4963 526.814 66.3266L526.877 66.2373L526.787 66.2016C526.761 66.0141 526.636 65.8087 526.448 65.7551C526.546 65.6926 526.68 65.7015 526.796 65.6926C526.93 65.7462 527.073 65.7283 527.216 65.7283C527.404 65.7283 527.6 65.7551 527.788 65.7551C527.931 65.7551 528.082 65.7373 528.225 65.7105L528.422 65.7551V65.7641H528.413C528.02 66.0141 527.948 66.5231 527.922 66.9428L527.806 66.9964L527.913 67.0678C527.886 67.1571 527.877 67.2554 527.877 67.3447C527.877 67.5769 527.922 67.809 527.922 68.0412C527.922 68.0501 527.895 68.1127 527.895 68.1216C527.904 68.2734 527.931 68.4163 527.931 68.5681C527.931 68.577 527.895 68.7199 527.886 68.7378C527.913 68.9074 527.931 69.086 527.931 69.2557C527.931 69.3807 527.904 69.4968 527.904 69.6218C527.904 70.0148 528.011 70.3988 528.011 70.7917V70.8274L527.913 70.9435L528.02 70.9881L528.082 71.3989L528.118 71.4168C528.163 71.5954 528.279 71.7383 528.386 71.8811V71.9079C528.27 71.8901 528.154 71.8901 528.038 71.8722L527.975 71.8008L527.895 71.8901C527.743 71.8811 527.582 71.8901 527.43 71.8901C527.297 71.8901 527.163 71.8722 527.029 71.8633L526.957 71.7293L526.895 71.8365C526.779 71.8365 526.662 71.8544 526.564 71.9079ZM531.212 71.9169H530.953C530.837 71.9169 530.738 71.8633 530.631 71.8365C530.533 71.9079 530.462 71.8722 530.354 71.899L530.212 71.8454C530.122 71.8544 530.051 71.899 529.961 71.899C529.836 71.899 529.729 71.8454 529.604 71.8633L529.533 71.8365C529.47 71.7293 529.417 71.6222 529.381 71.5061L529.426 71.4525L529.399 71.4257C529.426 71.2471 529.506 71.1399 529.613 70.9971C529.863 70.6667 530.051 70.2023 530.131 69.8004L530.212 69.6933C530.203 69.6576 530.194 69.6129 530.194 69.5772C530.194 69.3629 530.488 68.6395 530.622 68.4609L530.613 68.3091C530.667 68.193 530.721 68.2645 530.721 68.0948C530.721 68.0591 530.729 68.0234 530.747 67.9876C530.971 67.5858 531.337 66.541 531.346 66.0945C531.399 66.023 531.489 66.0141 531.551 65.9516L531.658 66.0409L531.739 65.9516C531.962 65.8801 531.989 65.8801 532.131 65.6837C532.167 65.6658 532.194 65.648 532.23 65.6212H532.319L532.399 65.7015C532.462 65.7015 532.489 65.7641 532.498 65.8176C532.551 66.1034 532.649 66.3713 532.721 66.6481C532.873 66.7732 533.087 67.6036 533.132 67.8269L533.185 67.8715C533.185 67.9966 533.248 68.1037 533.301 68.2109L533.221 68.3627L533.364 68.3984C533.444 68.8717 533.828 70.0237 534.06 70.4345C534.123 70.5416 534.221 70.6399 534.266 70.756L534.328 70.8006C534.418 70.9613 534.489 71.131 534.569 71.2918C534.543 71.3364 534.516 71.3811 534.489 71.4346H534.632L535.043 71.8811C534.936 71.8722 534.828 71.8722 534.721 71.8722C534.677 71.8722 534.632 71.8633 534.587 71.8633C534.552 71.8633 534.516 71.8722 534.489 71.8811C534.427 71.8722 534.364 71.8633 534.301 71.8633C534.203 71.8633 534.105 71.8811 533.998 71.8811C533.944 71.8811 533.909 71.8544 533.855 71.8544C533.775 71.8544 533.694 71.8811 533.614 71.8811C533.507 71.8811 533.391 71.8722 533.283 71.8544C533.132 71.8901 532.971 71.899 532.81 71.899C532.73 71.899 532.649 71.8901 532.569 71.8901C532.73 71.7829 532.783 71.7472 532.828 71.7025C532.873 71.6579 532.899 71.5864 532.998 71.4346C533.024 71.39 533.06 71.3543 533.069 71.3007L532.998 71.2025C532.98 71.131 532.971 71.0685 532.971 70.9971C532.971 70.9346 532.98 70.8631 532.989 70.8006C532.828 70.4345 532.703 69.9612 532.56 69.5772C532.23 69.595 531.408 69.7915 531.149 69.988C531.042 70.2916 530.98 70.5863 530.953 70.9078C530.899 70.9435 530.881 71.006 530.846 71.0596C530.863 71.0953 530.872 71.1399 530.872 71.1846C530.872 71.2471 530.854 71.3096 530.846 71.3721C530.917 71.4704 530.917 71.5864 530.953 71.6936C531.042 71.7651 531.131 71.8365 531.212 71.9169ZM531.417 69.1128C531.73 69.0503 532.078 69.0235 532.364 68.8806C532.346 68.7199 532.274 68.5681 532.283 68.4074C532.194 68.2823 532.105 67.9519 532.096 67.8001C532.024 67.6662 532.024 67.5054 531.962 67.3715C531.917 67.4518 531.864 67.5322 531.81 67.6036C531.73 68.1216 531.551 68.6127 531.417 69.1128ZM529.167 71.9615C529.077 71.9615 528.988 71.9526 528.899 71.9437C529.015 71.8276 529.113 71.7025 529.193 71.5686L529.238 71.5418C529.238 71.5418 529.283 71.5597 529.31 71.5775C529.31 71.6668 529.381 71.7293 529.435 71.8008V71.8901C529.39 71.8901 529.336 71.9079 529.319 71.9526C529.265 71.9526 529.22 71.9615 529.167 71.9615ZM536.338 71.8722C536.07 71.8722 535.793 71.8544 535.525 71.8544V71.8276L535.596 71.7651C535.712 71.6847 535.829 71.4168 535.9 71.2828L535.909 71.1667C535.998 71.006 536.025 70.8363 536.025 70.6577L536.052 70.6131L536.061 70.2737L536.195 70.1219L536.079 70.0505C536.114 69.6933 536.141 69.1753 536.141 68.7378C536.141 68.5949 536.141 68.452 536.132 68.327L536.248 68.1752L536.15 67.9876V67.9341C536.15 67.7108 536.132 67.4876 536.132 67.2643C536.132 67.2107 536.159 67.1304 536.168 67.0768C536.141 67.0321 536.096 66.9785 536.052 66.9518C536.025 66.7374 536.025 66.5142 535.989 66.2999C535.963 66.1391 535.668 66.032 535.659 65.8712L535.561 65.7462C535.712 65.7283 535.855 65.6748 536.007 65.6658L536.168 65.8087L536.275 65.6926C536.409 65.6837 536.552 65.6837 536.686 65.6658C536.739 65.6837 536.802 65.6926 536.856 65.6926C536.864 65.6926 536.927 65.6658 536.945 65.6658C537.115 65.7015 537.284 65.7373 537.454 65.7194L537.481 65.7373L537.543 65.7283L537.561 65.7105C537.615 65.7194 537.659 65.7283 537.713 65.7283V65.7551C537.507 65.9069 537.302 66.1034 537.24 66.3624L537.115 66.4427L537.222 66.5499C537.195 66.7285 537.141 66.9071 537.15 67.0946C537.132 67.1214 537.132 67.1839 537.132 67.2464C537.132 67.8358 537.168 68.4074 537.168 68.9967C537.168 69.1485 537.168 69.3093 537.195 69.4611L537.097 69.6308C537.115 69.6933 537.186 69.729 537.195 69.8004C537.257 70.1398 537.204 70.4791 537.257 70.8185L537.338 70.9524C537.409 70.9881 537.481 71.0239 537.561 71.0239C537.757 71.0239 537.945 70.9703 538.133 70.9703H538.195C538.231 70.9703 538.24 71.0239 538.284 71.0239C538.472 71.0239 538.668 70.9346 538.865 70.9346C539.115 70.9346 539.445 70.8095 539.651 70.6756H539.668C539.758 70.5952 539.838 70.4881 539.91 70.3898C539.963 70.3184 539.945 70.2202 539.99 70.1487H540.017L540.052 70.113C540.052 70.2023 540.115 70.2827 540.124 70.372C540.097 70.4077 540.061 70.4434 540.061 70.4881L540.169 70.5774C540.267 70.9256 540.329 71.2828 540.454 71.6222C540.454 71.6847 540.481 71.7472 540.481 71.8097C540.481 71.8276 540.472 71.8454 540.472 71.8633L540.383 71.8722C540.097 71.8722 539.802 71.8633 539.526 71.8454L539.427 71.7383C539.374 71.7383 539.258 71.8633 539.213 71.8633C538.954 71.8633 538.704 71.8186 538.445 71.8186C538.195 71.8186 537.954 71.8454 537.704 71.8454C537.463 71.8454 537.213 71.8365 536.972 71.8454L536.981 71.8186C536.766 71.8365 536.552 71.8722 536.338 71.8722Z" fill="#D1AF98"/>
</svg>
