<svg width="1366" height="1024" viewBox="0 0 1366 1024" fill="none" xmlns="http://www.w3.org/2000/svg">
<g clip-path="url(#clip0_1037_5172)">
<rect width="1024" height="1366" transform="translate(0 1024) rotate(-90)" fill="#5E5E5E"/>
<rect width="1366" height="1024" fill="#5E4C88"/>
<path d="M272.681 85.2598H272.834L272.757 85.3555L272.833 85.4502H272.682L204.511 170.709L136.341 85.4502H136.188L136.264 85.3535L136.188 85.2598H136.34L204.511 0L272.681 85.2598Z" fill="#55437F"/>
<path d="M136.494 85.2598H136.646L136.569 85.3535L136.646 85.4502H136.493L68.3232 170.709L0.152344 85.4502H0.000976562L0.0761719 85.3555L0 85.2598H0.15332L68.3232 0L136.494 85.2598Z" fill="#55437F"/>
<path d="M272.68 255.97H272.834L272.757 256.065L272.833 256.161H272.681L204.511 341.42L136.342 256.161H136.188L136.264 256.064L136.188 255.97H136.341L204.511 170.711L272.68 255.97Z" fill="#55437F"/>
<path d="M136.493 255.97H136.646L136.569 256.064L136.646 256.161H136.492L68.3232 341.42L0.15332 256.161H0.000976562L0.0761719 256.065L0 255.97H0.154297L68.3232 170.711L136.493 255.97Z" fill="#55437F"/>
<path d="M272.681 426.678H272.834L272.757 426.773L272.833 426.868H272.682L204.511 512.127L136.341 426.868H136.188L136.264 426.771L136.188 426.678H136.34L204.511 341.418L272.681 426.678Z" fill="#55437F"/>
<path d="M136.494 426.678H136.646L136.569 426.771L136.646 426.868H136.493L68.3232 512.127L0.152344 426.868H0.000976562L0.0761719 426.773L0 426.678H0.15332L68.3232 341.418L136.494 426.678Z" fill="#55437F"/>
<path d="M272.68 597.388H272.834L272.757 597.483L272.833 597.579H272.681L204.511 682.838L136.342 597.579H136.188L136.264 597.482L136.188 597.388H136.341L204.511 512.129L272.68 597.388Z" fill="#55437F"/>
<path d="M136.492 597.388H136.646L136.569 597.483L136.646 597.579H136.493L68.3232 682.838L0.154297 597.579H0L0.0761719 597.482L0.000976562 597.388H0.15332L68.3232 512.129L136.492 597.388Z" fill="#55437F"/>
<path d="M272.68 768.095H272.834L272.757 768.19L272.833 768.286H272.681L204.511 853.545L136.342 768.286H136.188L136.264 768.189L136.188 768.095H136.341L204.511 682.836L272.68 768.095Z" fill="#55437F"/>
<path d="M136.492 768.095H136.646L136.569 768.19L136.646 768.286H136.493L68.3232 853.545L0.154297 768.286H0L0.0761719 768.189L0.000976562 768.095H0.15332L68.3232 682.836L136.492 768.095Z" fill="#55437F"/>
<path d="M272.68 938.806H272.834L272.757 938.901L272.833 938.997H272.681L204.511 1024.26L136.342 938.997H136.188L136.264 938.9L136.188 938.806H136.341L204.511 853.547L272.68 938.806Z" fill="#55437F"/>
<path d="M136.493 938.806H136.646L136.569 938.9L136.646 938.997H136.492L68.3232 1024.26L0.15332 938.997H0.000976562L0.0761719 938.901L0 938.806H0.154297L68.3232 853.547L136.493 938.806Z" fill="#55437F"/>
<path d="M409.329 85.2598H409.482L409.405 85.3555L409.481 85.4502H409.33L341.159 170.709L272.988 85.4502H272.836L272.911 85.3545L272.836 85.2598H272.988L341.159 0L409.329 85.2598Z" fill="#55437F"/>
<path d="M409.328 255.97H409.482L409.405 256.065L409.481 256.161H409.329L341.159 341.42L272.989 256.161H272.836L272.912 256.065L272.836 255.97H272.989L341.159 170.711L409.328 255.97Z" fill="#55437F"/>
<path d="M409.327 426.678H409.48L409.403 426.773L409.479 426.868H409.328L341.157 512.127L272.987 426.868H272.834L272.91 426.771L272.835 426.678H272.986L341.157 341.418L409.327 426.678Z" fill="#55437F"/>
<path d="M409.328 597.388H409.482L409.405 597.483L409.481 597.579H409.329L341.159 682.838L272.989 597.579H272.836L272.912 597.483L272.836 597.388H272.989L341.159 512.129L409.328 597.388Z" fill="#55437F"/>
<path d="M409.328 768.095H409.482L409.405 768.19L409.481 768.286H409.329L341.159 853.545L272.989 768.286H272.836L272.912 768.19L272.836 768.095H272.989L341.159 682.836L409.328 768.095Z" fill="#55437F"/>
<path d="M409.328 938.806H409.482L409.405 938.901L409.481 938.997H409.329L341.159 1024.26L272.989 938.997H272.836L272.912 938.901L272.836 938.806H272.989L341.159 853.547L409.328 938.806Z" fill="#55437F"/>
<path d="M545.973 85.2598H546.124L546.048 85.3535L546.125 85.4502H545.972L477.802 170.709L409.631 85.4502H409.479L409.555 85.3555L409.479 85.2598H409.632L477.802 0L545.973 85.2598Z" fill="#55437F"/>
<path d="M545.972 255.97H546.124L546.048 256.064L546.125 256.161H545.971L477.802 341.42L409.632 256.161H409.479L409.555 256.065L409.479 255.97H409.633L477.802 170.711L545.972 255.97Z" fill="#55437F"/>
<path d="M545.973 426.678H546.124L546.048 426.771L546.125 426.868H545.972L477.802 512.127L409.631 426.868H409.479L409.555 426.773L409.479 426.678H409.632L477.802 341.418L545.973 426.678Z" fill="#55437F"/>
<path d="M545.972 597.388H546.124L546.048 597.482L546.125 597.579H545.971L477.802 682.838L409.632 597.579H409.479L409.555 597.483L409.479 597.388H409.633L477.802 512.129L545.972 597.388Z" fill="#55437F"/>
<path d="M545.972 768.095H546.124L546.048 768.189L546.125 768.286H545.971L477.802 853.545L409.632 768.286H409.479L409.555 768.19L409.479 768.095H409.633L477.802 682.836L545.972 768.095Z" fill="#55437F"/>
<path d="M545.972 938.806H546.124L546.048 938.9L546.125 938.997H545.971L477.802 1024.26L409.632 938.997H409.479L409.555 938.901L409.479 938.806H409.633L477.802 853.547L545.972 938.806Z" fill="#55437F"/>
<path d="M682.62 85.2598H682.773L682.696 85.3555L682.772 85.4502H682.621L614.45 170.709L546.279 85.4502H546.127L546.202 85.3545L546.127 85.2598H546.279L614.45 0L682.62 85.2598Z" fill="#55437F"/>
<path d="M682.619 255.97H682.773L682.696 256.065L682.772 256.161H682.62L614.45 341.42L546.28 256.161H546.127L546.203 256.065L546.127 255.97H546.28L614.45 170.711L682.619 255.97Z" fill="#55437F"/>
<path d="M682.62 426.678H682.773L682.696 426.773L682.772 426.868H682.621L614.45 512.127L546.279 426.868H546.127L546.202 426.772L546.127 426.678H546.279L614.45 341.418L682.62 426.678Z" fill="#55437F"/>
<path d="M682.619 597.388H682.773L682.696 597.483L682.772 597.579H682.62L614.45 682.838L546.28 597.579H546.127L546.203 597.483L546.127 597.388H546.28L614.45 512.129L682.619 597.388Z" fill="#55437F"/>
<path d="M682.619 768.095H682.773L682.696 768.19L682.772 768.286H682.62L614.45 853.545L546.28 768.286H546.127L546.203 768.19L546.127 768.095H546.28L614.45 682.836L682.619 768.095Z" fill="#55437F"/>
<path d="M682.619 938.806H682.773L682.696 938.901L682.772 938.997H682.62L614.45 1024.26L546.28 938.997H546.127L546.203 938.901L546.127 938.806H546.28L614.45 853.547L682.619 938.806Z" fill="#55437F"/>
<path d="M819.264 85.2598H819.415L819.339 85.3535L819.416 85.4502H819.263L751.093 170.709L682.922 85.4502H682.771L682.846 85.3555L682.77 85.2598H682.923L751.093 0L819.264 85.2598Z" fill="#55437F"/>
<path d="M955.91 85.2598H956.062L955.985 85.3535L956.062 85.4502H955.909L887.739 170.709L819.568 85.4502H819.417L819.492 85.3555L819.416 85.2598H819.569L887.739 0L955.91 85.2598Z" fill="#55437F"/>
<path d="M1092.56 85.2598H1092.71L1092.63 85.3535L1092.71 85.4502H1092.56L1024.39 170.709L956.215 85.4502H956.063L956.139 85.3555L956.062 85.2598H956.216L1024.39 0L1092.56 85.2598Z" fill="#55437F"/>
<path d="M1229.2 85.2598H1229.35L1229.28 85.3555L1229.35 85.4502H1229.2L1161.03 170.709L1092.86 85.4502H1092.71L1092.78 85.3545L1092.71 85.2598H1092.86L1161.03 0L1229.2 85.2598Z" fill="#55437F"/>
<path d="M1365.85 85.2598H1366L1365.92 85.3535L1366 85.4502H1365.85L1297.68 170.709L1229.51 85.4502H1229.35L1229.43 85.3555L1229.35 85.2598H1229.51L1297.68 0L1365.85 85.2598Z" fill="#55437F"/>
<path d="M819.263 255.97H819.415L819.339 256.064L819.416 256.161H819.262L751.093 341.42L682.923 256.161H682.771L682.846 256.065L682.77 255.97H682.924L751.093 170.711L819.263 255.97Z" fill="#55437F"/>
<path d="M955.909 255.97H956.062L955.985 256.064L956.062 256.161H955.908L887.739 341.42L819.569 256.161H819.417L819.492 256.065L819.416 255.97H819.57L887.739 170.711L955.909 255.97Z" fill="#55437F"/>
<path d="M1092.56 255.97H1092.71L1092.63 256.064L1092.71 256.161H1092.55L1024.39 341.42L956.216 256.161H956.063L956.139 256.065L956.062 255.97H956.217L1024.39 170.711L1092.56 255.97Z" fill="#55437F"/>
<path d="M1229.2 255.97H1229.35L1229.28 256.065L1229.35 256.161H1229.2L1161.03 341.42L1092.86 256.161H1092.71L1092.78 256.065L1092.71 255.97H1092.86L1161.03 170.711L1229.2 255.97Z" fill="#55437F"/>
<path d="M1365.85 255.97H1366L1365.92 256.064L1366 256.161H1365.85L1297.68 341.42L1229.51 256.161H1229.35L1229.43 256.065L1229.35 255.97H1229.51L1297.68 170.711L1365.85 255.97Z" fill="#55437F"/>
<path d="M819.264 426.678H819.415L819.339 426.771L819.416 426.868H819.263L751.093 512.127L682.922 426.868H682.771L682.846 426.773L682.77 426.678H682.923L751.093 341.418L819.264 426.678Z" fill="#55437F"/>
<path d="M819.263 597.388H819.415L819.339 597.482L819.416 597.579H819.262L751.093 682.838L682.923 597.579H682.771L682.846 597.483L682.77 597.388H682.924L751.093 512.129L819.263 597.388Z" fill="#55437F"/>
<path d="M819.263 768.095H819.415L819.339 768.189L819.416 768.286H819.262L751.093 853.545L682.923 768.286H682.771L682.846 768.19L682.77 768.095H682.924L751.093 682.836L819.263 768.095Z" fill="#55437F"/>
<path d="M819.263 938.806H819.415L819.339 938.9L819.416 938.997H819.262L751.093 1024.26L682.923 938.997H682.771L682.846 938.901L682.77 938.806H682.924L751.093 853.547L819.263 938.806Z" fill="#55437F"/>
<path d="M955.91 426.678H956.062L955.985 426.771L956.062 426.868H955.909L887.739 512.127L819.568 426.868H819.417L819.492 426.773L819.416 426.678H819.569L887.739 341.418L955.91 426.678Z" fill="#55437F"/>
<path d="M955.909 597.388H956.062L955.985 597.482L956.062 597.579H955.908L887.739 682.838L819.569 597.579H819.417L819.492 597.483L819.416 597.388H819.57L887.739 512.129L955.909 597.388Z" fill="#55437F"/>
<path d="M955.909 768.095H956.062L955.985 768.189L956.062 768.286H955.908L887.739 853.545L819.569 768.286H819.417L819.492 768.19L819.416 768.095H819.57L887.739 682.836L955.909 768.095Z" fill="#55437F"/>
<path d="M955.909 938.806H956.062L955.985 938.9L956.062 938.997H955.908L887.739 1024.26L819.569 938.997H819.417L819.492 938.901L819.416 938.806H819.57L887.739 853.547L955.909 938.806Z" fill="#55437F"/>
<path d="M1092.56 426.678H1092.71L1092.63 426.771L1092.71 426.868H1092.56L1024.39 512.127L956.215 426.868H956.063L956.139 426.773L956.062 426.678H956.216L1024.39 341.418L1092.56 426.678Z" fill="#55437F"/>
<path d="M1092.56 597.388H1092.71L1092.63 597.482L1092.71 597.579H1092.55L1024.39 682.838L956.216 597.579H956.063L956.139 597.483L956.062 597.388H956.217L1024.39 512.129L1092.56 597.388Z" fill="#55437F"/>
<path d="M1092.56 768.095H1092.71L1092.63 768.189L1092.71 768.286H1092.55L1024.39 853.545L956.216 768.286H956.063L956.139 768.19L956.062 768.095H956.217L1024.39 682.836L1092.56 768.095Z" fill="#55437F"/>
<path d="M1092.56 938.806H1092.71L1092.63 938.9L1092.71 938.997H1092.55L1024.39 1024.26L956.216 938.997H956.063L956.139 938.901L956.062 938.806H956.217L1024.39 853.547L1092.56 938.806Z" fill="#55437F"/>
<path d="M1229.2 426.678H1229.35L1229.28 426.773L1229.35 426.868H1229.2L1161.03 512.127L1092.86 426.868H1092.71L1092.78 426.772L1092.71 426.678H1092.86L1161.03 341.418L1229.2 426.678Z" fill="#55437F"/>
<path d="M1229.2 597.388H1229.35L1229.28 597.483L1229.35 597.579H1229.2L1161.03 682.838L1092.86 597.579H1092.71L1092.78 597.483L1092.71 597.388H1092.86L1161.03 512.129L1229.2 597.388Z" fill="#55437F"/>
<path d="M1229.2 768.095H1229.35L1229.28 768.19L1229.35 768.286H1229.2L1161.03 853.545L1092.86 768.286H1092.71L1092.78 768.19L1092.71 768.095H1092.86L1161.03 682.836L1229.2 768.095Z" fill="#55437F"/>
<path d="M1229.2 938.806H1229.35L1229.28 938.901L1229.35 938.997H1229.2L1161.03 1024.26L1092.86 938.997H1092.71L1092.78 938.901L1092.71 938.806H1092.86L1161.03 853.547L1229.2 938.806Z" fill="#55437F"/>
<path d="M1365.85 426.678H1366L1365.92 426.771L1366 426.868H1365.85L1297.68 512.127L1229.51 426.868H1229.35L1229.43 426.773L1229.35 426.678H1229.51L1297.68 341.418L1365.85 426.678Z" fill="#55437F"/>
<path d="M1365.85 597.388H1366L1365.92 597.482L1366 597.579H1365.85L1297.68 682.838L1229.51 597.579H1229.35L1229.43 597.483L1229.35 597.388H1229.51L1297.68 512.129L1365.85 597.388Z" fill="#55437F"/>
<path d="M1365.85 768.095H1366L1365.92 768.189L1366 768.286H1365.85L1297.68 853.545L1229.51 768.286H1229.35L1229.43 768.19L1229.35 768.095H1229.51L1297.68 682.836L1365.85 768.095Z" fill="#55437F"/>
<path d="M1365.85 938.806H1366L1365.92 938.9L1366 938.997H1365.85L1297.68 1024.26L1229.51 938.997H1229.35L1229.43 938.901L1229.35 938.806H1229.51L1297.68 853.547L1365.85 938.806Z" fill="#55437F"/>
<rect x="-0.0625" y="-0.371094" width="1366.06" height="1024.37" fill="url(#paint0_radial_1037_5172)" fill-opacity="0.2"/>
</g>
<defs>
<radialGradient id="paint0_radial_1037_5172" cx="0" cy="0" r="1" gradientUnits="userSpaceOnUse" gradientTransform="translate(682.969 511.814) rotate(90) scale(512.186 683.031)">
<stop stop-color="#666666"/>
<stop offset="1"/>
</radialGradient>
<clipPath id="clip0_1037_5172">
<rect width="1024" height="1366" fill="white" transform="translate(0 1024) rotate(-90)"/>
</clipPath>
</defs>
</svg>
