<svg width="504" height="135" viewBox="0 0 504 135" fill="none" xmlns="http://www.w3.org/2000/svg">
<path d="M43.1064 103.642C44.1304 103.432 45.1334 103.438 45.7921 103.375C49.2293 103.049 53.5678 101.561 57.49 100.809C60.0859 100.318 61.3823 100.076 63.9812 99.5996C64.6848 100.118 65.0351 100.378 65.7387 100.899C65.7387 100.546 65.9004 100.336 66.2297 100.279C66.3884 100.462 66.4662 100.555 66.6249 100.74C67.3076 104.516 67.9902 108.291 68.6759 112.067C68.4363 112.112 68.3166 112.133 68.0771 112.175C66.7327 110.276 65.9872 108.965 65.8525 108.232C65.7746 107.809 65.7357 107.6 65.6608 107.181C64.6878 107.36 63.4871 106.306 62.053 104.028C60.7685 104.267 60.1278 104.387 58.8433 104.63C59.6876 109.094 60.532 113.555 61.3763 118.019C61.5589 118.989 61.6937 120.238 61.7775 121.765C62.032 122.025 62.1967 122.358 62.2745 122.759C62.526 125.166 62.7416 126.846 62.9213 127.801C63.2117 129.337 64.8345 130.57 67.7746 131.519C67.8136 131.726 67.8315 131.828 67.8705 132.034C63.1069 132.915 58.3523 133.834 53.6007 134.783C53.5797 134.675 53.5678 134.621 53.5468 134.517C55.5109 132.516 56.4151 131.073 56.2415 130.178C56.1636 129.777 56.1936 129.409 56.3313 129.07C55.7564 127.19 55.3343 125.549 55.0588 124.151L55.0049 123.885C54.3282 120.37 54.451 116.142 53.8193 113.22C53.2444 110.558 51.8462 107.803 51.5018 106.046C50.3312 106.276 49.7473 106.39 48.5766 106.624C47.0706 109.66 46.4778 113.208 45.7293 116.48C45.6095 116.504 45.5496 116.516 45.4299 116.54C44.6813 112.869 43.9298 109.199 43.1813 105.528C43.1514 104.773 43.1394 104.393 43.1094 103.639L43.1064 103.642Z" fill="white"/>
<path d="M97.7359 125.155C95.3616 123.864 93.2627 122.134 91.4424 119.951C91.2567 118.784 89.8136 116.592 87.083 113.397C87.065 113.289 87.056 113.235 87.0381 113.128C88.8644 112.828 90.4483 111.229 91.8076 108.328C92.8196 106.526 93.2208 105.008 93.0442 103.804C92.0412 96.9357 85.068 95.8728 79.3074 96.8818C78.457 97.0315 77.5528 97.2711 76.6157 97.6154C74.4959 97.792 72.4779 98.0525 70.5587 98.3909C69.2502 98.6214 68.5945 98.7382 67.2861 98.9747C67.3041 99.0825 67.3161 99.1364 67.334 99.2442C70.0407 100.699 71.4659 101.891 71.6245 102.801C72.0677 105.31 72.2892 106.565 72.7324 109.074C72.8342 109.658 73.0048 110.08 73.2443 110.346C73.2443 110.993 73.2443 111.316 73.2443 111.963C74.1066 116.855 74.9719 121.748 75.8342 126.637C74.6905 128.242 74.1216 129.047 72.9898 130.658C73.0078 130.757 73.0168 130.805 73.0348 130.904C73.2174 130.871 73.4958 130.913 73.8761 131.029C77.3462 130.221 79.493 129.49 80.3104 128.811C80.4002 129.335 80.6277 129.565 80.99 129.502C83.1128 129.137 84.1757 128.957 86.2985 128.604C86.2656 128.398 86.2476 128.296 86.2117 128.089C85.7117 128.173 84.4871 127.386 82.52 125.736L81.0948 117.346C80.9062 116.843 80.8104 116.592 80.6218 116.089C84.3464 119.55 87.3974 123.954 90.5441 127.909C92.0591 127.664 93.661 127.499 95.3556 127.415C97.4395 126.856 98.4455 126.344 98.3736 125.862C98.3587 125.763 98.3497 125.712 98.3347 125.613C97.9844 125.667 97.7838 125.514 97.7269 125.155H97.7359ZM81.5649 110.253C81.1397 110.325 80.9271 110.361 80.502 110.433C80.2984 110.58 80.1966 110.652 79.993 110.795C79.487 107.819 78.981 104.843 78.478 101.87C78.3403 101.681 78.2714 101.586 78.1337 101.397C78.3313 101.253 78.4271 101.181 78.6247 101.038C78.7355 101.02 78.7924 101.011 78.9032 100.99C81.8823 100.295 85.6967 101.112 86.2057 104.642C86.6518 107.738 85.1698 109.646 81.5649 110.253Z" fill="white"/>
<path d="M92.709 94.8537C97.3109 94.1471 101.916 93.4644 106.524 92.8027C105.284 94.3836 104.664 95.177 103.434 96.7639C104 100.659 104.566 104.554 105.131 108.45C104.961 109.761 104.886 110.495 104.907 110.644C104.97 111.067 105 111.279 105.063 111.701C105.173 112.468 105.455 113.153 105.904 113.764C105.958 114.139 105.877 115.279 106.051 116.707C106.344 119.13 106.997 121.276 107.176 122.522C108.916 123.175 109.859 124.028 110.009 125.079C109.814 125.217 109.718 125.285 109.524 125.423C105.587 125.989 101.655 126.576 97.7271 127.184C97.7091 127.076 97.7031 127.022 97.6851 126.914C98.8618 125.321 99.4546 124.528 100.64 122.938L99.272 113.917C99.2451 113.737 99.1403 113.662 98.9546 113.689C99.0325 113.465 99.0744 113.354 99.1522 113.13C98.4546 108.534 97.757 103.938 97.0594 99.3418C96.8468 97.9316 95.5204 96.5962 93.0743 95.3507C92.9276 95.1531 92.8557 95.0543 92.709 94.8537Z" fill="white"/>
<path d="M134.413 119.019C133.88 119.082 132.88 116.696 131.395 111.863C129.946 110.435 129.174 109.369 129.087 108.66L128.958 107.6C129.033 107.369 129.072 107.255 129.147 107.028C128.976 107.049 128.883 106.977 128.862 106.809C128.835 106.594 128.823 106.483 128.796 106.267C128.874 106.046 128.91 105.938 128.988 105.716C126.955 100.71 125.102 95.6324 123.224 90.5664C120.685 90.8868 119.416 91.0485 116.88 91.3838C116.44 91.4407 115.652 91.8119 114.521 92.5006C114.581 92.9377 115.422 93.6323 117.042 94.5964C117.054 94.6952 117.063 94.7461 117.075 94.8449C116.167 102.052 115.29 109.264 114.443 116.48C114.464 119.223 113.066 122.717 110.928 124.504C110.958 124.711 110.973 124.816 111.003 125.022C112.068 124.873 112.598 124.798 113.664 124.648C114.407 124.543 115.134 124.537 115.841 124.624C116.5 124.349 117.2 124.163 117.943 124.061C119.009 123.917 119.542 123.846 120.608 123.705C120.581 123.498 120.566 123.393 120.539 123.187C119.152 121.932 118.341 121.322 118.111 121.355C118.03 120.753 118.248 118.307 118.784 114.01C121.048 113.711 122.176 113.561 124.443 113.273C125.111 115.696 125.709 116.872 126.242 116.807C126.287 117.154 126.132 117.348 125.781 117.393C126.263 118.372 126.548 119.232 126.641 119.968C125.593 121.72 124.898 122.621 124.548 122.666C124.575 122.873 124.587 122.977 124.614 123.184C125.251 123.103 125.572 123.061 126.21 122.98C126.62 122.929 126.988 122.974 127.314 123.115C127.611 122.893 127.955 122.759 128.35 122.711C129.844 122.525 130.593 122.432 132.09 122.253C132.865 122.16 133.56 121.899 134.171 121.477C134.213 121.825 135.225 121.968 137.207 121.923C137.557 121.881 137.713 121.69 137.671 121.343C137.653 121.178 136.569 120.399 134.413 119.019ZM120.784 110.513C120.691 109.806 120.284 109.501 119.56 109.594C119.446 108.737 119.667 106.198 120.236 101.98C120.338 101.968 120.389 101.959 120.491 101.947C121.41 104.728 121.868 106.118 122.778 108.899C121.979 109.543 121.578 109.866 120.781 110.51L120.784 110.513Z" fill="white"/>
<path d="M134.755 89.0672C139.642 88.5073 144.531 87.9774 149.423 87.4863C149.444 87.6989 148.205 88.9774 145.732 91.3427C145.866 92.6182 145.932 93.2559 146.064 94.5344C145.642 94.5793 145.441 94.6901 145.459 94.8727C146.121 98.7321 146.833 102.594 147.312 106.481C147.636 109.574 147.959 112.667 148.283 115.756C148.381 116.098 148.597 116.25 148.932 116.214C150.271 116.077 150.941 116.008 152.28 115.873C154.612 111.987 155.549 106.846 156.849 102.579C157.1 102.556 157.226 102.544 157.474 102.52C157.834 106.325 158.193 110.131 158.552 113.936C158.459 115.726 158.139 116.649 157.588 116.703C158.286 117.604 158.633 118.056 159.328 118.96C158.947 119.164 158.651 119.274 158.438 119.295C154.753 119.646 152.019 120.161 150.585 120.346C147.462 120.751 143.699 120.831 140.261 121.185C139.175 121.307 138.633 121.37 137.546 121.496C137.534 121.397 137.528 121.346 137.516 121.248C138.926 119.682 139.633 118.903 141.055 117.343C140.983 116.712 140.95 116.394 140.878 115.759C140.743 114.553 140.731 113.478 140.845 112.535C140.528 111.64 140.3 110.589 140.166 109.382C140.154 109.283 140.148 109.232 140.139 109.134C140.118 108.954 140.007 108.873 139.809 108.897C139.98 108.604 140.201 107.274 140.049 105.391C139.764 101.855 138.914 97.8189 138.45 94.0104C138.414 93.693 138.396 93.5344 138.36 93.22C138.342 93.0553 138.231 92.9835 138.028 93.0044C138.127 92.7739 138.174 92.6571 138.273 92.4266C138.222 92.1122 137.204 91.4235 135.21 90.3696C134.785 89.9864 134.573 89.7978 134.147 89.4145C134.39 89.2768 134.51 89.2079 134.752 89.0702L134.755 89.0672Z" fill="white"/>
<path d="M163.171 87.0614C164.991 86.1721 167.677 85.3158 170.297 85.4116C170.542 85.4206 170.842 85.4895 171.114 85.5284C172.216 85.8668 173.863 86.3518 176.042 86.9925C177.126 86.0883 178.096 85.6063 178.947 85.5464C179.231 89.4477 179.515 93.3519 179.8 97.2532C177.435 94.4687 175.03 91.3399 171.476 90.0165C171.476 90.0435 171.479 90.0585 171.482 90.0854C171.443 90.0884 171.425 90.0914 171.39 90.0944C168.06 90.0585 166.683 91.4298 166.728 93.6993C166.794 97.0107 167.833 99.5886 170.225 100.119C172.626 100.652 176.075 101.738 178.045 103.568C177.743 104.493 177.59 104.957 177.288 105.882C177.893 105.28 178.198 104.978 178.806 104.376C179.764 105.568 180.264 107.002 180.414 108.547C180.914 113.649 176.982 117.269 172.426 117.948C170.222 118.278 166.395 118.418 164.162 117.008C163.12 117.924 162.189 118.418 161.365 118.496C161.006 114.601 160.647 110.703 160.288 106.807C162.782 109.673 165.659 113.538 169.725 114.062C169.91 114.062 170.093 114.053 170.279 114.038C172.952 113.739 173.617 111.957 173.438 109.604C173.282 107.553 171.925 105.205 168.964 104.421C164.44 103.226 159.24 100.074 158.82 94.7412C158.719 93.4388 158.77 91.795 159.228 91.2082C159.683 90.6243 160.707 89.762 161.075 89.1213C161.407 88.5465 162.246 88.1722 163.189 88.0884C163.18 87.6782 163.177 87.4716 163.171 87.0614Z" fill="white"/>
<path d="M204.005 83.4024C202.314 83.4862 201.466 83.5281 199.778 83.6179C198.99 83.6598 198.541 84.1389 198.433 85.0581C193.556 88.2827 190.286 93.8247 190.876 99.7889C192.113 107.571 195.652 116.388 204.915 115.999C207.401 115.202 212.059 114.319 212.251 110.9C215.877 108.603 216.979 103.897 216.649 99.8398C216.598 98.4835 216.571 97.8069 216.521 96.4535C215.506 89.6001 211.619 83.1748 204.002 83.4024H204.005ZM209.029 100.84C208.999 103.672 208.847 110.708 205.371 111.214C201.625 111.759 199.64 107.663 199.466 104.047C199.281 100.654 199.098 97.2619 198.912 93.8696C198.754 90.9325 200.041 88.8156 202.793 87.5372C207.802 87.3815 208.79 93.687 208.877 97.4506C208.937 98.8039 208.969 99.4835 209.029 100.837V100.84Z" fill="white"/>
<path d="M215.347 82.9051C216.784 82.8512 217.502 82.8242 218.94 82.7733C222.074 82.6356 225.389 82.7613 228.362 83.8721C231.404 83.1206 234.545 82.4021 237.688 82.2793C237.766 86.6686 237.841 91.0609 237.919 95.4502C235.386 93.064 233.425 90.019 231.323 87.2584C229.308 87.3064 228.302 87.3333 226.287 87.3902C226.38 90.6268 226.47 93.8634 226.562 97.1C228.916 96.1089 230.09 95.3904 230.078 94.9353C231.997 95.585 232.958 96.2556 232.973 96.9383C233.042 99.9952 233.075 101.522 233.143 104.579C230.652 102.313 228.491 101.208 226.679 101.262C226.766 104.319 226.808 105.846 226.895 108.903C226.943 110.57 227.934 112.394 229.85 114.376C228.464 114.684 227.769 114.84 226.383 115.154C223.119 115.253 219.859 115.364 216.598 115.484C216.589 115.211 216.583 115.073 216.571 114.801C217.637 113.367 218.17 112.651 219.245 111.22C219.137 108.22 219.029 105.217 218.925 102.217C218.778 97.8066 218.946 93.4083 219.158 89.004C219.02 88.2195 217.769 86.4111 215.374 83.5877C215.365 83.3152 215.359 83.1775 215.347 82.9051Z" fill="white"/>
<path d="M249.111 82.1418C250.153 82.1358 251.129 82.3334 251.784 82.3993C255.201 82.7436 259.728 82.1208 263.701 82.1418C266.33 82.1598 267.644 82.1717 270.276 82.2077C270.863 82.8514 271.156 83.1747 271.743 83.8215C271.812 83.4742 272.009 83.3005 272.342 83.3065C272.462 83.5191 272.521 83.6239 272.641 83.8334C272.581 87.6689 272.524 91.5073 272.465 95.3427C272.222 95.3397 272.099 95.3367 271.857 95.3337C270.908 93.2109 270.432 91.7797 270.444 91.0372C270.45 90.609 270.453 90.3965 270.459 89.9683C269.473 89.9563 268.503 88.6928 267.539 86.1808C266.24 86.1658 265.587 86.1598 264.288 86.1509C264.255 90.6929 264.219 95.2349 264.186 99.7769C264.18 100.762 264.069 102.013 263.857 103.528C264.054 103.834 264.153 104.19 264.15 104.6C263.931 107.011 263.821 108.702 263.812 109.672C263.8 111.235 265.147 112.759 267.839 114.259C267.839 114.469 267.836 114.574 267.833 114.783C263.012 114.726 258.189 114.711 253.365 114.723C253.365 114.616 253.365 114.559 253.365 114.451C255.668 112.867 256.829 111.624 256.829 110.714C256.829 110.304 256.928 109.948 257.129 109.645C256.931 107.687 256.832 105.999 256.832 104.57C256.832 104.463 256.832 104.406 256.832 104.298C256.847 100.72 257.782 96.5972 257.728 93.6061C257.677 90.8815 256.841 87.9114 256.841 86.1209C255.653 86.1209 255.06 86.1209 253.874 86.1209C251.868 88.8725 250.572 92.145 249.201 95.2409C249.078 95.2409 249.018 95.2409 248.898 95.2409C248.871 91.4953 248.844 87.7497 248.82 84.0011C248.937 83.2526 248.997 82.8813 249.114 82.1328L249.111 82.1418Z" fill="white"/>
<path d="M274.887 82.2793C275.558 82.2913 275.893 82.2973 276.567 82.3092C276.755 82.3122 276.848 82.405 276.845 82.5877C277.073 82.4829 277.189 82.429 277.417 82.3272C280.776 82.3991 284.133 82.4799 287.489 82.5727C286.211 83.938 285.573 84.6207 284.3 85.989C284.291 86.3063 284.288 86.468 284.279 86.7854C284.217 89.2256 283.983 91.1927 283.585 92.6837C283.929 93.2706 284.076 94.5311 284.025 96.4742C284.253 96.3724 284.366 96.3185 284.594 96.2167C286.806 96.2766 287.911 96.3095 290.124 96.3784C290.336 96.4952 290.441 96.5521 290.651 96.6688C290.765 93.1747 290.878 89.6807 290.992 86.1866C289.813 84.7464 289.22 84.0278 288.034 82.5877C292.606 82.7314 297.175 82.8961 301.744 83.0847C301.735 83.2673 300.468 84.3811 297.968 86.4381C297.923 87.6207 297.9 88.2106 297.852 89.3932C297.819 90.2435 297.519 90.8603 296.956 91.2495C297.444 92.7855 297.675 93.8724 297.651 94.5101C297.531 97.5551 297.411 100.603 297.292 103.648C297.277 103.998 297.001 104.16 296.459 104.139C296.603 106.936 296.301 110.618 297.75 113.091C298.477 113.768 298.84 114.106 299.564 114.783C299.274 115.484 298.992 115.828 298.717 115.819C295.465 115.684 293.837 115.624 290.585 115.517C289.944 115.496 289.052 115.202 287.905 114.633C287.911 114.415 287.914 114.307 287.923 114.088C288.274 114.1 289.016 113.4 290.151 111.996C290.274 108.229 290.396 104.462 290.519 100.696C287.878 100.609 286.558 100.57 283.917 100.501C283.887 101.585 283.875 102.124 283.845 103.208C283.253 105.211 282.944 106.726 282.917 107.759C283.42 109.136 283.741 110.669 283.881 112.358C284.127 112.364 285.016 113.283 286.537 115.118C286.534 115.226 286.531 115.283 286.528 115.391C282.097 115.268 277.669 115.169 273.237 115.088C273.24 114.87 273.243 114.762 273.246 114.543C275.624 113.127 276.83 111.9 276.851 110.855C276.89 108.918 276.908 107.948 276.947 106.01C276.95 105.828 277.046 105.738 277.228 105.744C277.231 105.561 277.142 105.468 276.956 105.465C277.315 103.642 277.498 102.732 277.86 100.908C277.534 99.4773 277.375 98.3964 277.39 97.6689C277.507 96.9143 277.567 96.5401 277.684 95.7856C277.324 95.7796 277.151 95.6 277.157 95.2526C277.213 92.3783 277.27 89.504 277.327 86.6327C277.339 85.98 276.522 84.8871 274.863 83.3572C274.869 82.929 274.875 82.7164 274.881 82.2883L274.887 82.2793Z" fill="white"/>
<path d="M300.915 83.0488C303.032 83.1387 304.091 83.1836 306.208 83.2824C307.247 83.3752 307.756 83.5848 307.741 83.9021C308.9 83.7764 309.738 83.7255 310.259 83.7524C311.598 83.8213 313.149 84.0758 314.906 84.5219C315.062 83.9979 315.903 83.7794 317.43 83.8662C319.924 84.0099 321.173 84.0848 323.664 84.2435C323.64 84.6057 323.733 84.7944 323.936 84.8093C323.802 85.01 323.733 85.1117 323.595 85.3123C323.385 88.6208 323.176 91.9263 322.966 95.2347C323.041 95.9952 323.077 96.3785 323.149 97.139C322.9 97.2228 322.775 97.2647 322.526 97.3515C321.08 94.2616 319.736 90.552 317.499 87.9082C315.268 87.7795 314.152 87.7196 311.921 87.6028C311.747 90.9113 311.574 94.2227 311.4 97.5312C311.649 97.4354 311.771 97.3875 312.02 97.2917C312.514 97.3186 312.762 97.3306 313.256 97.3575C313.502 97.4803 313.625 97.5402 313.87 97.6629C314.083 97.1719 315.244 96.606 317.358 95.9683C317.601 95.9832 317.724 95.9892 317.966 96.0042C317.96 96.112 317.957 96.1689 317.951 96.2767C317.724 99.4025 317.406 102.519 317.101 105.639C317.28 105.998 317.364 106.277 317.352 106.474C315.747 104.549 314.942 103.588 313.322 101.666C312.469 101.618 312.041 101.597 311.184 101.552C310.996 105.127 310.81 108.702 310.622 112.277C310.774 112.286 311.49 112.555 312.424 112.645C314.241 112.819 315.738 112.466 316.086 112.304C316.074 112.487 316.179 112.582 316.391 112.594C317.475 110.334 318.559 109.235 319.637 109.301C319.643 109.193 319.646 109.136 319.655 109.028C319.691 108.424 319.61 107.969 319.412 107.669C320.415 104.615 321.454 102.795 322.517 102.208C322.415 103.813 322.466 104.621 322.667 104.633C322.532 104.843 322.466 104.948 322.331 105.16C322.101 108.822 321.867 112.487 321.637 116.148C321.742 116.364 321.795 116.472 321.9 116.69C321.655 116.783 321.532 116.831 321.286 116.924C318.87 116.771 317.661 116.699 315.244 116.562C315.047 116.55 314.942 116.636 314.93 116.816C314.691 116.693 314.568 116.63 314.328 116.508C312.762 116.421 311.978 116.376 310.412 116.295C309.813 116.154 309.514 116.085 308.915 115.945C308.909 116.053 308.906 116.109 308.9 116.217C308.666 116.097 308.55 116.035 308.319 115.915C305.385 115.873 302.454 115.975 299.523 116.056C299.412 115.831 299.358 115.72 299.247 115.499C299.253 115.331 300.502 114.31 303.011 112.451C303.145 109.442 303.214 107.936 303.349 104.927C303.43 101.953 303.849 98.7198 304.693 95.8545C304.157 93.9173 303.918 92.2885 303.978 90.9712C304.056 89.2526 304.094 88.3933 304.172 86.6747C302.858 85.4411 302.199 84.8243 300.879 83.5938C300.888 83.3752 300.894 83.2674 300.903 83.0488H300.915Z" fill="white"/>
<path d="M334.044 85.0664C338.197 85.3778 342.349 85.7041 346.499 86.0485C346.251 86.5455 345.505 87.318 344.266 88.3719C345.152 91.5815 345.562 93.4887 345.511 94.0935C345.295 93.9648 345.188 93.9019 344.972 93.7732C344.849 93.7642 344.79 93.7582 344.667 93.7462C345.478 96.2643 346.346 98.4859 347.272 100.408C347.233 100.86 347.355 101.71 347.637 102.953C347.748 102.962 347.805 102.968 347.915 102.977C349.763 98.2793 351.625 93.5876 353.511 88.9048C353.338 88.8898 352.826 88.1862 351.969 86.8C351.978 86.6922 351.984 86.6383 351.993 86.5275C354.652 86.767 355.981 86.8898 358.64 87.1473C358.598 87.5904 358.577 87.812 358.532 88.2581C358.442 89.1803 358.203 89.6204 357.811 89.5845C358.407 91.4558 358.664 92.7911 358.586 93.5905C358.362 93.5696 358.248 93.5576 358.023 93.5367C359.981 96.4589 360.511 100.839 361.02 104.211C361.131 104.223 361.188 104.229 361.299 104.237C362.131 100.561 364.562 97.0337 366.416 93.8301C366.604 93.851 366.715 93.6714 366.757 93.2941C366.523 93.2702 366.407 93.2582 366.17 93.2342C366.209 92.872 366.5 91.9648 367.047 90.5126C367.068 90.318 366.565 89.5156 365.538 88.1144C365.55 88.0066 365.556 87.9527 365.565 87.8419C368.362 88.1294 371.155 88.4288 373.949 88.7371C373.937 88.8449 373.931 88.8988 373.919 89.0096C371.072 92.2282 369.182 96.2134 367.482 100.121C367.203 100.091 366.877 100.429 366.503 101.139C366.667 101.507 366.739 101.788 366.718 101.986C366.661 102.528 365.97 103.585 364.652 105.154C363.577 110.468 360.544 115.66 358.263 120.489C358.143 120.477 358.086 120.471 357.966 120.459C357.146 116.585 356.347 112.717 355.975 108.768C354.338 106.546 354.107 103.327 353.583 100.681C353.472 100.672 353.415 100.666 353.305 100.654C352.281 103.372 351.155 106.525 349.14 108.705C349.011 108.911 348.945 109.016 348.814 109.223C348.876 109.786 348.906 110.067 348.966 110.63C348.523 111.777 347.523 113.372 345.975 115.414C346.047 115.986 346.08 116.274 346.152 116.846C345.625 118.474 345.182 119.274 344.816 119.241C343.014 111.606 341.17 103.983 339.283 96.369C339.499 96.0367 339.613 95.7702 339.628 95.5756C339.298 95.3211 339.137 95.1954 338.807 94.9409C339.197 94.4139 339.391 94.1504 339.78 93.6265C339.089 92.6294 338.765 91.857 338.807 91.315C338.694 91.3061 338.64 91.3031 338.526 91.2941C338.283 91.3839 338.161 91.4288 337.918 91.5216C338.071 89.5575 336.774 87.5904 334.008 85.6383C334.026 85.4107 334.032 85.297 334.05 85.0724L334.044 85.0664Z" fill="white"/>
<path d="M385.371 89.9508C383.688 89.7442 382.844 89.6454 381.161 89.4448C380.377 89.352 379.853 89.7502 379.592 90.6364C374.236 92.9868 370.068 97.8911 369.64 103.87C369.541 111.76 371.544 121.038 380.745 122.227C383.329 121.865 388.081 121.784 388.85 118.448C392.817 116.802 394.707 112.352 395.069 108.296C395.248 106.951 395.338 106.281 395.518 104.936C395.677 97.9989 392.922 91.0167 385.371 89.9508ZM387.374 107.99C386.865 110.778 385.518 117.685 382.003 117.595C378.215 117.496 376.949 113.128 377.392 109.532C377.784 106.158 378.179 102.783 378.571 99.4091C378.913 96.4869 380.542 94.6186 383.476 93.8281C388.443 94.5228 388.353 100.9 387.802 104.631L387.38 107.993L387.374 107.99Z" fill="white"/>
<path d="M413.437 93.7496C411.758 93.4981 410.919 93.3753 409.24 93.1328C408.458 93.019 407.922 93.4023 407.638 94.2825C402.219 96.4862 397.916 101.28 397.329 107.247C397.021 115.136 398.784 124.46 407.955 125.894C410.551 125.601 415.306 125.648 416.165 122.331C420.174 120.792 422.186 116.397 422.656 112.349C422.872 111.01 422.98 110.34 423.192 109.001C423.536 102.067 420.959 95.0161 413.437 93.7496ZM414.967 111.834C414.384 114.609 412.854 121.478 409.339 121.292C405.554 121.094 404.401 116.696 404.937 113.106C405.419 109.744 405.901 106.382 406.383 103.016C406.803 100.103 408.482 98.2796 411.437 97.567C416.387 98.3934 416.129 104.765 415.479 108.48C415.276 109.822 415.171 110.489 414.967 111.831V111.834Z" fill="white"/>
<path d="M446.925 112.487C446.051 109.026 445.676 106.894 445.823 106.089C444.068 100.636 438.556 97.5884 433.143 96.8728C431.113 96.5314 430.095 96.3638 428.062 96.0314C427.562 95.9506 426.553 96.1452 425.035 96.6243C425.002 96.8309 424.984 96.9357 424.951 97.1422C426.433 97.3788 427.044 99.6303 426.778 103.891C425.64 107.241 425.002 110.768 424.451 114.253C424.367 114.774 424.326 115.035 424.239 115.556C424.152 116.095 424.367 117.382 424.879 119.418C424.861 119.526 424.852 119.58 424.835 119.688C424.715 119.67 424.655 119.658 424.538 119.64C424.299 119.49 424.179 119.415 423.942 119.265C423.619 120.505 423.457 121.122 423.134 122.361C422.999 123.197 422.93 123.616 422.796 124.451C421.233 125.487 420.454 126.008 418.9 127.05C418.885 127.149 418.876 127.2 418.861 127.299C419.107 127.338 419.23 127.358 419.475 127.397C422.035 127.805 424.373 128.281 426.49 128.82C429.802 129.418 433.041 129.044 436.338 128.616C436.58 128.658 437.7 127.694 439.712 125.727C444.185 125.772 445.667 118.822 446.667 115.685C446.718 115.4 446.805 114.337 446.922 112.493L446.925 112.487ZM439.332 113.544C439.11 114.798 438.999 115.427 438.778 116.682C437.61 120.433 435.059 125.565 430.335 124.891C430.206 124.87 430.143 124.858 430.014 124.837L433.913 101.846C433.829 101.609 433.787 101.493 433.7 101.256C434.437 101.493 434.805 101.609 435.541 101.846C439.604 102.771 439.997 108.382 439.655 111.705C439.58 112.128 439.544 112.337 439.47 112.759C439.553 112.987 439.595 113.101 439.679 113.328C439.479 113.292 439.365 113.364 439.332 113.544Z" fill="white"/>
<path d="M456.092 101.866C458.092 101.506 460.916 101.417 463.425 102.225C463.658 102.3 463.931 102.45 464.182 102.56C465.155 103.186 466.613 104.102 468.545 105.318C469.838 104.746 470.907 104.545 471.745 104.719C470.955 108.552 470.164 112.384 469.374 116.216C467.844 112.887 466.374 109.219 463.305 106.98C463.299 107.007 463.296 107.019 463.293 107.046C463.257 107.04 463.236 107.034 463.2 107.028C459.993 106.081 458.29 107.028 457.715 109.222C456.874 112.426 457.173 115.189 459.341 116.354C461.514 117.522 464.547 119.507 465.955 121.809C465.41 122.618 465.134 123.022 464.589 123.83C465.338 123.417 465.715 123.211 466.467 122.797C467.068 124.205 467.158 125.72 466.883 127.25C465.97 132.313 461.176 134.702 456.598 134.112C454.383 133.828 450.649 132.92 448.873 130.95C447.619 131.546 446.586 131.771 445.769 131.618C446.484 127.771 447.203 123.923 447.918 120.076C449.547 123.516 451.275 128.019 455.053 129.633C455.233 129.684 455.412 129.726 455.592 129.762C458.254 130.205 459.386 128.669 459.853 126.357C460.26 124.342 459.592 121.71 456.945 120.151C452.909 117.77 448.742 113.321 449.793 108.066C450.05 106.785 450.55 105.219 451.149 104.779C451.748 104.339 452.969 103.791 453.502 103.276C453.978 102.815 454.895 102.683 455.826 102.86C455.93 102.462 455.981 102.264 456.086 101.869L456.092 101.866Z" fill="white"/>
<path d="M61.1427 64.4083C56.6576 61.3095 52.6845 57.3962 48.7113 53.6536C48.4808 52.435 47.2981 51.3302 45.1604 50.3482L51.3821 82.7231C54.1516 83.1752 57.457 83.9567 58.7684 86.6693C50.0048 88.3161 41.2591 90.0526 32.5314 91.885C32.705 88.8789 35.4655 86.8909 37.8518 85.4148C34.0523 66.9234 30.2559 48.4319 26.4564 29.9405C23.624 29.171 20.7886 28.4165 17.9502 27.674C17.7316 26.647 17.6238 26.1351 17.4053 25.1081C21.591 24.2248 25.7797 23.3595 29.9714 22.5092C37.1003 21.087 42.301 27.7938 45.9478 32.8148C50.7623 37.3688 55.5438 41.9588 60.2954 46.5816C60.2984 46.5996 60.3014 46.6086 60.3044 46.6295C61.1936 45.4708 61.5619 44.4378 61.4032 43.5277C68.1489 29.6052 74.9155 15.6887 81.5055 1.69141C82.3767 2.0986 82.8139 2.3022 83.6822 2.71239C83.7989 5.78132 83.9157 8.85324 84.0385 11.9222C85.4786 21.4194 86.9158 30.9166 88.3559 40.4138C89.1434 42.9588 89.5356 44.2313 90.317 46.7762C89.6673 46.875 89.5386 48.2284 89.9338 50.8392C90.4578 54.2973 90.9817 57.7585 91.5057 61.2167C92.3829 66.1329 93.9668 77.8518 101.371 76.7829C101.521 77.8218 101.596 78.3398 101.745 79.3787C92.8201 80.6841 83.9097 82.0854 75.0143 83.5824C74.8377 82.5465 74.7508 82.0315 74.5742 80.9955C77.7838 77.7709 79.712 76.1212 80.3138 76.0224C78.6252 65.7257 76.9365 55.4321 75.2478 45.1355C72.1729 51.4021 69.1429 57.6896 66.1578 64.0011C65.6428 66.2228 63.9602 66.3575 61.1398 64.4083H61.1427Z" fill="white"/>
<path d="M123.401 7.70171C120.231 8.06998 117.06 8.45322 113.892 8.84844C112.123 9.07 111.18 10.1539 111.069 12.091C100.622 19.7469 94.4816 31.1813 96.4128 44.2773C100.377 60.9274 110.299 78.1404 129.812 75.787C134.746 74.0714 145.764 71.0743 145.249 64.0562C153.321 58.7357 154.24 49.1846 153.704 40.3192C153.441 37.4868 153.312 36.0706 153.049 33.2412C149.609 18.2558 140.04 5.8364 123.401 7.70171ZM136.896 43.445C136.992 48.7475 138.327 64.4574 130.159 65.709C121.207 67.0802 117.135 59.3016 116.126 51.6577C115.222 44.5917 114.32 37.5227 113.416 30.4567C112.563 24.3188 115.82 19.2828 121.225 16.5612C132.381 15.3216 134.997 27.9267 136.129 36.379C136.435 39.2054 136.587 40.6186 136.893 43.448L136.896 43.445Z" fill="white"/>
<path d="M187.037 2.08008C183.854 2.2717 180.671 2.47529 177.492 2.69686C175.713 2.81961 174.716 3.84658 174.498 5.77776C163.65 12.8438 156.904 23.9219 158.102 37.0988C161.129 53.9255 170.054 71.6834 189.657 70.4199C194.678 68.9797 205.831 66.5994 205.702 59.5664C214.052 54.701 215.495 45.2128 215.454 36.3353C215.349 33.4939 215.298 32.0717 215.193 29.2304C212.597 14.0893 203.747 1.14592 187.04 2.08307L187.037 2.08008ZM198.51 38.518C198.312 43.8115 198.777 59.5783 190.558 60.3748C181.546 61.249 177.923 53.2429 177.345 45.5631L175.818 24.2422C175.306 18.0714 178.833 13.224 184.375 10.8018C195.576 10.185 197.483 22.9248 198.142 31.419C198.288 34.2574 198.363 35.6796 198.51 38.518Z" fill="white"/>
<path d="M215.215 0.726278C219.469 0.579568 223.721 0.450822 227.976 0.340042C235.224 0.172373 239.167 7.6935 241.868 13.2505C246.039 18.8824 250.168 24.5472 254.255 30.2419C254.24 22.3525 254.225 14.4661 254.21 6.5767C253.572 6.5767 251.308 5.25931 247.38 2.64848C247.371 1.59755 247.368 1.07359 247.359 0.0256635C256.922 -0.034218 266.479 0.0106931 276.043 0.160397C276.025 1.21132 276.016 1.73528 275.998 2.78321C270.692 2.52871 267.83 6.97492 268.069 11.8822C268.033 15.3823 267.997 18.8794 267.961 22.3794C267.935 25.0202 268.249 26.3436 268.914 26.3496C268.488 28.9784 268.276 30.2928 267.854 32.9216C267.755 42.5266 267.656 52.1316 267.557 61.7366C267.845 64.7935 268.132 67.8505 268.414 70.9074C267.665 71.4344 267.294 71.6979 266.545 72.2248C258.56 59.2036 250.003 46.5896 240.994 34.2569C240.976 33.0174 240.009 31.724 238.081 30.3886C238.26 41.3769 238.44 52.3651 238.62 63.3534C241.263 64.2786 244.371 65.6259 245.186 68.5152C236.311 68.623 227.44 68.8236 218.568 69.117C219.251 66.1918 222.296 64.7067 224.895 63.6648C224.347 44.7961 223.802 25.9244 223.254 7.05576C220.61 5.81022 217.963 4.57367 215.308 3.35208C215.269 2.30416 215.251 1.7772 215.215 0.729272V0.726278Z" fill="white"/>
<path d="M326.905 29.4542C325.268 25.3732 323.01 20.8672 322.708 16.388C316.914 4.79195 303.908 0.884681 291.797 0.534374C287.935 0.414611 284.072 0.315806 280.21 0.234966C279.069 0.211014 276.88 0.914622 273.659 2.36076C273.653 2.80089 273.65 3.01946 273.641 3.45659C279.12 4.0105 279.425 13.1305 279.86 16.9299C278.33 24.1966 278.195 31.7356 278.003 39.131C277.982 40.2388 277.97 40.7897 277.949 41.8975C277.928 43.0413 278.806 45.6521 280.557 49.7301C280.551 49.9576 280.548 50.0744 280.545 50.3019C280.279 50.2959 280.147 50.2929 279.88 50.287C279.315 50.0444 279.03 49.9247 278.461 49.6851C278.141 52.3499 277.982 53.6852 277.668 56.35C277.632 58.1254 277.617 59.0117 277.581 60.7872C275.033 62.9639 272.491 65.1495 269.958 67.3442C269.958 67.5538 269.955 67.6586 269.952 67.8682C270.494 67.8742 270.767 67.8772 271.308 67.8861C276.518 67.967 281.74 68.2095 286.92 68.7874C294.258 68.7694 301.117 67.6316 308.192 65.6825C310.743 64.0807 312.851 61.0806 314.723 58.7991C324.094 59.0806 326.076 42.3796 327.205 36.1609C327.244 35.5591 327.145 33.3195 326.899 29.4482L326.905 29.4542ZM310.465 33.556C310.336 36.2238 310.27 37.5591 310.142 40.2269C308.453 48.6492 304.423 59.8141 294.081 59.5656C293.797 59.5566 293.656 59.5506 293.372 59.5416C293.926 43.2509 294.48 26.9571 295.034 10.6663C294.773 10.1993 294.644 9.96572 294.384 9.49864C296.093 9.78607 296.947 9.92979 298.653 10.2232C308.013 10.6993 310.079 22.3103 310.654 29.6488C310.609 30.544 310.588 30.9931 310.546 31.8883C310.794 32.3405 310.92 32.565 311.169 33.0171C310.72 32.9962 310.486 33.1758 310.465 33.556Z" fill="white"/>
<path d="M372.155 68.4912C368.952 65.039 369.479 56.7873 369.077 52.434C367.476 50.1525 365.841 47.6315 365.604 44.7961C365.694 43.9038 365.736 43.4577 365.826 42.5655C366.098 42.1313 366.233 41.9158 366.506 41.4816C366.128 41.4427 365.955 41.2511 365.991 40.9038C366.035 40.4487 366.059 40.2211 366.104 39.763C366.374 39.3498 366.509 39.1403 366.781 38.7271C364.721 27.5412 363.065 16.2775 361.323 5.03772C356.532 4.59459 351.739 4.19039 346.945 3.81014C345.951 3.7323 344.041 4.13949 341.227 5.0467C341.158 5.96588 342.703 7.76831 345.831 10.472C345.816 10.6816 345.807 10.7863 345.79 10.9959C340.508 25.3525 335.364 39.757 330.361 54.2154C328.702 60.4551 324.999 65.9822 319.313 69.2008C319.286 69.6379 319.274 69.8595 319.25 70.2966C321.597 70.4343 322.771 70.5062 325.118 70.6559C326.756 70.7607 328.316 71.0541 329.792 71.5392C331.322 71.2607 332.906 71.1799 334.544 71.2996C336.891 71.4703 338.062 71.5571 340.409 71.7428C340.442 71.3056 340.46 71.0871 340.496 70.6499C338.086 67.4642 336.613 65.8564 336.11 65.8205C336.978 60.7934 339.143 55.8262 340.843 51.0567C345.032 51.386 349.218 51.7333 353.403 52.0956C353.652 54.7633 353.418 58.3203 355.652 60.1527C355.586 60.8832 355.164 61.2096 354.388 61.1407C354.969 63.3653 355.188 65.2546 355.044 66.8055C351.984 69.9134 350.089 71.4404 349.319 71.3745C349.281 71.8116 349.263 72.0302 349.224 72.4673C350.625 72.5871 351.329 72.65 352.73 72.7757C353.631 72.8566 354.397 73.117 355.032 73.5602C355.769 73.2458 356.568 73.126 357.436 73.2099C360.721 73.5183 362.362 73.6799 365.643 74.0123C367.344 74.1859 368.949 73.9853 370.461 73.4105C370.383 74.138 372.479 74.9135 376.733 75.7758C377.5 75.8626 378.12 75.2788 378.006 74.8147C377.566 72.9973 374.17 70.5002 372.152 68.5062L372.155 68.4912ZM346.751 44.7661C346.873 43.2751 346.128 42.4637 344.514 42.3349C345.304 37.1043 347.631 31.9395 349.463 27.0352C349.694 27.0532 349.808 27.0651 350.038 27.0831C350.643 32.176 351.239 37.269 351.823 42.3649C349.79 43.32 348.775 43.799 346.751 44.7631V44.7661Z" fill="white"/>
<path d="M396.805 10.435C402.317 9.29727 408.497 9.24039 413.32 10.3781C413.856 10.5039 414.488 10.7973 415.072 11.0069C418.461 12.8123 421.862 14.5908 425.261 16.3813C428.084 15.0669 430.455 14.5609 432.36 14.8543C431.102 22.9622 429.841 31.0732 428.584 39.1812C424.916 32.2888 420.736 24.4503 413.769 20.3604C413.76 20.4173 413.757 20.4442 413.748 20.5011C413.664 20.4891 413.623 20.4831 413.539 20.4712C408.841 19.3095 402.691 20.1508 401.628 25.6599C400.631 30.8217 400.691 37.8428 406.338 40.4327C411.787 42.9297 417.988 46.1304 421.742 51.2144C420.644 52.9599 420.093 53.8312 419 55.5797C420.599 54.6396 421.398 54.1725 423.006 53.2384C424.47 55.8103 424.952 59.7235 424.494 62.5409C422.647 73.9364 413.802 78.9874 402.889 77.9545C397.032 77.4006 390.359 76.6131 385.568 72.2657C382.924 73.6789 380.709 74.2867 378.906 74.0801C379.837 65.9272 380.766 57.7744 381.697 49.6185C385.571 56.3761 390.643 66.4452 398.871 68.7477C399.269 68.8315 399.67 68.9004 400.071 68.9543C405.209 69.8645 408.359 65.7057 408.931 61.3523C409.605 56.2294 405.784 50.885 401.625 48.6574C392.664 43.8549 382.601 35.708 383.796 24.2138C384.071 21.555 385.02 18.1358 386.251 17.1477C387.529 16.1208 390.167 14.8333 391.254 13.6986C392.245 12.6656 394.269 12.2794 396.386 12.5429C396.553 11.6985 396.637 11.2764 396.808 10.432L396.805 10.435Z" fill="white"/>
<path d="M437.528 14.3673C439.031 14.6068 439.782 14.7296 441.282 14.9721C441.705 15.041 441.887 15.2655 441.824 15.6398C442.369 15.4961 442.642 15.4242 443.187 15.2835C450.696 16.535 458.193 17.8464 465.684 19.2207C462.941 21.2028 460.208 23.1939 457.477 25.1939L457.184 26.8376C456.364 30.9335 455.507 34.9965 453.807 38.8349C454.39 40.1673 454.319 42.835 453.603 46.8441C454.136 46.7063 454.405 46.6375 454.938 46.5028C459.004 47.2363 463.067 47.9908 467.124 48.7663C467.552 49.0807 467.768 49.2393 468.196 49.5567C469.582 42.3589 470.972 35.1582 472.358 27.9604C470.546 25.1161 468.726 22.2807 466.897 19.4453C477.095 21.3645 487.268 23.4034 497.418 25.5652C494.547 27.7928 491.05 29.3706 487.837 31.0533C487.334 33.4815 487.083 34.6971 486.58 37.1283C486.217 38.8738 485.346 40.0385 483.966 40.6314C484.535 43.9967 484.676 46.3321 484.403 47.6405C483.107 53.9011 481.81 60.1617 480.514 66.4223C480.364 67.1379 479.702 67.3745 478.523 67.1319C478.02 72.1111 475.403 81.6532 478.298 86.1354C479.651 87.8031 480.322 88.6354 481.663 90.3061C480.792 91.6504 480.062 92.2582 479.469 92.1325C473.627 90.8989 467.774 89.7103 461.912 88.5785C460.525 88.3091 458.684 87.3899 456.375 85.821C456.459 85.3719 456.501 85.1443 456.588 84.6952C457.349 84.8389 459.184 83.6473 462.115 81.1323C463.612 73.3716 465.106 65.608 466.603 57.8473C461.783 56.9162 456.953 56.0239 452.121 55.1556C451.72 57.3922 451.522 58.509 451.121 60.7456C449.687 63.6379 448.303 66.6858 447.669 69.8715C448.438 73.1351 448.414 76.4076 448.339 79.734C448.872 79.8298 450.528 82.0305 453.25 86.3539C453.208 86.5785 453.187 86.6922 453.145 86.9168C443.561 85.1593 433.962 83.5125 424.339 81.9796C424.411 81.5275 424.447 81.2999 424.516 80.8478C427.704 79.5933 432.294 77.9256 433.462 74.3147C434.013 70.9733 434.564 67.629 435.115 64.2876C435.177 63.9103 435.411 63.7546 435.815 63.8235C435.878 63.4462 435.707 63.2247 435.3 63.1588C436.414 60.1018 437.528 57.0479 438.648 53.9939C438.354 50.916 438.33 48.6196 438.579 47.1135C439.064 45.5896 439.306 44.8261 439.791 43.2991C439.001 43.1673 438.666 42.7422 438.782 42.0206C439.761 36.0744 440.743 30.1251 441.722 24.1789C441.342 21.2088 439.136 18.7207 437.174 16.5769C437.315 15.6907 437.387 15.2476 437.528 14.3613V14.3673Z" fill="white"/>
<path d="M10.7084 82.1879C13.1755 82.4484 14.4091 82.5831 16.8702 82.8586C14.7624 84.161 13.7115 84.8137 11.6156 86.1281C11.2623 88.4515 11.0887 89.6132 10.7443 91.9366C9.41198 90.0025 8.7443 89.0354 7.40296 87.1072C4.94183 86.8527 3.71126 86.7299 1.24414 86.4904C3.33401 85.158 4.38193 84.4934 6.48078 83.17C6.82809 80.8436 7.00175 79.6819 7.35805 77.3555C8.70239 79.2866 9.37306 80.2537 10.7084 82.1879Z" fill="white"/>
<path d="M18.3609 71.023C19.6034 71.1637 20.2232 71.2326 21.4628 71.3763C20.3939 72.023 19.8609 72.3464 18.798 72.9961C18.6064 74.1578 18.5136 74.7386 18.325 75.9003C17.6633 74.9273 17.3309 74.4422 16.6692 73.4691C15.4297 73.3314 14.8099 73.2626 13.5674 73.1278C14.6303 72.4721 15.1632 72.1458 16.2291 71.4961C16.4177 70.3343 16.5136 69.7535 16.7052 68.5918C17.3699 69.5649 17.7022 70.0499 18.3639 71.023H18.3609Z" fill="white"/>
<path d="M5.27359 63.5088C6.52811 63.6345 7.15387 63.6974 8.40839 63.8262C7.33651 64.4849 6.80057 64.8172 5.73168 65.4789C5.54904 66.6436 5.45623 67.2244 5.27658 68.3891C4.59992 67.4251 4.26159 66.943 3.58493 65.9789C2.33341 65.8562 1.70465 65.7963 0.453125 65.6765C1.52201 65.0088 2.05496 64.6765 3.12684 64.0118C3.30947 62.8471 3.3993 62.2663 3.58493 61.1016C4.26459 62.0657 4.60292 62.5477 5.27958 63.5118L5.27359 63.5088Z" fill="white"/>
<path d="M493.494 118.892C491.104 119.171 489.913 119.315 487.529 119.608C489.556 120.892 490.568 121.536 492.586 122.833C492.91 125.15 493.068 126.309 493.383 128.626C494.685 126.686 495.341 125.716 496.652 123.779C499.036 123.506 500.227 123.374 502.616 123.117C500.604 121.803 499.598 121.147 497.577 119.844C497.26 117.524 497.098 116.365 496.772 114.045C495.458 115.982 494.802 116.952 493.494 118.895V118.892Z" fill="white"/>
<path d="M486.174 107.801C484.97 107.951 484.372 108.026 483.171 108.179C484.198 108.816 484.713 109.137 485.74 109.777C485.916 110.936 486.003 111.514 486.177 112.673C486.824 111.697 487.147 111.209 487.797 110.236C488.997 110.089 489.599 110.017 490.8 109.873C489.776 109.227 489.264 108.906 488.237 108.262C488.063 107.104 487.973 106.526 487.797 105.367C487.147 106.343 486.821 106.831 486.174 107.807V107.801Z" fill="white"/>
<path d="M498.893 100.203C497.678 100.337 497.07 100.403 495.857 100.541C496.89 101.191 497.405 101.517 498.438 102.17C498.606 103.331 498.69 103.909 498.857 105.071C499.519 104.104 499.849 103.619 500.513 102.652C501.726 102.52 502.334 102.454 503.549 102.325C502.519 101.667 502.004 101.337 500.974 100.682C500.807 99.5199 500.723 98.939 500.552 97.7773C499.887 98.7444 499.555 99.2295 498.893 100.197V100.203Z" fill="white"/>
<path d="M127.169 38.6793C129.929 39.2722 131.307 39.5716 134.058 40.1794C131.507 41.374 130.232 41.9728 127.693 43.1824C126.998 45.7304 126.651 47.0059 125.968 49.5538C124.708 47.2364 124.073 46.0777 122.801 43.7633C120.049 43.1824 118.669 42.895 115.908 42.3321C118.441 41.0956 119.711 40.4818 122.256 39.2602C122.944 36.7092 123.292 35.4338 123.989 32.8828C125.265 35.2002 125.902 36.3589 127.166 38.6793H127.169Z" fill="white"/>
<path d="M189.855 33.602C192.574 34.3475 193.93 34.7247 196.64 35.4882C194.029 36.5362 192.726 37.0631 190.128 38.126C189.292 40.6321 188.876 41.8836 188.05 44.3896C186.921 42.0033 186.355 40.8117 185.217 38.4284C182.508 37.6919 181.148 37.3296 178.427 36.611C181.02 35.5212 182.322 34.9792 184.927 33.9044C185.756 31.3953 186.172 30.1408 187.014 27.6348C188.158 30.0181 188.723 31.2127 189.855 33.599V33.602Z" fill="white"/>
</svg>
