<svg width="43" height="54" viewBox="0 0 43 54" fill="none" xmlns="http://www.w3.org/2000/svg">
<path fill-rule="evenodd" clip-rule="evenodd" d="M31.3553 39.663L31.3553 53.1367L0.479463 26.5686L31.3553 0.000400543L31.3553 13.475C24.7263 14.3208 19.6076 19.8608 19.6076 26.569C19.6076 33.2772 24.7263 38.8172 31.3553 39.663Z" fill="#FBC25C"/>
<path fill-rule="evenodd" clip-rule="evenodd" d="M23.6874 26.6595C28.5649 25.0753 32.0824 20.5801 32.0824 15.2821C32.0824 15.1235 32.0792 14.9657 32.073 14.8086C37.9642 15.6852 42.478 20.6567 42.478 26.6583C42.478 32.6598 37.9642 37.6312 32.073 38.5079C32.0792 38.3517 32.0823 38.1947 32.0823 38.037C32.0823 32.739 28.5648 28.2438 23.6874 26.6595Z" fill="#FBC25C"/>
</svg>
