<svg width="1144" height="486" viewBox="0 0 1144 486" fill="none" xmlns="http://www.w3.org/2000/svg">
<g filter="url(#filter0_d_1131_3028)">
<mask id="path-1-inside-1_1131_3028" fill="white">
<path d="M639.386 20.6025L647.957 0H649.45L655.824 14.6504L662.198 0H1040.37L1046.03 12.8184L1051.68 0H1056.49L1065.06 20.6025L1073.63 0H1130C1135.52 8.76189e-06 1140 4.47716 1140 10V468C1140 473.523 1135.52 478 1130 478H424.079L417.031 461.516L409.983 478H405.158L399.826 465.183L394.494 478H140.744L135.843 467.011L130.941 478H126.402L119.403 461.517L112.404 478H14C8.47716 478 4 473.523 4 468V10C4 4.47716 8.47715 1.85224e-07 14 0H630.814L639.386 20.6025Z"/>
</mask>
<path d="M639.386 20.6025L647.957 0H649.45L655.824 14.6504L662.198 0H1040.37L1046.03 12.8184L1051.68 0H1056.49L1065.06 20.6025L1073.63 0H1130C1135.52 8.76189e-06 1140 4.47716 1140 10V468C1140 473.523 1135.52 478 1130 478H424.079L417.031 461.516L409.983 478H405.158L399.826 465.183L394.494 478H140.744L135.843 467.011L130.941 478H126.402L119.403 461.517L112.404 478H14C8.47716 478 4 473.523 4 468V10C4 4.47716 8.47715 1.85224e-07 14 0H630.814L639.386 20.6025Z" fill="#FEEDD5"/>
<path d="M639.386 20.6025L636.616 21.7549L639.386 28.4127L642.156 21.7549L639.386 20.6025ZM647.957 0V-3H645.956L645.187 -1.15235L647.957 0ZM649.45 0L652.201 -1.19686L651.417 -3H649.45V0ZM655.824 14.6504L653.073 15.8472L655.824 22.1701L658.575 15.8472L655.824 14.6504ZM662.198 0V-3H660.232L659.447 -1.19686L662.198 0ZM1040.37 0L1043.12 -1.21112L1042.33 -3H1040.37V0ZM1046.03 12.8184L1043.28 14.0295L1046.03 20.2495L1048.77 14.0295L1046.03 12.8184ZM1051.68 0V-3H1049.73L1048.94 -1.21112L1051.68 0ZM1056.49 0L1059.26 -1.15235L1058.49 -3H1056.49V0ZM1065.06 20.6025L1062.29 21.7549L1065.06 28.4127L1067.83 21.7549L1065.06 20.6025ZM1073.63 0V-3H1071.63L1070.86 -1.15235L1073.63 0ZM1130 0V-3V0ZM1140 468H1143H1140ZM1130 478V481V478ZM424.079 478L421.321 479.179L422.099 481H424.079V478ZM417.031 461.516L419.79 460.336L417.031 453.884L414.273 460.336L417.031 461.516ZM409.983 478V481H411.963L412.742 479.179L409.983 478ZM405.158 478L402.388 479.152L403.157 481H405.158V478ZM399.826 465.183L402.596 464.03L399.826 457.372L397.056 464.03L399.826 465.183ZM394.494 478V481H396.495L397.264 479.152L394.494 478ZM140.744 478L138.004 479.222L138.797 481H140.744V478ZM135.843 467.011L138.583 465.789L135.843 459.646L133.103 465.789L135.843 467.011ZM130.941 478V481H132.888L133.681 479.222L130.941 478ZM126.402 478L123.641 479.173L124.417 481H126.402V478ZM119.403 461.517L122.165 460.344L119.403 453.841L116.642 460.344L119.403 461.517ZM112.404 478V481H114.39L115.166 479.173L112.404 478ZM14 478L14 481H14V478ZM4 10L1 10V10H4ZM14 0V-3V0ZM630.814 0L633.584 -1.15235L632.816 -3H630.814V0ZM639.386 20.6025L642.156 21.7549L650.727 1.15235L647.957 0L645.187 -1.15235L636.616 19.4502L639.386 20.6025ZM647.957 0V3H649.45V0V-3H647.957V0ZM649.45 0L646.699 1.19686L653.073 15.8472L655.824 14.6504L658.575 13.4535L652.201 -1.19686L649.45 0ZM655.824 14.6504L658.575 15.8472L664.949 1.19686L662.198 0L659.447 -1.19686L653.073 13.4535L655.824 14.6504ZM662.198 0V3H1040.37V0V-3H662.198V0ZM1040.37 0L1037.63 1.21112L1043.28 14.0295L1046.03 12.8184L1048.77 11.6072L1043.12 -1.21112L1040.37 0ZM1046.03 12.8184L1048.77 14.0295L1054.43 1.21112L1051.68 0L1048.94 -1.21112L1043.28 11.6072L1046.03 12.8184ZM1051.68 0V3H1056.49V0V-3H1051.68V0ZM1056.49 0L1053.72 1.15235L1062.29 21.7549L1065.06 20.6025L1067.83 19.4502L1059.26 -1.15235L1056.49 0ZM1065.06 20.6025L1067.83 21.7549L1076.4 1.15235L1073.63 0L1070.86 -1.15235L1062.29 19.4502L1065.06 20.6025ZM1073.63 0V3H1130V0V-3H1073.63V0ZM1130 0V3C1133.87 3.00001 1137 6.13402 1137 10H1140H1143C1143 2.8203 1137.18 -2.99999 1130 -3V0ZM1140 10H1137V468H1140H1143V10H1140ZM1140 468H1137C1137 471.866 1133.87 475 1130 475V478V481C1137.18 481 1143 475.18 1143 468H1140ZM1130 478V475H424.079V478V481H1130V478ZM424.079 478L426.838 476.821L419.79 460.336L417.031 461.516L414.273 462.695L421.321 479.179L424.079 478ZM417.031 461.516L414.273 460.336L407.225 476.821L409.983 478L412.742 479.179L419.79 462.695L417.031 461.516ZM409.983 478V475H405.158V478V481H409.983V478ZM405.158 478L407.928 476.848L402.596 464.03L399.826 465.183L397.056 466.335L402.388 479.152L405.158 478ZM399.826 465.183L397.056 464.03L391.724 476.848L394.494 478L397.264 479.152L402.596 466.335L399.826 465.183ZM394.494 478V475H140.744V478V481H394.494V478ZM140.744 478L143.484 476.778L138.583 465.789L135.843 467.011L133.103 468.233L138.004 479.222L140.744 478ZM135.843 467.011L133.103 465.789L128.202 476.778L130.941 478L133.681 479.222L138.583 468.233L135.843 467.011ZM130.941 478V475H126.402V478V481H130.941V478ZM126.402 478L129.164 476.827L122.165 460.344L119.403 461.517L116.642 462.689L123.641 479.173L126.402 478ZM119.403 461.517L116.642 460.344L109.643 476.827L112.404 478L115.166 479.173L122.165 462.689L119.403 461.517ZM112.404 478V475H14V478V481H112.404V478ZM14 478L14 475C10.134 475 7 471.866 7 468H4H1C1 475.18 6.82031 481 14 481L14 478ZM4 468H7V10H4H1V468H4ZM4 10L7 10C7 6.13401 10.134 3 14 3V0V-3C6.8203 -3 1 2.8203 1 10L4 10ZM14 0V3H630.814V0V-3H14V0ZM630.814 0L628.045 1.15235L636.616 21.7549L639.386 20.6025L642.156 19.4502L633.584 -1.15235L630.814 0Z" fill="#CDAB94" mask="url(#path-1-inside-1_1131_3028)"/>
</g>
<ellipse cx="1120.31" cy="18.9943" rx="2.92589" ry="2.9943" fill="#D1AF98"/>
<ellipse cx="1120.31" cy="27.9787" rx="2.92589" ry="2.9943" fill="#D1AF98"/>
<ellipse cx="1115.93" cy="23.4865" rx="2.92589" ry="2.9943" fill="#D1AF98"/>
<ellipse cx="1124.7" cy="23.4865" rx="2.92589" ry="2.9943" fill="#D1AF98"/>
<path d="M1120.32 35.0781V210.263" stroke="#D1AF98" stroke-width="2"/>
<rect x="43" y="35" width="1058" height="408" stroke="#D1AF98" stroke-width="2"/>
<ellipse cx="25.3146" cy="441.287" rx="2.92589" ry="2.9943" fill="#D1AF98"/>
<ellipse cx="25.3146" cy="450.272" rx="2.92589" ry="2.9943" fill="#D1AF98"/>
<ellipse cx="20.9259" cy="445.779" rx="2.92589" ry="2.9943" fill="#D1AF98"/>
<ellipse cx="29.7032" cy="445.779" rx="2.92589" ry="2.9943" fill="#D1AF98"/>
<path d="M25.3154 259V434.185" stroke="#D1AF98" stroke-width="2"/>
<path d="M1030.45 420.487L1008 394.398H1019.39C1020.1 400 1024.78 404.326 1030.45 404.326C1036.12 404.326 1040.79 400 1041.51 394.398H1052.9L1030.45 420.487Z" fill="#583311"/>
<path d="M1030.37 400.887C1029.04 396.761 1025.24 393.784 1020.76 393.784C1020.63 393.784 1020.49 393.79 1020.36 393.795C1021.1 388.816 1025.3 385.001 1030.37 385.001C1035.44 385.001 1039.65 388.816 1040.38 393.795C1040.25 393.79 1040.12 393.784 1039.99 393.784C1035.51 393.784 1031.71 396.761 1030.37 400.887Z" fill="#583311"/>
<defs>
<filter id="filter0_d_1131_3028" x="0" y="0" width="1144" height="486" filterUnits="userSpaceOnUse" color-interpolation-filters="sRGB">
<feFlood flood-opacity="0" result="BackgroundImageFix"/>
<feColorMatrix in="SourceAlpha" type="matrix" values="0 0 0 0 0 0 0 0 0 0 0 0 0 0 0 0 0 0 127 0" result="hardAlpha"/>
<feOffset dy="4"/>
<feGaussianBlur stdDeviation="2"/>
<feComposite in2="hardAlpha" operator="out"/>
<feColorMatrix type="matrix" values="0 0 0 0 0 0 0 0 0 0 0 0 0 0 0 0 0 0 0.25 0"/>
<feBlend mode="normal" in2="BackgroundImageFix" result="effect1_dropShadow_1131_3028"/>
<feBlend mode="normal" in="SourceGraphic" in2="effect1_dropShadow_1131_3028" result="shape"/>
</filter>
</defs>
</svg>
