<svg width="349" height="110" viewBox="0 0 349 110" fill="none" xmlns="http://www.w3.org/2000/svg">
<g filter="url(#filter0_d_1473_2999)">
<path d="M344.238 28.3367V97.2297H339.988L339.203 98.6499V100.036L265.482 101.045L254.322 100.036L249.292 101.045L243.633 100.036L239.402 101.045H150.649L147.746 99.9672L146.371 101.045H105.432L99.0161 100.102L92.4475 101.045L86.3371 100.102L74.2691 101.045H6.44412V98.7549L4 97.2736V48.9189L6.44412 46.4944L4 45.4168V24.9435L7.51346 20.6333H10.5686V18.3436H18.2066L22.0502 11.9965L26.8591 8.20277L23.9737 3.16433L36.9578 0.95594H313.407L317.874 3.16433L316.445 0.95594H324.307L328.059 3.16433L326.707 0.95594H344.238V9.78839L339.729 11.9965L344.238 15.0879V24.3619H339.729L344.238 28.3367Z" fill="#2660E1"/>
<path d="M14.8086 71.4238V78.4951C22.2426 78.9293 28.3662 84.1695 28.9189 90.9414H48.417L49.46 91.9414H27.96C27.96 85.0509 21.6242 79.465 13.8096 79.4648H13.8086V69.9941L14.8086 71.4238ZM152.535 91.9414H53.333L50.9092 90.9414H154.118L152.535 91.9414ZM172.534 91.9414H161.584L160.242 90.9414H174.757L172.534 91.9414ZM318.014 91.9414H182.543L181.529 90.9414H318.313L318.014 91.9414ZM320.358 90.6924C320.312 91.1032 320.289 91.5199 320.289 91.9414H319.13L320.358 90.6924ZM325.667 82.1543C324.326 83.0901 323.18 84.2332 322.296 85.5322L320.409 86.835C321.694 84.0406 324.001 81.7371 326.892 80.2588L325.667 82.1543ZM330.037 80.0811C329.178 80.3287 328.356 80.6474 327.578 81.0283L328.278 79.9268L330.037 80.0811ZM334.438 79.4648C333.729 79.4649 333.031 79.5107 332.35 79.5996L330.511 78.9277C331.456 78.702 332.435 78.5538 333.438 78.4951V60.5713L334.438 60.0898V79.4648ZM14.8086 45.2842V69.2402L13.8086 68.502V44.4355L14.8086 45.2842ZM334.438 58.4326L333.438 59.7158V53.8604L334.438 53.4189V58.4326ZM332.371 22.4902C333.046 22.5774 333.736 22.624 334.438 22.624V50.1875L333.438 52.1914V23.5928C333.079 23.5718 332.724 23.5362 332.371 23.4932V22.4902ZM14.8086 38.6699V44.1611L13.8086 42.3096V37.6279L14.8086 38.6699ZM26.2949 17.7852C23.7228 21.1014 19.5325 23.319 14.8086 23.5947V38.1484L13.8086 36.9141V22.624L13.8096 22.625C18.0834 22.6249 21.9123 20.9517 24.5068 18.3105L26.2949 17.7852ZM320.289 10.1484C320.289 15.8387 324.609 20.6371 330.516 22.1367L329.938 23.0127C324.163 21.4138 319.793 16.82 319.33 11.1484H305.472L307.415 10.1484H320.289ZM52.0273 11.1484H28.9189C28.7841 12.7951 28.3165 14.3493 27.585 15.7676L27.0654 14.5176C27.6018 13.2529 27.9142 11.8917 27.9551 10.4707L27.96 10.1484H50.666L52.0273 11.1484ZM303.847 11.1484H253.121L252.413 10.1484H304.774L303.847 11.1484ZM250.957 11.1484H113.708L112.909 10.1484H248.618L250.957 11.1484ZM109.765 11.1484H67.8232L66.4619 10.1484H106.502L109.765 11.1484ZM66.8438 11.1484H54.6631L55.2871 10.1484H64.7451L66.8438 11.1484Z" fill="#F2E9DD"/>
<path d="M331.67 31.627V24.8281C324.346 24.4251 318.269 19.4367 317.724 12.9375H298.404L297.374 11.9824H318.638V11.9834C318.638 18.5641 324.9 23.899 332.625 23.9004V32.9463L331.67 31.627ZM195.459 11.9824H293.544L295.939 12.9375H193.894L195.459 11.9824ZM180.183 11.9824H186.509L187.835 12.9375H179.449L180.183 11.9824ZM31.8447 11.9824H171.014L175.168 12.9375H31.5479L31.8447 11.9824ZM29.5391 13.1641C29.5839 12.7757 29.6064 12.3818 29.6064 11.9834V11.9824H30.7412L29.5391 13.1641ZM24.2666 21.3467C25.6078 20.4464 26.7526 19.344 27.6328 18.0898L29.4502 16.8779C28.1818 19.5412 25.909 21.7311 23.0684 23.1387L24.2666 21.3467ZM19.9609 23.3115C20.8061 23.0765 21.616 22.7762 22.3818 22.415L21.6953 23.459L19.9609 23.3115ZM15.6104 23.9004H15.6162C16.3148 23.9004 17.0017 23.8567 17.6729 23.7725L19.4893 24.4131C18.5451 24.6314 17.5671 24.7745 16.5654 24.8291V41.96L15.6104 42.4033V23.9004ZM331.67 56.5752V33.6895L332.625 34.3711V57.3584L331.67 56.5752ZM15.6104 43.9814L16.5654 42.7988V48.3682L15.6104 48.7754V43.9814ZM17.6484 78.3154C16.985 78.2332 16.3064 78.1895 15.6162 78.1895C15.6144 78.1895 15.6121 78.1904 15.6104 78.1904V51.8525L16.5654 50.0039V77.2617C16.9298 77.2816 17.2908 77.3162 17.6484 77.3584V78.3154ZM331.67 62.8994V57.6807L332.625 59.3896V63.8613L331.67 62.8994ZM320.32 82.7998C322.868 79.6295 327.015 77.5198 331.67 77.2637V63.4043L332.625 64.5439V78.1904C328.403 78.1912 324.622 79.7878 322.058 82.3066L320.32 82.7998ZM29.6064 90.1064C29.6064 84.6683 25.3291 80.085 19.4844 78.6553L20.0547 77.8193C25.7405 79.3437 30.0642 83.7182 30.5205 89.1523H44.2451L42.3223 90.1074H29.6064V90.1064ZM294.831 89.1523H317.724C317.855 87.5935 318.307 86.1237 319.016 84.7812L319.517 85.9443C318.949 87.2402 318.638 88.6421 318.638 90.1064V90.1074H296.177L294.831 89.1523ZM45.8525 89.1523H96.0049L96.7051 90.1074H44.9346L45.8525 89.1523ZM98.1445 89.1523H233.846L234.636 90.1074H100.456L98.1445 89.1523ZM237.744 89.1523H279.214L280.56 90.1074H240.97L237.744 89.1523ZM280.182 89.1523H292.225L291.608 90.1074H282.256L280.182 89.1523Z" fill="#F2E9DD"/>
<path d="M336.715 90.1074L333.047 85.3086L328.531 90.1074V93.2108L333.047 94.9041L336.715 90.1074Z" fill="#8A8A8A"/>
<path d="M18.332 90.1055L14.6641 94.9043L10.148 90.1055V87.002L14.6641 85.3088L18.332 90.1055Z" fill="#8A8A8A"/>
<path d="M62.6114 37.258C61.5244 36.7763 60.1963 36.969 59.3028 37.8371L59.6837 38.51L58.5812 39.0285L58.3312 40.0168L58.0021 39.8205L55.3741 44.2297V44.9182L54.6339 45.4729L54.3273 45.9875L54.0226 46.8107L53.8917 46.7199L51.2247 51.1945V52.4338L50.5685 52.2971L49.4747 54.133L49.3478 54.8566L48.6495 55.5549L48.6124 55.5793L46.9239 58.4133L48.9689 59.1867H46.463L45.3019 61.1359C45.2246 61.2656 45.1583 61.3981 45.1026 61.5314L45.6456 62.1896L45.2618 62.7141L46.0655 63.3078L45.5948 64.6164C45.8913 64.9671 46.2683 65.2526 46.7071 65.4377H47.4972L47.6534 65.6623C47.7276 65.6676 47.8029 65.6721 47.879 65.6721H51.422L52.1398 65.4377H53.711L55.0851 65.6721H55.173L55.9112 65.4377L56.3214 65.6721H59.836L61.2032 64.9143L61.0724 65.6721H68.798V64.9143L70.4747 65.4377L71.2081 65.0031L72.5948 65.6721H74.8937C75.9129 65.6721 76.7624 65.1854 77.295 64.4709L76.2413 64.1613L77.5821 64.0031C77.9509 63.2607 78.0195 62.3666 77.6691 61.5285H77.4366L77.1017 60.6066L76.5148 60.2297L76.3468 59.2453L73.3136 54.1555L72.1554 53.7043L72.8644 53.4016L72.5597 52.8898L71.6105 52.4338H72.2872L71.4513 51.0305L70.4747 50.3537L70.3907 49.2492L69.3546 47.51L66.7911 46.3146L68.8927 46.7355L66.7804 43.1896L66.1554 42.6945L66.3175 42.4123L66.2296 42.2658L64.2569 42.1018L65.9005 41.7131L64.4161 39.2219L63.0118 38.8254L63.3517 38.1574L62.6114 37.258Z" fill="#FF9434"/>
<path d="M62.2449 39.9063C61.859 39.2448 60.9032 39.2448 60.5173 39.9063L47.6186 62.0216C47.2298 62.6882 47.7107 63.5254 48.4825 63.5254H74.2797C75.0515 63.5254 75.5324 62.6882 75.1436 62.0216L62.2449 39.9063Z" fill="#FF9434"/>
<path d="M61.5869 58.1545L61.2029 57.9865C61.1549 57.6025 61.1309 57.1945 61.0109 56.8105C61.0109 56.6905 61.0349 56.5465 61.0349 56.4265C61.0349 55.4185 60.7229 54.4105 60.4829 53.4505C60.5069 53.3785 60.5069 53.3305 60.5069 53.2585C60.5069 52.9705 60.1229 50.6665 60.0269 50.3305C60.0269 50.3065 60.1949 49.9945 60.1949 49.9705C60.1949 49.8505 59.9549 49.8025 59.8589 49.7545C59.9309 49.5145 60.0269 49.2505 60.0269 48.9865C60.0269 48.6985 59.8349 47.6425 59.5949 47.4745C59.5949 47.1145 59.5709 46.7785 59.5469 46.4185C59.7629 46.3225 59.9789 46.1785 60.1709 46.0105C60.4829 45.9385 60.7469 45.7705 61.0349 45.6985C61.8989 45.4585 62.7869 45.1945 63.6749 45.1465L63.3869 46.0585L63.1949 46.1785C63.2669 46.3225 63.3629 46.4425 63.4589 46.5625C63.2429 46.8745 63.1949 47.3305 63.0269 47.6905L63.0989 47.7625C62.9309 48.1705 62.8349 48.5785 62.8109 49.0105L62.8589 49.0825C62.8349 49.3945 62.7149 50.1385 62.7149 50.6425C62.7149 50.8105 62.7389 50.9545 62.7629 51.0265C62.7149 51.8185 62.5469 52.2505 62.2349 53.0425L62.3789 53.1145V53.3305C62.3789 53.6905 62.2349 54.0505 62.3069 54.4345L61.9709 54.7225L62.2349 54.9865C62.1149 55.4185 62.1869 55.9225 62.1389 56.3785C62.0429 56.5465 62.0189 56.6185 62.0669 56.8105C62.0189 57.0025 61.9229 57.1705 61.8989 57.3625L61.8269 57.5545C61.6829 57.7705 61.7309 57.9385 61.5869 58.1545ZM61.5149 62.4745H61.0109C60.7229 62.4745 60.4829 62.2105 60.2429 62.0905C60.1469 61.8985 60.0749 61.6825 60.0749 61.4665C60.0749 61.1065 60.2669 60.4585 60.5309 60.1945C60.5309 60.0505 60.8189 59.9305 60.9149 59.8345H60.9629C61.0829 59.8345 61.2509 59.9785 61.3469 59.9785C61.5629 59.8825 61.6349 59.6905 61.8749 59.6905C62.4269 59.9545 62.7869 60.5305 62.7629 61.1305C62.8109 61.2025 62.8349 61.2985 62.8349 61.3705C62.8349 61.5625 62.7149 61.7545 62.7149 62.0185C62.6189 62.1625 62.4749 62.2825 62.3309 62.3785C61.9469 62.3785 61.8989 62.4745 61.5149 62.4745Z" fill="#212121"/>
<path d="M63.0314 39.2822C62.2169 38.0808 60.3991 38.1207 59.6515 39.4023L48.2677 58.9209L48.965 59.1855H48.1134L46.7531 61.5176L46.6847 61.6435C46.0357 62.9538 46.9856 64.5251 48.4806 64.5254H74.2775C75.821 64.5254 76.7836 62.8509 76.006 61.5176L67.2697 46.5381L66.7873 46.3135L67.1847 46.3926L64.7023 42.1377L64.2531 42.1006L64.6291 42.0117L63.1066 39.4023L63.0314 39.2822ZM60.5158 39.9062C60.9017 39.2449 61.8574 39.2449 62.2433 39.9062L75.1418 62.0215L75.2043 62.1484C75.4514 62.7469 75.0606 63.4275 74.4191 63.5156L74.2775 63.5254H48.4806L48.339 63.5156C47.6981 63.427 47.307 62.7467 47.5539 62.1484L47.6164 62.0215L60.5158 39.9062Z" fill="#212121"/>
<path d="M328.531 11.9844L332.199 7.18555L336.715 11.9844V15.0878L332.199 16.7811L328.531 11.9844Z" fill="#8A8A8A"/>
</g>
<defs>
<filter id="filter0_d_1473_2999" x="0" y="0.955078" width="348.238" height="108.09" filterUnits="userSpaceOnUse" color-interpolation-filters="sRGB">
<feFlood flood-opacity="0" result="BackgroundImageFix"/>
<feColorMatrix in="SourceAlpha" type="matrix" values="0 0 0 0 0 0 0 0 0 0 0 0 0 0 0 0 0 0 127 0" result="hardAlpha"/>
<feOffset dy="4"/>
<feGaussianBlur stdDeviation="2"/>
<feComposite in2="hardAlpha" operator="out"/>
<feColorMatrix type="matrix" values="0 0 0 0 0 0 0 0 0 0 0 0 0 0 0 0 0 0 0.25 0"/>
<feBlend mode="normal" in2="BackgroundImageFix" result="effect1_dropShadow_1473_2999"/>
<feBlend mode="normal" in="SourceGraphic" in2="effect1_dropShadow_1473_2999" result="shape"/>
</filter>
</defs>
</svg>
