<svg width="284" height="78" viewBox="0 0 284 78" fill="none" xmlns="http://www.w3.org/2000/svg">
<mask id="path-1-inside-1_1072_3148" fill="white">
<path d="M151.717 66.7266L149.587 69.8369L147.951 67.5547L145.884 70.4414H60.3848L58.4717 67.8086L56.6074 70.376L54.1074 66.7266L51.5625 70.4414H40.2305C38.5268 70.4414 37.1455 69.0601 37.1455 67.3564V10.46C37.1456 8.75636 38.5268 7.375 40.2305 7.375H198.973L201.189 10.5234L203.37 7.42676L205.141 10.0117L206.946 7.375H263.922L265.666 9.75L267.32 7.49902L269.438 10.5273L271.642 7.375H280.841C282.544 7.375 283.926 8.75636 283.926 10.46V67.3564C283.926 69.0601 282.544 70.4414 280.841 70.4414H154.262L151.717 66.7266Z"/>
</mask>
<path d="M151.717 66.7266L149.587 69.8369L147.951 67.5547L145.884 70.4414H60.3848L58.4717 67.8086L56.6074 70.376L54.1074 66.7266L51.5625 70.4414H40.2305C38.5268 70.4414 37.1455 69.0601 37.1455 67.3564V10.46C37.1456 8.75636 38.5268 7.375 40.2305 7.375H198.973L201.189 10.5234L203.37 7.42676L205.141 10.0117L206.946 7.375H263.922L265.666 9.75L267.32 7.49902L269.438 10.5273L271.642 7.375H280.841C282.544 7.375 283.926 8.75636 283.926 10.46V67.3564C283.926 69.0601 282.544 70.4414 280.841 70.4414H154.262L151.717 66.7266Z" fill="#E0A640"/>
<path d="M151.717 66.7266L152.542 66.1614L151.717 64.9569L150.892 66.1616L151.717 66.7266ZM149.587 69.8369L148.774 70.4195L149.606 71.5796L150.412 70.4019L149.587 69.8369ZM147.951 67.5547L148.764 66.9721L147.951 65.8377L147.138 66.9724L147.951 67.5547ZM145.884 70.4414V71.4414H146.398L146.697 71.0237L145.884 70.4414ZM60.3848 70.4414L59.5758 71.0292L59.8753 71.4414H60.3848V70.4414ZM58.4717 67.8086L59.2807 67.2208L58.4714 66.107L57.6625 67.221L58.4717 67.8086ZM56.6074 70.376L55.7824 70.9411L56.5836 72.1107L57.4166 70.9635L56.6074 70.376ZM54.1074 66.7266L54.9324 66.1614L54.1074 64.9571L53.2824 66.1614L54.1074 66.7266ZM51.5625 70.4414V71.4414H52.0896L52.3875 71.0066L51.5625 70.4414ZM37.1455 10.46L36.1455 10.4599V10.46H37.1455ZM198.973 7.375L199.79 6.79929L199.492 6.375H198.973V7.375ZM201.189 10.5234L200.372 11.0991L201.189 12.2603L202.007 11.0992L201.189 10.5234ZM203.37 7.42676L204.195 6.86167L203.382 5.67375L202.552 6.851L203.37 7.42676ZM205.141 10.0117L204.316 10.5768L205.141 11.7815L205.966 10.5767L205.141 10.0117ZM206.946 7.375V6.375H206.419L206.121 6.80998L206.946 7.375ZM263.922 7.375L264.728 6.78309L264.428 6.375H263.922V7.375ZM265.666 9.75L264.86 10.3419L265.666 11.439L266.472 10.3422L265.666 9.75ZM267.32 7.49902L268.14 6.92604L267.341 5.78279L266.515 6.90683L267.32 7.49902ZM269.438 10.5273L268.618 11.1003L269.437 12.2725L270.257 11.1004L269.438 10.5273ZM271.642 7.375V6.375H271.121L270.822 6.80198L271.642 7.375ZM283.926 10.46L284.926 10.46L284.926 10.4599L283.926 10.46ZM154.262 70.4414L153.437 71.0066L153.735 71.4414H154.262V70.4414ZM150.892 66.1616L148.762 69.2719L150.412 70.4019L152.542 67.2916L150.892 66.1616ZM150.4 69.2544L148.764 66.9721L147.138 68.1372L148.774 70.4195L150.4 69.2544ZM147.138 66.9724L145.071 69.8592L146.697 71.0237L148.764 68.1369L147.138 66.9724ZM145.884 69.4414H60.3848V71.4414H145.884V69.4414ZM61.1937 69.8536L59.2807 67.2208L57.6627 68.3964L59.5758 71.0292L61.1937 69.8536ZM57.6625 67.221L55.7982 69.7884L57.4166 70.9635L59.2809 68.3962L57.6625 67.221ZM57.4324 69.8108L54.9324 66.1614L53.2824 67.2917L55.7824 70.9411L57.4324 69.8108ZM53.2824 66.1614L50.7375 69.8762L52.3875 71.0066L54.9324 67.2917L53.2824 66.1614ZM51.5625 69.4414H40.2305V71.4414H51.5625V69.4414ZM40.2305 69.4414C39.0791 69.4414 38.1455 68.5078 38.1455 67.3564H36.1455C36.1455 69.6124 37.9745 71.4414 40.2305 71.4414V69.4414ZM38.1455 67.3564V10.46H36.1455V67.3564H38.1455ZM38.1455 10.46C38.1456 9.30861 39.0792 8.375 40.2305 8.375V6.375C37.9745 6.375 36.1456 8.20411 36.1455 10.4599L38.1455 10.46ZM40.2305 8.375H198.973V6.375H40.2305V8.375ZM198.155 7.95071L200.372 11.0991L202.007 9.94773L199.79 6.79929L198.155 7.95071ZM202.007 11.0992L204.188 8.00252L202.552 6.851L200.372 9.94768L202.007 11.0992ZM202.545 7.99184L204.316 10.5768L205.966 9.44663L204.195 6.86167L202.545 7.99184ZM205.966 10.5767L207.771 7.94002L206.121 6.80998L204.316 9.4467L205.966 10.5767ZM206.946 8.375H263.922V6.375H206.946V8.375ZM263.116 7.96691L264.86 10.3419L266.472 9.15809L264.728 6.78309L263.116 7.96691ZM266.472 10.3422L268.126 8.09122L266.515 6.90683L264.86 9.1578L266.472 10.3422ZM266.501 8.07201L268.618 11.1003L270.257 9.95436L268.14 6.92604L266.501 8.07201ZM270.257 11.1004L272.461 7.94802L270.822 6.80198L268.618 9.95432L270.257 11.1004ZM271.642 8.375H280.841V6.375H271.642V8.375ZM280.841 8.375C281.992 8.375 282.926 9.30861 282.926 10.46L284.926 10.4599C284.926 8.2041 283.097 6.375 280.841 6.375V8.375ZM282.926 10.46V67.3564H284.926V10.46H282.926ZM282.926 67.3564C282.926 68.5078 281.992 69.4414 280.841 69.4414V71.4414C283.097 71.4414 284.926 69.6124 284.926 67.3564H282.926ZM280.841 69.4414H154.262V71.4414H280.841V69.4414ZM155.087 69.8762L152.542 66.1614L150.892 67.2917L153.437 71.0066L155.087 69.8762Z" fill="#C09445" mask="url(#path-1-inside-1_1072_3148)"/>
<mask id="path-3-inside-2_1072_3148" fill="white">
<path d="M12.9053 6.41406L15.5791 0H16.043L18.0312 4.56055L20.0195 0H54.6494L56.5176 4.22461L58.3857 0H59.2578C59.4063 1.11587e-05 59.5523 0.0111215 59.6953 0.03125L62.3701 6.44629V74.7012C62.3701 76.42 60.9767 77.8133 59.2578 77.8135H47.6924L44.7285 70.8945L41.7686 77.8037L39.3633 72.0332L36.9541 77.8135H7.42969L4.88672 72.123L2.63281 77.1641L0 70.9736V3.1123C0.000130194 1.39348 1.39348 0.000129135 3.1123 0H10.2314L12.9053 6.41406Z"/>
</mask>
<path d="M12.9053 6.41406L15.5791 0H16.043L18.0312 4.56055L20.0195 0H54.6494L56.5176 4.22461L58.3857 0H59.2578C59.4063 1.11587e-05 59.5523 0.0111215 59.6953 0.03125L62.3701 6.44629V74.7012C62.3701 76.42 60.9767 77.8133 59.2578 77.8135H47.6924L44.7285 70.8945L41.7686 77.8037L39.3633 72.0332L36.9541 77.8135H7.42969L4.88672 72.123L2.63281 77.1641L0 70.9736V3.1123C0.000130194 1.39348 1.39348 0.000129135 3.1123 0H10.2314L12.9053 6.41406Z" fill="#FBC25C"/>
<path d="M12.9053 6.41406L12.207 6.70516L12.9053 8.38025L13.6036 6.70516L12.9053 6.41406ZM15.5791 0V-0.756539H15.0748L14.8808 -0.291097L15.5791 0ZM16.043 0L16.7365 -0.302347L16.5384 -0.756539H16.043V0ZM18.0312 4.56055L17.3378 4.86289L18.0312 6.45358L18.7247 4.86289L18.0312 4.56055ZM20.0195 0V-0.756539H19.5241L19.326 -0.302347L20.0195 0ZM54.6494 0L55.3413 -0.305968L55.1421 -0.756539H54.6494V0ZM56.5176 4.22461L55.8257 4.53058L56.5176 6.09523L57.2095 4.53058L56.5176 4.22461ZM58.3857 0V-0.756539H57.8931L57.6938 -0.305968L58.3857 0ZM59.2578 0L59.2579 -0.756539H59.2578V0ZM59.6953 0.03125L60.3936 -0.2599L60.2277 -0.657802L59.8008 -0.717901L59.6953 0.03125ZM62.3701 6.44629H63.1267V6.29488L63.0684 6.15514L62.3701 6.44629ZM62.3701 74.7012L63.1267 74.7012V74.7012H62.3701ZM59.2578 77.8135L59.2578 78.57L59.2579 78.57L59.2578 77.8135ZM47.6924 77.8135L46.997 78.1114L47.1934 78.57H47.6924V77.8135ZM44.7285 70.8945L45.4239 70.5966L44.7285 68.9733L44.0331 70.5966L44.7285 70.8945ZM41.7686 77.8037L41.0702 78.0948L41.759 79.7472L42.464 78.1016L41.7686 77.8037ZM39.3633 72.0332L40.0616 71.7421L39.3633 70.0668L38.665 71.7422L39.3633 72.0332ZM36.9541 77.8135V78.57H37.4584L37.6524 78.1045L36.9541 77.8135ZM7.42969 77.8135L6.73898 78.1221L6.93913 78.57H7.42969V77.8135ZM4.88672 72.123L5.57743 71.8144L4.8869 70.2692L4.19607 71.8142L4.88672 72.123ZM2.63281 77.1641L1.93662 77.4602L2.61548 79.0563L3.32346 77.4729L2.63281 77.1641ZM0 70.9736H-0.756539V71.1278L-0.69619 71.2697L0 70.9736ZM0 3.1123L-0.756539 3.11225V3.1123H0ZM3.1123 0L3.1123 -0.756539L3.11225 -0.756539L3.1123 0ZM10.2314 0L10.9297 -0.291097L10.7357 -0.756539H10.2314V0ZM13.6036 6.70516L16.2774 0.291097L14.8808 -0.291097L12.207 6.12297L13.6036 6.70516ZM15.5791 0.756539H16.043V-0.756539H15.5791V0.756539ZM15.3495 0.302347L17.3378 4.86289L18.7247 4.2582L16.7365 -0.302347L15.3495 0.302347ZM18.7247 4.86289L20.713 0.302347L19.326 -0.302347L17.3378 4.2582L18.7247 4.86289ZM20.0195 0.756539H54.6494V-0.756539H20.0195V0.756539ZM53.9575 0.305968L55.8257 4.53058L57.2095 3.91864L55.3413 -0.305968L53.9575 0.305968ZM57.2095 4.53058L59.0776 0.305968L57.6938 -0.305968L55.8257 3.91864L57.2095 4.53058ZM58.3857 0.756539H59.2578V-0.756539H58.3857V0.756539ZM59.2578 0.756539C59.3685 0.756547 59.4792 0.76483 59.5898 0.780401L59.8008 -0.717901C59.6254 -0.742587 59.4441 -0.756525 59.2579 -0.756539L59.2578 0.756539ZM58.997 0.3224L61.6718 6.73744L63.0684 6.15514L60.3936 -0.2599L58.997 0.3224ZM61.6136 6.44629V74.7012H63.1267V6.44629H61.6136ZM61.6136 74.7011C61.6135 76.0022 60.5589 77.0568 59.2578 77.0569L59.2579 78.57C61.3945 78.5699 63.1266 76.8379 63.1267 74.7012L61.6136 74.7011ZM59.2578 77.0569H47.6924V78.57H59.2578V77.0569ZM48.3878 77.5156L45.4239 70.5966L44.0331 71.1924L46.997 78.1114L48.3878 77.5156ZM44.0331 70.5966L41.0731 77.5058L42.464 78.1016L45.4239 71.1925L44.0331 70.5966ZM42.4669 77.5126L40.0616 71.7421L38.665 72.3243L41.0702 78.0948L42.4669 77.5126ZM38.665 71.7422L36.2558 77.5224L37.6524 78.1045L40.0616 72.3243L38.665 71.7422ZM36.9541 77.0569H7.42969V78.57H36.9541V77.0569ZM8.12039 77.5048L5.57743 71.8144L4.19601 72.4317L6.73898 78.1221L8.12039 77.5048ZM4.19607 71.8142L1.94216 76.8553L3.32346 77.4729L5.57737 72.4318L4.19607 71.8142ZM3.329 76.868L0.69619 70.6775L-0.69619 71.2697L1.93662 77.4602L3.329 76.868ZM0.756539 70.9736V3.1123H-0.756539V70.9736H0.756539ZM0.756539 3.11236C0.756637 1.81132 1.81132 0.756636 3.11236 0.756539L3.11225 -0.756539C0.975647 -0.756378 -0.756377 0.975648 -0.756539 3.11225L0.756539 3.11236ZM3.1123 0.756539H10.2314V-0.756539H3.1123V0.756539ZM9.53315 0.291097L12.207 6.70516L13.6036 6.12297L10.9297 -0.291097L9.53315 0.291097Z" fill="#E0A640" mask="url(#path-3-inside-2_1072_3148)"/>
<path d="M31.1265 45.4382L30.3585 45.1022C30.2625 44.3342 30.2145 43.5182 29.9745 42.7502C29.9745 42.5102 30.0225 42.2222 30.0225 41.9822C30.0225 39.9662 29.3985 37.9502 28.9185 36.0302C28.9665 35.8862 28.9665 35.7902 28.9665 35.6462C28.9665 35.0702 28.1985 30.4622 28.0065 29.7902C28.0065 29.7422 28.3425 29.1182 28.3425 29.0702C28.3425 28.8302 27.8625 28.7343 27.6705 28.6382C27.8145 28.1582 28.0065 27.6302 28.0065 27.1022C28.0065 26.5262 27.6225 24.4142 27.1425 24.0782C27.1425 23.3582 27.0945 22.6862 27.0465 21.9662C27.4785 21.7742 27.9105 21.4862 28.2945 21.1502C28.9185 21.0062 29.4465 20.6702 30.0225 20.5262C31.7505 20.0462 33.5265 19.5182 35.3025 19.4222L34.7265 21.2462L34.3425 21.4862C34.4865 21.7742 34.6785 22.0142 34.8705 22.2542C34.4385 22.8782 34.3425 23.7902 34.0065 24.5102L34.1505 24.6542C33.8145 25.4702 33.6225 26.2863 33.5745 27.1502L33.6705 27.2942C33.6225 27.9182 33.3825 29.4062 33.3825 30.4142C33.3825 30.7502 33.4305 31.0382 33.4785 31.1822C33.3825 32.7662 33.0465 33.6302 32.4225 35.2142L32.7105 35.3582V35.7902C32.7105 36.5102 32.4225 37.2302 32.5665 37.9982L31.8945 38.5742L32.4225 39.1022C32.1825 39.9662 32.3265 40.9742 32.2305 41.8862C32.0385 42.2222 31.9905 42.3662 32.0865 42.7502C31.9905 43.1342 31.7985 43.4702 31.7505 43.8542L31.6065 44.2382C31.3185 44.6702 31.4145 45.0062 31.1265 45.4382ZM30.9825 54.0783H29.9745C29.3985 54.0783 28.9185 53.5503 28.4385 53.3102C28.2465 52.9262 28.1025 52.4942 28.1025 52.0622C28.1025 51.3422 28.4865 50.0462 29.0145 49.5182C29.0145 49.2302 29.5905 48.9902 29.7825 48.7982H29.8785C30.1185 48.7982 30.4545 49.0862 30.6465 49.0862C31.0785 48.8942 31.2225 48.5102 31.7025 48.5102C32.8065 49.0382 33.5265 50.1902 33.4785 51.3902C33.5745 51.5342 33.6225 51.7262 33.6225 51.8702C33.6225 52.2542 33.3825 52.6382 33.3825 53.1662C33.1905 53.4543 32.9025 53.6943 32.6145 53.8863C31.8465 53.8863 31.7505 54.0783 30.9825 54.0783Z" fill="black"/>
</svg>
