<svg width="271" height="69" viewBox="0 0 271 69" fill="none" xmlns="http://www.w3.org/2000/svg">
<mask id="path-1-inside-1_1745_3419" fill="white">
<path d="M125.852 64.9326L123.518 68.3408L121.73 65.8467L119.472 69H25.9238L23.8311 66.1191L21.7939 68.9248L19.0596 64.9326L16.2734 69H3.875C2.01104 69 0.5 67.489 0.5 65.625V3.375C0.500001 1.51104 2.01104 2.71805e-08 3.875 0H177.561L179.98 3.4375L182.361 0.0556641L184.3 2.88574L186.276 0H248.611L250.522 2.60156L252.336 0.131836L254.648 3.43945L257.053 0H267.125C268.989 0 270.5 1.51104 270.5 3.375V65.625C270.5 67.489 268.989 69 267.125 69H128.638L125.852 64.9326Z"/>
</mask>
<path d="M125.852 64.9326L123.518 68.3408L121.73 65.8467L119.472 69H25.9238L23.8311 66.1191L21.7939 68.9248L19.0596 64.9326L16.2734 69H3.875C2.01104 69 0.5 67.489 0.5 65.625V3.375C0.500001 1.51104 2.01104 2.71805e-08 3.875 0H177.561L179.98 3.4375L182.361 0.0556641L184.3 2.88574L186.276 0H248.611L250.522 2.60156L252.336 0.131836L254.648 3.43945L257.053 0H267.125C268.989 0 270.5 1.51104 270.5 3.375V65.625C270.5 67.489 268.989 69 267.125 69H128.638L125.852 64.9326Z" fill="#024DAC"/>
<path d="M125.852 64.9326L127.089 64.0849L125.851 62.2781L124.614 64.0851L125.852 64.9326ZM123.518 68.3408L122.298 69.2145L123.545 70.955L124.755 69.1884L123.518 68.3408ZM121.73 65.8467L122.95 64.973L121.73 63.2711L120.511 64.9732L121.73 65.8467ZM119.472 69V70.5H120.242L120.691 69.8735L119.472 69ZM25.9238 69L24.7102 69.8816L25.1595 70.5H25.9238V69ZM23.8311 66.1191L25.0446 65.2375L23.8307 63.5665L22.6173 65.2378L23.8311 66.1191ZM21.7939 68.9248L20.5564 69.7724L21.7582 71.5271L23.0077 69.8061L21.7939 68.9248ZM19.0596 64.9326L20.2971 64.085L19.0596 62.2783L17.8221 64.0849L19.0596 64.9326ZM16.2734 69V70.5H17.0641L17.5109 69.8477L16.2734 69ZM0.5 3.375L-1 3.375V3.375H0.5ZM3.875 0L3.875 -1.5H3.875L3.875 0ZM177.561 0L178.787 -0.863465L178.339 -1.5H177.561V0ZM179.98 3.4375L178.754 4.30096L179.98 6.04324L181.207 4.30099L179.98 3.4375ZM182.361 0.0556641L183.599 -0.791989L182.378 -2.57404L181.135 -0.80783L182.361 0.0556641ZM184.3 2.88574L183.062 3.7334L184.3 5.54015L185.537 3.73338L184.3 2.88574ZM186.276 0V-1.5H185.486L185.039 -0.847641L186.276 0ZM248.611 0L249.82 -0.888048L249.371 -1.5H248.611V0ZM250.522 2.60156L249.314 3.48961L250.523 5.13557L251.732 3.48935L250.522 2.60156ZM252.336 0.131836L253.565 -0.727651L252.366 -2.44325L251.127 -0.755956L252.336 0.131836ZM254.648 3.43945L253.419 4.29894L254.649 6.05743L255.878 4.29885L254.648 3.43945ZM257.053 0V-1.5H256.271L255.823 -0.859397L257.053 0ZM270.5 65.625L272 65.625V65.625H270.5ZM267.125 69L267.125 70.5H267.125L267.125 69ZM128.638 69L127.4 69.8477L127.847 70.5H128.638V69ZM125.852 64.9326L124.614 64.0851L122.28 67.4933L123.518 68.3408L124.755 69.1884L127.089 65.7802L125.852 64.9326ZM123.518 68.3408L124.737 67.4672L122.95 64.973L121.73 65.8467L120.511 66.7203L122.298 69.2145L123.518 68.3408ZM121.73 65.8467L120.511 64.9732L118.252 68.1265L119.472 69L120.691 69.8735L122.95 66.7202L121.73 65.8467ZM119.472 69V67.5H25.9238V69V70.5H119.472V69ZM25.9238 69L27.1374 68.1184L25.0446 65.2375L23.8311 66.1191L22.6175 67.0007L24.7102 69.8816L25.9238 69ZM23.8311 66.1191L22.6173 65.2378L20.5801 68.0435L21.7939 68.9248L23.0077 69.8061L25.0449 67.0004L23.8311 66.1191ZM21.7939 68.9248L23.0315 68.0772L20.2971 64.085L19.0596 64.9326L17.822 65.7803L20.5564 69.7724L21.7939 68.9248ZM19.0596 64.9326L17.8221 64.0849L15.0359 68.1523L16.2734 69L17.5109 69.8477L20.2971 65.7803L19.0596 64.9326ZM16.2734 69V67.5H3.875V69V70.5H16.2734V69ZM3.875 69V67.5C2.83947 67.5 2 66.6605 2 65.625H0.5H-1C-1 68.3174 1.18261 70.5 3.875 70.5V69ZM0.5 65.625H2V3.375H0.5H-1V65.625H0.5ZM0.5 3.375L2 3.375C2 2.33947 2.83947 1.5 3.875 1.5L3.875 0L3.875 -1.5C1.18261 -1.5 -0.999999 0.682613 -1 3.375L0.5 3.375ZM3.875 0V1.5H177.561V0V-1.5H3.875V0ZM177.561 0L176.334 0.863465L178.754 4.30096L179.98 3.4375L181.207 2.57404L178.787 -0.863465L177.561 0ZM179.98 3.4375L181.207 4.30099L183.588 0.919159L182.361 0.0556641L181.135 -0.80783L178.754 2.57401L179.98 3.4375ZM182.361 0.0556641L181.124 0.903317L183.062 3.7334L184.3 2.88574L185.537 2.03809L183.599 -0.791989L182.361 0.0556641ZM184.3 2.88574L185.537 3.73338L187.514 0.847641L186.276 0L185.039 -0.847641L183.062 2.0381L184.3 2.88574ZM186.276 0V1.5H248.611V0V-1.5H186.276V0ZM248.611 0L247.402 0.888048L249.314 3.48961L250.522 2.60156L251.731 1.71351L249.82 -0.888048L248.611 0ZM250.522 2.60156L251.732 3.48935L253.545 1.01963L252.336 0.131836L251.127 -0.755956L249.313 1.71377L250.522 2.60156ZM252.336 0.131836L251.107 0.991323L253.419 4.29894L254.648 3.43945L255.878 2.57997L253.565 -0.727651L252.336 0.131836ZM254.648 3.43945L255.878 4.29885L258.282 0.859397L257.053 0L255.823 -0.859397L253.419 2.58006L254.648 3.43945ZM257.053 0V1.5H267.125V0V-1.5H257.053V0ZM267.125 0V1.5C268.161 1.5 269 2.33947 269 3.375H270.5H272C272 0.682612 269.817 -1.5 267.125 -1.5V0ZM270.5 3.375H269V65.625H270.5H272V3.375H270.5ZM270.5 65.625L269 65.625C269 66.6605 268.161 67.5 267.125 67.5L267.125 69L267.125 70.5C269.817 70.5 272 68.3174 272 65.625L270.5 65.625ZM267.125 69V67.5H128.638V69V70.5H267.125V69ZM128.638 69L129.875 68.1523L127.089 64.0849L125.852 64.9326L124.614 65.7803L127.4 69.8477L128.638 69Z" fill="#0A428A" mask="url(#path-1-inside-1_1745_3419)"/>
</svg>
