<svg width="287" height="310" viewBox="0 0 287 310" fill="none" xmlns="http://www.w3.org/2000/svg">
<mask id="path-1-inside-1_1481_12771" fill="white">
<path d="M70.6846 25.9922L81.2637 0.5625H83.1094L90.9756 18.6445L98.8428 0.5625H235.91L243.302 17.3145L250.694 0.5625H254.12C254.717 0.5625 255.303 0.605713 255.877 0.6875L266.463 26.1318V296.784C266.463 303.601 260.937 309.127 254.12 309.127H208.369L196.638 281.688L184.922 309.088L175.406 286.213L165.874 309.127H49.0254L38.9561 286.553L30.0332 306.553L19.6113 282.006V12.9053C19.6113 6.08866 25.1375 0.5625 31.9541 0.5625H60.1055L70.6846 25.9922Z"/>
</mask>
<path d="M70.6846 25.9922L81.2637 0.5625H83.1094L90.9756 18.6445L98.8428 0.5625H235.91L243.302 17.3145L250.694 0.5625H254.12C254.717 0.5625 255.303 0.605713 255.877 0.6875L266.463 26.1318V296.784C266.463 303.601 260.937 309.127 254.12 309.127H208.369L196.638 281.688L184.922 309.088L175.406 286.213L165.874 309.127H49.0254L38.9561 286.553L30.0332 306.553L19.6113 282.006V12.9053C19.6113 6.08866 25.1375 0.5625 31.9541 0.5625H60.1055L70.6846 25.9922Z" fill="url(#paint0_linear_1481_12771)"/>
<path d="M70.6846 25.9922L67.2658 27.4144L70.6846 35.6323L74.1033 27.4144L70.6846 25.9922ZM81.2637 0.5625V-3.14027H78.7937L77.8449 -0.859741L81.2637 0.5625ZM83.1094 0.5625L86.5048 -0.914595L85.5365 -3.14027L83.1094 -3.14027V0.5625ZM90.9756 18.6445L87.5802 20.1216L90.9754 27.9261L94.3709 20.1218L90.9756 18.6445ZM98.8428 0.5625V-3.14027H96.4157L95.4474 -0.91475L98.8428 0.5625ZM235.91 0.5625L239.298 -0.932262L238.324 -3.14027L235.91 -3.14027V0.5625ZM243.302 17.3145L239.914 18.8092L243.302 26.4863L246.689 18.8094L243.302 17.3145ZM250.694 0.5625V-3.14027H248.281L247.307 -0.932428L250.694 0.5625ZM255.877 0.6875L259.296 -0.734826L258.486 -2.68085L256.399 -2.97823L255.877 0.6875ZM266.463 26.1318H270.166V25.3923L269.882 24.7095L266.463 26.1318ZM208.369 309.127L204.964 310.583L205.925 312.83H208.369V309.127ZM196.638 281.688L200.042 280.232L196.638 272.269L193.233 280.232L196.638 281.688ZM184.922 309.088L181.503 310.51L184.875 318.616L188.326 310.544L184.922 309.088ZM175.406 286.213L178.825 284.791L175.406 276.572L171.987 284.791L175.406 286.213ZM165.874 309.127V312.83H168.344L169.293 310.549L165.874 309.127ZM49.0254 309.127L45.6438 310.635L46.6226 312.83H49.0254V309.127ZM38.9561 286.553L42.3377 285.044L38.9564 277.464L35.5746 285.044L38.9561 286.553ZM30.0332 306.553L26.6249 308L29.9491 315.829L33.4147 308.061L30.0332 306.553ZM19.6113 282.006H15.9086V282.759L16.203 283.453L19.6113 282.006ZM60.1055 0.5625L63.5242 -0.859741L62.5755 -3.14027H60.1055V0.5625ZM70.6846 25.9922L74.1033 27.4144L84.6824 1.98474L81.2637 0.5625L77.8449 -0.859741L67.2658 24.5699L70.6846 25.9922ZM81.2637 0.5625V4.26527H83.1094V0.5625V-3.14027H81.2637V0.5625ZM83.1094 0.5625L79.714 2.0396L87.5802 20.1216L90.9756 18.6445L94.371 17.1674L86.5048 -0.914595L83.1094 0.5625ZM90.9756 18.6445L94.3709 20.1218L102.238 2.03975L98.8428 0.5625L95.4474 -0.91475L87.5803 17.1673L90.9756 18.6445ZM98.8428 0.5625V4.26527H235.91V0.5625V-3.14027H98.8428V0.5625ZM235.91 0.5625L232.523 2.05726L239.914 18.8092L243.302 17.3145L246.689 15.8197L239.298 -0.932262L235.91 0.5625ZM243.302 17.3145L246.689 18.8094L254.082 2.05743L250.694 0.5625L247.307 -0.932428L239.914 15.8195L243.302 17.3145ZM250.694 0.5625V4.26527H254.12V0.5625V-3.14027H250.694V0.5625ZM254.12 0.5625V4.26527C254.537 4.26527 254.949 4.29549 255.355 4.35323L255.877 0.6875L256.399 -2.97823C255.657 -3.08406 254.896 -3.14027 254.12 -3.14027V0.5625ZM255.877 0.6875L252.458 2.10983L263.044 27.5542L266.463 26.1318L269.882 24.7095L259.296 -0.734826L255.877 0.6875ZM266.463 26.1318H262.76V296.784H266.463H270.166V26.1318H266.463ZM266.463 296.784H262.76C262.76 301.556 258.892 305.424 254.12 305.424V309.127V312.83C262.982 312.83 270.166 305.646 270.166 296.784H266.463ZM254.12 309.127V305.424H208.369V309.127V312.83H254.12V309.127ZM208.369 309.127L211.774 307.671L200.042 280.232L196.638 281.688L193.233 283.143L204.964 310.583L208.369 309.127ZM196.638 281.688L193.233 280.232L181.517 307.632L184.922 309.088L188.326 310.544L200.042 283.143L196.638 281.688ZM184.922 309.088L188.341 307.666L178.825 284.791L175.406 286.213L171.987 287.635L181.503 310.51L184.922 309.088ZM175.406 286.213L171.987 284.791L162.455 307.705L165.874 309.127L169.293 310.549L178.825 287.635L175.406 286.213ZM165.874 309.127V305.424H49.0254V309.127V312.83H165.874V309.127ZM49.0254 309.127L52.407 307.619L42.3377 285.044L38.9561 286.553L35.5744 288.061L45.6438 310.635L49.0254 309.127ZM38.9561 286.553L35.5746 285.044L26.6517 305.044L30.0332 306.553L33.4147 308.061L42.3376 288.061L38.9561 286.553ZM30.0332 306.553L33.4415 305.106L23.0196 280.559L19.6113 282.006L16.203 283.453L26.6249 308L30.0332 306.553ZM19.6113 282.006H23.3141V12.9053H19.6113H15.9086V282.006H19.6113ZM19.6113 12.9053H23.3141C23.3141 8.13364 27.1825 4.26527 31.9541 4.26527V0.5625V-3.14027C23.0925 -3.14027 15.9086 4.04368 15.9086 12.9053H19.6113ZM31.9541 0.5625V4.26527H60.1055V0.5625V-3.14027H31.9541V0.5625ZM60.1055 0.5625L56.6867 1.98474L67.2658 27.4144L70.6846 25.9922L74.1033 24.5699L63.5242 -0.859741L60.1055 0.5625Z" fill="url(#paint1_linear_1481_12771)" mask="url(#path-1-inside-1_1481_12771)"/>
<mask id="mask0_1481_12771" style="mask-type:alpha" maskUnits="userSpaceOnUse" x="19" y="1" width="248" height="309">
<mask id="path-3-inside-2_1481_12771" fill="white">
<path d="M70.6846 26.4297L81.2637 1H83.1094L90.9756 19.082L98.8428 1H235.91L243.302 17.752L250.694 1H254.12C254.717 1 255.303 1.04321 255.877 1.125L266.463 26.5693V297.222C266.463 304.038 260.937 309.564 254.12 309.564H208.369L196.638 282.125L184.922 309.525L175.406 286.65L165.874 309.564H49.0254L38.9561 286.99L30.0332 306.99L19.6113 282.443V13.3428C19.6113 6.52616 25.1375 1 31.9541 1H60.1055L70.6846 26.4297Z"/>
</mask>
<path d="M70.6846 26.4297L81.2637 1H83.1094L90.9756 19.082L98.8428 1H235.91L243.302 17.752L250.694 1H254.12C254.717 1 255.303 1.04321 255.877 1.125L266.463 26.5693V297.222C266.463 304.038 260.937 309.564 254.12 309.564H208.369L196.638 282.125L184.922 309.525L175.406 286.65L165.874 309.564H49.0254L38.9561 286.99L30.0332 306.99L19.6113 282.443V13.3428C19.6113 6.52616 25.1375 1 31.9541 1H60.1055L70.6846 26.4297Z" fill="url(#paint2_linear_1481_12771)"/>
<path d="M70.6846 26.4297L67.2658 27.8519L70.6846 36.0698L74.1033 27.8519L70.6846 26.4297ZM81.2637 1V-2.70277H78.7937L77.8449 -0.422241L81.2637 1ZM83.1094 1L86.5048 -0.477095L85.5365 -2.70277L83.1094 -2.70277V1ZM90.9756 19.082L87.5802 20.5591L90.9754 28.3636L94.3709 20.5593L90.9756 19.082ZM98.8428 1V-2.70277H96.4157L95.4474 -0.47725L98.8428 1ZM235.91 1L239.298 -0.494762L238.324 -2.70277L235.91 -2.70277V1ZM243.302 17.752L239.914 19.2467L243.302 26.9238L246.689 19.2469L243.302 17.752ZM250.694 1V-2.70277H248.281L247.307 -0.494928L250.694 1ZM255.877 1.125L259.296 -0.297326L258.486 -2.24335L256.399 -2.54073L255.877 1.125ZM266.463 26.5693H270.166V25.8298L269.882 25.147L266.463 26.5693ZM208.369 309.564L204.964 311.02L205.925 313.267H208.369V309.564ZM196.638 282.125L200.042 280.669L196.638 272.706L193.233 280.669L196.638 282.125ZM184.922 309.525L181.503 310.948L184.875 319.053L188.326 310.981L184.922 309.525ZM175.406 286.65L178.825 285.228L175.406 277.01L171.987 285.228L175.406 286.65ZM165.874 309.564V313.267H168.344L169.293 310.987L165.874 309.564ZM49.0254 309.564L45.6438 311.073L46.6226 313.267H49.0254V309.564ZM38.9561 286.99L42.3377 285.482L38.9564 277.901L35.5746 285.482L38.9561 286.99ZM30.0332 306.99L26.6249 308.437L29.9491 316.267L33.4147 308.499L30.0332 306.99ZM19.6113 282.443H15.9086V283.197L16.203 283.89L19.6113 282.443ZM60.1055 1L63.5242 -0.422241L62.5755 -2.70277H60.1055V1ZM70.6846 26.4297L74.1033 27.8519L84.6824 2.42224L81.2637 1L77.8449 -0.422241L67.2658 25.0074L70.6846 26.4297ZM81.2637 1V4.70277H83.1094V1V-2.70277H81.2637V1ZM83.1094 1L79.714 2.4771L87.5802 20.5591L90.9756 19.082L94.371 17.6049L86.5048 -0.477095L83.1094 1ZM90.9756 19.082L94.3709 20.5593L102.238 2.47725L98.8428 1L95.4474 -0.47725L87.5803 17.6048L90.9756 19.082ZM98.8428 1V4.70277H235.91V1V-2.70277H98.8428V1ZM235.91 1L232.523 2.49476L239.914 19.2467L243.302 17.752L246.689 16.2572L239.298 -0.494762L235.91 1ZM243.302 17.752L246.689 19.2469L254.082 2.49493L250.694 1L247.307 -0.494928L239.914 16.257L243.302 17.752ZM250.694 1V4.70277H254.12V1V-2.70277H250.694V1ZM254.12 1V4.70277C254.537 4.70277 254.949 4.73299 255.355 4.79073L255.877 1.125L256.399 -2.54073C255.657 -2.64656 254.896 -2.70277 254.12 -2.70277V1ZM255.877 1.125L252.458 2.54733L263.044 27.9917L266.463 26.5693L269.882 25.147L259.296 -0.297326L255.877 1.125ZM266.463 26.5693H262.76V297.222H266.463H270.166V26.5693H266.463ZM266.463 297.222H262.76C262.76 301.993 258.892 305.862 254.12 305.862V309.564V313.267C262.982 313.267 270.166 306.083 270.166 297.222H266.463ZM254.12 309.564V305.862H208.369V309.564V313.267H254.12V309.564ZM208.369 309.564L211.774 308.109L200.042 280.669L196.638 282.125L193.233 283.581L204.964 311.02L208.369 309.564ZM196.638 282.125L193.233 280.669L181.517 308.07L184.922 309.525L188.326 310.981L200.042 283.581L196.638 282.125ZM184.922 309.525L188.341 308.103L178.825 285.228L175.406 286.65L171.987 288.073L181.503 310.948L184.922 309.525ZM175.406 286.65L171.987 285.228L162.455 308.142L165.874 309.564L169.293 310.987L178.825 288.073L175.406 286.65ZM165.874 309.564V305.862H49.0254V309.564V313.267H165.874V309.564ZM49.0254 309.564L52.407 308.056L42.3377 285.482L38.9561 286.99L35.5744 288.499L45.6438 311.073L49.0254 309.564ZM38.9561 286.99L35.5746 285.482L26.6517 305.482L30.0332 306.99L33.4147 308.499L42.3376 288.499L38.9561 286.99ZM30.0332 306.99L33.4415 305.543L23.0196 280.996L19.6113 282.443L16.203 283.89L26.6249 308.437L30.0332 306.99ZM19.6113 282.443H23.3141V13.3428H19.6113H15.9086V282.443H19.6113ZM19.6113 13.3428H23.3141C23.3141 8.57114 27.1825 4.70277 31.9541 4.70277V1V-2.70277C23.0925 -2.70277 15.9086 4.48118 15.9086 13.3428H19.6113ZM31.9541 1V4.70277H60.1055V1V-2.70277H31.9541V1ZM60.1055 1L56.6867 2.42224L67.2658 27.8519L70.6846 26.4297L74.1033 25.0074L63.5242 -0.422241L60.1055 1Z" fill="url(#paint3_linear_1481_12771)" mask="url(#path-3-inside-2_1481_12771)"/>
</mask>
<g mask="url(#mask0_1481_12771)">
<g style="mix-blend-mode:overlay">
<rect x="19.6113" y="0.894531" width="246.852" height="308.777" fill="url(#paint4_linear_1481_12771)"/>
</g>
<rect x="19.6113" y="0.5625" width="246.852" height="309.438" fill="url(#paint5_radial_1481_12771)" fill-opacity="0.2"/>
<path d="M113.628 57.1897C64.1337 56.7038 45.2263 112.463 41.9593 140.403C40.7972 148.685 41.6245 159.868 46.4815 170.773C52.2471 183.719 63.6908 196.274 84.2253 203.126C87.9955 204.384 92.0722 205.45 96.4764 206.29C104.685 207.857 114.032 208.642 124.654 208.431C125.479 208.415 126.295 208.396 127.104 208.375C141.042 208.015 152.58 206.986 162.229 205.395C170.762 203.988 177.816 202.141 183.745 199.928C205.382 191.854 215.311 175.633 219.599 167.129C223.887 158.625 224.141 157.331 224.847 152.552C226.978 138.131 223.52 117.905 216.198 99.4959C212.507 91.8656 208.878 84.7814 205.463 78.4494C199.349 69.0384 194.485 64.4793 184.071 57.1897C160.969 41.0179 131.188 38.7657 120.366 37.7539C124.245 40.5884 132.004 47.3507 132.004 51.7236C112.893 44.4348 99.9476 46.662 95.8639 48.6866C99.335 47.6743 107.747 47.9577 113.628 57.1897Z" fill="#F2E9DD"/>
<path d="M56.0347 260.668C43.7732 285.45 56.3993 286.381 64.2451 283.749C64.9966 278.173 66.1204 272.39 67.6864 266.411C61.3159 266.146 57.2642 262.472 56.0347 260.668Z" fill="#F2E9DD"/>
<path d="M199.998 295.897C206.203 295.094 208.856 290.449 209.714 285.288C209.899 284.18 210 283.049 210.036 281.927C210.138 278.78 209.727 275.704 209.186 273.423C208.505 269.824 207.587 265.937 206.496 261.883C201.404 266.256 186.662 269.171 179.927 270.082L183.745 281.927C184.652 285.123 186.201 289.855 189.584 292.944C191.353 294.558 193.623 295.724 196.565 295.985C197.62 296.079 198.762 296.057 199.998 295.897Z" fill="#F2E9DD"/>
<path d="M41.9593 140.403C28.279 186.624 13.292 282.451 62.7861 295.985C62.9052 296.018 63.0255 296.05 63.1469 296.083C63.3189 292.093 63.6748 287.98 64.2451 283.749C56.3993 286.381 43.7732 285.45 56.0347 260.668C47.4623 246.604 36.4018 214.081 46.4815 170.773C41.6245 159.868 40.7972 148.685 41.9593 140.403Z" fill="#F2E9DD"/>
<path d="M224.847 152.552C233.92 186.768 243.489 258.846 209.186 273.423C209.727 275.704 210.138 278.78 210.036 281.927C213.428 280.78 220.947 279.985 223.887 285.977C227.175 285.726 230.645 285.2 234.301 284.356C281.517 263.114 246.735 162.618 216.198 99.4959C223.52 117.905 226.978 138.131 224.847 152.552Z" fill="#F2E9DD"/>
<path d="M209.714 285.288C208.856 290.449 206.203 295.094 199.998 295.897C198.762 296.057 197.62 296.079 196.565 295.985C197.249 299.458 196.688 314.38 196.322 321.407C199.714 323.229 206.667 324.687 207.348 315.941C230.013 321.407 234.301 296.504 218.374 294.682C225.725 293.71 225.112 288.474 223.887 285.977C220.947 279.985 213.428 280.78 210.036 281.927C210 283.049 209.899 284.18 209.714 285.288Z" fill="#F2E9DD"/>
<path d="M101.898 395.624C103.351 395.624 105.53 389.479 106.438 386.407C97.6836 386.846 84.9491 387.09 80.1085 385.795V391.123C79.0492 391.123 76.9308 391.663 76.9308 393.824C78.2926 396.525 100.083 395.624 101.898 395.624Z" fill="#F2E9DD"/>
<path d="M152.219 383.679C153.444 387.825 156.384 396.117 158.344 396.117C160.794 396.117 190.197 397.332 192.035 393.687C192.035 390.772 189.176 390.043 187.747 390.043V382.853C181.215 384.601 164.032 384.271 152.219 383.679Z" fill="#F2E9DD"/>
<path d="M224.847 152.552C224.141 157.331 223.887 158.625 219.599 167.129C215.311 175.633 205.382 191.854 183.745 199.928C189.363 212.427 200.519 239.667 206.496 261.883C207.587 265.937 208.505 269.824 209.186 273.423C243.489 258.846 233.92 186.768 224.847 152.552Z" fill="#DB867D"/>
<path d="M144.256 369.392C160.917 373.765 182.234 370.201 189.584 367.569C191.203 362.754 193.768 343.25 195.418 329.303C179.993 323.472 169.584 306.295 166.307 298.436C133.737 304.321 102.824 302.816 81.7751 299.754C79.2901 306.567 72.4915 321.286 65.1774 325.659C69.4654 349.266 75.3091 366.194 78.7466 374.468C84.1941 376.419 99.9918 379.059 112.339 375.818C112.339 370.473 119.958 345.369 124.041 333.965C126.637 334.686 129.191 335.222 131.392 335.377C136.782 342.18 142.214 360.888 144.256 369.392Z" fill="#A33C3E"/>
<path fill-rule="evenodd" clip-rule="evenodd" d="M183.745 281.927L179.927 270.082L176.108 258.238L168.355 226.046C168.68 223.009 172.213 213.534 183.745 199.928C177.816 202.141 170.762 203.988 162.229 205.395C155.908 212.968 152.367 217.204 146.093 223.617C144.868 224.832 142.295 227.504 139.355 226.046C135.925 225.074 129.758 213.861 127.104 208.375C123.429 213.456 114.975 223.617 110.565 223.617C106.645 222.645 98.5589 213.088 95.006 208.431C80.8222 229.313 72.3192 248.722 67.6864 266.411C66.1204 272.39 64.9966 278.173 64.2451 283.749C77.8342 288.001 120.759 293.589 183.745 281.927ZM93.4136 265.527C92.1397 259.696 94.9246 244.876 96.4764 238.194C111.586 236.777 144.378 234.793 154.669 238.194C154.179 253.744 153.648 264.515 153.444 267.349C143.302 273.926 137.576 277.369 127.104 281.927C122.816 284.356 116.193 284.964 113.015 283.141C107.012 279.7 94.6875 271.358 93.4136 265.527Z" fill="#A33C3E"/>
<path d="M176.108 258.238L179.927 270.082C186.662 269.171 201.404 266.256 206.496 261.883C200.519 239.667 189.363 212.427 183.745 199.928C172.213 213.534 168.68 223.009 168.355 226.046L176.108 258.238Z" fill="#FCB93E"/>
<path d="M183.745 281.927C120.759 293.589 77.8342 288.001 64.2451 283.749C63.6748 287.98 63.3189 292.093 63.1469 296.083C67.7954 297.326 74.1356 298.642 81.7751 299.754C102.824 302.816 133.737 304.321 166.307 298.436C174.01 297.044 181.805 295.239 189.584 292.944C186.201 289.855 184.652 285.123 183.745 281.927Z" fill="#A33C3E"/>
<path d="M65.1774 325.659C72.4915 321.286 79.2901 306.567 81.7751 299.754C74.1356 298.642 67.7954 297.326 63.1469 296.083C62.6817 306.867 63.5598 316.754 65.1774 325.659Z" fill="#A33C3E"/>
<path d="M112.339 375.818C99.9918 379.059 84.1941 376.419 78.7466 374.468C76.9308 372.667 74.207 382.57 78.7466 385.271C79.0783 385.469 79.5387 385.642 80.1085 385.795C84.9491 387.09 97.6836 386.846 106.438 386.407C107.936 386.332 109.318 386.251 110.524 386.171C111.886 384.521 114.155 380.14 112.339 375.818Z" fill="#A33C3E"/>
<path d="M189.584 367.569C182.234 370.201 160.917 373.765 144.256 369.392C141.805 375.223 144.868 381.134 146.706 383.362C148.333 383.469 150.197 383.578 152.219 383.679C164.032 384.271 181.215 384.601 187.747 382.853C188.516 382.648 189.137 382.413 189.584 382.147C195.71 378.502 192.035 365.14 189.584 367.569Z" fill="#A33C3E"/>
<path d="M196.322 321.407C196.688 314.38 197.249 299.458 196.565 295.985C193.623 295.724 191.353 294.558 189.584 292.944C181.805 295.239 174.01 297.044 166.307 298.436C169.584 306.295 179.993 323.472 195.418 329.303C195.766 326.361 196.073 323.665 196.322 321.407Z" fill="#A33C3E"/>
<path d="M96.4764 238.194C94.9246 244.876 92.1397 259.696 93.4136 265.527C94.6875 271.358 107.012 279.7 113.015 283.141C116.193 284.964 122.816 284.356 127.104 281.927C137.576 277.369 143.302 273.926 153.444 267.349C153.648 264.515 154.179 253.744 154.669 238.194C144.378 234.793 111.586 236.777 96.4764 238.194Z" fill="#DC8D8E"/>
<path d="M46.4815 170.773C36.4018 214.081 47.4623 246.604 56.0347 260.668C62.573 243.768 77.3647 208.6 84.2253 203.126C63.6908 196.274 52.2471 183.719 46.4815 170.773Z" fill="#DB867D"/>
<path d="M96.4764 206.29C92.0722 205.45 87.9955 204.384 84.2253 203.126C77.3647 208.6 62.573 243.768 56.0347 260.668C57.2642 262.472 61.3159 266.146 67.6864 266.411C72.3192 248.722 80.8222 229.313 95.006 208.431C95.4895 207.719 95.9796 207.006 96.4764 206.29Z" fill="#FCB93E"/>
<path d="M124.654 208.431C114.032 208.642 104.685 207.857 96.4764 206.29C95.9796 207.006 95.4895 207.719 95.006 208.431C98.5589 213.088 106.645 222.645 110.565 223.617C114.975 223.617 123.429 213.456 127.104 208.375C126.295 208.396 125.479 208.415 124.654 208.431Z" fill="#FCB93E"/>
<path d="M127.104 208.375C129.758 213.861 135.925 225.074 139.355 226.046C142.295 227.504 144.868 224.832 146.093 223.617C152.367 217.204 155.908 212.968 162.229 205.395C152.58 206.986 141.042 208.015 127.104 208.375Z" fill="#FCB93E"/>
<path d="M41.9593 140.403C45.2263 112.463 64.1337 56.7038 113.628 57.1897C107.747 47.9577 99.335 47.6743 95.8639 48.6866C99.9476 46.662 112.893 44.4348 132.004 51.7236C132.004 47.3507 124.245 40.5884 120.366 37.7539C131.188 38.7657 160.969 41.0179 184.071 57.1897C194.485 64.4793 199.349 69.0384 205.463 78.4494M41.9593 140.403C28.279 186.624 13.292 282.451 62.7861 295.985C62.9052 296.018 63.0255 296.05 63.1469 296.083M41.9593 140.403C40.7972 148.685 41.6245 159.868 46.4815 170.773M205.463 78.4494C208.878 84.7814 212.507 91.8656 216.198 99.4959M205.463 78.4494C209.603 84.8223 213.22 92.0088 216.198 99.4959M166.307 217.543L168.355 226.046M224.847 152.552C224.141 157.331 223.887 158.625 219.599 167.129C215.311 175.633 205.382 191.854 183.745 199.928M224.847 152.552C233.92 186.768 243.489 258.846 209.186 273.423M224.847 152.552C226.978 138.131 223.52 117.905 216.198 99.4959M209.186 273.423C208.505 269.824 207.587 265.937 206.496 261.883M209.186 273.423C209.727 275.704 210.138 278.78 210.036 281.927M183.745 199.928C189.363 212.427 200.519 239.667 206.496 261.883M183.745 199.928C172.213 213.534 168.68 223.009 168.355 226.046M183.745 199.928C177.816 202.141 170.762 203.988 162.229 205.395M183.745 281.927L179.927 270.082M183.745 281.927C120.759 293.589 77.8342 288.001 64.2451 283.749M183.745 281.927C184.652 285.123 186.201 289.855 189.584 292.944M179.927 270.082L176.108 258.238L168.355 226.046M179.927 270.082C186.662 269.171 201.404 266.256 206.496 261.883M210.036 281.927C210 283.049 209.899 284.18 209.714 285.288C208.856 290.449 206.203 295.094 199.998 295.897C198.762 296.057 197.62 296.079 196.565 295.985M210.036 281.927C213.428 280.78 220.947 279.985 223.887 285.977M223.887 285.977C227.175 285.726 230.645 285.2 234.301 284.356C281.517 263.114 246.735 162.618 216.198 99.4959M223.887 285.977C225.112 288.474 225.725 293.71 218.374 294.682C234.301 296.504 230.013 321.407 207.348 315.941C206.667 324.687 199.714 323.23 196.322 321.407M196.322 321.407C196.688 314.38 197.249 299.458 196.565 295.985M196.322 321.407C196.073 323.665 195.766 326.361 195.418 329.303M189.584 367.569C182.234 370.201 160.917 373.765 144.256 369.392M189.584 367.569C192.035 365.14 195.71 378.502 189.584 382.147C189.137 382.413 188.516 382.648 187.747 382.853M189.584 367.569C191.203 362.754 193.768 343.25 195.418 329.303M196.565 295.985C193.623 295.724 191.353 294.558 189.584 292.944M144.256 369.392C141.805 375.223 144.868 381.134 146.706 383.362C148.333 383.469 150.197 383.578 152.219 383.679M144.256 369.392C142.214 360.888 136.782 342.18 131.392 335.377C129.191 335.222 126.637 334.686 124.041 333.965M152.219 383.679C153.444 387.825 156.384 396.117 158.344 396.117C160.794 396.117 190.197 397.332 192.035 393.687C192.035 390.772 189.176 390.043 187.747 390.043V382.853M152.219 383.679C164.032 384.271 181.215 384.601 187.747 382.853M46.4815 170.773C36.4018 214.081 47.4623 246.604 56.0347 260.668M46.4815 170.773C52.2471 183.719 63.6908 196.274 84.2253 203.126M78.7466 374.468C75.3091 366.194 69.4654 349.265 65.1774 325.659M78.7466 374.468C84.1941 376.419 99.9918 379.059 112.339 375.818M78.7466 374.468C76.9308 372.667 74.207 382.57 78.7466 385.271C79.0783 385.469 79.5387 385.642 80.1085 385.795M96.4764 206.29C104.685 207.857 114.032 208.642 124.654 208.431C125.479 208.415 126.295 208.396 127.104 208.375M96.4764 206.29C92.0722 205.45 87.9955 204.384 84.2253 203.126M96.4764 206.29C95.9796 207.006 95.4895 207.719 95.006 208.431M64.2451 283.749C56.3993 286.381 43.7732 285.45 56.0347 260.668M64.2451 283.749C64.9966 278.173 66.1204 272.39 67.6864 266.411M64.2451 283.749C63.6748 287.98 63.3189 292.093 63.1469 296.083M56.0347 260.668C62.573 243.768 77.3647 208.6 84.2253 203.126M56.0347 260.668C57.2642 262.472 61.3159 266.146 67.6864 266.411M67.6864 266.411C72.3192 248.722 80.8222 229.313 95.006 208.431M95.006 208.431C98.5589 213.088 106.645 222.645 110.565 223.617C114.975 223.617 123.429 213.456 127.104 208.375M127.104 208.375C129.758 213.861 135.925 225.075 139.355 226.046C142.295 227.504 144.868 224.832 146.093 223.617C152.367 217.204 155.908 212.968 162.229 205.395M127.104 208.375C141.042 208.015 152.58 206.986 162.229 205.395M189.584 292.944C181.805 295.239 174.01 297.044 166.307 298.436M81.7751 299.754C79.2901 306.567 72.4915 321.286 65.1774 325.659M81.7751 299.754C102.824 302.816 133.737 304.321 166.307 298.436M81.7751 299.754C74.1356 298.642 67.7954 297.326 63.1469 296.083M65.1774 325.659C63.5598 316.754 62.6817 306.867 63.1469 296.083M166.307 298.436C169.584 306.295 179.993 323.472 195.418 329.303M109.952 328.696C112.865 330.071 118.546 332.436 124.041 333.965M124.041 333.965C119.958 345.369 112.339 370.473 112.339 375.818M112.339 375.818C114.155 380.14 111.886 384.521 110.524 386.171C109.318 386.251 107.936 386.332 106.438 386.407M106.438 386.407C105.53 389.479 103.351 395.624 101.898 395.624C100.083 395.624 78.2926 396.525 76.9308 393.824C76.9308 391.663 79.0492 391.123 80.1085 391.123V385.795M106.438 386.407C97.6836 386.846 84.9491 387.09 80.1085 385.795M96.4764 238.194C94.9246 244.876 92.1397 259.696 93.4136 265.527C94.6875 271.358 107.012 279.7 113.015 283.141C116.193 284.964 122.816 284.356 127.104 281.927C137.576 277.369 143.302 273.926 153.444 267.349C153.648 264.515 154.179 253.744 154.669 238.194C144.378 234.793 111.586 236.777 96.4764 238.194Z" stroke="#503C3C" stroke-width="2.00902" stroke-linecap="round"/>
<path d="M110.771 269.184C110.332 273.738 112.476 272.745 114.446 271.613C120.335 268.233 129.283 261.446 128.968 255.821C128.867 254.036 127.834 252.368 125.472 250.962C123.278 249.657 121.37 249.423 119.721 249.942C114.006 251.741 111.405 262.585 110.771 269.184Z" fill="#F96B35"/>
<path d="M119.721 249.942C121.37 249.423 123.278 249.657 125.472 250.962C127.834 252.368 128.867 254.036 128.968 255.821C132.821 257.643 135.883 251.579 131.596 248.542C136.496 244.899 126.083 238.218 124.858 244.29C118.732 240.646 116.282 248.533 119.721 249.942Z" fill="#5FBE50"/>
<path d="M119.721 249.942C114.006 251.741 111.405 262.585 110.771 269.184C110.332 273.738 112.476 272.745 114.446 271.613C120.335 268.233 129.283 261.446 128.968 255.821M119.721 249.942C121.37 249.423 123.278 249.657 125.472 250.962C127.834 252.368 128.867 254.036 128.968 255.821M119.721 249.942C116.282 248.533 118.732 240.646 124.858 244.29C126.083 238.218 136.496 244.899 131.596 248.542C135.883 251.579 132.821 257.643 128.968 255.821" stroke="#503C3C" stroke-width="2.00902"/>
<path d="M102.001 216.677C101.524 216.024 100.509 216.134 100.244 216.898C99.1397 220.075 97.5513 225.601 97.2773 229.736C97.2366 230.351 97.7768 230.821 98.3871 230.739C113.236 228.743 144.39 229.682 153.531 230.753C154.143 230.825 154.674 230.351 154.703 229.735C154.914 225.275 156.276 220.35 157.872 216.053C158.295 214.913 156.186 213.564 155.38 214.475C149.909 220.66 146.071 224.382 141.953 226.653C138.123 228.168 130.314 209.646 126.026 210.254C121.738 210.861 113.775 223.616 110.1 223.616C107.431 223.616 103.794 219.133 102.001 216.677Z" fill="#FCB93E" stroke="#503C3C" stroke-width="2.00902"/>
<path d="M167.68 226.656C170.254 251.771 175.03 298.936 187.281 291.647C181.307 286.72 170.683 245.649 167.68 226.656Z" fill="#2A5375" fill-opacity="0.5"/>
<path d="M56.2287 282.421C57.4864 285.978 62.5144 284.15 63.5457 283.141C66.5353 255.83 85.2906 221.162 94.8408 206.938C91.7231 206.608 93.5608 207.041 91.7231 206.434C83.0213 215.559 54.4755 271.799 56.1935 282.286C56.2013 282.334 56.2125 282.376 56.2287 282.421Z" fill="#775959" fill-opacity="0.5"/>
<path d="M126.638 208.434C97.0316 210.662 38.7983 200.174 42.7187 140.406C44.9766 156.387 63.4344 199.448 126.638 208.434Z" fill="#503C3C" fill-opacity="0.3"/>
<path d="M75.7965 215.112C42.9637 206.366 37.2055 169.962 41.4934 146.477C39.5333 180.491 68.0373 198.308 82.5344 202.964C78.2467 210.253 79.4718 207.823 75.7965 215.112Z" fill="#503C3C" fill-opacity="0.3" stroke="#503C3C" stroke-opacity="0.3" stroke-width="2.00902"/>
<path d="M226.486 140.406C228.446 174.42 197.492 195.274 182.995 199.931C192.382 219.414 209.029 264.425 211.172 281.322C214.235 278.892 210.559 224.227 201.371 207.827C225.477 183.165 228.325 151.23 226.486 140.406Z" fill="#503C3C" fill-opacity="0.3" stroke="#503C3C" stroke-opacity="0.3" stroke-width="2.00902"/>
<path d="M114.388 57.7964C112.428 52.4514 105.813 49.0904 102.75 48.0781C111.571 48.564 121.943 55.9743 125.414 59.6186C124.802 59.0112 120.759 57.7964 114.388 57.7964Z" fill="#503C3C" fill-opacity="0.3" stroke="#503C3C" stroke-opacity="0.3" stroke-width="2.00902"/>
<path d="M133.378 52.9388C131.418 47.5938 124.802 39.9811 121.739 38.9688C130.56 39.4547 143.383 54.1536 146.854 57.798C146.241 57.1906 140.116 54.761 133.378 52.9388Z" fill="#503C3C" fill-opacity="0.3" stroke="#503C3C" stroke-opacity="0.3" stroke-width="2.00902"/>
<path d="M109.487 228.476C102.627 227.99 87.4356 196.892 95.3988 209.647C103.362 222.402 108.907 225.41 110.713 224.832C115.899 223.436 122.98 211.491 126.026 211.469C129.073 211.447 136.685 227.869 141.953 227.869C147.22 227.869 156.041 213.899 162.779 206.61C145.628 235.765 141.953 229.691 138.89 229.691C135.827 229.691 130.927 221.188 126.026 213.899C116.226 223.01 116.348 228.962 109.487 228.476Z" fill="#503C3C" fill-opacity="0.3" stroke="#503C3C" stroke-opacity="0.3" stroke-width="2.00902"/>
<path d="M100.216 126.377C97.2154 135.991 91.6739 142.831 83.0798 140.194C75.0361 137.725 73.8084 128.809 76.8086 119.195C79.8089 109.581 84.8367 102.745 94.0247 104.566C101.988 106.997 103.216 116.763 100.216 126.377Z" fill="black"/>
<path d="M160.861 122.33C160.147 132.369 162.814 140.734 171.788 141.362C180.187 141.95 184.588 134.08 185.302 124.041C186.017 114.002 183.827 105.824 174.598 104.223C166.287 103.628 161.576 112.291 160.861 122.33Z" fill="black"/>
<path d="M67.6846 105.783C69.1139 97.8865 76.9954 84.0379 97.0871 91.8126" stroke="black" stroke-width="2.00902" stroke-linecap="round"/>
<path d="M192.084 107.186C191.173 99.2148 184.211 84.8898 163.654 91.3597" stroke="black" stroke-width="2.00902" stroke-linecap="round"/>
<mask id="path-24-inside-3_1481_12771" fill="white">
<ellipse cx="62.7847" cy="141.016" rx="1.2251" ry="1.21479"/>
</mask>
<ellipse cx="62.7847" cy="141.016" rx="1.2251" ry="1.21479" fill="black"/>
<path d="M64.0098 141.016H62.0008C62.0008 140.561 62.3678 140.221 62.7847 140.221V142.23V144.239C64.5548 144.239 66.0188 142.812 66.0188 141.016H64.0098ZM62.7847 142.23V140.221C63.2016 140.221 63.5686 140.561 63.5686 141.016H61.5596H59.5506C59.5506 142.812 61.0146 144.239 62.7847 144.239V142.23ZM61.5596 141.016H63.5686C63.5686 141.47 63.2016 141.81 62.7847 141.81V139.801V137.792C61.0146 137.792 59.5506 139.219 59.5506 141.016H61.5596ZM62.7847 139.801V141.81C62.3678 141.81 62.0008 141.47 62.0008 141.016H64.0098H66.0188C66.0188 139.219 64.5548 137.792 62.7847 137.792V139.801Z" fill="#503C3C" mask="url(#path-24-inside-3_1481_12771)"/>
<mask id="path-26-inside-4_1481_12771" fill="white">
<ellipse cx="1.2251" cy="1.21479" rx="1.2251" ry="1.21479" transform="matrix(-1 0 0 1 193.869 143.445)"/>
</mask>
<ellipse cx="1.2251" cy="1.21479" rx="1.2251" ry="1.21479" transform="matrix(-1 0 0 1 193.869 143.445)" fill="black"/>
<path d="M191.419 144.66H193.428C193.428 144.205 193.061 143.866 192.644 143.866V145.875V147.884C190.874 147.884 189.41 146.457 189.41 144.66H191.419ZM192.644 145.875V143.866C192.227 143.866 191.86 144.205 191.86 144.66H193.869H195.878C195.878 146.457 194.414 147.884 192.644 147.884V145.875ZM193.869 144.66H191.86C191.86 145.115 192.227 145.454 192.644 145.454V143.445V141.436C194.414 141.436 195.878 142.864 195.878 144.66H193.869ZM192.644 143.445V145.454C193.061 145.454 193.428 145.115 193.428 144.66H191.419H189.41C189.41 142.864 190.874 141.436 192.644 141.436V143.445Z" fill="#503C3C" mask="url(#path-26-inside-4_1481_12771)"/>
<mask id="path-28-inside-5_1481_12771" fill="white">
<ellipse cx="65.2349" cy="153.16" rx="1.2251" ry="1.21479"/>
</mask>
<ellipse cx="65.2349" cy="153.16" rx="1.2251" ry="1.21479" fill="black"/>
<path d="M66.46 153.16H64.451C64.451 152.705 64.818 152.366 65.2349 152.366V154.375V156.384C67.005 156.384 68.469 154.957 68.469 153.16H66.46ZM65.2349 154.375V152.366C65.6518 152.366 66.0188 152.705 66.0188 153.16H64.0098H62.0007C62.0007 154.957 63.4648 156.384 65.2349 156.384V154.375ZM64.0098 153.16H66.0188C66.0188 153.615 65.6518 153.954 65.2349 153.954V151.945V149.936C63.4648 149.936 62.0007 151.364 62.0007 153.16H64.0098ZM65.2349 151.945V153.954C64.818 153.954 64.451 153.615 64.451 153.16H66.46H68.469C68.469 151.364 67.005 149.936 65.2349 149.936V151.945Z" fill="#503C3C" mask="url(#path-28-inside-5_1481_12771)"/>
<mask id="path-30-inside-6_1481_12771" fill="white">
<ellipse cx="1.2251" cy="1.21479" rx="1.2251" ry="1.21479" transform="matrix(-1 0 0 1 191.42 155.59)"/>
</mask>
<ellipse cx="1.2251" cy="1.21479" rx="1.2251" ry="1.21479" transform="matrix(-1 0 0 1 191.42 155.59)" fill="black"/>
<path d="M188.97 156.805H190.979C190.979 156.35 190.612 156.01 190.195 156.01V158.019V160.028C188.425 160.028 186.961 158.601 186.961 156.805H188.97ZM190.195 158.019V156.01C189.778 156.01 189.411 156.35 189.411 156.805H191.42H193.429C193.429 158.601 191.965 160.028 190.195 160.028V158.019ZM191.42 156.805H189.411C189.411 157.259 189.778 157.599 190.195 157.599V155.59V153.581C191.965 153.581 193.429 155.008 193.429 156.805H191.42ZM190.195 155.59V157.599C190.612 157.599 190.979 157.259 190.979 156.805H188.97H186.961C186.961 155.008 188.425 153.581 190.195 153.581V155.59Z" fill="#503C3C" mask="url(#path-30-inside-6_1481_12771)"/>
<mask id="path-32-inside-7_1481_12771" fill="white">
<ellipse cx="73.811" cy="142.227" rx="1.2251" ry="1.21479"/>
</mask>
<ellipse cx="73.811" cy="142.227" rx="1.2251" ry="1.21479" fill="black"/>
<path d="M75.0361 142.227H73.0271C73.0271 141.772 73.3941 141.432 73.811 141.432V143.441V145.45C75.5812 145.45 77.0452 144.023 77.0452 142.227H75.0361ZM73.811 143.441V141.432C74.2279 141.432 74.595 141.772 74.595 142.227H72.5859H70.5769C70.5769 144.023 72.0409 145.45 73.811 145.45V143.441ZM72.5859 142.227H74.595C74.595 142.681 74.2279 143.021 73.811 143.021V141.012V139.003C72.0409 139.003 70.5769 140.43 70.5769 142.227H72.5859ZM73.811 141.012V143.021C73.3941 143.021 73.0271 142.681 73.0271 142.227H75.0361H77.0452C77.0452 140.43 75.5812 139.003 73.811 139.003V141.012Z" fill="#503C3C" mask="url(#path-32-inside-7_1481_12771)"/>
<mask id="path-34-inside-8_1481_12771" fill="white">
<ellipse cx="1.2251" cy="1.21479" rx="1.2251" ry="1.21479" transform="matrix(-1 0 0 1 182.844 144.656)"/>
</mask>
<ellipse cx="1.2251" cy="1.21479" rx="1.2251" ry="1.21479" transform="matrix(-1 0 0 1 182.844 144.656)" fill="black"/>
<path d="M180.394 145.871H182.403C182.403 145.416 182.036 145.077 181.619 145.077V147.086V149.095C179.849 149.095 178.385 147.667 178.385 145.871H180.394ZM181.619 147.086V145.077C181.202 145.077 180.835 145.416 180.835 145.871H182.844H184.853C184.853 147.667 183.389 149.095 181.619 149.095V147.086ZM182.844 145.871H180.835C180.835 146.326 181.202 146.665 181.619 146.665V144.656V142.647C183.389 142.647 184.853 144.075 184.853 145.871H182.844ZM181.619 144.656V146.665C182.036 146.665 182.403 146.326 182.403 145.871H180.394H178.385C178.385 144.075 179.849 142.647 181.619 142.647V144.656Z" fill="#503C3C" mask="url(#path-34-inside-8_1481_12771)"/>
<path d="M110.639 134.689C109.979 135.081 108.658 136.483 108.658 138.944C108.658 141.406 117.594 148.962 122.062 152.432L137.646 140.647C138.526 139.49 139.759 136.849 137.646 135.54C135.005 133.903 120.94 129.647 110.639 134.689Z" fill="#DB867D"/>
<path d="M122.202 152.554C117.302 149.112 107.746 141.378 108.726 137.977M122.202 152.554L137.516 140.406M122.202 152.554V159.235M122.202 159.235L117.915 164.095M122.202 159.235L127.103 164.095" stroke="black" stroke-width="2.00902" stroke-linecap="round"/>
<path d="M110.564 134.33C114.648 132.508 125.756 130.2 137.517 135.545" stroke="black" stroke-width="2.00902" stroke-linecap="round"/>
</g>
<defs>
<linearGradient id="paint0_linear_1481_12771" x1="143.037" y1="0.5625" x2="143.037" y2="309.127" gradientUnits="userSpaceOnUse">
<stop stop-color="#E22F13"/>
<stop offset="1" stop-color="#F86833"/>
</linearGradient>
<linearGradient id="paint1_linear_1481_12771" x1="143.037" y1="0.5625" x2="143.037" y2="309.127" gradientUnits="userSpaceOnUse">
<stop stop-color="#F86833"/>
<stop offset="1" stop-color="#E22F13"/>
</linearGradient>
<linearGradient id="paint2_linear_1481_12771" x1="143.037" y1="1" x2="143.037" y2="475.004" gradientUnits="userSpaceOnUse">
<stop stop-color="#C0DA92"/>
<stop offset="1" stop-color="#005B43"/>
</linearGradient>
<linearGradient id="paint3_linear_1481_12771" x1="143.037" y1="1" x2="143.037" y2="475.004" gradientUnits="userSpaceOnUse">
<stop stop-color="#A9BE83"/>
<stop offset="1" stop-color="#106D54"/>
</linearGradient>
<linearGradient id="paint4_linear_1481_12771" x1="143.037" y1="0.894531" x2="143.037" y2="309.671" gradientUnits="userSpaceOnUse">
<stop stop-color="#E29377"/>
<stop offset="1" stop-color="#93564D"/>
</linearGradient>
<radialGradient id="paint5_radial_1481_12771" cx="0" cy="0" r="1" gradientUnits="userSpaceOnUse" gradientTransform="translate(143.037 155.281) rotate(90) scale(154.719 123.426)">
<stop stop-color="#666666"/>
<stop offset="1"/>
</radialGradient>
</defs>
</svg>
