<svg width="149" height="62" viewBox="0 0 149 62" fill="none" xmlns="http://www.w3.org/2000/svg">
<g filter="url(#filter0_d_760_1161)">
<mask id="path-1-inside-1_760_1161" fill="white">
<path fill-rule="evenodd" clip-rule="evenodd" d="M12.5933 60.7284L11.1044 57.2109L9.58864 60.792H4C2.34314 60.792 1 59.4488 1 57.792V2.99992C1 1.34306 2.34314 -8.39233e-05 4 -8.39233e-05H97.3987L98.7165 3.0293L100.014 0.0458832L101.069 2.53711L102.143 -8.39233e-05H136.082L137.123 2.29297L138.111 0.115738L139.37 3.03022L140.679 -8.39233e-05H145C146.657 -8.39233e-05 148 1.34306 148 2.99992V57.792C148 59.4488 146.657 60.792 145 60.792H70.7629L69.2471 57.2109L67.9776 60.2101L67.004 58.0107L65.7729 60.792H14.8421L13.7034 58.2559L12.5933 60.7284Z"/>
</mask>
<path fill-rule="evenodd" clip-rule="evenodd" d="M12.5933 60.7284L11.1044 57.2109L9.58864 60.792H4C2.34314 60.792 1 59.4488 1 57.792V2.99992C1 1.34306 2.34314 -8.39233e-05 4 -8.39233e-05H97.3987L98.7165 3.0293L100.014 0.0458832L101.069 2.53711L102.143 -8.39233e-05H136.082L137.123 2.29297L138.111 0.115738L139.37 3.03022L140.679 -8.39233e-05H145C146.657 -8.39233e-05 148 1.34306 148 2.99992V57.792C148 59.4488 146.657 60.792 145 60.792H70.7629L69.2471 57.2109L67.9776 60.2101L67.004 58.0107L65.7729 60.792H14.8421L13.7034 58.2559L12.5933 60.7284Z" fill="#373737"/>
<path d="M12.5933 60.7284L11.6724 61.1182L12.5663 63.23L13.5056 61.138L12.5933 60.7284ZM11.1044 57.2109L12.0253 56.8211L11.1044 54.6455L10.1835 56.8211L11.1044 57.2109ZM9.58864 60.792V61.792H10.2513L10.5095 61.1818L9.58864 60.792ZM97.3987 -8.39233e-05L98.3157 -0.398975L98.0542 -1.00008H97.3987V-8.39233e-05ZM98.7165 3.0293L97.7995 3.42819L98.7165 5.53625L99.6335 3.42819L98.7165 3.0293ZM100.014 0.0458832L100.935 -0.343916L100.027 -2.48991L99.0973 -0.353008L100.014 0.0458832ZM101.069 2.53711L100.148 2.92691L101.069 5.10254L101.99 2.92691L101.069 2.53711ZM102.143 -8.39233e-05V-1.00008H101.48L101.222 -0.389882L102.143 -8.39233e-05ZM136.082 -8.39233e-05L136.993 -0.413355L136.727 -1.00008H136.082V-8.39233e-05ZM137.123 2.29297L136.212 2.70624L137.123 4.71269L138.034 2.70624L137.123 2.29297ZM138.111 0.115738L139.029 -0.280844L138.134 -2.35364L137.201 -0.297534L138.111 0.115738ZM139.37 3.03022L138.452 3.4268L139.37 5.55176L140.288 3.4268L139.37 3.03022ZM140.679 -8.39233e-05V-1.00008H140.022L139.761 -0.396666L140.679 -8.39233e-05ZM70.7629 60.792L69.842 61.1818L70.1003 61.792H70.7629V60.792ZM69.2471 57.2109L70.168 56.8211L69.2471 54.6455L68.3262 56.8211L69.2471 57.2109ZM67.9776 60.2101L67.0632 60.6149L67.9981 62.727L68.8985 60.5999L67.9776 60.2101ZM67.004 58.0107L67.9185 57.606L67.004 55.5402L66.0896 57.606L67.004 58.0107ZM65.7729 60.792V61.792H66.4238L66.6873 61.1968L65.7729 60.792ZM14.8421 60.792L13.9298 61.2016L14.1949 61.792H14.8421V60.792ZM13.7034 58.2559L14.6157 57.8463L13.7034 55.8144L12.7912 57.8463L13.7034 58.2559ZM13.5142 60.3386L12.0253 56.8211L10.1835 57.6007L11.6724 61.1182L13.5142 60.3386ZM10.1835 56.8211L8.66774 60.4022L10.5095 61.1818L12.0253 57.6007L10.1835 56.8211ZM9.58864 59.792H4V61.792H9.58864V59.792ZM4 59.792C2.89543 59.792 2 58.8966 2 57.792H0C0 60.0011 1.79085 61.792 4 61.792V59.792ZM2 57.792V2.99992H0V57.792H2ZM2 2.99992C2 1.89535 2.89543 0.999916 4 0.999916V-1.00008C1.79085 -1.00008 0 0.79078 0 2.99992H2ZM4 0.999916H97.3987V-1.00008H4V0.999916ZM96.4817 0.398807L97.7995 3.42819L99.6335 2.63041L98.3157 -0.398975L96.4817 0.398807ZM99.6335 3.42819L100.931 0.444774L99.0973 -0.353008L97.7995 2.63041L99.6335 3.42819ZM99.0934 0.435682L100.148 2.92691L101.99 2.14731L100.935 -0.343916L99.0934 0.435682ZM101.99 2.92691L103.064 0.389714L101.222 -0.389882L100.148 2.14731L101.99 2.92691ZM102.143 0.999916H136.082V-1.00008H102.143V0.999916ZM135.172 0.413187L136.212 2.70624L138.034 1.8797L136.993 -0.413355L135.172 0.413187ZM138.034 2.70624L139.022 0.529009L137.201 -0.297534L136.212 1.8797L138.034 2.70624ZM137.193 0.51232L138.452 3.4268L140.288 2.63363L139.029 -0.280844L137.193 0.51232ZM140.288 3.4268L141.597 0.396498L139.761 -0.396666L138.452 2.63363L140.288 3.4268ZM140.679 0.999916H145V-1.00008H140.679V0.999916ZM145 0.999916C146.105 0.999916 147 1.89535 147 2.99992H149C149 0.79078 147.209 -1.00008 145 -1.00008V0.999916ZM147 2.99992V57.792H149V2.99992H147ZM147 57.792C147 58.8966 146.105 59.792 145 59.792V61.792C147.209 61.792 149 60.0011 149 57.792H147ZM145 59.792H70.7629V61.792H145V59.792ZM71.6838 60.4022L70.168 56.8211L68.3262 57.6007L69.842 61.1818L71.6838 60.4022ZM68.3262 56.8211L67.0567 59.8203L68.8985 60.5999L70.168 57.6007L68.3262 56.8211ZM68.892 59.8053L67.9185 57.606L66.0896 58.4155L67.0632 60.6149L68.892 59.8053ZM66.0896 57.606L64.8585 60.3872L66.6873 61.1968L67.9185 58.4155L66.0896 57.606ZM65.7729 59.792H14.8421V61.792H65.7729V59.792ZM15.7544 60.3824L14.6157 57.8463L12.7912 58.6655L13.9298 61.2016L15.7544 60.3824ZM12.7912 57.8463L11.681 60.3188L13.5056 61.138L14.6157 58.6655L12.7912 57.8463Z" fill="black" mask="url(#path-1-inside-1_760_1161)"/>
</g>
<defs>
<filter id="filter0_d_760_1161" x="0.49128" y="0" width="148.017" height="61.8094" filterUnits="userSpaceOnUse" color-interpolation-filters="sRGB">
<feFlood flood-opacity="0" result="BackgroundImageFix"/>
<feColorMatrix in="SourceAlpha" type="matrix" values="0 0 0 0 0 0 0 0 0 0 0 0 0 0 0 0 0 0 127 0" result="hardAlpha"/>
<feOffset dy="0.50872"/>
<feGaussianBlur stdDeviation="0.25436"/>
<feComposite in2="hardAlpha" operator="out"/>
<feColorMatrix type="matrix" values="0 0 0 0 0 0 0 0 0 0 0 0 0 0 0 0 0 0 0.25 0"/>
<feBlend mode="normal" in2="BackgroundImageFix" result="effect1_dropShadow_760_1161"/>
<feBlend mode="normal" in="SourceGraphic" in2="effect1_dropShadow_760_1161" result="shape"/>
</filter>
</defs>
</svg>
