<svg width="95" height="120" viewBox="0 0 95 120" fill="none" xmlns="http://www.w3.org/2000/svg">
<path fill-rule="evenodd" clip-rule="evenodd" d="M69.9739 89.4612L69.9739 119.777L0.503299 59.999L69.9739 0.220634L69.9739 30.538C55.0584 32.4409 43.5411 44.906 43.5411 59.9996C43.5411 75.0932 55.0584 87.5582 69.9739 89.4612Z" fill="#583311"/>
<path fill-rule="evenodd" clip-rule="evenodd" d="M52.7156 60.202C63.6928 56.6391 71.6098 46.5234 71.6098 34.6009C71.6098 34.2453 71.6027 33.8913 71.5888 33.5391C84.8443 35.5114 95.0005 46.6972 95.0005 60.2009C95.0005 73.7045 84.8444 84.8902 71.5889 86.8626C71.6028 86.5111 71.6098 86.1579 71.6098 85.803C71.6098 73.8805 63.6928 63.7649 52.7156 60.202Z" fill="#583311"/>
</svg>
