<svg width="305" height="274" viewBox="0 0 305 274" fill="none" xmlns="http://www.w3.org/2000/svg">
<rect x="264.474" y="102.84" width="105.802" height="205.042" rx="8.20283" transform="rotate(105 264.474 102.84)" stroke="#A88771" stroke-width="4.47427" stroke-dasharray="8.95 8.95"/>
<rect opacity="0.5" width="105.802" height="205.042" rx="8.20283" transform="matrix(0.153396 0.988165 0.988165 -0.153396 49.2344 94.9453)" stroke="#A88771" stroke-width="4.47427" stroke-dasharray="8.95 8.95"/>
<path d="M100.409 186.246L50.7976 176.48L34.3906 219.452L92.2053 202.655V196.795L100.409 186.246Z" fill="#FEEDD5"/>
<path d="M36.8158 107.633L30.2408 128.787C28.3882 134.747 29.5813 141.238 33.4326 146.15L67.8231 190.011C75.8336 200.228 91.5031 199.58 98.6433 188.737L100.26 186.283C102.755 182.494 103.812 177.938 103.24 173.437L97.3136 126.817C96.6256 121.405 93.6445 116.55 89.1294 113.488L65.6238 97.5475C55.0697 90.3902 40.6008 95.4557 36.8158 107.633Z" fill="#FEEDD5"/>
<path d="M267.563 107.665L277.534 129.819C279.944 135.173 279.743 141.34 276.99 146.525L247.835 201.446C240.674 214.935 221.23 214.699 214.13 201.178L206.807 185.371C205.306 182.13 204.748 178.532 205.199 174.989L211.327 126.777C212.012 121.388 214.971 116.551 219.455 113.486L239.517 99.7756C249.283 93.1012 262.709 96.8776 267.563 107.665Z" fill="#FEEDD5"/>
<path d="M21.6859 240.183C23.087 231.075 17.9901 223.28 13.8939 217.017C12.5166 214.91 11.2148 212.919 10.3748 211.183C7.16292 204.545 3.34668 168.125 3.34668 163.424C3.34668 158.631 10.3828 145.671 13.0315 140.791C14.7337 137.656 16.9172 132.916 19.229 127.898C22.7978 120.153 26.8423 111.375 30.4553 105.487C34.9768 98.1181 45.0446 94.6769 48.9851 93.5752V95.2697C40.2819 98.4068 39.5998 110.028 39.287 115.445C39.062 119.349 37.731 123.031 36.5569 126.278C35.5666 129.017 34.6962 131.431 34.5349 133.663C32.7892 133.753 29.7087 133.974 27.9132 134.463L28.448 136.425C30.0303 135.994 32.9011 135.786 34.5783 135.697C34.7156 137.31 35.0424 139.813 35.439 142.843C35.6954 144.801 36.0264 147.333 36.3435 150.026C33.4717 149.295 26.3395 147.539 21.1709 146.75L20.8638 148.76C26.4873 149.618 34.5159 151.652 36.5905 152.188C37.3275 158.871 37.8411 165.866 36.8488 167.266C35.7984 168.749 34.7553 171.818 33.435 175.704C32.696 177.878 31.8588 180.335 30.9039 182.846C28.8031 185.003 25.3144 188.246 23.1969 188.861L23.7634 190.813C25.338 190.356 27.2778 188.947 29.0246 187.439C27.6406 190.549 26.0467 193.532 24.1942 195.952L26.3466 197.6C30.861 191.703 33.8321 182.96 36.0016 176.576C37.2022 173.044 38.2387 169.995 39.0607 168.834C41.0264 166.059 39.8583 155.719 38.1269 142.491C37.6623 138.94 37.2605 135.873 37.2201 134.581C37.1579 132.589 38.0606 130.092 39.1064 127.2C40.0131 124.692 41.0044 121.936 41.5692 118.952C41.6679 118.91 41.7573 118.874 41.8676 118.827C44.8963 117.548 54.1118 113.656 59.5714 114.826C59.7998 114.874 60.04 114.822 60.228 114.682C60.416 114.542 60.5344 114.327 60.5523 114.093L61.4478 102.454C61.4531 102.39 61.4504 102.326 61.4399 102.263C61.2764 101.241 60.7426 99.7811 59.7042 98.5007C65.0529 101.213 67.5828 107.696 70.0446 114.017C70.4748 115.121 70.8957 116.202 71.3232 117.235C73.4888 122.47 71.8302 130.076 70.2265 137.431C69.3138 141.614 68.4528 145.564 68.2377 149.167C67.6288 159.358 81.5051 173.456 82.8771 174.823C99.3618 198.314 86.138 237.377 81.0603 243.84C76.7375 249.342 70.2829 266.001 68.3982 271.001C68.1029 271.784 67.9159 272.291 67.8709 272.414L70.4151 273.348C70.4952 273.131 78.4552 251.543 83.1914 245.515C85.9057 242.061 90.7101 229.987 92.6731 216.303C93.4701 210.745 93.9222 204.121 93.2952 197.286C96.0489 195.867 98.5645 193.159 100.431 191.135C101.298 190.193 102.118 189.303 102.646 188.9C104.55 187.443 105.685 181.784 106.143 178.956H199.387C199.846 181.784 200.98 187.443 202.883 188.9C203.412 189.304 204.232 190.194 205.101 191.135C206.967 193.159 209.482 195.867 212.235 197.286C211.608 204.121 212.06 210.745 212.858 216.303C214.821 229.987 219.625 242.061 222.339 245.515C227.075 251.543 235.035 273.131 235.116 273.348L237.66 272.414C237.638 272.354 237.582 272.202 237.498 271.976C236.305 268.766 229.142 249.785 224.47 243.84C219.393 237.377 206.169 198.314 222.654 174.823C224.025 173.456 237.901 159.358 237.293 149.167C237.078 145.564 236.217 141.613 235.304 137.431C233.7 130.075 232.042 122.47 234.207 117.235C234.634 116.203 235.055 115.123 235.485 114.02C237.947 107.697 240.477 101.213 245.827 98.5004C244.788 99.7809 244.254 101.241 244.091 102.263C244.08 102.326 244.078 102.39 244.083 102.453L244.978 114.093C244.996 114.327 245.114 114.542 245.302 114.682C245.49 114.823 245.73 114.875 245.959 114.826C251.424 113.656 260.634 117.548 263.663 118.827C263.773 118.873 263.862 118.91 263.961 118.952C264.526 121.936 265.517 124.691 266.424 127.199C267.469 130.091 268.372 132.589 268.31 134.581C268.27 135.874 267.868 138.943 267.403 142.496C265.672 155.722 264.504 166.059 266.47 168.834C267.292 169.995 268.328 173.044 269.529 176.576C271.699 182.96 274.67 191.703 279.184 197.6L281.336 195.952C279.484 193.532 277.89 190.549 276.506 187.439C278.253 188.947 280.193 190.356 281.767 190.813L282.334 188.861C280.219 188.247 276.728 185.003 274.626 182.845C273.672 180.334 272.834 177.877 272.096 175.704C270.775 171.818 269.732 168.749 268.682 167.266C267.69 165.866 268.204 158.871 268.94 152.188C271.015 151.652 279.043 149.618 284.666 148.76L284.359 146.75C279.191 147.539 272.059 149.295 269.188 150.026C269.504 147.335 269.835 144.804 270.091 142.848C270.488 139.815 270.814 137.311 270.952 135.697C272.629 135.786 275.5 135.994 277.083 136.425L277.618 134.464C275.822 133.974 272.741 133.753 270.995 133.663C270.834 131.43 269.963 129.016 268.973 126.277C267.799 123.03 266.468 119.349 266.243 115.445C265.931 110.026 265.271 98.3908 256.546 95.2631V93.5754C260.486 94.6771 270.553 98.1183 275.075 105.488C278.688 111.374 282.732 120.152 286.3 127.897C288.613 132.915 290.797 137.656 292.499 140.792C295.148 145.671 302.184 158.634 302.184 163.424C302.184 168.125 298.368 204.545 295.156 211.183C294.316 212.92 293.014 214.91 291.636 217.017C287.541 223.281 282.443 231.075 283.845 240.183C285.474 250.776 291.714 267.572 293.069 271.144C293.205 271.5 293.293 271.729 293.321 271.803L295.849 270.826C295.774 270.63 288.272 251.13 286.524 239.771C285.28 231.69 290.063 224.377 293.905 218.501C295.333 216.319 296.68 214.258 297.597 212.363C301.038 205.251 304.895 168.296 304.895 163.424C304.895 158.597 299.833 148.62 294.882 139.498C293.222 136.44 291.056 131.739 288.762 126.762C285.163 118.949 281.083 110.094 277.387 104.07C271.999 95.2908 260.193 91.69 256.546 90.7612V85.6029C256.546 80.8441 252.674 76.9727 247.915 76.9727H57.6149C52.8562 76.9727 48.9851 80.8441 48.9851 85.6028V90.7611C45.338 91.69 33.5313 95.2907 28.1441 104.07C24.447 110.094 20.3667 118.95 16.7669 126.764C14.4743 131.74 12.3087 136.44 10.6488 139.498C5.6976 148.619 0.635742 158.594 0.635742 163.424C0.635742 168.296 4.49299 205.251 7.93398 212.363C8.85061 214.258 10.1982 216.319 11.6251 218.501C15.4678 224.377 20.2497 231.69 19.0067 239.771C17.2588 251.13 9.75607 270.63 9.68063 270.826L12.2089 271.803C12.2334 271.74 12.3054 271.552 12.4099 271.277C13.6443 268.033 20.0336 250.924 21.6859 240.183ZM58.9989 113.082C53.3855 112.385 45.5135 115.533 41.861 117.065C41.918 116.582 41.9655 116.095 41.994 115.601C42.0541 114.559 42.1308 113.527 42.2293 112.512C42.9673 108.632 43.6881 105.425 44.2767 103.434C45.0326 101.734 46.0369 100.297 47.3706 99.2291C48.9166 98.1607 51.0088 97.3738 53.5479 97.3738C53.7094 97.3738 53.8742 97.3772 54.0397 97.3837C58.6554 97.5658 59.682 101.757 59.8183 102.434L58.9989 113.082ZM88.4336 178.956H103.393C102.738 182.747 101.693 186.216 101 186.746C100.284 187.293 99.4286 188.222 98.4372 189.297C96.934 190.928 94.9727 193.041 92.9586 194.352C92.2389 189.147 90.8365 183.893 88.4336 178.956ZM212.572 194.352C210.558 193.041 208.597 190.928 207.094 189.298C206.102 188.223 205.246 187.293 204.531 186.746C203.837 186.216 202.793 182.747 202.137 178.956H217.097C214.694 183.893 213.292 189.147 212.572 194.352ZM248.231 112.983C247.647 112.983 247.078 113.014 246.531 113.082L245.712 102.432C245.845 101.749 246.849 97.5667 251.491 97.3837C254.26 97.2712 256.525 98.097 258.172 99.2405C259.509 100.319 260.514 101.77 261.27 103.487C261.854 105.479 262.568 108.659 263.299 112.502C263.399 113.52 263.476 114.555 263.536 115.601C263.565 116.095 263.612 116.582 263.669 117.065C260.371 115.681 253.638 112.983 248.231 112.983Z" fill="#583311"/>
<path d="M263.741 127.406L264.152 125.832C258.018 124.232 248.829 124.832 248.441 124.858L248.551 126.481C248.645 126.475 257.866 125.874 263.741 127.406Z" fill="#583311"/>
<path d="M252.094 129.152L252.285 130.767C252.341 130.761 257.954 130.125 264.362 131.492L264.701 129.902C258.017 128.475 252.333 129.124 252.094 129.152Z" fill="#583311"/>
<path d="M254.275 142.578C257.587 143.372 261.7 143.705 264.568 143.844L264.646 142.219C261.848 142.084 257.843 141.762 254.655 140.996L254.275 142.578Z" fill="#583311"/>
<path d="M41.3789 125.831L41.7893 127.405C47.6652 125.873 56.8867 126.475 56.9794 126.481L57.0892 124.858C56.702 124.832 47.5129 124.232 41.3789 125.831Z" fill="#583311"/>
<path d="M40.8291 129.902L41.168 131.492C47.5767 130.124 53.1891 130.76 53.2454 130.767L53.4366 129.152C53.1977 129.124 47.5137 128.475 40.8291 129.902Z" fill="#583311"/>
<path d="M40.8848 142.219L40.9628 143.844C43.8306 143.705 47.944 143.372 51.2546 142.578L50.8747 140.996C47.6872 141.761 43.6824 142.084 40.8848 142.219Z" fill="#583311"/>
<path d="M145.053 140.664C142.803 140.664 140.863 140.131 139.234 139.064C137.605 137.998 136.352 136.486 135.473 134.529C134.605 132.561 134.172 130.229 134.172 127.533V127.498C134.172 124.803 134.605 122.477 135.473 120.52C136.352 118.551 137.605 117.039 139.234 115.984C140.863 114.918 142.803 114.385 145.053 114.385C147.303 114.385 149.236 114.918 150.854 115.984C152.482 117.039 153.73 118.551 154.598 120.52C155.477 122.477 155.916 124.803 155.916 127.498V127.533C155.916 130.229 155.477 132.561 154.598 134.529C153.73 136.486 152.482 137.998 150.854 139.064C149.236 140.131 147.303 140.664 145.053 140.664ZM145.053 135.619C145.979 135.619 146.764 135.303 147.408 134.67C148.064 134.037 148.557 133.123 148.885 131.928C149.225 130.721 149.395 129.256 149.395 127.533V127.498C149.395 125.775 149.225 124.316 148.885 123.121C148.557 121.926 148.064 121.012 147.408 120.379C146.764 119.746 145.979 119.43 145.053 119.43C144.127 119.43 143.336 119.746 142.68 120.379C142.035 121.012 141.543 121.926 141.203 123.121C140.863 124.316 140.693 125.775 140.693 127.498V127.533C140.693 129.256 140.863 130.721 141.203 131.928C141.543 133.123 142.035 134.037 142.68 134.67C143.336 135.303 144.127 135.619 145.053 135.619ZM164.941 126.619C163.652 126.619 162.539 126.385 161.601 125.916C160.664 125.447 159.943 124.768 159.439 123.877C158.947 122.986 158.701 121.902 158.701 120.625V120.607C158.701 119.354 158.953 118.281 159.457 117.391C159.972 116.488 160.699 115.803 161.636 115.334C162.574 114.854 163.675 114.613 164.941 114.613C166.218 114.613 167.32 114.848 168.246 115.316C169.183 115.785 169.91 116.471 170.425 117.373C170.941 118.264 171.199 119.342 171.199 120.607V120.625C171.199 121.902 170.947 122.986 170.443 123.877C169.939 124.768 169.218 125.447 168.281 125.916C167.355 126.385 166.242 126.619 164.941 126.619ZM164.941 123.42C165.539 123.42 166.013 123.18 166.365 122.699C166.716 122.207 166.892 121.516 166.892 120.625V120.607C166.892 119.717 166.716 119.031 166.365 118.551C166.013 118.059 165.539 117.812 164.941 117.812C164.355 117.812 163.88 118.059 163.517 118.551C163.166 119.031 162.99 119.717 162.99 120.607V120.625C162.99 121.527 163.16 122.219 163.5 122.699C163.851 123.18 164.332 123.42 164.941 123.42Z" fill="#E3CDB5"/>
<path d="M136.471 39.9742C135.756 40.2496 135.4 41.0525 135.675 41.7675C135.951 42.4825 136.754 42.8389 137.469 42.5635L136.471 39.9742ZM198.87 48.3409C199.625 48.2079 200.129 47.4885 199.996 46.7338L197.83 34.4367C197.697 33.6821 196.977 33.1781 196.223 33.311C195.468 33.4439 194.964 34.1634 195.097 34.918L197.022 45.8488L186.092 47.7741C185.337 47.907 184.833 48.6265 184.966 49.3811C185.099 50.1357 185.818 50.6397 186.573 50.5068L198.87 48.3409ZM136.97 41.2688L137.469 42.5635C143.068 40.4067 152.884 38.0661 163.966 38.1448C175.042 38.2235 187.278 40.7166 197.833 48.1108L198.629 46.9745L199.425 45.8382C188.276 38.0279 175.436 35.4515 163.986 35.3701C152.542 35.2888 142.381 37.6976 136.471 39.9742L136.97 41.2688Z" fill="#583311"/>
<path d="M133.338 31.1915C139.105 27.4435 150.094 24.0568 158.332 25.1708" stroke="#A88771" stroke-width="2.77477" stroke-linecap="round"/>
<path d="M152.864 50.8764C156.714 49.1343 163.194 47.5383 171.623 49.1288" stroke="#A88771" stroke-width="2.77477" stroke-linecap="round"/>
<path d="M181.064 215.047C181.767 214.741 182.087 213.923 181.78 213.221C181.474 212.518 180.656 212.198 179.954 212.505L181.064 215.047ZM118.357 209.442C117.609 209.608 117.138 210.35 117.304 211.098L120.01 223.287C120.176 224.035 120.917 224.507 121.665 224.341C122.413 224.175 122.885 223.434 122.719 222.686L120.313 211.85L131.148 209.445C131.896 209.279 132.368 208.538 132.202 207.79C132.036 207.042 131.295 206.57 130.547 206.736L118.357 209.442ZM180.509 213.776L179.954 212.505C174.455 214.906 164.752 217.678 153.677 218.088C142.609 218.498 130.275 216.548 119.403 209.626L118.658 210.797L117.913 211.967C129.397 219.278 142.337 221.285 153.78 220.861C165.216 220.437 175.261 217.583 181.064 215.047L180.509 213.776Z" fill="#583311"/>
<path d="M184.582 223.683C178.987 227.682 168.157 231.551 159.878 230.801" stroke="#A88771" stroke-width="2.77477" stroke-linecap="round"/>
<path d="M164.206 204.877C160.437 206.788 154.034 208.668 145.543 207.451" stroke="#A88771" stroke-width="2.77477" stroke-linecap="round"/>
</svg>
