<svg width="169" height="135" viewBox="0 0 169 135" fill="none" xmlns="http://www.w3.org/2000/svg">
<g clip-path="url(#clip0_1686_3360)">
<path opacity="0.6" d="M168.087 30.4777L167.908 29.1577L167.285 27.9802C165.747 25.0852 165.14 23.6752 164.915 23.0752V21.7027L163.775 19.8802C158.742 11.8102 149.765 7.72266 137.09 7.72266H129.657C127.775 7.72266 125.787 8.26266 122.548 9.65766L121.003 10.3252C117.103 8.59266 112.228 7.72266 106.167 7.72266C104.817 7.72266 103.4 7.81266 101.938 7.99266C98.9675 7.81266 96.1025 7.72266 93.4025 7.72266H81.1175V19.4452L84.3425 21.6802C85.2275 22.2952 85.85 22.7752 86.285 23.1277V28.8427C86.285 29.5627 86.345 30.2527 86.4575 30.9052L86.285 31.7227V34.9252C81.1025 24.6352 70.295 14.9002 47.945 14.9002H44.66L34.655 15.9802C31.1975 16.7377 27.995 17.8627 25.055 19.3627C21.77 17.5927 18.665 16.7302 15.6425 16.7302H8.1425V62.0227L15.5975 72.1027C19.01 65.4352 22.745 58.2727 27.2375 52.5052L27.125 61.5877L25.82 88.3027C24.4175 86.5552 23 84.6952 21.56 82.7227L8 64.1452V132.44H15.5C18.785 132.44 22.4225 131.413 26.765 129.245C31.7075 131.195 35.57 132.74 38.2775 133.858L39.83 134.495L41.51 134.413C51.6425 133.91 61.37 132.643 70.43 130.663L73.1675 130.063L74.84 127.813C74.9825 127.625 75.1025 127.468 75.2075 127.355C85.1 126.71 91.5725 117.913 94.4525 101.173L94.565 100.543V99.9052C94.565 93.1552 92.4875 86.0527 88.4 78.7927L86.2475 74.9752H84.1475L83.87 74.6827C82.8125 73.5652 81.6875 72.5377 80.495 71.6077C83.03 69.2152 85.025 66.4477 86.4875 63.3277H87.65L88.5575 63.6802L90.11 63.6202C93.6425 63.4852 96.185 63.2527 98.09 62.9602C98.87 63.2002 99.71 63.3277 100.587 63.3277H114.98C117.042 63.3277 119.277 63.4177 121.61 63.6052L122.24 63.6577L122.862 63.6052C123.575 63.5452 124.655 63.4477 125.87 63.2152C129.035 63.2377 132.005 63.3427 134.697 63.5302L134.96 63.5452H135.222C140.36 63.5452 145.775 62.6902 151.318 61.0102C153.762 60.4552 155.622 58.7002 157.82 56.1877C160.28 55.3102 163.04 53.4052 165.155 49.4227C166.85 46.2277 167.975 41.9302 168.597 36.2902L168.643 35.8777V35.4652C168.643 34.8427 168.605 34.1227 168.103 30.4702L168.087 30.4777ZM39.14 88.0327C39.98 87.1102 41.39 86.2777 43.235 85.6177C56.9225 86.2102 56.9225 92.0077 56.9225 95.5102V99.0277C56.9225 102.118 56.9225 105.965 46.6925 105.965C46.3475 105.965 45.9875 105.965 45.6275 105.95C41.4575 104.015 36.98 100.565 32.225 95.6377L39.14 88.0327ZM43.955 41.2552C52.6025 41.8552 52.6025 44.5852 52.6025 45.9277V52.3702C52.04 56.2552 51.0725 57.9277 50.54 58.5802C50.195 59.0002 49.865 59.3002 48.755 59.3002H42.365C41.57 59.2477 37.3175 60.4852 29.99 49.2877C33.98 45.0202 38.555 41.9827 43.9625 41.2477L43.955 41.2552Z" fill="black" fill-opacity="0.6"/>
<path d="M160.279 22.978L160.099 21.658L159.476 20.4805C157.939 17.5855 157.331 16.1755 157.106 15.5755V14.203L155.966 12.3805C150.934 4.31797 141.956 0.230469 129.281 0.230469H121.849C119.966 0.230469 117.979 0.770469 114.739 2.16547L113.194 2.83297C109.294 1.10047 104.419 0.230469 98.3589 0.230469C97.0089 0.230469 95.5914 0.320469 94.1289 0.500469C91.1589 0.320469 88.2939 0.230469 85.5939 0.230469H73.3089V11.953L76.5339 14.188C77.4189 14.803 78.0414 15.283 78.4764 15.6355V21.3505C78.4764 22.0705 78.5364 22.7605 78.6489 23.413L78.4764 24.2305V27.433C73.2939 17.143 62.4864 7.40797 40.1364 7.40797H36.8514L26.8464 8.48797C23.3889 9.24547 20.1864 10.3705 17.2464 11.8705C13.9614 10.1005 10.8564 9.23797 7.83391 9.23797H0.341406V54.5305L7.79641 64.6105C11.2089 57.943 14.9439 50.7805 19.4364 45.013L19.3239 54.0955L18.0189 80.8105C16.6164 79.063 15.1989 77.203 13.7589 75.2305L0.191406 56.668V124.963H7.69141C10.9764 124.963 14.6139 123.935 18.9564 121.768C23.8989 123.718 27.7614 125.263 30.4689 126.38L32.0214 127.018L33.7014 126.935C43.8339 126.433 53.5614 125.165 62.6214 123.185L65.3589 122.585L67.0314 120.335C67.1739 120.148 67.2939 119.99 67.3989 119.878C77.2914 119.233 83.7639 110.435 86.6439 93.6955L86.7564 93.0655V92.428C86.7564 85.678 84.6789 78.5755 80.5914 71.3155L78.4389 67.498H76.3389L76.0614 67.2055C75.0039 66.088 73.8789 65.0605 72.6864 64.1305C75.2214 61.738 77.2164 58.9705 78.6789 55.8505H79.8414L80.7489 56.203L82.3014 56.143C85.8339 56.008 88.3764 55.7755 90.2814 55.483C91.0614 55.723 91.9014 55.8505 92.7789 55.8505H107.171C109.234 55.8505 111.469 55.9405 113.801 56.128L114.431 56.1805L115.054 56.128C115.766 56.068 116.846 55.9705 118.061 55.738C121.226 55.7605 124.196 55.8655 126.889 56.053L127.151 56.068H127.414C132.551 56.068 137.966 55.213 143.509 53.533C145.954 52.978 147.814 51.223 150.011 48.7105C152.471 47.833 155.231 45.928 157.346 41.9455C159.041 38.7505 160.166 34.453 160.789 28.813L160.834 28.4005V27.988C160.834 27.3655 160.796 26.6455 160.294 22.993L160.279 22.978ZM31.3314 80.533C32.1714 79.6105 33.5814 78.778 35.4264 78.118C49.1139 78.7105 49.1139 84.508 49.1139 88.0105V91.528C49.1139 94.618 49.1139 98.4655 38.8839 98.4655C38.5389 98.4655 38.1789 98.4655 37.8189 98.4505C33.6489 96.5155 29.1714 93.0655 24.4164 88.138L31.3314 80.533ZM36.1464 33.7555C44.7939 34.3555 44.7939 37.0855 44.7939 38.428V44.8705C44.2314 48.7555 43.2639 50.428 42.7314 51.0805C42.3864 51.5005 42.0564 51.8005 40.9464 51.8005H34.5564C33.7614 51.748 29.5089 52.9855 22.1814 41.788C26.1714 37.5205 30.7464 34.483 36.1539 33.748L36.1464 33.7555Z" fill="#AD5A40"/>
<path d="M72.2892 76.7755L69.7242 75.0205C69.7242 74.383 70.0167 73.5055 70.6017 72.3805C67.1817 68.7655 62.8167 66.448 57.4917 65.4205V64.543C68.5242 60.6355 74.0442 53.0905 74.0442 41.908V36.7105C69.8967 22.2055 58.5867 14.9605 40.1367 14.9605H34.8642L34.3542 14.668V15.0355C27.5142 15.523 21.7842 17.428 17.1417 20.7505C13.5792 18.1105 10.4742 16.798 7.84172 16.798V54.5905C16.2417 38.1805 25.3917 28.738 35.3067 26.248C46.6317 26.7355 52.3017 30.8155 52.3017 38.4805V45.4405C51.0792 54.718 47.2992 59.353 40.9467 59.353H34.3542C30.2067 59.158 27.6867 57.5455 26.8092 54.5155L25.7817 75.538C27.7317 73.393 30.5892 71.758 34.3542 70.633C49.1967 70.9255 56.6217 76.738 56.6217 88.063V91.5805C56.6217 101.93 49.7817 106.715 36.1167 105.935C27.3267 102.373 17.8542 93.628 7.69922 79.7155V117.508C10.3392 117.508 13.9242 116.188 18.4692 113.555C25.0617 116.143 30.0192 118.123 33.3342 119.488C43.0992 119 52.3317 117.8 61.0167 115.895C62.7267 113.6 64.4592 112.453 66.2142 112.453C72.6117 112.453 76.9542 105.785 79.2492 92.458C79.2492 86.9905 77.5167 81.178 74.0517 75.028C73.0767 75.028 72.4917 75.613 72.2967 76.783L72.2892 76.7755Z" fill="url(#paint0_linear_1686_3360)"/>
<path d="M152.848 24.037C150.688 19.9645 149.6 17.422 149.6 16.3945C146.015 10.642 139.235 7.76953 129.275 7.76953H121.843C121.13 7.76953 119.75 8.21203 117.703 9.09703V9.77953C119.863 9.77953 121.25 12.427 121.843 17.722C121.243 20.6845 120.943 25.1095 120.943 31.0045V32.6695C120.943 33.352 121.558 34.9045 122.78 37.327V37.627H122.308L121.37 37.327L120.943 41.2945V43.942L118.063 46.192C114.995 44.152 112.423 41.662 110.353 38.737C110.353 37.2295 108.755 34.222 105.568 29.7295V29.3845C108.275 29.3845 110.93 27.7195 113.555 24.3895C115.408 22.372 116.33 20.602 116.33 19.0945C116.33 11.5495 110.338 7.77703 98.3527 7.77703C97.1002 7.77703 95.7727 7.87453 94.3852 8.07703C91.3102 7.87453 88.3777 7.77703 85.5877 7.77703H80.8027V8.07703C84.2452 10.4695 85.9702 12.247 85.9702 13.417V21.4045C85.9702 22.147 86.1127 22.702 86.3977 23.0695L85.9702 25.0795V43.6945L80.8027 48.052V48.397C81.0877 48.397 81.4852 48.4945 81.9952 48.697C87.2602 48.4945 90.5902 48.0595 91.9852 47.3695C91.9852 48.052 92.2402 48.397 92.7502 48.397H100.775V47.7145C100.033 47.7145 98.4277 46.492 95.9527 44.0395V33.4045L95.5702 31.7395C96.4777 32.482 100.34 38.032 107.143 48.3895C109.423 48.3895 111.823 48.487 114.358 48.6895C115.64 48.577 116.66 48.4345 117.425 48.2695C121.003 48.2845 124.333 48.3895 127.385 48.607C131.938 48.607 136.723 47.827 141.733 46.2595C142.1 46.2595 143.495 44.8195 145.918 41.947C149.818 41.947 152.278 37.3045 153.305 28.027C153.305 27.6595 153.148 26.332 152.833 24.0595L152.848 24.037ZM98.3602 24.7195H96.7777L95.9677 25.0645V13.747L95.5852 13.0645L96.3952 12.7645H96.7777C103.153 12.7645 106.34 14.7595 106.34 18.742C106.34 22.7245 103.678 24.7195 98.3527 24.7195H98.3602ZM142.22 27.0295V30.997C140.855 38.9695 137.465 42.952 132.058 42.952H131.585V13.747L131.113 13.1095L133.888 13.4095C138.358 13.4095 141.133 17.167 142.213 24.682V26.047L142.685 26.6845C142.37 26.6845 142.213 26.797 142.213 27.0295H142.22Z" fill="url(#paint1_linear_1686_3360)"/>
</g>
<defs>
<linearGradient id="paint0_linear_1686_3360" x1="43.4742" y1="119.473" x2="43.4742" y2="14.668" gradientUnits="userSpaceOnUse">
<stop stop-color="#F2A477"/>
<stop offset="0.3" stop-color="#BF6C5A"/>
<stop offset="0.5" stop-color="#F2A477"/>
<stop offset="0.7" stop-color="#BF6C5A"/>
<stop offset="1" stop-color="#F2A477"/>
</linearGradient>
<linearGradient id="paint1_linear_1686_3360" x1="117.065" y1="48.6745" x2="117.065" y2="7.76953" gradientUnits="userSpaceOnUse">
<stop stop-color="#F2A477"/>
<stop offset="0.3" stop-color="#BF6C5A"/>
<stop offset="0.5" stop-color="#F2A477"/>
<stop offset="0.7" stop-color="#BF6C5A"/>
<stop offset="1" stop-color="#F2A477"/>
</linearGradient>
<clipPath id="clip0_1686_3360">
<rect width="168.435" height="134.28" fill="white" transform="translate(0.191406 0.230469)"/>
</clipPath>
</defs>
</svg>
