<svg width="141" height="135" viewBox="0 0 141 135" fill="none" xmlns="http://www.w3.org/2000/svg">
<g clip-path="url(#clip0_1698_4125)">
<path opacity="0.6" d="M140.647 39.1245V14.967L136.732 9.09453H134.115L132.66 7.72953H120.21C116.047 7.72953 110.452 7.83453 103.56 8.05203C102.217 7.83453 100.747 7.72953 99.1125 7.72953H92.85L92.685 8.65203C91.68 8.80203 90.675 9.05703 89.6475 9.45453C88.02 8.92203 86.7075 8.47953 85.725 8.14203L85.08 7.91703L84.405 7.81203C84.18 7.77453 83.9475 7.73703 83.7 7.68453L82.9425 7.51953H81.7425C76.815 7.51953 72.735 8.07453 69.285 9.22203L64.5075 10.812L64.41 12.252C63.9975 12.5445 63.6375 12.8445 63.3225 13.1295L62.505 13.8795L62.295 14.232L60.0825 15.2295L58.875 17.4495C58.725 17.727 58.59 18.0045 58.455 18.2895V12.312L7.5 17.802L13.995 30.792L15.405 31.857C20.82 35.9295 22.74 39.0645 22.74 40.512V112.04L11.535 123.245V134.727H58.89L66.2325 130.895V126.35C66.2325 121.16 63.6 116.6 58.395 112.76C58.2825 108.957 58.02 104.09 57.615 98.0295C58.365 91.4445 58.4625 89.427 58.4625 88.407V86.562L57.6075 84.927C57.045 83.862 56.775 82.722 56.775 81.447V78.5745C56.895 78.012 57.24 76.572 58.1925 73.0995L58.4625 72.1245V62.772H64.9125C66.345 62.772 67.785 62.5245 69.27 62.0145C71.9775 63.012 74.9325 63.507 78.09 63.507C79.305 63.507 80.5725 63.432 81.855 63.282C88.455 63.237 93.5775 61.3995 97.0725 57.822C97.26 57.6345 97.4475 57.432 97.635 57.2145V63.537H134.152V50.5545L129.795 48.5445C129.112 48.2295 128.595 47.9595 128.22 47.7345C128.28 46.857 128.37 45.657 128.527 44.0145L128.557 43.662V43.3095C128.557 42.552 128.475 41.817 128.31 41.1045C128.392 40.3995 128.452 39.732 128.49 39.1095H140.64L140.647 39.1245ZM102.052 48.822V39.1245H102.93C102.847 40.482 102.81 41.7645 102.81 42.9795V43.3245C102.81 44.802 102.885 46.407 103.042 48.192C102.78 48.372 102.45 48.582 102.052 48.822Z" fill="black" fill-opacity="0.6"/>
<path d="M133.147 31.6245V7.46703L129.232 1.59453H126.615L125.16 0.229531H112.71C108.547 0.229531 102.952 0.334531 96.06 0.552031C94.7175 0.334531 93.2475 0.229531 91.6125 0.229531H85.35L85.185 1.15203C84.18 1.30203 83.175 1.55703 82.1475 1.95453C80.52 1.42203 79.2075 0.979531 78.225 0.642031L77.58 0.417031L76.905 0.312031C76.68 0.274531 76.4475 0.237031 76.2 0.184531L75.4425 0.0195312H74.2425C69.315 0.0195312 65.235 0.574531 61.785 1.72203L57.0075 3.31203L56.91 4.75203C56.4975 5.04453 56.1375 5.34453 55.8225 5.62953L55.005 6.37953L54.795 6.73203L52.5825 7.72953L51.375 9.94953C51.225 10.227 51.09 10.5045 50.955 10.7895V4.81203L0 10.302L6.495 23.292L7.905 24.357C13.32 28.4295 15.24 31.5645 15.24 33.012V104.54L4.035 115.745V127.227H51.39L58.7325 123.395V118.85C58.7325 113.66 56.1 109.1 50.895 105.26C50.7825 101.457 50.52 96.5895 50.115 90.5295C50.865 83.9445 50.9625 81.927 50.9625 80.907V79.062L50.1075 77.427C49.545 76.362 49.275 75.222 49.275 73.947V71.0745C49.395 70.512 49.74 69.072 50.6925 65.5995L50.9625 64.6245V55.272H57.4125C58.845 55.272 60.285 55.0245 61.77 54.5145C64.4775 55.512 67.4325 56.007 70.59 56.007C71.805 56.007 73.0725 55.932 74.355 55.782C80.955 55.737 86.0775 53.8995 89.5725 50.322C89.76 50.1345 89.9475 49.932 90.135 49.7145V56.037H126.652V43.0545L122.295 41.0445C121.612 40.7295 121.095 40.4595 120.72 40.2345C120.78 39.357 120.87 38.157 121.027 36.5145L121.057 36.162V35.8095C121.057 35.052 120.975 34.317 120.81 33.6045C120.892 32.8995 120.952 32.232 120.99 31.6095H133.14L133.147 31.6245ZM94.5525 41.322V31.6245H95.43C95.3475 32.982 95.31 34.2645 95.31 35.4795V35.8245C95.31 37.302 95.385 38.907 95.5425 40.692C95.28 40.872 94.95 41.082 94.5525 41.322Z" fill="#C1944D"/>
<path d="M43.1772 109.404C43.1772 105.354 42.8847 99.0016 42.2997 90.3616C42.8847 85.2841 43.1772 82.1341 43.1772 80.9116C42.0522 78.7666 41.4897 76.4416 41.4897 73.9516V70.5091C41.4897 70.0216 42.0522 67.7266 43.1772 63.6241V13.1641L11.2422 16.6066L12.1197 18.3616C19.0047 23.5366 22.4472 28.4191 22.4472 33.0091V75.7066L21.5697 77.3941C22.1547 77.3941 22.4472 77.6866 22.4472 78.2716V107.642L11.2422 118.847V119.724H49.2522L50.9397 118.847C50.9397 115.427 48.3522 112.277 43.1772 109.397V109.404Z" fill="url(#paint0_linear_1698_4125)"/>
<path d="M75.4872 7.73096C75.1197 7.67096 74.7297 7.60346 74.3322 7.52096C70.0872 7.49096 66.5997 7.93346 63.8697 8.84846L63.7872 10.131C62.4222 10.131 61.3647 10.476 60.6297 11.1585C60.0597 12.126 59.0772 12.921 57.6822 13.551C56.9997 14.8035 56.6397 16.2585 56.6172 17.9085C56.9622 24.5385 61.4697 28.941 70.1547 31.101C74.5947 32.781 76.5747 35.0835 76.0872 38.016C76.5972 41.406 74.8647 43.1385 70.8747 43.2285C70.6197 43.2285 70.3497 43.2135 70.0647 43.1835C66.5022 42.8385 62.1897 39.486 57.1272 33.1035V47.796C58.3497 47.796 59.8047 47.286 61.4847 46.2585C64.7847 48.2535 68.8272 48.936 73.6122 48.306C82.3497 48.366 86.6322 44.721 86.4672 37.371C86.4672 35.376 85.8297 33.5835 84.5472 31.9935L82.1547 33.741L83.5197 30.921C81.2172 28.7835 77.5422 27.096 72.5022 25.8435C68.9172 24.7035 67.4772 21.9135 68.1897 17.4735C68.1597 14.4285 70.5522 13.0935 75.3672 13.461H75.4947V13.3785C78.7422 14.5185 82.4997 17.7885 86.7672 23.196V8.49596C85.5447 8.49596 84.1047 9.00596 82.4547 10.0335C79.3797 9.03596 77.0622 8.27096 75.4947 7.73096H75.4872Z" fill="url(#paint1_linear_1698_4125)"/>
<path d="M124.928 9.09906C124.44 9.09906 124.148 9.30906 124.028 9.73656L121.89 7.72656H112.41C108.143 7.72656 102.405 7.83906 95.2051 8.07156C94.1251 7.84656 92.8276 7.72656 91.3201 7.72656L90.8926 10.0741V24.1216H91.3201C94.8751 17.4016 97.1701 13.6141 98.1976 12.7666H102.51C102.51 14.9866 102.938 18.1066 103.793 22.1191C102.938 27.3316 102.51 31.7866 102.51 35.4841V35.8291C102.51 37.6216 102.653 39.7441 102.938 42.1891C102.653 42.5866 102.51 43.0291 102.51 43.5166C102.51 44.6566 100.785 46.2241 97.3426 48.2116V48.5566H118.86V47.8741C114.848 46.0216 112.838 44.1316 112.838 42.1966C112.838 40.9741 112.98 38.8516 113.265 35.8366C113.265 35.3266 113.123 34.8841 112.838 34.5166C113.123 32.6116 113.265 31.0441 113.265 29.8216V12.7816H118.005C119.46 15.8866 120.893 17.4391 122.318 17.4391V18.8041C122.318 19.7416 123.03 21.5191 124.455 24.1441H125.355V9.73656L124.928 9.09906Z" fill="url(#paint2_linear_1698_4125)"/>
</g>
<defs>
<linearGradient id="paint0_linear_1698_4125" x1="31.0947" y1="119.732" x2="31.0947" y2="13.1641" gradientUnits="userSpaceOnUse">
<stop stop-color="#F2DC99"/>
<stop offset="0.3" stop-color="#F2C46D"/>
<stop offset="0.5" stop-color="#F2DC99"/>
<stop offset="0.7" stop-color="#F2C46D"/>
<stop offset="1" stop-color="#F2E49B"/>
</linearGradient>
<linearGradient id="paint1_linear_1698_4125" x1="71.6847" y1="48.516" x2="71.6847" y2="7.51346" gradientUnits="userSpaceOnUse">
<stop stop-color="#F2DC99"/>
<stop offset="0.3" stop-color="#F2C46D"/>
<stop offset="0.5" stop-color="#F2DC99"/>
<stop offset="0.7" stop-color="#F2C46D"/>
<stop offset="1" stop-color="#F2E49B"/>
</linearGradient>
<linearGradient id="paint2_linear_1698_4125" x1="108.128" y1="48.5491" x2="108.128" y2="7.73406" gradientUnits="userSpaceOnUse">
<stop stop-color="#F2DC99"/>
<stop offset="0.3" stop-color="#F2C46D"/>
<stop offset="0.5" stop-color="#F2DC99"/>
<stop offset="0.7" stop-color="#F2C46D"/>
<stop offset="1" stop-color="#F2E49B"/>
</linearGradient>
<clipPath id="clip0_1698_4125">
<rect width="140.647" height="134.715" fill="white" transform="translate(0 0.0117188)"/>
</clipPath>
</defs>
</svg>
