<svg width="601" height="254" viewBox="0 0 601 254" fill="none" xmlns="http://www.w3.org/2000/svg">
<g clip-path="url(#clip0_1216_2926)">
<mask id="path-1-inside-1_1216_2926" fill="white">
<path d="M335.839 11.6357L340.367 0.75H341.157L344.524 8.49023L347.892 0.75H547.628L550.617 7.52344L553.606 0.75H556.141L560.669 11.6357L565.197 0.75H596.25C598.459 0.75 600.25 2.54086 600.25 4.75V249.215C600.25 251.424 598.459 253.215 596.25 253.215H222.122L218.4 244.509L214.679 253.215H212.129L209.313 246.447L206.498 253.215H72.4746L69.8857 247.411L67.2969 253.215H64.8994L61.2031 244.509L57.5068 253.215H4.25C2.04088 253.215 0.250033 251.424 0.25 249.215V4.75C0.250002 2.54086 2.04086 0.75 4.25 0.75H331.311L335.839 11.6357Z"/>
</mask>
<path d="M335.839 11.6357L340.367 0.75H341.157L344.524 8.49023L347.892 0.75H547.628L550.617 7.52344L553.606 0.75H556.141L560.669 11.6357L565.197 0.75H596.25C598.459 0.75 600.25 2.54086 600.25 4.75V249.215C600.25 251.424 598.459 253.215 596.25 253.215H222.122L218.4 244.509L214.679 253.215H212.129L209.313 246.447L206.498 253.215H72.4746L69.8857 247.411L67.2969 253.215H64.8994L61.2031 244.509L57.5068 253.215H4.25C2.04088 253.215 0.250033 251.424 0.25 249.215V4.75C0.250002 2.54086 2.04086 0.75 4.25 0.75H331.311L335.839 11.6357Z" fill="#FBC25C"/>
<path d="M335.839 11.6357L334.376 12.2443L335.839 15.7612L337.302 12.2443L335.839 11.6357ZM340.367 0.75V-0.834507H339.31L338.904 0.141422L340.367 0.75ZM341.157 0.75L342.61 0.117921L342.196 -0.834507H341.157V0.75ZM344.524 8.49023L343.071 9.12231L344.524 12.4623L345.977 9.12231L344.524 8.49023ZM347.892 0.75V-0.834507H346.853L346.439 0.117921L347.892 0.75ZM547.628 0.75L549.078 0.110254L548.661 -0.834507H547.628V0.75ZM550.617 7.52344L549.168 8.16318L550.617 11.4479L552.067 8.16318L550.617 7.52344ZM553.606 0.75V-0.834507H552.574L552.157 0.110254L553.606 0.75ZM556.141 0.75L557.604 0.141422L557.198 -0.834507H556.141V0.75ZM560.669 11.6357L559.206 12.2443L560.669 15.7612L562.132 12.2443L560.669 11.6357ZM565.197 0.75V-0.834507H564.14L563.734 0.141422L565.197 0.75ZM600.25 249.215L601.835 249.215V249.215H600.25ZM596.25 253.215L596.25 254.799H596.25L596.25 253.215ZM222.122 253.215L220.665 253.838L221.076 254.799H222.122V253.215ZM218.4 244.509L219.857 243.886L218.4 240.478L216.943 243.886L218.4 244.509ZM214.679 253.215V254.799H215.725L216.136 253.838L214.679 253.215ZM212.129 253.215L210.666 253.823L211.072 254.799H212.129V253.215ZM209.313 246.447L210.776 245.839L209.313 242.322L207.851 245.839L209.313 246.447ZM206.498 253.215V254.799H207.555L207.961 253.823L206.498 253.215ZM72.4746 253.215L71.0275 253.86L71.4464 254.799H72.4746V253.215ZM69.8857 247.411L71.3328 246.766L69.8857 243.522L68.4387 246.766L69.8857 247.411ZM67.2969 253.215V254.799H68.3251L68.7439 253.86L67.2969 253.215ZM64.8994 253.215L63.4409 253.834L63.8507 254.799H64.8994V253.215ZM61.2031 244.509L62.6616 243.89L61.2031 240.454L59.7446 243.89L61.2031 244.509ZM57.5068 253.215V254.799H58.5555L58.9653 253.834L57.5068 253.215ZM0.25 249.215L-1.33451 249.215L-1.33451 249.215L0.25 249.215ZM0.25 4.75L-1.33451 4.75V4.75H0.25ZM4.25 0.75L4.25 -0.834507L4.25 -0.834507L4.25 0.75ZM331.311 0.75L332.774 0.141422L332.368 -0.834507H331.311V0.75ZM335.839 11.6357L337.302 12.2443L341.83 1.35858L340.367 0.75L338.904 0.141422L334.376 11.0272L335.839 11.6357ZM340.367 0.75V2.33451H341.157V0.75V-0.834507H340.367V0.75ZM341.157 0.75L339.704 1.38208L343.071 9.12231L344.524 8.49023L345.977 7.85815L342.61 0.117921L341.157 0.75ZM344.524 8.49023L345.977 9.12231L349.345 1.38208L347.892 0.75L346.439 0.117921L343.071 7.85815L344.524 8.49023ZM347.892 0.75V2.33451H547.628V0.75V-0.834507H347.892V0.75ZM547.628 0.75L546.178 1.38975L549.168 8.16318L550.617 7.52344L552.067 6.88369L549.078 0.110254L547.628 0.75ZM550.617 7.52344L552.067 8.16318L555.056 1.38975L553.606 0.75L552.157 0.110254L549.168 6.88369L550.617 7.52344ZM553.606 0.75V2.33451H556.141V0.75V-0.834507H553.606V0.75ZM556.141 0.75L554.678 1.35858L559.206 12.2443L560.669 11.6357L562.132 11.0272L557.604 0.141422L556.141 0.75ZM560.669 11.6357L562.132 12.2443L566.66 1.35858L565.197 0.75L563.734 0.141422L559.206 11.0272L560.669 11.6357ZM565.197 0.75V2.33451H596.25V0.75V-0.834507H565.197V0.75ZM596.25 0.75V2.33451C597.584 2.33451 598.665 3.41596 598.665 4.75H600.25H601.835C601.835 1.66576 599.334 -0.834507 596.25 -0.834507V0.75ZM600.25 4.75H598.665V249.215H600.25H601.835V4.75H600.25ZM600.25 249.215L598.665 249.215C598.665 250.549 597.584 251.63 596.25 251.63L596.25 253.215L596.25 254.799C599.334 254.799 601.834 252.299 601.835 249.215L600.25 249.215ZM596.25 253.215V251.63H222.122V253.215V254.799H596.25V253.215ZM222.122 253.215L223.579 252.592L219.857 243.886L218.4 244.509L216.943 245.132L220.665 253.838L222.122 253.215ZM218.4 244.509L216.943 243.886L213.222 252.592L214.679 253.215L216.136 253.838L219.857 245.132L218.4 244.509ZM214.679 253.215V251.63H212.129V253.215V254.799H214.679V253.215ZM212.129 253.215L213.592 252.606L210.776 245.839L209.313 246.447L207.851 247.056L210.666 253.823L212.129 253.215ZM209.313 246.447L207.851 245.839L205.035 252.606L206.498 253.215L207.961 253.823L210.776 247.056L209.313 246.447ZM206.498 253.215V251.63H72.4746V253.215V254.799H206.498V253.215ZM72.4746 253.215L73.9217 252.569L71.3328 246.766L69.8857 247.411L68.4387 248.057L71.0275 253.86L72.4746 253.215ZM69.8857 247.411L68.4387 246.766L65.8498 252.569L67.2969 253.215L68.7439 253.86L71.3328 248.057L69.8857 247.411ZM67.2969 253.215V251.63H64.8994V253.215V254.799H67.2969V253.215ZM64.8994 253.215L66.3579 252.596L62.6616 243.89L61.2031 244.509L59.7446 245.128L63.4409 253.834L64.8994 253.215ZM61.2031 244.509L59.7446 243.89L56.0483 252.596L57.5068 253.215L58.9653 253.834L62.6616 245.128L61.2031 244.509ZM57.5068 253.215V251.63H4.25V253.215V254.799H57.5068V253.215ZM4.25 253.215V251.63C2.916 251.63 1.83453 250.549 1.83451 249.215L0.25 249.215L-1.33451 249.215C-1.33446 252.299 1.16576 254.799 4.25 254.799V253.215ZM0.25 249.215H1.83451V4.75H0.25H-1.33451V249.215H0.25ZM0.25 4.75L1.83451 4.75C1.83451 3.41596 2.91596 2.33451 4.25 2.33451L4.25 0.75L4.25 -0.834507C1.16576 -0.834507 -1.3345 1.66576 -1.33451 4.75L0.25 4.75ZM4.25 0.75V2.33451H331.311V0.75V-0.834507H4.25V0.75ZM331.311 0.75L329.848 1.35858L334.376 12.2443L335.839 11.6357L337.302 11.0272L332.774 0.141422L331.311 0.75Z" fill="#E0A640" mask="url(#path-1-inside-1_1216_2926)"/>
<g style="mix-blend-mode:hard-light" opacity="0.3">
<path d="M0.25 0.75H600.25V253.215H0.25V0.75Z" fill="url(#paint0_radial_1216_2926)"/>
<path d="M0.25 -251.715H600.25V0.75H0.25V-251.715Z" fill="url(#paint1_radial_1216_2926)"/>
</g>
</g>
<defs>
<radialGradient id="paint0_radial_1216_2926" cx="0" cy="0" r="1" gradientUnits="userSpaceOnUse" gradientTransform="translate(300.25 126.982) rotate(90) scale(126.232 300)">
<stop stop-color="#D9D9D9"/>
<stop offset="1" stop-color="#737373"/>
</radialGradient>
<radialGradient id="paint1_radial_1216_2926" cx="0" cy="0" r="1" gradientUnits="userSpaceOnUse" gradientTransform="translate(300.25 126.982) rotate(90) scale(126.232 300)">
<stop stop-color="#D9D9D9"/>
<stop offset="1" stop-color="#737373"/>
</radialGradient>
<clipPath id="clip0_1216_2926">
<rect width="600" height="252.465" fill="white" transform="translate(0.25 0.75)"/>
</clipPath>
</defs>
</svg>
