<svg width="286" height="409" viewBox="0 0 286 409" fill="none" xmlns="http://www.w3.org/2000/svg">
<g filter="url(#filter0_d_903_1915)">
<rect x="4" width="278" height="401" rx="20" fill="url(#paint0_linear_903_1915)"/>
<rect x="5.5" y="1.5" width="275" height="398" rx="18.5" stroke="#F2E9DD" stroke-width="3"/>
</g>
<path d="M119.379 68.9993C78.9795 68.5993 63.5461 114.499 60.8795 137.499C59.9309 144.317 60.6062 153.523 64.5708 162.5C69.2769 173.157 78.6179 183.492 95.3794 189.132C98.4568 190.168 101.784 191.045 105.379 191.737C112.08 193.027 119.709 193.673 128.379 193.499C129.053 193.486 129.719 193.471 130.379 193.453C141.756 193.157 151.175 192.31 159.05 191C166.015 189.842 171.774 188.321 176.613 186.5C194.275 179.854 202.379 166.5 205.879 159.5C209.379 152.5 209.587 151.434 210.163 147.5C211.902 135.629 209.08 118.979 203.103 103.825C200.09 97.5441 197.128 91.7125 194.34 86.5C189.35 78.753 185.379 75 176.879 68.9993C158.022 55.6869 133.713 53.8329 124.879 53C128.046 55.3333 134.379 60.8999 134.379 64.4997C118.779 58.4997 108.213 60.333 104.879 61.9997C107.713 61.1663 114.579 61.3996 119.379 68.9993Z" fill="#D9D9D9"/>
<path d="M72.3686 236.5C62.36 256.9 72.6662 257.667 79.0704 255.5C79.6838 250.91 80.6011 246.149 81.8794 241.227C76.6794 241.009 73.3722 237.985 72.3686 236.5Z" fill="#D9D9D9"/>
<path d="M189.879 265.5C194.945 264.839 197.11 261.016 197.811 256.767C197.961 255.855 198.044 254.924 198.074 254C198.157 251.409 197.821 248.877 197.379 247C196.824 244.037 196.074 240.837 195.184 237.5C191.028 241.1 178.994 243.5 173.496 244.25L176.613 254C177.354 256.631 178.618 260.527 181.379 263.069C182.823 264.398 184.676 265.358 187.077 265.573C187.939 265.65 188.871 265.632 189.879 265.5Z" fill="#D9D9D9"/>
<path d="M60.8795 137.499C49.7128 175.548 37.4795 254.431 77.8795 265.573C77.9767 265.6 78.0748 265.626 78.1739 265.653C78.3144 262.369 78.6049 258.983 79.0704 255.5C72.6662 257.667 62.36 256.9 72.3686 236.5C65.3713 224.923 56.3431 198.15 64.5708 162.5C60.6062 153.523 59.9309 144.317 60.8795 137.499Z" fill="#CAC9C9"/>
<path d="M210.163 147.5C217.568 175.667 225.379 235 197.379 247C197.821 248.877 198.157 251.409 198.074 254C200.842 253.056 206.979 252.401 209.379 257.334C212.063 257.128 214.895 256.695 217.879 256C256.421 238.514 228.029 155.787 203.103 103.825C209.08 118.979 211.902 135.629 210.163 147.5Z" fill="#D9D9D9"/>
<path d="M197.811 256.767C197.11 261.016 194.945 264.839 189.879 265.5C188.871 265.632 187.939 265.65 187.077 265.573C187.636 268.431 187.178 280.715 186.879 286.5C189.648 288 195.323 289.2 195.879 282C214.379 286.5 217.879 266 204.879 264.5C210.879 263.7 210.379 259.389 209.379 257.334C206.979 252.401 200.842 253.056 198.074 254C198.044 254.924 197.961 255.855 197.811 256.767Z" fill="#CAC9C9"/>
<path d="M109.805 347.595C110.991 347.595 112.77 342.536 113.511 340.007C106.365 340.368 95.9702 340.569 92.019 339.503V343.889C91.1544 343.889 89.4252 344.334 89.4252 346.112C90.5368 348.336 108.323 347.595 109.805 347.595Z" fill="#D9D9D9"/>
<path d="M150.879 337.762C151.879 341.174 154.279 348 155.879 348C157.879 348 181.879 349 183.379 346C183.379 343.6 181.046 343 179.879 343V337.082C174.548 338.52 160.522 338.249 150.879 337.762Z" fill="#D9D9D9"/>
<path d="M210.163 147.5C209.587 151.434 209.379 152.5 205.879 159.5C202.379 166.5 194.275 179.854 176.613 186.5C181.199 196.789 190.305 219.212 195.184 237.5C196.074 240.837 196.824 244.037 197.379 247C225.379 235 217.568 175.667 210.163 147.5Z" fill="#E18779"/>
<path d="M144.379 326C157.979 329.6 175.379 326.667 181.379 324.5C182.701 320.536 184.795 304.481 186.141 293C173.551 288.2 165.054 274.06 162.379 267.59C135.794 272.435 110.561 271.196 93.3794 268.675C91.351 274.283 85.8016 286.4 79.8314 290C83.3315 309.432 88.1015 323.368 90.9073 330.179C95.3539 331.785 108.249 333.958 118.328 331.29C118.328 326.89 124.546 306.225 127.879 296.837C129.998 297.431 132.083 297.872 133.879 298C138.279 303.6 142.713 319 144.379 326Z" fill="#46657F"/>
<path fill-rule="evenodd" clip-rule="evenodd" d="M176.613 254L173.496 244.25L170.379 234.5L164.051 208C164.316 205.5 167.2 197.7 176.613 186.5C171.774 188.321 166.015 189.842 159.05 191C153.891 197.234 151.001 200.721 145.879 206C144.879 207 142.779 209.2 140.379 208C137.579 207.2 132.546 197.969 130.379 193.453C127.379 197.636 120.479 206 116.879 206C113.679 205.2 107.079 197.333 104.179 193.499C92.6016 210.689 85.6609 226.667 81.8794 241.227C80.6011 246.149 79.6838 250.91 79.0704 255.5C90.1626 259 125.2 263.6 176.613 254ZM102.879 240.5C101.84 235.7 104.113 223.5 105.379 218C117.713 216.833 144.479 215.2 152.879 218C152.479 230.8 152.046 239.667 151.879 242C143.601 247.414 138.927 250.248 130.379 254C126.879 256 121.474 256.5 118.879 255C113.979 252.167 103.919 245.3 102.879 240.5Z" fill="#46657F"/>
<path d="M170.379 234.5L173.496 244.25C178.994 243.5 191.028 241.1 195.184 237.5C190.305 219.212 181.199 196.789 176.613 186.5C167.2 197.7 164.316 205.5 164.051 208L170.379 234.5Z" fill="#F6BF4C"/>
<path d="M176.613 254C125.2 263.6 90.1626 259 79.0704 255.5C78.6049 258.983 78.3144 262.369 78.1739 265.653C81.9684 266.676 87.1436 267.76 93.3794 268.675C110.561 271.196 135.794 272.435 162.379 267.59C168.667 266.444 175.03 264.959 181.379 263.069C178.618 260.527 177.354 256.631 176.613 254Z" fill="#46657F"/>
<path d="M79.8314 290C85.8016 286.4 91.351 274.283 93.3794 268.675C87.1436 267.76 81.9684 266.676 78.1739 265.653C77.7943 274.531 78.511 282.669 79.8314 290Z" fill="#F6BF4C"/>
<path d="M118.328 331.29C108.249 333.958 95.3539 331.785 90.9073 330.179C89.4252 328.697 87.2019 336.849 90.9073 339.072C91.1781 339.234 91.5539 339.377 92.019 339.503C95.9702 340.569 106.365 340.368 113.511 340.007C114.734 339.945 115.862 339.879 116.846 339.813C117.957 338.454 119.81 334.848 118.328 331.29Z" fill="#46657F"/>
<path d="M181.379 324.5C175.379 326.667 157.979 329.6 144.379 326C142.379 330.8 144.879 335.667 146.379 337.5C147.707 337.589 149.229 337.678 150.879 337.762C160.522 338.249 174.548 338.52 179.879 337.082C180.507 336.912 181.014 336.719 181.379 336.5C186.379 333.5 183.379 322.5 181.379 324.5Z" fill="#46657F"/>
<path d="M186.879 286.5C187.178 280.715 187.636 268.431 187.077 265.573C184.676 265.358 182.823 264.398 181.379 263.069C175.03 264.959 168.667 266.444 162.379 267.59C165.054 274.06 173.551 288.2 186.141 293C186.425 290.577 186.676 288.359 186.879 286.5Z" fill="#F6BF4C"/>
<path d="M105.379 218C104.113 223.5 101.84 235.7 102.879 240.5C103.919 245.3 113.979 252.167 118.879 255C121.474 256.5 126.879 256 130.379 254C138.927 250.248 143.601 247.414 151.879 242C152.046 239.667 152.479 230.8 152.879 218C144.479 215.2 117.713 216.833 105.379 218Z" fill="#98CAD3"/>
<path d="M64.5708 162.5C56.3431 198.15 65.3713 224.923 72.3686 236.5C77.7056 222.588 89.7794 193.638 95.3794 189.132C78.6179 183.492 69.2769 173.157 64.5708 162.5Z" fill="#E18779"/>
<path d="M105.379 191.737C101.784 191.045 98.4568 190.168 95.3794 189.132C89.7794 193.638 77.7056 222.588 72.3686 236.5C73.3722 237.985 76.6794 241.009 81.8794 241.227C85.6609 226.667 92.6016 210.689 104.179 193.499C104.574 192.913 104.974 192.326 105.379 191.737Z" fill="#F6BF4C"/>
<path d="M128.379 193.499C119.709 193.673 112.08 193.027 105.379 191.737C104.974 192.326 104.574 192.913 104.179 193.499C107.079 197.333 113.679 205.2 116.879 206C120.479 206 127.379 197.636 130.379 193.453C129.719 193.471 129.053 193.486 128.379 193.499Z" fill="#D9D9D9"/>
<path d="M130.379 193.453C132.546 197.969 137.579 207.2 140.379 208C142.779 209.2 144.879 207 145.879 206C151.001 200.721 153.891 197.234 159.05 191C151.175 192.31 141.756 193.157 130.379 193.453Z" fill="#D9D9D9"/>
<path d="M60.8795 137.499C63.5461 114.499 78.9795 68.5993 119.379 68.9993C114.579 61.3996 107.713 61.1663 104.879 61.9997C108.213 60.333 118.779 58.4997 134.379 64.4997C134.379 60.8999 128.046 55.3333 124.879 53C133.713 53.8329 158.022 55.6869 176.879 68.9993C185.379 75 189.35 78.753 194.34 86.5M60.8795 137.499C49.7128 175.548 37.4795 254.431 77.8795 265.573C77.9767 265.6 78.0748 265.626 78.1739 265.653M60.8795 137.499C59.9309 144.317 60.6062 153.523 64.5708 162.5M194.34 86.5C197.128 91.7125 200.09 97.5441 203.103 103.825M194.34 86.5C197.72 91.7462 200.673 97.662 203.103 103.825M162.379 201L164.051 208M210.163 147.5C209.587 151.434 209.379 152.5 205.879 159.5C202.379 166.5 194.275 179.854 176.613 186.5M210.163 147.5C217.568 175.667 225.379 235 197.379 247M210.163 147.5C211.902 135.629 209.08 118.979 203.103 103.825M197.379 247C196.824 244.037 196.074 240.837 195.184 237.5M197.379 247C197.821 248.877 198.157 251.409 198.074 254M176.613 186.5C181.199 196.789 190.305 219.212 195.184 237.5M176.613 186.5C167.2 197.7 164.316 205.5 164.051 208M176.613 186.5C171.774 188.321 166.015 189.842 159.05 191M176.613 254L173.496 244.25M176.613 254C125.2 263.6 90.1626 259 79.0704 255.5M176.613 254C177.354 256.631 178.618 260.527 181.379 263.069M173.496 244.25L170.379 234.5L164.051 208M173.496 244.25C178.994 243.5 191.028 241.1 195.184 237.5M198.074 254C198.044 254.924 197.961 255.855 197.811 256.767C197.11 261.016 194.945 264.839 189.879 265.5C188.871 265.632 187.939 265.65 187.077 265.573M198.074 254C200.842 253.056 206.979 252.401 209.379 257.334M209.379 257.334C212.063 257.128 214.895 256.695 217.879 256C256.421 238.514 228.029 155.787 203.103 103.825M209.379 257.334C210.379 259.389 210.879 263.7 204.879 264.5C217.879 266 214.379 286.5 195.879 282C195.323 289.2 189.648 288 186.879 286.5M186.879 286.5C187.178 280.715 187.636 268.431 187.077 265.573M186.879 286.5C186.676 288.359 186.425 290.577 186.141 293M181.379 324.5C175.379 326.667 157.979 329.6 144.379 326M181.379 324.5C183.379 322.5 186.379 333.5 181.379 336.5C181.014 336.719 180.507 336.912 179.879 337.082M181.379 324.5C182.701 320.536 184.795 304.481 186.141 293M187.077 265.573C184.676 265.358 182.823 264.398 181.379 263.069M144.379 326C142.379 330.8 144.879 335.667 146.379 337.5C147.707 337.589 149.229 337.678 150.879 337.762M144.379 326C142.713 319 138.279 303.6 133.879 298C132.083 297.872 129.998 297.431 127.879 296.837M150.879 337.762C151.879 341.174 154.279 348 155.879 348C157.879 348 181.879 349 183.379 346C183.379 343.6 181.046 343 179.879 343V337.082M150.879 337.762C160.522 338.249 174.548 338.52 179.879 337.082M64.5708 162.5C56.3431 198.15 65.3713 224.923 72.3686 236.5M64.5708 162.5C69.2769 173.157 78.6179 183.492 95.3794 189.132M90.9073 330.179C88.1015 323.368 83.3315 309.432 79.8314 290M90.9073 330.179C95.3539 331.785 108.249 333.958 118.328 331.29M90.9073 330.179C89.4252 328.697 87.2019 336.849 90.9073 339.072C91.1781 339.234 91.5539 339.377 92.019 339.503M105.379 191.737C112.08 193.027 119.709 193.673 128.379 193.499C129.053 193.486 129.719 193.471 130.379 193.453M105.379 191.737C101.784 191.045 98.4568 190.168 95.3794 189.132M105.379 191.737C104.974 192.326 104.574 192.913 104.179 193.499M79.0704 255.5C72.6662 257.667 62.36 256.9 72.3686 236.5M79.0704 255.5C79.6838 250.91 80.6011 246.149 81.8794 241.227M79.0704 255.5C78.6049 258.983 78.3144 262.369 78.1739 265.653M72.3686 236.5C77.7056 222.588 89.7794 193.638 95.3794 189.132M72.3686 236.5C73.3722 237.985 76.6794 241.009 81.8794 241.227M81.8794 241.227C85.6609 226.667 92.6016 210.689 104.179 193.499M104.179 193.499C107.079 197.333 113.679 205.2 116.879 206C120.479 206 127.379 197.636 130.379 193.453M130.379 193.453C132.546 197.969 137.579 207.2 140.379 208C142.779 209.2 144.879 207 145.879 206C151.001 200.721 153.891 197.234 159.05 191M130.379 193.453C141.756 193.157 151.175 192.31 159.05 191M181.379 263.069C175.03 264.959 168.667 266.444 162.379 267.59M93.3794 268.675C91.351 274.283 85.8016 286.4 79.8314 290M93.3794 268.675C110.561 271.196 135.794 272.435 162.379 267.59M93.3794 268.675C87.1436 267.76 81.9684 266.676 78.1739 265.653M79.8314 290C78.511 282.669 77.7943 274.531 78.1739 265.653M162.379 267.59C165.054 274.06 173.551 288.2 186.141 293M116.379 292.5C118.757 293.632 123.394 295.579 127.879 296.837M127.879 296.837C124.546 306.225 118.328 326.89 118.328 331.29M118.328 331.29C119.81 334.848 117.957 338.454 116.846 339.813C115.862 339.879 114.734 339.945 113.511 340.007M113.511 340.007C112.77 342.536 110.991 347.595 109.805 347.595C108.323 347.595 90.5368 348.336 89.4252 346.112C89.4252 344.334 91.1544 343.889 92.019 343.889V339.503M113.511 340.007C106.365 340.368 95.9702 340.569 92.019 339.503M105.379 218C104.113 223.5 101.84 235.7 102.879 240.5C103.919 245.3 113.979 252.167 118.879 255C121.474 256.5 126.879 256 130.379 254C138.927 250.248 143.601 247.414 151.879 242C152.046 239.667 152.479 230.8 152.879 218C144.479 215.2 117.713 216.833 105.379 218Z" stroke="#503C3C" stroke-width="2" stroke-linecap="round"/>
<path d="M117.047 243.51C116.689 247.258 118.439 246.44 120.047 245.509C124.854 242.726 132.158 237.139 131.901 232.509C131.819 231.04 130.975 229.666 129.047 228.51C127.256 227.435 125.699 227.243 124.353 227.67C119.688 229.15 117.565 238.077 117.047 243.51Z" fill="#F96B35"/>
<path d="M124.353 227.67C125.699 227.243 127.256 227.435 129.047 228.51C130.975 229.666 131.819 231.04 131.901 232.509C135.046 234.009 137.546 229.017 134.046 226.517C138.046 223.519 129.546 218.018 128.546 223.017C123.546 220.017 121.546 226.509 124.353 227.67Z" fill="#5FBE50"/>
<path d="M124.353 227.67C119.688 229.15 117.565 238.077 117.047 243.51C116.689 247.258 118.439 246.44 120.047 245.509C124.854 242.726 132.158 237.139 131.901 232.509M124.353 227.67C125.699 227.243 127.256 227.435 129.047 228.51C130.975 229.666 131.819 231.04 131.901 232.509M124.353 227.67C121.546 226.509 123.546 220.017 128.546 223.017C129.546 218.018 138.046 223.519 134.046 226.517C137.546 229.017 135.046 234.009 131.901 232.509" stroke="#503C3C" stroke-width="2"/>
<path d="M108.432 125.953C105.983 133.867 101.46 139.497 94.4451 137.326C87.8793 135.295 86.8773 127.955 89.3262 120.041C91.7752 112.127 95.8792 106.499 103.379 107.998C109.879 109.999 110.881 118.039 108.432 125.953Z" fill="black"/>
<path d="M157.936 122.617C157.352 130.881 159.53 137.767 166.855 138.284C173.711 138.768 177.303 132.29 177.886 124.026C178.469 115.762 176.682 109.03 169.148 107.712C162.365 107.223 158.519 114.354 157.936 122.617Z" fill="black"/>
<path d="M81.8794 109.001C83.0461 102.501 89.4794 91.1009 105.879 97.5009" stroke="black" stroke-width="2" stroke-linecap="round"/>
<path d="M183.422 110.149C182.678 103.587 176.995 91.7946 160.216 97.1205" stroke="black" stroke-width="2" stroke-linecap="round"/>
<circle cx="77.8794" cy="138" r="0.5" fill="black" stroke="#503C3C"/>
<circle cx="1" cy="1" r="0.5" transform="matrix(-1 0 0 1 184.879 140)" fill="black" stroke="#503C3C"/>
<circle cx="79.8794" cy="148" r="0.5" fill="black" stroke="#503C3C"/>
<circle cx="1" cy="1" r="0.5" transform="matrix(-1 0 0 1 182.879 150)" fill="black" stroke="#503C3C"/>
<circle cx="86.8794" cy="139" r="0.5" fill="black" stroke="#503C3C"/>
<circle cx="1" cy="1" r="0.5" transform="matrix(-1 0 0 1 175.879 141)" fill="black" stroke="#503C3C"/>
<path d="M127.558 147.626C126.751 148.384 125.481 148.342 124.726 147.533L118.16 140.494C118.013 140.337 117.893 140.158 117.803 139.962L115.929 135.865C115.393 134.693 116.089 133.327 117.352 133.073L127.252 131.075C127.498 131.025 127.751 131.023 127.998 131.067L135.959 132.484C136.179 132.523 136.391 132.599 136.586 132.708L138.499 133.78C139.678 134.441 139.876 136.057 138.89 136.983L127.558 147.626Z" fill="#FA8A7A"/>
<path d="M126.379 147.5C122.379 144.667 114.579 138.3 115.379 135.5M126.379 147.5L138.879 137.5M126.379 147.5V153M126.379 153L122.879 157M126.379 153L130.379 157" stroke="#503C3C" stroke-width="2" stroke-linecap="round"/>
<path d="M116.879 132.498C120.213 130.998 129.279 129.098 138.879 133.498" stroke="#503C3C" stroke-width="2" stroke-linecap="round"/>
<path d="M110.096 200.57C109.616 199.92 108.601 200.032 108.343 200.798C107.468 203.398 106.297 207.594 106.048 210.834C106.001 211.446 106.546 211.915 107.155 211.835C119.245 210.244 144.066 210.984 151.74 211.85C152.349 211.919 152.884 211.447 152.918 210.834C153.088 207.805 153.883 204.528 154.888 201.503C155.27 200.354 153.042 198.957 152.234 199.859C148.403 204.132 145.545 206.806 142.5 208.5C139.374 209.746 133 194.5 129.5 195C126 195.5 119.5 206 116.5 206C114.42 206 111.618 202.634 110.096 200.57Z" fill="#F6BF4C" stroke="#503C3C" stroke-width="2"/>
<path d="M114 332C117.311 310.62 118.313 300.783 116 293.5C117.765 294.346 119.369 294.941 121.617 295.75C124.291 296.712 126.5 297.5 126.5 297.5C125.467 300.326 116.006 331.129 117.5 331C118.474 334.638 117.148 337.334 116.5 339H112C113.6 337.4 114 334.167 114 332Z" fill="#2A5375" fill-opacity="0.5"/>
<path d="M163.5 208.5C165.601 229.174 169.5 268 179.5 262C174.624 257.944 165.951 224.134 163.5 208.5Z" fill="#2A5375" fill-opacity="0.5"/>
<path d="M72.5315 254.419C73.5648 257.331 77.6593 255.83 78.5 255C80.9403 232.518 96.2494 203.98 104.045 192.271C101.5 191.999 103 192.356 101.5 191.856C94.4 199.364 71.1156 245.625 72.4969 254.286C72.5045 254.333 72.5155 254.374 72.5315 254.419Z" fill="#775959" fill-opacity="0.5"/>
<path d="M130 193.5C105.833 195.333 58.3 186.7 61.5 137.5C63.343 150.655 78.4093 186.103 130 193.5Z" fill="#503C3C" fill-opacity="0.3"/>
<path d="M88.5 199C61.7 191.8 56.9999 161.833 60.4999 142.5C58.8999 170.5 82.1665 185.167 93.9998 189C90.5 195 91.5 193 88.5 199Z" fill="#503C3C" fill-opacity="0.3" stroke="#503C3C" stroke-opacity="0.3"/>
<path d="M211.5 137.5C213.1 165.5 187.834 182.667 176 186.5C183.662 202.538 197.251 239.59 199 253.5C201.5 251.5 198.5 206.5 191 193C210.677 172.699 213.001 146.41 211.5 137.5Z" fill="#503C3C" fill-opacity="0.3" stroke="#503C3C" stroke-opacity="0.3"/>
<path d="M120 69.5C118.4 65.1 113 62.3333 110.5 61.5C117.7 61.9 126.167 68 129 71C128.5 70.5 125.2 69.5 120 69.5Z" fill="#503C3C" fill-opacity="0.3" stroke="#503C3C" stroke-opacity="0.3"/>
<path d="M135.5 65.5C133.9 61.1 128.5 54.8333 126 54C133.2 54.4 143.667 66.5 146.5 69.5C146 69 141 67 135.5 65.5Z" fill="#503C3C" fill-opacity="0.3" stroke="#503C3C" stroke-opacity="0.3"/>
<path d="M116 209.999C110.4 209.599 97.9998 183.999 104.5 194.499C111 204.999 115.526 207.475 117 206.999C121.234 205.85 127.013 196.017 129.5 195.999C131.986 195.981 138.2 209.499 142.5 209.499C146.799 209.499 154 197.999 159.5 191.999C145.5 215.999 142.5 210.999 140 210.999C137.5 210.999 133.5 203.999 129.5 197.999C121.5 205.499 121.6 210.399 116 209.999Z" fill="#503C3C" fill-opacity="0.3" stroke="#503C3C" stroke-opacity="0.3"/>
<defs>
<filter id="filter0_d_903_1915" x="0" y="0" width="286" height="409" filterUnits="userSpaceOnUse" color-interpolation-filters="sRGB">
<feFlood flood-opacity="0" result="BackgroundImageFix"/>
<feColorMatrix in="SourceAlpha" type="matrix" values="0 0 0 0 0 0 0 0 0 0 0 0 0 0 0 0 0 0 127 0" result="hardAlpha"/>
<feOffset dy="4"/>
<feGaussianBlur stdDeviation="2"/>
<feComposite in2="hardAlpha" operator="out"/>
<feColorMatrix type="matrix" values="0 0 0 0 0 0 0 0 0 0 0 0 0 0 0 0 0 0 0.25 0"/>
<feBlend mode="normal" in2="BackgroundImageFix" result="effect1_dropShadow_903_1915"/>
<feBlend mode="normal" in="SourceGraphic" in2="effect1_dropShadow_903_1915" result="shape"/>
</filter>
<linearGradient id="paint0_linear_903_1915" x1="213.5" y1="401" x2="110.5" y2="-18.5" gradientUnits="userSpaceOnUse">
<stop stop-color="#FF4D55"/>
<stop offset="1" stop-color="#F4E8B0"/>
</linearGradient>
</defs>
</svg>
