<svg width="1144" height="486" viewBox="0 0 1144 486" fill="none" xmlns="http://www.w3.org/2000/svg">
<g filter="url(#filter0_d_1036_4712)">
<mask id="path-1-inside-1_1036_4712" fill="white">
<path d="M639.386 20.6025L647.957 0H649.45L655.824 14.6504L662.198 0H1040.37L1046.03 12.8184L1051.68 0H1056.49L1065.06 20.6025L1073.63 0H1130C1135.52 8.76189e-06 1140 4.47716 1140 10V468C1140 473.523 1135.52 478 1130 478H424.079L417.031 461.516L409.983 478H405.158L399.826 465.183L394.494 478H140.744L135.843 467.011L130.941 478H126.402L119.403 461.517L112.404 478H14C8.47716 478 4 473.523 4 468V10C4 4.47716 8.47715 1.85224e-07 14 0H630.814L639.386 20.6025Z"/>
</mask>
<path d="M639.386 20.6025L647.957 0H649.45L655.824 14.6504L662.198 0H1040.37L1046.03 12.8184L1051.68 0H1056.49L1065.06 20.6025L1073.63 0H1130C1135.52 8.76189e-06 1140 4.47716 1140 10V468C1140 473.523 1135.52 478 1130 478H424.079L417.031 461.516L409.983 478H405.158L399.826 465.183L394.494 478H140.744L135.843 467.011L130.941 478H126.402L119.403 461.517L112.404 478H14C8.47716 478 4 473.523 4 468V10C4 4.47716 8.47715 1.85224e-07 14 0H630.814L639.386 20.6025Z" fill="#FEEDD5"/>
<path d="M639.386 20.6025L636.616 21.7549L639.386 28.4127L642.156 21.7549L639.386 20.6025ZM647.957 0V-3H645.956L645.187 -1.15235L647.957 0ZM649.45 0L652.201 -1.19686L651.417 -3H649.45V0ZM655.824 14.6504L653.073 15.8472L655.824 22.1701L658.575 15.8472L655.824 14.6504ZM662.198 0V-3H660.232L659.447 -1.19686L662.198 0ZM1040.37 0L1043.12 -1.21112L1042.33 -3H1040.37V0ZM1046.03 12.8184L1043.28 14.0295L1046.03 20.2495L1048.77 14.0295L1046.03 12.8184ZM1051.68 0V-3H1049.73L1048.94 -1.21112L1051.68 0ZM1056.49 0L1059.26 -1.15235L1058.49 -3H1056.49V0ZM1065.06 20.6025L1062.29 21.7549L1065.06 28.4127L1067.83 21.7549L1065.06 20.6025ZM1073.63 0V-3H1071.63L1070.86 -1.15235L1073.63 0ZM1130 0L1130 -3H1130V0ZM1140 468L1143 468V468H1140ZM1130 478L1130 481H1130L1130 478ZM424.079 478L421.321 479.179L422.099 481H424.079V478ZM417.031 461.516L419.79 460.336L417.031 453.884L414.273 460.336L417.031 461.516ZM409.983 478V481H411.963L412.742 479.179L409.983 478ZM405.158 478L402.388 479.152L403.157 481H405.158V478ZM399.826 465.183L402.596 464.03L399.826 457.372L397.056 464.03L399.826 465.183ZM394.494 478V481H396.495L397.264 479.152L394.494 478ZM140.744 478L138.004 479.222L138.797 481H140.744V478ZM135.843 467.011L138.583 465.789L135.843 459.646L133.103 465.789L135.843 467.011ZM130.941 478V481H132.888L133.681 479.222L130.941 478ZM126.402 478L123.641 479.173L124.417 481H126.402V478ZM119.403 461.517L122.165 460.344L119.403 453.841L116.642 460.344L119.403 461.517ZM112.404 478V481H114.39L115.166 479.173L112.404 478ZM14 478L14 481H14V478ZM4 10L1 10V10H4ZM14 0L14 -3L14 -3L14 0ZM630.814 0L633.584 -1.15235L632.816 -3H630.814V0ZM642.156 21.7549L650.727 1.15235L645.187 -1.15235L636.616 19.4502L642.156 21.7549ZM647.957 3H649.45V-3H647.957V3ZM646.699 1.19686L653.073 15.8472L658.575 13.4535L652.201 -1.19686L646.699 1.19686ZM658.575 15.8472L664.949 1.19686L659.447 -1.19686L653.073 13.4535L658.575 15.8472ZM662.198 3H1040.37V-3H662.198V3ZM1037.63 1.21112L1043.28 14.0295L1048.77 11.6072L1043.12 -1.21112L1037.63 1.21112ZM1048.77 14.0295L1054.43 1.21112L1048.94 -1.21112L1043.28 11.6072L1048.77 14.0295ZM1051.68 3H1056.49V-3H1051.68V3ZM1053.72 1.15235L1062.29 21.7549L1067.83 19.4502L1059.26 -1.15235L1053.72 1.15235ZM1067.83 21.7549L1076.4 1.15235L1070.86 -1.15235L1062.29 19.4502L1067.83 21.7549ZM1073.63 3H1130V-3H1073.63V3ZM1130 3C1133.87 3.00001 1137 6.13402 1137 10H1143C1143 2.8203 1137.18 -2.99999 1130 -3L1130 3ZM1137 10V468H1143V10H1137ZM1137 468C1137 471.866 1133.87 475 1130 475L1130 481C1137.18 481 1143 475.18 1143 468L1137 468ZM1130 475H424.079V481H1130V475ZM426.838 476.821L419.79 460.336L414.273 462.695L421.321 479.179L426.838 476.821ZM414.273 460.336L407.225 476.821L412.742 479.179L419.79 462.695L414.273 460.336ZM409.983 475H405.158V481H409.983V475ZM407.928 476.848L402.596 464.03L397.056 466.335L402.388 479.152L407.928 476.848ZM397.056 464.03L391.724 476.848L397.264 479.152L402.596 466.335L397.056 464.03ZM394.494 475H140.744V481H394.494V475ZM143.484 476.778L138.583 465.789L133.103 468.233L138.004 479.222L143.484 476.778ZM133.103 465.789L128.202 476.778L133.681 479.222L138.583 468.233L133.103 465.789ZM130.941 475H126.402V481H130.941V475ZM129.164 476.827L122.165 460.344L116.642 462.689L123.641 479.173L129.164 476.827ZM116.642 460.344L109.643 476.827L115.166 479.173L122.165 462.689L116.642 460.344ZM112.404 475H14V481H112.404V475ZM14 475C10.134 475 7 471.866 7 468H1C1 475.18 6.82031 481 14 481L14 475ZM7 468V10H1V468H7ZM7 10C7 6.13401 10.134 3 14 3L14 -3C6.8203 -3 1 2.8203 1 10L7 10ZM14 3H630.814V-3H14V3ZM628.045 1.15235L636.616 21.7549L642.156 19.4502L633.584 -1.15235L628.045 1.15235Z" fill="#CDAB94" mask="url(#path-1-inside-1_1036_4712)"/>
</g>
<path d="M506.316 228.858C506.758 229.062 506.928 229.368 506.928 230.014C506.928 230.728 506.656 231 506.01 231H498.088C497.476 231 497.204 230.728 497.204 230.014C497.204 229.368 497.374 228.994 497.816 228.892L498.632 228.654C499.924 228.28 499.788 227.43 499.04 226.274L494.348 219.134L488.772 224.472V226.172C488.772 227.566 489.248 228.11 490.132 228.45L491.118 228.824C491.56 229.028 491.73 229.368 491.73 230.014C491.73 230.728 491.458 231 490.846 231H483.23C482.618 231 482.346 230.728 482.346 230.014C482.346 229.368 482.55 229.028 482.992 228.858L483.978 228.45C484.862 228.076 485.338 227.566 485.338 226.172V212.028C485.338 210.634 484.862 210.09 483.978 209.75L482.992 209.342C482.55 209.172 482.346 208.832 482.346 208.186C482.346 207.472 482.618 207.2 483.23 207.2H490.846C491.458 207.2 491.73 207.472 491.73 208.186C491.73 208.832 491.56 209.172 491.084 209.376L490.098 209.75C489.248 210.09 488.772 210.634 488.772 212.028V221.004L497.714 212.334C498.7 211.348 498.768 210.294 497.748 209.886L496.524 209.376C495.946 209.138 495.776 208.832 495.776 208.186C495.776 207.472 496.048 207.2 496.694 207.2H505.398C506.01 207.2 506.248 207.472 506.248 208.186C506.248 208.832 506.078 209.138 505.636 209.376L504.31 210.056C503.392 210.532 502.746 211.11 501.318 212.47L496.898 216.686L503.256 226.274C504.242 227.702 504.922 228.246 506.316 228.858ZM525.435 224.234C526.285 224.472 526.387 225.084 526.149 225.968C525.469 228.722 522.681 231.544 518.057 231.544C512.787 231.544 509.455 227.6 509.455 222.228C509.455 216.89 512.447 212.742 518.057 212.742C522.511 212.742 525.197 215.632 525.775 218.726C526.013 219.984 525.605 220.562 524.619 220.902L513.297 224.914C514.147 227.09 515.915 228.688 518.499 228.688C521.185 228.688 522.783 227.566 523.871 224.982C524.211 224.234 524.653 224.03 525.435 224.234ZM517.717 215.598C514.521 215.632 512.651 217.91 512.685 221.82C512.685 222.194 512.719 222.534 512.753 222.908L522.375 219.066C521.593 217.128 520.029 215.564 517.717 215.598ZM545.492 224.234C546.342 224.472 546.444 225.084 546.206 225.968C545.526 228.722 542.738 231.544 538.114 231.544C532.844 231.544 529.512 227.6 529.512 222.228C529.512 216.89 532.504 212.742 538.114 212.742C542.568 212.742 545.254 215.632 545.832 218.726C546.07 219.984 545.662 220.562 544.676 220.902L533.354 224.914C534.204 227.09 535.972 228.688 538.556 228.688C541.242 228.688 542.84 227.566 543.928 224.982C544.268 224.234 544.71 224.03 545.492 224.234ZM537.774 215.598C534.578 215.632 532.708 217.91 532.742 221.82C532.742 222.194 532.776 222.534 532.81 222.908L542.432 219.066C541.65 217.128 540.086 215.564 537.774 215.598ZM560.924 212.742C565.31 212.742 569.016 216.38 569.016 221.99C569.016 228.076 565.378 231.544 560.958 231.544C558.17 231.544 556.13 230.286 554.77 228.144V232.972C554.77 234.094 555.178 234.638 557.524 235.08C558.34 235.284 558.442 235.624 558.442 236.202C558.442 236.848 558.204 237.12 557.558 237.12H549.806C549.16 237.12 548.922 236.848 548.922 236.236C548.922 235.624 549.024 235.318 549.772 235.046C551.098 234.604 551.54 234.06 551.54 232.938V218.182C551.54 216.72 551.37 216.448 549.67 215.87C549.092 215.666 548.956 215.496 548.956 214.986C548.956 214.51 549.092 214.34 549.568 214.17L552.832 212.946C554.056 212.504 554.634 212.742 554.634 214.068V216.074C555.926 214.068 558 212.742 560.924 212.742ZM560.822 228.688C563.644 228.654 565.956 226.716 565.888 222.636C565.854 218.964 563.746 215.564 559.768 215.598C556.572 215.632 554.804 217.672 554.77 221.344V221.548C554.804 225.186 556.742 228.722 560.822 228.688ZM591.588 213.286H597.674C598.286 213.286 598.524 213.558 598.524 214.17C598.524 214.782 598.354 214.986 597.912 215.258C597.062 215.768 596.484 216.312 595.77 217.808L589.616 230.626C587.372 235.386 584.55 237.63 580.504 237.63C578.94 237.63 577.954 236.848 577.954 235.556C577.954 234.57 578.702 233.788 580.062 233.924C582.646 234.196 584.55 234.026 586.25 232.19L580.266 217.74C579.722 216.414 579.178 215.904 577.818 215.258C577.342 215.02 577.24 214.782 577.24 214.17C577.24 213.558 577.478 213.286 578.09 213.286H585.128C585.74 213.286 586.012 213.558 586.012 214.17C586.012 214.816 585.91 215.122 585.162 215.36C583.836 215.802 583.496 216.618 584.074 218.08L588.086 228.382L592.676 218.012C593.254 216.652 592.88 215.836 591.52 215.36C590.806 215.122 590.704 214.782 590.704 214.17C590.704 213.558 590.942 213.286 591.588 213.286ZM608.746 231.544C603.238 231.544 600.008 227.294 600.008 221.99C600.008 216.584 603.306 212.742 608.746 212.742C614.152 212.742 617.45 216.89 617.45 221.922C617.45 227.6 614.186 231.544 608.746 231.544ZM609.324 228.688C611.976 228.688 614.254 226.716 614.254 222.772C614.254 219.168 612.112 215.598 608.236 215.598C604.972 215.598 603.238 218.012 603.238 221.412C603.238 225.016 605.278 228.688 609.324 228.688ZM638.778 228.042L639.764 228.382C640.342 228.62 640.512 228.756 640.512 229.3C640.512 229.776 640.376 230.014 639.866 230.184L636.568 231.306C635.31 231.714 634.664 231.476 634.664 230.15V227.634L630.822 230.218C627.49 232.496 623.274 232.054 623.274 226.852V218.318C623.274 217.128 623.172 216.618 622.186 216.244L621.404 215.972C620.792 215.768 620.656 215.598 620.656 215.088C620.656 214.544 620.758 214.374 621.302 214.204L624.566 212.98C625.79 212.538 626.504 212.776 626.504 214.136V226.376C626.504 228.28 627.762 228.994 630.142 227.804L634.664 225.492V218.318C634.664 217.094 634.562 216.652 633.576 216.278L632.76 215.972C632.182 215.734 632.046 215.598 632.046 215.088C632.046 214.544 632.148 214.374 632.692 214.204L635.956 212.98C637.18 212.538 637.894 212.776 637.894 214.136V226.036C637.894 227.158 637.962 227.736 638.778 228.042ZM655.395 212.742C656.313 212.742 656.925 213.32 656.925 214.204C656.925 215.7 655.803 216.244 654.103 216.924C651.995 217.808 650.601 219.032 649.921 220.46V226.852C649.921 227.974 650.329 228.484 652.641 228.96C653.457 229.164 653.593 229.47 653.593 230.082C653.593 230.728 653.355 231 652.675 231H644.957C644.345 231 644.073 230.728 644.073 230.116C644.073 229.504 644.209 229.198 644.923 228.926C646.283 228.484 646.691 227.94 646.691 226.818V218.216C646.691 216.754 646.521 216.482 644.821 215.87C644.209 215.666 644.073 215.496 644.073 214.986C644.073 214.51 644.209 214.34 644.685 214.17L647.983 212.946C649.207 212.504 649.887 212.742 649.887 214.034V217.434C651.451 214.68 653.967 212.742 655.395 212.742ZM676.349 212.742C680.735 212.742 684.441 216.38 684.441 221.99C684.441 228.076 680.803 231.544 676.383 231.544C673.595 231.544 671.555 230.286 670.195 228.144V232.972C670.195 234.094 670.603 234.638 672.949 235.08C673.765 235.284 673.867 235.624 673.867 236.202C673.867 236.848 673.629 237.12 672.983 237.12H665.231C664.585 237.12 664.347 236.848 664.347 236.236C664.347 235.624 664.449 235.318 665.197 235.046C666.523 234.604 666.965 234.06 666.965 232.938V218.182C666.965 216.72 666.795 216.448 665.095 215.87C664.517 215.666 664.381 215.496 664.381 214.986C664.381 214.51 664.517 214.34 664.993 214.17L668.257 212.946C669.481 212.504 670.059 212.742 670.059 214.068V216.074C671.351 214.068 673.425 212.742 676.349 212.742ZM676.247 228.688C679.069 228.654 681.381 226.716 681.313 222.636C681.279 218.964 679.171 215.564 675.193 215.598C671.997 215.632 670.229 217.672 670.195 221.344V221.548C670.229 225.186 672.167 228.722 676.247 228.688ZM706.978 228.926C707.726 229.198 707.862 229.504 707.862 230.116C707.862 230.728 707.59 231 706.944 231H700.348C699.668 231 699.43 230.728 699.43 230.082C699.43 229.47 699.532 229.198 700.246 228.926C701.572 228.484 702.014 227.94 702.014 226.818V218.148C702.014 216.074 700.892 215.19 698.716 216.244L693.514 218.794V226.818C693.514 227.94 693.922 228.484 695.248 228.926C695.962 229.198 696.064 229.47 696.064 230.082C696.064 230.728 695.826 231 695.18 231H688.55C687.904 231 687.666 230.728 687.666 230.116C687.666 229.504 687.802 229.198 688.516 228.926C689.842 228.484 690.284 227.94 690.284 226.818V210.362C690.284 208.9 690.114 208.628 688.38 208.016C687.802 207.812 687.666 207.642 687.666 207.132C687.666 206.656 687.802 206.486 688.244 206.316L691.576 205.092C692.834 204.616 693.514 204.922 693.514 206.18V216.652L697.696 214.034C701.334 211.722 705.244 212.436 705.244 217.23V226.818C705.244 227.94 705.652 228.484 706.978 228.926ZM719.554 231.544C714.046 231.544 710.816 227.294 710.816 221.99C710.816 216.584 714.114 212.742 719.554 212.742C724.96 212.742 728.258 216.89 728.258 221.922C728.258 227.6 724.994 231.544 719.554 231.544ZM720.132 228.688C722.784 228.688 725.062 226.716 725.062 222.772C725.062 219.168 722.92 215.598 719.044 215.598C715.78 215.598 714.046 218.012 714.046 221.412C714.046 225.016 716.086 228.688 720.132 228.688ZM750.437 228.654L751.253 228.994C751.797 229.232 751.933 229.436 751.933 230.082C751.933 230.728 751.695 231 751.117 231H744.351C743.773 231 743.535 230.728 743.535 230.116C743.535 229.47 743.637 229.232 744.181 228.994L745.031 228.654C745.881 228.314 746.119 227.77 746.119 226.818V218.148C746.119 216.074 745.031 215.156 742.821 216.244L737.619 218.794V226.818C737.619 227.77 737.857 228.314 738.707 228.654L739.523 228.994C740.067 229.232 740.169 229.436 740.169 230.082C740.169 230.728 739.931 231 739.387 231H732.621C732.043 231 731.771 230.728 731.771 230.116C731.771 229.47 731.907 229.232 732.451 228.994L733.301 228.654C734.151 228.314 734.389 227.77 734.389 226.818V218.25C734.389 216.992 734.253 216.55 733.199 216.176L732.519 215.938C731.907 215.7 731.771 215.53 731.771 214.986C731.771 214.544 731.907 214.374 732.383 214.204L735.715 212.98C736.973 212.504 737.619 212.81 737.619 214.068V216.686L741.801 214.034C745.439 211.688 749.349 212.436 749.349 217.196V226.818C749.349 227.77 749.587 228.314 750.437 228.654ZM770.86 224.234C771.71 224.472 771.812 225.084 771.574 225.968C770.894 228.722 768.106 231.544 763.482 231.544C758.212 231.544 754.88 227.6 754.88 222.228C754.88 216.89 757.872 212.742 763.482 212.742C767.936 212.742 770.622 215.632 771.2 218.726C771.438 219.984 771.03 220.562 770.044 220.902L758.722 224.914C759.572 227.09 761.34 228.688 763.924 228.688C766.61 228.688 768.208 227.566 769.296 224.982C769.636 224.234 770.078 224.03 770.86 224.234ZM763.142 215.598C759.946 215.632 758.076 217.91 758.11 221.82C758.11 222.194 758.144 222.534 758.178 222.908L767.8 219.066C767.018 217.128 765.454 215.564 763.142 215.598ZM784.56 210.362C783.336 210.362 782.384 209.41 782.384 208.186C782.384 206.962 783.336 206.01 784.56 206.01C785.818 206.01 786.77 206.962 786.77 208.186C786.77 209.41 785.818 210.362 784.56 210.362ZM788.266 231H781.568C780.956 231 780.684 230.728 780.684 230.116C780.684 229.504 780.786 229.3 781.33 229.028L781.942 228.756C782.996 228.314 783.302 227.804 783.302 226.818V218.318C783.302 216.856 783.132 216.55 781.432 215.972C780.82 215.768 780.684 215.564 780.684 215.088C780.684 214.578 780.82 214.374 781.296 214.204L784.628 212.98C785.886 212.504 786.532 212.81 786.532 214.068V226.818C786.532 227.77 786.804 228.314 787.688 228.688L788.3 228.926C789.014 229.232 789.15 229.504 789.15 230.116C789.15 230.728 788.912 231 788.266 231ZM810.906 228.654L811.722 228.994C812.266 229.232 812.402 229.436 812.402 230.082C812.402 230.728 812.164 231 811.586 231H804.82C804.242 231 804.004 230.728 804.004 230.116C804.004 229.47 804.106 229.232 804.65 228.994L805.5 228.654C806.35 228.314 806.588 227.77 806.588 226.818V218.148C806.588 216.074 805.5 215.156 803.29 216.244L798.088 218.794V226.818C798.088 227.77 798.326 228.314 799.176 228.654L799.992 228.994C800.536 229.232 800.638 229.436 800.638 230.082C800.638 230.728 800.4 231 799.856 231H793.09C792.512 231 792.24 230.728 792.24 230.116C792.24 229.47 792.376 229.232 792.92 228.994L793.77 228.654C794.62 228.314 794.858 227.77 794.858 226.818V218.25C794.858 216.992 794.722 216.55 793.668 216.176L792.988 215.938C792.376 215.7 792.24 215.53 792.24 214.986C792.24 214.544 792.376 214.374 792.852 214.204L796.184 212.98C797.442 212.504 798.088 212.81 798.088 214.068V216.686L802.27 214.034C805.908 211.688 809.818 212.436 809.818 217.196V226.818C809.818 227.77 810.056 228.314 810.906 228.654ZM837.212 228.314L837.926 228.552C838.606 228.79 838.81 228.994 838.81 229.538C838.81 230.15 838.64 230.354 838.164 230.49L835.24 231.238C834.22 231.476 833.676 231.034 833.676 229.98V228.008L832.214 229.062C829.358 231.136 827.658 231.544 825.686 231.544C823.17 231.544 821.096 229.878 821.096 226.512C821.096 223.588 823.102 221.412 827.896 220.392L832.962 219.338V217.944C832.962 216.38 832.282 215.428 830.684 215.428C827.114 215.428 825.924 218.318 823.51 218.318C822.626 218.318 822.082 217.774 822.082 216.924C822.082 214.714 826.876 212.742 830.922 212.742C834.56 212.742 836.192 214.646 836.192 218.454V226.614C836.192 227.532 836.396 228.008 837.212 228.314ZM830.854 227.43L832.962 226.104V221.514L829.29 222.466C825.89 223.384 824.326 224.336 824.326 226.444C824.326 228.144 825.312 228.96 826.706 228.96C827.896 228.96 828.848 228.688 830.854 227.43ZM861.023 213.286H867.109C867.721 213.286 867.959 213.558 867.959 214.17C867.959 214.782 867.857 215.02 867.245 215.36C866.293 215.836 865.817 216.482 865.205 217.808L859.459 229.776C858.983 230.796 858.609 231.102 857.147 231.102C855.447 231.102 855.107 230.762 854.665 229.64L849.599 217.502C849.055 216.21 848.613 215.87 847.491 215.36C846.777 215.02 846.675 214.782 846.675 214.17C846.675 213.558 846.913 213.286 847.525 213.286H854.563C855.209 213.286 855.447 213.558 855.447 214.204C855.447 214.816 855.345 215.122 854.597 215.394C853.271 215.836 852.931 216.618 853.509 218.08L857.555 228.314L862.111 218.012C862.723 216.618 862.315 215.802 860.955 215.36C860.241 215.088 860.139 214.782 860.139 214.204C860.139 213.558 860.377 213.286 861.023 213.286ZM885.589 224.234C886.439 224.472 886.541 225.084 886.303 225.968C885.623 228.722 882.835 231.544 878.211 231.544C872.941 231.544 869.609 227.6 869.609 222.228C869.609 216.89 872.601 212.742 878.211 212.742C882.665 212.742 885.351 215.632 885.929 218.726C886.167 219.984 885.759 220.562 884.773 220.902L873.451 224.914C874.301 227.09 876.069 228.688 878.653 228.688C881.339 228.688 882.937 227.566 884.025 224.982C884.365 224.234 884.807 224.03 885.589 224.234ZM877.871 215.598C874.675 215.632 872.805 217.91 872.839 221.82C872.839 222.194 872.873 222.534 872.907 222.908L882.529 219.066C881.747 217.128 880.183 215.564 877.871 215.598ZM901.056 212.742C901.974 212.742 902.586 213.32 902.586 214.204C902.586 215.7 901.464 216.244 899.764 216.924C897.656 217.808 896.262 219.032 895.582 220.46V226.852C895.582 227.974 895.99 228.484 898.302 228.96C899.118 229.164 899.254 229.47 899.254 230.082C899.254 230.728 899.016 231 898.336 231H890.618C890.006 231 889.734 230.728 889.734 230.116C889.734 229.504 889.87 229.198 890.584 228.926C891.944 228.484 892.352 227.94 892.352 226.818V218.216C892.352 216.754 892.182 216.482 890.482 215.87C889.87 215.666 889.734 215.496 889.734 214.986C889.734 214.51 889.87 214.34 890.346 214.17L893.644 212.946C894.868 212.504 895.548 212.742 895.548 214.034V217.434C897.112 214.68 899.628 212.742 901.056 212.742ZM918.098 224.948C918.812 225.152 919.05 225.764 918.71 226.614C917.792 229.164 915.718 231.544 912.454 231.544C908.748 231.544 907.184 228.96 907.184 224.982V215.938H905.416C904.906 215.938 904.668 215.734 904.668 215.054C904.668 214.51 904.77 214.408 905.212 213.864L908.782 209.92C909.292 209.342 910.414 209.58 910.414 210.328V213.286H916.16C917.044 213.286 917.316 213.592 917.316 214.578C917.316 215.53 917.044 215.938 916.16 215.938H910.414V225.152C910.414 227.872 911.332 228.824 912.862 228.824C914.664 228.824 915.548 227.532 916.568 225.492C916.874 224.948 917.282 224.71 918.098 224.948ZM925.388 210.362C924.164 210.362 923.212 209.41 923.212 208.186C923.212 206.962 924.164 206.01 925.388 206.01C926.646 206.01 927.598 206.962 927.598 208.186C927.598 209.41 926.646 210.362 925.388 210.362ZM929.094 231H922.396C921.784 231 921.512 230.728 921.512 230.116C921.512 229.504 921.614 229.3 922.158 229.028L922.77 228.756C923.824 228.314 924.13 227.804 924.13 226.818V218.318C924.13 216.856 923.96 216.55 922.26 215.972C921.648 215.768 921.512 215.564 921.512 215.088C921.512 214.578 921.648 214.374 922.124 214.204L925.456 212.98C926.714 212.504 927.36 212.81 927.36 214.068V226.818C927.36 227.77 927.632 228.314 928.516 228.688L929.128 228.926C929.842 229.232 929.978 229.504 929.978 230.116C929.978 230.728 929.74 231 929.094 231ZM941.568 231.544C936.332 231.544 933 227.736 933 222.024C933 216.788 936.196 212.742 941.806 212.742C946.26 212.742 949.218 216.312 949.218 218.318C949.218 219.406 948.538 219.984 947.62 219.984C946.566 219.984 946.09 219.44 945.274 218.046C944.322 216.414 943.132 215.326 941.058 215.326C937.998 215.326 936.196 217.876 936.196 221.548C936.196 225.526 938.474 228.688 942.18 228.688C944.56 228.688 946.09 227.6 947.178 225.05C947.484 224.302 948.028 224.132 948.674 224.336C949.422 224.54 949.558 225.22 949.286 226.104C948.504 228.62 946.158 231.544 941.568 231.544ZM968.61 228.314L969.324 228.552C970.004 228.79 970.208 228.994 970.208 229.538C970.208 230.15 970.038 230.354 969.562 230.49L966.638 231.238C965.618 231.476 965.074 231.034 965.074 229.98V228.008L963.612 229.062C960.756 231.136 959.056 231.544 957.084 231.544C954.568 231.544 952.494 229.878 952.494 226.512C952.494 223.588 954.5 221.412 959.294 220.392L964.36 219.338V217.944C964.36 216.38 963.68 215.428 962.082 215.428C958.512 215.428 957.322 218.318 954.908 218.318C954.024 218.318 953.48 217.774 953.48 216.924C953.48 214.714 958.274 212.742 962.32 212.742C965.958 212.742 967.59 214.646 967.59 218.454V226.614C967.59 227.532 967.794 228.008 968.61 228.314ZM962.252 227.43L964.36 226.104V221.514L960.688 222.466C957.288 223.384 955.724 224.336 955.724 226.444C955.724 228.144 956.71 228.96 958.104 228.96C959.294 228.96 960.246 228.688 962.252 227.43ZM980.621 231H973.957C973.311 231 973.073 230.728 973.073 230.116C973.073 229.504 973.175 229.198 973.685 228.994L974.365 228.756C975.317 228.416 975.691 227.804 975.691 226.818V210.328C975.691 209.104 975.555 208.696 974.535 208.288L973.821 207.982C973.243 207.744 973.107 207.608 973.107 207.098C973.107 206.622 973.243 206.486 973.685 206.316L976.983 205.058C978.241 204.616 978.921 204.854 978.921 206.146V226.818C978.921 227.804 979.261 228.416 980.213 228.756L980.927 228.994C981.403 229.198 981.539 229.504 981.539 230.116C981.539 230.728 981.267 231 980.621 231ZM492.886 253.742C497.272 253.742 500.978 257.38 500.978 262.99C500.978 269.076 497.34 272.544 492.92 272.544C490.132 272.544 488.092 271.286 486.732 269.144V273.972C486.732 275.094 487.14 275.638 489.486 276.08C490.302 276.284 490.404 276.624 490.404 277.202C490.404 277.848 490.166 278.12 489.52 278.12H481.768C481.122 278.12 480.884 277.848 480.884 277.236C480.884 276.624 480.986 276.318 481.734 276.046C483.06 275.604 483.502 275.06 483.502 273.938V259.182C483.502 257.72 483.332 257.448 481.632 256.87C481.054 256.666 480.918 256.496 480.918 255.986C480.918 255.51 481.054 255.34 481.53 255.17L484.794 253.946C486.018 253.504 486.596 253.742 486.596 255.068V257.074C487.888 255.068 489.962 253.742 492.886 253.742ZM492.784 269.688C495.606 269.654 497.918 267.716 497.85 263.636C497.816 259.964 495.708 256.564 491.73 256.598C488.534 256.632 486.766 258.672 486.732 262.344V262.548C486.766 266.186 488.704 269.722 492.784 269.688ZM513.213 272.544C507.705 272.544 504.475 268.294 504.475 262.99C504.475 257.584 507.773 253.742 513.213 253.742C518.619 253.742 521.917 257.89 521.917 262.922C521.917 268.6 518.653 272.544 513.213 272.544ZM513.791 269.688C516.443 269.688 518.721 267.716 518.721 263.772C518.721 260.168 516.579 256.598 512.703 256.598C509.439 256.598 507.705 259.012 507.705 262.412C507.705 266.016 509.745 269.688 513.791 269.688ZM533.793 261.596C537.125 262.378 539.437 263.874 539.437 267.172C539.437 270.572 537.329 272.544 533.521 272.544C531.379 272.544 529.917 271.49 528.829 270.164L528.659 271.252C528.523 272.068 528.183 272.204 527.503 272.204C526.653 272.204 526.517 272 526.211 270.742L525.259 266.798C525.055 265.846 525.225 265.574 526.075 265.2C526.891 264.894 527.299 265.132 527.673 265.608C529.373 268.328 531.073 269.892 533.351 269.892C535.221 269.892 536.411 269.008 536.411 267.376C536.411 265.506 534.881 264.996 531.209 264.146C527.503 263.262 525.633 261.426 525.633 258.4C525.633 255.714 527.673 253.742 530.359 253.742C532.773 253.742 534.269 254.83 535.357 256.19L535.527 255.034C535.663 254.218 536.003 254.082 536.683 254.082C537.567 254.082 537.703 254.286 537.975 255.544L538.723 258.842C538.927 259.794 538.757 260.168 537.907 260.508C537.125 260.848 536.717 260.61 536.309 260.1C534.745 257.754 533.181 256.36 531.073 256.36C529.645 256.36 528.659 256.938 528.659 258.298C528.659 260.202 530.019 260.712 533.793 261.596ZM546.971 251.362C545.747 251.362 544.795 250.41 544.795 249.186C544.795 247.962 545.747 247.01 546.971 247.01C548.229 247.01 549.181 247.962 549.181 249.186C549.181 250.41 548.229 251.362 546.971 251.362ZM550.677 272H543.979C543.367 272 543.095 271.728 543.095 271.116C543.095 270.504 543.197 270.3 543.741 270.028L544.353 269.756C545.407 269.314 545.713 268.804 545.713 267.818V259.318C545.713 257.856 545.543 257.55 543.843 256.972C543.231 256.768 543.095 256.564 543.095 256.088C543.095 255.578 543.231 255.374 543.707 255.204L547.039 253.98C548.297 253.504 548.943 253.81 548.943 255.068V267.818C548.943 268.77 549.215 269.314 550.099 269.688L550.711 269.926C551.425 270.232 551.561 270.504 551.561 271.116C551.561 271.728 551.323 272 550.677 272ZM567.707 265.948C568.421 266.152 568.659 266.764 568.319 267.614C567.401 270.164 565.327 272.544 562.063 272.544C558.357 272.544 556.793 269.96 556.793 265.982V256.938H555.025C554.515 256.938 554.277 256.734 554.277 256.054C554.277 255.51 554.379 255.408 554.821 254.864L558.391 250.92C558.901 250.342 560.023 250.58 560.023 251.328V254.286H565.769C566.653 254.286 566.925 254.592 566.925 255.578C566.925 256.53 566.653 256.938 565.769 256.938H560.023V266.152C560.023 268.872 560.941 269.824 562.471 269.824C564.273 269.824 565.157 268.532 566.177 266.492C566.483 265.948 566.891 265.71 567.707 265.948ZM574.997 251.362C573.773 251.362 572.821 250.41 572.821 249.186C572.821 247.962 573.773 247.01 574.997 247.01C576.255 247.01 577.207 247.962 577.207 249.186C577.207 250.41 576.255 251.362 574.997 251.362ZM578.703 272H572.005C571.393 272 571.121 271.728 571.121 271.116C571.121 270.504 571.223 270.3 571.767 270.028L572.379 269.756C573.433 269.314 573.739 268.804 573.739 267.818V259.318C573.739 257.856 573.569 257.55 571.869 256.972C571.257 256.768 571.121 256.564 571.121 256.088C571.121 255.578 571.257 255.374 571.733 255.204L575.065 253.98C576.323 253.504 576.969 253.81 576.969 255.068V267.818C576.969 268.77 577.241 269.314 578.125 269.688L578.737 269.926C579.451 270.232 579.587 270.504 579.587 271.116C579.587 271.728 579.349 272 578.703 272ZM591.348 272.544C585.84 272.544 582.61 268.294 582.61 262.99C582.61 257.584 585.908 253.742 591.348 253.742C596.754 253.742 600.052 257.89 600.052 262.922C600.052 268.6 596.788 272.544 591.348 272.544ZM591.926 269.688C594.578 269.688 596.856 267.716 596.856 263.772C596.856 260.168 594.714 256.598 590.838 256.598C587.574 256.598 585.84 259.012 585.84 262.412C585.84 266.016 587.88 269.688 591.926 269.688ZM622.23 269.654L623.046 269.994C623.59 270.232 623.726 270.436 623.726 271.082C623.726 271.728 623.488 272 622.91 272H616.144C615.566 272 615.328 271.728 615.328 271.116C615.328 270.47 615.43 270.232 615.974 269.994L616.824 269.654C617.674 269.314 617.912 268.77 617.912 267.818V259.148C617.912 257.074 616.824 256.156 614.614 257.244L609.412 259.794V267.818C609.412 268.77 609.65 269.314 610.5 269.654L611.316 269.994C611.86 270.232 611.962 270.436 611.962 271.082C611.962 271.728 611.724 272 611.18 272H604.414C603.836 272 603.564 271.728 603.564 271.116C603.564 270.47 603.7 270.232 604.244 269.994L605.094 269.654C605.944 269.314 606.182 268.77 606.182 267.818V259.25C606.182 257.992 606.046 257.55 604.992 257.176L604.312 256.938C603.7 256.7 603.564 256.53 603.564 255.986C603.564 255.544 603.7 255.374 604.176 255.204L607.508 253.98C608.766 253.504 609.412 253.81 609.412 255.068V257.686L613.594 255.034C617.232 252.688 621.142 253.436 621.142 258.196V267.818C621.142 268.77 621.38 269.314 622.23 269.654ZM645.477 265.948C646.191 266.152 646.429 266.764 646.089 267.614C645.171 270.164 643.097 272.544 639.833 272.544C636.127 272.544 634.563 269.96 634.563 265.982V256.938H632.795C632.285 256.938 632.047 256.734 632.047 256.054C632.047 255.51 632.149 255.408 632.591 254.864L636.161 250.92C636.671 250.342 637.793 250.58 637.793 251.328V254.286H643.539C644.423 254.286 644.695 254.592 644.695 255.578C644.695 256.53 644.423 256.938 643.539 256.938H637.793V266.152C637.793 268.872 638.711 269.824 640.241 269.824C642.043 269.824 642.927 268.532 643.947 266.492C644.253 265.948 644.661 265.71 645.477 265.948ZM667.863 269.926C668.611 270.198 668.747 270.504 668.747 271.116C668.747 271.728 668.475 272 667.829 272H661.233C660.553 272 660.315 271.728 660.315 271.082C660.315 270.47 660.417 270.198 661.131 269.926C662.457 269.484 662.899 268.94 662.899 267.818V259.148C662.899 257.074 661.777 256.19 659.601 257.244L654.399 259.794V267.818C654.399 268.94 654.807 269.484 656.133 269.926C656.847 270.198 656.949 270.47 656.949 271.082C656.949 271.728 656.711 272 656.065 272H649.435C648.789 272 648.551 271.728 648.551 271.116C648.551 270.504 648.687 270.198 649.401 269.926C650.727 269.484 651.169 268.94 651.169 267.818V251.362C651.169 249.9 650.999 249.628 649.265 249.016C648.687 248.812 648.551 248.642 648.551 248.132C648.551 247.656 648.687 247.486 649.129 247.316L652.461 246.092C653.719 245.616 654.399 245.922 654.399 247.18V257.652L658.581 255.034C662.219 252.722 666.129 253.436 666.129 258.23V267.818C666.129 268.94 666.537 269.484 667.863 269.926ZM683.091 253.742C684.009 253.742 684.621 254.32 684.621 255.204C684.621 256.7 683.499 257.244 681.799 257.924C679.691 258.808 678.297 260.032 677.617 261.46V267.852C677.617 268.974 678.025 269.484 680.337 269.96C681.153 270.164 681.289 270.47 681.289 271.082C681.289 271.728 681.051 272 680.371 272H672.653C672.041 272 671.769 271.728 671.769 271.116C671.769 270.504 671.905 270.198 672.619 269.926C673.979 269.484 674.387 268.94 674.387 267.818V259.216C674.387 257.754 674.217 257.482 672.517 256.87C671.905 256.666 671.769 256.496 671.769 255.986C671.769 255.51 671.905 255.34 672.381 255.17L675.679 253.946C676.903 253.504 677.583 253.742 677.583 255.034V258.434C679.147 255.68 681.663 253.742 683.091 253.742ZM695.416 272.544C689.908 272.544 686.678 268.294 686.678 262.99C686.678 257.584 689.976 253.742 695.416 253.742C700.822 253.742 704.12 257.89 704.12 262.922C704.12 268.6 700.856 272.544 695.416 272.544ZM695.994 269.688C698.646 269.688 700.924 267.716 700.924 263.772C700.924 260.168 698.782 256.598 694.906 256.598C691.642 256.598 689.908 259.012 689.908 262.412C689.908 266.016 691.948 269.688 695.994 269.688ZM725.448 269.042L726.434 269.382C727.012 269.62 727.182 269.756 727.182 270.3C727.182 270.776 727.046 271.014 726.536 271.184L723.238 272.306C721.98 272.714 721.334 272.476 721.334 271.15V268.634L717.492 271.218C714.16 273.496 709.944 273.054 709.944 267.852V259.318C709.944 258.128 709.842 257.618 708.856 257.244L708.074 256.972C707.462 256.768 707.326 256.598 707.326 256.088C707.326 255.544 707.428 255.374 707.972 255.204L711.236 253.98C712.46 253.538 713.174 253.776 713.174 255.136V267.376C713.174 269.28 714.432 269.994 716.812 268.804L721.334 266.492V259.318C721.334 258.094 721.232 257.652 720.246 257.278L719.43 256.972C718.852 256.734 718.716 256.598 718.716 256.088C718.716 255.544 718.818 255.374 719.362 255.204L722.626 253.98C723.85 253.538 724.564 253.776 724.564 255.136V267.036C724.564 268.158 724.632 268.736 725.448 269.042ZM738.019 268.94H741.895C745.159 268.94 747.335 269.892 747.335 272.986C747.335 276.794 743.493 278.664 738.257 278.664C732.477 278.664 729.553 277.134 729.553 274.516C729.553 272.748 730.913 271.49 733.735 270.98C732.885 270.334 732.375 269.45 732.375 268.43C732.375 267.24 732.953 266.186 734.347 265.574C732.171 264.452 730.947 262.344 730.947 259.862C730.947 256.598 733.225 253.742 738.257 253.742C740.875 253.742 741.997 253.64 743.935 252.416C744.649 251.94 745.295 251.6 745.975 251.6C746.825 251.6 747.335 252.144 747.335 252.994C747.335 254.864 745.159 255.272 742.099 255.136C744.037 256.258 744.955 258.094 744.955 259.862C744.955 263.466 742.677 266.356 737.951 266.356H737.883C736.115 266.356 735.197 266.73 735.197 267.648C735.197 268.362 735.979 268.94 738.019 268.94ZM737.951 256.156C735.673 256.156 734.109 257.346 734.109 259.624C734.109 262.276 735.741 263.874 738.019 263.874C740.297 263.874 741.827 262.684 741.827 260.372C741.827 257.754 740.229 256.156 737.951 256.156ZM738.393 276.046C742.167 276.046 744.479 274.992 744.479 273.428C744.479 272.34 743.765 272.034 741.963 272.034H737.135C733.667 272.034 732.715 272.884 732.715 273.938C732.715 275.196 733.939 276.046 738.393 276.046ZM768.875 269.926C769.623 270.198 769.759 270.504 769.759 271.116C769.759 271.728 769.487 272 768.841 272H762.245C761.565 272 761.327 271.728 761.327 271.082C761.327 270.47 761.429 270.198 762.143 269.926C763.469 269.484 763.911 268.94 763.911 267.818V259.148C763.911 257.074 762.789 256.19 760.613 257.244L755.411 259.794V267.818C755.411 268.94 755.819 269.484 757.145 269.926C757.859 270.198 757.961 270.47 757.961 271.082C757.961 271.728 757.723 272 757.077 272H750.447C749.801 272 749.563 271.728 749.563 271.116C749.563 270.504 749.699 270.198 750.413 269.926C751.739 269.484 752.181 268.94 752.181 267.818V251.362C752.181 249.9 752.011 249.628 750.277 249.016C749.699 248.812 749.563 248.642 749.563 248.132C749.563 247.656 749.699 247.486 750.141 247.316L753.473 246.092C754.731 245.616 755.411 245.922 755.411 247.18V257.652L759.593 255.034C763.231 252.722 767.141 253.436 767.141 258.23V267.818C767.141 268.94 767.549 269.484 768.875 269.926ZM781.451 272.544C775.943 272.544 772.713 268.294 772.713 262.99C772.713 257.584 776.011 253.742 781.451 253.742C786.857 253.742 790.155 257.89 790.155 262.922C790.155 268.6 786.891 272.544 781.451 272.544ZM782.029 269.688C784.681 269.688 786.959 267.716 786.959 263.772C786.959 260.168 784.817 256.598 780.941 256.598C777.677 256.598 775.943 259.012 775.943 262.412C775.943 266.016 777.983 269.688 782.029 269.688ZM811.484 269.042L812.47 269.382C813.048 269.62 813.218 269.756 813.218 270.3C813.218 270.776 813.082 271.014 812.572 271.184L809.274 272.306C808.016 272.714 807.37 272.476 807.37 271.15V268.634L803.528 271.218C800.196 273.496 795.98 273.054 795.98 267.852V259.318C795.98 258.128 795.878 257.618 794.892 257.244L794.11 256.972C793.498 256.768 793.362 256.598 793.362 256.088C793.362 255.544 793.464 255.374 794.008 255.204L797.272 253.98C798.496 253.538 799.21 253.776 799.21 255.136V267.376C799.21 269.28 800.468 269.994 802.848 268.804L807.37 266.492V259.318C807.37 258.094 807.268 257.652 806.282 257.278L805.466 256.972C804.888 256.734 804.752 256.598 804.752 256.088C804.752 255.544 804.854 255.374 805.398 255.204L808.662 253.98C809.886 253.538 810.6 253.776 810.6 255.136V267.036C810.6 268.158 810.668 268.736 811.484 269.042ZM829.834 265.948C830.548 266.152 830.786 266.764 830.446 267.614C829.528 270.164 827.454 272.544 824.19 272.544C820.484 272.544 818.92 269.96 818.92 265.982V256.938H817.152C816.642 256.938 816.404 256.734 816.404 256.054C816.404 255.51 816.506 255.408 816.948 254.864L820.518 250.92C821.028 250.342 822.15 250.58 822.15 251.328V254.286H827.896C828.78 254.286 829.052 254.592 829.052 255.578C829.052 256.53 828.78 256.938 827.896 256.938H822.15V266.152C822.15 268.872 823.068 269.824 824.598 269.824C826.4 269.824 827.284 268.532 828.304 266.492C828.61 265.948 829.018 265.71 829.834 265.948ZM851.984 265.948C852.698 266.152 852.936 266.764 852.596 267.614C851.678 270.164 849.604 272.544 846.34 272.544C842.634 272.544 841.07 269.96 841.07 265.982V256.938H839.302C838.792 256.938 838.554 256.734 838.554 256.054C838.554 255.51 838.656 255.408 839.098 254.864L842.668 250.92C843.178 250.342 844.3 250.58 844.3 251.328V254.286H850.046C850.93 254.286 851.202 254.592 851.202 255.578C851.202 256.53 850.93 256.938 850.046 256.938H844.3V266.152C844.3 268.872 845.218 269.824 846.748 269.824C848.55 269.824 849.434 268.532 850.454 266.492C850.76 265.948 851.168 265.71 851.984 265.948ZM874.37 269.926C875.118 270.198 875.254 270.504 875.254 271.116C875.254 271.728 874.982 272 874.336 272H867.74C867.06 272 866.822 271.728 866.822 271.082C866.822 270.47 866.924 270.198 867.638 269.926C868.964 269.484 869.406 268.94 869.406 267.818V259.148C869.406 257.074 868.284 256.19 866.108 257.244L860.906 259.794V267.818C860.906 268.94 861.314 269.484 862.64 269.926C863.354 270.198 863.456 270.47 863.456 271.082C863.456 271.728 863.218 272 862.572 272H855.942C855.296 272 855.058 271.728 855.058 271.116C855.058 270.504 855.194 270.198 855.908 269.926C857.234 269.484 857.676 268.94 857.676 267.818V251.362C857.676 249.9 857.506 249.628 855.772 249.016C855.194 248.812 855.058 248.642 855.058 248.132C855.058 247.656 855.194 247.486 855.636 247.316L858.968 246.092C860.226 245.616 860.906 245.922 860.906 247.18V257.652L865.088 255.034C868.726 252.722 872.636 253.436 872.636 258.23V267.818C872.636 268.94 873.044 269.484 874.37 269.926ZM894.189 265.234C895.039 265.472 895.141 266.084 894.903 266.968C894.223 269.722 891.435 272.544 886.811 272.544C881.541 272.544 878.209 268.6 878.209 263.228C878.209 257.89 881.201 253.742 886.811 253.742C891.265 253.742 893.951 256.632 894.529 259.726C894.767 260.984 894.359 261.562 893.373 261.902L882.051 265.914C882.901 268.09 884.669 269.688 887.253 269.688C889.939 269.688 891.537 268.566 892.625 265.982C892.965 265.234 893.407 265.03 894.189 265.234ZM886.471 256.598C883.275 256.632 881.405 258.91 881.439 262.82C881.439 263.194 881.473 263.534 881.507 263.908L891.129 260.066C890.347 258.128 888.783 256.564 886.471 256.598ZM915.334 253.742C916.252 253.742 916.864 254.32 916.864 255.204C916.864 256.7 915.742 257.244 914.042 257.924C911.934 258.808 910.54 260.032 909.86 261.46V267.852C909.86 268.974 910.268 269.484 912.58 269.96C913.396 270.164 913.532 270.47 913.532 271.082C913.532 271.728 913.294 272 912.614 272H904.896C904.284 272 904.012 271.728 904.012 271.116C904.012 270.504 904.148 270.198 904.862 269.926C906.222 269.484 906.63 268.94 906.63 267.818V259.216C906.63 257.754 906.46 257.482 904.76 256.87C904.148 256.666 904.012 256.496 904.012 255.986C904.012 255.51 904.148 255.34 904.624 255.17L907.922 253.946C909.146 253.504 909.826 253.742 909.826 255.034V258.434C911.39 255.68 913.906 253.742 915.334 253.742ZM934.839 269.314L935.553 269.552C936.233 269.79 936.437 269.994 936.437 270.538C936.437 271.15 936.267 271.354 935.791 271.49L932.867 272.238C931.847 272.476 931.303 272.034 931.303 270.98V269.008L929.841 270.062C926.985 272.136 925.285 272.544 923.313 272.544C920.797 272.544 918.723 270.878 918.723 267.512C918.723 264.588 920.729 262.412 925.523 261.392L930.589 260.338V258.944C930.589 257.38 929.909 256.428 928.311 256.428C924.741 256.428 923.551 259.318 921.137 259.318C920.253 259.318 919.709 258.774 919.709 257.924C919.709 255.714 924.503 253.742 928.549 253.742C932.187 253.742 933.819 255.646 933.819 259.454V267.614C933.819 268.532 934.023 269.008 934.839 269.314ZM928.481 268.43L930.589 267.104V262.514L926.917 263.466C923.517 264.384 921.953 265.336 921.953 267.444C921.953 269.144 922.939 269.96 924.333 269.96C925.523 269.96 926.475 269.688 928.481 268.43ZM948.143 272.544C942.907 272.544 939.575 268.736 939.575 263.024C939.575 257.788 942.771 253.742 948.381 253.742C952.835 253.742 955.793 257.312 955.793 259.318C955.793 260.406 955.113 260.984 954.195 260.984C953.141 260.984 952.665 260.44 951.849 259.046C950.897 257.414 949.707 256.326 947.633 256.326C944.573 256.326 942.771 258.876 942.771 262.548C942.771 266.526 945.049 269.688 948.755 269.688C951.135 269.688 952.665 268.6 953.753 266.05C954.059 265.302 954.603 265.132 955.249 265.336C955.997 265.54 956.133 266.22 955.861 267.104C955.079 269.62 952.733 272.544 948.143 272.544ZM974.98 265.234C975.83 265.472 975.932 266.084 975.694 266.968C975.014 269.722 972.226 272.544 967.602 272.544C962.332 272.544 959 268.6 959 263.228C959 257.89 961.992 253.742 967.602 253.742C972.056 253.742 974.742 256.632 975.32 259.726C975.558 260.984 975.15 261.562 974.164 261.902L962.842 265.914C963.692 268.09 965.46 269.688 968.044 269.688C970.73 269.688 972.328 268.566 973.416 265.982C973.756 265.234 974.198 265.03 974.98 265.234ZM967.262 256.598C964.066 256.632 962.196 258.91 962.23 262.82C962.23 263.194 962.264 263.534 962.298 263.908L971.92 260.066C971.138 258.128 969.574 256.564 967.262 256.598ZM981.912 272.544C980.688 272.544 979.736 271.592 979.736 270.334C979.736 269.11 980.688 268.158 981.912 268.158C983.17 268.158 984.122 269.11 984.122 270.334C984.122 271.592 983.17 272.544 981.912 272.544Z" fill="#583311"/>
<ellipse cx="482.994" cy="115.312" rx="2.92589" ry="2.9943" transform="rotate(-90 482.994 115.312)" fill="#D1AF98"/>
<ellipse cx="491.978" cy="115.312" rx="2.92589" ry="2.9943" transform="rotate(-90 491.978 115.312)" fill="#D1AF98"/>
<ellipse cx="487.486" cy="119.703" rx="2.92589" ry="2.9943" transform="rotate(-90 487.486 119.703)" fill="#D1AF98"/>
<ellipse cx="487.486" cy="110.926" rx="2.92589" ry="2.9943" transform="rotate(-90 487.486 110.926)" fill="#D1AF98"/>
<path d="M499 115L948 115" stroke="#D1AF98" stroke-width="2"/>
<path d="M959.952 119.6V119.616C959.802 119.594 959.462 119.583 958.931 119.583C958.161 119.583 957.708 119.561 957.569 119.517C957.647 119.472 957.76 119.428 957.91 119.384C958.065 119.334 958.186 119.279 958.275 119.218C958.369 119.151 958.452 119.052 958.524 118.919C958.535 118.897 958.554 118.853 958.582 118.786C958.615 118.72 958.64 118.67 958.657 118.637L958.897 118.545L958.69 118.396L958.707 118.089C958.823 117.973 958.881 117.798 958.881 117.566C958.881 117.538 958.867 117.488 958.839 117.417C958.817 117.345 958.809 117.292 958.814 117.259L958.98 115.441C958.992 115.352 959.019 115.189 959.063 114.951C959.108 114.708 959.13 114.52 959.13 114.387C959.108 114.32 959.097 114.218 959.097 114.08C959.097 113.875 959.077 113.565 959.039 113.15C959 112.735 958.98 112.425 958.98 112.22C958.98 112.181 958.989 112.129 959.005 112.062C959.028 111.991 959.041 111.944 959.047 111.921C959.08 111.75 959.097 111.493 959.097 111.149C959.097 111.072 959.088 110.967 959.072 110.834C959.055 110.696 959.047 110.588 959.047 110.51C959.047 110.411 959.066 110.275 959.105 110.104C959.144 109.932 959.166 109.824 959.171 109.78L959.113 109.672C959.025 109.661 958.889 109.655 958.707 109.655C958.624 109.655 958.505 109.653 958.35 109.647C958.195 109.641 958.076 109.639 957.993 109.639C957.832 109.572 957.572 109.539 957.212 109.539C957.102 109.539 956.938 109.55 956.723 109.572C956.512 109.594 956.357 109.605 956.258 109.605C956.197 109.605 956.083 109.556 955.917 109.456C955.829 109.605 955.757 109.688 955.702 109.705C955.585 109.744 955.37 109.788 955.054 109.838C954.744 109.882 954.506 109.946 954.34 110.029C954.335 110.029 954.329 110.026 954.324 110.021C954.318 110.015 954.313 110.012 954.307 110.012C954.279 110.012 954.238 110.023 954.183 110.045C954.133 110.068 954.094 110.079 954.066 110.079L954.033 110.062L954 109.962C954.304 109.381 954.479 109.069 954.523 109.024C954.661 108.914 954.725 108.825 954.714 108.759C954.742 108.709 954.783 108.637 954.838 108.543C954.899 108.449 954.946 108.374 954.979 108.319C955.013 108.258 955.049 108.186 955.087 108.103C955.132 108.014 955.165 107.931 955.187 107.854C955.292 107.821 955.428 107.754 955.594 107.655C955.76 107.555 955.873 107.492 955.934 107.464C955.945 107.464 955.959 107.467 955.976 107.472C955.998 107.478 956.014 107.48 956.025 107.48C956.125 107.48 956.202 107.469 956.258 107.447L956.291 107.414H956.349C956.499 107.414 956.662 107.447 956.839 107.514L956.938 107.788C956.972 107.777 957.019 107.738 957.08 107.671C957.14 107.599 957.196 107.563 957.246 107.563C957.34 107.563 957.475 107.569 957.652 107.58C957.829 107.591 957.965 107.597 958.059 107.597L958.134 107.63C958.278 107.63 958.493 107.658 958.781 107.713C959.069 107.763 959.288 107.788 959.437 107.788L959.578 107.995C959.633 107.984 959.722 107.948 959.844 107.887C959.971 107.821 960.073 107.788 960.151 107.788C960.488 107.788 960.998 107.81 961.678 107.854C962.359 107.898 962.871 107.92 963.214 107.92C963.474 107.92 963.839 107.879 964.31 107.796C964.785 107.713 965.178 107.63 965.488 107.547C965.505 107.552 965.552 107.575 965.629 107.613C965.707 107.646 965.768 107.666 965.812 107.671L965.92 107.53C966.119 107.447 966.327 107.375 966.542 107.314L966.717 107.348C966.49 107.724 966.343 108.039 966.277 108.294C966.199 108.394 966.125 108.565 966.053 108.809C965.876 109.03 965.757 109.215 965.696 109.365C965.624 109.426 965.477 109.564 965.256 109.78C965.217 109.78 965.159 109.777 965.082 109.771C965.01 109.76 964.954 109.755 964.916 109.755C964.816 109.755 964.622 109.78 964.334 109.83C964.263 109.758 964.099 109.722 963.845 109.722C963.767 109.722 963.657 109.716 963.513 109.705C963.369 109.694 963.258 109.688 963.181 109.688C963.087 109.688 962.993 109.697 962.898 109.713C962.804 109.73 962.691 109.758 962.558 109.796C962.425 109.83 962.337 109.852 962.292 109.863L962.176 109.78C961.949 109.868 961.684 109.913 961.379 109.913C961.197 109.913 961.067 109.907 960.989 109.896L960.923 109.979L960.956 110.062V110.759C960.956 111.396 960.973 111.861 961.006 112.154C961.006 112.17 961.014 112.262 961.031 112.428C961.047 112.588 961.056 112.713 961.056 112.801C961.056 112.929 961.039 113.119 961.006 113.374C960.973 113.629 960.956 113.822 960.956 113.955C960.956 114.038 960.995 114.118 961.072 114.196C961.072 114.268 961.067 114.37 961.056 114.503C961.045 114.636 961.039 114.738 961.039 114.81C961.039 114.865 961.058 114.951 961.097 115.067C961.136 115.178 961.155 115.261 961.155 115.316V115.814C961.139 115.826 961.097 115.85 961.031 115.889C960.97 115.928 960.926 115.964 960.898 115.997L961.172 116.155C961.183 116.199 961.188 116.26 961.188 116.337C961.188 116.404 961.183 116.495 961.172 116.611C961.161 116.728 961.155 116.813 961.155 116.869C961.155 117.096 961.208 117.248 961.313 117.325L961.255 117.458L961.363 117.491C961.39 117.574 961.415 117.663 961.438 117.757C961.46 117.845 961.482 117.945 961.504 118.056C961.526 118.166 961.545 118.252 961.562 118.313C961.523 118.424 961.473 118.518 961.413 118.595L961.545 118.62C961.711 118.902 961.872 119.104 962.027 119.226C962.082 119.27 962.174 119.32 962.301 119.375C962.434 119.425 962.528 119.472 962.583 119.517C962.494 119.517 962.359 119.519 962.176 119.525C961.994 119.53 961.858 119.533 961.77 119.533L961.637 119.4L961.512 119.55C961.462 119.55 961.385 119.544 961.28 119.533C961.18 119.522 961.105 119.517 961.056 119.517C960.884 119.517 960.76 119.533 960.682 119.566C960.571 119.544 960.4 119.533 960.167 119.533C960.167 119.577 960.096 119.6 959.952 119.6ZM973.658 119.741C973.508 119.741 973.348 119.73 973.176 119.708C973.01 119.691 972.828 119.669 972.629 119.641C972.429 119.613 972.274 119.594 972.164 119.583C972.081 119.544 972.009 119.461 971.948 119.334C971.876 119.356 971.757 119.378 971.591 119.4C971.536 119.373 971.383 119.301 971.134 119.185C970.885 119.068 970.683 118.963 970.528 118.869C970.373 118.77 970.246 118.662 970.147 118.545C970.064 118.451 970.019 118.371 970.014 118.305C970.008 118.238 969.986 118.194 969.947 118.172C969.914 118.144 969.798 118.1 969.599 118.039C969.317 117.618 969.175 117.311 969.175 117.118C969.175 117.062 969.184 116.982 969.2 116.877C969.217 116.766 969.225 116.683 969.225 116.628C969.225 116.396 969.117 116.213 968.901 116.08C968.791 115.549 968.735 114.733 968.735 113.631C968.735 113.57 968.722 113.479 968.694 113.357C968.672 113.236 968.661 113.142 968.661 113.075C968.661 112.976 968.672 112.757 968.694 112.419C968.722 112.082 968.735 111.83 968.735 111.664C968.735 111.57 968.722 111.44 968.694 111.274C968.727 111.191 968.769 111.116 968.818 111.05C968.735 110.939 968.694 110.848 968.694 110.776C968.694 110.732 968.702 110.665 968.719 110.577C968.741 110.483 968.752 110.413 968.752 110.369C968.752 110.236 968.711 110.128 968.628 110.045L968.661 109.913C968.639 109.686 968.594 109.345 968.528 108.892L968.561 108.775C968.517 108.676 968.412 108.551 968.246 108.402C968.085 108.252 967.986 108.15 967.947 108.095H967.897C967.809 107.973 967.759 107.909 967.748 107.904L967.623 107.721C967.712 107.716 967.858 107.718 968.063 107.729C968.268 107.741 968.401 107.743 968.462 107.738L968.984 107.705L969.308 107.954C969.447 107.86 969.599 107.777 969.765 107.705H970.039C970.116 107.705 970.224 107.707 970.362 107.713C970.506 107.718 970.614 107.721 970.686 107.721V107.754C970.725 107.754 970.783 107.749 970.86 107.738C970.943 107.727 971.004 107.721 971.043 107.721C971.104 107.721 971.198 107.729 971.325 107.746C971.453 107.763 971.547 107.771 971.608 107.771C971.663 107.771 971.735 107.76 971.823 107.738V107.788C971.785 107.821 971.693 107.887 971.549 107.987C971.411 108.086 971.323 108.153 971.284 108.186C971.251 108.219 971.187 108.283 971.093 108.377C971.004 108.465 970.946 108.546 970.919 108.618C970.891 108.684 970.86 108.773 970.827 108.883C970.8 108.994 970.786 109.116 970.786 109.249C970.786 109.343 970.761 109.495 970.711 109.705C970.667 109.91 970.647 110.065 970.653 110.17L970.553 110.286C970.653 110.773 970.703 111.102 970.703 111.274C970.703 111.324 970.694 111.398 970.678 111.498C970.661 111.592 970.653 111.664 970.653 111.714C970.653 111.93 970.681 112.248 970.736 112.668C970.791 113.083 970.819 113.399 970.819 113.615C970.786 113.665 970.769 113.717 970.769 113.772C970.769 113.817 970.78 113.886 970.802 113.98C970.83 114.069 970.844 114.135 970.844 114.179C970.844 114.262 970.833 114.384 970.811 114.544C970.794 114.705 970.786 114.827 970.786 114.91C970.786 115.092 970.86 115.269 971.01 115.441C971.01 116.011 971.17 116.487 971.491 116.869C971.818 117.245 972.263 117.488 972.828 117.599C972.839 117.643 972.875 117.715 972.936 117.815C972.997 117.915 973.03 117.984 973.035 118.022C973.118 117.901 973.179 117.793 973.218 117.699H973.326C973.47 117.699 973.672 117.671 973.932 117.616C974.197 117.555 974.397 117.524 974.529 117.524C974.64 117.524 974.737 117.483 974.82 117.4C974.908 117.317 974.994 117.203 975.077 117.06C975.16 116.916 975.221 116.822 975.26 116.777L975.517 116.661C975.517 116.567 975.495 116.431 975.451 116.254C975.561 116.166 975.65 116.03 975.716 115.848C975.788 115.665 975.824 115.493 975.824 115.333C975.824 115.244 975.805 115.153 975.766 115.059C975.827 114.838 975.869 114.492 975.891 114.021C975.913 113.551 975.929 113.274 975.941 113.191V113.158C975.941 113.125 975.932 113.067 975.916 112.984C975.899 112.895 975.891 112.834 975.891 112.801C975.891 112.729 975.899 112.616 975.916 112.461C975.932 112.306 975.941 112.187 975.941 112.104C975.941 111.938 975.927 111.692 975.899 111.365C975.871 111.039 975.858 110.798 975.858 110.643C975.858 110.588 975.88 110.513 975.924 110.419C975.974 110.325 976.001 110.258 976.007 110.22L975.824 109.996C975.846 109.918 975.858 109.799 975.858 109.639C975.858 109.55 975.816 109.437 975.733 109.298C975.656 109.16 975.617 109.047 975.617 108.958C975.589 108.897 975.553 108.836 975.509 108.775C975.465 108.709 975.412 108.637 975.351 108.56C975.296 108.482 975.254 108.424 975.227 108.385C975.21 108.313 975.18 108.247 975.135 108.186C975.091 108.12 975.036 108.053 974.969 107.987C974.903 107.92 974.853 107.865 974.82 107.821C974.881 107.832 975.066 107.837 975.376 107.837L975.451 107.871H975.6C975.678 107.871 975.786 107.854 975.924 107.821C976.068 107.782 976.159 107.76 976.198 107.754C976.441 107.821 976.782 107.854 977.219 107.854C977.313 107.854 977.443 107.851 977.609 107.846C977.781 107.84 977.905 107.837 977.983 107.837C978.016 107.837 978.066 107.835 978.132 107.829C978.204 107.824 978.256 107.821 978.29 107.821L978.389 107.721C978.666 107.749 978.829 107.76 978.879 107.754C978.669 107.893 978.528 108.017 978.456 108.128C978.384 108.239 978.326 108.369 978.281 108.518C978.237 108.667 978.171 108.809 978.082 108.941C978.082 109.096 978.068 109.323 978.041 109.622C978.013 109.921 977.999 110.148 977.999 110.303C977.999 110.38 978.002 110.491 978.007 110.635C978.013 110.779 978.016 110.889 978.016 110.967C978.016 111.033 978.007 111.133 977.991 111.266C977.974 111.398 977.966 111.498 977.966 111.564L978.016 111.581V111.697C978.016 111.891 978.024 112.184 978.041 112.577C978.057 112.965 978.066 113.255 978.066 113.449C978.06 113.454 978.03 113.479 977.974 113.523C977.924 113.568 977.883 113.609 977.85 113.648C977.822 113.687 977.808 113.723 977.808 113.756C977.808 113.806 977.836 113.872 977.891 113.955C977.952 114.038 977.988 114.091 977.999 114.113C977.977 114.312 977.958 114.65 977.941 115.125C977.93 115.601 977.902 115.967 977.858 116.221L977.642 116.371L977.841 116.611L977.675 117.392C977.498 117.447 977.39 117.566 977.352 117.749C977.307 117.787 977.258 117.854 977.202 117.948C977.147 118.042 977.105 118.105 977.078 118.139C976.596 118.709 976.093 119.118 975.567 119.367C975.047 119.616 974.41 119.741 973.658 119.741ZM985.737 119.6V119.616C985.588 119.594 985.247 119.583 984.716 119.583C983.947 119.583 983.493 119.561 983.355 119.517C983.432 119.472 983.546 119.428 983.695 119.384C983.85 119.334 983.972 119.279 984.06 119.218C984.154 119.151 984.237 119.052 984.309 118.919C984.32 118.897 984.34 118.853 984.367 118.786C984.401 118.72 984.425 118.67 984.442 118.637L984.683 118.545L984.475 118.396L984.492 118.089C984.608 117.973 984.666 117.798 984.666 117.566C984.666 117.538 984.652 117.488 984.625 117.417C984.603 117.345 984.594 117.292 984.6 117.259L984.766 115.441C984.777 115.352 984.805 115.189 984.849 114.951C984.893 114.708 984.915 114.52 984.915 114.387C984.893 114.32 984.882 114.218 984.882 114.08C984.882 113.875 984.863 113.565 984.824 113.15C984.785 112.735 984.766 112.425 984.766 112.22C984.766 112.181 984.774 112.129 984.791 112.062C984.813 111.991 984.827 111.944 984.832 111.921C984.865 111.75 984.882 111.493 984.882 111.149C984.882 111.072 984.874 110.967 984.857 110.834C984.841 110.696 984.832 110.588 984.832 110.51C984.832 110.411 984.852 110.275 984.89 110.104C984.929 109.932 984.951 109.824 984.957 109.78L984.899 109.672C984.81 109.661 984.675 109.655 984.492 109.655C984.409 109.655 984.29 109.653 984.135 109.647C983.98 109.641 983.861 109.639 983.778 109.639C983.618 109.572 983.357 109.539 982.998 109.539C982.887 109.539 982.724 109.55 982.508 109.572C982.298 109.594 982.143 109.605 982.043 109.605C981.982 109.605 981.869 109.556 981.703 109.456C981.614 109.605 981.542 109.688 981.487 109.705C981.371 109.744 981.155 109.788 980.84 109.838C980.53 109.882 980.292 109.946 980.126 110.029C980.12 110.029 980.115 110.026 980.109 110.021C980.104 110.015 980.098 110.012 980.092 110.012C980.065 110.012 980.023 110.023 979.968 110.045C979.918 110.068 979.879 110.079 979.852 110.079L979.819 110.062L979.785 109.962C980.09 109.381 980.264 109.069 980.308 109.024C980.447 108.914 980.51 108.825 980.499 108.759C980.527 108.709 980.568 108.637 980.624 108.543C980.685 108.449 980.732 108.374 980.765 108.319C980.798 108.258 980.834 108.186 980.873 108.103C980.917 108.014 980.95 107.931 980.972 107.854C981.078 107.821 981.213 107.754 981.379 107.655C981.545 107.555 981.659 107.492 981.719 107.464C981.731 107.464 981.744 107.467 981.761 107.472C981.783 107.478 981.8 107.48 981.811 107.48C981.91 107.48 981.988 107.469 982.043 107.447L982.076 107.414H982.134C982.284 107.414 982.447 107.447 982.624 107.514L982.724 107.788C982.757 107.777 982.804 107.738 982.865 107.671C982.926 107.599 982.981 107.563 983.031 107.563C983.125 107.563 983.261 107.569 983.438 107.58C983.615 107.591 983.75 107.597 983.844 107.597L983.919 107.63C984.063 107.63 984.279 107.658 984.567 107.713C984.854 107.763 985.073 107.788 985.222 107.788L985.363 107.995C985.419 107.984 985.507 107.948 985.629 107.887C985.756 107.821 985.859 107.788 985.936 107.788C986.274 107.788 986.783 107.81 987.464 107.854C988.144 107.898 988.656 107.92 988.999 107.92C989.259 107.92 989.625 107.879 990.095 107.796C990.571 107.713 990.964 107.63 991.274 107.547C991.29 107.552 991.337 107.575 991.415 107.613C991.492 107.646 991.553 107.666 991.597 107.671L991.705 107.53C991.904 107.447 992.112 107.375 992.328 107.314L992.502 107.348C992.275 107.724 992.129 108.039 992.062 108.294C991.985 108.394 991.91 108.565 991.838 108.809C991.661 109.03 991.542 109.215 991.481 109.365C991.409 109.426 991.263 109.564 991.041 109.78C991.002 109.78 990.944 109.777 990.867 109.771C990.795 109.76 990.74 109.755 990.701 109.755C990.601 109.755 990.408 109.78 990.12 109.83C990.048 109.758 989.885 109.722 989.63 109.722C989.553 109.722 989.442 109.716 989.298 109.705C989.154 109.694 989.043 109.688 988.966 109.688C988.872 109.688 988.778 109.697 988.684 109.713C988.59 109.73 988.476 109.758 988.343 109.796C988.211 109.83 988.122 109.852 988.078 109.863L987.962 109.78C987.735 109.868 987.469 109.913 987.165 109.913C986.982 109.913 986.852 109.907 986.775 109.896L986.708 109.979L986.741 110.062V110.759C986.741 111.396 986.758 111.861 986.791 112.154C986.791 112.17 986.8 112.262 986.816 112.428C986.833 112.588 986.841 112.713 986.841 112.801C986.841 112.929 986.824 113.119 986.791 113.374C986.758 113.629 986.741 113.822 986.741 113.955C986.741 114.038 986.78 114.118 986.858 114.196C986.858 114.268 986.852 114.37 986.841 114.503C986.83 114.636 986.824 114.738 986.824 114.81C986.824 114.865 986.844 114.951 986.883 115.067C986.921 115.178 986.941 115.261 986.941 115.316V115.814C986.924 115.826 986.883 115.85 986.816 115.889C986.755 115.928 986.711 115.964 986.683 115.997L986.957 116.155C986.968 116.199 986.974 116.26 986.974 116.337C986.974 116.404 986.968 116.495 986.957 116.611C986.946 116.728 986.941 116.813 986.941 116.869C986.941 117.096 986.993 117.248 987.098 117.325L987.04 117.458L987.148 117.491C987.176 117.574 987.201 117.663 987.223 117.757C987.245 117.845 987.267 117.945 987.289 118.056C987.311 118.166 987.331 118.252 987.347 118.313C987.309 118.424 987.259 118.518 987.198 118.595L987.331 118.62C987.497 118.902 987.657 119.104 987.812 119.226C987.868 119.27 987.959 119.32 988.086 119.375C988.219 119.425 988.313 119.472 988.368 119.517C988.28 119.517 988.144 119.519 987.962 119.525C987.779 119.53 987.643 119.533 987.555 119.533L987.422 119.4L987.298 119.55C987.248 119.55 987.17 119.544 987.065 119.533C986.966 119.522 986.891 119.517 986.841 119.517C986.669 119.517 986.545 119.533 986.467 119.566C986.357 119.544 986.185 119.533 985.953 119.533C985.953 119.577 985.881 119.6 985.737 119.6ZM998.007 119.89C997.686 119.89 997.075 119.829 996.173 119.708C996.09 119.647 996.023 119.528 995.973 119.351C995.879 119.406 995.741 119.456 995.558 119.5C995.514 119.478 995.406 119.42 995.235 119.326C995.069 119.226 994.952 119.157 994.886 119.118C994.825 119.079 994.731 119.021 994.604 118.944C994.482 118.861 994.374 118.783 994.28 118.711C994.192 118.634 994.103 118.551 994.014 118.462C993.007 117.472 992.504 116.304 992.504 114.959C992.504 114.81 992.462 114.55 992.379 114.179C992.39 114.085 992.41 113.814 992.437 113.366C992.459 112.818 992.54 112.242 992.678 111.639C992.822 111.03 993.024 110.552 993.284 110.203C993.361 110.092 993.492 110.018 993.674 109.979C993.702 109.747 993.741 109.589 993.79 109.506C994.067 109.047 994.441 108.662 994.911 108.352C995.387 108.037 995.879 107.815 996.388 107.688C996.903 107.555 997.443 107.486 998.007 107.48L997.957 107.414C998.013 107.403 998.098 107.397 998.215 107.397C998.464 107.397 998.837 107.409 999.335 107.431C999.446 107.492 999.532 107.605 999.593 107.771C999.759 107.721 999.922 107.688 1000.08 107.671C1000.17 107.716 1000.32 107.796 1000.54 107.912C1000.76 108.028 1000.93 108.12 1001.05 108.186C1001.16 108.252 1001.3 108.347 1001.46 108.468C1001.63 108.584 1001.77 108.703 1001.88 108.825C1002.16 109.13 1002.39 109.398 1002.57 109.63C1002.76 109.857 1002.94 110.126 1003.13 110.436C1003.32 110.74 1003.45 111.058 1003.54 111.39C1003.62 111.717 1003.66 112.057 1003.65 112.411C1003.67 112.5 1003.68 112.563 1003.68 112.602C1003.68 112.751 1003.65 112.876 1003.59 112.976L1003.83 113.158C1003.8 113.319 1003.78 113.689 1003.75 114.271C1003.72 114.846 1003.66 115.286 1003.57 115.59L1003.21 115.74L1003.44 116.03C1003.3 116.484 1003.13 116.847 1002.92 117.118C1002.9 117.14 1002.88 117.173 1002.84 117.217C1002.8 117.262 1002.77 117.303 1002.75 117.342C1002.73 117.375 1002.72 117.414 1002.71 117.458C1002.52 117.602 1002.28 117.868 1001.99 118.255C1001.7 118.642 1001.47 118.911 1001.28 119.06C1001.23 119.099 1001.18 119.132 1001.12 119.16C1001.07 119.187 1001 119.218 1000.91 119.251C1000.82 119.279 1000.76 119.298 1000.73 119.309C999.855 119.696 998.948 119.89 998.007 119.89ZM998.381 118.172C998.502 118.172 998.721 118.141 999.036 118.081C999.352 118.014 999.51 117.948 999.51 117.881C999.902 117.754 1000.26 117.441 1000.59 116.943C1000.92 116.44 1001.13 115.956 1001.22 115.491L1001.38 115.441V115.366C1001.38 115.344 1001.36 115.294 1001.34 115.217C1001.31 115.139 1001.29 115.076 1001.29 115.026C1001.29 114.876 1001.33 114.655 1001.39 114.362C1001.46 114.069 1001.49 113.85 1001.49 113.706C1001.49 113.573 1001.47 113.363 1001.44 113.075C1001.4 112.787 1001.37 112.599 1001.33 112.511V112.478C1001.33 112.422 1001.28 112.336 1001.19 112.22C1001.14 111.899 1001.07 111.617 1000.98 111.374C1000.89 111.125 1000.8 110.934 1000.72 110.801C1000.64 110.668 1000.54 110.491 1000.42 110.27C1000.31 110.048 1000.22 109.816 1000.13 109.572H999.883C999.783 109.489 999.604 109.401 999.344 109.307C999.089 109.213 998.912 109.118 998.812 109.024C998.74 109.002 998.655 108.986 998.555 108.975C998.461 108.964 998.383 108.958 998.323 108.958C998.267 108.952 998.176 108.952 998.049 108.958C997.921 108.958 997.841 108.958 997.808 108.958C997.736 108.958 997.683 108.964 997.65 108.975L997.742 109.099C997.16 109.16 996.754 109.246 996.521 109.356C996.294 109.467 996.015 109.733 995.683 110.153L995.309 110.17L995.442 110.543C995.038 111.252 994.817 111.88 994.778 112.428C994.773 112.527 994.748 112.721 994.703 113.009C994.665 113.291 994.645 113.512 994.645 113.673C994.645 113.767 994.662 113.9 994.695 114.071C994.728 114.243 994.745 114.37 994.745 114.453C994.745 114.564 994.706 114.722 994.629 114.926C994.789 115.02 994.903 115.106 994.969 115.184C995.008 115.477 995.152 115.845 995.401 116.288C995.655 116.73 995.918 117.137 996.189 117.508H996.314C996.369 117.552 996.488 117.632 996.671 117.749C996.859 117.865 996.994 117.962 997.077 118.039C997.155 118.039 997.296 118.078 997.501 118.155C997.611 118.15 997.769 118.153 997.974 118.164C998.179 118.169 998.314 118.172 998.381 118.172ZM1015.18 119.649C1014.86 119.611 1014.39 119.583 1013.78 119.566C1013.17 119.55 1012.75 119.533 1012.52 119.517C1012.63 119.45 1012.77 119.331 1012.94 119.16C1012.95 119.115 1012.96 119.055 1012.96 118.977C1012.96 118.833 1012.9 118.623 1012.79 118.346C1012.58 118.141 1012.32 117.809 1012.01 117.35C1011.71 116.891 1011.55 116.548 1011.53 116.321C1011.38 116.277 1011.25 116.171 1011.14 116.005C1011.03 115.839 1010.93 115.648 1010.85 115.433C1010.77 115.217 1010.68 114.998 1010.58 114.777C1010.49 114.556 1010.36 114.348 1010.19 114.154C1010.02 113.955 1009.82 113.811 1009.58 113.723L1009.49 113.822C1009.44 113.739 1009.36 113.656 1009.25 113.573C1009.14 113.49 1009.04 113.432 1008.95 113.399C1009 113.327 1009.08 113.172 1009.19 112.934C1009.39 112.89 1009.54 112.862 1009.63 112.851C1009.74 112.801 1009.91 112.757 1010.15 112.718C1010.4 112.674 1010.57 112.627 1010.68 112.577C1010.96 112.45 1011.24 112.259 1011.53 112.004C1011.83 111.75 1012.02 111.506 1012.11 111.274L1011.97 111.133C1012.02 110.911 1012.05 110.759 1012.05 110.676C1012.05 110.283 1011.91 109.99 1011.63 109.796C1011.57 109.785 1011.49 109.78 1011.36 109.78C1011.34 109.769 1011.28 109.736 1011.19 109.68C1011.1 109.625 1011.03 109.589 1011 109.572C1010.97 109.556 1010.92 109.528 1010.83 109.489C1010.76 109.445 1010.69 109.415 1010.64 109.398C1010.6 109.381 1010.54 109.362 1010.47 109.34C1010.4 109.318 1010.33 109.304 1010.26 109.298C1010.19 109.287 1010.13 109.282 1010.05 109.282C1009.89 109.282 1009.72 109.293 1009.54 109.315C1009.36 109.332 1009.16 109.354 1008.94 109.381C1008.73 109.409 1008.57 109.428 1008.45 109.439C1008.36 109.854 1008.32 110.46 1008.32 111.257C1008.32 111.302 1008.31 111.368 1008.29 111.457C1008.26 111.54 1008.25 111.603 1008.25 111.647C1008.25 111.775 1008.34 111.949 1008.51 112.17C1008.46 113.017 1008.43 113.584 1008.43 113.872C1008.43 114.055 1008.46 114.401 1008.51 114.91C1008.45 114.971 1008.35 115.045 1008.22 115.134C1008.27 115.156 1008.35 115.178 1008.48 115.2C1008.56 115.676 1008.61 116.072 1008.61 116.387C1008.61 116.492 1008.6 116.633 1008.58 116.811L1008.68 116.902C1008.68 117.295 1008.72 117.718 1008.81 118.172C1008.74 118.26 1008.7 118.335 1008.69 118.396L1008.93 118.512C1009.03 118.667 1009.13 118.808 1009.26 118.936C1009.38 119.057 1009.48 119.149 1009.56 119.209C1009.63 119.265 1009.78 119.367 1009.99 119.517C1009.79 119.517 1009.51 119.528 1009.15 119.55L1009.03 119.417L1008.87 119.55C1008.8 119.539 1008.69 119.533 1008.54 119.533H1007.76H1007.72C1007.64 119.533 1007.57 119.5 1007.5 119.434C1007.43 119.461 1007.33 119.483 1007.19 119.5C1007.05 119.517 1006.95 119.539 1006.87 119.566C1006.2 119.544 1005.68 119.533 1005.33 119.533C1005.62 119.411 1005.82 119.281 1005.91 119.143C1006.01 119.005 1006.09 118.767 1006.16 118.429L1006.29 118.313L1006.19 118.105L1006.24 117.732C1006.34 117.599 1006.38 117.378 1006.38 117.068C1006.38 116.896 1006.36 116.728 1006.31 116.562C1006.43 116.384 1006.48 115.969 1006.48 115.316V114.553C1006.48 114.254 1006.49 114.06 1006.5 113.972C1006.51 113.916 1006.55 113.842 1006.61 113.748C1006.67 113.653 1006.71 113.57 1006.71 113.499C1006.71 113.465 1006.69 113.41 1006.65 113.333C1006.62 113.255 1006.6 113.197 1006.6 113.158C1006.6 112.992 1006.58 112.74 1006.55 112.403C1006.52 112.065 1006.5 111.813 1006.5 111.647C1006.5 111.598 1006.51 111.523 1006.53 111.423C1006.54 111.318 1006.55 111.241 1006.55 111.191C1006.55 111.064 1006.53 110.817 1006.48 110.452C1006.43 110.081 1006.42 109.799 1006.45 109.605C1006.35 109.605 1006.14 109.675 1005.82 109.813C1005.69 109.791 1005.58 109.78 1005.51 109.78C1005.44 109.78 1005.34 109.796 1005.21 109.83C1005.07 109.863 1004.97 109.879 1004.9 109.879L1005.01 109.688C1005.08 109.561 1005.13 109.453 1005.17 109.365C1005.21 109.271 1005.22 109.204 1005.21 109.166C1005.32 108.983 1005.51 108.717 1005.76 108.369C1006.02 108.014 1006.21 107.746 1006.33 107.563C1006.61 107.646 1006.82 107.721 1006.96 107.788H1007.15L1007.23 107.854C1007.45 107.821 1007.89 107.804 1008.54 107.804C1008.64 107.804 1008.78 107.79 1008.97 107.763C1009.15 107.735 1009.29 107.721 1009.39 107.721C1009.63 107.721 1010.06 107.741 1010.69 107.779C1011.32 107.812 1011.69 107.843 1011.8 107.871C1011.84 107.882 1011.87 107.909 1011.9 107.954C1011.92 107.998 1011.95 108.028 1011.97 108.045L1012.14 107.837C1012.52 107.909 1012.88 108.034 1013.23 108.211C1013.59 108.382 1013.91 108.632 1014.18 108.958C1014.46 109.279 1014.59 109.63 1014.59 110.012C1014.59 110.317 1014.52 110.638 1014.39 110.975C1014.25 111.313 1014.08 111.598 1013.88 111.83C1013.55 112.19 1013.24 112.497 1012.93 112.751L1013.02 112.818C1012.95 112.934 1012.8 113.072 1012.59 113.233C1012.39 113.388 1012.22 113.482 1012.1 113.515C1012.09 113.515 1012.04 113.526 1011.95 113.548C1011.85 113.57 1011.78 113.593 1011.74 113.615C1011.88 113.72 1012.11 113.997 1012.43 114.445C1012.74 114.888 1012.91 115.117 1012.94 115.134C1013.42 115.953 1013.89 116.645 1014.37 117.209C1014.35 117.264 1014.33 117.347 1014.3 117.458C1014.36 117.447 1014.44 117.441 1014.56 117.441C1014.85 117.785 1015.12 118.039 1015.37 118.205L1015.42 118.33C1015.52 118.357 1015.63 118.44 1015.76 118.579C1015.88 118.711 1015.97 118.792 1016 118.819C1015.97 118.985 1015.95 119.077 1015.94 119.093L1016.15 119.027C1016.38 119.187 1016.67 119.345 1017.01 119.5C1016.75 119.566 1016.5 119.6 1016.24 119.6C1016.19 119.6 1016.11 119.591 1016 119.575C1015.91 119.558 1015.83 119.55 1015.78 119.55C1015.75 119.55 1015.69 119.561 1015.6 119.583C1015.51 119.561 1015.43 119.55 1015.37 119.55C1015.36 119.55 1015.34 119.55 1015.32 119.55C1015.29 119.555 1015.27 119.561 1015.24 119.566C1015.22 119.572 1015.2 119.583 1015.19 119.6C1015.18 119.616 1015.18 119.633 1015.18 119.649ZM1017.88 119.583H1017.4V119.5C1017.5 119.478 1017.63 119.384 1017.78 119.218C1017.94 119.046 1018.03 118.908 1018.06 118.803C1018.1 118.709 1018.13 118.565 1018.16 118.371C1018.19 118.177 1018.22 118.034 1018.26 117.939C1018.22 117.746 1018.21 117.461 1018.21 117.084C1018.21 116.642 1018.24 115.983 1018.31 115.109C1018.39 114.229 1018.42 113.568 1018.42 113.125L1018.68 113.025L1018.53 112.901C1018.47 112.619 1018.44 112.303 1018.44 111.955C1018.44 111.783 1018.45 111.526 1018.46 111.183C1018.49 110.84 1018.5 110.585 1018.5 110.419C1018.5 110.364 1018.5 110.281 1018.52 110.17C1018.54 110.054 1018.55 109.968 1018.55 109.913C1018.55 109.813 1018.54 109.711 1018.51 109.605C1018.5 109.5 1018.47 109.384 1018.43 109.257C1018.4 109.13 1018.37 109.03 1018.36 108.958L1018.47 108.792L1018.31 108.726C1018.28 108.537 1018.21 108.36 1018.09 108.194C1017.97 108.028 1017.83 107.92 1017.66 107.871C1017.7 107.843 1017.76 107.821 1017.82 107.804C1017.88 107.788 1017.93 107.779 1017.97 107.779C1018.01 107.774 1018.07 107.768 1018.16 107.763C1018.24 107.757 1018.29 107.754 1018.32 107.754C1018.38 107.777 1018.45 107.793 1018.52 107.804C1018.6 107.815 1018.66 107.824 1018.7 107.829C1018.75 107.829 1018.82 107.829 1018.92 107.829C1019.02 107.824 1019.09 107.821 1019.12 107.821C1019.24 107.821 1019.42 107.829 1019.67 107.846C1019.91 107.862 1020.09 107.871 1020.21 107.871C1020.46 107.871 1020.74 107.843 1021.04 107.788L1021.42 107.871V107.887H1021.4C1021.07 108.097 1020.84 108.396 1020.7 108.784C1020.58 109.171 1020.5 109.622 1020.46 110.137L1020.24 110.236L1020.45 110.369C1020.4 110.519 1020.38 110.696 1020.38 110.9C1020.38 111.044 1020.39 111.263 1020.42 111.556C1020.45 111.849 1020.46 112.071 1020.46 112.22C1020.46 112.226 1020.46 112.253 1020.44 112.303C1020.42 112.347 1020.41 112.372 1020.41 112.378C1020.42 112.444 1020.43 112.574 1020.45 112.768C1020.47 112.962 1020.48 113.114 1020.48 113.225C1020.48 113.236 1020.47 113.288 1020.44 113.382C1020.42 113.476 1020.4 113.532 1020.4 113.548C1020.45 113.908 1020.48 114.237 1020.48 114.536C1020.48 114.614 1020.47 114.73 1020.46 114.885C1020.44 115.04 1020.43 115.156 1020.43 115.233C1020.43 115.482 1020.46 115.853 1020.53 116.346C1020.6 116.838 1020.64 117.209 1020.64 117.458V117.524L1020.45 117.749L1020.65 117.832L1020.77 118.62L1020.84 118.653C1020.85 118.703 1020.86 118.75 1020.88 118.794C1020.9 118.839 1020.91 118.886 1020.94 118.936C1020.96 118.985 1020.99 119.027 1021 119.06C1021.02 119.088 1021.05 119.129 1021.09 119.185C1021.13 119.24 1021.16 119.279 1021.17 119.301C1021.19 119.317 1021.22 119.359 1021.27 119.425C1021.32 119.486 1021.35 119.522 1021.35 119.533V119.583C1021.28 119.572 1021.17 119.561 1021.02 119.55C1020.87 119.539 1020.76 119.528 1020.69 119.517L1020.56 119.384L1020.41 119.55H1019.53C1019.45 119.55 1019.37 119.547 1019.29 119.542C1019.2 119.536 1019.11 119.528 1019 119.517C1018.9 119.511 1018.82 119.506 1018.76 119.5L1018.63 119.243L1018.51 119.45C1018.26 119.45 1018.05 119.494 1017.88 119.583ZM1026.72 119.6H1026.23C1026.17 119.6 1026.1 119.591 1026.03 119.575C1025.96 119.558 1025.89 119.536 1025.8 119.508C1025.73 119.481 1025.66 119.461 1025.62 119.45C1025.56 119.489 1025.51 119.514 1025.45 119.525C1025.4 119.536 1025.34 119.542 1025.27 119.542C1025.21 119.547 1025.15 119.555 1025.1 119.566L1024.82 119.467C1024.77 119.472 1024.7 119.489 1024.59 119.517C1024.49 119.55 1024.41 119.566 1024.35 119.566C1024.28 119.566 1024.18 119.553 1024.03 119.525C1023.88 119.497 1023.76 119.489 1023.67 119.5L1023.53 119.45C1023.4 119.207 1023.3 118.996 1023.25 118.819L1023.33 118.72L1023.28 118.67C1023.31 118.432 1023.45 118.158 1023.69 117.848C1024.17 117.195 1024.5 116.437 1024.67 115.574L1024.82 115.366C1024.8 115.278 1024.79 115.206 1024.79 115.15C1024.79 114.957 1024.89 114.6 1025.1 114.08C1025.3 113.554 1025.47 113.202 1025.6 113.025L1025.59 112.735C1025.61 112.685 1025.65 112.635 1025.7 112.585C1025.76 112.536 1025.79 112.45 1025.79 112.328C1025.79 112.256 1025.81 112.187 1025.84 112.121C1026.07 111.706 1026.31 111.102 1026.57 110.311C1026.84 109.514 1026.98 108.917 1026.98 108.518C1027.01 108.468 1027.08 108.418 1027.17 108.369C1027.27 108.319 1027.34 108.277 1027.37 108.244L1027.58 108.418L1027.73 108.244C1027.9 108.189 1028.01 108.15 1028.06 108.128C1028.12 108.106 1028.17 108.067 1028.23 108.012C1028.3 107.956 1028.38 107.865 1028.48 107.738C1028.53 107.71 1028.59 107.669 1028.67 107.613H1028.83L1028.99 107.771C1029.08 107.771 1029.15 107.846 1029.17 107.995C1029.21 108.205 1029.29 108.496 1029.4 108.867C1029.51 109.232 1029.58 109.467 1029.6 109.572C1029.73 109.677 1029.88 109.996 1030.04 110.527C1030.2 111.053 1030.32 111.481 1030.38 111.813L1030.48 111.905C1030.48 111.96 1030.49 112.021 1030.51 112.087C1030.53 112.148 1030.54 112.195 1030.55 112.229C1030.57 112.262 1030.6 112.32 1030.63 112.403C1030.68 112.48 1030.7 112.527 1030.71 112.544L1030.55 112.834L1030.82 112.901C1030.9 113.36 1031.09 114.027 1031.38 114.901C1031.68 115.77 1031.94 116.396 1032.15 116.777C1032.18 116.822 1032.24 116.916 1032.34 117.06C1032.44 117.198 1032.51 117.309 1032.54 117.392L1032.66 117.475C1032.66 117.48 1032.81 117.793 1033.12 118.413C1033.07 118.496 1033.02 118.587 1032.97 118.687H1033.24L1034.02 119.533C1033.88 119.522 1033.68 119.517 1033.41 119.517C1033.38 119.517 1033.34 119.514 1033.28 119.508C1033.23 119.503 1033.18 119.5 1033.16 119.5C1033.1 119.5 1033.03 119.511 1032.97 119.533C1032.81 119.511 1032.69 119.5 1032.61 119.5C1032.55 119.5 1032.45 119.506 1032.33 119.517C1032.2 119.528 1032.1 119.533 1032.03 119.533C1032 119.533 1031.95 119.525 1031.9 119.508C1031.84 119.492 1031.8 119.483 1031.76 119.483C1031.71 119.483 1031.64 119.492 1031.53 119.508C1031.43 119.525 1031.35 119.533 1031.3 119.533C1031.09 119.533 1030.89 119.517 1030.68 119.483C1030.43 119.539 1030.13 119.566 1029.77 119.566C1029.72 119.566 1029.64 119.564 1029.54 119.558C1029.44 119.553 1029.36 119.55 1029.31 119.55C1029.59 119.367 1029.75 119.248 1029.8 119.193C1029.83 119.171 1029.85 119.14 1029.87 119.102C1029.9 119.057 1029.93 118.996 1029.98 118.919C1030.03 118.841 1030.08 118.764 1030.13 118.687C1030.21 118.548 1030.25 118.462 1030.26 118.429L1030.13 118.238C1030.09 118.105 1030.08 117.975 1030.08 117.848C1030.08 117.754 1030.09 117.63 1030.11 117.475C1029.99 117.209 1029.85 116.799 1029.66 116.246C1029.49 115.687 1029.36 115.322 1029.3 115.15C1028.94 115.167 1028.46 115.258 1027.85 115.424C1027.25 115.59 1026.83 115.759 1026.61 115.931C1026.41 116.49 1026.28 117.073 1026.23 117.682C1026.21 117.704 1026.18 117.732 1026.15 117.765C1026.13 117.793 1026.1 117.832 1026.08 117.881C1026.05 117.926 1026.04 117.956 1026.03 117.973C1026.07 118.05 1026.09 118.128 1026.09 118.205C1026.09 118.249 1026.07 118.316 1026.05 118.404C1026.04 118.493 1026.03 118.545 1026.03 118.562C1026.07 118.617 1026.1 118.678 1026.12 118.745C1026.15 118.811 1026.17 118.889 1026.18 118.977C1026.2 119.066 1026.22 119.132 1026.23 119.176C1026.46 119.353 1026.62 119.494 1026.72 119.6ZM1027.12 114.262C1027.22 114.246 1027.36 114.221 1027.56 114.188C1027.77 114.154 1027.93 114.127 1028.05 114.104C1028.17 114.077 1028.32 114.041 1028.48 113.997C1028.65 113.947 1028.8 113.889 1028.92 113.822C1028.92 113.75 1028.89 113.612 1028.83 113.407C1028.78 113.197 1028.76 113.034 1028.77 112.917C1028.69 112.801 1028.61 112.619 1028.53 112.37C1028.46 112.121 1028.42 111.919 1028.41 111.764C1028.37 111.675 1028.32 111.537 1028.27 111.349C1028.22 111.16 1028.19 111.028 1028.15 110.95C1028.06 111.116 1027.97 111.263 1027.87 111.39C1027.83 111.683 1027.76 111.988 1027.68 112.303C1027.6 112.613 1027.5 112.97 1027.38 113.374C1027.26 113.778 1027.17 114.074 1027.12 114.262ZM1022.83 119.691C1022.77 119.691 1022.6 119.677 1022.32 119.649C1022.56 119.411 1022.75 119.174 1022.89 118.936L1022.97 118.886C1023.03 118.908 1023.07 118.93 1023.11 118.952C1023.11 118.991 1023.11 119.032 1023.13 119.077C1023.15 119.121 1023.17 119.154 1023.19 119.176C1023.2 119.198 1023.23 119.234 1023.27 119.284C1023.31 119.334 1023.33 119.367 1023.35 119.384V119.55C1023.23 119.55 1023.15 119.589 1023.12 119.666C1023.09 119.666 1023.04 119.669 1022.97 119.674C1022.91 119.685 1022.86 119.691 1022.83 119.691ZM1036.49 119.517C1036.32 119.517 1036.06 119.511 1035.71 119.5C1035.36 119.489 1035.1 119.483 1034.94 119.483V119.434L1035.08 119.309C1035.13 119.276 1035.18 119.218 1035.24 119.135C1035.31 119.046 1035.36 118.972 1035.39 118.911C1035.43 118.844 1035.47 118.745 1035.54 118.612C1035.61 118.479 1035.64 118.407 1035.65 118.396L1035.67 118.172C1035.82 117.906 1035.89 117.585 1035.89 117.209L1035.94 117.118L1035.96 116.47L1036.21 116.188L1035.99 116.047C1036.07 115.195 1036.11 114.362 1036.11 113.548C1036.11 113.189 1036.11 112.929 1036.1 112.768L1036.31 112.478L1036.13 112.121V112.021C1036.13 111.883 1036.13 111.67 1036.11 111.382C1036.1 111.094 1036.1 110.881 1036.1 110.743C1036.1 110.704 1036.11 110.638 1036.13 110.543C1036.15 110.449 1036.16 110.397 1036.16 110.386C1036.1 110.286 1036.03 110.209 1035.94 110.153C1035.93 110.043 1035.91 109.846 1035.89 109.564C1035.87 109.276 1035.85 109.058 1035.82 108.908C1035.81 108.809 1035.7 108.676 1035.5 108.51C1035.3 108.338 1035.2 108.2 1035.19 108.095L1035.01 107.854C1035.09 107.843 1035.23 107.818 1035.42 107.779C1035.6 107.735 1035.75 107.71 1035.86 107.705L1036.16 107.97L1036.36 107.754C1036.42 107.749 1036.5 107.746 1036.6 107.746C1036.71 107.741 1036.81 107.735 1036.9 107.729C1036.99 107.724 1037.07 107.716 1037.15 107.705C1037.25 107.738 1037.36 107.754 1037.48 107.754C1037.48 107.754 1037.51 107.746 1037.55 107.729C1037.6 107.713 1037.63 107.705 1037.64 107.705C1038.07 107.793 1038.4 107.826 1038.61 107.804L1038.66 107.837L1038.78 107.821L1038.81 107.788C1038.94 107.81 1039.04 107.821 1039.1 107.821V107.871C1038.6 108.247 1038.3 108.632 1038.21 109.024L1037.97 109.182L1038.17 109.381C1038.16 109.453 1038.14 109.561 1038.11 109.705C1038.09 109.843 1038.06 109.971 1038.05 110.087C1038.03 110.203 1038.03 110.314 1038.03 110.419C1038.01 110.452 1038 110.549 1038 110.709C1038 111.08 1038.01 111.636 1038.03 112.378C1038.05 113.119 1038.06 113.676 1038.06 114.046C1038.06 114.439 1038.08 114.733 1038.11 114.926L1037.93 115.25C1037.94 115.283 1037.97 115.333 1038.02 115.399C1038.08 115.466 1038.11 115.524 1038.11 115.574C1038.15 115.801 1038.18 116.13 1038.18 116.562C1038.19 116.988 1038.21 117.303 1038.24 117.508L1038.39 117.765C1038.57 117.854 1038.71 117.898 1038.81 117.898C1038.94 117.898 1039.12 117.881 1039.36 117.848C1039.6 117.815 1039.78 117.798 1039.9 117.798H1040.02C1040.05 117.798 1040.07 117.815 1040.1 117.848C1040.13 117.881 1040.16 117.898 1040.19 117.898C1040.31 117.898 1040.49 117.87 1040.73 117.815C1040.98 117.76 1041.17 117.732 1041.29 117.732C1041.52 117.732 1041.78 117.685 1042.06 117.591C1042.35 117.491 1042.59 117.375 1042.8 117.242H1042.83C1042.96 117.12 1043.11 116.938 1043.29 116.694C1043.32 116.65 1043.34 116.573 1043.36 116.462C1043.38 116.351 1043.41 116.277 1043.44 116.238H1043.49L1043.56 116.171C1043.56 116.232 1043.58 116.318 1043.62 116.429C1043.66 116.534 1043.69 116.611 1043.69 116.661C1043.62 116.766 1043.58 116.841 1043.58 116.885L1043.78 117.051C1043.81 117.156 1043.88 117.452 1044 117.939C1044.12 118.421 1044.23 118.789 1044.32 119.043C1044.32 119.082 1044.33 119.143 1044.35 119.226C1044.36 119.304 1044.37 119.362 1044.37 119.4C1044.37 119.411 1044.37 119.428 1044.36 119.45C1044.36 119.472 1044.36 119.489 1044.36 119.5L1044.19 119.517C1043.63 119.517 1043.08 119.5 1042.56 119.467L1042.36 119.259C1042.33 119.259 1042.26 119.301 1042.16 119.384C1042.05 119.461 1041.99 119.5 1041.96 119.5C1041.8 119.5 1041.55 119.486 1041.23 119.458C1040.9 119.431 1040.66 119.417 1040.5 119.417C1040.34 119.417 1040.1 119.425 1039.79 119.442C1039.48 119.458 1039.25 119.467 1039.09 119.467H1037.69L1037.71 119.417C1037.62 119.423 1037.49 119.436 1037.33 119.458C1037.16 119.475 1037.01 119.489 1036.87 119.5C1036.74 119.511 1036.61 119.517 1036.49 119.517Z" fill="#D1AF98"/>
<ellipse cx="1120.31" cy="18.9943" rx="2.92589" ry="2.9943" fill="#D1AF98"/>
<ellipse cx="1120.31" cy="27.9787" rx="2.92589" ry="2.9943" fill="#D1AF98"/>
<ellipse cx="1115.93" cy="23.4865" rx="2.92589" ry="2.9943" fill="#D1AF98"/>
<ellipse cx="1124.7" cy="23.4865" rx="2.92589" ry="2.9943" fill="#D1AF98"/>
<path d="M1120.31 35.0781V210.263" stroke="#D1AF98" stroke-width="2"/>
<rect x="43" y="35" width="1058" height="408" stroke="#D1AF98" stroke-width="2"/>
<ellipse cx="25.3146" cy="441.287" rx="2.92589" ry="2.9943" fill="#D1AF98"/>
<ellipse cx="25.3146" cy="450.272" rx="2.92589" ry="2.9943" fill="#D1AF98"/>
<ellipse cx="20.9259" cy="445.779" rx="2.92589" ry="2.9943" fill="#D1AF98"/>
<ellipse cx="29.7037" cy="445.779" rx="2.92589" ry="2.9943" fill="#D1AF98"/>
<path d="M25.3149 259V434.185" stroke="#D1AF98" stroke-width="2"/>
<path fill-rule="evenodd" clip-rule="evenodd" d="M208.535 95.0687C205.629 95.3778 202.439 96.5403 200.004 98.1772C195.111 101.467 192.07 106.599 191.517 112.502C191.455 113.162 191.418 117.93 191.418 125.197L191.417 136.835L190.656 136.614C187.606 135.728 184.064 135.994 181.38 137.31C177.731 139.1 174.984 142.874 174.008 147.437C173.746 148.664 173.782 151.065 174.102 153.633C174.956 160.48 175.056 168.037 174.35 172.31C174.081 173.935 173.578 175.726 172.28 179.677C168.283 191.837 164.567 201.033 158.744 213.168C156.655 217.522 148.799 232.986 141.488 247.14C135.664 258.413 135.65 258.444 135.127 261.315C134.498 264.765 134.312 267.394 134.204 274.336C134.092 281.579 133.972 283.187 133.344 285.892C133.133 286.803 132.656 289.225 132.284 291.273C131.233 297.073 130.518 299.993 129.288 303.506C126.608 311.163 123.049 317.815 117.927 324.74C117.4 325.453 116.983 326.05 117.001 326.068C117.141 326.209 120.944 329.162 120.985 329.162C121.152 329.162 123.409 326.092 125.003 323.697C127.014 320.675 128.19 318.614 130.165 314.651C133.984 306.984 136.648 298.546 138.221 289.132C139.012 284.401 139.253 281.263 139.335 274.636C139.393 269.9 139.501 267.349 139.727 265.351C139.948 263.391 140.311 261.354 140.587 260.522C140.912 259.541 142.089 257.169 146.253 249.11C155.249 231.696 162.215 217.924 164.578 212.88C169.834 201.66 173.067 193.58 176.902 182.079C179.539 174.172 179.915 172.044 179.916 165.021C179.917 160.649 179.709 157.181 179.187 152.865C178.856 150.127 178.895 148.66 179.334 147.344C180.738 143.132 183.92 140.827 187.704 141.28C191.64 141.751 194.263 143.976 197.451 149.549C198.416 151.236 200.77 155.986 201.381 157.477C204.72 165.638 206.44 175.148 206.241 184.338C206.158 188.132 205.864 190.806 205.116 194.572C204.126 199.548 202.818 203.743 199.468 212.688C193.887 227.587 192.146 234.246 191.516 243.101C191.377 245.054 191.379 300.153 191.518 301.637C191.858 305.276 193.184 308.71 195.365 311.606C196.128 312.619 197.952 314.447 198.967 315.216C201.829 317.384 205.113 318.686 208.688 319.068C209.305 319.134 218.177 319.168 235.076 319.168C259.031 319.168 260.53 319.177 260.471 319.332C260.328 319.704 258.461 322.716 257.207 324.597C253.669 329.902 250.904 333.319 246.858 337.385C242.123 342.143 238.493 345.015 229.882 350.815C222.513 355.779 218.755 358.043 213.986 360.392C209.993 362.359 206.96 363.589 201.815 365.33C196.415 367.157 195.03 367.703 192.376 369.048C188.698 370.913 184.85 373.523 181.355 376.523C179.964 377.718 176.276 381.337 176.276 381.508C176.276 381.566 176.933 382.212 177.737 382.944C178.54 383.677 179.376 384.439 179.594 384.638L179.99 385L181.32 383.642C185.559 379.312 190.125 375.934 195.107 373.442C197.114 372.438 198.409 371.931 202.534 370.532C208.07 368.655 210.501 367.711 214.274 365.973C219.773 363.44 224.033 360.933 232.6 355.186C241.464 349.239 245.536 346.021 250.504 341.037C253.723 337.808 255.474 335.774 258.289 331.997C260.952 328.423 263.825 323.978 265.71 320.513L266.416 319.216L278.965 319.161C291.287 319.108 291.534 319.103 292.569 318.901C294.15 318.592 295.546 318.17 296.856 317.604C303.062 314.924 307.411 309.169 308.285 302.479C308.375 301.797 308.429 300.598 308.429 299.322V297.265L308.741 297.217C308.912 297.191 309.415 297.12 309.858 297.061C311.333 296.864 313.244 296.198 314.609 295.408C315.467 294.91 321.83 290.325 322.881 289.447C326.227 286.65 328.128 281.934 327.692 277.508C327.347 274.004 325.905 271.016 323.393 268.598C321.449 266.727 318.842 265.369 316.379 264.946C316.012 264.883 315.713 264.806 315.713 264.775C315.713 264.745 317.621 263.341 319.953 261.656C323.781 258.891 324.311 258.476 325.398 257.383C328.557 254.208 330.144 250.113 329.964 245.604C329.678 238.432 324.849 232.566 317.738 230.752L317.32 230.645L318.073 230.094C318.488 229.791 319.527 229.036 320.382 228.415C321.237 227.795 322.308 226.935 322.762 226.504C324.906 224.469 326.454 221.616 327.13 218.454C327.312 217.599 327.346 217.143 327.35 215.474C327.354 213.792 327.322 213.345 327.135 212.416C325.803 205.795 320.703 200.733 314.18 199.56C312.58 199.272 309.913 199.285 308.645 199.587L308.429 199.639V198.15C308.429 197.073 308.462 196.637 308.549 196.57C308.615 196.519 309.143 196.29 309.723 196.062C311.472 195.373 315.914 193.452 318.156 192.414C323.247 190.059 326.515 188.134 330.04 185.414C332.581 183.452 333.909 182.225 334.894 180.926C337.9 176.965 338.761 171.588 337.316 165.799C336.957 164.361 336.576 163.481 335.779 162.251C333.489 158.717 329.749 156.193 325.326 155.195C324.509 155.011 324.102 154.983 322.229 154.982C319.881 154.981 319.538 155.024 316.767 155.664C314.64 156.156 312.582 156.768 310.485 157.532C309.481 157.899 308.608 158.198 308.544 158.198C308.455 158.198 308.429 153.088 308.429 135.475C308.429 110.595 308.455 111.792 307.866 109.461C307.325 107.322 306.462 105.372 305.255 103.565C302.241 99.0498 297.873 96.2176 292.329 95.1836C291.469 95.0231 289.175 95.0131 250.355 95.001C227.769 94.994 208.95 95.0244 208.535 95.0687ZM262.07 102.981C262.896 103.276 263.378 103.899 263.463 104.779C263.544 105.618 263.063 106.444 262.287 106.797C261.922 106.963 261.303 106.972 249.914 106.974L237.927 106.976L237.504 106.753C236.692 106.322 236.304 105.384 236.502 104.327C236.59 103.855 237.339 103.1 237.854 102.964C238.105 102.897 242.157 102.862 249.971 102.858C259.547 102.853 261.777 102.876 262.07 102.981ZM298.192 112.079C299.519 112.597 300.395 113.377 300.989 114.568C301.173 114.936 301.366 115.517 301.426 115.883C301.505 116.364 301.527 128.058 301.508 159.783L301.481 203.029L297.073 206.223C287.867 212.893 287.718 213.004 286.825 213.889C284.575 216.119 283.087 219.017 282.54 222.235C282.25 223.943 282.317 226.565 282.692 228.208C283.428 231.429 284.924 234.105 287.264 236.385C289.317 238.386 291.673 239.709 294.514 240.458L294.926 240.567L290.489 243.775C285.575 247.329 284.521 248.225 283.232 249.947C282.047 251.53 281.074 253.544 280.587 255.425C279.808 258.43 279.911 261.534 280.887 264.48C282.922 270.622 288.445 274.879 294.941 275.312C295.455 275.346 295.875 275.387 295.875 275.403C295.875 275.418 295.72 275.696 295.531 276.02C294.723 277.402 294.099 279.124 293.808 280.775C293.598 281.964 293.587 284.376 293.786 285.46L293.923 286.205L248.348 286.203C198.066 286.202 202.19 286.254 200.963 285.602C199.856 285.013 198.877 283.764 198.546 282.518C198.437 282.107 198.415 277.861 198.414 257.076L198.413 232.128L198.889 230.383C200.106 225.919 201.227 222.62 204.544 213.749C208.354 203.559 209.85 198.326 210.767 191.978C212.153 182.386 211.23 171.373 208.2 161.367C207.079 157.665 205.876 154.711 203.876 150.75C201.826 146.69 200.54 144.52 199.023 142.564L198.413 141.778V128.914C198.413 117.673 198.432 115.979 198.56 115.485C199.038 113.646 200.616 112.199 202.489 111.883C202.751 111.839 224.247 111.809 250.259 111.816L297.552 111.829L298.192 112.079ZM323.427 159.938C326.563 160.324 329.708 162.191 331.42 164.683C332.077 165.64 332.26 166.041 332.528 167.108C333.72 171.859 332.848 176.067 330.092 178.86C329.314 179.649 327.55 181.086 325.698 182.443C323.199 184.272 320.393 185.867 316.341 187.759C313.947 188.877 308.699 191.161 308.523 191.161C308.462 191.161 308.429 186.288 308.429 177.415V163.669L308.884 163.473C310.044 162.973 313.566 161.705 314.97 161.282C317.116 160.635 319.585 160.096 321.319 159.894C321.933 159.823 322.599 159.837 323.427 159.938ZM312.38 204.519C314.9 204.765 317.162 205.816 318.946 207.572C322.668 211.233 323.35 216.882 320.586 221.144C319.696 222.516 318.997 223.079 311.001 228.862C306.409 232.182 303.169 234.461 302.712 234.691C301.117 235.493 299.642 235.802 297.792 235.722C291.878 235.469 287.189 230.285 287.476 224.316C287.6 221.72 288.64 219.33 290.402 217.588C291.399 216.601 305.924 206.086 307.087 205.507C308.1 205.004 309.376 204.632 310.442 204.528C310.89 204.484 311.299 204.444 311.352 204.438C311.405 204.433 311.867 204.469 312.38 204.519ZM316.24 235.714C319.463 236.378 322.144 238.402 323.653 241.31C326.033 245.898 324.766 251.623 320.678 254.752C319.238 255.855 301.695 268.504 301.216 268.785C296.498 271.558 290.151 270.092 287.074 265.518C285.782 263.597 285.237 261.796 285.239 259.456C285.242 256.855 285.976 254.756 287.602 252.695C287.928 252.282 288.424 251.746 288.705 251.504C289.44 250.868 307.853 237.532 308.751 236.985C310.912 235.669 313.713 235.193 316.24 235.714ZM316.079 270.147C318.229 270.777 319.936 272.041 321.167 273.915C323.471 277.423 322.972 282.153 319.988 285.1C319.353 285.726 314.203 289.534 312.416 290.699C310.979 291.634 309.477 292.067 307.663 292.067C305.141 292.067 302.977 291.139 301.234 289.31C299.966 287.979 299.125 286.303 298.843 284.546C298.685 283.558 298.772 281.862 299.031 280.871C299.426 279.363 300.38 277.738 301.473 276.713C302.263 275.972 308.705 271.314 309.594 270.84C311.036 270.073 311.985 269.867 313.892 269.909C315.056 269.934 315.529 269.986 316.079 270.147ZM251.792 292.117C255.27 292.856 257.99 295.415 259.043 298.938C259.281 299.734 259.302 299.938 259.303 301.485C259.305 303.408 259.178 304.046 258.512 305.471C258 306.566 257.529 307.258 256.7 308.131C254.761 310.171 252.107 311.225 249.308 311.064C246.253 310.889 243.55 309.35 241.883 306.837C241.267 305.908 240.962 305.254 240.605 304.093C240.367 303.32 240.349 303.139 240.349 301.485C240.349 299.824 240.366 299.652 240.609 298.863C241.38 296.353 243.019 294.313 245.275 293.052C246.243 292.512 247.508 292.137 249.061 291.93C249.537 291.867 251.127 291.976 251.792 292.117Z" fill="#583311"/>
<path d="M1030.45 420.487L1008 394.398H1019.39C1020.1 400 1024.78 404.326 1030.45 404.326C1036.12 404.326 1040.79 400 1041.51 394.398H1052.9L1030.45 420.487Z" fill="#583311"/>
<path d="M1030.37 400.887C1029.04 396.761 1025.24 393.784 1020.76 393.784C1020.63 393.784 1020.49 393.79 1020.36 393.795C1021.1 388.816 1025.3 385.001 1030.37 385.001C1035.44 385.001 1039.65 388.816 1040.38 393.795C1040.25 393.79 1040.12 393.784 1039.99 393.784C1035.51 393.784 1031.71 396.761 1030.37 400.887Z" fill="#583311"/>
<defs>
<filter id="filter0_d_1036_4712" x="0" y="0" width="1144" height="486" filterUnits="userSpaceOnUse" color-interpolation-filters="sRGB">
<feFlood flood-opacity="0" result="BackgroundImageFix"/>
<feColorMatrix in="SourceAlpha" type="matrix" values="0 0 0 0 0 0 0 0 0 0 0 0 0 0 0 0 0 0 127 0" result="hardAlpha"/>
<feOffset dy="4"/>
<feGaussianBlur stdDeviation="2"/>
<feComposite in2="hardAlpha" operator="out"/>
<feColorMatrix type="matrix" values="0 0 0 0 0 0 0 0 0 0 0 0 0 0 0 0 0 0 0.25 0"/>
<feBlend mode="normal" in2="BackgroundImageFix" result="effect1_dropShadow_1036_4712"/>
<feBlend mode="normal" in="SourceGraphic" in2="effect1_dropShadow_1036_4712" result="shape"/>
</filter>
</defs>
</svg>
