<svg width="1144" height="486" viewBox="0 0 1144 486" fill="none" xmlns="http://www.w3.org/2000/svg">
<g filter="url(#filter0_d_971_3234)">
<mask id="path-1-inside-1_971_3234" fill="white">
<path fill-rule="evenodd" clip-rule="evenodd" d="M1056.49 0L1065.06 20.6032L1073.63 0H1130C1135.52 0 1140 4.47715 1140 10V468C1140 473.523 1135.52 478 1130 478H424.078L417.031 461.516L409.983 478H405.158L399.826 465.182L394.493 478H140.744L135.843 467.011L130.941 478H126.402L119.403 461.516L112.404 478H14C8.47717 478 4 473.523 4 468V10C4 4.47716 8.47715 0 14 0H630.815L639.386 20.6032L647.957 0H649.45L655.824 14.6512L662.198 0H1040.37L1046.03 12.8188L1051.68 0H1056.49Z"/>
</mask>
<path fill-rule="evenodd" clip-rule="evenodd" d="M1056.49 0L1065.06 20.6032L1073.63 0H1130C1135.52 0 1140 4.47715 1140 10V468C1140 473.523 1135.52 478 1130 478H424.078L417.031 461.516L409.983 478H405.158L399.826 465.182L394.493 478H140.744L135.843 467.011L130.941 478H126.402L119.403 461.516L112.404 478H14C8.47717 478 4 473.523 4 468V10C4 4.47716 8.47715 0 14 0H630.815L639.386 20.6032L647.957 0H649.45L655.824 14.6512L662.198 0H1040.37L1046.03 12.8188L1051.68 0H1056.49Z" fill="#FEEDD5"/>
<path d="M1056.49 0L1059.26 -1.1523L1058.49 -3H1056.49V0ZM1065.06 20.6032L1062.29 21.7555L1065.06 28.4136L1067.83 21.7555L1065.06 20.6032ZM1073.63 0V-3H1071.63L1070.86 -1.1523L1073.63 0ZM424.078 478L421.32 479.179L422.098 481H424.078V478ZM417.031 461.516L419.789 460.337L417.031 453.884L414.272 460.337L417.031 461.516ZM409.983 478V481H411.963L412.742 479.179L409.983 478ZM405.158 478L402.388 479.152L403.157 481H405.158V478ZM399.826 465.182L402.596 464.03L399.826 457.372L397.056 464.03L399.826 465.182ZM394.493 478V481H396.495L397.263 479.152L394.493 478ZM140.744 478L138.004 479.222L138.797 481H140.744V478ZM135.843 467.011L138.582 465.789L135.843 459.647L133.103 465.789L135.843 467.011ZM130.941 478V481H132.888L133.681 479.222L130.941 478ZM126.402 478L123.641 479.172L124.417 481H126.402V478ZM119.403 461.516L122.165 460.343L119.403 453.84L116.642 460.343L119.403 461.516ZM112.404 478V481H114.39L115.166 479.172L112.404 478ZM630.815 0L633.584 -1.1523L632.816 -3H630.815V0ZM639.386 20.6032L636.616 21.7555L639.386 28.4136L642.156 21.7555L639.386 20.6032ZM647.957 0V-3H645.956L645.187 -1.15231L647.957 0ZM649.45 0L652.201 -1.19681L651.417 -3H649.45V0ZM655.824 14.6512L653.073 15.848L655.824 22.1712L658.575 15.848L655.824 14.6512ZM662.198 0V-3H660.232L659.448 -1.19681L662.198 0ZM1040.37 0L1043.12 -1.21115L1042.33 -3H1040.37V0ZM1046.03 12.8188L1043.28 14.03L1046.03 20.2498L1048.77 14.03L1046.03 12.8188ZM1051.68 0V-3H1049.73L1048.94 -1.21115L1051.68 0ZM1053.72 1.1523L1062.29 21.7555L1067.83 19.4509L1059.26 -1.1523L1053.72 1.1523ZM1067.83 21.7555L1076.4 1.1523L1070.86 -1.1523L1062.29 19.4509L1067.83 21.7555ZM1073.63 3H1130V-3H1073.63V3ZM1130 3C1133.87 3 1137 6.13401 1137 10H1143C1143 2.82029 1137.18 -3 1130 -3V3ZM1137 10V468H1143V10H1137ZM1137 468C1137 471.866 1133.87 475 1130 475V481C1137.18 481 1143 475.18 1143 468H1137ZM1130 475H424.078V481H1130V475ZM426.837 476.821L419.789 460.337L414.272 462.695L421.32 479.179L426.837 476.821ZM414.272 460.337L407.225 476.821L412.742 479.179L419.789 462.695L414.272 460.337ZM409.983 475H405.158V481H409.983V475ZM407.928 476.848L402.596 464.03L397.056 466.334L402.388 479.152L407.928 476.848ZM397.056 464.03L391.723 476.848L397.263 479.152L402.596 466.334L397.056 464.03ZM394.493 475H140.744V481H394.493V475ZM143.484 476.778L138.582 465.789L133.103 468.233L138.004 479.222L143.484 476.778ZM133.103 465.789L128.201 476.778L133.681 479.222L138.582 468.233L133.103 465.789ZM130.941 475H126.402V481H130.941V475ZM129.164 476.828L122.165 460.343L116.642 462.688L123.641 479.172L129.164 476.828ZM116.642 460.343L109.643 476.828L115.166 479.172L122.165 462.688L116.642 460.343ZM112.404 475H14V481H112.404V475ZM14 475C10.134 475 7 471.866 7 468H1C1 475.18 6.82032 481 14 481V475ZM7 468V10H1V468H7ZM7 10C7 6.13401 10.134 3 14 3V-3C6.8203 -3 1 2.82031 1 10H7ZM14 3H630.815V-3H14V3ZM628.045 1.1523L636.616 21.7555L642.156 19.4509L633.584 -1.1523L628.045 1.1523ZM642.156 21.7555L650.727 1.15231L645.187 -1.15231L636.616 19.4509L642.156 21.7555ZM647.957 3H649.45V-3H647.957V3ZM646.699 1.19681L653.073 15.848L658.575 13.4544L652.201 -1.19681L646.699 1.19681ZM658.575 15.848L664.949 1.19681L659.448 -1.19681L653.073 13.4544L658.575 15.848ZM662.198 3H1040.37V-3H662.198V3ZM1037.63 1.21115L1043.28 14.03L1048.77 11.6077L1043.12 -1.21115L1037.63 1.21115ZM1048.77 14.03L1054.43 1.21115L1048.94 -1.21115L1043.28 11.6077L1048.77 14.03ZM1051.68 3H1056.49V-3H1051.68V3Z" fill="#CDAB94" mask="url(#path-1-inside-1_971_3234)"/>
</g>
<ellipse cx="1120.31" cy="18.9943" rx="2.92589" ry="2.9943" fill="#D1AF98"/>
<ellipse cx="1120.31" cy="27.9767" rx="2.92589" ry="2.9943" fill="#D1AF98"/>
<ellipse cx="1115.93" cy="23.4845" rx="2.92589" ry="2.9943" fill="#D1AF98"/>
<ellipse cx="1124.7" cy="23.4845" rx="2.92589" ry="2.9943" fill="#D1AF98"/>
<path d="M1120.32 35.0801V210.265" stroke="#D1AF98" stroke-width="2"/>
<rect x="43" y="35" width="1058" height="408" stroke="#D1AF98" stroke-width="2"/>
<ellipse cx="25.3146" cy="441.287" rx="2.92589" ry="2.9943" fill="#D1AF98"/>
<ellipse cx="25.3146" cy="450.27" rx="2.92589" ry="2.9943" fill="#D1AF98"/>
<ellipse cx="20.9259" cy="445.777" rx="2.92589" ry="2.9943" fill="#D1AF98"/>
<ellipse cx="29.7037" cy="445.777" rx="2.92589" ry="2.9943" fill="#D1AF98"/>
<path d="M25.3149 259V434.185" stroke="#D1AF98" stroke-width="2"/>
<defs>
<filter id="filter0_d_971_3234" x="0" y="0" width="1144" height="486" filterUnits="userSpaceOnUse" color-interpolation-filters="sRGB">
<feFlood flood-opacity="0" result="BackgroundImageFix"/>
<feColorMatrix in="SourceAlpha" type="matrix" values="0 0 0 0 0 0 0 0 0 0 0 0 0 0 0 0 0 0 127 0" result="hardAlpha"/>
<feOffset dy="4"/>
<feGaussianBlur stdDeviation="2"/>
<feComposite in2="hardAlpha" operator="out"/>
<feColorMatrix type="matrix" values="0 0 0 0 0 0 0 0 0 0 0 0 0 0 0 0 0 0 0.25 0"/>
<feBlend mode="normal" in2="BackgroundImageFix" result="effect1_dropShadow_971_3234"/>
<feBlend mode="normal" in="SourceGraphic" in2="effect1_dropShadow_971_3234" result="shape"/>
</filter>
</defs>
</svg>
