<svg width="192" height="206" viewBox="0 0 192 206" fill="none" xmlns="http://www.w3.org/2000/svg">
<mask id="path-1-inside-1_835_1671" fill="white">
<path fill-rule="evenodd" clip-rule="evenodd" d="M167.728 0.0827899L174.784 17.0454V197.481C174.784 202.026 171.1 205.709 166.556 205.709H136.055L128.234 187.416L120.424 205.684L114.08 190.435L107.725 205.709H29.8252L23.1128 190.661L17.1656 203.994L10.2168 187.628V8.22838C10.2168 3.68398 13.9008 0 18.4452 0H37.2138L44.2661 16.9521L51.3184 0H52.549L57.7934 12.0547L63.0379 0H154.416L159.344 11.1698L164.273 0H166.556C166.954 0 167.345 0.0282279 167.728 0.0827899Z"/>
</mask>
<path fill-rule="evenodd" clip-rule="evenodd" d="M167.728 0.0827899L174.784 17.0454V197.481C174.784 202.026 171.1 205.709 166.556 205.709H136.055L128.234 187.416L120.424 205.684L114.08 190.435L107.725 205.709H29.8252L23.1128 190.661L17.1656 203.994L10.2168 187.628V8.22838C10.2168 3.68398 13.9008 0 18.4452 0H37.2138L44.2661 16.9521L51.3184 0H52.549L57.7934 12.0547L63.0379 0H154.416L159.344 11.1698L164.273 0H166.556C166.954 0 167.345 0.0282279 167.728 0.0827899Z" fill="url(#paint0_linear_835_1671)"/>
<path d="M167.728 0.0827899L170.007 -0.86537L169.467 -2.1627L168.076 -2.36101L167.728 0.0827899ZM174.784 17.0454H177.253V16.5524L177.064 16.0973L174.784 17.0454ZM136.055 205.709L133.785 206.68L134.426 208.178H136.055V205.709ZM128.234 187.416L130.504 186.446L128.234 181.137L125.964 186.446L128.234 187.416ZM120.424 205.684L118.145 206.632L120.393 212.036L122.693 206.655L120.424 205.684ZM114.08 190.435L116.359 189.486L114.08 184.008L111.8 189.486L114.08 190.435ZM107.725 205.709V208.178H109.372L110.004 206.658L107.725 205.709ZM29.8252 205.709L27.5707 206.715L28.2233 208.178H29.8252V205.709ZM23.1128 190.661L25.3672 189.656L23.1128 184.601L20.8584 189.656L23.1128 190.661ZM17.1656 203.994L14.8934 204.959L17.1098 210.179L19.42 205L17.1656 203.994ZM10.2168 187.628H7.74828V188.131L7.94461 188.593L10.2168 187.628ZM37.2138 0L39.4929 -0.94816L38.8604 -2.46851H37.2138V0ZM44.2661 16.9521L41.9869 17.9003L44.2661 23.3789L46.5452 17.9003L44.2661 16.9521ZM51.3184 0V-2.46851H49.6717L49.0392 -0.94816L51.3184 0ZM52.549 0L54.8125 -0.984782L54.167 -2.46851H52.549V0ZM57.7934 12.0547L55.5298 13.0395L57.7934 18.2424L60.057 13.0395L57.7934 12.0547ZM63.0379 0V-2.46851H61.4198L60.7743 -0.984782L63.0379 0ZM154.416 0L156.674 -0.996571L156.024 -2.46851H154.416V0ZM159.344 11.1698L157.086 12.1664L159.344 17.2843L161.603 12.1664L159.344 11.1698ZM164.273 0V-2.46851H162.664L162.015 -0.996571L164.273 0ZM165.449 1.03095L172.505 17.9936L177.064 16.0973L170.007 -0.86537L165.449 1.03095ZM172.316 17.0454V197.481H177.253V17.0454H172.316ZM172.316 197.481C172.316 200.662 169.737 203.241 166.556 203.241V208.178C172.464 208.178 177.253 203.389 177.253 197.481H172.316ZM166.556 203.241H136.055V208.178H166.556V203.241ZM138.325 204.739L130.504 186.446L125.964 188.386L133.785 206.68L138.325 204.739ZM125.964 186.446L118.154 204.714L122.693 206.655L130.504 188.386L125.964 186.446ZM122.703 204.736L116.359 189.486L111.8 191.383L118.145 206.632L122.703 204.736ZM111.8 189.486L105.446 204.761L110.004 206.658L116.359 191.383L111.8 189.486ZM107.725 203.241H29.8252V208.178H107.725V203.241ZM32.0796 204.704L25.3672 189.656L20.8584 191.667L27.5707 206.715L32.0796 204.704ZM20.8584 189.656L14.9112 202.989L19.42 205L25.3672 191.667L20.8584 189.656ZM19.4378 203.03L12.489 186.664L7.94461 188.593L14.8934 204.959L19.4378 203.03ZM12.6853 187.628V8.22838H7.74828V187.628H12.6853ZM12.6853 8.22838C12.6853 5.0473 15.2641 2.46851 18.4452 2.46851V-2.46851C12.5374 -2.46851 7.74828 2.32065 7.74828 8.22838H12.6853ZM18.4452 2.46851H37.2138V-2.46851H18.4452V2.46851ZM34.9346 0.94816L41.9869 17.9003L46.5452 16.004L39.4929 -0.94816L34.9346 0.94816ZM46.5452 17.9003L53.5976 0.94816L49.0392 -0.94816L41.9869 16.004L46.5452 17.9003ZM51.3184 2.46851H52.549V-2.46851H51.3184V2.46851ZM50.2854 0.984782L55.5298 13.0395L60.057 11.0699L54.8125 -0.984782L50.2854 0.984782ZM60.057 13.0395L65.3015 0.984782L60.7743 -0.984782L55.5298 11.0699L60.057 13.0395ZM63.0379 2.46851H154.416V-2.46851H63.0379V2.46851ZM152.157 0.996571L157.086 12.1664L161.603 10.1732L156.674 -0.996571L152.157 0.996571ZM161.603 12.1664L166.532 0.996571L162.015 -0.996571L157.086 10.1732L161.603 12.1664ZM164.273 2.46851H166.556V-2.46851H164.273V2.46851ZM166.556 2.46851C166.837 2.46851 167.112 2.48843 167.379 2.52659L168.076 -2.36101C167.578 -2.43198 167.071 -2.46851 166.556 -2.46851V2.46851Z" fill="url(#paint1_linear_835_1671)" mask="url(#path-1-inside-1_835_1671)"/>
<g clip-path="url(#clip0_835_1671)">
<path d="M87.0329 91.0286C87.0329 96.1639 82.508 100.327 76.9262 100.327C71.3444 100.327 66.8194 96.1639 66.8194 91.0286C66.8194 85.8934 71.3444 81.7304 76.9262 81.7304C82.508 81.7304 87.0329 85.8934 87.0329 91.0286Z" fill="black"/>
<path d="M112.098 91.0286C112.098 96.1639 116.623 100.327 122.204 100.327C127.786 100.327 132.311 96.1639 132.311 91.0286C132.311 85.8934 127.786 81.7304 122.204 81.7304C116.623 81.7304 112.098 85.8934 112.098 91.0286Z" fill="black"/>
<path d="M61.1596 99.6722L61.9196 99.3961L61.1596 99.6722ZM56.5254 99.9446C56.091 100.048 55.8227 100.484 55.9261 100.918C56.0295 101.353 56.4655 101.621 56.8999 101.518L56.5254 99.9446ZM64.4215 104.774L64.9943 104.203L64.9943 104.203L64.4215 104.774ZM66.8451 110.232C66.7335 110.664 66.9935 111.105 67.4258 111.217C67.8582 111.328 68.2992 111.068 68.4108 110.636L66.8451 110.232ZM60.6823 105.738C60.3219 106.002 60.2434 106.508 60.507 106.868C60.7706 107.229 61.2765 107.307 61.6369 107.044L60.6823 105.738ZM142.153 101.364C142.587 101.467 143.023 101.199 143.127 100.765C143.23 100.33 142.962 99.8941 142.527 99.7907L142.153 101.364ZM130.642 110.482C130.754 110.914 131.195 111.174 131.627 111.063C132.059 110.951 132.319 110.51 132.208 110.078L130.642 110.482ZM137.416 106.89C137.776 107.153 138.282 107.075 138.546 106.714C138.809 106.354 138.731 105.848 138.37 105.584L137.416 106.89ZM89.4586 95.0713C89.4586 102.398 83.1666 108.412 75.3091 108.412V110.029C83.9738 110.029 91.0757 103.374 91.0757 95.0713H89.4586ZM61.1596 95.0713C61.1596 87.7451 67.4516 81.7304 75.3091 81.7304V80.1133C66.6444 80.1133 59.5425 86.7685 59.5425 95.0713H61.1596ZM75.3091 81.7304C83.1666 81.7304 89.4586 87.7451 89.4586 95.0713H91.0757C91.0757 86.7685 83.9738 80.1133 75.3091 80.1133V81.7304ZM108.055 95.0713C108.055 103.374 115.157 110.029 123.822 110.029V108.412C115.964 108.412 109.672 102.398 109.672 95.0713H108.055ZM123.822 110.029C132.486 110.029 139.588 103.374 139.588 95.0713H137.971C137.971 102.398 131.679 108.412 123.822 108.412V110.029ZM139.588 95.0713C139.588 86.7685 132.486 80.1133 123.822 80.1133V81.7304C131.679 81.7304 137.971 87.7451 137.971 95.0713H139.588ZM123.822 80.1133C115.157 80.1133 108.055 86.7685 108.055 95.0713H109.672C109.672 87.7451 115.964 81.7304 123.822 81.7304V80.1133ZM111.289 91.0286C111.289 96.6726 116.241 101.135 122.204 101.135V99.5183C117.004 99.5183 112.906 95.6552 112.906 91.0286H111.289ZM122.204 101.135C128.168 101.135 133.12 96.6726 133.12 91.0286H131.503C131.503 95.6552 127.405 99.5183 122.204 99.5183V101.135ZM133.12 91.0286C133.12 85.3847 128.168 80.9219 122.204 80.9219V82.539C127.405 82.539 131.503 86.4021 131.503 91.0286H133.12ZM122.204 80.9219C116.241 80.9219 111.289 85.3847 111.289 91.0286H112.906C112.906 86.4021 117.004 82.539 122.204 82.539V80.9219ZM86.2244 91.0286C86.2244 95.6552 82.1262 99.5183 76.9262 99.5183V101.135C82.8897 101.135 87.8415 96.6726 87.8415 91.0286H86.2244ZM76.9262 99.5183C71.7261 99.5183 67.628 95.6552 67.628 91.0286H66.0109C66.0109 96.6726 70.9626 101.135 76.9262 101.135V99.5183ZM67.628 91.0286C67.628 86.4021 71.7261 82.539 76.9262 82.539V80.9219C70.9626 80.9219 66.0109 85.3847 66.0109 91.0286H67.628ZM76.9262 82.539C82.1262 82.539 86.2244 86.4021 86.2244 91.0286H87.8415C87.8415 85.3847 82.8897 80.9219 76.9262 80.9219V82.539ZM61.9196 99.3961C61.427 98.0405 61.1596 96.586 61.1596 95.0713H59.5425C59.5425 96.778 59.8441 98.4191 60.3997 99.9483L61.9196 99.3961ZM60.9723 98.8857L56.5254 99.9446L56.8999 101.518L61.3469 100.459L60.9723 98.8857ZM75.3091 108.412C72.9264 108.412 70.6848 107.858 68.7186 106.88L67.9986 108.328C70.1858 109.415 72.6736 110.029 75.3091 110.029V108.412ZM68.7186 106.88C67.3219 106.185 66.0644 105.277 64.9943 104.203L63.8487 105.345C65.0441 106.544 66.4456 107.555 67.9986 108.328L68.7186 106.88ZM67.5757 107.402L66.8451 110.232L68.4108 110.636L69.1415 107.806L67.5757 107.402ZM64.9943 104.203C64.8551 104.063 64.7191 103.921 64.5863 103.776L63.3927 104.867C63.5412 105.029 63.6932 105.188 63.8487 105.345L64.9943 104.203ZM64.5863 103.776C63.4207 102.5 62.5085 101.017 61.9196 99.3961L60.3997 99.9483C61.0637 101.776 62.0894 103.441 63.3927 104.867L64.5863 103.776ZM63.5122 103.669L60.6823 105.738L61.6369 107.044L64.4668 104.974L63.5122 103.669ZM137.706 100.305L142.153 101.364L142.527 99.7907L138.08 98.7318L137.706 100.305ZM129.911 107.652L130.642 110.482L132.208 110.078L131.477 107.248L129.911 107.652ZM134.586 104.82L137.416 106.89L138.37 105.584L135.541 103.515L134.586 104.82Z" fill="black"/>
<path d="M133.009 144.796C137.607 152.325 146.426 168.323 151.95 182C152.958 184.496 153.84 186.898 154.544 189.135C155.063 190.544 155.553 192.468 155.708 194.476C155.763 195.191 155.776 195.918 155.733 196.635C155.53 199.978 154.104 203.125 150.057 204.091M150.057 204.091L129.356 155.712M150.057 204.091C150.341 204.54 153.009 209.884 161.418 227.672C156.464 228.903 151.609 229.976 146.864 230.904M68.8404 147.222C80.9478 148.884 108.111 150.504 129.885 145.561M68.8404 147.222C70.6619 149.13 74.8282 152.364 80.2613 156.116M68.8404 147.222C63.5764 145.533 57.3344 142.376 51.861 137.612M68.8404 147.222C68.1209 148.76 67.2349 150.681 66.2449 152.882M70.575 192.979L68.4361 200.552C67.8326 202.595 66.3998 205.621 64.1488 207.595C62.9719 208.628 61.4614 209.373 59.504 209.54C58.8019 209.6 58.0422 209.586 57.2198 209.484C54.6812 209.168 53.0361 207.924 52.0127 206.246M70.575 192.979L72.4788 185.407L79.0003 159.388L80.2613 156.116M70.575 192.979C66.0936 192.397 56.2838 190.533 52.8956 187.737M52.8956 187.737C52.1699 190.329 51.5589 192.814 51.106 195.115C50.7459 196.573 50.4723 198.54 50.5401 200.552C50.5642 201.269 50.6318 201.993 50.7544 202.701C50.9744 203.972 51.3715 205.194 52.0127 206.246M52.8956 187.737C53.451 185.753 54.0893 183.69 54.7867 181.585M50.6481 72.432C47.4139 48.1758 67.3579 25.9409 77.7342 17.8555M50.6481 72.432C29.7968 104.969 38.5589 126.035 51.861 137.612M50.6481 72.432C53.0754 68.5484 60.2463 60.1178 70.8616 54.7003M77.7342 17.8555L106.842 49.3886M77.7342 17.8555C78.8122 25.8436 78.947 44.3959 70.8616 54.7003M106.842 49.3886C110.345 49.3886 115.331 49.3886 121.395 52.2185M106.842 49.3886C105.225 49.5233 101.344 50.0354 98.7563 51.0057M121.395 52.2185C134.332 49.3886 169.099 44.5373 179.61 49.3886M121.395 52.2185C123.282 53.1618 127.136 55.2101 127.459 55.8569M179.61 49.3886C177.589 61.921 160.61 86.5815 154.95 89.0071M179.61 49.3886C168.695 55.9917 147.916 72.2703 152.12 84.5601M154.95 89.0071C158.979 96.662 167.023 127.604 138.668 143.021C138.477 143.125 138.272 143.215 138.066 143.284C135.46 144.164 132.718 144.918 129.885 145.561M154.95 89.0071L152.12 84.5601M129.885 145.561C129.964 148.353 129.791 151.923 129.356 155.712M80.2613 156.116C91.4385 163.834 107.977 173.742 120.491 178.799C121.048 179.025 121.685 178.922 122.093 178.481C125.976 174.277 128.357 164.418 129.356 155.712M51.861 137.612C50.6864 137.545 46.6957 135.436 40.1372 138.13M66.2449 152.882C63.491 159.003 59.9318 167.289 56.9098 175.521M66.2449 152.882C64.2287 154.31 62.1232 155.27 59.9464 155.804M56.9098 175.521C54.6879 171.27 52.1844 161.376 59.9464 155.804M56.9098 175.521C56.1625 177.557 55.448 179.589 54.7867 181.585M59.9464 155.804C54.7221 156.7 51.0321 155.814 45.8448 152.882M54.7867 181.585C52.7653 173.904 48.147 157.41 45.8448 152.882M45.8448 152.882C42.2013 150.822 37.8191 147.754 31.6475 143.584C34.8328 140.841 37.6671 139.145 40.1372 138.13M40.1372 138.13C32.8603 121.082 14.9107 87.0666 1.3272 87.39C-12.2563 87.7134 -12.418 94.8016 -10.8009 98.3053C-9.31865 100.057 -5.22215 104.046 -0.694316 105.986C4.96547 108.412 45.9748 171.074 49.4352 211.097C49.4832 211.605 49.5503 212.697 49.4352 212.998M52.0127 206.246L49.4352 212.998M49.4352 212.998L43.3712 228.885C47.1893 230.329 52.9356 231.905 60.3506 233.21M60.3506 233.21L65.8775 270.044C65.9602 270.594 65.7536 271.149 65.3307 271.511L64.5234 272.203C63.9976 272.654 64.2437 273.511 64.93 273.604C70.7464 274.392 80.3646 275.33 82.9897 274.163C84.6068 270.605 92.2879 247.265 95.9264 236.039M60.3506 233.21C69.7196 234.858 81.7528 236.072 95.9264 236.039M108.054 235.714C105.857 235.826 103.7 235.907 101.586 235.961C99.6639 236.009 97.7769 236.035 95.9264 236.039M108.054 235.714C119.88 235.113 132.897 233.635 146.864 230.904M108.054 235.714L120.183 273.355C121.945 273.858 127.54 274.691 136.44 274.271C137.158 274.237 137.464 273.354 136.927 272.877L135.51 271.616C135.038 271.197 134.853 270.542 135.036 269.939L146.864 230.904M74.5 53.027C73.2464 53.5413 72.033 54.1025 70.8616 54.7003M149.29 80.1131L152.12 84.5601" stroke="black" stroke-width="1.61708" stroke-linecap="round"/>
<path d="M99.1597 114.496L95.0276 110.023C98.1348 109.152 100.227 109.17 103.29 110.025L99.1597 114.496Z" stroke="black" stroke-width="1.61708"/>
</g>
<path d="M191.434 178.097L178.359 186.812V158.124L191.434 155.219L182.717 172.649L191.434 178.097Z" fill="#B9B9B9"/>
<path d="M0.716797 182.413L13.791 186.811V162.44L0.716797 159.535L7.18794 172.484L0.716797 182.413Z" fill="#B9B9B9"/>
<rect x="10.3008" y="151.406" width="169.461" height="35" fill="#D9D9D9"/>
<path d="M45.5996 174.631H44.3984C43.5781 174.631 42.6764 174.436 41.6934 174.045C40.7103 173.648 39.9844 173.156 39.5156 172.57C39.4701 172.518 39.4147 172.434 39.3496 172.316C39.291 172.193 39.252 172.115 39.2324 172.082C39.2324 171.945 39.1283 171.665 38.9199 171.242C38.7181 170.812 38.6107 170.575 38.5977 170.529L38.7734 170.051L38.3926 169.943C38.2819 169.605 38.2103 169.11 38.1777 168.459C38.1452 167.808 38.1029 167.355 38.0508 167.102L38.2363 166.945L38.0508 166.77C38.0638 166.711 38.0898 166.62 38.1289 166.496C38.1745 166.372 38.2038 166.281 38.2168 166.223C38.3926 165.201 38.7376 164.279 39.252 163.459C39.7663 162.639 40.4466 161.968 41.293 161.447C41.4102 161.376 41.5371 161.307 41.6738 161.242C41.8105 161.177 41.9733 161.102 42.1621 161.018C42.3509 160.933 42.4811 160.874 42.5527 160.842C42.5788 160.855 42.6341 160.897 42.7188 160.969C42.8099 161.034 42.8685 161.066 42.8945 161.066C42.9141 161.066 42.9303 161.044 42.9434 160.998C42.9564 160.946 42.9661 160.891 42.9727 160.832C42.9857 160.773 42.9987 160.738 43.0117 160.725C43.4674 160.699 43.8027 160.64 44.0176 160.549C44.0762 160.549 44.1673 160.546 44.291 160.539C44.4212 160.533 44.5156 160.529 44.5742 160.529C44.7109 160.529 44.9193 160.539 45.1992 160.559C45.4792 160.578 45.6908 160.588 45.834 160.588C45.8991 160.588 46 160.578 46.1367 160.559C46.2734 160.539 46.3743 160.529 46.4395 160.529C46.6022 160.529 46.7747 160.539 46.957 160.559C47.1458 160.572 47.3053 160.588 47.4355 160.607C47.5658 160.627 47.7383 160.656 47.9531 160.695C48.1745 160.728 48.3405 160.751 48.4512 160.764V160.783L48.793 160.686L49.0762 160.871C49.0566 160.956 49.0273 161.057 48.9883 161.174C48.9492 161.285 48.9199 161.382 48.9004 161.467C48.8874 161.551 48.8841 161.659 48.8906 161.789L48.9199 161.828L48.7539 162.746L48.7148 162.785C48.6237 163.039 48.5586 163.299 48.5195 163.566L48.5391 163.645C48.4479 163.794 48.3796 163.967 48.334 164.162C48.2819 164.195 48.2103 164.26 48.1191 164.357C48.0345 164.449 47.9661 164.51 47.9141 164.543L47.7383 164.445C47.7383 164.439 47.748 164.393 47.7676 164.309C47.7871 164.217 47.7969 164.149 47.7969 164.104C47.7969 163.869 47.7415 163.654 47.6309 163.459C47.5202 163.257 47.377 163.094 47.2012 162.971C47.0254 162.84 46.8236 162.733 46.5957 162.648C46.3743 162.557 46.153 162.495 45.9316 162.463C45.7103 162.424 45.4922 162.404 45.2773 162.404C45.0625 162.404 44.7533 162.447 44.3496 162.531C43.946 162.616 43.6465 162.661 43.4512 162.668C43.4121 162.688 43.2624 162.756 43.002 162.873C42.7415 162.99 42.5462 163.094 42.416 163.186L42.1328 163.107V163.186C42.1328 163.225 42.1393 163.283 42.1523 163.361C42.1654 163.433 42.1719 163.488 42.1719 163.527C41.8724 163.638 41.599 163.944 41.3516 164.445C41.1042 164.94 40.9707 165.373 40.9512 165.744C40.8861 165.816 40.8275 165.923 40.7754 166.066C40.7298 166.21 40.7168 166.324 40.7363 166.408C40.7103 166.512 40.6973 166.597 40.6973 166.662C40.6973 166.747 40.7201 166.857 40.7656 166.994C40.8177 167.131 40.847 167.229 40.8535 167.287C40.8275 167.378 40.8145 167.525 40.8145 167.727C40.8145 168.417 40.8991 169.009 41.0684 169.504C41.2441 169.992 41.5404 170.539 41.957 171.145C42.0807 171.327 42.2142 171.486 42.3574 171.623C42.5007 171.753 42.6634 171.861 42.8457 171.945C43.028 172.023 43.1875 172.089 43.3242 172.141C43.4674 172.193 43.6595 172.232 43.9004 172.258C44.1413 172.277 44.3236 172.294 44.4473 172.307C44.5775 172.313 44.7858 172.32 45.0723 172.326L45.2969 172.707L45.5117 172.326C46.1107 172.326 46.651 172.209 47.1328 171.975C47.6211 171.74 48.002 171.379 48.2754 170.891L48.4121 170.822C48.4967 170.972 48.5391 171.187 48.5391 171.467C48.5391 171.551 48.5358 171.672 48.5293 171.828C48.5228 171.984 48.5195 172.092 48.5195 172.15C48.5195 172.3 48.5521 172.44 48.6172 172.57C48.6172 172.583 48.6107 172.609 48.5977 172.648C48.5846 172.688 48.5781 172.714 48.5781 172.727C48.5781 172.831 48.5879 172.98 48.6074 173.176C48.627 173.371 48.6367 173.521 48.6367 173.625L48.6172 173.664L48.3926 173.83C48.2754 173.869 48.1224 173.944 47.9336 174.055C47.7513 174.165 47.6309 174.237 47.5723 174.27C47.403 174.289 47.0938 174.354 46.6445 174.465C46.2018 174.576 45.8535 174.631 45.5996 174.631ZM52.2203 174.426C52.0445 174.426 51.7874 174.419 51.4488 174.406C51.1103 174.393 50.8531 174.387 50.6773 174.387V174.348C50.7685 174.289 50.8173 174.25 50.8238 174.23C50.8889 174.191 50.9573 174.123 51.0289 174.025C51.1005 173.921 51.1754 173.794 51.2535 173.645C51.3382 173.488 51.387 173.397 51.4 173.371L51.4195 173.166C51.4326 173.146 51.4846 173.078 51.5758 172.961C51.6734 172.837 51.7288 172.746 51.7418 172.688V172.648C51.7418 172.609 51.7255 172.544 51.693 172.453C51.6604 172.355 51.6441 172.287 51.6441 172.248L51.6832 172.17C51.6897 171.955 51.706 171.662 51.732 171.291C51.7646 170.92 51.7809 170.598 51.7809 170.324C51.7809 170.129 51.7939 169.784 51.8199 169.289C51.8525 168.788 51.859 168.381 51.8395 168.068L52.0641 167.805L51.8785 167.463C51.885 167.255 51.8818 167.049 51.8687 166.848C51.8622 166.646 51.846 166.434 51.8199 166.213C51.7939 165.992 51.7711 165.809 51.7516 165.666C51.732 165.523 51.6995 165.318 51.6539 165.051C51.6148 164.777 51.5855 164.576 51.566 164.445C51.553 164.361 51.4423 164.234 51.234 164.064C51.0322 163.889 50.928 163.755 50.9215 163.664L50.7652 163.449C50.8499 163.443 50.9898 163.42 51.1852 163.381C51.3805 163.335 51.5204 163.309 51.6051 163.303C51.7223 163.4 51.8687 163.449 52.0445 163.449C52.1422 163.449 52.2919 163.426 52.4937 163.381C52.6956 163.335 52.8323 163.309 52.9039 163.303C52.9365 163.316 52.9885 163.378 53.0602 163.488C53.1383 163.592 53.1936 163.645 53.2262 163.645C53.2327 163.645 53.2587 163.589 53.3043 163.479C53.3499 163.361 53.3759 163.303 53.3824 163.303C53.8707 163.394 54.1897 163.43 54.3395 163.41L54.398 163.43L54.525 163.41L54.5641 163.391C54.5966 163.391 54.6422 163.394 54.7008 163.4C54.7594 163.407 54.8049 163.41 54.8375 163.41V163.469C54.4273 163.762 54.1441 164.1 53.9879 164.484C53.8316 164.868 53.7633 165.331 53.7828 165.871C53.7568 165.897 53.7437 166.05 53.7437 166.33C53.7437 166.46 53.747 166.636 53.7535 166.857C53.76 167.079 53.7633 167.202 53.7633 167.229C53.7633 167.456 53.7698 167.798 53.7828 168.254C53.7958 168.703 53.8023 169.042 53.8023 169.27C53.8023 169.315 53.76 169.393 53.6754 169.504C53.5908 169.608 53.5517 169.683 53.5582 169.729C53.5647 169.768 53.6168 169.829 53.7145 169.914C53.8121 169.992 53.8609 170.051 53.8609 170.09C53.9 170.708 53.9195 171.333 53.9195 171.965C53.9195 172.18 53.9391 172.365 53.9781 172.521L54.1441 172.766C54.2223 172.811 54.2906 172.844 54.3492 172.863C54.4143 172.876 54.4632 172.886 54.4957 172.893C54.5283 172.893 54.5901 172.893 54.6812 172.893C54.7724 172.886 54.8473 172.883 54.9059 172.883C54.997 172.883 55.1305 172.87 55.3062 172.844C55.4885 172.811 55.635 172.798 55.7457 172.805C55.7717 172.798 55.8043 172.814 55.8434 172.854C55.8824 172.893 55.915 172.909 55.941 172.902C56.0061 172.896 56.1754 172.87 56.4488 172.824C56.7223 172.772 56.9208 172.746 57.0445 172.746C57.2789 172.746 57.5393 172.701 57.8258 172.609C58.1187 172.518 58.3564 172.411 58.5387 172.287H58.5582C58.6819 172.176 58.8349 172.004 59.0172 171.77C59.0497 171.73 59.079 171.656 59.1051 171.545C59.1311 171.434 59.1572 171.363 59.1832 171.33H59.2223L59.3004 171.262C59.3004 171.32 59.3199 171.402 59.359 171.506C59.4046 171.61 59.4306 171.685 59.4371 171.73C59.4957 171.952 59.525 172.076 59.525 172.102C59.551 172.18 59.5738 172.323 59.5934 172.531C59.6194 172.733 59.6487 172.886 59.6812 172.99C59.6878 173.01 59.7171 173.029 59.7691 173.049C59.8212 173.068 59.8505 173.088 59.857 173.107C59.8701 173.166 59.8961 173.299 59.9352 173.508C59.9807 173.71 60.023 173.863 60.0621 173.967C60.0621 173.993 60.0719 174.061 60.0914 174.172C60.1109 174.276 60.1142 174.354 60.1012 174.406C60.0621 174.419 60.0035 174.426 59.9254 174.426C59.5152 174.426 58.9 174.41 58.0797 174.377C57.2594 174.344 56.6474 174.328 56.2437 174.328C56.2242 174.328 56.1656 174.338 56.068 174.357C55.9703 174.377 55.902 174.387 55.8629 174.387C55.7717 174.387 55.6839 174.348 55.5992 174.27C55.5146 174.185 55.443 174.143 55.3844 174.143C55.3193 174.143 55.2249 174.182 55.1012 174.26C54.9775 174.331 54.8831 174.367 54.818 174.367H53.441L53.4605 174.328C52.7965 174.393 52.3831 174.426 52.2203 174.426ZM68.802 174.504H68.3039C68.5057 174.328 68.6717 174.188 68.802 174.084C68.8085 174.051 68.8247 173.99 68.8508 173.898C68.8768 173.801 68.8996 173.723 68.9191 173.664C68.9452 173.599 68.9745 173.54 69.007 173.488C68.968 173.254 68.9484 173.133 68.9484 173.127C68.9484 173.12 68.968 173.039 69.007 172.883C68.9159 172.727 68.8475 172.635 68.802 172.609C68.7434 171.958 68.5969 171.311 68.3625 170.666C68.2648 170.588 68.1053 170.549 67.884 170.549C67.6691 170.549 67.4022 170.585 67.0832 170.656C66.7707 170.721 66.4419 170.803 66.0969 170.9C65.7518 170.998 65.5207 171.06 65.4035 171.086C65.3189 171.307 65.2342 171.551 65.1496 171.818C65.065 172.079 64.9901 172.274 64.925 172.404C64.938 172.469 64.9445 172.583 64.9445 172.746C64.9445 172.935 64.9315 173.075 64.9055 173.166L64.7687 173.342C64.7818 173.413 64.8273 173.501 64.9055 173.605L65.2277 174.104C65.2668 174.143 65.4328 174.257 65.7258 174.445C65.6737 174.445 65.5956 174.449 65.4914 174.455C65.3937 174.462 65.3189 174.465 65.2668 174.465C64.9348 174.465 64.6353 174.439 64.3684 174.387C64.2382 174.413 64.0298 174.426 63.7434 174.426C63.6913 174.426 63.6132 174.419 63.509 174.406C63.4048 174.393 63.3299 174.387 63.2844 174.387L63.2453 174.396V174.406C63.2323 174.419 63.2193 174.426 63.2062 174.426C63.0891 174.426 62.9621 174.419 62.8254 174.406C62.6887 174.393 62.5943 174.387 62.5422 174.387C62.5031 174.387 62.3794 174.4 62.1711 174.426C62.132 174.406 62.0865 174.396 62.0344 174.396C61.9823 174.39 61.9204 174.39 61.8488 174.396C61.7837 174.403 61.7414 174.406 61.7219 174.406C61.6568 174.406 61.5526 174.41 61.4094 174.416C61.2727 174.423 61.1717 174.426 61.1066 174.426C61.1457 174.374 61.1945 174.338 61.2531 174.318C61.3182 174.292 61.3768 174.273 61.4289 174.26C61.4875 174.24 61.5689 174.178 61.673 174.074C61.7772 173.964 61.8879 173.807 62.0051 173.605H62.2687C62.2557 173.573 62.2297 173.527 62.1906 173.469C62.1581 173.404 62.1353 173.355 62.1223 173.322C62.1743 173.218 62.2525 173.101 62.3566 172.971C62.4608 172.834 62.5389 172.714 62.591 172.609L62.6887 172.521C62.8189 172.222 62.9523 171.958 63.0891 171.73C63.2909 171.379 63.5415 170.764 63.841 169.885C64.147 168.999 64.3358 168.345 64.4074 167.922L64.6906 167.844L64.5246 167.57C64.6743 167.271 64.7492 167.056 64.7492 166.926L64.8469 166.848C64.8534 166.802 64.8697 166.701 64.8957 166.545C64.9217 166.382 64.9478 166.239 64.9738 166.115C64.9999 165.985 65.0292 165.845 65.0617 165.695C65.1008 165.546 65.1431 165.419 65.1887 165.314C65.2408 165.21 65.2928 165.135 65.3449 165.09C65.3449 164.875 65.3417 164.719 65.3352 164.621C65.3352 164.517 65.3189 164.403 65.2863 164.279C65.2603 164.156 65.2147 164.045 65.1496 163.947L65.0031 163.723C64.9966 163.716 64.9543 163.697 64.8762 163.664C64.798 163.632 64.7557 163.612 64.7492 163.605C64.7362 163.586 64.7297 163.547 64.7297 163.488C64.7297 163.43 64.7232 163.391 64.7102 163.371L65.7062 163.322L65.9309 163.469L67.0637 163.41L67.1027 163.605L67.5715 163.371L68.1867 163.303L68.548 163.371L69.0656 163.322L69.2219 163.371C69.2479 163.443 69.2414 163.488 69.2023 163.508C68.9224 163.729 68.7238 164.087 68.6066 164.582L68.7238 164.943C68.7238 165.301 68.7857 165.686 68.9094 166.096C69.0331 166.506 69.1926 166.857 69.3879 167.15C69.427 167.209 69.4465 167.274 69.4465 167.346C69.4465 167.424 69.453 167.482 69.466 167.521C69.479 167.554 69.4921 167.574 69.5051 167.58C69.5246 167.587 69.5474 167.603 69.5734 167.629C69.5995 167.655 69.6223 167.694 69.6418 167.746L69.6223 168.029C69.759 168.192 69.9283 168.534 70.1301 169.055C70.3384 169.576 70.4426 169.934 70.4426 170.129C70.4426 170.161 70.423 170.217 70.384 170.295C70.3514 170.373 70.3319 170.422 70.3254 170.441L70.5695 170.549C70.6411 170.926 70.7648 171.32 70.9406 171.73C71.1164 172.141 71.3182 172.492 71.5461 172.785C71.5917 172.844 71.6275 172.893 71.6535 172.932C71.6796 172.964 71.6991 173 71.7121 173.039C71.7316 173.078 71.7414 173.111 71.7414 173.137C71.7479 173.156 71.7577 173.199 71.7707 173.264C71.7837 173.329 71.7967 173.384 71.8098 173.43L71.8684 173.684L72.1223 173.645L72.2102 173.703C72.3534 173.944 72.5389 174.178 72.7668 174.406C72.6626 174.419 72.4217 174.426 72.0441 174.426C71.979 174.413 71.8521 174.403 71.6633 174.396C71.4745 174.383 71.3475 174.387 71.2824 174.406C71.1066 174.445 70.9732 174.465 70.882 174.465C70.8234 174.465 70.7421 174.449 70.6379 174.416C70.5337 174.383 70.4556 174.367 70.4035 174.367L70.1496 174.465C70.104 174.452 69.9868 174.442 69.798 174.436C69.6158 174.429 69.4855 174.4 69.4074 174.348C69.3684 174.354 69.2772 174.38 69.134 174.426C68.9973 174.478 68.8866 174.504 68.802 174.504ZM65.8234 169.631C66.3052 169.52 66.979 169.318 67.8449 169.025C67.8254 168.947 67.7701 168.765 67.6789 168.479C67.5878 168.186 67.5227 167.941 67.4836 167.746C67.4576 167.616 67.4022 167.404 67.3176 167.111C67.2395 166.812 67.1906 166.584 67.1711 166.428L66.8879 166.008C66.8553 166.086 66.813 166.216 66.7609 166.398C66.7154 166.581 66.6698 166.717 66.6242 166.809C66.6112 166.945 66.5656 167.137 66.4875 167.385C66.4094 167.632 66.3345 167.811 66.2629 167.922C66.2694 168.039 66.1978 168.335 66.048 168.811C65.9048 169.286 65.8299 169.559 65.8234 169.631ZM83.8113 174.709C83.7918 174.696 83.7592 174.667 83.7137 174.621C83.6681 174.582 83.6258 174.546 83.5867 174.514C83.5477 174.488 83.5086 174.465 83.4695 174.445C83.424 174.315 83.3393 174.182 83.2156 174.045C83.0984 173.908 82.9552 173.765 82.7859 173.615C82.6167 173.465 82.4995 173.355 82.4344 173.283C82.4214 173.277 82.3823 173.267 82.3172 173.254C82.2521 173.241 82.2163 173.231 82.2098 173.225L80.6082 171.467C80.5691 171.35 80.5496 171.216 80.5496 171.066C80.3478 171.132 80.2208 171.138 80.1688 171.086C80.0385 170.956 79.7521 170.624 79.3094 170.09C79.3094 170.083 79.215 169.992 79.0262 169.816C78.8439 169.641 78.6551 169.462 78.4598 169.279L78.1668 169.006C78.0952 168.954 78.0236 168.902 77.952 168.85C77.8803 168.791 77.8185 168.742 77.7664 168.703C77.7143 168.658 77.6492 168.599 77.5711 168.527C77.4995 168.456 77.4441 168.404 77.4051 168.371C77.366 168.332 77.3042 168.27 77.2195 168.186C77.1414 168.094 77.0893 168.036 77.0633 168.01C77.0372 167.984 76.9754 167.922 76.8777 167.824C76.7866 167.72 76.7313 167.655 76.7117 167.629V167.521C76.6987 167.515 76.6173 167.437 76.4676 167.287C76.4546 167.385 76.448 167.684 76.448 168.186C76.448 168.426 76.4676 168.68 76.5066 168.947L76.3113 169.064L76.4871 169.348C76.435 169.751 76.409 170.126 76.409 170.471C76.409 170.965 76.4578 171.298 76.5555 171.467C76.5229 171.564 76.5066 171.636 76.5066 171.682C76.5066 171.792 76.5164 171.958 76.5359 172.18C76.562 172.401 76.575 172.564 76.575 172.668V172.902C76.575 173.007 76.6076 173.101 76.6727 173.186L76.5359 173.625L76.868 173.605C77.0568 173.99 77.2391 174.283 77.4148 174.484C77.3953 174.484 77.3628 174.481 77.3172 174.475C77.2716 174.468 77.2358 174.465 77.2098 174.465C77.1316 174.465 77.0079 174.475 76.8387 174.494C76.6694 174.514 76.5457 174.523 76.4676 174.523C76.3374 174.523 76.0216 174.514 75.5203 174.494C75.019 174.475 74.7033 174.465 74.573 174.465C74.534 174.465 74.4721 174.475 74.3875 174.494C74.3094 174.514 74.2508 174.523 74.2117 174.523L73.5672 174.484C73.5802 174.452 73.6225 174.387 73.6941 174.289C73.7723 174.185 73.8178 174.117 73.8309 174.084C73.948 173.947 74.0164 173.801 74.0359 173.645L74.1727 173.527C74.2247 173.371 74.2638 173.186 74.2898 172.971C74.3159 172.756 74.3419 172.593 74.368 172.482L74.5926 172.268C74.573 172.255 74.547 172.222 74.5145 172.17C74.4884 172.118 74.4624 172.082 74.4363 172.062C74.4949 171.893 74.534 171.701 74.5535 171.486C74.5665 171.434 74.573 171.327 74.573 171.164V170.305C74.5861 170.116 74.5958 169.787 74.6023 169.318C74.6154 168.85 74.6316 168.485 74.6512 168.225C74.6707 167.99 74.6707 167.756 74.6512 167.521C74.7033 167.417 74.7293 167.245 74.7293 167.004C74.7293 166.9 74.7228 166.753 74.7098 166.564C74.6967 166.376 74.6902 166.236 74.6902 166.145C74.6902 166.021 74.6935 165.848 74.7 165.627C74.7065 165.406 74.7098 165.24 74.7098 165.129C74.7163 165.116 74.687 165.018 74.6219 164.836C74.5568 164.654 74.4884 164.465 74.4168 164.27C74.3517 164.074 74.3159 163.96 74.3094 163.928V163.908C74.3094 163.798 74.3224 163.723 74.3484 163.684C74.3875 163.632 74.407 163.547 74.407 163.43V163.244C74.4461 163.205 74.5828 163.169 74.8172 163.137C75.0581 163.098 75.1883 163.055 75.2078 163.01L75.7547 163.547C75.8458 163.71 75.9988 163.902 76.2137 164.123C76.4285 164.338 76.6271 164.523 76.8094 164.68C76.9982 164.836 77.226 165.021 77.493 165.236C77.5516 165.282 77.5971 165.318 77.6297 165.344C77.6818 165.376 77.7078 165.516 77.7078 165.764C77.9357 165.861 78.0691 165.936 78.1082 165.988C78.1733 166.073 78.2905 166.184 78.4598 166.32C78.6355 166.451 78.7592 166.558 78.8309 166.643C78.8569 166.669 78.8862 166.714 78.9188 166.779C78.9513 166.844 78.9741 166.887 78.9871 166.906C79.4819 167.473 79.9572 167.938 80.4129 168.303C80.5952 168.452 80.9337 168.771 81.4285 169.26C81.9233 169.748 82.2326 170.038 82.3563 170.129C82.3563 170.07 82.3432 169.979 82.3172 169.855C82.2977 169.732 82.2879 169.641 82.2879 169.582C82.2879 169.504 82.2944 169.354 82.3074 169.133C82.3204 168.911 82.327 168.762 82.327 168.684C82.327 168.592 82.3042 168.462 82.2586 168.293C82.213 168.124 82.1902 167.993 82.1902 167.902C82.1902 167.798 82.2 167.648 82.2195 167.453C82.2391 167.258 82.2488 167.108 82.2488 167.004V166.242C82.2488 165.695 82.2163 165.223 82.1512 164.826L82.3758 164.543L82.0535 164.387L81.868 164.006L81.7117 163.869C81.6727 163.798 81.6076 163.736 81.5164 163.684C81.4253 163.625 81.3764 163.553 81.3699 163.469C81.448 163.469 81.5685 163.472 81.7313 163.479C81.894 163.485 82.0145 163.488 82.0926 163.488H82.4734C82.6232 163.488 82.7436 163.475 82.8348 163.449C82.952 163.462 83.144 163.469 83.4109 163.469C83.6128 163.469 83.7462 163.449 83.8113 163.41C83.8439 163.404 83.9285 163.391 84.0652 163.371C84.202 163.352 84.3094 163.342 84.3875 163.342C84.4135 163.342 84.5014 163.358 84.6512 163.391C84.8074 163.417 84.9018 163.436 84.9344 163.449C84.7716 163.534 84.6316 163.661 84.5145 163.83C84.3257 164.064 84.202 164.266 84.1434 164.436C84.0848 164.605 84.0555 164.829 84.0555 165.109C84.0555 165.415 84.049 165.62 84.0359 165.725L83.8309 165.93L84.0359 166.066C84.0164 166.125 84.0066 166.226 84.0066 166.369C84.0066 166.512 84.0262 166.734 84.0652 167.033C84.1108 167.326 84.1336 167.551 84.1336 167.707C84.1336 167.915 84.1108 168.221 84.0652 168.625C84.0262 169.029 84.0066 169.335 84.0066 169.543C84.0066 169.621 83.9611 169.761 83.8699 169.963C83.9806 170.373 84.0359 170.633 84.0359 170.744C84.0359 170.972 84.0587 171.145 84.1043 171.262C84.1499 171.372 84.1727 171.542 84.1727 171.77C84.1727 171.835 84.1792 171.929 84.1922 172.053C84.2052 172.17 84.2117 172.261 84.2117 172.326C84.2117 172.424 84.2508 172.658 84.3289 173.029C84.4135 173.4 84.4559 173.638 84.4559 173.742L84.534 173.85C84.5079 173.915 84.394 174.064 84.1922 174.299C83.9969 174.533 83.8699 174.67 83.8113 174.709ZM95.8711 174.562H95.7734C94.7383 174.562 93.9766 174.478 93.4883 174.309L93.332 174.426C93.2539 174.387 93.14 174.367 92.9902 174.367C92.9056 174.367 92.7949 174.374 92.6582 174.387C92.5215 174.4 92.4336 174.406 92.3945 174.406C92.9479 174.042 93.3125 173.589 93.4883 173.049L93.752 172.922C93.7389 172.876 93.6836 172.805 93.5859 172.707C93.6055 172.648 93.6478 172.375 93.7129 171.887L93.791 171.75L93.7324 171.584L93.7715 171.525C93.8757 170.581 93.9342 169.888 93.9473 169.445L94.1328 169.162L93.9668 169.025C94.0254 168.706 94.0547 168.381 94.0547 168.049C94.0547 167.886 94.0449 167.648 94.0254 167.336C94.0124 167.023 94.0059 166.786 94.0059 166.623C94.0059 166.311 94.0352 166.066 94.0938 165.891C94.0872 165.839 94.0612 165.721 94.0156 165.539C93.9701 165.357 93.9473 165.214 93.9473 165.109C93.9473 165.064 93.9538 164.995 93.9668 164.904C93.9798 164.807 93.9863 164.735 93.9863 164.689C93.9863 164.553 93.9603 164.344 93.9082 164.064C93.8561 163.785 93.8301 163.573 93.8301 163.43C93.8301 163.371 93.8398 163.28 93.8594 163.156C93.8789 163.033 93.8887 162.941 93.8887 162.883C93.8887 162.818 93.8171 162.785 93.6738 162.785C93.459 162.785 93.1497 162.831 92.7461 162.922C92.349 163.007 92.0755 163.055 91.9258 163.068C91.9323 163.049 91.9974 162.873 92.1211 162.541C92.2513 162.202 92.362 161.978 92.4531 161.867L92.3262 161.643C92.3913 161.519 92.5247 161.32 92.7266 161.047C92.9284 160.773 93.0618 160.552 93.127 160.383C93.2572 160.422 93.5241 160.48 93.9277 160.559C94.3314 160.63 94.5918 160.666 94.709 160.666C94.8001 160.666 94.9434 160.656 95.1387 160.637C95.334 160.617 95.4772 160.607 95.5684 160.607C95.679 160.607 95.832 160.64 96.0273 160.705C96.2227 160.77 96.3691 160.803 96.4668 160.803C96.5059 160.803 96.5514 160.773 96.6035 160.715C96.6621 160.656 96.7109 160.627 96.75 160.627C97.1146 160.627 97.6647 160.598 98.4004 160.539C99.1361 160.474 99.6927 160.441 100.07 160.441C100.292 160.441 100.62 160.454 101.057 160.48C101.499 160.5 101.831 160.51 102.053 160.51C102.163 160.51 102.264 160.503 102.355 160.49C102.453 160.471 102.531 160.451 102.59 160.432C102.648 160.412 102.73 160.383 102.834 160.344C102.945 160.305 103.036 160.272 103.107 160.246V160.344C103.107 160.559 103.023 160.874 102.854 161.291C102.691 161.708 102.596 162.007 102.57 162.189C102.564 162.235 102.479 162.391 102.316 162.658C102.16 162.925 102.085 163.081 102.092 163.127C101.968 163.186 101.887 163.231 101.848 163.264C101.743 163.049 101.464 162.886 101.008 162.775C100.552 162.665 100.181 162.629 99.8945 162.668C99.8555 162.655 99.7839 162.609 99.6797 162.531C99.5755 162.447 99.4974 162.404 99.4453 162.404C99.3802 162.404 99.2891 162.437 99.1719 162.502C99.0612 162.561 98.9733 162.59 98.9082 162.59C98.8171 162.59 98.6868 162.574 98.5176 162.541C98.3483 162.502 98.2181 162.482 98.127 162.482C97.9251 162.482 97.5996 162.535 97.1504 162.639C96.7012 162.736 96.3529 162.772 96.1055 162.746C96.125 162.805 96.1348 162.88 96.1348 162.971C96.1348 163.075 96.1087 163.228 96.0566 163.43C96.0046 163.625 95.9818 163.778 95.9883 163.889L95.793 164.084L96.0469 164.328C96.0599 164.393 96.0664 164.484 96.0664 164.602C96.0664 164.66 96.0632 164.755 96.0566 164.885C96.0501 165.015 96.0469 165.109 96.0469 165.168C96.0469 165.259 96.0599 165.386 96.0859 165.549C96.1185 165.712 96.1348 165.839 96.1348 165.93L96.1934 165.949L96.3691 165.803V165.744C96.4082 165.731 96.4473 165.725 96.4863 165.725C96.5319 165.725 96.5775 165.728 96.623 165.734C96.6686 165.741 96.7044 165.744 96.7305 165.744C96.8411 165.744 97.043 165.738 97.3359 165.725C97.6289 165.705 97.8535 165.699 98.0098 165.705L98.0488 165.666C98.1986 165.653 98.4199 165.637 98.7129 165.617C99.0059 165.598 99.224 165.581 99.3672 165.568V165.588C99.6536 165.588 99.9141 165.562 100.148 165.51C100.324 165.549 100.503 165.568 100.686 165.568L100.773 165.607L100.832 165.549C100.936 165.549 101.014 165.542 101.066 165.529C101.073 165.549 101.079 165.581 101.086 165.627C101.092 165.673 101.099 165.705 101.105 165.725C101.105 165.738 101.102 165.754 101.096 165.773C101.089 165.793 101.086 165.809 101.086 165.822C101.086 165.946 101.135 166.154 101.232 166.447C101.232 166.558 101.255 166.76 101.301 167.053C101.353 167.346 101.369 167.57 101.35 167.727L101.389 167.766C101.363 167.824 101.337 167.899 101.311 167.99C100.699 167.587 100.246 167.385 99.9531 167.385L99.8457 167.043L99.6113 167.385H99.5527H98.9473C98.8496 167.32 98.7161 167.287 98.5469 167.287L98.3516 167.365C98.332 167.365 98.2995 167.362 98.2539 167.355C98.2148 167.349 98.1855 167.346 98.166 167.346C98.0879 167.346 97.9674 167.359 97.8047 167.385C97.6484 167.411 97.5247 167.424 97.4336 167.424L97.3262 167.346L97.2285 167.463H96.75C96.6849 167.495 96.6035 167.525 96.5059 167.551C96.4147 167.57 96.3366 167.596 96.2715 167.629C96.2064 167.661 96.1445 167.72 96.0859 167.805L96.1738 167.941L96.2129 168.225L96.2715 168.322C96.2715 168.329 96.265 168.352 96.252 168.391C96.2389 168.423 96.2324 168.443 96.2324 168.449C96.2324 168.768 96.2715 169.234 96.3496 169.846L96.291 169.943V170.363C96.291 170.552 96.3105 170.76 96.3496 170.988C96.3105 171.008 96.2682 171.06 96.2227 171.145C96.1836 171.223 96.1543 171.271 96.1348 171.291C96.1543 171.304 96.1901 171.333 96.2422 171.379C96.2943 171.424 96.3366 171.454 96.3691 171.467C96.3691 171.74 96.431 172.108 96.5547 172.57C96.6784 173.026 96.8086 173.378 96.9453 173.625L97.0527 173.703L97.0137 173.762C97.0462 173.794 97.082 173.84 97.1211 173.898C97.1667 173.951 97.209 173.996 97.248 174.035C97.2871 174.068 97.3359 174.097 97.3945 174.123C97.4727 174.214 97.5833 174.309 97.7266 174.406C97.6289 174.406 97.4824 174.41 97.2871 174.416C97.0918 174.423 96.9453 174.426 96.8477 174.426C96.724 174.374 96.5775 174.348 96.4082 174.348C96.3171 174.348 96.1901 174.357 96.0273 174.377C95.8646 174.396 95.7376 174.406 95.6465 174.406L95.8711 174.562ZM109.289 174.562L109.211 174.289C109.093 174.432 109.022 174.504 108.996 174.504C108.865 174.504 108.693 174.501 108.478 174.494C108.27 174.488 108.101 174.484 107.97 174.484C107.664 174.484 107.472 174.465 107.394 174.426C107.173 174.426 106.981 174.419 106.818 174.406C106.662 174.393 106.473 174.387 106.252 174.387C106.206 174.387 106.147 174.357 106.076 174.299C106.011 174.24 105.955 174.211 105.91 174.211L105.793 174.367C105.74 174.387 105.454 174.4 104.933 174.406C104.412 174.413 104.106 174.439 104.015 174.484C104.028 174.471 104.035 174.452 104.035 174.426C104.035 174.419 104.025 174.39 104.005 174.338C103.986 174.286 103.989 174.257 104.015 174.25C104.217 174.152 104.383 174.032 104.513 173.889C104.65 173.739 104.738 173.615 104.777 173.518C104.816 173.42 104.829 173.355 104.816 173.322L105.05 172.307C105.057 172.242 105.073 172.062 105.099 171.77C105.125 171.47 105.148 171.255 105.168 171.125H105.129C105.129 171.066 105.125 171.008 105.119 170.949C105.112 170.884 105.109 170.822 105.109 170.764V170.666C105.135 170.627 105.177 170.552 105.236 170.441C105.21 170.279 105.197 170.048 105.197 169.748C105.197 169.507 105.187 169.273 105.168 169.045C105.252 168.908 105.295 168.729 105.295 168.508C105.295 168.417 105.265 168.277 105.207 168.088C105.155 167.899 105.129 167.753 105.129 167.648C105.129 167.596 105.135 167.548 105.148 167.502C105.161 167.45 105.174 167.411 105.187 167.385C105.207 167.359 105.233 167.316 105.265 167.258C105.304 167.199 105.334 167.157 105.353 167.131L105.216 166.867C105.229 166.776 105.236 166.649 105.236 166.486C105.236 166.304 105.22 166.135 105.187 165.979C105.161 165.816 105.112 165.607 105.041 165.354C104.969 165.093 104.92 164.904 104.894 164.787L105.109 164.602L104.855 164.465C104.823 164.413 104.735 164.335 104.591 164.23C104.448 164.12 104.36 164.038 104.328 163.986L103.976 163.684L103.908 163.566C103.999 163.553 104.132 163.531 104.308 163.498C104.49 163.459 104.66 163.43 104.816 163.41C104.972 163.384 105.125 163.371 105.275 163.371C105.347 163.371 105.457 163.384 105.607 163.41C105.757 163.436 105.871 163.449 105.949 163.449C106.04 163.449 106.209 163.443 106.457 163.43C106.704 163.417 106.877 163.41 106.974 163.41C107.013 163.423 107.098 163.43 107.228 163.43C107.339 163.43 107.511 163.423 107.746 163.41C107.987 163.397 108.13 163.391 108.175 163.391C108.254 163.391 108.364 163.4 108.507 163.42C108.651 163.439 108.758 163.449 108.83 163.449C108.96 163.449 109.041 163.423 109.074 163.371C109.106 163.378 109.145 163.41 109.191 163.469C109.243 163.527 109.276 163.56 109.289 163.566L109.435 163.342C109.533 163.361 109.617 163.371 109.689 163.371C109.774 163.371 109.907 163.355 110.089 163.322C110.278 163.29 110.444 163.283 110.588 163.303C110.867 163.348 111.323 163.371 111.955 163.371H112.931L112.892 163.605C112.866 163.645 112.834 163.719 112.795 163.83C112.755 163.941 112.723 164.048 112.697 164.152C112.671 164.257 112.642 164.38 112.609 164.523C112.576 164.66 112.557 164.742 112.55 164.768C112.505 164.794 112.469 164.855 112.443 164.953C112.417 165.044 112.401 165.096 112.394 165.109C112.42 165.37 112.345 165.588 112.17 165.764C112.163 165.751 112.143 165.725 112.111 165.686C112.085 165.64 112.065 165.611 112.052 165.598C112.046 165.578 112.03 165.549 112.004 165.51C111.977 165.471 111.955 165.441 111.935 165.422C111.922 165.402 111.899 165.376 111.867 165.344C111.841 165.305 111.815 165.279 111.789 165.266C111.769 165.246 111.743 165.223 111.711 165.197C111.685 165.171 111.655 165.152 111.623 165.139C111.597 165.119 111.567 165.103 111.535 165.09H111.427C111.16 164.953 110.483 164.885 109.396 164.885C108.784 164.885 108.384 164.878 108.195 164.865C107.993 164.852 107.707 164.846 107.336 164.846L107.17 165.324L106.935 165.422L107.189 165.705C107.189 165.764 107.183 165.826 107.17 165.891C107.157 165.956 107.15 166.008 107.15 166.047V166.867L107.111 166.887C107.098 166.965 107.091 167.059 107.091 167.17C107.091 167.215 107.101 167.284 107.121 167.375C107.14 167.466 107.143 167.603 107.13 167.785C107.196 167.792 107.261 167.795 107.326 167.795C107.391 167.788 107.485 167.782 107.609 167.775C107.739 167.769 107.84 167.766 107.912 167.766C108.035 167.766 108.11 167.772 108.136 167.785L108.371 167.766L109.914 167.746L110.07 167.902L110.216 167.746L110.968 167.805L111.007 167.824L111.037 168.088L111.095 168.186C111.108 168.29 111.19 168.511 111.339 168.85C111.496 169.182 111.58 169.4 111.593 169.504L111.476 169.67C111.339 169.605 110.871 169.491 110.07 169.328L109.914 169.143C109.881 169.149 109.829 169.178 109.757 169.23C109.692 169.283 109.643 169.309 109.611 169.309C108.921 169.309 108.481 169.289 108.293 169.25L108.175 169.289L107.511 169.162L107.453 169.211L107.15 169.309C107.176 169.465 107.189 169.676 107.189 169.943V170.686L107.052 170.891C107.052 170.91 107.082 170.933 107.14 170.959C107.199 170.985 107.228 171.008 107.228 171.027C107.228 171.158 107.228 171.249 107.228 171.301C107.228 171.353 107.235 171.441 107.248 171.564C107.261 171.688 107.27 171.783 107.277 171.848C107.277 171.887 107.293 171.949 107.326 172.033C107.365 172.118 107.381 172.183 107.375 172.229L107.355 172.443C107.433 172.456 107.57 172.492 107.765 172.551C107.967 172.603 108.123 172.635 108.234 172.648C108.312 172.661 108.426 172.668 108.576 172.668C108.628 172.668 108.703 172.665 108.8 172.658C108.905 172.652 108.983 172.648 109.035 172.648C109.093 172.648 109.227 172.661 109.435 172.688C109.448 172.688 109.477 172.707 109.523 172.746C109.569 172.785 109.598 172.805 109.611 172.805C109.624 172.805 109.657 172.782 109.709 172.736C109.767 172.691 109.823 172.668 109.875 172.668C110.975 172.629 111.593 172.58 111.73 172.521C111.776 172.502 111.877 172.417 112.033 172.268C112.196 172.111 112.31 172.023 112.375 172.004L112.531 171.848C112.563 171.88 112.638 172.027 112.755 172.287C112.873 172.541 112.938 172.694 112.951 172.746C113.224 173.599 113.384 174.126 113.429 174.328H113.312C112.694 174.328 112.28 174.354 112.072 174.406L112.033 174.387C111.584 174.426 111.131 174.445 110.675 174.445H110.529L110.431 174.328C110.405 174.335 110.369 174.361 110.324 174.406C110.285 174.445 110.242 174.465 110.197 174.465C110.112 174.465 109.963 174.481 109.748 174.514C109.533 174.546 109.38 174.562 109.289 174.562ZM116.554 174.426C116.378 174.426 116.121 174.419 115.782 174.406C115.444 174.393 115.187 174.387 115.011 174.387V174.348C115.102 174.289 115.151 174.25 115.157 174.23C115.223 174.191 115.291 174.123 115.363 174.025C115.434 173.921 115.509 173.794 115.587 173.645C115.672 173.488 115.721 173.397 115.734 173.371L115.753 173.166C115.766 173.146 115.818 173.078 115.909 172.961C116.007 172.837 116.062 172.746 116.075 172.688V172.648C116.075 172.609 116.059 172.544 116.027 172.453C115.994 172.355 115.978 172.287 115.978 172.248L116.017 172.17C116.023 171.955 116.04 171.662 116.066 171.291C116.098 170.92 116.114 170.598 116.114 170.324C116.114 170.129 116.127 169.784 116.154 169.289C116.186 168.788 116.193 168.381 116.173 168.068L116.398 167.805L116.212 167.463C116.219 167.255 116.215 167.049 116.202 166.848C116.196 166.646 116.18 166.434 116.154 166.213C116.127 165.992 116.105 165.809 116.085 165.666C116.066 165.523 116.033 165.318 115.988 165.051C115.948 164.777 115.919 164.576 115.9 164.445C115.887 164.361 115.776 164.234 115.568 164.064C115.366 163.889 115.262 163.755 115.255 163.664L115.099 163.449C115.183 163.443 115.323 163.42 115.519 163.381C115.714 163.335 115.854 163.309 115.939 163.303C116.056 163.4 116.202 163.449 116.378 163.449C116.476 163.449 116.626 163.426 116.827 163.381C117.029 163.335 117.166 163.309 117.238 163.303C117.27 163.316 117.322 163.378 117.394 163.488C117.472 163.592 117.527 163.645 117.56 163.645C117.566 163.645 117.592 163.589 117.638 163.479C117.683 163.361 117.71 163.303 117.716 163.303C118.204 163.394 118.523 163.43 118.673 163.41L118.732 163.43L118.859 163.41L118.898 163.391C118.93 163.391 118.976 163.394 119.034 163.4C119.093 163.407 119.139 163.41 119.171 163.41V163.469C118.761 163.762 118.478 164.1 118.321 164.484C118.165 164.868 118.097 165.331 118.116 165.871C118.09 165.897 118.077 166.05 118.077 166.33C118.077 166.46 118.081 166.636 118.087 166.857C118.094 167.079 118.097 167.202 118.097 167.229C118.097 167.456 118.103 167.798 118.116 168.254C118.129 168.703 118.136 169.042 118.136 169.27C118.136 169.315 118.094 169.393 118.009 169.504C117.924 169.608 117.885 169.683 117.892 169.729C117.898 169.768 117.95 169.829 118.048 169.914C118.146 169.992 118.195 170.051 118.195 170.09C118.234 170.708 118.253 171.333 118.253 171.965C118.253 172.18 118.273 172.365 118.312 172.521L118.478 172.766C118.556 172.811 118.624 172.844 118.683 172.863C118.748 172.876 118.797 172.886 118.829 172.893C118.862 172.893 118.924 172.893 119.015 172.893C119.106 172.886 119.181 172.883 119.239 172.883C119.331 172.883 119.464 172.87 119.64 172.844C119.822 172.811 119.969 172.798 120.079 172.805C120.105 172.798 120.138 172.814 120.177 172.854C120.216 172.893 120.249 172.909 120.275 172.902C120.34 172.896 120.509 172.87 120.782 172.824C121.056 172.772 121.254 172.746 121.378 172.746C121.613 172.746 121.873 172.701 122.159 172.609C122.452 172.518 122.69 172.411 122.872 172.287H122.892C123.015 172.176 123.168 172.004 123.351 171.77C123.383 171.73 123.413 171.656 123.439 171.545C123.465 171.434 123.491 171.363 123.517 171.33H123.556L123.634 171.262C123.634 171.32 123.654 171.402 123.693 171.506C123.738 171.61 123.764 171.685 123.771 171.73C123.829 171.952 123.859 172.076 123.859 172.102C123.885 172.18 123.907 172.323 123.927 172.531C123.953 172.733 123.982 172.886 124.015 172.99C124.021 173.01 124.051 173.029 124.103 173.049C124.155 173.068 124.184 173.088 124.191 173.107C124.204 173.166 124.23 173.299 124.269 173.508C124.314 173.71 124.357 173.863 124.396 173.967C124.396 173.993 124.405 174.061 124.425 174.172C124.445 174.276 124.448 174.354 124.435 174.406C124.396 174.419 124.337 174.426 124.259 174.426C123.849 174.426 123.234 174.41 122.413 174.377C121.593 174.344 120.981 174.328 120.577 174.328C120.558 174.328 120.499 174.338 120.402 174.357C120.304 174.377 120.236 174.387 120.196 174.387C120.105 174.387 120.017 174.348 119.933 174.27C119.848 174.185 119.777 174.143 119.718 174.143C119.653 174.143 119.558 174.182 119.435 174.26C119.311 174.331 119.217 174.367 119.152 174.367H117.775L117.794 174.328C117.13 174.393 116.717 174.426 116.554 174.426ZM126.524 174.484H126.036V174.406C126.127 174.387 126.251 174.296 126.407 174.133C126.57 173.964 126.667 173.833 126.7 173.742C126.733 173.664 126.765 173.534 126.798 173.352C126.83 173.163 126.866 173.02 126.905 172.922C126.86 172.72 126.837 172.456 126.837 172.131C126.837 171.721 126.873 171.102 126.944 170.275C127.022 169.449 127.061 168.827 127.061 168.41L127.325 168.303L127.159 168.205C127.107 167.938 127.081 167.639 127.081 167.307C127.081 167.144 127.087 166.903 127.1 166.584C127.113 166.265 127.12 166.027 127.12 165.871C127.12 165.819 127.13 165.738 127.149 165.627C127.169 165.516 127.179 165.435 127.179 165.383C127.179 165.285 127.169 165.188 127.149 165.09C127.13 164.992 127.104 164.885 127.071 164.768C127.039 164.644 127.016 164.549 127.003 164.484L127.12 164.328L126.944 164.27C126.925 164.087 126.853 163.918 126.729 163.762C126.612 163.605 126.469 163.508 126.3 163.469C126.345 163.443 126.397 163.423 126.456 163.41C126.521 163.391 126.573 163.378 126.612 163.371C126.651 163.365 126.713 163.358 126.798 163.352C126.889 163.345 126.944 163.342 126.964 163.342C127.087 163.387 127.354 163.41 127.764 163.41C127.882 163.41 128.061 163.42 128.302 163.439C128.542 163.459 128.721 163.469 128.839 163.469C129.021 163.469 129.301 163.443 129.679 163.391L130.059 163.469V163.488H130.04C129.467 163.82 129.154 164.52 129.102 165.588L128.878 165.686L129.083 165.803C129.044 165.907 129.024 166.076 129.024 166.311C129.024 166.447 129.037 166.656 129.063 166.936C129.089 167.215 129.102 167.427 129.102 167.57C129.076 167.648 129.057 167.694 129.044 167.707C129.096 168.059 129.122 168.326 129.122 168.508C129.122 168.514 129.109 168.563 129.083 168.654C129.057 168.745 129.044 168.798 129.044 168.811C129.096 169.214 129.122 169.52 129.122 169.729C129.122 169.8 129.112 169.908 129.093 170.051C129.073 170.194 129.063 170.305 129.063 170.383C129.063 170.617 129.099 170.969 129.171 171.438C129.242 171.9 129.278 172.248 129.278 172.482V172.551L129.083 172.766L129.278 172.844L129.405 173.566L129.483 173.605C129.496 173.664 129.516 173.723 129.542 173.781C129.568 173.84 129.6 173.905 129.639 173.977C129.685 174.042 129.718 174.09 129.737 174.123C129.763 174.156 129.805 174.214 129.864 174.299C129.929 174.377 129.968 174.426 129.981 174.445V174.484C129.975 174.484 129.753 174.465 129.317 174.426L129.2 174.289L129.044 174.445H128.165C128.009 174.445 127.755 174.432 127.403 174.406L127.257 174.162L127.139 174.367C126.886 174.367 126.68 174.406 126.524 174.484ZM141.875 174.709C141.856 174.696 141.823 174.667 141.778 174.621C141.732 174.582 141.69 174.546 141.651 174.514C141.612 174.488 141.573 174.465 141.534 174.445C141.488 174.315 141.403 174.182 141.28 174.045C141.162 173.908 141.019 173.765 140.85 173.615C140.681 173.465 140.564 173.355 140.498 173.283C140.485 173.277 140.446 173.267 140.381 173.254C140.316 173.241 140.28 173.231 140.274 173.225L138.672 171.467C138.633 171.35 138.614 171.216 138.614 171.066C138.412 171.132 138.285 171.138 138.233 171.086C138.103 170.956 137.816 170.624 137.373 170.09C137.373 170.083 137.279 169.992 137.09 169.816C136.908 169.641 136.719 169.462 136.524 169.279L136.231 169.006C136.159 168.954 136.088 168.902 136.016 168.85C135.944 168.791 135.883 168.742 135.83 168.703C135.778 168.658 135.713 168.599 135.635 168.527C135.564 168.456 135.508 168.404 135.469 168.371C135.43 168.332 135.368 168.27 135.284 168.186C135.205 168.094 135.153 168.036 135.127 168.01C135.101 167.984 135.039 167.922 134.942 167.824C134.851 167.72 134.795 167.655 134.776 167.629V167.521C134.763 167.515 134.681 167.437 134.532 167.287C134.519 167.385 134.512 167.684 134.512 168.186C134.512 168.426 134.532 168.68 134.571 168.947L134.375 169.064L134.551 169.348C134.499 169.751 134.473 170.126 134.473 170.471C134.473 170.965 134.522 171.298 134.62 171.467C134.587 171.564 134.571 171.636 134.571 171.682C134.571 171.792 134.58 171.958 134.6 172.18C134.626 172.401 134.639 172.564 134.639 172.668V172.902C134.639 173.007 134.672 173.101 134.737 173.186L134.6 173.625L134.932 173.605C135.121 173.99 135.303 174.283 135.479 174.484C135.459 174.484 135.427 174.481 135.381 174.475C135.336 174.468 135.3 174.465 135.274 174.465C135.196 174.465 135.072 174.475 134.903 174.494C134.733 174.514 134.61 174.523 134.532 174.523C134.401 174.523 134.086 174.514 133.584 174.494C133.083 174.475 132.767 174.465 132.637 174.465C132.598 174.465 132.536 174.475 132.452 174.494C132.373 174.514 132.315 174.523 132.276 174.523L131.631 174.484C131.644 174.452 131.687 174.387 131.758 174.289C131.836 174.185 131.882 174.117 131.895 174.084C132.012 173.947 132.08 173.801 132.1 173.645L132.237 173.527C132.289 173.371 132.328 173.186 132.354 172.971C132.38 172.756 132.406 172.593 132.432 172.482L132.657 172.268C132.637 172.255 132.611 172.222 132.579 172.17C132.552 172.118 132.526 172.082 132.5 172.062C132.559 171.893 132.598 171.701 132.618 171.486C132.631 171.434 132.637 171.327 132.637 171.164V170.305C132.65 170.116 132.66 169.787 132.666 169.318C132.679 168.85 132.696 168.485 132.715 168.225C132.735 167.99 132.735 167.756 132.715 167.521C132.767 167.417 132.793 167.245 132.793 167.004C132.793 166.9 132.787 166.753 132.774 166.564C132.761 166.376 132.754 166.236 132.754 166.145C132.754 166.021 132.758 165.848 132.764 165.627C132.771 165.406 132.774 165.24 132.774 165.129C132.78 165.116 132.751 165.018 132.686 164.836C132.621 164.654 132.552 164.465 132.481 164.27C132.416 164.074 132.38 163.96 132.373 163.928V163.908C132.373 163.798 132.386 163.723 132.412 163.684C132.452 163.632 132.471 163.547 132.471 163.43V163.244C132.51 163.205 132.647 163.169 132.881 163.137C133.122 163.098 133.252 163.055 133.272 163.01L133.819 163.547C133.91 163.71 134.063 163.902 134.278 164.123C134.493 164.338 134.691 164.523 134.873 164.68C135.062 164.836 135.29 165.021 135.557 165.236C135.616 165.282 135.661 165.318 135.694 165.344C135.746 165.376 135.772 165.516 135.772 165.764C136 165.861 136.133 165.936 136.172 165.988C136.237 166.073 136.355 166.184 136.524 166.32C136.7 166.451 136.823 166.558 136.895 166.643C136.921 166.669 136.95 166.714 136.983 166.779C137.015 166.844 137.038 166.887 137.051 166.906C137.546 167.473 138.021 167.938 138.477 168.303C138.659 168.452 138.998 168.771 139.493 169.26C139.987 169.748 140.297 170.038 140.42 170.129C140.42 170.07 140.407 169.979 140.381 169.855C140.362 169.732 140.352 169.641 140.352 169.582C140.352 169.504 140.358 169.354 140.371 169.133C140.385 168.911 140.391 168.762 140.391 168.684C140.391 168.592 140.368 168.462 140.323 168.293C140.277 168.124 140.254 167.993 140.254 167.902C140.254 167.798 140.264 167.648 140.284 167.453C140.303 167.258 140.313 167.108 140.313 167.004V166.242C140.313 165.695 140.28 165.223 140.215 164.826L140.44 164.543L140.118 164.387L139.932 164.006L139.776 163.869C139.737 163.798 139.672 163.736 139.58 163.684C139.489 163.625 139.44 163.553 139.434 163.469C139.512 163.469 139.633 163.472 139.795 163.479C139.958 163.485 140.079 163.488 140.157 163.488H140.537C140.687 163.488 140.808 163.475 140.899 163.449C141.016 163.462 141.208 163.469 141.475 163.469C141.677 163.469 141.81 163.449 141.875 163.41C141.908 163.404 141.993 163.391 142.129 163.371C142.266 163.352 142.373 163.342 142.452 163.342C142.478 163.342 142.565 163.358 142.715 163.391C142.871 163.417 142.966 163.436 142.998 163.449C142.836 163.534 142.696 163.661 142.579 163.83C142.39 164.064 142.266 164.266 142.207 164.436C142.149 164.605 142.12 164.829 142.12 165.109C142.12 165.415 142.113 165.62 142.1 165.725L141.895 165.93L142.1 166.066C142.08 166.125 142.071 166.226 142.071 166.369C142.071 166.512 142.09 166.734 142.129 167.033C142.175 167.326 142.198 167.551 142.198 167.707C142.198 167.915 142.175 168.221 142.129 168.625C142.09 169.029 142.071 169.335 142.071 169.543C142.071 169.621 142.025 169.761 141.934 169.963C142.045 170.373 142.1 170.633 142.1 170.744C142.1 170.972 142.123 171.145 142.168 171.262C142.214 171.372 142.237 171.542 142.237 171.77C142.237 171.835 142.243 171.929 142.256 172.053C142.269 172.17 142.276 172.261 142.276 172.326C142.276 172.424 142.315 172.658 142.393 173.029C142.478 173.4 142.52 173.638 142.52 173.742L142.598 173.85C142.572 173.915 142.458 174.064 142.256 174.299C142.061 174.533 141.934 174.67 141.875 174.709ZM149.971 174.562L149.893 174.289C149.775 174.432 149.704 174.504 149.678 174.504C149.548 174.504 149.375 174.501 149.16 174.494C148.952 174.488 148.783 174.484 148.652 174.484C148.346 174.484 148.154 174.465 148.076 174.426C147.855 174.426 147.663 174.419 147.5 174.406C147.344 174.393 147.155 174.387 146.934 174.387C146.888 174.387 146.829 174.357 146.758 174.299C146.693 174.24 146.637 174.211 146.592 174.211L146.475 174.367C146.423 174.387 146.136 174.4 145.615 174.406C145.094 174.413 144.788 174.439 144.697 174.484C144.71 174.471 144.717 174.452 144.717 174.426C144.717 174.419 144.707 174.39 144.688 174.338C144.668 174.286 144.671 174.257 144.697 174.25C144.899 174.152 145.065 174.032 145.195 173.889C145.332 173.739 145.42 173.615 145.459 173.518C145.498 173.42 145.511 173.355 145.498 173.322L145.732 172.307C145.739 172.242 145.755 172.062 145.781 171.77C145.807 171.47 145.83 171.255 145.85 171.125H145.811C145.811 171.066 145.807 171.008 145.801 170.949C145.794 170.884 145.791 170.822 145.791 170.764V170.666C145.817 170.627 145.859 170.552 145.918 170.441C145.892 170.279 145.879 170.048 145.879 169.748C145.879 169.507 145.869 169.273 145.85 169.045C145.934 168.908 145.977 168.729 145.977 168.508C145.977 168.417 145.947 168.277 145.889 168.088C145.837 167.899 145.811 167.753 145.811 167.648C145.811 167.596 145.817 167.548 145.83 167.502C145.843 167.45 145.856 167.411 145.869 167.385C145.889 167.359 145.915 167.316 145.947 167.258C145.986 167.199 146.016 167.157 146.035 167.131L145.898 166.867C145.911 166.776 145.918 166.649 145.918 166.486C145.918 166.304 145.902 166.135 145.869 165.979C145.843 165.816 145.794 165.607 145.723 165.354C145.651 165.093 145.602 164.904 145.576 164.787L145.791 164.602L145.537 164.465C145.505 164.413 145.417 164.335 145.273 164.23C145.13 164.12 145.042 164.038 145.01 163.986L144.658 163.684L144.59 163.566C144.681 163.553 144.814 163.531 144.99 163.498C145.173 163.459 145.342 163.43 145.498 163.41C145.654 163.384 145.807 163.371 145.957 163.371C146.029 163.371 146.139 163.384 146.289 163.41C146.439 163.436 146.553 163.449 146.631 163.449C146.722 163.449 146.891 163.443 147.139 163.43C147.386 163.417 147.559 163.41 147.656 163.41C147.695 163.423 147.78 163.43 147.91 163.43C148.021 163.43 148.193 163.423 148.428 163.41C148.669 163.397 148.812 163.391 148.857 163.391C148.936 163.391 149.046 163.4 149.189 163.42C149.333 163.439 149.44 163.449 149.512 163.449C149.642 163.449 149.723 163.423 149.756 163.371C149.788 163.378 149.827 163.41 149.873 163.469C149.925 163.527 149.958 163.56 149.971 163.566L150.117 163.342C150.215 163.361 150.299 163.371 150.371 163.371C150.456 163.371 150.589 163.355 150.771 163.322C150.96 163.29 151.126 163.283 151.27 163.303C151.549 163.348 152.005 163.371 152.637 163.371H153.613L153.574 163.605C153.548 163.645 153.516 163.719 153.477 163.83C153.438 163.941 153.405 164.048 153.379 164.152C153.353 164.257 153.324 164.38 153.291 164.523C153.258 164.66 153.239 164.742 153.232 164.768C153.187 164.794 153.151 164.855 153.125 164.953C153.099 165.044 153.083 165.096 153.076 165.109C153.102 165.37 153.027 165.588 152.852 165.764C152.845 165.751 152.826 165.725 152.793 165.686C152.767 165.64 152.747 165.611 152.734 165.598C152.728 165.578 152.712 165.549 152.686 165.51C152.66 165.471 152.637 165.441 152.617 165.422C152.604 165.402 152.581 165.376 152.549 165.344C152.523 165.305 152.497 165.279 152.471 165.266C152.451 165.246 152.425 165.223 152.393 165.197C152.367 165.171 152.337 165.152 152.305 165.139C152.279 165.119 152.249 165.103 152.217 165.09H152.109C151.842 164.953 151.165 164.885 150.078 164.885C149.466 164.885 149.066 164.878 148.877 164.865C148.675 164.852 148.389 164.846 148.018 164.846L147.852 165.324L147.617 165.422L147.871 165.705C147.871 165.764 147.865 165.826 147.852 165.891C147.839 165.956 147.832 166.008 147.832 166.047V166.867L147.793 166.887C147.78 166.965 147.773 167.059 147.773 167.17C147.773 167.215 147.783 167.284 147.803 167.375C147.822 167.466 147.826 167.603 147.812 167.785C147.878 167.792 147.943 167.795 148.008 167.795C148.073 167.788 148.167 167.782 148.291 167.775C148.421 167.769 148.522 167.766 148.594 167.766C148.717 167.766 148.792 167.772 148.818 167.785L149.053 167.766L150.596 167.746L150.752 167.902L150.898 167.746L151.65 167.805L151.689 167.824L151.719 168.088L151.777 168.186C151.79 168.29 151.872 168.511 152.021 168.85C152.178 169.182 152.262 169.4 152.275 169.504L152.158 169.67C152.021 169.605 151.553 169.491 150.752 169.328L150.596 169.143C150.563 169.149 150.511 169.178 150.439 169.23C150.374 169.283 150.326 169.309 150.293 169.309C149.603 169.309 149.163 169.289 148.975 169.25L148.857 169.289L148.193 169.162L148.135 169.211L147.832 169.309C147.858 169.465 147.871 169.676 147.871 169.943V170.686L147.734 170.891C147.734 170.91 147.764 170.933 147.822 170.959C147.881 170.985 147.91 171.008 147.91 171.027C147.91 171.158 147.91 171.249 147.91 171.301C147.91 171.353 147.917 171.441 147.93 171.564C147.943 171.688 147.952 171.783 147.959 171.848C147.959 171.887 147.975 171.949 148.008 172.033C148.047 172.118 148.063 172.183 148.057 172.229L148.037 172.443C148.115 172.456 148.252 172.492 148.447 172.551C148.649 172.603 148.805 172.635 148.916 172.648C148.994 172.661 149.108 172.668 149.258 172.668C149.31 172.668 149.385 172.665 149.482 172.658C149.587 172.652 149.665 172.648 149.717 172.648C149.775 172.648 149.909 172.661 150.117 172.688C150.13 172.688 150.16 172.707 150.205 172.746C150.251 172.785 150.28 172.805 150.293 172.805C150.306 172.805 150.339 172.782 150.391 172.736C150.449 172.691 150.505 172.668 150.557 172.668C151.657 172.629 152.275 172.58 152.412 172.521C152.458 172.502 152.559 172.417 152.715 172.268C152.878 172.111 152.992 172.023 153.057 172.004L153.213 171.848C153.245 171.88 153.32 172.027 153.438 172.287C153.555 172.541 153.62 172.694 153.633 172.746C153.906 173.599 154.066 174.126 154.111 174.328H153.994C153.376 174.328 152.962 174.354 152.754 174.406L152.715 174.387C152.266 174.426 151.813 174.445 151.357 174.445H151.211L151.113 174.328C151.087 174.335 151.051 174.361 151.006 174.406C150.967 174.445 150.924 174.465 150.879 174.465C150.794 174.465 150.645 174.481 150.43 174.514C150.215 174.546 150.062 174.562 149.971 174.562Z" fill="black"/>
<defs>
<linearGradient id="paint0_linear_835_1671" x1="92.5006" y1="0" x2="92.5006" y2="205.709" gradientUnits="userSpaceOnUse">
<stop stop-color="#93B0F8"/>
<stop offset="1" stop-color="#FFFFEB"/>
</linearGradient>
<linearGradient id="paint1_linear_835_1671" x1="92.5006" y1="0" x2="92.5006" y2="205.709" gradientUnits="userSpaceOnUse">
<stop stop-color="#7895DC"/>
<stop offset="1" stop-color="#E5E5D0"/>
</linearGradient>
<clipPath id="clip0_835_1671">
<rect width="160" height="161" fill="white" transform="translate(12.7168 17.8555)"/>
</clipPath>
</defs>
</svg>
