<svg width="317" height="348" viewBox="0 0 317 348" fill="none" xmlns="http://www.w3.org/2000/svg">
<path d="M137.417 265.428C138.159 265.577 138.891 265.569 139.583 265.432L139.986 267.474L140.391 269.516C139.172 269.757 137.887 269.766 136.6 269.508L132.524 268.692L133.341 264.611L137.417 265.428ZM125.187 262.976L124.369 267.057L116.215 265.423L117.032 261.342L125.187 262.976ZM146.974 264.743C146.849 264.966 146.719 265.184 146.577 265.395L143.12 263.077C143.437 262.605 143.683 262.077 143.845 261.502L146.974 264.743ZM108.88 259.708L108.062 263.789L99.9073 262.155L100.726 258.074L108.88 259.708ZM92.5724 256.439L91.754 260.52L83.5997 258.886L84.4181 254.805L92.5724 256.439ZM76.2648 253.171L75.4464 257.252L67.2921 255.617L68.1105 251.537L76.2648 253.171ZM53.88 248.255C54.4656 248.647 55.1385 248.936 55.88 249.085L59.9571 249.902L59.1388 253.983L55.0616 253.166C53.7744 252.908 52.5926 252.404 51.5607 251.712L52.7208 249.984L53.88 248.255ZM52.3126 238.642L51.5294 242.552C51.3808 243.294 51.3868 244.026 51.5235 244.717L49.4825 245.122L47.4405 245.525C47.1995 244.306 47.1904 243.022 47.4484 241.735L48.2316 237.824L52.3126 238.642ZM55.4484 223.001L53.88 230.822L49.7989 230.005L51.3673 222.183L55.4484 223.001ZM58.5831 207.36L57.0157 215.18L52.9347 214.362L54.5021 206.542L58.5831 207.36ZM61.7179 191.718L60.1505 199.539L56.0694 198.721L57.6368 190.9L61.7179 191.718ZM62.9444 175.694L64.5265 177.705L63.2853 183.898L59.2042 183.08L60.7726 175.259L62.9444 175.694ZM80.5284 97.8708L80.0587 100.211L75.3107 104.959L74.88 104.873L76.4474 97.0524L80.5284 97.8708ZM83.6642 82.2292L82.0958 90.0495L78.0148 89.2321L79.5831 81.4108L83.6642 82.2292ZM146.364 72.6891L146.019 74.4108L141.497 75.9586L137.393 75.1364L138.21 71.0553L146.364 72.6891ZM85.1163 67.3395L86.8439 68.4977C86.4511 69.0832 86.1634 69.7564 86.0148 70.4977L85.2316 74.4088L81.1505 73.5905L81.9337 69.6803C82.1917 68.3931 82.6955 67.2113 83.3878 66.1794L85.1163 67.3395ZM130.058 69.4206L129.239 73.5016L121.085 71.8669L121.903 67.7868L130.058 69.4206ZM113.75 66.152L112.932 70.2331L104.777 68.5983L105.596 64.5182L113.75 66.152ZM89.5743 62.0583C90.7934 61.8172 92.0781 61.8081 93.3653 62.0661L97.4425 62.8835L96.6241 66.9645L92.547 66.1471C91.8055 65.9985 91.0737 66.0045 90.3819 66.1413L89.9786 64.1003L89.5743 62.0583Z" fill="#A88771"/>
<path d="M215.453 126.146L211.316 132.965L207.757 130.807L211.894 123.986L215.453 126.146ZM223.726 112.506L219.589 119.326L216.031 117.167L220.167 110.348L223.726 112.506ZM232 98.8672L227.864 105.687L224.305 103.527L228.441 96.709L232 98.8672ZM240.274 85.2285L236.137 92.0479L232.579 89.8887L236.715 83.0693L240.274 85.2285ZM131.304 75.0986L127.976 80.585L126.053 81.2422L123.609 79.7598L127.746 72.9404L131.304 75.0986ZM248.547 71.5889L244.411 78.4082L240.852 76.25L244.989 69.4297L248.547 71.5889ZM139.578 61.46L135.441 68.2803L131.882 66.1211L136.019 59.3018L139.578 61.46ZM253.994 57.4824L256.051 57.7979C255.863 59.0262 255.433 60.2378 254.752 61.3604L252.684 64.7695L249.125 62.6113L251.194 59.2012C251.586 58.5546 251.83 57.864 251.937 57.167L253.994 57.4824ZM147.851 47.8213L143.714 54.6406L140.157 52.4814L144.292 45.6621L147.851 47.8213ZM251.486 48.0195C252.608 48.7005 253.549 49.5757 254.284 50.5781L252.604 51.8086L250.925 53.0381C250.509 52.4695 249.974 51.9702 249.328 51.5781L245.773 49.4219L247.932 45.8633L251.486 48.0195ZM240.822 41.5498L238.663 45.1084L231.552 40.7949L233.711 37.2363L240.822 41.5498ZM156.125 34.1826L151.989 41.001L148.43 38.8428L152.567 32.0234L156.125 34.1826ZM226.601 32.9238L224.443 36.4824L217.333 32.1689L219.491 28.6104L226.601 32.9238ZM212.381 24.2979L210.223 27.8564L203.113 23.543L205.271 19.9844L212.381 24.2979ZM164.399 20.543L160.262 27.3623L156.704 25.2041L160.84 18.3838L164.399 20.543ZM198.162 15.6709L196.002 19.2295L188.892 14.917L191.051 11.3584L198.162 15.6709ZM170.835 7.03711L172.065 8.71582C171.496 9.13265 170.996 9.66696 170.604 10.3135L168.536 13.7236L164.977 11.5654L167.045 8.15527C167.726 7.03271 168.603 6.09299 169.605 5.3584L170.835 7.03711ZM176.825 3.58984C178.053 3.77825 179.264 4.20773 180.386 4.88867L183.942 7.04492L181.783 10.6035L178.228 8.44727C177.581 8.05503 176.891 7.81101 176.194 7.7041L176.509 5.64844L176.825 3.58984Z" fill="#A88771"/>
<path d="M98.719 219.911L98.6867 219.927C99.1872 220.924 111.174 244.451 131.142 252.875C149.142 260.469 161.855 294.307 164.891 308.578L166.535 308.228L167.605 308C165.494 298.079 153.304 259.212 132.221 250.318C117.398 244.065 106.887 228.48 102.916 221.801L133.831 235.717C136.18 236.775 138.78 236.587 140.882 235.435C142.338 234.638 143.556 233.379 144.288 231.752L156.116 205.479C156.123 210.42 156.455 213.635 156.507 214.095L159.264 213.791C159.219 213.382 155.074 173.11 177.935 148.836C178.402 149.409 178.891 149.93 179.404 150.38L181.233 148.292C177.303 144.85 174.765 135.997 173.876 132.453C174.835 132.254 175.747 131.928 176.608 131.456C178.05 130.666 179.347 129.47 180.464 127.796L178.158 126.255C174.042 132.412 166.146 130.818 150.891 120.746C142.681 115.326 141.292 107.066 141.241 102.348C141.717 102.774 142.246 103.132 142.837 103.356C144.874 104.131 156.857 107.296 159.674 105.754L162.151 104.397C162.175 104.408 162.204 104.419 162.226 104.429C164.162 105.308 167.57 104.846 171.885 104.261C176.453 103.641 181.631 102.939 184.43 104.106C188.288 105.714 204.705 129.764 214.185 144.6C219.592 152.24 216.455 168.879 213.42 184.971L213.287 185.675C210.139 202.377 215.736 239.686 217.635 246.379C219.479 252.883 226.372 296.447 226.441 296.886L227.297 296.751L229.182 296.453C228.898 294.653 222.193 252.285 220.304 245.622C220.051 244.729 219.73 243.278 219.373 241.402C218.625 237.471 217.716 231.663 216.929 225.133C215.329 211.865 214.234 195.632 216.014 186.189L216.147 185.485C219.288 168.825 222.537 151.597 216.486 143.052C214.883 140.543 205.38 125.744 197.074 114.494L216.241 71.9172C218.031 67.9411 216.253 63.2497 212.276 61.4591L136.798 27.4816C132.822 25.6913 128.129 27.4707 126.341 31.4464L105.942 76.7597C105.659 76.54 105.335 76.2814 104.987 76.0035C101.074 72.8793 92.9308 66.3812 87.2997 70.6238C81.49 74.9989 82.7153 81.0016 83.7966 86.2972C83.9183 86.8932 84.0396 87.4883 84.1514 88.079C84.9857 92.5038 90.0472 98.0891 92.9185 100.962C90.0682 99.6815 86.2725 98.8271 82.382 99.5476C78.3726 100.291 74.9512 102.627 72.485 106.305C68.4903 112.264 70.4504 118.173 73.24 122.118C69.446 121.786 66.8578 123.519 62.7712 128.254C58.6476 133.033 60.3096 139.802 61.6368 143.357C60.9571 143.58 60.3184 143.917 59.7444 144.368C57.9737 145.758 54.8713 148.636 53.9849 152.296C52.5798 158.096 53.9543 167.101 62.1405 174.059L54.3873 191.282C52.5975 195.259 54.3767 199.95 58.3527 201.739L98.719 219.911ZM61.4576 146.551C62.0556 146.082 62.7803 145.828 63.5551 145.816C66.8948 145.762 78.1486 146.109 82.7422 152.826C84.0342 154.716 84.4367 156.541 83.9716 158.406C82.9778 162.394 78.3209 165.328 77.0628 166.057C75.2404 165.955 67.4639 165.44 63.2087 163.898L62.2631 166.507C63.1332 166.822 64.1229 167.096 65.1676 167.335L63.3298 171.417C54.4749 163.435 56.4143 154.052 56.6816 152.949C57.3711 150.103 59.9698 147.719 61.4576 146.551ZM64.8719 130.067C69.8916 124.248 71.6114 124.06 76.7848 125.777C77.6373 126.06 78.5786 126.368 79.5684 126.693C84.1976 128.211 92.8143 131.038 93.87 131.929C96.6682 134.649 97.1732 136.939 97.1039 138.381C97.0117 140.311 95.8442 142.187 93.6346 143.957C86.9295 149.329 82.0081 147.746 81.1543 147.407C75.8352 143.707 68.5623 143.068 64.4989 143.037C63.3786 140.264 61.4591 134.022 64.8719 130.067ZM74.7898 107.85C76.8595 104.764 79.5846 102.887 82.8871 102.276C87.0628 101.503 91.4879 102.958 94.0215 104.744L95.2779 105.625C99.0575 108.27 104.234 111.892 104.528 114C104.547 114.13 105.631 126.918 95.1132 129.444C93.2962 128.366 88.7861 126.796 80.4337 124.056C79.5449 123.765 78.7058 123.49 77.9251 123.231C76.6473 122.077 69.7765 115.329 74.7898 107.85ZM86.8777 87.5652C86.7643 86.9604 86.6397 86.3521 86.5156 85.7418C85.4656 80.6009 84.5594 76.1609 88.9691 72.8399C92.8897 69.8952 99.8895 75.4839 103.255 78.1716C103.859 78.6537 104.361 79.0533 104.774 79.3537L95.6064 99.719C92.6741 96.8798 87.5844 91.313 86.8777 87.5652ZM158.874 104.293C157.082 105.275 146.467 102.956 143.429 101.8C141.742 101.159 140.558 98.7634 140.112 97.7875C144.823 97.0925 156.92 101.279 161.393 102.914L158.874 104.293Z" fill="#583311"/>
<path d="M75.0239 163.529C75.0652 163.514 75.1054 163.496 75.1434 163.475C75.3009 163.388 75.428 163.252 75.5026 163.087C75.5339 163.017 78.6749 156.106 81.8401 154.238C82.1005 154.084 82.2568 153.801 82.2488 153.499C82.2407 153.196 82.0696 152.922 81.8009 152.783C80.8513 152.288 72.4218 147.998 68.9292 149.594C67.659 150.174 66.7536 151.196 66.3031 152.552C65.6503 154.518 66.066 156.929 66.8139 158.294C67.8443 160.176 73.2918 162.953 74.3734 163.49C74.576 163.591 74.8107 163.605 75.0239 163.529ZM67.8834 153.077C68.1607 152.242 68.6684 151.619 69.3938 151.222C69.4675 151.182 69.5433 151.144 69.621 151.108C71.4658 150.265 76.4258 152.048 79.8301 153.663C77.3491 155.847 75.2008 159.9 74.3592 161.614C71.9194 160.341 68.7918 158.439 68.2743 157.494C67.7941 156.617 67.3548 154.667 67.8834 153.077Z" fill="#583311"/>
<path d="M84.8774 146.081C84.9315 146.064 84.9835 146.042 85.0322 146.016C85.1974 145.925 85.3283 145.78 85.4013 145.603C85.4394 145.512 89.2199 136.452 93.2416 134.045C93.5086 133.885 93.6637 133.59 93.6451 133.279C93.6258 132.969 93.4356 132.695 93.1513 132.569C92.7115 132.374 82.3496 127.801 77.905 130.73C76.5277 131.632 75.799 132.983 75.7976 134.635C75.7954 138.129 79.1621 142.688 84.1755 145.981C84.3829 146.117 84.64 146.154 84.8774 146.081ZM77.4625 134.637C77.4629 133.541 77.9062 132.719 78.8175 132.122C78.8863 132.077 78.9571 132.035 79.0308 131.994C81.7853 130.486 87.807 132.259 91.1346 133.54C87.9589 136.312 85.269 141.819 84.272 144.029C80.221 141.137 77.4605 137.366 77.4625 134.637Z" fill="#583311"/>
<path d="M92.9429 126.999C93.207 127.172 93.5358 127.175 93.7972 127.032C93.8893 126.982 93.9726 126.914 94.0423 126.828C94.3501 126.451 101.593 117.551 102.912 114.199C103.045 113.861 102.943 113.475 102.66 113.247C99.0375 110.325 91.1836 107.512 88.8283 108.802C88.8123 108.811 88.7964 108.82 88.7807 108.83C86.7916 110.004 82.0015 114.548 84.1604 118.799C86.0502 122.522 90.0138 125.097 92.6368 126.8L92.9429 126.999ZM89.6275 110.263C89.6322 110.26 89.637 110.258 89.6417 110.255C90.7546 109.646 97.2425 111.341 101.108 114.154C99.6307 117.111 94.759 123.277 93.2211 125.195C90.7554 123.589 87.2603 121.228 85.6446 118.045C84.0311 114.868 88.2809 111.058 89.6275 110.263Z" fill="#583311"/>
<path d="M268.886 117.992C268.929 117.227 268.345 116.572 267.58 116.528C266.815 116.484 266.159 117.069 266.115 117.834L268.886 117.992ZM235.548 171.398C235.358 172.141 235.806 172.896 236.548 173.086L248.645 176.18C249.388 176.37 250.143 175.923 250.333 175.18C250.523 174.438 250.075 173.682 249.333 173.492L238.58 170.742L241.33 159.989C241.52 159.247 241.072 158.491 240.33 158.301C239.588 158.111 238.832 158.559 238.642 159.301L235.548 171.398ZM267.5 117.913L266.115 117.834C265.773 123.824 263.86 133.733 259.222 143.798C254.586 153.857 247.272 163.978 236.185 170.549L236.892 171.742L237.599 172.936C249.31 165.995 256.949 155.359 261.742 144.959C266.532 134.566 268.524 124.316 268.886 117.992L267.5 117.913Z" fill="#583311"/>
<path d="M278.179 118.757C279.217 125.556 277.774 136.964 273.364 144.011" stroke="#A88771" stroke-width="2.77477" stroke-linecap="round"/>
<path d="M252.197 128.436C252.198 132.661 250.981 139.223 246.058 146.248" stroke="#A88771" stroke-width="2.77477" stroke-linecap="round"/>
<path d="M49.0275 77.3318C48.9838 78.0967 49.5685 78.7523 50.3335 78.796C51.0984 78.8397 51.754 78.255 51.7977 77.49L49.0275 77.3318ZM82.3652 23.9258C82.5551 23.1835 82.1072 22.4278 81.3649 22.2379L69.2679 19.1437C68.5255 18.9539 67.7698 19.4017 67.58 20.144C67.3901 20.8864 67.8379 21.6421 68.5803 21.832L79.3332 24.5823L76.5828 35.3352C76.3929 36.0776 76.8408 36.8333 77.5831 37.0231C78.3254 37.213 79.0811 36.7652 79.271 36.0228L82.3652 23.9258ZM50.4126 77.4109L51.7977 77.49C52.14 71.4998 54.0526 61.5913 58.6913 51.5263C63.3272 41.4675 70.6412 31.3462 81.7284 24.7756L81.0211 23.582L80.3137 22.3885C68.6027 29.3289 60.9642 39.9653 56.1713 50.3649C51.3812 60.7583 49.3887 71.0086 49.0275 77.3318L50.4126 77.4109Z" fill="#583311"/>
<path d="M39.735 76.571C38.6964 69.7725 40.1395 58.3637 44.5493 51.3168" stroke="#A88771" stroke-width="2.77477" stroke-linecap="round"/>
<path d="M65.7175 66.8881C65.7165 62.6629 66.9327 56.1011 71.8557 49.0761" stroke="#A88771" stroke-width="2.77477" stroke-linecap="round"/>
</svg>
