<svg width="232" height="361" viewBox="0 0 232 361" fill="none" xmlns="http://www.w3.org/2000/svg">
<path d="M86.2509 20.8343C36.7567 20.3483 17.8493 76.1072 14.5824 104.047C13.4202 112.33 14.2475 123.512 19.1046 134.418C24.8701 147.363 36.3138 159.919 56.8484 166.771C60.6186 168.029 64.6952 169.094 69.0994 169.935C77.3083 171.502 86.6552 172.286 97.2768 172.076C98.1017 172.059 98.9184 172.041 99.727 172.02C113.665 171.66 125.203 170.631 134.852 169.039C143.385 167.632 150.439 165.785 156.368 163.573C178.005 155.499 187.934 139.277 192.222 130.774C196.51 122.27 196.764 120.975 197.47 116.196C199.601 101.776 196.143 81.5493 188.821 63.1404C185.13 55.5101 181.501 48.426 178.086 42.0939C171.972 32.683 167.108 28.1238 156.694 20.8343C133.593 4.6624 103.811 2.41022 92.989 1.39844C96.8685 4.23295 104.628 10.9952 104.628 15.3681C85.5159 8.07937 72.5706 10.3065 68.4869 12.3311C71.9581 11.3188 80.3705 11.6022 86.2509 20.8343Z" fill="#F2E9DD"/>
<path d="M28.6578 224.312C16.3962 249.094 29.0223 250.025 36.8681 247.393C37.6196 241.817 38.7434 236.034 40.3095 230.055C33.9389 229.79 29.8873 226.116 28.6578 224.312Z" fill="#F2E9DD"/>
<path d="M172.621 259.541C178.826 258.739 181.479 254.094 182.337 248.932C182.522 247.825 182.623 246.693 182.659 245.571C182.761 242.424 182.35 239.348 181.809 237.068C181.128 233.468 180.21 229.581 179.119 225.527C174.027 229.9 159.285 232.816 152.55 233.727L156.368 245.571C157.275 248.767 158.824 253.5 162.207 256.588C163.976 258.203 166.246 259.368 169.188 259.63C170.243 259.724 171.385 259.701 172.621 259.541Z" fill="#F2E9DD"/>
<path d="M14.5824 104.047C0.902079 150.269 -14.085 246.095 35.4092 259.63C35.5282 259.662 35.6485 259.695 35.7699 259.727C35.942 255.737 36.2979 251.625 36.8681 247.393C29.0223 250.025 16.3962 249.094 28.6578 224.312C20.0853 210.249 9.02485 177.725 19.1046 134.418C14.2475 123.512 13.4202 112.33 14.5824 104.047Z" fill="#F2E9DD"/>
<path d="M197.47 116.196C206.543 150.413 216.112 222.49 181.809 237.068C182.35 239.348 182.761 242.424 182.659 245.571C186.051 244.424 193.57 243.629 196.51 249.621C199.798 249.371 203.268 248.845 206.924 248.001C254.141 226.759 219.358 126.263 188.821 63.1404C196.143 81.5493 199.601 101.776 197.47 116.196Z" fill="#F2E9DD"/>
<path d="M182.337 248.932C181.479 254.094 178.826 258.739 172.621 259.541C171.385 259.701 170.243 259.724 169.188 259.63C169.872 263.102 169.311 278.025 168.945 285.052C172.337 286.874 179.29 288.332 179.971 279.585C202.636 285.052 206.924 260.149 190.997 258.326C198.348 257.355 197.735 252.118 196.51 249.621C193.57 243.629 186.051 244.424 182.659 245.571C182.623 246.693 182.522 247.825 182.337 248.932Z" fill="#F2E9DD"/>
<path d="M74.5215 359.269C75.9742 359.269 78.1532 353.124 79.0611 350.052C70.3066 350.49 57.5721 350.735 52.7315 349.439V354.768C51.6723 354.768 49.5538 355.308 49.5538 357.468C50.9157 360.169 72.7057 359.269 74.5215 359.269Z" fill="#F2E9DD"/>
<path d="M124.842 347.324C126.067 351.47 129.007 359.761 130.967 359.761C133.417 359.761 162.82 360.976 164.658 357.332C164.658 354.416 161.799 353.687 160.37 353.687V346.498C153.838 348.246 136.655 347.916 124.842 347.324Z" fill="#F2E9DD"/>
<path d="M197.47 116.196C196.764 120.975 196.51 122.27 192.222 130.774C187.934 139.277 178.005 155.499 156.368 163.573C161.986 176.072 173.142 203.311 179.119 225.527C180.21 229.581 181.128 233.468 181.809 237.068C216.112 222.49 206.543 150.413 197.47 116.196Z" fill="#DB867D"/>
<path d="M116.879 333.036C133.54 337.409 154.857 333.846 162.207 331.214C163.826 326.399 166.391 306.895 168.041 292.948C152.616 287.117 142.207 269.94 138.93 262.08C106.36 267.965 75.4473 266.461 54.3982 263.398C51.9131 270.211 45.1145 284.93 37.8004 289.304C42.0884 312.91 47.9322 329.839 51.3696 338.113C56.8171 340.063 72.6149 342.704 84.9625 339.463C84.9625 334.118 92.5806 309.013 96.6642 297.609C99.2598 298.331 101.814 298.866 104.015 299.022C109.405 305.825 114.837 324.533 116.879 333.036Z" fill="#00755F"/>
<path fill-rule="evenodd" clip-rule="evenodd" d="M156.368 245.571L152.55 233.727L148.731 221.883L140.978 189.691C141.303 186.654 144.836 177.179 156.368 163.573C150.439 165.785 143.385 167.632 134.852 169.039C128.531 176.613 124.99 180.848 118.716 187.261C117.491 188.476 114.918 191.149 111.978 189.691C108.548 188.719 102.381 177.505 99.727 172.02C96.0517 177.1 87.5985 187.261 83.1881 187.261C79.2678 186.289 71.1819 176.733 67.6291 172.076C53.4452 192.958 44.9422 212.367 40.3095 230.055C38.7434 236.034 37.6196 241.817 36.8681 247.393C50.4573 251.645 93.3821 257.233 156.368 245.571ZM66.0367 229.172C64.7627 223.341 67.5477 208.52 69.0994 201.839C84.209 200.421 117.001 198.437 127.292 201.839C126.802 217.388 126.271 228.159 126.067 230.994C115.925 237.57 110.199 241.013 99.727 245.571C95.4391 248.001 88.8164 248.608 85.6383 246.786C79.6352 243.344 67.3106 235.003 66.0367 229.172Z" fill="#00755F"/>
<path d="M148.731 221.883L152.55 233.727C159.285 232.816 174.027 229.9 179.119 225.527C173.142 203.311 161.986 176.072 156.368 163.573C144.836 177.179 141.303 186.654 140.978 189.691L148.731 221.883Z" fill="#00755F"/>
<path d="M156.368 245.571C93.3821 257.233 50.4573 251.645 36.8681 247.393C36.2979 251.625 35.942 255.737 35.7699 259.727C40.4185 260.97 46.7587 262.287 54.3982 263.398C75.4473 266.461 106.36 267.965 138.93 262.08C146.633 260.689 154.428 258.884 162.207 256.588C158.824 253.5 157.275 248.767 156.368 245.571Z" fill="#00755F"/>
<path d="M37.8004 289.304C45.1145 284.93 51.9131 270.211 54.3982 263.398C46.7587 262.287 40.4185 260.97 35.7699 259.727C35.3048 270.512 36.1828 280.398 37.8004 289.304Z" fill="#00755F"/>
<path d="M84.9625 339.463C72.6149 342.704 56.8171 340.063 51.3696 338.113C49.5538 336.312 46.8301 346.215 51.3696 348.916C51.7013 349.113 52.1617 349.287 52.7315 349.439C57.5721 350.735 70.3066 350.49 79.0611 350.052C80.5594 349.977 81.9411 349.896 83.1467 349.816C84.5086 348.166 86.7784 343.784 84.9625 339.463Z" fill="#00755F"/>
<path d="M162.207 331.214C154.857 333.846 133.54 337.409 116.879 333.036C114.428 338.867 117.491 344.779 119.329 347.006C120.956 347.114 122.82 347.223 124.842 347.324C136.655 347.916 153.838 348.246 160.37 346.498C161.139 346.292 161.76 346.058 162.207 345.791C168.333 342.147 164.658 328.784 162.207 331.214Z" fill="#00755F"/>
<path d="M168.945 285.052C169.311 278.025 169.872 263.102 169.188 259.63C166.246 259.368 163.976 258.203 162.207 256.588C154.428 258.884 146.633 260.689 138.93 262.08C142.207 269.94 152.616 287.117 168.041 292.948C168.389 290.005 168.696 287.31 168.945 285.052Z" fill="#00755F"/>
<path d="M69.0994 201.839C67.5477 208.52 64.7627 223.341 66.0367 229.172C67.3106 235.003 79.6352 243.344 85.6383 246.786C88.8164 248.608 95.4391 248.001 99.727 245.571C110.199 241.013 115.925 237.57 126.067 230.994C126.271 228.159 126.802 217.388 127.292 201.839C117.001 198.437 84.209 200.421 69.0994 201.839Z" fill="#2EAD95"/>
<path d="M19.1046 134.418C9.02485 177.725 20.0853 210.249 28.6578 224.312C35.1961 207.413 49.9878 172.244 56.8484 166.771C36.3138 159.919 24.8701 147.363 19.1046 134.418Z" fill="#DB867D"/>
<path d="M69.0994 169.935C64.6952 169.094 60.6186 168.029 56.8484 166.771C49.9878 172.244 35.1961 207.413 28.6578 224.312C29.8873 226.116 33.9389 229.79 40.3095 230.055C44.9422 212.367 53.4452 192.958 67.6291 172.076C68.1125 171.364 68.6026 170.65 69.0994 169.935Z" fill="#00755F"/>
<path d="M97.2768 172.076C86.6552 172.286 77.3083 171.502 69.0994 169.935C68.6026 170.65 68.1125 171.364 67.6291 172.076C71.1819 176.733 79.2678 186.289 83.1881 187.261C87.5985 187.261 96.0517 177.1 99.727 172.02C98.9184 172.041 98.1017 172.059 97.2768 172.076Z" fill="#E96A98"/>
<path d="M99.727 172.02C102.381 177.505 108.548 188.719 111.978 189.691C114.918 191.149 117.491 188.476 118.716 187.261C124.99 180.848 128.531 176.613 134.852 169.039C125.203 170.631 113.665 171.66 99.727 172.02Z" fill="#E96A98"/>
<path d="M14.5824 104.047C17.8493 76.1072 36.7567 20.3483 86.2509 20.8343C80.3705 11.6022 71.9581 11.3188 68.4869 12.3311C72.5706 10.3065 85.5159 8.07937 104.628 15.3681C104.628 10.9952 96.8685 4.23295 92.989 1.39844C103.811 2.41022 133.593 4.6624 156.694 20.8343C167.108 28.1238 171.972 32.683 178.086 42.0939M14.5824 104.047C0.902079 150.269 -14.085 246.095 35.4092 259.63C35.5282 259.662 35.6485 259.695 35.7699 259.727M14.5824 104.047C13.4202 112.33 14.2475 123.512 19.1046 134.418M178.086 42.0939C181.501 48.426 185.13 55.5101 188.821 63.1404M178.086 42.0939C182.226 48.4669 185.843 55.6533 188.821 63.1404M138.93 181.187L140.978 189.691M197.47 116.196C196.764 120.975 196.51 122.27 192.222 130.774C187.934 139.277 178.005 155.499 156.368 163.573M197.47 116.196C206.543 150.413 216.112 222.49 181.809 237.068M197.47 116.196C199.601 101.776 196.143 81.5493 188.821 63.1404M181.809 237.068C181.128 233.468 180.21 229.581 179.119 225.527M181.809 237.068C182.35 239.348 182.761 242.424 182.659 245.571M156.368 163.573C161.986 176.072 173.142 203.311 179.119 225.527M156.368 163.573C144.836 177.179 141.303 186.654 140.978 189.691M156.368 163.573C150.439 165.785 143.385 167.632 134.852 169.039M156.368 245.571L152.55 233.727M156.368 245.571C93.3821 257.233 50.4573 251.645 36.8681 247.393M156.368 245.571C157.275 248.767 158.824 253.5 162.207 256.588M152.55 233.727L148.731 221.883L140.978 189.691M152.55 233.727C159.285 232.816 174.027 229.9 179.119 225.527M182.659 245.571C182.623 246.693 182.522 247.825 182.337 248.932C181.479 254.094 178.826 258.739 172.621 259.541C171.385 259.701 170.243 259.724 169.188 259.63M182.659 245.571C186.051 244.424 193.57 243.629 196.51 249.621M196.51 249.621C199.798 249.371 203.268 248.845 206.924 248.001C254.141 226.759 219.358 126.263 188.821 63.1404M196.51 249.621C197.735 252.118 198.348 257.355 190.997 258.326C206.924 260.149 202.636 285.052 179.971 279.585C179.29 288.332 172.337 286.874 168.945 285.052M168.945 285.052C169.311 278.025 169.872 263.102 169.188 259.63M168.945 285.052C168.696 287.31 168.389 290.005 168.041 292.948M162.207 331.214C154.857 333.846 133.54 337.409 116.879 333.036M162.207 331.214C164.658 328.784 168.333 342.147 162.207 345.791C161.76 346.058 161.139 346.292 160.37 346.498M162.207 331.214C163.826 326.399 166.391 306.895 168.041 292.948M169.188 259.63C166.246 259.368 163.976 258.203 162.207 256.588M116.879 333.036C114.428 338.867 117.491 344.779 119.329 347.006C120.956 347.114 122.82 347.223 124.842 347.324M116.879 333.036C114.837 324.533 109.405 305.825 104.015 299.022C101.814 298.866 99.2598 298.331 96.6642 297.609M124.842 347.324C126.067 351.47 129.007 359.761 130.967 359.761C133.417 359.761 162.82 360.976 164.658 357.332C164.658 354.416 161.799 353.687 160.37 353.687V346.498M124.842 347.324C136.655 347.916 153.838 348.246 160.37 346.498M19.1046 134.418C9.02485 177.725 20.0853 210.249 28.6578 224.312M19.1046 134.418C24.8701 147.363 36.3138 159.919 56.8484 166.771M51.3696 338.113C47.9322 329.839 42.0884 312.91 37.8004 289.304M51.3696 338.113C56.8171 340.063 72.6149 342.704 84.9625 339.463M51.3696 338.113C49.5538 336.312 46.8301 346.215 51.3696 348.916C51.7013 349.113 52.1617 349.287 52.7315 349.439M69.0994 169.935C77.3083 171.502 86.6552 172.286 97.2768 172.076C98.1017 172.059 98.9184 172.041 99.727 172.02M69.0994 169.935C64.6952 169.094 60.6186 168.029 56.8484 166.771M69.0994 169.935C68.6026 170.65 68.1126 171.364 67.6291 172.076M36.8681 247.393C29.0223 250.025 16.3962 249.094 28.6578 224.312M36.8681 247.393C37.6196 241.817 38.7434 236.034 40.3095 230.055M36.8681 247.393C36.2979 251.625 35.942 255.737 35.7699 259.727M28.6578 224.312C35.1961 207.413 49.9878 172.244 56.8484 166.771M28.6578 224.312C29.8873 226.116 33.9389 229.79 40.3095 230.055M40.3095 230.055C44.9422 212.367 53.4452 192.958 67.6291 172.076M67.6291 172.076C71.1819 176.733 79.2678 186.289 83.1881 187.261C87.5985 187.261 96.0517 177.1 99.727 172.02M99.727 172.02C102.381 177.505 108.548 188.719 111.978 189.691C114.918 191.149 117.491 188.476 118.716 187.261C124.99 180.848 128.531 176.612 134.852 169.039M99.727 172.02C113.665 171.66 125.203 170.631 134.852 169.039M162.207 256.588C154.428 258.884 146.633 260.689 138.93 262.08M54.3982 263.398C51.9131 270.211 45.1145 284.93 37.8004 289.304M54.3982 263.398C75.4473 266.461 106.36 267.965 138.93 262.08M54.3982 263.398C46.7587 262.287 40.4185 260.97 35.7699 259.727M37.8004 289.304C36.1828 280.398 35.3048 270.512 35.7699 259.727M138.93 262.08C142.207 269.94 152.616 287.117 168.041 292.948M82.5755 292.341C85.4878 293.716 91.1692 296.081 96.6642 297.609M96.6642 297.609C92.5806 309.013 84.9625 334.118 84.9625 339.463M84.9625 339.463C86.7784 343.784 84.5086 348.166 83.1467 349.816C81.9411 349.896 80.5594 349.977 79.0611 350.052M79.0611 350.052C78.1532 353.124 75.9742 359.269 74.5215 359.269C72.7057 359.269 50.9157 360.169 49.5538 357.468C49.5538 355.308 51.6723 354.768 52.7315 354.768V349.439M79.0611 350.052C70.3066 350.49 57.5721 350.735 52.7315 349.439M69.0994 201.839C67.5477 208.52 64.7627 223.341 66.0367 229.172C67.3106 235.003 79.6352 243.344 85.6383 246.786C88.8164 248.608 95.4391 248.001 99.727 245.571C110.199 241.013 115.925 237.57 126.067 230.994C126.271 228.159 126.802 217.388 127.292 201.839C117.001 198.437 84.209 200.421 69.0994 201.839Z" stroke="#503C3C" stroke-width="2.00902" stroke-linecap="round"/>
<path d="M83.3937 232.829C82.9546 237.382 85.0986 236.389 87.0691 235.258C92.9584 231.877 101.906 225.09 101.591 219.466C101.49 217.68 100.457 216.012 98.095 214.607C95.9007 213.301 93.993 213.068 92.3443 213.587C86.6293 215.385 84.0276 226.229 83.3937 232.829Z" fill="#F96B35"/>
<path d="M92.3443 213.587C93.993 213.068 95.9007 213.301 98.095 214.607C100.457 216.012 101.49 217.68 101.591 219.466C105.444 221.288 108.506 215.223 104.219 212.186C109.119 208.544 98.7057 201.862 97.4806 207.935C91.355 204.29 88.9048 212.177 92.3443 213.587Z" fill="#5FBE50"/>
<path d="M92.3443 213.587C86.6293 215.385 84.0276 226.229 83.3937 232.829C82.9546 237.382 85.0986 236.389 87.0691 235.258C92.9584 231.877 101.906 225.09 101.591 219.466M92.3443 213.587C93.993 213.068 95.9007 213.301 98.095 214.607C100.457 216.012 101.49 217.68 101.591 219.466M92.3443 213.587C88.9048 212.177 91.355 204.29 97.4806 207.935C98.7057 201.862 109.119 208.544 104.219 212.186C108.506 215.223 105.444 221.288 101.591 219.466" stroke="#503C3C" stroke-width="2.00902"/>
<path d="M74.6243 180.322C74.1475 179.668 73.1323 179.779 72.8668 180.543C71.7627 183.719 70.1744 189.245 69.9004 193.381C69.8597 193.995 70.3998 194.466 71.0102 194.384C85.8592 192.387 117.013 193.326 126.154 194.397C126.766 194.469 127.297 193.995 127.326 193.38C127.537 188.92 128.899 183.995 130.495 179.697C130.918 178.557 128.809 177.208 128.003 178.119C122.533 184.304 118.694 188.027 114.576 190.298C110.746 191.812 102.937 173.291 98.6493 173.898C94.3614 174.506 86.3983 187.261 82.723 187.261C80.0543 187.261 76.4167 182.778 74.6243 180.322Z" fill="#E96A98" stroke="#503C3C" stroke-width="2.00902"/>
<path d="M79.6611 340.328C83.7174 314.356 84.9447 302.406 82.1114 293.559C84.274 294.586 86.2386 295.31 88.9924 296.292C92.2686 297.461 94.9749 298.418 94.9749 298.418C93.7098 301.85 82.1182 339.27 83.949 339.113C85.1425 343.533 83.5179 346.808 82.7239 348.832H77.2109C79.1711 346.888 79.6611 342.96 79.6611 340.328Z" fill="#2A5375" fill-opacity="0.5"/>
<path d="M140.303 190.301C142.877 215.415 147.653 262.581 159.904 255.292C153.93 250.365 143.306 209.293 140.303 190.301Z" fill="#2A5375" fill-opacity="0.5"/>
<path d="M28.8517 246.066C30.1094 249.622 35.1375 247.795 36.1688 246.785C39.1583 219.475 57.9136 184.806 67.4639 170.582C64.3462 170.253 66.1838 170.686 64.3462 170.078C55.6444 179.203 27.0986 235.444 28.8165 245.931C28.8243 245.979 28.8356 246.02 28.8517 246.066Z" fill="#775959" fill-opacity="0.5"/>
<path d="M99.2613 172.079C69.6547 174.306 11.4214 163.818 15.3417 104.051C17.5996 120.032 36.0574 163.093 99.2613 172.079Z" fill="#503C3C" fill-opacity="0.3"/>
<path d="M48.4195 178.757C15.5868 170.01 9.82859 133.607 14.1165 110.121C12.1563 144.135 40.6604 161.952 55.1574 166.609C50.8697 173.898 52.0948 171.468 48.4195 178.757Z" fill="#503C3C" fill-opacity="0.3" stroke="#503C3C" stroke-opacity="0.3" stroke-width="2.00902"/>
<path d="M199.109 104.051C201.069 138.065 170.115 158.919 155.618 163.575C165.005 183.059 181.652 228.069 183.795 244.966C186.858 242.537 183.183 187.871 173.994 171.472C198.1 146.81 200.948 114.874 199.109 104.051Z" fill="#503C3C" fill-opacity="0.3" stroke="#503C3C" stroke-opacity="0.3" stroke-width="2.00902"/>
<path d="M87.0115 21.441C85.0514 16.0959 78.4358 12.735 75.373 11.7227C84.1938 12.2086 94.5663 19.6188 98.0375 23.2632C97.4249 22.6558 93.3821 21.441 87.0115 21.441Z" fill="#503C3C" fill-opacity="0.3" stroke="#503C3C" stroke-opacity="0.3" stroke-width="2.00902"/>
<path d="M106.001 16.5834C104.041 11.2383 97.4251 3.62561 94.3623 2.61328C103.183 3.0992 116.006 17.7982 119.477 21.4425C118.864 20.8351 112.739 18.4055 106.001 16.5834Z" fill="#503C3C" fill-opacity="0.3" stroke="#503C3C" stroke-opacity="0.3" stroke-width="2.00902"/>
<path d="M82.1105 192.121C75.2499 191.635 60.0587 160.536 68.0218 173.292C75.985 186.047 81.5302 189.054 83.3356 188.476C88.5225 187.08 95.603 175.136 98.6494 175.114C101.696 175.092 109.309 191.513 114.576 191.513C119.843 191.513 128.664 177.543 135.403 170.255C118.251 199.41 114.576 193.336 111.513 193.336C108.45 193.336 103.55 184.832 98.6494 177.543C88.8486 186.654 88.9711 192.607 82.1105 192.121Z" fill="#503C3C" fill-opacity="0.3" stroke="#503C3C" stroke-opacity="0.3" stroke-width="2.00902"/>
<path d="M72.8387 90.0218C69.8385 99.6357 64.297 106.475 55.7028 103.838C47.6591 101.37 46.4315 92.4535 49.4317 82.8396C52.4319 73.2257 57.4598 66.3891 66.6478 68.2105C74.6112 70.6411 75.8389 80.4079 72.8387 90.0218Z" fill="black"/>
<path d="M133.484 85.9746C132.77 96.0133 135.437 104.378 144.411 105.007C152.81 105.595 157.211 97.7241 157.926 87.6855C158.64 77.6468 156.451 69.4688 147.221 67.8671C138.91 67.273 134.199 75.9359 133.484 85.9746Z" fill="black"/>
<path d="M40.3076 69.4272C41.7369 61.5311 49.6184 47.6825 69.7101 55.4571" stroke="black" stroke-width="2.00902" stroke-linecap="round"/>
<path d="M164.707 70.8306C163.796 62.8594 156.834 48.5343 136.277 55.0042" stroke="black" stroke-width="2.00902" stroke-linecap="round"/>
<mask id="path-19-inside-1_1520_4275" fill="white">
<ellipse cx="35.4077" cy="104.66" rx="1.2251" ry="1.21479"/>
</mask>
<ellipse cx="35.4077" cy="104.66" rx="1.2251" ry="1.21479" fill="black"/>
<path d="M36.6328 104.66H34.6238C34.6238 104.205 34.9908 103.866 35.4077 103.866V105.875V107.884C37.1778 107.884 38.6418 106.457 38.6418 104.66H36.6328ZM35.4077 105.875V103.866C35.8246 103.866 36.1916 104.205 36.1916 104.66H34.1826H32.1736C32.1736 106.457 33.6376 107.884 35.4077 107.884V105.875ZM34.1826 104.66H36.1916C36.1916 105.115 35.8246 105.454 35.4077 105.454V103.445V101.436C33.6376 101.436 32.1736 102.864 32.1736 104.66H34.1826ZM35.4077 103.445V105.454C34.9908 105.454 34.6238 105.115 34.6238 104.66H36.6328H38.6418C38.6418 102.864 37.1778 101.436 35.4077 101.436V103.445Z" fill="#503C3C" mask="url(#path-19-inside-1_1520_4275)"/>
<mask id="path-21-inside-2_1520_4275" fill="white">
<ellipse cx="1.2251" cy="1.21479" rx="1.2251" ry="1.21479" transform="matrix(-1 0 0 1 166.492 107.09)"/>
</mask>
<ellipse cx="1.2251" cy="1.21479" rx="1.2251" ry="1.21479" transform="matrix(-1 0 0 1 166.492 107.09)" fill="black"/>
<path d="M164.042 108.305H166.051C166.051 107.85 165.684 107.51 165.267 107.51V109.519V111.528C163.497 111.528 162.033 110.101 162.033 108.305H164.042ZM165.267 109.519V107.51C164.85 107.51 164.483 107.85 164.483 108.305H166.492H168.501C168.501 110.101 167.037 111.528 165.267 111.528V109.519ZM166.492 108.305H164.483C164.483 108.759 164.85 109.099 165.267 109.099V107.09V105.081C167.037 105.081 168.501 106.508 168.501 108.305H166.492ZM165.267 107.09V109.099C165.684 109.099 166.051 108.759 166.051 108.305H164.042H162.033C162.033 106.508 163.497 105.081 165.267 105.081V107.09Z" fill="#503C3C" mask="url(#path-21-inside-2_1520_4275)"/>
<mask id="path-23-inside-3_1520_4275" fill="white">
<ellipse cx="37.8579" cy="116.805" rx="1.2251" ry="1.21479"/>
</mask>
<ellipse cx="37.8579" cy="116.805" rx="1.2251" ry="1.21479" fill="black"/>
<path d="M39.083 116.805H37.074C37.074 116.35 37.441 116.01 37.8579 116.01V118.019V120.028C39.628 120.028 41.092 118.601 41.092 116.805H39.083ZM37.8579 118.019V116.01C38.2748 116.01 38.6418 116.35 38.6418 116.805H36.6328H34.6238C34.6238 118.601 36.0878 120.028 37.8579 120.028V118.019ZM36.6328 116.805H38.6418C38.6418 117.259 38.2748 117.599 37.8579 117.599V115.59V113.581C36.0878 113.581 34.6238 115.008 34.6238 116.805H36.6328ZM37.8579 115.59V117.599C37.441 117.599 37.074 117.259 37.074 116.805H39.083H41.092C41.092 115.008 39.628 113.581 37.8579 113.581V115.59Z" fill="#503C3C" mask="url(#path-23-inside-3_1520_4275)"/>
<mask id="path-25-inside-4_1520_4275" fill="white">
<ellipse cx="1.2251" cy="1.21479" rx="1.2251" ry="1.21479" transform="matrix(-1 0 0 1 164.043 119.234)"/>
</mask>
<ellipse cx="1.2251" cy="1.21479" rx="1.2251" ry="1.21479" transform="matrix(-1 0 0 1 164.043 119.234)" fill="black"/>
<path d="M161.593 120.449H163.602C163.602 119.995 163.235 119.655 162.818 119.655V121.664V123.673C161.048 123.673 159.584 122.246 159.584 120.449H161.593ZM162.818 121.664V119.655C162.401 119.655 162.034 119.995 162.034 120.449H164.043H166.052C166.052 122.246 164.588 123.673 162.818 123.673V121.664ZM164.043 120.449H162.034C162.034 120.904 162.401 121.243 162.818 121.243V119.234V117.225C164.588 117.225 166.052 118.653 166.052 120.449H164.043ZM162.818 119.234V121.243C163.235 121.243 163.602 120.904 163.602 120.449H161.593H159.584C159.584 118.653 161.048 117.225 162.818 117.225V119.234Z" fill="#503C3C" mask="url(#path-25-inside-4_1520_4275)"/>
<mask id="path-27-inside-5_1520_4275" fill="white">
<ellipse cx="46.4341" cy="105.871" rx="1.2251" ry="1.21479"/>
</mask>
<ellipse cx="46.4341" cy="105.871" rx="1.2251" ry="1.21479" fill="black"/>
<path d="M47.6592 105.871H45.6502C45.6502 105.416 46.0172 105.077 46.4341 105.077V107.086V109.095C48.2042 109.095 49.6682 107.667 49.6682 105.871H47.6592ZM46.4341 107.086V105.077C46.851 105.077 47.218 105.416 47.218 105.871H45.209H43.2C43.2 107.667 44.664 109.095 46.4341 109.095V107.086ZM45.209 105.871H47.218C47.218 106.326 46.851 106.665 46.4341 106.665V104.656V102.647C44.664 102.647 43.2 104.075 43.2 105.871H45.209ZM46.4341 104.656V106.665C46.0172 106.665 45.6502 106.326 45.6502 105.871H47.6592H49.6682C49.6682 104.075 48.2042 102.647 46.4341 102.647V104.656Z" fill="#503C3C" mask="url(#path-27-inside-5_1520_4275)"/>
<mask id="path-29-inside-6_1520_4275" fill="white">
<ellipse cx="1.2251" cy="1.21479" rx="1.2251" ry="1.21479" transform="matrix(-1 0 0 1 155.468 108.301)"/>
</mask>
<ellipse cx="1.2251" cy="1.21479" rx="1.2251" ry="1.21479" transform="matrix(-1 0 0 1 155.468 108.301)" fill="black"/>
<path d="M153.018 109.516H155.027C155.027 109.061 154.66 108.721 154.243 108.721V110.73V112.739C152.473 112.739 151.009 111.312 151.009 109.516H153.018ZM154.243 110.73V108.721C153.826 108.721 153.459 109.061 153.459 109.516H155.468H157.477C157.477 111.312 156.013 112.739 154.243 112.739V110.73ZM155.468 109.516H153.459C153.459 109.97 153.826 110.31 154.243 110.31V108.301V106.292C156.013 106.292 157.477 107.719 157.477 109.516H155.468ZM154.243 108.301V110.31C154.66 110.31 155.027 109.97 155.027 109.516H153.018H151.009C151.009 107.719 152.473 106.292 154.243 106.292V108.301Z" fill="#503C3C" mask="url(#path-29-inside-6_1520_4275)"/>
<path d="M83.2622 98.3331C82.6019 98.7259 81.2812 100.127 81.2812 102.589C81.2812 105.051 90.2174 112.607 94.6855 116.077L110.269 104.291C111.149 103.135 112.382 100.494 110.269 99.1843C107.628 97.5474 93.563 93.2915 83.2622 98.3331Z" fill="#DB867D"/>
<path d="M94.8254 116.199C89.925 112.757 80.3692 105.023 81.3493 101.621M94.8254 116.199L110.139 104.051M94.8254 116.199V122.88M94.8254 122.88L90.5376 127.739M94.8254 122.88L99.7258 127.739" stroke="black" stroke-width="2.00902" stroke-linecap="round"/>
<path d="M83.1875 97.9744C87.2712 96.1523 98.3788 93.8442 110.14 99.1892" stroke="black" stroke-width="2.00902" stroke-linecap="round"/>
</svg>
