<svg width="232" height="361" viewBox="0 0 232 361" fill="none" xmlns="http://www.w3.org/2000/svg">
<path d="M86.4384 20.8343C36.9442 20.3483 18.0368 76.1072 14.7699 104.047C13.6077 112.33 14.435 123.512 19.2921 134.418C25.0576 147.363 36.5013 159.919 57.0359 166.771C60.8061 168.029 64.8827 169.094 69.2869 169.935C77.4958 171.502 86.8427 172.286 97.4643 172.076C98.2892 172.059 99.1059 172.041 99.9145 172.02C113.853 171.66 125.391 170.631 135.039 169.039C143.572 167.632 150.627 165.785 156.556 163.573C178.193 155.499 188.122 139.277 192.41 130.774C196.698 122.27 196.951 120.975 197.658 116.196C199.788 101.776 196.331 81.5493 189.009 63.1404C185.317 55.5101 181.688 48.426 178.273 42.0939C172.159 32.683 167.295 28.1238 156.882 20.8343C133.78 4.6624 103.998 2.41022 93.1765 1.39844C97.056 4.23295 104.815 10.9952 104.815 15.3681C85.7034 8.07937 72.7581 10.3065 68.6744 12.3311C72.1456 11.3188 80.558 11.6022 86.4384 20.8343Z" fill="#F2E9DD"/>
<path d="M28.8453 224.312C16.5837 249.094 29.2098 250.025 37.0556 247.393C37.8071 241.817 38.9309 236.034 40.497 230.055C34.1264 229.79 30.0748 226.116 28.8453 224.312Z" fill="#F2E9DD"/>
<path d="M172.808 259.541C179.014 258.739 181.667 254.094 182.525 248.932C182.709 247.825 182.811 246.693 182.847 245.571C182.949 242.424 182.538 239.348 181.997 237.068C181.316 233.468 180.398 229.581 179.307 225.527C174.215 229.9 159.472 232.816 152.737 233.727L156.556 245.571C157.463 248.767 159.012 253.5 162.395 256.588C164.164 258.203 166.434 259.368 169.375 259.63C170.431 259.724 171.572 259.701 172.808 259.541Z" fill="#F2E9DD"/>
<path d="M14.7699 104.047C1.08958 150.269 -13.8975 246.095 35.5967 259.63C35.7157 259.662 35.836 259.695 35.9574 259.727C36.1295 255.737 36.4854 251.625 37.0556 247.393C29.2098 250.025 16.5837 249.094 28.8453 224.312C20.2728 210.249 9.21235 177.725 19.2921 134.418C14.435 123.512 13.6077 112.33 14.7699 104.047Z" fill="#F2E9DD"/>
<path d="M197.658 116.196C206.73 150.413 216.299 222.49 181.997 237.068C182.538 239.348 182.949 242.424 182.847 245.571C186.239 244.424 193.758 243.629 196.698 249.621C199.986 249.371 203.455 248.845 207.111 248.001C254.328 226.759 219.545 126.263 189.009 63.1404C196.331 81.5493 199.788 101.776 197.658 116.196Z" fill="#F2E9DD"/>
<path d="M182.525 248.932C181.667 254.094 179.014 258.739 172.808 259.541C171.572 259.701 170.431 259.724 169.375 259.63C170.059 263.102 169.499 278.025 169.133 285.052C172.524 286.874 179.477 288.332 180.159 279.585C202.823 285.052 207.111 260.149 191.185 258.326C198.535 257.355 197.923 252.118 196.698 249.621C193.758 243.629 186.239 244.424 182.847 245.571C182.811 246.693 182.709 247.825 182.525 248.932Z" fill="#F2E9DD"/>
<path d="M74.709 359.269C76.1617 359.269 78.3407 353.124 79.2486 350.052C70.4941 350.49 57.7596 350.735 52.919 349.439V354.768C51.8598 354.768 49.7413 355.308 49.7413 357.468C51.1032 360.169 72.8932 359.269 74.709 359.269Z" fill="#F2E9DD"/>
<path d="M125.029 347.324C126.254 351.47 129.195 359.761 131.155 359.761C133.605 359.761 163.007 360.976 164.845 357.332C164.845 354.416 161.987 353.687 160.557 353.687V346.498C154.026 348.246 136.842 347.916 125.029 347.324Z" fill="#F2E9DD"/>
<path d="M197.658 116.196C196.951 120.975 196.698 122.27 192.41 130.774C188.122 139.277 178.193 155.499 156.556 163.573C162.173 176.072 173.33 203.311 179.307 225.527C180.398 229.581 181.316 233.468 181.997 237.068C216.299 222.49 206.73 150.413 197.658 116.196Z" fill="#DB867D"/>
<path d="M117.066 333.036C133.727 337.409 155.044 333.846 162.395 331.214C164.014 326.399 166.579 306.895 168.229 292.948C152.804 287.117 142.394 269.94 139.118 262.08C106.548 267.965 75.6348 266.461 54.5857 263.398C52.1006 270.211 45.302 284.93 37.9879 289.304C42.2759 312.91 48.1197 329.839 51.5571 338.113C57.0046 340.063 72.8024 342.704 85.15 339.463C85.15 334.118 92.7681 309.013 96.8517 297.609C99.4473 298.331 102.001 298.866 104.202 299.022C109.593 305.825 115.024 324.533 117.066 333.036Z" fill="#F1BB50"/>
<path fill-rule="evenodd" clip-rule="evenodd" d="M156.556 245.571L152.737 233.727L148.919 221.883L141.166 189.691C141.491 186.654 145.024 177.179 156.556 163.573C150.627 165.785 143.572 167.632 135.039 169.039C128.718 176.613 125.178 180.848 118.904 187.261C117.679 188.476 115.106 191.149 112.166 189.691C108.735 188.719 102.569 177.505 99.9145 172.02C96.2392 177.1 87.786 187.261 83.3756 187.261C79.4553 186.289 71.3694 176.733 67.8166 172.076C53.6327 192.958 45.1297 212.367 40.497 230.055C38.9309 236.034 37.8071 241.817 37.0556 247.393C50.6448 251.645 93.5696 257.233 156.556 245.571ZM66.2242 229.172C64.9502 223.341 67.7352 208.52 69.2869 201.839C84.3965 200.421 117.188 198.437 127.479 201.839C126.989 217.388 126.458 228.159 126.254 230.994C116.113 237.57 110.387 241.013 99.9145 245.571C95.6266 248.001 89.0039 248.608 85.8258 246.786C79.8227 243.344 67.4981 235.003 66.2242 229.172Z" fill="#F1BB50"/>
<path d="M148.919 221.883L152.737 233.727C159.472 232.816 174.215 229.9 179.307 225.527C173.33 203.311 162.173 176.072 156.556 163.573C145.024 177.179 141.491 186.654 141.166 189.691L148.919 221.883Z" fill="#F1BB50"/>
<path d="M156.556 245.571C93.5696 257.233 50.6448 251.645 37.0556 247.393C36.4854 251.625 36.1295 255.737 35.9574 259.727C40.606 260.97 46.9462 262.287 54.5857 263.398C75.6348 266.461 106.548 267.965 139.118 262.08C146.82 260.689 154.616 258.884 162.395 256.588C159.012 253.5 157.463 248.767 156.556 245.571Z" fill="#F1BB50"/>
<path d="M37.9879 289.304C45.302 284.93 52.1006 270.211 54.5857 263.398C46.9462 262.287 40.606 260.97 35.9574 259.727C35.4923 270.512 36.3703 280.398 37.9879 289.304Z" fill="#F1BB50"/>
<path d="M85.15 339.463C72.8024 342.704 57.0046 340.063 51.5571 338.113C49.7413 336.312 47.0176 346.215 51.5571 348.916C51.8888 349.113 52.3492 349.287 52.919 349.439C57.7596 350.735 70.4941 350.49 79.2486 350.052C80.7469 349.977 82.1286 349.896 83.3342 349.816C84.6961 348.166 86.9659 343.784 85.15 339.463Z" fill="#F1BB50"/>
<path d="M162.395 331.214C155.044 333.846 133.727 337.409 117.066 333.036C114.616 338.867 117.679 344.779 119.516 347.006C121.143 347.114 123.007 347.223 125.029 347.324C136.842 347.916 154.026 348.246 160.557 346.498C161.326 346.292 161.947 346.058 162.395 345.791C168.52 342.147 164.845 328.784 162.395 331.214Z" fill="#F1BB50"/>
<path d="M169.133 285.052C169.499 278.025 170.059 263.102 169.375 259.63C166.434 259.368 164.164 258.203 162.395 256.588C154.616 258.884 146.82 260.689 139.118 262.08C142.394 269.94 152.804 287.117 168.229 292.948C168.577 290.005 168.884 287.31 169.133 285.052Z" fill="#F1BB50"/>
<path d="M69.2869 201.839C67.7352 208.52 64.9502 223.341 66.2242 229.172C67.4981 235.003 79.8227 243.344 85.8258 246.786C89.0039 248.608 95.6266 248.001 99.9145 245.571C110.387 241.013 116.113 237.57 126.254 230.994C126.458 228.159 126.989 217.388 127.479 201.839C117.188 198.437 84.3965 200.421 69.2869 201.839Z" fill="#FFD88B"/>
<path d="M19.2921 134.418C9.21235 177.725 20.2728 210.249 28.8453 224.312C35.3836 207.413 50.1753 172.244 57.0359 166.771C36.5013 159.919 25.0576 147.363 19.2921 134.418Z" fill="#DB867D"/>
<path d="M69.2869 169.935C64.8827 169.094 60.8061 168.029 57.0359 166.771C50.1753 172.244 35.3836 207.413 28.8453 224.312C30.0748 226.116 34.1264 229.79 40.497 230.055C45.1297 212.367 53.6327 192.958 67.8166 172.076C68.3 171.364 68.7901 170.65 69.2869 169.935Z" fill="#F1BB50"/>
<path d="M97.4643 172.076C86.8427 172.286 77.4958 171.502 69.2869 169.935C68.7901 170.65 68.3 171.364 67.8166 172.076C71.3694 176.733 79.4553 186.289 83.3756 187.261C87.786 187.261 96.2392 177.1 99.9145 172.02C99.1059 172.041 98.2892 172.059 97.4643 172.076Z" fill="#687EE0"/>
<path d="M99.9145 172.02C102.569 177.505 108.735 188.719 112.166 189.691C115.106 191.149 117.679 188.476 118.904 187.261C125.178 180.848 128.718 176.613 135.039 169.039C125.391 170.631 113.853 171.66 99.9145 172.02Z" fill="#687EE0"/>
<path d="M14.7699 104.047C18.0368 76.1072 36.9442 20.3483 86.4384 20.8343C80.558 11.6022 72.1456 11.3188 68.6744 12.3311C72.7581 10.3065 85.7034 8.07937 104.815 15.3681C104.815 10.9952 97.056 4.23295 93.1765 1.39844C103.998 2.41022 133.78 4.6624 156.882 20.8343C167.295 28.1238 172.159 32.683 178.273 42.0939M14.7699 104.047C1.08958 150.269 -13.8975 246.095 35.5967 259.63C35.7157 259.662 35.836 259.695 35.9574 259.727M14.7699 104.047C13.6077 112.33 14.435 123.512 19.2921 134.418M178.273 42.0939C181.688 48.426 185.317 55.5101 189.009 63.1404M178.273 42.0939C182.414 48.4669 186.031 55.6533 189.009 63.1404M139.118 181.187L141.166 189.691M197.658 116.196C196.951 120.975 196.698 122.27 192.41 130.774C188.122 139.277 178.193 155.499 156.556 163.573M197.658 116.196C206.73 150.413 216.299 222.49 181.997 237.068M197.658 116.196C199.788 101.776 196.331 81.5493 189.009 63.1404M181.997 237.068C181.316 233.468 180.398 229.581 179.307 225.527M181.997 237.068C182.538 239.348 182.949 242.424 182.847 245.571M156.556 163.573C162.173 176.072 173.33 203.311 179.307 225.527M156.556 163.573C145.024 177.179 141.491 186.654 141.166 189.691M156.556 163.573C150.627 165.785 143.572 167.632 135.039 169.039M156.556 245.571L152.737 233.727M156.556 245.571C93.5696 257.233 50.6448 251.645 37.0556 247.393M156.556 245.571C157.463 248.767 159.012 253.5 162.395 256.588M152.737 233.727L148.919 221.883L141.166 189.691M152.737 233.727C159.472 232.816 174.215 229.9 179.307 225.527M182.847 245.571C182.811 246.693 182.709 247.825 182.525 248.932C181.667 254.094 179.014 258.739 172.808 259.541C171.572 259.701 170.431 259.724 169.375 259.63M182.847 245.571C186.239 244.424 193.758 243.629 196.698 249.621M196.698 249.621C199.986 249.371 203.455 248.845 207.111 248.001C254.328 226.759 219.545 126.263 189.009 63.1404M196.698 249.621C197.923 252.118 198.535 257.355 191.185 258.326C207.111 260.149 202.823 285.052 180.159 279.585C179.477 288.332 172.524 286.874 169.133 285.052M169.133 285.052C169.499 278.025 170.059 263.102 169.375 259.63M169.133 285.052C168.884 287.31 168.577 290.005 168.229 292.948M162.395 331.214C155.044 333.846 133.727 337.409 117.066 333.036M162.395 331.214C164.845 328.784 168.52 342.147 162.395 345.791C161.947 346.058 161.326 346.292 160.557 346.498M162.395 331.214C164.014 326.399 166.579 306.895 168.229 292.948M169.375 259.63C166.434 259.368 164.164 258.203 162.395 256.588M117.066 333.036C114.616 338.867 117.679 344.779 119.516 347.006C121.143 347.114 123.007 347.223 125.029 347.324M117.066 333.036C115.024 324.533 109.593 305.825 104.202 299.022C102.001 298.866 99.4473 298.331 96.8517 297.609M125.029 347.324C126.254 351.47 129.195 359.761 131.155 359.761C133.605 359.761 163.007 360.976 164.845 357.332C164.845 354.416 161.987 353.687 160.557 353.687V346.498M125.029 347.324C136.842 347.916 154.026 348.246 160.557 346.498M19.2921 134.418C9.21235 177.725 20.2728 210.249 28.8453 224.312M19.2921 134.418C25.0576 147.363 36.5013 159.919 57.0359 166.771M51.5571 338.113C48.1197 329.839 42.2759 312.91 37.9879 289.304M51.5571 338.113C57.0046 340.063 72.8024 342.704 85.15 339.463M51.5571 338.113C49.7413 336.312 47.0176 346.215 51.5571 348.916C51.8888 349.113 52.3492 349.287 52.919 349.439M69.2869 169.935C77.4958 171.502 86.8427 172.286 97.4643 172.076C98.2892 172.059 99.1059 172.041 99.9145 172.02M69.2869 169.935C64.8827 169.094 60.8061 168.029 57.0359 166.771M69.2869 169.935C68.7901 170.65 68.3001 171.364 67.8166 172.076M37.0556 247.393C29.2098 250.025 16.5837 249.094 28.8453 224.312M37.0556 247.393C37.8071 241.817 38.9309 236.034 40.497 230.055M37.0556 247.393C36.4854 251.625 36.1295 255.737 35.9574 259.727M28.8453 224.312C35.3836 207.413 50.1753 172.244 57.0359 166.771M28.8453 224.312C30.0748 226.116 34.1264 229.79 40.497 230.055M40.497 230.055C45.1297 212.367 53.6327 192.958 67.8166 172.076M67.8166 172.076C71.3694 176.733 79.4553 186.289 83.3756 187.261C87.786 187.261 96.2392 177.1 99.9145 172.02M99.9145 172.02C102.569 177.505 108.735 188.719 112.166 189.691C115.106 191.149 117.679 188.476 118.904 187.261C125.178 180.848 128.718 176.612 135.039 169.039M99.9145 172.02C113.853 171.66 125.391 170.631 135.039 169.039M162.395 256.588C154.616 258.884 146.82 260.689 139.118 262.08M54.5857 263.398C52.1006 270.211 45.302 284.93 37.9879 289.304M54.5857 263.398C75.6348 266.461 106.548 267.965 139.118 262.08M54.5857 263.398C46.9462 262.287 40.606 260.97 35.9574 259.727M37.9879 289.304C36.3703 280.398 35.4923 270.512 35.9574 259.727M139.118 262.08C142.394 269.94 152.804 287.117 168.229 292.948M82.763 292.341C85.6753 293.716 91.3567 296.081 96.8517 297.609M96.8517 297.609C92.7681 309.013 85.15 334.118 85.15 339.463M85.15 339.463C86.9659 343.784 84.6961 348.166 83.3342 349.816C82.1286 349.896 80.7469 349.977 79.2486 350.052M79.2486 350.052C78.3407 353.124 76.1617 359.269 74.709 359.269C72.8932 359.269 51.1032 360.169 49.7413 357.468C49.7413 355.308 51.8598 354.768 52.919 354.768V349.439M79.2486 350.052C70.4941 350.49 57.7596 350.735 52.919 349.439M69.2869 201.839C67.7352 208.52 64.9502 223.341 66.2242 229.172C67.4981 235.003 79.8227 243.344 85.8258 246.786C89.0039 248.608 95.6266 248.001 99.9145 245.571C110.387 241.013 116.113 237.57 126.254 230.994C126.458 228.159 126.989 217.388 127.479 201.839C117.188 198.437 84.3965 200.421 69.2869 201.839Z" stroke="#503C3C" stroke-width="2.00902" stroke-linecap="round"/>
<path d="M83.5812 232.829C83.1421 237.382 85.2861 236.389 87.2566 235.258C93.1459 231.877 102.094 225.09 101.778 219.466C101.678 217.68 100.644 216.012 98.2825 214.607C96.0882 213.301 94.1805 213.068 92.5318 213.587C86.8168 215.385 84.2151 226.229 83.5812 232.829Z" fill="#F96B35"/>
<path d="M92.5318 213.587C94.1805 213.068 96.0882 213.301 98.2825 214.607C100.644 216.012 101.678 217.68 101.778 219.466C105.631 221.288 108.694 215.223 104.406 212.186C109.307 208.544 98.8932 201.862 97.6681 207.935C91.5425 204.29 89.0923 212.177 92.5318 213.587Z" fill="#5FBE50"/>
<path d="M92.5318 213.587C86.8168 215.385 84.2151 226.229 83.5812 232.829C83.1421 237.382 85.2861 236.389 87.2566 235.258C93.1459 231.877 102.094 225.09 101.778 219.466M92.5318 213.587C94.1805 213.068 96.0882 213.301 98.2825 214.607C100.644 216.012 101.678 217.68 101.778 219.466M92.5318 213.587C89.0923 212.177 91.5425 204.29 97.6681 207.935C98.8932 201.862 109.307 208.544 104.406 212.186C108.694 215.223 105.631 221.288 101.778 219.466" stroke="#503C3C" stroke-width="2.00902"/>
<path d="M74.8118 180.322C74.335 179.668 73.3198 179.779 73.0543 180.543C71.9502 183.719 70.3619 189.245 70.0879 193.381C70.0472 193.995 70.5873 194.466 71.1977 194.384C86.0467 192.387 117.201 193.326 126.342 194.397C126.953 194.469 127.485 193.995 127.514 193.38C127.724 188.92 129.087 183.995 130.683 179.697C131.106 178.557 128.997 177.208 128.191 178.119C122.72 184.304 118.882 188.027 114.763 190.298C110.934 191.812 103.125 173.291 98.8368 173.898C94.5489 174.506 86.5858 187.261 82.9105 187.261C80.2418 187.261 76.6042 182.778 74.8118 180.322Z" fill="#687EE0" stroke="#503C3C" stroke-width="2.00902"/>
<path d="M79.8486 340.328C83.9049 314.356 85.1322 302.406 82.2989 293.559C84.4615 294.586 86.4261 295.31 89.1799 296.292C92.4561 297.461 95.1624 298.418 95.1624 298.418C93.8973 301.85 82.3057 339.27 84.1365 339.113C85.33 343.533 83.7054 346.808 82.9114 348.832H77.3984C79.3586 346.888 79.8486 342.96 79.8486 340.328Z" fill="#2A5375" fill-opacity="0.5"/>
<path d="M140.49 190.301C143.064 215.415 147.841 262.581 160.092 255.292C154.118 250.365 143.493 209.293 140.49 190.301Z" fill="#2A5375" fill-opacity="0.5"/>
<path d="M29.0392 246.066C30.2969 249.622 35.325 247.795 36.3563 246.785C39.3458 219.475 58.1011 184.806 67.6514 170.582C64.5337 170.253 66.3713 170.686 64.5337 170.078C55.8319 179.203 27.2861 235.444 29.004 245.931C29.0118 245.979 29.0231 246.02 29.0392 246.066Z" fill="#775959" fill-opacity="0.5"/>
<path d="M99.4488 172.079C69.8422 174.306 11.6089 163.818 15.5292 104.051C17.7871 120.032 36.2449 163.093 99.4488 172.079Z" fill="#503C3C" fill-opacity="0.3"/>
<path d="M48.607 178.757C15.7743 170.01 10.0161 133.607 14.304 110.121C12.3438 144.135 40.8479 161.952 55.3449 166.609C51.0572 173.898 52.2823 171.468 48.607 178.757Z" fill="#503C3C" fill-opacity="0.3" stroke="#503C3C" stroke-opacity="0.3" stroke-width="2.00902"/>
<path d="M199.296 104.051C201.257 138.065 170.302 158.919 155.805 163.575C165.192 183.059 181.84 228.069 183.983 244.966C187.045 242.537 183.37 187.871 174.182 171.472C198.288 146.81 201.135 114.874 199.296 104.051Z" fill="#503C3C" fill-opacity="0.3" stroke="#503C3C" stroke-opacity="0.3" stroke-width="2.00902"/>
<path d="M87.199 21.441C85.2389 16.0959 78.6233 12.735 75.5605 11.7227C84.3813 12.2086 94.7538 19.6188 98.225 23.2632C97.6124 22.6558 93.5696 21.441 87.199 21.441Z" fill="#503C3C" fill-opacity="0.3" stroke="#503C3C" stroke-opacity="0.3" stroke-width="2.00902"/>
<path d="M106.188 16.5834C104.228 11.2383 97.6126 3.62561 94.5498 2.61328C103.371 3.0992 116.193 17.7982 119.664 21.4425C119.052 20.8351 112.926 18.4055 106.188 16.5834Z" fill="#503C3C" fill-opacity="0.3" stroke="#503C3C" stroke-opacity="0.3" stroke-width="2.00902"/>
<path d="M82.298 192.121C75.4374 191.635 60.2462 160.536 68.2093 173.292C76.1725 186.047 81.7177 189.054 83.5231 188.476C88.71 187.08 95.7905 175.136 98.8369 175.114C101.883 175.092 109.496 191.513 114.763 191.513C120.03 191.513 128.852 177.543 135.59 170.255C118.439 199.41 114.763 193.336 111.7 193.336C108.638 193.336 103.737 184.832 98.8369 177.543C89.0361 186.654 89.1586 192.607 82.298 192.121Z" fill="#503C3C" fill-opacity="0.3" stroke="#503C3C" stroke-opacity="0.3" stroke-width="2.00902"/>
<path d="M73.0262 90.0218C70.026 99.6357 64.4845 106.475 55.8903 103.838C47.8466 101.37 46.619 92.4535 49.6192 82.8396C52.6194 73.2257 57.6473 66.3891 66.8353 68.2105C74.7987 70.6411 76.0264 80.4079 73.0262 90.0218Z" fill="black"/>
<path d="M133.672 85.9746C132.957 96.0133 135.624 104.378 144.598 105.007C152.997 105.595 157.398 97.7241 158.113 87.6855C158.828 77.6468 156.638 69.4688 147.408 67.8671C139.098 67.273 134.386 75.9359 133.672 85.9746Z" fill="black"/>
<path d="M40.4951 69.4272C41.9244 61.5311 49.8059 47.6825 69.8976 55.4571" stroke="black" stroke-width="2.00902" stroke-linecap="round"/>
<path d="M164.894 70.8306C163.983 62.8594 157.021 48.5343 136.465 55.0042" stroke="black" stroke-width="2.00902" stroke-linecap="round"/>
<mask id="path-19-inside-1_1520_4155" fill="white">
<ellipse cx="35.5952" cy="104.66" rx="1.2251" ry="1.21479"/>
</mask>
<ellipse cx="35.5952" cy="104.66" rx="1.2251" ry="1.21479" fill="black"/>
<path d="M36.8203 104.66H34.8113C34.8113 104.205 35.1783 103.866 35.5952 103.866V105.875V107.884C37.3653 107.884 38.8293 106.457 38.8293 104.66H36.8203ZM35.5952 105.875V103.866C36.0121 103.866 36.3791 104.205 36.3791 104.66H34.3701H32.3611C32.3611 106.457 33.8251 107.884 35.5952 107.884V105.875ZM34.3701 104.66H36.3791C36.3791 105.115 36.0121 105.454 35.5952 105.454V103.445V101.436C33.8251 101.436 32.3611 102.864 32.3611 104.66H34.3701ZM35.5952 103.445V105.454C35.1783 105.454 34.8113 105.115 34.8113 104.66H36.8203H38.8293C38.8293 102.864 37.3653 101.436 35.5952 101.436V103.445Z" fill="#503C3C" mask="url(#path-19-inside-1_1520_4155)"/>
<mask id="path-21-inside-2_1520_4155" fill="white">
<ellipse cx="1.2251" cy="1.21479" rx="1.2251" ry="1.21479" transform="matrix(-1 0 0 1 166.68 107.09)"/>
</mask>
<ellipse cx="1.2251" cy="1.21479" rx="1.2251" ry="1.21479" transform="matrix(-1 0 0 1 166.68 107.09)" fill="black"/>
<path d="M164.229 108.305H166.238C166.238 107.85 165.871 107.51 165.455 107.51V109.519V111.528C163.684 111.528 162.22 110.101 162.22 108.305H164.229ZM165.455 109.519V107.51C165.038 107.51 164.671 107.85 164.671 108.305H166.68H168.689C168.689 110.101 167.225 111.528 165.455 111.528V109.519ZM166.68 108.305H164.671C164.671 108.759 165.038 109.099 165.455 109.099V107.09V105.081C167.225 105.081 168.689 106.508 168.689 108.305H166.68ZM165.455 107.09V109.099C165.871 109.099 166.238 108.759 166.238 108.305H164.229H162.22C162.22 106.508 163.684 105.081 165.455 105.081V107.09Z" fill="#503C3C" mask="url(#path-21-inside-2_1520_4155)"/>
<mask id="path-23-inside-3_1520_4155" fill="white">
<ellipse cx="38.0454" cy="116.805" rx="1.2251" ry="1.21479"/>
</mask>
<ellipse cx="38.0454" cy="116.805" rx="1.2251" ry="1.21479" fill="black"/>
<path d="M39.2705 116.805H37.2615C37.2615 116.35 37.6285 116.01 38.0454 116.01V118.019V120.028C39.8155 120.028 41.2795 118.601 41.2795 116.805H39.2705ZM38.0454 118.019V116.01C38.4623 116.01 38.8293 116.35 38.8293 116.805H36.8203H34.8113C34.8113 118.601 36.2753 120.028 38.0454 120.028V118.019ZM36.8203 116.805H38.8293C38.8293 117.259 38.4623 117.599 38.0454 117.599V115.59V113.581C36.2753 113.581 34.8113 115.008 34.8113 116.805H36.8203ZM38.0454 115.59V117.599C37.6285 117.599 37.2615 117.259 37.2615 116.805H39.2705H41.2795C41.2795 115.008 39.8155 113.581 38.0454 113.581V115.59Z" fill="#503C3C" mask="url(#path-23-inside-3_1520_4155)"/>
<mask id="path-25-inside-4_1520_4155" fill="white">
<ellipse cx="1.2251" cy="1.21479" rx="1.2251" ry="1.21479" transform="matrix(-1 0 0 1 164.23 119.234)"/>
</mask>
<ellipse cx="1.2251" cy="1.21479" rx="1.2251" ry="1.21479" transform="matrix(-1 0 0 1 164.23 119.234)" fill="black"/>
<path d="M161.78 120.449H163.789C163.789 119.995 163.422 119.655 163.005 119.655V121.664V123.673C161.235 123.673 159.771 122.246 159.771 120.449H161.78ZM163.005 121.664V119.655C162.588 119.655 162.221 119.995 162.221 120.449H164.23H166.239C166.239 122.246 164.775 123.673 163.005 123.673V121.664ZM164.23 120.449H162.221C162.221 120.904 162.588 121.243 163.005 121.243V119.234V117.225C164.775 117.225 166.239 118.653 166.239 120.449H164.23ZM163.005 119.234V121.243C163.422 121.243 163.789 120.904 163.789 120.449H161.78H159.771C159.771 118.653 161.235 117.225 163.005 117.225V119.234Z" fill="#503C3C" mask="url(#path-25-inside-4_1520_4155)"/>
<mask id="path-27-inside-5_1520_4155" fill="white">
<ellipse cx="46.6216" cy="105.871" rx="1.2251" ry="1.21479"/>
</mask>
<ellipse cx="46.6216" cy="105.871" rx="1.2251" ry="1.21479" fill="black"/>
<path d="M47.8467 105.871H45.8377C45.8377 105.416 46.2047 105.077 46.6216 105.077V107.086V109.095C48.3917 109.095 49.8557 107.667 49.8557 105.871H47.8467ZM46.6216 107.086V105.077C47.0385 105.077 47.4055 105.416 47.4055 105.871H45.3965H43.3875C43.3875 107.667 44.8515 109.095 46.6216 109.095V107.086ZM45.3965 105.871H47.4055C47.4055 106.326 47.0385 106.665 46.6216 106.665V104.656V102.647C44.8515 102.647 43.3875 104.075 43.3875 105.871H45.3965ZM46.6216 104.656V106.665C46.2047 106.665 45.8377 106.326 45.8377 105.871H47.8467H49.8557C49.8557 104.075 48.3917 102.647 46.6216 102.647V104.656Z" fill="#503C3C" mask="url(#path-27-inside-5_1520_4155)"/>
<mask id="path-29-inside-6_1520_4155" fill="white">
<ellipse cx="1.2251" cy="1.21479" rx="1.2251" ry="1.21479" transform="matrix(-1 0 0 1 155.655 108.301)"/>
</mask>
<ellipse cx="1.2251" cy="1.21479" rx="1.2251" ry="1.21479" transform="matrix(-1 0 0 1 155.655 108.301)" fill="black"/>
<path d="M153.205 109.516H155.214C155.214 109.061 154.847 108.721 154.43 108.721V110.73V112.739C152.66 112.739 151.196 111.312 151.196 109.516H153.205ZM154.43 110.73V108.721C154.013 108.721 153.646 109.061 153.646 109.516H155.655H157.664C157.664 111.312 156.2 112.739 154.43 112.739V110.73ZM155.655 109.516H153.646C153.646 109.97 154.013 110.31 154.43 110.31V108.301V106.292C156.2 106.292 157.664 107.719 157.664 109.516H155.655ZM154.43 108.301V110.31C154.847 110.31 155.214 109.97 155.214 109.516H153.205H151.196C151.196 107.719 152.66 106.292 154.43 106.292V108.301Z" fill="#503C3C" mask="url(#path-29-inside-6_1520_4155)"/>
<path d="M83.4497 98.3331C82.7894 98.7259 81.4688 100.127 81.4688 102.589C81.4688 105.051 90.4049 112.607 94.873 116.077L110.456 104.291C111.337 103.135 112.569 100.494 110.456 99.1843C107.815 97.5474 93.7505 93.2915 83.4497 98.3331Z" fill="#DB867D"/>
<path d="M95.0129 116.199C90.1125 112.757 80.5567 105.023 81.5368 101.621M95.0129 116.199L110.327 104.051M95.0129 116.199V122.88M95.0129 122.88L90.7251 127.739M95.0129 122.88L99.9133 127.739" stroke="black" stroke-width="2.00902" stroke-linecap="round"/>
<path d="M83.375 97.9744C87.4587 96.1523 98.5663 93.8442 110.327 99.1892" stroke="black" stroke-width="2.00902" stroke-linecap="round"/>
</svg>
