<svg width="95" height="120" viewBox="0 0 95 120" fill="none" xmlns="http://www.w3.org/2000/svg">
<path fill-rule="evenodd" clip-rule="evenodd" d="M25.0264 89.4612L25.0264 119.777L94.4969 59.999L25.0264 0.220634L25.0264 30.538C39.9418 32.4409 51.4591 44.906 51.4591 59.9996C51.4591 75.0932 39.9418 87.5582 25.0264 89.4612Z" fill="#442C17"/>
<path fill-rule="evenodd" clip-rule="evenodd" d="M42.2842 60.2019C31.307 56.639 23.39 46.5234 23.39 34.6008C23.39 34.2453 23.397 33.8913 23.411 33.5391C10.1557 35.5116 -0.000223315 46.6973 -0.000221516 60.2008C-0.000219718 73.7043 10.1556 84.8899 23.4109 86.8625C23.397 86.511 23.39 86.1578 23.39 85.803C23.39 73.8805 31.307 63.7648 42.2842 60.2019Z" fill="#442C17"/>
</svg>
