<svg width="232" height="362" viewBox="0 0 232 362" fill="none" xmlns="http://www.w3.org/2000/svg">
<path d="M86.6259 21.4574C37.1317 20.9709 18.2243 76.7915 14.9574 104.763C13.7952 113.054 14.6225 124.249 19.4796 135.167C25.2451 148.127 36.6888 160.696 57.2234 167.555C60.9936 168.815 65.0702 169.882 69.4744 170.723C77.6833 172.292 87.0302 173.077 97.6518 172.866C98.4767 172.85 99.2934 172.831 100.102 172.81C114.04 172.45 125.578 171.42 135.227 169.827C143.76 168.418 150.814 166.569 156.743 164.354C178.38 156.271 188.309 140.031 192.597 131.518C196.885 123.005 197.139 121.709 197.845 116.925C199.976 102.488 196.518 82.2397 189.196 63.8104C185.505 56.1716 181.876 49.0796 178.461 42.7405C172.347 33.3192 167.483 28.755 157.069 21.4574C133.968 5.26758 104.186 3.0129 93.364 2C97.2435 4.83765 105.003 11.6074 105.003 15.9851C85.8909 8.68833 72.9456 10.9179 68.8619 12.9448C72.3331 11.9314 80.7455 12.2151 86.6259 21.4574Z" fill="#F2E9DD"/>
<path d="M29.0328 225.161C16.7712 249.97 29.3973 250.902 37.2431 248.267C37.9946 242.685 39.1184 236.896 40.6845 230.91C34.3139 230.645 30.2623 226.967 29.0328 225.161Z" fill="#F2E9DD"/>
<path d="M172.996 260.429C179.201 259.625 181.854 254.975 182.712 249.808C182.897 248.699 182.998 247.567 183.034 246.443C183.136 243.293 182.725 240.213 182.184 237.93C181.503 234.327 180.585 230.436 179.494 226.377C174.402 230.755 159.66 233.674 152.925 234.586L156.743 246.443C157.65 249.643 159.199 254.38 162.582 257.472C164.351 259.089 166.621 260.256 169.563 260.517C170.618 260.611 171.76 260.589 172.996 260.429Z" fill="#F2E9DD"/>
<path d="M14.9574 104.763C1.27708 151.035 -13.71 246.968 35.7842 260.517C35.9032 260.55 36.0235 260.582 36.1449 260.615C36.317 256.621 36.6729 252.504 37.2431 248.267C29.3973 250.902 16.7712 249.97 29.0328 225.161C20.4603 211.082 9.39985 178.522 19.4796 135.167C14.6225 124.249 13.7952 113.054 14.9574 104.763Z" fill="#F2E9DD"/>
<path d="M197.845 116.925C206.918 151.179 216.487 223.337 182.184 237.93C182.725 240.213 183.136 243.293 183.034 246.443C186.426 245.295 193.945 244.499 196.885 250.498C200.173 250.247 203.643 249.721 207.299 248.875C254.516 227.61 219.733 127.003 189.196 63.8104C196.518 82.2397 199.976 102.488 197.845 116.925Z" fill="#F2E9DD"/>
<path d="M182.712 249.808C181.854 254.975 179.201 259.625 172.996 260.429C171.76 260.589 170.618 260.611 169.563 260.517C170.247 263.994 169.686 278.933 169.32 285.968C172.712 287.792 179.665 289.251 180.346 280.495C203.011 285.968 207.299 261.037 191.372 259.213C198.723 258.24 198.11 252.997 196.885 250.498C193.945 244.499 186.426 245.295 183.034 246.443C182.998 247.567 182.897 248.699 182.712 249.808Z" fill="#F2E9DD"/>
<path d="M74.8965 360.267C76.3492 360.267 78.5282 354.115 79.4361 351.039C70.6816 351.478 57.9471 351.723 53.1065 350.426V355.761C52.0473 355.761 49.9288 356.301 49.9288 358.464C51.2907 361.168 73.0807 360.267 74.8965 360.267Z" fill="#F2E9DD"/>
<path d="M125.217 348.309C126.442 352.459 129.382 360.76 131.342 360.76C133.792 360.76 163.195 361.976 165.033 358.328C165.033 355.409 162.174 354.679 160.745 354.679V347.482C154.213 349.231 137.03 348.901 125.217 348.309Z" fill="#F2E9DD"/>
<path d="M197.845 116.925C197.139 121.709 196.885 123.005 192.597 131.518C188.309 140.031 178.38 156.271 156.743 164.354C162.361 176.867 173.517 204.136 179.494 226.377C180.585 230.436 181.503 234.327 182.184 237.93C216.487 223.337 206.918 151.179 197.845 116.925Z" fill="#DB867D"/>
<path d="M117.254 334.005C133.915 338.383 155.232 334.816 162.582 332.181C164.201 327.361 166.766 307.835 168.416 293.872C152.991 288.035 142.582 270.839 139.305 262.971C106.735 268.862 75.8223 267.356 54.7732 264.29C52.2881 271.111 45.4895 285.846 38.1754 290.224C42.4634 313.857 48.3072 330.804 51.7446 339.087C57.1921 341.04 72.9899 343.684 85.3375 340.439C85.3375 335.088 92.9556 309.955 97.0392 298.539C99.6348 299.261 102.189 299.797 104.39 299.953C109.78 306.764 115.212 325.492 117.254 334.005Z" fill="#85C8D6"/>
<path fill-rule="evenodd" clip-rule="evenodd" d="M156.743 246.443L152.925 234.586L149.106 222.729L141.353 190.501C141.678 187.461 145.211 177.975 156.743 164.354C150.814 166.569 143.76 168.418 135.227 169.827C128.906 177.408 125.365 181.648 119.091 188.069C117.866 189.285 115.293 191.96 112.353 190.501C108.923 189.528 102.756 178.302 100.102 172.81C96.4267 177.896 87.9735 188.069 83.5631 188.069C79.6428 187.096 71.5569 177.528 68.0041 172.866C53.8202 193.771 45.3172 213.202 40.6845 230.91C39.1184 236.896 37.9946 242.685 37.2431 248.267C50.8323 252.524 93.7571 258.118 156.743 246.443ZM66.4117 230.025C65.1377 224.188 67.9227 209.351 69.4744 202.662C84.584 201.244 117.376 199.257 127.667 202.662C127.177 218.229 126.646 229.012 126.442 231.85C116.3 238.434 110.574 241.88 100.102 246.443C95.8141 248.875 89.1914 249.484 86.0133 247.659C80.0102 244.214 67.6856 235.863 66.4117 230.025Z" fill="#85C8D6"/>
<path d="M149.106 222.729L152.925 234.586C159.66 233.674 174.402 230.755 179.494 226.377C173.517 204.136 162.361 176.867 156.743 164.354C145.211 177.975 141.678 187.461 141.353 190.501L149.106 222.729Z" fill="#85C8D6"/>
<path d="M156.743 246.443C93.7571 258.118 50.8323 252.524 37.2431 248.267C36.6729 252.504 36.317 256.621 36.1449 260.615C40.7935 261.859 47.1337 263.178 54.7732 264.29C75.8223 267.356 106.735 268.862 139.305 262.971C147.008 261.577 154.803 259.77 162.582 257.472C159.199 254.38 157.65 249.643 156.743 246.443Z" fill="#85C8D6"/>
<path d="M38.1754 290.224C45.4895 285.846 52.2881 271.111 54.7732 264.29C47.1337 263.178 40.7935 261.859 36.1449 260.615C35.6798 271.412 36.5578 281.309 38.1754 290.224Z" fill="#85C8D6"/>
<path d="M85.3375 340.439C72.9899 343.684 57.1921 341.04 51.7446 339.087C49.9288 337.285 47.2051 347.198 51.7446 349.902C52.0763 350.1 52.5367 350.274 53.1065 350.426C57.9471 351.723 70.6816 351.478 79.4361 351.039C80.9344 350.964 82.3161 350.883 83.5217 350.804C84.8836 349.151 87.1534 344.765 85.3375 340.439Z" fill="#85C8D6"/>
<path d="M162.582 332.181C155.232 334.816 133.915 338.383 117.254 334.005C114.803 339.842 117.866 345.761 119.704 347.991C121.331 348.098 123.195 348.207 125.217 348.309C137.03 348.901 154.213 349.231 160.745 347.482C161.514 347.276 162.135 347.041 162.582 346.774C168.708 343.126 165.033 329.749 162.582 332.181Z" fill="#85C8D6"/>
<path d="M169.32 285.968C169.686 278.933 170.247 263.994 169.563 260.517C166.621 260.256 164.351 259.089 162.582 257.472C154.803 259.77 147.008 261.577 139.305 262.971C142.582 270.839 152.991 288.035 168.416 293.872C168.764 290.926 169.071 288.228 169.32 285.968Z" fill="#85C8D6"/>
<path d="M69.4744 202.662C67.9227 209.351 65.1377 224.188 66.4117 230.025C67.6856 235.863 80.0102 244.214 86.0133 247.659C89.1914 249.484 95.8141 248.875 100.102 246.443C110.574 241.88 116.3 238.434 126.442 231.85C126.646 229.012 127.177 218.229 127.667 202.662C117.376 199.257 84.584 201.244 69.4744 202.662Z" fill="#D3F1F7"/>
<path d="M19.4796 135.167C9.39985 178.522 20.4603 211.082 29.0328 225.161C35.5711 208.242 50.3628 173.035 57.2234 167.555C36.6888 160.696 25.2451 148.127 19.4796 135.167Z" fill="#DB867D"/>
<path d="M69.4744 170.723C65.0702 169.882 60.9936 168.815 57.2234 167.555C50.3628 173.035 35.5711 208.242 29.0328 225.161C30.2623 226.967 34.3139 230.645 40.6845 230.91C45.3172 213.202 53.8202 193.771 68.0041 172.866C68.4875 172.154 68.9776 171.439 69.4744 170.723Z" fill="#85C8D6"/>
<path d="M97.6518 172.866C87.0302 173.077 77.6833 172.292 69.4744 170.723C68.9776 171.439 68.4875 172.154 68.0041 172.866C71.5569 177.528 79.6428 187.096 83.5631 188.069C87.9735 188.069 96.4267 177.896 100.102 172.81C99.2934 172.831 98.4767 172.85 97.6518 172.866Z" fill="#23A878"/>
<path d="M100.102 172.81C102.756 178.302 108.923 189.528 112.353 190.501C115.293 191.96 117.866 189.285 119.091 188.069C125.365 181.648 128.906 177.408 135.227 169.827C125.578 171.42 114.04 172.45 100.102 172.81Z" fill="#23A878"/>
<path d="M14.9574 104.763C18.2243 76.7915 37.1317 20.9709 86.6259 21.4574C80.7455 12.2151 72.3331 11.9314 68.8619 12.9448C72.9456 10.9179 85.8909 8.68833 105.003 15.9851C105.003 11.6074 97.2435 4.83765 93.364 2C104.186 3.0129 133.968 5.26758 157.069 21.4574C167.483 28.755 172.347 33.3192 178.461 42.7405M14.9574 104.763C1.27708 151.035 -13.71 246.968 35.7842 260.517C35.9032 260.55 36.0235 260.582 36.1449 260.615M14.9574 104.763C13.7952 113.054 14.6225 124.249 19.4796 135.167M178.461 42.7405C181.876 49.0796 185.505 56.1716 189.196 63.8104M178.461 42.7405C182.601 49.1206 186.218 56.315 189.196 63.8104M139.305 181.988L141.353 190.501M197.845 116.925C197.139 121.709 196.885 123.005 192.597 131.518C188.309 140.031 178.38 156.271 156.743 164.354M197.845 116.925C206.918 151.179 216.487 223.337 182.184 237.93M197.845 116.925C199.976 102.488 196.518 82.2397 189.196 63.8104M182.184 237.93C181.503 234.327 180.585 230.436 179.494 226.377M182.184 237.93C182.725 240.213 183.136 243.293 183.034 246.443M156.743 164.354C162.361 176.867 173.517 204.136 179.494 226.377M156.743 164.354C145.211 177.975 141.678 187.461 141.353 190.501M156.743 164.354C150.814 166.569 143.76 168.418 135.227 169.827M156.743 246.443L152.925 234.586M156.743 246.443C93.7571 258.118 50.8323 252.524 37.2431 248.267M156.743 246.443C157.65 249.643 159.199 254.38 162.582 257.472M152.925 234.586L149.106 222.729L141.353 190.501M152.925 234.586C159.66 233.674 174.402 230.755 179.494 226.377M183.034 246.443C182.998 247.567 182.897 248.699 182.712 249.808C181.854 254.975 179.201 259.625 172.996 260.429C171.76 260.589 170.618 260.611 169.563 260.517M183.034 246.443C186.426 245.295 193.945 244.499 196.885 250.498M196.885 250.498C200.173 250.247 203.643 249.721 207.299 248.875C254.516 227.61 219.733 127.003 189.196 63.8104M196.885 250.498C198.11 252.997 198.723 258.24 191.372 259.213C207.299 261.037 203.011 285.968 180.346 280.495C179.665 289.251 172.712 287.792 169.32 285.968M169.32 285.968C169.686 278.933 170.247 263.994 169.563 260.517M169.32 285.968C169.071 288.228 168.764 290.926 168.416 293.872M162.582 332.181C155.232 334.816 133.915 338.383 117.254 334.005M162.582 332.181C165.033 329.749 168.708 343.126 162.582 346.774C162.135 347.041 161.514 347.276 160.745 347.482M162.582 332.181C164.201 327.36 166.766 307.835 168.416 293.872M169.563 260.517C166.621 260.256 164.351 259.089 162.582 257.472M117.254 334.005C114.803 339.842 117.866 345.761 119.704 347.991C121.331 348.098 123.195 348.207 125.217 348.309M117.254 334.005C115.212 325.492 109.78 306.764 104.39 299.953C102.189 299.797 99.6348 299.261 97.0392 298.539M125.217 348.309C126.442 352.459 129.382 360.76 131.342 360.76C133.792 360.76 163.195 361.976 165.033 358.328C165.033 355.409 162.174 354.679 160.745 354.679V347.482M125.217 348.309C137.03 348.901 154.213 349.231 160.745 347.482M19.4796 135.167C9.39985 178.522 20.4603 211.082 29.0328 225.161M19.4796 135.167C25.2451 148.127 36.6888 160.696 57.2234 167.555M51.7446 339.087C48.3072 330.804 42.4634 313.857 38.1754 290.224M51.7446 339.087C57.1921 341.04 72.9899 343.684 85.3375 340.439M51.7446 339.087C49.9288 337.285 47.2051 347.198 51.7446 349.902C52.0763 350.1 52.5367 350.274 53.1065 350.426M69.4744 170.723C77.6833 172.292 87.0302 173.077 97.6518 172.866C98.4767 172.85 99.2934 172.831 100.102 172.81M69.4744 170.723C65.0702 169.882 60.9936 168.815 57.2234 167.555M69.4744 170.723C68.9776 171.439 68.4876 172.154 68.0041 172.866M37.2431 248.267C29.3973 250.902 16.7712 249.97 29.0328 225.161M37.2431 248.267C37.9946 242.685 39.1184 236.896 40.6845 230.91M37.2431 248.267C36.6729 252.504 36.317 256.621 36.1449 260.615M29.0328 225.161C35.5711 208.242 50.3628 173.035 57.2234 167.555M29.0328 225.161C30.2623 226.967 34.3139 230.645 40.6845 230.91M40.6845 230.91C45.3172 213.202 53.8202 193.771 68.0041 172.866M68.0041 172.866C71.5569 177.528 79.6428 187.096 83.5631 188.069C87.9735 188.069 96.4267 177.896 100.102 172.81M100.102 172.81C102.756 178.302 108.923 189.528 112.353 190.501C115.293 191.96 117.866 189.285 119.091 188.069C125.365 181.648 128.906 177.408 135.227 169.827M100.102 172.81C114.04 172.45 125.578 171.42 135.227 169.827M162.582 257.472C154.803 259.77 147.008 261.577 139.305 262.971M54.7732 264.29C52.2881 271.111 45.4895 285.846 38.1754 290.224M54.7732 264.29C75.8223 267.356 106.735 268.862 139.305 262.971M54.7732 264.29C47.1337 263.178 40.7935 261.859 36.1449 260.615M38.1754 290.224C36.5578 281.309 35.6798 271.412 36.1449 260.615M139.305 262.971C142.582 270.839 152.991 288.035 168.416 293.872M82.9505 293.264C85.8628 294.641 91.5442 297.009 97.0392 298.539M97.0392 298.539C92.9556 309.955 85.3375 335.088 85.3375 340.439M85.3375 340.439C87.1534 344.765 84.8836 349.151 83.5217 350.804C82.3161 350.883 80.9344 350.964 79.4361 351.039M79.4361 351.039C78.5282 354.115 76.3492 360.267 74.8965 360.267C73.0807 360.267 51.2907 361.168 49.9288 358.464C49.9288 356.301 52.0473 355.761 53.1065 355.761V350.426M79.4361 351.039C70.6816 351.478 57.9471 351.723 53.1065 350.426M69.4744 202.662C67.9227 209.351 65.1377 224.188 66.4117 230.025C67.6856 235.863 80.0102 244.214 86.0133 247.659C89.1914 249.484 95.8141 248.875 100.102 246.443C110.574 241.88 116.3 238.434 126.442 231.85C126.646 229.012 127.177 218.229 127.667 202.662C117.376 199.257 84.584 201.244 69.4744 202.662Z" stroke="#503C3C" stroke-width="2.00902" stroke-linecap="round"/>
<path d="M83.7687 233.687C83.3296 238.246 85.4736 237.251 87.4441 236.119C93.3334 232.735 102.281 225.94 101.966 220.31C101.865 218.522 100.832 216.852 98.47 215.445C96.2757 214.138 94.368 213.904 92.7193 214.424C87.0043 216.225 84.4026 227.08 83.7687 233.687Z" fill="#F96B35"/>
<path d="M92.7193 214.424C94.368 213.904 96.2757 214.138 98.47 215.445C100.832 216.852 101.865 218.522 101.966 220.31C105.819 222.134 108.881 216.062 104.594 213.022C109.494 209.375 99.0807 202.686 97.8556 208.766C91.73 205.117 89.2798 213.013 92.7193 214.424Z" fill="#5FBE50"/>
<path d="M92.7193 214.424C87.0043 216.225 84.4026 227.08 83.7687 233.687C83.3296 238.246 85.4736 237.251 87.4441 236.119C93.3334 232.735 102.281 225.94 101.966 220.31M92.7193 214.424C94.368 213.904 96.2757 214.138 98.47 215.445C100.832 216.852 101.865 218.522 101.966 220.31M92.7193 214.424C89.2798 213.013 91.73 205.117 97.8556 208.766C99.0807 202.686 109.494 209.375 104.594 213.022C108.881 216.062 105.819 222.134 101.966 220.31" stroke="#503C3C" stroke-width="2.00902"/>
<path d="M74.9997 181.122C74.523 180.469 73.5071 180.579 73.2417 181.343C72.1375 184.524 70.5491 190.056 70.2753 194.197C70.2347 194.811 70.7749 195.282 71.3854 195.2C86.2344 193.201 117.388 194.141 126.529 195.213C127.141 195.285 127.672 194.811 127.701 194.196C127.912 189.729 129.275 184.795 130.872 180.491C131.295 179.351 129.185 178.004 128.38 178.915C122.908 185.108 119.07 188.835 114.951 191.109C111.121 192.625 103.312 174.083 99.0243 174.691C94.7364 175.299 86.7733 188.069 83.098 188.069C80.4295 188.069 76.7922 183.581 74.9997 181.122Z" fill="#23A878" stroke="#503C3C" stroke-width="2.00902"/>
<path d="M80.0361 341.306C84.0924 315.305 85.3197 303.342 82.4864 294.484C84.649 295.513 86.6136 296.237 89.3674 297.221C92.6436 298.391 95.3499 299.349 95.3499 299.349C94.0848 302.785 82.4932 340.247 84.324 340.089C85.5175 344.514 83.8929 347.793 83.0989 349.819H77.5859C79.5461 347.873 80.0361 343.941 80.0361 341.306Z" fill="#2A5375" fill-opacity="0.5"/>
<path d="M140.678 191.113C143.252 216.255 148.028 263.473 160.279 256.177C154.305 251.244 143.681 210.127 140.678 191.113Z" fill="#2A5375" fill-opacity="0.5"/>
<path d="M29.2267 246.939C30.4843 250.499 35.5124 248.67 36.5438 247.659C39.5333 220.319 58.2886 185.612 67.8389 171.372C64.7212 171.042 66.5588 171.475 64.7212 170.867C56.0193 180.003 27.4733 236.306 29.1915 246.804C29.1993 246.852 29.2106 246.893 29.2267 246.939Z" fill="#775959" fill-opacity="0.5"/>
<path d="M99.6363 172.869C70.0297 175.099 11.7964 164.599 15.7167 104.766C17.9746 120.764 36.4324 163.873 99.6363 172.869Z" fill="#503C3C" fill-opacity="0.3"/>
<path d="M48.7945 179.555C15.9618 170.799 10.2036 134.356 14.4915 110.844C12.5313 144.896 41.0354 162.732 55.5324 167.394C51.2447 174.691 52.4698 172.259 48.7945 179.555Z" fill="#503C3C" fill-opacity="0.3" stroke="#503C3C" stroke-opacity="0.3" stroke-width="2.00902"/>
<path d="M199.484 104.766C201.444 138.817 170.49 159.694 155.993 164.356C165.38 183.861 182.027 228.921 184.17 245.837C187.233 243.405 183.558 188.679 174.369 172.261C198.475 147.572 201.323 115.601 199.484 104.766Z" fill="#503C3C" fill-opacity="0.3" stroke="#503C3C" stroke-opacity="0.3" stroke-width="2.00902"/>
<path d="M87.3865 22.065C85.4264 16.714 78.8108 13.3494 75.748 12.3359C84.5688 12.8224 94.9413 20.2408 98.4125 23.8892C97.7999 23.2812 93.7571 22.065 87.3865 22.065Z" fill="#503C3C" fill-opacity="0.3" stroke="#503C3C" stroke-opacity="0.3" stroke-width="2.00902"/>
<path d="M106.376 17.2004C104.416 11.8494 97.8001 4.22829 94.7373 3.21484C103.558 3.7013 116.381 18.4165 119.852 22.0649C119.239 21.4569 113.114 19.0246 106.376 17.2004Z" fill="#503C3C" fill-opacity="0.3" stroke="#503C3C" stroke-opacity="0.3" stroke-width="2.00902"/>
<path d="M82.4855 192.934C75.6249 192.448 60.4337 161.315 68.3968 174.084C76.36 186.854 81.9052 189.864 83.7106 189.286C88.8975 187.888 95.978 175.93 99.0244 175.908C102.071 175.886 109.684 192.326 114.951 192.326C120.218 192.326 129.039 178.341 135.778 171.044C118.626 200.231 114.951 194.15 111.888 194.15C108.825 194.15 103.925 185.637 99.0244 178.341C89.2236 187.462 89.3461 193.421 82.4855 192.934Z" fill="#503C3C" fill-opacity="0.3" stroke="#503C3C" stroke-opacity="0.3" stroke-width="2.00902"/>
<path d="M73.2137 90.7178C70.2135 100.342 64.672 107.189 56.0778 104.55C48.0341 102.079 46.8065 93.1522 49.8067 83.5277C52.8069 73.9032 57.8348 67.059 67.0228 68.8824C74.9862 71.3157 76.2139 81.0933 73.2137 90.7178Z" fill="black"/>
<path d="M133.859 86.6656C133.145 96.7154 135.812 105.09 144.786 105.719C153.185 106.307 157.586 98.4281 158.301 88.3784C159.015 78.3286 156.826 70.1415 147.596 68.538C139.285 67.9433 134.574 76.6158 133.859 86.6656Z" fill="black"/>
<path d="M40.6826 70.1015C42.1119 62.1966 49.9934 48.3326 70.0851 56.1159" stroke="black" stroke-width="2.00902" stroke-linecap="round"/>
<path d="M165.082 71.5049C164.171 63.5248 157.209 49.1839 136.652 55.6609" stroke="black" stroke-width="2.00902" stroke-linecap="round"/>
<mask id="path-19-inside-1_1520_4215" fill="white">
<ellipse cx="35.7827" cy="105.372" rx="1.2251" ry="1.21614"/>
</mask>
<ellipse cx="35.7827" cy="105.372" rx="1.2251" ry="1.21614" fill="black"/>
<path d="M37.0078 105.372H34.9988C34.9988 104.921 35.3637 104.58 35.7827 104.58V106.589V108.598C37.5549 108.598 39.0168 107.167 39.0168 105.372H37.0078ZM35.7827 106.589V104.58C36.2017 104.58 36.5666 104.921 36.5666 105.372H34.5576H32.5486C32.5486 107.167 34.0105 108.598 35.7827 108.598V106.589ZM34.5576 105.372H36.5666C36.5666 105.824 36.2017 106.165 35.7827 106.165V104.156V102.147C34.0105 102.147 32.5486 103.577 32.5486 105.372H34.5576ZM35.7827 104.156V106.165C35.3637 106.165 34.9988 105.824 34.9988 105.372H37.0078H39.0168C39.0168 103.577 37.5549 102.147 35.7827 102.147V104.156Z" fill="#503C3C" mask="url(#path-19-inside-1_1520_4215)"/>
<mask id="path-21-inside-2_1520_4215" fill="white">
<ellipse cx="1.2251" cy="1.21614" rx="1.2251" ry="1.21614" transform="matrix(-1 0 0 1 166.867 107.805)"/>
</mask>
<ellipse cx="1.2251" cy="1.21614" rx="1.2251" ry="1.21614" transform="matrix(-1 0 0 1 166.867 107.805)" fill="black"/>
<path d="M164.417 109.021H166.426C166.426 108.569 166.061 108.228 165.642 108.228V110.237V112.246C163.87 112.246 162.408 110.816 162.408 109.021H164.417ZM165.642 110.237V108.228C165.223 108.228 164.858 108.569 164.858 109.021H166.867H168.876C168.876 110.816 167.414 112.246 165.642 112.246V110.237ZM166.867 109.021H164.858C164.858 109.473 165.223 109.814 165.642 109.814V107.805V105.796C167.414 105.796 168.876 107.226 168.876 109.021H166.867ZM165.642 107.805V109.814C166.061 109.814 166.426 109.473 166.426 109.021H164.417H162.408C162.408 107.226 163.87 105.796 165.642 105.796V107.805Z" fill="#503C3C" mask="url(#path-21-inside-2_1520_4215)"/>
<mask id="path-23-inside-3_1520_4215" fill="white">
<ellipse cx="38.2329" cy="117.533" rx="1.2251" ry="1.21614"/>
</mask>
<ellipse cx="38.2329" cy="117.533" rx="1.2251" ry="1.21614" fill="black"/>
<path d="M39.458 117.533H37.449C37.449 117.081 37.8139 116.74 38.2329 116.74V118.749V120.758C40.0051 120.758 41.467 119.328 41.467 117.533H39.458ZM38.2329 118.749V116.74C38.6519 116.74 39.0168 117.081 39.0168 117.533H37.0078H34.9988C34.9988 119.328 36.4607 120.758 38.2329 120.758V118.749ZM37.0078 117.533H39.0168C39.0168 117.984 38.6519 118.325 38.2329 118.325V116.316V114.307C36.4607 114.307 34.9988 115.737 34.9988 117.533H37.0078ZM38.2329 116.316V118.325C37.8139 118.325 37.449 117.984 37.449 117.533H39.458H41.467C41.467 115.737 40.0051 114.307 38.2329 114.307V116.316Z" fill="#503C3C" mask="url(#path-23-inside-3_1520_4215)"/>
<mask id="path-25-inside-4_1520_4215" fill="white">
<ellipse cx="1.2251" cy="1.21614" rx="1.2251" ry="1.21614" transform="matrix(-1 0 0 1 164.418 119.965)"/>
</mask>
<ellipse cx="1.2251" cy="1.21614" rx="1.2251" ry="1.21614" transform="matrix(-1 0 0 1 164.418 119.965)" fill="black"/>
<path d="M161.968 121.181H163.977C163.977 120.729 163.612 120.388 163.193 120.388V122.397V124.406C161.421 124.406 159.959 122.976 159.959 121.181H161.968ZM163.193 122.397V120.388C162.774 120.388 162.409 120.729 162.409 121.181H164.418H166.427C166.427 122.976 164.965 124.406 163.193 124.406V122.397ZM164.418 121.181H162.409C162.409 121.633 162.774 121.974 163.193 121.974V119.965V117.956C164.965 117.956 166.427 119.386 166.427 121.181H164.418ZM163.193 119.965V121.974C163.612 121.974 163.977 121.633 163.977 121.181H161.968H159.959C159.959 119.386 161.421 117.956 163.193 117.956V119.965Z" fill="#503C3C" mask="url(#path-25-inside-4_1520_4215)"/>
<mask id="path-27-inside-5_1520_4215" fill="white">
<ellipse cx="46.8091" cy="106.583" rx="1.2251" ry="1.21614"/>
</mask>
<ellipse cx="46.8091" cy="106.583" rx="1.2251" ry="1.21614" fill="black"/>
<path d="M48.0342 106.583H46.0252C46.0252 106.132 46.3901 105.79 46.8091 105.79V107.799V109.808C48.5813 109.808 50.0432 108.378 50.0432 106.583H48.0342ZM46.8091 107.799V105.79C47.2281 105.79 47.593 106.132 47.593 106.583H45.584H43.575C43.575 108.378 45.0369 109.808 46.8091 109.808V107.799ZM45.584 106.583H47.593C47.593 107.035 47.2281 107.376 46.8091 107.376V105.367V103.358C45.0369 103.358 43.575 104.788 43.575 106.583H45.584ZM46.8091 105.367V107.376C46.3901 107.376 46.0252 107.035 46.0252 106.583H48.0342H50.0432C50.0432 104.788 48.5813 103.358 46.8091 103.358V105.367Z" fill="#503C3C" mask="url(#path-27-inside-5_1520_4215)"/>
<mask id="path-29-inside-6_1520_4215" fill="white">
<ellipse cx="1.2251" cy="1.21614" rx="1.2251" ry="1.21614" transform="matrix(-1 0 0 1 155.842 109.016)"/>
</mask>
<ellipse cx="1.2251" cy="1.21614" rx="1.2251" ry="1.21614" transform="matrix(-1 0 0 1 155.842 109.016)" fill="black"/>
<path d="M153.392 110.232H155.401C155.401 109.78 155.036 109.439 154.617 109.439V111.448V113.457C152.844 113.457 151.383 112.027 151.383 110.232H153.392ZM154.617 111.448V109.439C154.198 109.439 153.833 109.78 153.833 110.232H155.842H157.851C157.851 112.027 156.389 113.457 154.617 113.457V111.448ZM155.842 110.232H153.833C153.833 110.684 154.198 111.025 154.617 111.025V109.016V107.007C156.389 107.007 157.851 108.437 157.851 110.232H155.842ZM154.617 109.016V111.025C155.036 111.025 155.401 110.684 155.401 110.232H153.392H151.383C151.383 108.437 152.844 107.007 154.617 107.007V109.016Z" fill="#503C3C" mask="url(#path-29-inside-6_1520_4215)"/>
<path d="M83.6372 99.0388C82.9769 99.4321 81.6562 100.835 81.6562 103.299C81.6562 105.764 90.5924 113.328 95.0605 116.802L110.644 105.004C111.524 103.846 112.757 101.202 110.644 99.891C108.003 98.2523 93.938 93.9917 83.6372 99.0388Z" fill="#DB867D"/>
<path d="M95.2004 116.926C90.3 113.48 80.7442 105.737 81.7243 102.332M95.2004 116.926L110.514 104.764M95.2004 116.926V123.614M95.2004 123.614L90.9126 128.479M95.2004 123.614L100.101 128.479" stroke="black" stroke-width="2.00902" stroke-linecap="round"/>
<path d="M83.5625 98.6799C87.6462 96.8557 98.7538 94.545 110.515 99.896" stroke="black" stroke-width="2.00902" stroke-linecap="round"/>
</svg>
