<svg width="600" height="253" viewBox="0 0 600 253" fill="none" xmlns="http://www.w3.org/2000/svg">
<g clip-path="url(#clip0_813_1365)">
<mask id="path-1-inside-1_813_1365" fill="white">
<path fill-rule="evenodd" clip-rule="evenodd" d="M555.89 0L560.419 10.885L564.947 0H596C598.209 0 600 1.79086 600 4V248.465C600 250.674 598.209 252.465 596 252.465H221.872L218.15 243.76L214.429 252.465H211.879L209.064 245.697L206.248 252.465H72.2243L69.6354 246.661L67.0464 252.465H64.6501L60.9535 243.759L57.2569 252.465H4C1.79086 252.465 0 250.674 0 248.465V4C0 1.79086 1.79086 0 4 0H331.061L335.589 10.885L340.118 0H340.906L344.274 7.74102L347.642 0H547.378L550.367 6.7735L553.356 0H555.89Z"/>
</mask>
<path fill-rule="evenodd" clip-rule="evenodd" d="M555.89 0L560.419 10.885L564.947 0H596C598.209 0 600 1.79086 600 4V248.465C600 250.674 598.209 252.465 596 252.465H221.872L218.15 243.76L214.429 252.465H211.879L209.064 245.697L206.248 252.465H72.2243L69.6354 246.661L67.0464 252.465H64.6501L60.9535 243.759L57.2569 252.465H4C1.79086 252.465 0 250.674 0 248.465V4C0 1.79086 1.79086 0 4 0H331.061L335.589 10.885L340.118 0H340.906L344.274 7.74102L347.642 0H547.378L550.367 6.7735L553.356 0H555.89Z" fill="#FBC25C"/>
<path d="M555.89 0L557.353 -0.608612L556.947 -1.58451H555.89V0ZM560.419 10.885L558.956 11.4936L560.419 15.0102L561.881 11.4936L560.419 10.885ZM564.947 0V-1.58451H563.89L563.484 -0.608612L564.947 0ZM221.872 252.465L220.415 253.088L220.826 254.049H221.872V252.465ZM218.15 243.76L219.607 243.137L218.15 239.729L216.693 243.137L218.15 243.76ZM214.429 252.465V254.049H215.474L215.886 253.088L214.429 252.465ZM211.879 252.465L210.416 253.073L210.822 254.049H211.879V252.465ZM209.064 245.697L210.526 245.088L209.064 241.571L207.601 245.088L209.064 245.697ZM206.248 252.465V254.049H207.305L207.711 253.073L206.248 252.465ZM72.2243 252.465L70.7773 253.11L71.1961 254.049H72.2243V252.465ZM69.6354 246.661L71.0825 246.015L69.6354 242.771L68.1883 246.015L69.6354 246.661ZM67.0464 252.465V254.049H68.0747L68.4935 253.11L67.0464 252.465ZM64.6501 252.465L63.1916 253.084L63.6014 254.049H64.6501V252.465ZM60.9535 243.759L62.412 243.139L60.9535 239.704L59.495 243.139L60.9535 243.759ZM57.2569 252.465V254.049H58.3055L58.7154 253.084L57.2569 252.465ZM331.061 0L332.524 -0.608612L332.118 -1.58451H331.061V0ZM335.589 10.885L334.126 11.4936L335.589 15.0102L337.052 11.4936L335.589 10.885ZM340.118 0V-1.58451H339.061L338.655 -0.608612L340.118 0ZM340.906 0L342.359 -0.632117L341.945 -1.58451H340.906V0ZM344.274 7.74102L342.821 8.37313L344.274 11.7128L345.727 8.37313L344.274 7.74102ZM347.642 0V-1.58451H346.603L346.189 -0.632117L347.642 0ZM547.378 0L548.827 -0.639686L548.411 -1.58451H547.378V0ZM550.367 6.7735L548.917 7.41319L550.367 10.6983L551.816 7.41319L550.367 6.7735ZM553.356 0V-1.58451H552.323L551.906 -0.639686L553.356 0ZM554.427 0.608612L558.956 11.4936L561.881 10.2764L557.353 -0.608612L554.427 0.608612ZM561.881 11.4936L566.41 0.608612L563.484 -0.608612L558.956 10.2764L561.881 11.4936ZM564.947 1.58451H596V-1.58451H564.947V1.58451ZM596 1.58451C597.334 1.58451 598.415 2.66595 598.415 4H601.585C601.585 0.915769 599.084 -1.58451 596 -1.58451V1.58451ZM598.415 4V248.465H601.585V4H598.415ZM598.415 248.465C598.415 249.799 597.334 250.88 596 250.88V254.049C599.084 254.049 601.585 251.549 601.585 248.465H598.415ZM596 250.88H221.872V254.049H596V250.88ZM223.329 251.842L219.607 243.137L216.693 244.382L220.415 253.088L223.329 251.842ZM216.693 243.137L212.972 251.842L215.886 253.088L219.607 244.382L216.693 243.137ZM214.429 250.88H211.879V254.049H214.429V250.88ZM213.342 251.856L210.526 245.088L207.601 246.305L210.416 253.073L213.342 251.856ZM207.601 245.088L204.785 251.856L207.711 253.073L210.526 246.305L207.601 245.088ZM206.248 250.88H72.2243V254.049H206.248V250.88ZM73.6714 251.819L71.0825 246.015L68.1883 247.306L70.7773 253.11L73.6714 251.819ZM68.1883 246.015L65.5994 251.819L68.4935 253.11L71.0825 247.306L68.1883 246.015ZM67.0464 250.88H64.6501V254.049H67.0464V250.88ZM66.1086 251.846L62.412 243.139L59.495 244.378L63.1916 253.084L66.1086 251.846ZM59.495 243.139L55.7984 251.846L58.7154 253.084L62.412 244.378L59.495 243.139ZM57.2569 250.88H4V254.049H57.2569V250.88ZM4 250.88C2.66596 250.88 1.58451 249.799 1.58451 248.465H-1.58451C-1.58451 251.549 0.915755 254.049 4 254.049V250.88ZM1.58451 248.465V4H-1.58451V248.465H1.58451ZM1.58451 4C1.58451 2.66596 2.66596 1.58451 4 1.58451V-1.58451C0.91576 -1.58451 -1.58451 0.915768 -1.58451 4H1.58451ZM4 1.58451H331.061V-1.58451H4V1.58451ZM329.598 0.608612L334.126 11.4936L337.052 10.2764L332.524 -0.608612L329.598 0.608612ZM337.052 11.4936L341.581 0.608612L338.655 -0.608612L334.126 10.2764L337.052 11.4936ZM340.118 1.58451H340.906V-1.58451H340.118V1.58451ZM339.453 0.632117L342.821 8.37313L345.727 7.1089L342.359 -0.632117L339.453 0.632117ZM345.727 8.37313L349.095 0.632117L346.189 -0.632117L342.821 7.1089L345.727 8.37313ZM347.642 1.58451H547.378V-1.58451H347.642V1.58451ZM545.928 0.639686L548.917 7.41319L551.816 6.13382L548.827 -0.639686L545.928 0.639686ZM551.816 7.41319L554.805 0.639686L551.906 -0.639686L548.917 6.13382L551.816 7.41319ZM553.356 1.58451H555.89V-1.58451H553.356V1.58451Z" fill="#E0A640" mask="url(#path-1-inside-1_813_1365)"/>
<g style="mix-blend-mode:hard-light" opacity="0.3">
<path d="M0 0H600V253H0V0Z" fill="url(#paint0_radial_813_1365)"/>
<path d="M0 -253H600V0H0V-253Z" fill="url(#paint1_radial_813_1365)"/>
</g>
</g>
<defs>
<radialGradient id="paint0_radial_813_1365" cx="0" cy="0" r="1" gradientUnits="userSpaceOnUse" gradientTransform="translate(300 126.5) rotate(90) scale(126.5 300)">
<stop stop-color="#D9D9D9"/>
<stop offset="1" stop-color="#737373"/>
</radialGradient>
<radialGradient id="paint1_radial_813_1365" cx="0" cy="0" r="1" gradientUnits="userSpaceOnUse" gradientTransform="translate(300 126.5) rotate(90) scale(126.5 300)">
<stop stop-color="#D9D9D9"/>
<stop offset="1" stop-color="#737373"/>
</radialGradient>
<clipPath id="clip0_813_1365">
<rect width="600" height="252.465" fill="white"/>
</clipPath>
</defs>
</svg>
