<svg width="600" height="191" viewBox="0 0 600 191" fill="none" xmlns="http://www.w3.org/2000/svg">
<mask id="path-1-inside-1_890_2034" fill="white">
<path fill-rule="evenodd" clip-rule="evenodd" d="M445.499 0.296875L449.898 5.1856L454.298 0.296875H593.889C597.264 0.296875 600 3.03301 600 6.4082V184.889C600 188.264 597.264 191 593.889 191H241.149L234.845 183.871L228.54 191H228.054L222.97 185.092L217.886 191H45.6503L40.7646 185.704L35.8788 191H35.6797L29.4181 183.87L23.1565 191H6.11132C2.73613 191 0 188.264 0 184.889V6.40821C0 3.03302 2.73613 0.296875 6.11133 0.296875H432.637L438.552 7.17178L444.468 0.296875H445.499Z"/>
</mask>
<path fill-rule="evenodd" clip-rule="evenodd" d="M445.499 0.296875L449.898 5.1856L454.298 0.296875H593.889C597.264 0.296875 600 3.03301 600 6.4082V184.889C600 188.264 597.264 191 593.889 191H241.149L234.845 183.871L228.54 191H228.054L222.97 185.092L217.886 191H45.6503L40.7646 185.704L35.8788 191H35.6797L29.4181 183.87L23.1565 191H6.11132C2.73613 191 0 188.264 0 184.889V6.40821C0 3.03302 2.73613 0.296875 6.11133 0.296875H432.637L438.552 7.17178L444.468 0.296875H445.499Z" fill="#FEEDD5"/>
<path d="M449.898 5.1856L448.536 6.41198L449.898 7.92646L451.261 6.41198L449.898 5.1856ZM445.499 0.296875L446.862 -0.929509L446.316 -1.53652H445.499V0.296875ZM454.298 0.296875V-1.53652H453.481L452.935 -0.929509L454.298 0.296875ZM241.149 191L239.775 192.215L240.323 192.833H241.149V191ZM234.845 183.871L236.218 182.657L234.845 181.103L233.471 182.657L234.845 183.871ZM228.54 191V192.833H229.367L229.914 192.215L228.54 191ZM228.054 191L226.664 192.196L227.212 192.833H228.054V191ZM222.97 185.092L224.36 183.896L222.97 182.281L221.58 183.896L222.97 185.092ZM217.886 191V192.833H218.727L219.276 192.196L217.886 191ZM45.6503 191L44.3028 192.243L44.8473 192.833H45.6503V191ZM40.7646 185.704L42.1121 184.461L40.7646 183.001L39.4171 184.461L40.7646 185.704ZM35.8788 191V192.833H36.6818L37.2263 192.243L35.8788 191ZM35.6797 191L34.3022 192.21L34.8498 192.833H35.6797V191ZM29.4181 183.87L30.7957 182.66L29.4181 181.092L28.0406 182.66L29.4181 183.87ZM23.1565 191V192.833H23.9864L24.5341 192.21L23.1565 191ZM432.637 0.296875L434.026 -0.898959L433.478 -1.53652H432.637V0.296875ZM438.552 7.17178L437.163 8.36761L438.552 9.98266L439.942 8.36761L438.552 7.17178ZM444.468 0.296875V-1.53652H443.627L443.078 -0.898959L444.468 0.296875ZM451.261 3.95921L446.862 -0.929509L444.136 1.52326L448.536 6.41198L451.261 3.95921ZM452.935 -0.929509L448.536 3.95921L451.261 6.41198L455.661 1.52326L452.935 -0.929509ZM593.889 -1.53652H454.298V2.13027H593.889V-1.53652ZM601.833 6.4082C601.833 2.02045 598.276 -1.53652 593.889 -1.53652V2.13027C596.251 2.13027 598.167 4.04557 598.167 6.4082H601.833ZM601.833 184.889V6.4082H598.167V184.889H601.833ZM593.889 192.833C598.276 192.833 601.833 189.276 601.833 184.889H598.167C598.167 187.251 596.251 189.167 593.889 189.167V192.833ZM241.149 192.833H593.889V189.167H241.149V192.833ZM233.471 185.086L239.775 192.215L242.522 189.785L236.218 182.657L233.471 185.086ZM229.914 192.215L236.218 185.086L233.471 182.657L227.167 189.785L229.914 192.215ZM228.054 192.833H228.54V189.167H228.054V192.833ZM229.443 189.804L224.36 183.896L221.58 186.288L226.664 192.196L229.443 189.804ZM221.58 183.896L216.497 189.804L219.276 192.196L224.36 186.288L221.58 183.896ZM45.6503 192.833H217.886V189.167H45.6503V192.833ZM39.4171 186.948L44.3028 192.243L46.9978 189.757L42.1121 184.461L39.4171 186.948ZM37.2263 192.243L42.1121 186.948L39.4171 184.461L34.5313 189.757L37.2263 192.243ZM35.6797 192.833H35.8788V189.167H35.6797V192.833ZM28.0406 185.08L34.3022 192.21L37.0573 189.79L30.7957 182.66L28.0406 185.08ZM24.5341 192.21L30.7957 185.08L28.0406 182.66L21.779 189.79L24.5341 192.21ZM6.11132 192.833H23.1565V189.167H6.11132V192.833ZM-1.8334 184.889C-1.8334 189.276 1.72357 192.833 6.11132 192.833V189.167C3.74869 189.167 1.8334 187.251 1.8334 184.889H-1.8334ZM-1.8334 6.40821V184.889H1.8334V6.40821H-1.8334ZM6.11133 -1.53652C1.72357 -1.53652 -1.8334 2.02046 -1.8334 6.40821H1.8334C1.8334 4.04557 3.74869 2.13027 6.11133 2.13027V-1.53652ZM432.637 -1.53652H6.11133V2.13027H432.637V-1.53652ZM439.942 5.97594L434.026 -0.898959L431.247 1.49271L437.163 8.36761L439.942 5.97594ZM443.078 -0.898959L437.163 5.97594L439.942 8.36761L445.858 1.49271L443.078 -0.898959ZM445.499 -1.53652H444.468V2.13027H445.499V-1.53652Z" fill="#CDAB94" mask="url(#path-1-inside-1_890_2034)"/>
<rect x="19.123" y="11.2986" width="561.375" height="168.811" stroke="#D1AF98" stroke-width="1.22227"/>
<ellipse cx="10.7489" cy="22.5885" rx="2.0618" ry="2.11001" fill="#D1AF98"/>
<ellipse cx="10.7489" cy="28.9186" rx="2.0618" ry="2.11001" fill="#D1AF98"/>
<ellipse cx="7.65629" cy="25.7545" rx="2.0618" ry="2.11001" fill="#D1AF98"/>
<ellipse cx="13.8418" cy="25.7545" rx="2.0618" ry="2.11001" fill="#D1AF98"/>
<ellipse cx="10.7489" cy="162.378" rx="2.0618" ry="2.11001" fill="#D1AF98"/>
<ellipse cx="10.7489" cy="168.708" rx="2.0618" ry="2.11001" fill="#D1AF98"/>
<ellipse cx="7.65629" cy="165.544" rx="2.0618" ry="2.11001" fill="#D1AF98"/>
<ellipse cx="13.8418" cy="165.544" rx="2.0618" ry="2.11001" fill="#D1AF98"/>
<path d="M10.7492 33.9238V157.373" stroke="#D1AF98" stroke-width="1.22227"/>
<path fill-rule="evenodd" clip-rule="evenodd" d="M125.359 24.7353C123.833 24.8977 122.157 25.5083 120.878 26.3682C118.308 28.0961 116.71 30.7924 116.42 33.893C116.387 34.2398 116.368 36.7441 116.368 40.5616L116.368 46.675L115.968 46.5589C114.365 46.0934 112.505 46.2331 111.095 46.9248C109.178 47.8651 107.735 49.8474 107.222 52.2443C107.085 52.8886 107.104 54.15 107.272 55.4992C107.72 59.0957 107.773 63.0656 107.402 65.3099C107.261 66.1636 106.997 67.1042 106.315 69.1797C104.215 75.5677 102.263 80.3982 99.2042 86.7726C98.1067 89.0597 93.9804 97.1831 90.1396 104.618C87.0805 110.54 87.0731 110.556 86.7983 112.064C86.4678 113.877 86.37 115.257 86.3134 118.904C86.2544 122.709 86.1916 123.553 85.8617 124.974C85.7506 125.453 85.5001 126.725 85.305 127.801C84.7527 130.848 84.3771 132.381 83.7312 134.227C82.3232 138.249 80.4537 141.743 77.7631 145.381C77.4862 145.755 77.2672 146.069 77.2765 146.079C77.3501 146.152 79.3481 147.704 79.3695 147.704C79.4571 147.704 80.6428 146.091 81.48 144.833C82.5368 143.246 83.1544 142.163 84.1915 140.081C86.198 136.054 87.5973 131.621 88.4238 126.676C88.8391 124.191 88.9657 122.543 89.0086 119.061C89.0393 116.574 89.0959 115.234 89.2145 114.184C89.3309 113.154 89.5214 112.085 89.6663 111.647C89.8371 111.132 90.4556 109.886 92.6427 105.653C97.3685 96.5051 101.028 89.2707 102.269 86.6211C105.03 80.7277 106.728 76.4831 108.743 70.4418C110.128 66.288 110.325 65.1702 110.326 61.4813C110.326 59.1842 110.217 57.3629 109.943 55.0953C109.769 53.6572 109.79 52.8867 110.02 52.1955C110.758 49.983 112.429 48.7722 114.417 49.0101C116.485 49.2575 117.862 50.4262 119.537 53.3537C120.044 54.2398 121.281 56.7348 121.601 57.5184C123.355 61.8053 124.259 66.8007 124.154 71.6281C124.111 73.6213 123.956 75.026 123.563 77.0044C123.043 79.6178 122.356 81.8215 120.596 86.5202C117.665 94.3466 116.75 97.845 116.419 102.497C116.346 103.522 116.347 132.465 116.42 133.245C116.599 135.157 117.295 136.961 118.441 138.482C118.842 139.014 119.8 139.974 120.333 140.378C121.837 141.517 123.562 142.201 125.44 142.402C125.764 142.436 130.424 142.454 139.301 142.454C151.885 142.454 152.672 142.459 152.641 142.54C152.566 142.736 151.586 144.318 150.927 145.306C149.068 148.093 147.616 149.888 145.49 152.023C143.003 154.523 141.096 156.031 136.573 159.078C132.702 161.686 130.728 162.875 128.223 164.109C126.125 165.142 124.532 165.788 121.83 166.703C118.993 167.662 118.265 167.949 116.871 168.656C114.939 169.636 112.918 171.007 111.082 172.583C110.351 173.21 108.414 175.111 108.414 175.201C108.414 175.231 108.759 175.571 109.181 175.956C109.603 176.34 110.042 176.741 110.157 176.845L110.365 177.036L111.063 176.322C113.29 174.047 115.689 172.273 118.306 170.964C119.36 170.437 120.04 170.17 122.207 169.436C125.115 168.449 126.392 167.954 128.374 167.041C131.263 165.71 133.501 164.393 138.001 161.374C142.657 158.25 144.796 156.56 147.405 153.942C149.096 152.245 150.016 151.177 151.495 149.193C152.894 147.316 154.403 144.981 155.393 143.161L155.764 142.479L162.356 142.451C168.829 142.423 168.959 142.42 169.502 142.314C170.333 142.152 171.066 141.93 171.754 141.633C175.014 140.225 177.299 137.202 177.758 133.687C177.805 133.329 177.834 132.699 177.834 132.029V130.949L177.997 130.923C178.087 130.909 178.351 130.873 178.584 130.841C179.359 130.738 180.363 130.388 181.08 129.973C181.531 129.711 184.873 127.303 185.425 126.842C187.183 125.372 188.181 122.895 187.952 120.57C187.771 118.73 187.014 117.16 185.694 115.89C184.673 114.907 183.303 114.194 182.009 113.971C181.817 113.938 181.659 113.898 181.659 113.882C181.659 113.866 182.662 113.128 183.887 112.243C185.898 110.791 186.176 110.573 186.747 109.999C188.407 108.331 189.24 106.18 189.146 103.811C188.995 100.044 186.459 96.9625 182.723 96.0093L182.504 95.9532L182.9 95.6639C183.117 95.5048 183.663 95.1079 184.112 94.7819C184.562 94.4559 185.124 94.0041 185.363 93.7779C186.489 92.7089 187.302 91.2101 187.657 89.5491C187.753 89.1001 187.771 88.8607 187.773 87.9841C187.775 87.1004 187.758 86.8658 187.66 86.3774C186.96 82.8995 184.281 80.2406 180.855 79.6244C180.014 79.4732 178.613 79.4801 177.947 79.6387L177.834 79.6656V78.8839C177.834 78.318 177.851 78.0887 177.896 78.0535C177.931 78.0267 178.209 77.9067 178.513 77.7868C179.432 77.425 181.765 76.4158 182.943 75.8708C185.618 74.6335 187.334 73.6224 189.185 72.1932C190.521 71.1627 191.218 70.518 191.736 69.836C193.314 67.7554 193.767 64.9306 193.008 61.89C192.819 61.1341 192.619 60.6722 192.2 60.026C190.997 58.1696 189.033 56.8436 186.709 56.3197C186.28 56.2229 186.066 56.2082 185.083 56.2076C183.849 56.207 183.669 56.2294 182.213 56.5659C181.096 56.8241 180.015 57.1455 178.913 57.5473C178.386 57.7397 177.927 57.8971 177.894 57.8971C177.847 57.8971 177.834 55.2128 177.834 45.9607C177.834 32.8913 177.847 33.5203 177.538 32.2955C177.254 31.1719 176.8 30.1475 176.166 29.1982C174.583 26.8266 172.288 25.3388 169.376 24.7957C168.924 24.7114 167.719 24.7061 147.327 24.6997C135.463 24.6961 125.577 24.712 125.359 24.7353ZM153.481 28.8916C153.915 29.0468 154.168 29.374 154.213 29.836C154.255 30.2767 154.003 30.7105 153.595 30.8962C153.403 30.9835 153.078 30.9882 147.096 30.9892L140.799 30.9903L140.577 30.8729C140.15 30.6469 139.946 30.154 140.05 29.5986C140.097 29.351 140.49 28.9543 140.761 28.8826C140.893 28.8476 143.021 28.829 147.126 28.827C152.156 28.8246 153.327 28.8365 153.481 28.8916ZM172.456 33.6709C173.153 33.9429 173.613 34.3524 173.925 34.9784C174.022 35.1716 174.123 35.4769 174.155 35.669C174.196 35.9215 174.208 42.0645 174.198 58.7298L174.184 81.4464L171.868 83.1242C167.032 86.6279 166.954 86.6866 166.485 87.1512C165.303 88.3225 164.521 89.8453 164.234 91.5355C164.082 92.4328 164.117 93.8098 164.314 94.673C164.7 96.3653 165.486 97.7709 166.715 98.9686C167.794 100.02 169.031 100.715 170.524 101.108L170.74 101.165L168.41 102.85C165.828 104.717 165.275 105.188 164.598 106.092C163.975 106.924 163.464 107.982 163.208 108.97C162.799 110.548 162.853 112.179 163.366 113.727C164.434 116.953 167.336 119.189 170.748 119.417C171.018 119.435 171.239 119.456 171.239 119.464C171.239 119.473 171.158 119.618 171.058 119.788C170.634 120.515 170.306 121.419 170.153 122.286C170.043 122.911 170.037 124.178 170.142 124.747L170.213 125.139L146.273 125.138C119.86 125.137 122.026 125.165 121.382 124.822C120.801 124.513 120.286 123.856 120.112 123.202C120.055 122.986 120.044 120.756 120.043 109.837L120.042 96.7321L120.292 95.8158C120.932 93.4706 121.521 91.7377 123.263 87.0778C125.264 81.7252 126.05 78.9759 126.532 75.6414C127.26 70.603 126.775 64.8175 125.183 59.5617C124.594 57.6168 123.963 56.0654 122.912 53.9847C121.835 51.8517 121.159 50.712 120.363 49.6847L120.042 49.2717V42.5143C120.042 36.6093 120.052 35.7194 120.12 35.4601C120.37 34.4939 121.2 33.7336 122.183 33.5681C122.321 33.5449 133.613 33.529 147.277 33.5328L172.12 33.5396L172.456 33.6709ZM185.712 58.8112C187.359 59.0137 189.011 59.9943 189.91 61.3034C190.256 61.8062 190.352 62.0167 190.492 62.5772C191.119 65.0729 190.661 67.2836 189.213 68.7504C188.804 69.1649 187.878 69.9202 186.905 70.6326C185.592 71.5936 184.118 72.4314 181.99 73.4254C180.732 74.0126 177.975 75.2123 177.883 75.2123C177.851 75.2123 177.834 72.6525 177.834 67.9916V60.7709L178.073 60.6679C178.682 60.4054 180.532 59.7393 181.27 59.517C182.397 59.1773 183.693 58.8938 184.604 58.7879C184.927 58.7504 185.277 58.7578 185.712 58.8112ZM179.909 82.2291C181.233 82.3583 182.421 82.9106 183.358 83.8329C185.313 85.7563 185.672 88.7237 184.219 90.9626C183.752 91.6833 183.385 91.9788 179.185 95.0164C176.773 96.7607 175.07 97.9578 174.83 98.0786C173.993 98.4997 173.218 98.6621 172.246 98.6204C169.139 98.4871 166.676 95.764 166.827 92.6285C166.892 91.2649 167.438 90.0097 168.364 89.0943C168.888 88.5761 176.517 83.0522 177.129 82.7484C177.66 82.4841 178.331 82.2884 178.891 82.234C179.126 82.2111 179.341 82.1899 179.369 82.1869C179.397 82.1838 179.64 82.2028 179.909 82.2291ZM181.936 98.6157C183.629 98.9646 185.038 100.028 185.83 101.555C187.081 103.966 186.415 106.973 184.268 108.617C183.511 109.196 174.296 115.84 174.045 115.988C171.566 117.445 168.232 116.674 166.616 114.272C165.937 113.263 165.651 112.317 165.652 111.088C165.653 109.722 166.039 108.618 166.893 107.536C167.064 107.319 167.325 107.038 167.472 106.91C167.859 106.576 177.531 99.5711 178.003 99.2838C179.138 98.5921 180.609 98.3423 181.936 98.6157ZM181.852 116.704C182.981 117.034 183.878 117.699 184.525 118.683C185.735 120.525 185.473 123.01 183.905 124.558C183.572 124.887 180.866 126.888 179.928 127.499C179.173 127.991 178.384 128.218 177.431 128.218C176.106 128.218 174.969 127.731 174.054 126.77C173.388 126.071 172.946 125.19 172.798 124.267C172.715 123.748 172.76 122.858 172.897 122.337C173.104 121.545 173.606 120.691 174.18 120.152C174.594 119.764 177.978 117.316 178.446 117.068C179.203 116.664 179.701 116.556 180.703 116.578C181.315 116.592 181.563 116.619 181.852 116.704ZM148.082 128.244C149.909 128.633 151.338 129.977 151.891 131.827C152.016 132.245 152.027 132.353 152.028 133.165C152.029 134.175 151.962 134.511 151.612 135.259C151.343 135.834 151.096 136.198 150.66 136.656C149.642 137.728 148.247 138.281 146.777 138.197C145.172 138.105 143.753 137.297 142.877 135.977C142.553 135.489 142.393 135.145 142.205 134.535C142.081 134.129 142.071 134.034 142.071 133.165C142.071 132.293 142.08 132.202 142.208 131.788C142.613 130.469 143.474 129.398 144.659 128.736C145.167 128.452 145.832 128.255 146.647 128.146C146.897 128.113 147.733 128.17 148.082 128.244Z" fill="#583311"/>
<ellipse cx="589.029" cy="22.2917" rx="2.0618" ry="2.11001" fill="#D1AF98"/>
<ellipse cx="589.029" cy="28.6217" rx="2.0618" ry="2.11001" fill="#D1AF98"/>
<ellipse cx="585.936" cy="25.4577" rx="2.0618" ry="2.11001" fill="#D1AF98"/>
<ellipse cx="592.121" cy="25.4577" rx="2.0618" ry="2.11001" fill="#D1AF98"/>
<ellipse cx="589.029" cy="162.081" rx="2.0618" ry="2.11001" fill="#D1AF98"/>
<ellipse cx="589.029" cy="168.411" rx="2.0618" ry="2.11001" fill="#D1AF98"/>
<ellipse cx="585.936" cy="165.247" rx="2.0618" ry="2.11001" fill="#D1AF98"/>
<ellipse cx="592.121" cy="165.247" rx="2.0618" ry="2.11001" fill="#D1AF98"/>
<path d="M589.029 33.627V157.076" stroke="#D1AF98" stroke-width="1.22227"/>
<path d="M259.48 96.74C259.74 96.86 259.84 97.04 259.84 97.42C259.84 97.84 259.68 98 259.3 98H254.64C254.28 98 254.12 97.84 254.12 97.42C254.12 97.04 254.22 96.82 254.48 96.76L254.96 96.62C255.72 96.4 255.64 95.9 255.2 95.22L252.44 91.02L249.16 94.16V95.16C249.16 95.98 249.44 96.3 249.96 96.5L250.54 96.72C250.8 96.84 250.9 97.04 250.9 97.42C250.9 97.84 250.74 98 250.38 98H245.9C245.54 98 245.38 97.84 245.38 97.42C245.38 97.04 245.5 96.84 245.76 96.74L246.34 96.5C246.86 96.28 247.14 95.98 247.14 95.16V86.84C247.14 86.02 246.86 85.7 246.34 85.5L245.76 85.26C245.5 85.16 245.38 84.96 245.38 84.58C245.38 84.16 245.54 84 245.9 84H250.38C250.74 84 250.9 84.16 250.9 84.58C250.9 84.96 250.8 85.16 250.52 85.28L249.94 85.5C249.44 85.7 249.16 86.02 249.16 86.84V92.12L254.42 87.02C255 86.44 255.04 85.82 254.44 85.58L253.72 85.28C253.38 85.14 253.28 84.96 253.28 84.58C253.28 84.16 253.44 84 253.82 84H258.94C259.3 84 259.44 84.16 259.44 84.58C259.44 84.96 259.34 85.14 259.08 85.28L258.3 85.68C257.76 85.96 257.38 86.3 256.54 87.1L253.94 89.58L257.68 95.22C258.26 96.06 258.66 96.38 259.48 96.74ZM270.891 94.02C271.391 94.16 271.451 94.52 271.311 95.04C270.911 96.66 269.271 98.32 266.551 98.32C263.451 98.32 261.491 96 261.491 92.84C261.491 89.7 263.251 87.26 266.551 87.26C269.171 87.26 270.751 88.96 271.091 90.78C271.231 91.52 270.991 91.86 270.411 92.06L263.751 94.42C264.251 95.7 265.291 96.64 266.811 96.64C268.391 96.64 269.331 95.98 269.971 94.46C270.171 94.02 270.431 93.9 270.891 94.02ZM266.351 88.94C264.471 88.96 263.371 90.3 263.391 92.6C263.391 92.82 263.411 93.02 263.431 93.24L269.091 90.98C268.631 89.84 267.711 88.92 266.351 88.94ZM282.854 94.02C283.354 94.16 283.414 94.52 283.274 95.04C282.874 96.66 281.234 98.32 278.514 98.32C275.414 98.32 273.454 96 273.454 92.84C273.454 89.7 275.214 87.26 278.514 87.26C281.134 87.26 282.714 88.96 283.054 90.78C283.194 91.52 282.954 91.86 282.374 92.06L275.714 94.42C276.214 95.7 277.254 96.64 278.774 96.64C280.354 96.64 281.294 95.98 281.934 94.46C282.134 94.02 282.394 93.9 282.854 94.02ZM278.314 88.94C276.434 88.96 275.334 90.3 275.354 92.6C275.354 92.82 275.374 93.02 275.394 93.24L281.054 90.98C280.594 89.84 279.674 88.92 278.314 88.94ZM292.096 87.26C294.676 87.26 296.856 89.4 296.856 92.7C296.856 96.28 294.716 98.32 292.116 98.32C290.476 98.32 289.276 97.58 288.476 96.32V99.16C288.476 99.82 288.716 100.14 290.096 100.4C290.576 100.52 290.636 100.72 290.636 101.06C290.636 101.44 290.496 101.6 290.116 101.6H285.556C285.176 101.6 285.036 101.44 285.036 101.08C285.036 100.72 285.096 100.54 285.536 100.38C286.316 100.12 286.576 99.8 286.576 99.14V90.46C286.576 89.6 286.476 89.44 285.476 89.1C285.136 88.98 285.056 88.88 285.056 88.58C285.056 88.3 285.136 88.2 285.416 88.1L287.336 87.38C288.056 87.12 288.396 87.26 288.396 88.04V89.22C289.156 88.04 290.376 87.26 292.096 87.26ZM292.036 96.64C293.696 96.62 295.056 95.48 295.016 93.08C294.996 90.92 293.756 88.92 291.416 88.94C289.536 88.96 288.496 90.16 288.476 92.32V92.44C288.496 94.58 289.636 96.66 292.036 96.64ZM310.464 87.58H314.044C314.404 87.58 314.544 87.74 314.544 88.1C314.544 88.46 314.444 88.58 314.184 88.74C313.684 89.04 313.344 89.36 312.924 90.24L309.304 97.78C307.984 100.58 306.324 101.9 303.944 101.9C303.024 101.9 302.444 101.44 302.444 100.68C302.444 100.1 302.884 99.64 303.684 99.72C305.204 99.88 306.324 99.78 307.324 98.7L303.804 90.2C303.484 89.42 303.164 89.12 302.364 88.74C302.084 88.6 302.024 88.46 302.024 88.1C302.024 87.74 302.164 87.58 302.524 87.58H306.664C307.024 87.58 307.184 87.74 307.184 88.1C307.184 88.48 307.124 88.66 306.684 88.8C305.904 89.06 305.704 89.54 306.044 90.4L308.404 96.46L311.104 90.36C311.444 89.56 311.224 89.08 310.424 88.8C310.004 88.66 309.944 88.46 309.944 88.1C309.944 87.74 310.084 87.58 310.464 87.58ZM320.721 98.32C317.481 98.32 315.581 95.82 315.581 92.7C315.581 89.52 317.521 87.26 320.721 87.26C323.901 87.26 325.841 89.7 325.841 92.66C325.841 96 323.921 98.32 320.721 98.32ZM321.061 96.64C322.621 96.64 323.961 95.48 323.961 93.16C323.961 91.04 322.701 88.94 320.421 88.94C318.501 88.94 317.481 90.36 317.481 92.36C317.481 94.48 318.681 96.64 321.061 96.64ZM338.552 96.26L339.132 96.46C339.472 96.6 339.572 96.68 339.572 97C339.572 97.28 339.492 97.42 339.192 97.52L337.252 98.18C336.512 98.42 336.132 98.28 336.132 97.5V96.02L333.872 97.54C331.912 98.88 329.432 98.62 329.432 95.56V90.54C329.432 89.84 329.372 89.54 328.792 89.32L328.332 89.16C327.972 89.04 327.892 88.94 327.892 88.64C327.892 88.32 327.952 88.22 328.272 88.12L330.192 87.4C330.912 87.14 331.332 87.28 331.332 88.08V95.28C331.332 96.4 332.072 96.82 333.472 96.12L336.132 94.76V90.54C336.132 89.82 336.072 89.56 335.492 89.34L335.012 89.16C334.672 89.02 334.592 88.94 334.592 88.64C334.592 88.32 334.652 88.22 334.972 88.12L336.892 87.4C337.612 87.14 338.032 87.28 338.032 88.08V95.08C338.032 95.74 338.072 96.08 338.552 96.26ZM348.491 87.26C349.031 87.26 349.391 87.6 349.391 88.12C349.391 89 348.731 89.32 347.731 89.72C346.491 90.24 345.671 90.96 345.271 91.8V95.56C345.271 96.22 345.511 96.52 346.871 96.8C347.351 96.92 347.431 97.1 347.431 97.46C347.431 97.84 347.291 98 346.891 98H342.351C341.991 98 341.831 97.84 341.831 97.48C341.831 97.12 341.911 96.94 342.331 96.78C343.131 96.52 343.371 96.2 343.371 95.54V90.48C343.371 89.62 343.271 89.46 342.271 89.1C341.911 88.98 341.831 88.88 341.831 88.58C341.831 88.3 341.911 88.2 342.191 88.1L344.131 87.38C344.851 87.12 345.251 87.26 345.251 88.02V90.02C346.171 88.4 347.651 87.26 348.491 87.26ZM361.146 87.26C363.726 87.26 365.906 89.4 365.906 92.7C365.906 96.28 363.766 98.32 361.166 98.32C359.526 98.32 358.326 97.58 357.526 96.32V99.16C357.526 99.82 357.766 100.14 359.146 100.4C359.626 100.52 359.686 100.72 359.686 101.06C359.686 101.44 359.546 101.6 359.166 101.6H354.606C354.226 101.6 354.086 101.44 354.086 101.08C354.086 100.72 354.146 100.54 354.586 100.38C355.366 100.12 355.626 99.8 355.626 99.14V90.46C355.626 89.6 355.526 89.44 354.526 89.1C354.186 88.98 354.106 88.88 354.106 88.58C354.106 88.3 354.186 88.2 354.466 88.1L356.386 87.38C357.106 87.12 357.446 87.26 357.446 88.04V89.22C358.206 88.04 359.426 87.26 361.146 87.26ZM361.086 96.64C362.746 96.62 364.106 95.48 364.066 93.08C364.046 90.92 362.806 88.92 360.466 88.94C358.586 88.96 357.546 90.16 357.526 92.32V92.44C357.546 94.58 358.686 96.66 361.086 96.64ZM379.328 96.78C379.768 96.94 379.848 97.12 379.848 97.48C379.848 97.84 379.688 98 379.308 98H375.428C375.028 98 374.888 97.84 374.888 97.46C374.888 97.1 374.948 96.94 375.368 96.78C376.148 96.52 376.408 96.2 376.408 95.54V90.44C376.408 89.22 375.748 88.7 374.468 89.32L371.408 90.82V95.54C371.408 96.2 371.648 96.52 372.428 96.78C372.848 96.94 372.908 97.1 372.908 97.46C372.908 97.84 372.768 98 372.388 98H368.488C368.108 98 367.968 97.84 367.968 97.48C367.968 97.12 368.048 96.94 368.468 96.78C369.248 96.52 369.508 96.2 369.508 95.54V85.86C369.508 85 369.408 84.84 368.388 84.48C368.048 84.36 367.968 84.26 367.968 83.96C367.968 83.68 368.048 83.58 368.308 83.48L370.268 82.76C371.008 82.48 371.408 82.66 371.408 83.4V89.56L373.868 88.02C376.008 86.66 378.308 87.08 378.308 89.9V95.54C378.308 96.2 378.548 96.52 379.328 96.78ZM386.891 98.32C383.651 98.32 381.751 95.82 381.751 92.7C381.751 89.52 383.691 87.26 386.891 87.26C390.071 87.26 392.011 89.7 392.011 92.66C392.011 96 390.091 98.32 386.891 98.32ZM387.231 96.64C388.791 96.64 390.131 95.48 390.131 93.16C390.131 91.04 388.871 88.94 386.591 88.94C384.671 88.94 383.651 90.36 383.651 92.36C383.651 94.48 384.851 96.64 387.231 96.64ZM405.222 96.62L405.702 96.82C406.022 96.96 406.102 97.08 406.102 97.46C406.102 97.84 405.962 98 405.622 98H401.642C401.302 98 401.162 97.84 401.162 97.48C401.162 97.1 401.222 96.96 401.542 96.82L402.042 96.62C402.542 96.42 402.682 96.1 402.682 95.54V90.44C402.682 89.22 402.042 88.68 400.742 89.32L397.682 90.82V95.54C397.682 96.1 397.822 96.42 398.322 96.62L398.802 96.82C399.122 96.96 399.182 97.08 399.182 97.46C399.182 97.84 399.042 98 398.722 98H394.742C394.402 98 394.242 97.84 394.242 97.48C394.242 97.1 394.322 96.96 394.642 96.82L395.142 96.62C395.642 96.42 395.782 96.1 395.782 95.54V90.5C395.782 89.76 395.702 89.5 395.082 89.28L394.682 89.14C394.322 89 394.242 88.9 394.242 88.58C394.242 88.32 394.322 88.22 394.602 88.12L396.562 87.4C397.302 87.12 397.682 87.3 397.682 88.04V89.58L400.142 88.02C402.282 86.64 404.582 87.08 404.582 89.88V95.54C404.582 96.1 404.722 96.42 405.222 96.62ZM417.4 94.02C417.9 94.16 417.96 94.52 417.82 95.04C417.42 96.66 415.78 98.32 413.06 98.32C409.96 98.32 408 96 408 92.84C408 89.7 409.76 87.26 413.06 87.26C415.68 87.26 417.26 88.96 417.6 90.78C417.74 91.52 417.5 91.86 416.92 92.06L410.26 94.42C410.76 95.7 411.8 96.64 413.32 96.64C414.9 96.64 415.84 95.98 416.48 94.46C416.68 94.02 416.94 93.9 417.4 94.02ZM412.86 88.94C410.98 88.96 409.88 90.3 409.9 92.6C409.9 92.82 409.92 93.02 409.94 93.24L415.6 90.98C415.14 89.84 414.22 88.92 412.86 88.94ZM425.788 85.86C425.068 85.86 424.508 85.3 424.508 84.58C424.508 83.86 425.068 83.3 425.788 83.3C426.528 83.3 427.088 83.86 427.088 84.58C427.088 85.3 426.528 85.86 425.788 85.86ZM427.968 98H424.028C423.668 98 423.508 97.84 423.508 97.48C423.508 97.12 423.568 97 423.888 96.84L424.248 96.68C424.868 96.42 425.048 96.12 425.048 95.54V90.54C425.048 89.68 424.948 89.5 423.948 89.16C423.588 89.04 423.508 88.92 423.508 88.64C423.508 88.34 423.588 88.22 423.868 88.12L425.828 87.4C426.568 87.12 426.948 87.3 426.948 88.04V95.54C426.948 96.1 427.108 96.42 427.628 96.64L427.988 96.78C428.408 96.96 428.488 97.12 428.488 97.48C428.488 97.84 428.348 98 427.968 98ZM441.45 96.62L441.93 96.82C442.25 96.96 442.33 97.08 442.33 97.46C442.33 97.84 442.19 98 441.85 98H437.87C437.53 98 437.39 97.84 437.39 97.48C437.39 97.1 437.45 96.96 437.77 96.82L438.27 96.62C438.77 96.42 438.91 96.1 438.91 95.54V90.44C438.91 89.22 438.27 88.68 436.97 89.32L433.91 90.82V95.54C433.91 96.1 434.05 96.42 434.55 96.62L435.03 96.82C435.35 96.96 435.41 97.08 435.41 97.46C435.41 97.84 435.27 98 434.95 98H430.97C430.63 98 430.47 97.84 430.47 97.48C430.47 97.1 430.55 96.96 430.87 96.82L431.37 96.62C431.87 96.42 432.01 96.1 432.01 95.54V90.5C432.01 89.76 431.93 89.5 431.31 89.28L430.91 89.14C430.55 89 430.47 88.9 430.47 88.58C430.47 88.32 430.55 88.22 430.83 88.12L432.79 87.4C433.53 87.12 433.91 87.3 433.91 88.04V89.58L436.37 88.02C438.51 86.64 440.81 87.08 440.81 89.88V95.54C440.81 96.1 440.95 96.42 441.45 96.62ZM457.254 96.42L457.674 96.56C458.074 96.7 458.194 96.82 458.194 97.14C458.194 97.5 458.094 97.62 457.814 97.7L456.094 98.14C455.494 98.28 455.174 98.02 455.174 97.4V96.24L454.314 96.86C452.634 98.08 451.634 98.32 450.474 98.32C448.994 98.32 447.774 97.34 447.774 95.36C447.774 93.64 448.954 92.36 451.774 91.76L454.754 91.14V90.32C454.754 89.4 454.354 88.84 453.414 88.84C451.314 88.84 450.614 90.54 449.194 90.54C448.674 90.54 448.354 90.22 448.354 89.72C448.354 88.42 451.174 87.26 453.554 87.26C455.694 87.26 456.654 88.38 456.654 90.62V95.42C456.654 95.96 456.774 96.24 457.254 96.42ZM453.514 95.9L454.754 95.12V92.42L452.594 92.98C450.594 93.52 449.674 94.08 449.674 95.32C449.674 96.32 450.254 96.8 451.074 96.8C451.774 96.8 452.334 96.64 453.514 95.9ZM471.59 87.58H475.17C475.53 87.58 475.67 87.74 475.67 88.1C475.67 88.46 475.61 88.6 475.25 88.8C474.69 89.08 474.41 89.46 474.05 90.24L470.67 97.28C470.39 97.88 470.17 98.06 469.31 98.06C468.31 98.06 468.11 97.86 467.85 97.2L464.87 90.06C464.55 89.3 464.29 89.1 463.63 88.8C463.21 88.6 463.15 88.46 463.15 88.1C463.15 87.74 463.29 87.58 463.65 87.58H467.79C468.17 87.58 468.31 87.74 468.31 88.12C468.31 88.48 468.25 88.66 467.81 88.82C467.03 89.08 466.83 89.54 467.17 90.4L469.55 96.42L472.23 90.36C472.59 89.54 472.35 89.06 471.55 88.8C471.13 88.64 471.07 88.46 471.07 88.12C471.07 87.74 471.21 87.58 471.59 87.58ZM486.205 94.02C486.705 94.16 486.765 94.52 486.625 95.04C486.225 96.66 484.585 98.32 481.865 98.32C478.765 98.32 476.805 96 476.805 92.84C476.805 89.7 478.565 87.26 481.865 87.26C484.485 87.26 486.065 88.96 486.405 90.78C486.545 91.52 486.305 91.86 485.725 92.06L479.065 94.42C479.565 95.7 480.605 96.64 482.125 96.64C483.705 96.64 484.645 95.98 485.285 94.46C485.485 94.02 485.745 93.9 486.205 94.02ZM481.665 88.94C479.785 88.96 478.685 90.3 478.705 92.6C478.705 92.82 478.725 93.02 478.745 93.24L484.405 90.98C483.945 89.84 483.025 88.92 481.665 88.94ZM495.468 87.26C496.008 87.26 496.368 87.6 496.368 88.12C496.368 89 495.708 89.32 494.708 89.72C493.468 90.24 492.648 90.96 492.248 91.8V95.56C492.248 96.22 492.488 96.52 493.848 96.8C494.328 96.92 494.408 97.1 494.408 97.46C494.408 97.84 494.268 98 493.868 98H489.328C488.968 98 488.808 97.84 488.808 97.48C488.808 97.12 488.888 96.94 489.308 96.78C490.108 96.52 490.348 96.2 490.348 95.54V90.48C490.348 89.62 490.248 89.46 489.248 89.1C488.888 88.98 488.808 88.88 488.808 88.58C488.808 88.3 488.888 88.2 489.168 88.1L491.108 87.38C491.828 87.12 492.228 87.26 492.228 88.02V90.02C493.148 88.4 494.628 87.26 495.468 87.26ZM505.658 94.44C506.078 94.56 506.218 94.92 506.018 95.42C505.478 96.92 504.258 98.32 502.338 98.32C500.158 98.32 499.238 96.8 499.238 94.46V89.14H498.198C497.898 89.14 497.758 89.02 497.758 88.62C497.758 88.3 497.818 88.24 498.078 87.92L500.178 85.6C500.478 85.26 501.138 85.4 501.138 85.84V87.58H504.518C505.038 87.58 505.198 87.76 505.198 88.34C505.198 88.9 505.038 89.14 504.518 89.14H501.138V94.56C501.138 96.16 501.678 96.72 502.578 96.72C503.638 96.72 504.158 95.96 504.758 94.76C504.938 94.44 505.178 94.3 505.658 94.44ZM510.111 85.86C509.391 85.86 508.831 85.3 508.831 84.58C508.831 83.86 509.391 83.3 510.111 83.3C510.851 83.3 511.411 83.86 511.411 84.58C511.411 85.3 510.851 85.86 510.111 85.86ZM512.291 98H508.351C507.991 98 507.831 97.84 507.831 97.48C507.831 97.12 507.891 97 508.211 96.84L508.571 96.68C509.191 96.42 509.371 96.12 509.371 95.54V90.54C509.371 89.68 509.271 89.5 508.271 89.16C507.911 89.04 507.831 88.92 507.831 88.64C507.831 88.34 507.911 88.22 508.191 88.12L510.151 87.4C510.891 87.12 511.271 87.3 511.271 88.04V95.54C511.271 96.1 511.431 96.42 511.951 96.64L512.311 96.78C512.731 96.96 512.811 97.12 512.811 97.48C512.811 97.84 512.671 98 512.291 98ZM519.793 98.32C516.713 98.32 514.753 96.08 514.753 92.72C514.753 89.64 516.633 87.26 519.933 87.26C522.553 87.26 524.293 89.36 524.293 90.54C524.293 91.18 523.893 91.52 523.353 91.52C522.733 91.52 522.453 91.2 521.973 90.38C521.413 89.42 520.713 88.78 519.493 88.78C517.693 88.78 516.633 90.28 516.633 92.44C516.633 94.78 517.973 96.64 520.153 96.64C521.553 96.64 522.453 96 523.093 94.5C523.273 94.06 523.593 93.96 523.973 94.08C524.413 94.2 524.493 94.6 524.333 95.12C523.873 96.6 522.493 98.32 519.793 98.32ZM535.865 96.42L536.285 96.56C536.685 96.7 536.805 96.82 536.805 97.14C536.805 97.5 536.705 97.62 536.425 97.7L534.705 98.14C534.105 98.28 533.785 98.02 533.785 97.4V96.24L532.925 96.86C531.245 98.08 530.245 98.32 529.085 98.32C527.605 98.32 526.385 97.34 526.385 95.36C526.385 93.64 527.565 92.36 530.385 91.76L533.365 91.14V90.32C533.365 89.4 532.965 88.84 532.025 88.84C529.925 88.84 529.225 90.54 527.805 90.54C527.285 90.54 526.965 90.22 526.965 89.72C526.965 88.42 529.785 87.26 532.165 87.26C534.305 87.26 535.265 88.38 535.265 90.62V95.42C535.265 95.96 535.385 96.24 535.865 96.42ZM532.125 95.9L533.365 95.12V92.42L531.205 92.98C529.205 93.52 528.285 94.08 528.285 95.32C528.285 96.32 528.865 96.8 529.685 96.8C530.385 96.8 530.945 96.64 532.125 95.9ZM543.095 98H539.175C538.795 98 538.655 97.84 538.655 97.48C538.655 97.12 538.715 96.94 539.015 96.82L539.415 96.68C539.975 96.48 540.195 96.12 540.195 95.54V85.84C540.195 85.12 540.115 84.88 539.515 84.64L539.095 84.46C538.755 84.32 538.675 84.24 538.675 83.94C538.675 83.66 538.755 83.58 539.015 83.48L540.955 82.74C541.695 82.48 542.095 82.62 542.095 83.38V95.54C542.095 96.12 542.295 96.48 542.855 96.68L543.275 96.82C543.555 96.94 543.635 97.12 543.635 97.48C543.635 97.84 543.475 98 543.095 98ZM251.58 112.26C254.16 112.26 256.34 114.4 256.34 117.7C256.34 121.28 254.2 123.32 251.6 123.32C249.96 123.32 248.76 122.58 247.96 121.32V124.16C247.96 124.82 248.2 125.14 249.58 125.4C250.06 125.52 250.12 125.72 250.12 126.06C250.12 126.44 249.98 126.6 249.6 126.6H245.04C244.66 126.6 244.52 126.44 244.52 126.08C244.52 125.72 244.58 125.54 245.02 125.38C245.8 125.12 246.06 124.8 246.06 124.14V115.46C246.06 114.6 245.96 114.44 244.96 114.1C244.62 113.98 244.54 113.88 244.54 113.58C244.54 113.3 244.62 113.2 244.9 113.1L246.82 112.38C247.54 112.12 247.88 112.26 247.88 113.04V114.22C248.64 113.04 249.86 112.26 251.58 112.26ZM251.52 121.64C253.18 121.62 254.54 120.48 254.5 118.08C254.48 115.92 253.24 113.92 250.9 113.94C249.02 113.96 247.98 115.16 247.96 117.32V117.44C247.98 119.58 249.12 121.66 251.52 121.64ZM263.702 123.32C260.462 123.32 258.562 120.82 258.562 117.7C258.562 114.52 260.502 112.26 263.702 112.26C266.882 112.26 268.822 114.7 268.822 117.66C268.822 121 266.902 123.32 263.702 123.32ZM264.042 121.64C265.602 121.64 266.942 120.48 266.942 118.16C266.942 116.04 265.682 113.94 263.402 113.94C261.482 113.94 260.462 115.36 260.462 117.36C260.462 119.48 261.662 121.64 264.042 121.64ZM275.972 116.88C277.932 117.34 279.292 118.22 279.292 120.16C279.292 122.16 278.052 123.32 275.812 123.32C274.552 123.32 273.692 122.7 273.052 121.92L272.952 122.56C272.872 123.04 272.672 123.12 272.272 123.12C271.772 123.12 271.692 123 271.512 122.26L270.952 119.94C270.832 119.38 270.932 119.22 271.432 119C271.912 118.82 272.152 118.96 272.372 119.24C273.372 120.84 274.372 121.76 275.712 121.76C276.812 121.76 277.512 121.24 277.512 120.28C277.512 119.18 276.612 118.88 274.452 118.38C272.272 117.86 271.172 116.78 271.172 115C271.172 113.42 272.372 112.26 273.952 112.26C275.372 112.26 276.252 112.9 276.892 113.7L276.992 113.02C277.072 112.54 277.272 112.46 277.672 112.46C278.192 112.46 278.272 112.58 278.432 113.32L278.872 115.26C278.992 115.82 278.892 116.04 278.392 116.24C277.932 116.44 277.692 116.3 277.452 116C276.532 114.62 275.612 113.8 274.372 113.8C273.532 113.8 272.952 114.14 272.952 114.94C272.952 116.06 273.752 116.36 275.972 116.88ZM283.889 110.86C283.169 110.86 282.609 110.3 282.609 109.58C282.609 108.86 283.169 108.3 283.889 108.3C284.629 108.3 285.189 108.86 285.189 109.58C285.189 110.3 284.629 110.86 283.889 110.86ZM286.069 123H282.129C281.769 123 281.609 122.84 281.609 122.48C281.609 122.12 281.669 122 281.989 121.84L282.349 121.68C282.969 121.42 283.149 121.12 283.149 120.54V115.54C283.149 114.68 283.049 114.5 282.049 114.16C281.689 114.04 281.609 113.92 281.609 113.64C281.609 113.34 281.689 113.22 281.969 113.12L283.929 112.4C284.669 112.12 285.049 112.3 285.049 113.04V120.54C285.049 121.1 285.209 121.42 285.729 121.64L286.089 121.78C286.509 121.96 286.589 122.12 286.589 122.48C286.589 122.84 286.449 123 286.069 123ZM296.251 119.44C296.671 119.56 296.811 119.92 296.611 120.42C296.071 121.92 294.851 123.32 292.931 123.32C290.751 123.32 289.831 121.8 289.831 119.46V114.14H288.791C288.491 114.14 288.351 114.02 288.351 113.62C288.351 113.3 288.411 113.24 288.671 112.92L290.771 110.6C291.071 110.26 291.731 110.4 291.731 110.84V112.58H295.111C295.631 112.58 295.791 112.76 295.791 113.34C295.791 113.9 295.631 114.14 295.111 114.14H291.731V119.56C291.731 121.16 292.271 121.72 293.171 121.72C294.231 121.72 294.751 120.96 295.351 119.76C295.531 119.44 295.771 119.3 296.251 119.44ZM300.704 110.86C299.984 110.86 299.424 110.3 299.424 109.58C299.424 108.86 299.984 108.3 300.704 108.3C301.444 108.3 302.004 108.86 302.004 109.58C302.004 110.3 301.444 110.86 300.704 110.86ZM302.884 123H298.944C298.584 123 298.424 122.84 298.424 122.48C298.424 122.12 298.484 122 298.804 121.84L299.164 121.68C299.784 121.42 299.964 121.12 299.964 120.54V115.54C299.964 114.68 299.864 114.5 298.864 114.16C298.504 114.04 298.424 113.92 298.424 113.64C298.424 113.34 298.504 113.22 298.784 113.12L300.744 112.4C301.484 112.12 301.864 112.3 301.864 113.04V120.54C301.864 121.1 302.024 121.42 302.544 121.64L302.904 121.78C303.324 121.96 303.404 122.12 303.404 122.48C303.404 122.84 303.264 123 302.884 123ZM310.487 123.32C307.247 123.32 305.347 120.82 305.347 117.7C305.347 114.52 307.287 112.26 310.487 112.26C313.667 112.26 315.607 114.7 315.607 117.66C315.607 121 313.687 123.32 310.487 123.32ZM310.827 121.64C312.387 121.64 313.727 120.48 313.727 118.16C313.727 116.04 312.467 113.94 310.187 113.94C308.267 113.94 307.247 115.36 307.247 117.36C307.247 119.48 308.447 121.64 310.827 121.64ZM328.818 121.62L329.298 121.82C329.618 121.96 329.698 122.08 329.698 122.46C329.698 122.84 329.558 123 329.218 123H325.238C324.898 123 324.758 122.84 324.758 122.48C324.758 122.1 324.818 121.96 325.138 121.82L325.638 121.62C326.138 121.42 326.278 121.1 326.278 120.54V115.44C326.278 114.22 325.638 113.68 324.338 114.32L321.278 115.82V120.54C321.278 121.1 321.418 121.42 321.918 121.62L322.398 121.82C322.718 121.96 322.778 122.08 322.778 122.46C322.778 122.84 322.638 123 322.318 123H318.338C317.998 123 317.838 122.84 317.838 122.48C317.838 122.1 317.918 121.96 318.238 121.82L318.738 121.62C319.238 121.42 319.378 121.1 319.378 120.54V115.5C319.378 114.76 319.298 114.5 318.678 114.28L318.278 114.14C317.918 114 317.838 113.9 317.838 113.58C317.838 113.32 317.918 113.22 318.198 113.12L320.158 112.4C320.898 112.12 321.278 112.3 321.278 113.04V114.58L323.738 113.02C325.878 111.64 328.178 112.08 328.178 114.88V120.54C328.178 121.1 328.318 121.42 328.818 121.62ZM342.822 119.44C343.242 119.56 343.382 119.92 343.182 120.42C342.642 121.92 341.422 123.32 339.502 123.32C337.322 123.32 336.402 121.8 336.402 119.46V114.14H335.362C335.062 114.14 334.922 114.02 334.922 113.62C334.922 113.3 334.982 113.24 335.242 112.92L337.342 110.6C337.642 110.26 338.302 110.4 338.302 110.84V112.58H341.682C342.202 112.58 342.362 112.76 342.362 113.34C342.362 113.9 342.202 114.14 341.682 114.14H338.302V119.56C338.302 121.16 338.842 121.72 339.742 121.72C340.802 121.72 341.322 120.96 341.922 119.76C342.102 119.44 342.342 119.3 342.822 119.44ZM356.155 121.78C356.595 121.94 356.675 122.12 356.675 122.48C356.675 122.84 356.515 123 356.135 123H352.255C351.855 123 351.715 122.84 351.715 122.46C351.715 122.1 351.775 121.94 352.195 121.78C352.975 121.52 353.235 121.2 353.235 120.54V115.44C353.235 114.22 352.575 113.7 351.295 114.32L348.235 115.82V120.54C348.235 121.2 348.475 121.52 349.255 121.78C349.675 121.94 349.735 122.1 349.735 122.46C349.735 122.84 349.595 123 349.215 123H345.315C344.935 123 344.795 122.84 344.795 122.48C344.795 122.12 344.875 121.94 345.295 121.78C346.075 121.52 346.335 121.2 346.335 120.54V110.86C346.335 110 346.235 109.84 345.215 109.48C344.875 109.36 344.795 109.26 344.795 108.96C344.795 108.68 344.875 108.58 345.135 108.48L347.095 107.76C347.835 107.48 348.235 107.66 348.235 108.4V114.56L350.695 113.02C352.835 111.66 355.135 112.08 355.135 114.9V120.54C355.135 121.2 355.375 121.52 356.155 121.78ZM365.277 112.26C365.817 112.26 366.177 112.6 366.177 113.12C366.177 114 365.517 114.32 364.517 114.72C363.277 115.24 362.457 115.96 362.057 116.8V120.56C362.057 121.22 362.297 121.52 363.657 121.8C364.137 121.92 364.217 122.1 364.217 122.46C364.217 122.84 364.077 123 363.677 123H359.137C358.777 123 358.617 122.84 358.617 122.48C358.617 122.12 358.697 121.94 359.117 121.78C359.917 121.52 360.157 121.2 360.157 120.54V115.48C360.157 114.62 360.057 114.46 359.057 114.1C358.697 113.98 358.617 113.88 358.617 113.58C358.617 113.3 358.697 113.2 358.977 113.1L360.917 112.38C361.637 112.12 362.037 112.26 362.037 113.02V115.02C362.957 113.4 364.437 112.26 365.277 112.26ZM372.692 123.32C369.452 123.32 367.552 120.82 367.552 117.7C367.552 114.52 369.492 112.26 372.692 112.26C375.872 112.26 377.812 114.7 377.812 117.66C377.812 121 375.892 123.32 372.692 123.32ZM373.032 121.64C374.592 121.64 375.932 120.48 375.932 118.16C375.932 116.04 374.672 113.94 372.392 113.94C370.472 113.94 369.452 115.36 369.452 117.36C369.452 119.48 370.652 121.64 373.032 121.64ZM390.522 121.26L391.102 121.46C391.442 121.6 391.542 121.68 391.542 122C391.542 122.28 391.462 122.42 391.162 122.52L389.222 123.18C388.482 123.42 388.102 123.28 388.102 122.5V121.02L385.842 122.54C383.882 123.88 381.402 123.62 381.402 120.56V115.54C381.402 114.84 381.342 114.54 380.762 114.32L380.302 114.16C379.942 114.04 379.862 113.94 379.862 113.64C379.862 113.32 379.922 113.22 380.242 113.12L382.162 112.4C382.882 112.14 383.302 112.28 383.302 113.08V120.28C383.302 121.4 384.042 121.82 385.442 121.12L388.102 119.76V115.54C388.102 114.82 388.042 114.56 387.462 114.34L386.982 114.16C386.642 114.02 386.562 113.94 386.562 113.64C386.562 113.32 386.622 113.22 386.942 113.12L388.862 112.4C389.582 112.14 390.002 112.28 390.002 113.08V120.08C390.002 120.74 390.042 121.08 390.522 121.26ZM398.082 121.2H400.362C402.282 121.2 403.562 121.76 403.562 123.58C403.562 125.82 401.302 126.92 398.222 126.92C394.822 126.92 393.102 126.02 393.102 124.48C393.102 123.44 393.902 122.7 395.562 122.4C395.062 122.02 394.762 121.5 394.762 120.9C394.762 120.2 395.102 119.58 395.922 119.22C394.642 118.56 393.922 117.32 393.922 115.86C393.922 113.94 395.262 112.26 398.222 112.26C399.762 112.26 400.422 112.2 401.562 111.48C401.982 111.2 402.362 111 402.762 111C403.262 111 403.562 111.32 403.562 111.82C403.562 112.92 402.282 113.16 400.482 113.08C401.622 113.74 402.162 114.82 402.162 115.86C402.162 117.98 400.822 119.68 398.042 119.68H398.002C396.962 119.68 396.422 119.9 396.422 120.44C396.422 120.86 396.882 121.2 398.082 121.2ZM398.042 113.68C396.702 113.68 395.782 114.38 395.782 115.72C395.782 117.28 396.742 118.22 398.082 118.22C399.422 118.22 400.322 117.52 400.322 116.16C400.322 114.62 399.382 113.68 398.042 113.68ZM398.302 125.38C400.522 125.38 401.882 124.76 401.882 123.84C401.882 123.2 401.462 123.02 400.402 123.02H397.562C395.522 123.02 394.962 123.52 394.962 124.14C394.962 124.88 395.682 125.38 398.302 125.38ZM416.397 121.78C416.837 121.94 416.917 122.12 416.917 122.48C416.917 122.84 416.757 123 416.377 123H412.497C412.097 123 411.957 122.84 411.957 122.46C411.957 122.1 412.017 121.94 412.437 121.78C413.217 121.52 413.477 121.2 413.477 120.54V115.44C413.477 114.22 412.817 113.7 411.537 114.32L408.477 115.82V120.54C408.477 121.2 408.717 121.52 409.497 121.78C409.917 121.94 409.977 122.1 409.977 122.46C409.977 122.84 409.837 123 409.457 123H405.557C405.177 123 405.037 122.84 405.037 122.48C405.037 122.12 405.117 121.94 405.537 121.78C406.317 121.52 406.577 121.2 406.577 120.54V110.86C406.577 110 406.477 109.84 405.457 109.48C405.117 109.36 405.037 109.26 405.037 108.96C405.037 108.68 405.117 108.58 405.377 108.48L407.337 107.76C408.077 107.48 408.477 107.66 408.477 108.4V114.56L410.937 113.02C413.077 111.66 415.377 112.08 415.377 114.9V120.54C415.377 121.2 415.617 121.52 416.397 121.78ZM423.96 123.32C420.72 123.32 418.82 120.82 418.82 117.7C418.82 114.52 420.76 112.26 423.96 112.26C427.14 112.26 429.08 114.7 429.08 117.66C429.08 121 427.16 123.32 423.96 123.32ZM424.3 121.64C425.86 121.64 427.2 120.48 427.2 118.16C427.2 116.04 425.94 113.94 423.66 113.94C421.74 113.94 420.72 115.36 420.72 117.36C420.72 119.48 421.92 121.64 424.3 121.64ZM441.79 121.26L442.37 121.46C442.71 121.6 442.81 121.68 442.81 122C442.81 122.28 442.73 122.42 442.43 122.52L440.49 123.18C439.75 123.42 439.37 123.28 439.37 122.5V121.02L437.11 122.54C435.15 123.88 432.67 123.62 432.67 120.56V115.54C432.67 114.84 432.61 114.54 432.03 114.32L431.57 114.16C431.21 114.04 431.13 113.94 431.13 113.64C431.13 113.32 431.19 113.22 431.51 113.12L433.43 112.4C434.15 112.14 434.57 112.28 434.57 113.08V120.28C434.57 121.4 435.31 121.82 436.71 121.12L439.37 119.76V115.54C439.37 114.82 439.31 114.56 438.73 114.34L438.25 114.16C437.91 114.02 437.83 113.94 437.83 113.64C437.83 113.32 437.89 113.22 438.21 113.12L440.13 112.4C440.85 112.14 441.27 112.28 441.27 113.08V120.08C441.27 120.74 441.31 121.08 441.79 121.26ZM452.75 119.44C453.17 119.56 453.31 119.92 453.11 120.42C452.57 121.92 451.35 123.32 449.43 123.32C447.25 123.32 446.33 121.8 446.33 119.46V114.14H445.29C444.99 114.14 444.85 114.02 444.85 113.62C444.85 113.3 444.91 113.24 445.17 112.92L447.27 110.6C447.57 110.26 448.23 110.4 448.23 110.84V112.58H451.61C452.13 112.58 452.29 112.76 452.29 113.34C452.29 113.9 452.13 114.14 451.61 114.14H448.23V119.56C448.23 121.16 448.77 121.72 449.67 121.72C450.73 121.72 451.25 120.96 451.85 119.76C452.03 119.44 452.27 119.3 452.75 119.44ZM466.108 119.44C466.528 119.56 466.668 119.92 466.468 120.42C465.928 121.92 464.708 123.32 462.788 123.32C460.608 123.32 459.688 121.8 459.688 119.46V114.14H458.648C458.348 114.14 458.208 114.02 458.208 113.62C458.208 113.3 458.268 113.24 458.528 112.92L460.628 110.6C460.928 110.26 461.588 110.4 461.588 110.84V112.58H464.968C465.488 112.58 465.648 112.76 465.648 113.34C465.648 113.9 465.488 114.14 464.968 114.14H461.588V119.56C461.588 121.16 462.128 121.72 463.028 121.72C464.088 121.72 464.608 120.96 465.208 119.76C465.388 119.44 465.628 119.3 466.108 119.44ZM479.441 121.78C479.881 121.94 479.961 122.12 479.961 122.48C479.961 122.84 479.801 123 479.421 123H475.541C475.141 123 475.001 122.84 475.001 122.46C475.001 122.1 475.061 121.94 475.481 121.78C476.261 121.52 476.521 121.2 476.521 120.54V115.44C476.521 114.22 475.861 113.7 474.581 114.32L471.521 115.82V120.54C471.521 121.2 471.761 121.52 472.541 121.78C472.961 121.94 473.021 122.1 473.021 122.46C473.021 122.84 472.881 123 472.501 123H468.601C468.221 123 468.081 122.84 468.081 122.48C468.081 122.12 468.161 121.94 468.581 121.78C469.361 121.52 469.621 121.2 469.621 120.54V110.86C469.621 110 469.521 109.84 468.501 109.48C468.161 109.36 468.081 109.26 468.081 108.96C468.081 108.68 468.161 108.58 468.421 108.48L470.381 107.76C471.121 107.48 471.521 107.66 471.521 108.4V114.56L473.981 113.02C476.121 111.66 478.421 112.08 478.421 114.9V120.54C478.421 121.2 478.661 121.52 479.441 121.78ZM491.264 119.02C491.764 119.16 491.824 119.52 491.684 120.04C491.284 121.66 489.644 123.32 486.924 123.32C483.824 123.32 481.864 121 481.864 117.84C481.864 114.7 483.624 112.26 486.924 112.26C489.544 112.26 491.124 113.96 491.464 115.78C491.604 116.52 491.364 116.86 490.784 117.06L484.124 119.42C484.624 120.7 485.664 121.64 487.184 121.64C488.764 121.64 489.704 120.98 490.344 119.46C490.544 119.02 490.804 118.9 491.264 119.02ZM486.724 113.94C484.844 113.96 483.744 115.3 483.764 117.6C483.764 117.82 483.784 118.02 483.804 118.24L489.464 115.98C489.004 114.84 488.084 113.92 486.724 113.94ZM504.032 112.26C504.572 112.26 504.932 112.6 504.932 113.12C504.932 114 504.272 114.32 503.272 114.72C502.032 115.24 501.212 115.96 500.812 116.8V120.56C500.812 121.22 501.052 121.52 502.412 121.8C502.892 121.92 502.972 122.1 502.972 122.46C502.972 122.84 502.832 123 502.432 123H497.892C497.532 123 497.372 122.84 497.372 122.48C497.372 122.12 497.452 121.94 497.872 121.78C498.672 121.52 498.912 121.2 498.912 120.54V115.48C498.912 114.62 498.812 114.46 497.812 114.1C497.452 113.98 497.372 113.88 497.372 113.58C497.372 113.3 497.452 113.2 497.732 113.1L499.672 112.38C500.392 112.12 500.792 112.26 500.792 113.02V115.02C501.712 113.4 503.192 112.26 504.032 112.26ZM515.67 121.42L516.09 121.56C516.49 121.7 516.61 121.82 516.61 122.14C516.61 122.5 516.51 122.62 516.23 122.7L514.51 123.14C513.91 123.28 513.59 123.02 513.59 122.4V121.24L512.73 121.86C511.05 123.08 510.05 123.32 508.89 123.32C507.41 123.32 506.19 122.34 506.19 120.36C506.19 118.64 507.37 117.36 510.19 116.76L513.17 116.14V115.32C513.17 114.4 512.77 113.84 511.83 113.84C509.73 113.84 509.03 115.54 507.61 115.54C507.09 115.54 506.77 115.22 506.77 114.72C506.77 113.42 509.59 112.26 511.97 112.26C514.11 112.26 515.07 113.38 515.07 115.62V120.42C515.07 120.96 515.19 121.24 515.67 121.42ZM511.93 120.9L513.17 120.12V117.42L511.01 117.98C509.01 118.52 508.09 119.08 508.09 120.32C508.09 121.32 508.67 121.8 509.49 121.8C510.19 121.8 510.75 121.64 511.93 120.9ZM523.66 123.32C520.58 123.32 518.62 121.08 518.62 117.72C518.62 114.64 520.5 112.26 523.8 112.26C526.42 112.26 528.16 114.36 528.16 115.54C528.16 116.18 527.76 116.52 527.22 116.52C526.6 116.52 526.32 116.2 525.84 115.38C525.28 114.42 524.58 113.78 523.36 113.78C521.56 113.78 520.5 115.28 520.5 117.44C520.5 119.78 521.84 121.64 524.02 121.64C525.42 121.64 526.32 121 526.96 119.5C527.14 119.06 527.46 118.96 527.84 119.08C528.28 119.2 528.36 119.6 528.2 120.12C527.74 121.6 526.36 123.32 523.66 123.32ZM539.612 119.02C540.112 119.16 540.172 119.52 540.032 120.04C539.632 121.66 537.992 123.32 535.272 123.32C532.172 123.32 530.212 121 530.212 117.84C530.212 114.7 531.972 112.26 535.272 112.26C537.892 112.26 539.472 113.96 539.812 115.78C539.952 116.52 539.712 116.86 539.132 117.06L532.472 119.42C532.972 120.7 534.012 121.64 535.532 121.64C537.112 121.64 538.052 120.98 538.692 119.46C538.892 119.02 539.152 118.9 539.612 119.02ZM535.072 113.94C533.192 113.96 532.092 115.3 532.112 117.6C532.112 117.82 532.132 118.02 532.152 118.24L537.812 115.98C537.352 114.84 536.432 113.92 535.072 113.94ZM543.854 123.32C543.134 123.32 542.574 122.76 542.574 122.02C542.574 121.3 543.134 120.74 543.854 120.74C544.594 120.74 545.154 121.3 545.154 122.02C545.154 122.76 544.594 123.32 543.854 123.32Z" fill="#583311"/>
<ellipse cx="245.573" cy="70.0626" rx="1.53696" ry="1.5729" transform="rotate(-90 245.573 70.0626)" fill="#D1AF98"/>
<ellipse cx="250.292" cy="70.0626" rx="1.53696" ry="1.5729" transform="rotate(-90 250.292 70.0626)" fill="#D1AF98"/>
<ellipse cx="247.932" cy="72.3673" rx="1.53696" ry="1.5729" transform="rotate(-90 247.932 72.3673)" fill="#D1AF98"/>
<ellipse cx="247.932" cy="67.7599" rx="1.53696" ry="1.5729" transform="rotate(-90 247.932 67.7599)" fill="#D1AF98"/>
<path d="M253.981 69.8984L489.839 69.8984" stroke="#D1AF98" stroke-width="1.05059"/>
<path d="M496.116 71.9169V71.9258C496 71.9079 495.795 71.9079 495.58 71.9079C495.277 71.9079 494.973 71.9079 494.866 71.8722C495.071 71.7651 495.241 71.7918 495.366 71.5597C495.393 71.5061 495.411 71.4525 495.437 71.4078L495.562 71.3632L495.455 71.2828L495.464 71.1221C495.527 71.0596 495.553 70.9256 495.553 70.8453C495.553 70.7917 495.509 70.7381 495.518 70.6845L495.607 69.729C495.625 69.5415 495.687 69.3629 495.687 69.1753C495.67 69.1218 495.67 69.0682 495.67 69.0146C495.67 68.6931 495.607 68.3627 495.607 68.0412C495.607 67.9876 495.634 67.9341 495.643 67.8805C495.67 67.7465 495.67 67.6126 495.67 67.4786C495.67 67.3625 495.643 67.2554 495.643 67.1393C495.643 67.0053 495.687 66.8803 495.705 66.7553L495.678 66.7017C495.607 66.6928 495.536 66.6928 495.464 66.6928C495.339 66.6928 495.214 66.6839 495.089 66.6839C494.964 66.6303 494.812 66.6303 494.678 66.6303C494.509 66.6303 494.339 66.666 494.178 66.666C494.125 66.666 494.044 66.6124 494 66.5856C493.973 66.6303 493.937 66.7017 493.884 66.7196C493.651 66.7999 493.401 66.7732 493.169 66.8892C493.16 66.8892 493.16 66.8803 493.151 66.8803C493.107 66.8803 493.071 66.916 493.026 66.916L493.008 66.9071L492.991 66.8535C493.044 66.7553 493.205 66.4249 493.267 66.3624C493.312 66.3266 493.375 66.282 493.366 66.2195C493.455 66.0677 493.562 65.9159 493.616 65.7462C493.759 65.7015 493.875 65.6033 494.009 65.5408C494.026 65.5408 494.035 65.5497 494.053 65.5497C494.098 65.5497 494.134 65.5497 494.178 65.5319L494.196 65.514H494.223C494.294 65.514 494.41 65.5408 494.482 65.5676L494.535 65.7105C494.598 65.6926 494.625 65.5944 494.696 65.5944C494.839 65.5944 494.982 65.6122 495.125 65.6122L495.161 65.6301C495.393 65.6301 495.616 65.7105 495.848 65.7105L495.92 65.8176C496.027 65.7908 496.116 65.7105 496.223 65.7105C496.759 65.7105 497.295 65.7819 497.831 65.7819C498.125 65.7819 498.741 65.6658 499.027 65.5855C499.081 65.6033 499.134 65.639 499.197 65.648L499.251 65.5765C499.358 65.5319 499.465 65.4962 499.581 65.4604L499.67 65.4783C499.581 65.6212 499.483 65.8087 499.438 65.9784C499.376 66.0587 499.349 66.157 499.322 66.2463C499.251 66.3356 499.179 66.4338 499.134 66.541C499.054 66.6035 498.974 66.6839 498.902 66.7553C498.84 66.7553 498.786 66.7464 498.724 66.7464C498.625 66.7464 498.518 66.7642 498.42 66.7821C498.366 66.7285 498.232 66.7285 498.161 66.7285C498.045 66.7285 497.929 66.7106 497.813 66.7106C497.652 66.7106 497.5 66.7642 497.348 66.7999L497.286 66.7553C497.152 66.8089 497.009 66.8267 496.866 66.8267C496.795 66.8267 496.723 66.8267 496.661 66.8178L496.625 66.8625L496.643 66.9071V67.2732C496.643 67.5233 496.643 67.7733 496.67 68.0055C496.679 68.1216 496.697 68.2288 496.697 68.3448C496.697 68.5502 496.643 68.7467 496.643 68.9521C496.643 68.9967 496.67 69.0414 496.705 69.0771C496.705 69.1843 496.688 69.2914 496.688 69.3986C496.688 69.4879 496.75 69.5772 496.75 69.6665V69.9255C496.705 69.9612 496.652 69.979 496.616 70.0237L496.759 70.1041C496.768 70.1398 496.768 70.1755 496.768 70.2023C496.768 70.3005 496.75 70.3898 496.75 70.4791C496.75 70.5595 496.759 70.6667 496.83 70.7202L496.804 70.7917L496.857 70.8095C496.911 70.9524 496.929 71.0953 496.964 71.2382C496.947 71.2918 496.92 71.3453 496.884 71.39L496.955 71.3989C497.027 71.515 497.098 71.6311 497.206 71.7204C497.295 71.7918 497.411 71.8008 497.5 71.8722C497.357 71.8722 497.214 71.8811 497.072 71.8811L497 71.8097L496.938 71.8901C496.857 71.8901 496.777 71.8722 496.697 71.8722C496.634 71.8722 496.563 71.8722 496.5 71.899C496.411 71.8811 496.321 71.8811 496.232 71.8811C496.232 71.9079 496.134 71.9169 496.116 71.9169ZM503.319 71.9883C503.051 71.9883 502.792 71.9347 502.533 71.9079C502.479 71.8811 502.444 71.8276 502.417 71.774C502.354 71.7918 502.292 71.8008 502.229 71.8097C501.988 71.6847 501.649 71.5686 501.47 71.3632C501.301 71.1667 501.524 71.2025 501.185 71.0953C501.104 70.9792 500.961 70.756 500.961 70.6131C500.961 70.5238 500.988 70.4434 500.988 70.3541C500.988 70.238 500.917 70.1309 500.818 70.0683C500.729 69.6486 500.729 69.2111 500.729 68.7824C500.729 68.6842 500.693 68.586 500.693 68.4877C500.693 68.3181 500.729 67.9876 500.729 67.7465C500.729 67.6662 500.72 67.5947 500.711 67.5411C500.729 67.4965 500.747 67.4608 500.774 67.425C500.747 67.3893 500.711 67.3268 500.711 67.2822C500.711 67.2107 500.738 67.1393 500.738 67.0678C500.738 67.0053 500.72 66.9428 500.676 66.8982L500.693 66.8267C500.676 66.6481 500.649 66.4695 500.622 66.2909L500.64 66.2284C500.577 66.0945 500.408 65.9873 500.318 65.8712H500.292C500.265 65.8355 500.247 65.7998 500.211 65.773L500.149 65.6748C500.283 65.6658 500.488 65.6926 500.586 65.6837L500.863 65.6658L501.033 65.7998C501.113 65.7462 501.193 65.7015 501.274 65.6658H501.417C501.533 65.6658 501.64 65.6748 501.756 65.6748V65.6926C501.819 65.6926 501.881 65.6748 501.944 65.6748C502.042 65.6748 502.14 65.7015 502.238 65.7015C502.274 65.7015 502.319 65.6926 502.354 65.6837V65.7105C502.051 65.9427 501.81 66.0498 501.81 66.4785C501.81 66.6392 501.729 66.7999 501.738 66.9607L501.685 67.0232C501.72 67.1929 501.765 67.3625 501.765 67.5411C501.765 67.6215 501.738 67.6929 501.738 67.7733C501.738 68.1127 501.828 68.4341 501.828 68.7735C501.81 68.8003 501.801 68.8271 501.801 68.8539C501.801 68.9253 501.836 68.9967 501.836 69.0682C501.836 69.1932 501.81 69.3271 501.81 69.4522C501.81 69.5504 501.863 69.6576 501.926 69.729C501.926 70.3362 502.292 70.747 502.881 70.8631C502.899 70.9346 502.979 71.0239 502.988 71.0864C503.024 71.0328 503.06 70.9792 503.087 70.9167H503.14C503.363 70.9167 503.56 70.8274 503.774 70.8274C503.971 70.8274 504.051 70.5595 504.158 70.4345L504.292 70.372C504.292 70.3005 504.274 70.2291 504.256 70.1576C504.382 70.0594 504.453 69.8272 504.453 69.6754C504.453 69.6308 504.444 69.5772 504.426 69.5325C504.507 69.2378 504.48 68.8539 504.515 68.5502V68.5324C504.515 68.4788 504.489 68.3984 504.489 68.3448C504.489 68.2288 504.515 68.1037 504.515 67.9787C504.515 67.7197 504.471 67.4608 504.471 67.2107C504.471 67.1304 504.542 67.0589 504.551 66.9875L504.453 66.8714C504.471 66.8089 504.471 66.7464 504.471 66.6839C504.471 66.5499 504.346 66.4606 504.346 66.3266C504.292 66.2195 504.212 66.1213 504.14 66.023C504.114 65.898 503.998 65.8266 503.926 65.7283C504.024 65.7462 504.123 65.7373 504.221 65.7373L504.256 65.7551H504.337C504.444 65.7551 504.542 65.7105 504.649 65.6926C504.81 65.7373 504.998 65.7462 505.185 65.7462C505.328 65.7462 505.462 65.7373 505.587 65.7373C505.641 65.7373 505.694 65.7283 505.748 65.7283L505.801 65.6748C505.891 65.6837 505.971 65.7015 506.06 65.6926C505.685 65.9427 505.837 66.032 505.641 66.3177C505.641 66.5588 505.596 66.791 505.596 67.0321C505.596 67.1482 505.605 67.2643 505.605 67.3804C505.605 67.4876 505.578 67.5858 505.578 67.6929L505.605 67.7019V67.7644C505.605 68.068 505.632 68.3806 505.632 68.6842C505.596 68.7199 505.498 68.7824 505.498 68.8449C505.498 68.9164 505.569 68.9699 505.596 69.0325C505.551 69.3986 505.587 69.7736 505.525 70.1398L505.408 70.2202L505.516 70.3452L505.426 70.756C505.337 70.7827 505.275 70.8542 505.257 70.9435C505.194 70.9971 505.167 71.0864 505.114 71.1489C504.614 71.7472 504.114 71.9883 503.319 71.9883ZM509.661 71.9169V71.9258C509.545 71.9079 509.34 71.9079 509.125 71.9079C508.822 71.9079 508.518 71.9079 508.411 71.8722C508.616 71.7651 508.786 71.7918 508.911 71.5597C508.938 71.5061 508.956 71.4525 508.982 71.4078L509.107 71.3632L509 71.2828L509.009 71.1221C509.072 71.0596 509.098 70.9256 509.098 70.8453C509.098 70.7917 509.054 70.7381 509.063 70.6845L509.152 69.729C509.17 69.5415 509.232 69.3629 509.232 69.1753C509.215 69.1218 509.215 69.0682 509.215 69.0146C509.215 68.6931 509.152 68.3627 509.152 68.0412C509.152 67.9876 509.179 67.9341 509.188 67.8805C509.215 67.7465 509.215 67.6126 509.215 67.4786C509.215 67.3625 509.188 67.2554 509.188 67.1393C509.188 67.0053 509.232 66.8803 509.25 66.7553L509.223 66.7017C509.152 66.6928 509.081 66.6928 509.009 66.6928C508.884 66.6928 508.759 66.6839 508.634 66.6839C508.509 66.6303 508.357 66.6303 508.223 66.6303C508.054 66.6303 507.884 66.666 507.723 66.666C507.67 66.666 507.589 66.6124 507.545 66.5856C507.518 66.6303 507.482 66.7017 507.429 66.7196C507.196 66.7999 506.946 66.7732 506.714 66.8892C506.705 66.8892 506.705 66.8803 506.696 66.8803C506.652 66.8803 506.616 66.916 506.571 66.916L506.553 66.9071L506.536 66.8535C506.589 66.7553 506.75 66.4249 506.812 66.3624C506.857 66.3266 506.92 66.282 506.911 66.2195C507 66.0677 507.107 65.9159 507.161 65.7462C507.303 65.7015 507.42 65.6033 507.554 65.5408C507.571 65.5408 507.58 65.5497 507.598 65.5497C507.643 65.5497 507.679 65.5497 507.723 65.5319L507.741 65.514H507.768C507.839 65.514 507.955 65.5408 508.027 65.5676L508.08 65.7105C508.143 65.6926 508.17 65.5944 508.241 65.5944C508.384 65.5944 508.527 65.6122 508.67 65.6122L508.706 65.6301C508.938 65.6301 509.161 65.7105 509.393 65.7105L509.465 65.8176C509.572 65.7908 509.661 65.7105 509.768 65.7105C510.304 65.7105 510.84 65.7819 511.376 65.7819C511.67 65.7819 512.286 65.6658 512.572 65.5855C512.626 65.6033 512.679 65.639 512.742 65.648L512.795 65.5765C512.903 65.5319 513.01 65.4962 513.126 65.4604L513.215 65.4783C513.126 65.6212 513.028 65.8087 512.983 65.9784C512.92 66.0587 512.894 66.157 512.867 66.2463C512.795 66.3356 512.724 66.4338 512.679 66.541C512.599 66.6035 512.519 66.6839 512.447 66.7553C512.385 66.7553 512.331 66.7464 512.269 66.7464C512.17 66.7464 512.063 66.7642 511.965 66.7821C511.911 66.7285 511.777 66.7285 511.706 66.7285C511.59 66.7285 511.474 66.7106 511.358 66.7106C511.197 66.7106 511.045 66.7642 510.893 66.7999L510.831 66.7553C510.697 66.8089 510.554 66.8267 510.411 66.8267C510.34 66.8267 510.268 66.8267 510.206 66.8178L510.17 66.8625L510.188 66.9071V67.2732C510.188 67.5233 510.188 67.7733 510.215 68.0055C510.224 68.1216 510.241 68.2288 510.241 68.3448C510.241 68.5502 510.188 68.7467 510.188 68.9521C510.188 68.9967 510.215 69.0414 510.25 69.0771C510.25 69.1843 510.233 69.2914 510.233 69.3986C510.233 69.4879 510.295 69.5772 510.295 69.6665V69.9255C510.25 69.9612 510.197 69.979 510.161 70.0237L510.304 70.1041C510.313 70.1398 510.313 70.1755 510.313 70.2023C510.313 70.3005 510.295 70.3898 510.295 70.4791C510.295 70.5595 510.304 70.6667 510.375 70.7202L510.349 70.7917L510.402 70.8095C510.456 70.9524 510.474 71.0953 510.509 71.2382C510.492 71.2918 510.465 71.3453 510.429 71.39L510.5 71.3989C510.572 71.515 510.643 71.6311 510.75 71.7204C510.84 71.7918 510.956 71.8008 511.045 71.8722C510.902 71.8722 510.759 71.8811 510.617 71.8811L510.545 71.8097L510.483 71.8901C510.402 71.8901 510.322 71.8722 510.241 71.8722C510.179 71.8722 510.108 71.8722 510.045 71.899C509.956 71.8811 509.866 71.8811 509.777 71.8811C509.777 71.9079 509.679 71.9169 509.661 71.9169ZM516.118 72.0687C515.796 72.0687 515.475 72.0151 515.153 71.9704C515.091 71.9258 515.064 71.8454 515.046 71.7829C514.983 71.8186 514.903 71.8454 514.832 71.8633C514.537 71.6936 514.26 71.5597 514.019 71.3185C513.51 70.8185 513.224 70.2023 513.224 69.479C513.224 69.3539 513.188 69.1843 513.162 69.0682C513.18 68.9253 513.18 68.7824 513.188 68.6395C513.206 68.1484 513.34 67.3804 513.635 66.9785C513.68 66.916 513.76 66.8803 513.84 66.8625C513.849 66.7821 513.858 66.6839 513.903 66.6124C514.358 65.8534 515.278 65.5587 516.118 65.5497L516.091 65.514C516.135 65.5051 516.18 65.5051 516.225 65.5051C516.421 65.5051 516.618 65.514 516.814 65.5229C516.877 65.5587 516.921 65.6301 516.948 65.7015C517.037 65.6748 517.118 65.6569 517.207 65.648C517.528 65.8266 517.895 65.9784 518.154 66.2552C518.645 66.791 519.109 67.3625 519.082 68.1394C519.091 68.1752 519.1 68.202 519.1 68.2377C519.1 68.3002 519.082 68.3806 519.047 68.4341L519.172 68.5324C519.109 68.961 519.163 69.3897 519.038 69.8094L518.85 69.8897L518.966 70.0416C518.904 70.238 518.823 70.4434 518.698 70.6131C518.654 70.6756 518.6 70.7113 518.582 70.7917C518.288 71.0239 518.127 71.3989 517.832 71.6311C517.743 71.7025 517.653 71.7204 517.546 71.7651C517.082 71.9704 516.627 72.0687 516.118 72.0687ZM516.314 71.1667C516.394 71.1667 516.903 71.0953 516.903 71.0149C517.35 70.872 517.716 70.1844 517.805 69.7558L517.886 69.729V69.6933C517.886 69.6486 517.841 69.5861 517.841 69.5147C517.841 69.2825 517.948 69.0503 517.948 68.8181C517.948 68.702 517.904 68.2913 517.859 68.193V68.1752C517.859 68.1216 517.823 68.0859 517.787 68.0412C517.671 67.3 517.439 67.2554 517.234 66.6481H517.1C516.93 66.5142 516.689 66.5053 516.537 66.3624C516.376 66.3088 516.18 66.3266 516.01 66.3266C515.984 66.3266 515.957 66.3266 515.93 66.3356L515.975 66.3981C515.394 66.4606 515.26 66.4874 514.894 66.9518L514.698 66.9607L514.769 67.1571C514.59 67.4697 514.448 67.7822 514.421 68.1484C514.403 68.3716 514.349 68.577 514.349 68.8003C514.349 68.9432 514.403 69.0771 514.403 69.2111C514.403 69.2825 514.367 69.3897 514.34 69.4611C514.403 69.4968 514.474 69.5415 514.519 69.595C514.564 69.9433 514.948 70.5327 515.162 70.8185H515.225C515.358 70.9167 515.51 70.9881 515.626 71.0953C515.707 71.0953 515.778 71.131 515.85 71.1578C516.001 71.1489 516.162 71.1667 516.314 71.1667ZM525.149 71.9437C524.685 71.8901 524.212 71.9079 523.747 71.8722C523.837 71.8186 523.899 71.7561 523.971 71.6847C523.979 71.649 523.979 71.6222 523.979 71.5864C523.979 71.4704 523.935 71.3632 523.89 71.256C523.694 71.0685 523.256 70.4523 523.229 70.1934C522.801 70.0594 522.872 69.086 522.202 68.8271L522.158 68.8806C522.104 68.7913 521.97 68.6931 521.872 68.6574C521.926 68.586 521.961 68.4967 521.997 68.4163C522.077 68.3984 522.149 68.3806 522.229 68.3716C522.399 68.2913 522.604 68.3091 522.783 68.2288C523.033 68.1127 523.435 67.809 523.533 67.5411L523.462 67.4697C523.479 67.3893 523.497 67.309 523.497 67.2286C523.497 67.05 523.426 66.8625 523.283 66.7642C523.238 66.7553 523.185 66.7553 523.14 66.7553C522.917 66.6303 522.72 66.4963 522.452 66.4963C522.167 66.4963 521.89 66.5499 521.613 66.5767C521.551 66.8625 521.542 67.2464 521.542 67.5322C521.542 67.6036 521.506 67.6662 521.506 67.7376C521.506 67.8448 521.577 67.9341 521.64 68.0144C521.622 68.3091 521.604 68.6127 521.604 68.9074C521.604 69.086 521.622 69.2736 521.64 69.4522C521.595 69.4968 521.542 69.5325 521.488 69.5683C521.533 69.5861 521.577 69.595 521.622 69.604C521.658 69.7915 521.693 70.0237 521.693 70.2291C521.693 70.3095 521.684 70.3809 521.676 70.4523L521.729 70.497C521.729 70.7202 521.756 70.9435 521.801 71.1667C521.774 71.2025 521.747 71.2382 521.738 71.2828L521.863 71.3453C522.024 71.6043 522.176 71.7025 522.417 71.8722C522.274 71.8722 522.122 71.8811 521.979 71.8901L521.917 71.8186L521.827 71.8901C521.774 71.8811 521.711 71.8811 521.658 71.8811C521.524 71.8811 521.39 71.8901 521.247 71.8811H521.229C521.184 71.8811 521.14 71.8544 521.113 71.8276C521.006 71.8722 520.89 71.8544 520.783 71.899C520.515 71.8901 520.238 71.8811 519.97 71.8811C520.291 71.7472 520.336 71.6311 520.407 71.3007L520.479 71.2382L520.425 71.131L520.452 70.9346C520.524 70.8363 520.524 70.7024 520.524 70.5863C520.524 70.497 520.515 70.4077 520.488 70.3184C520.568 70.2023 520.577 69.9344 520.577 69.6665V69.2646C520.577 69.1396 520.577 69.0325 520.586 68.961C520.604 68.8628 520.693 68.8181 520.693 68.711C520.693 68.6574 520.64 68.5949 520.64 68.5324C520.64 68.2645 520.586 68.0055 520.586 67.7376C520.586 67.6572 520.613 67.5769 520.613 67.4965C520.613 67.2197 520.524 66.9428 520.559 66.666C520.452 66.666 520.327 66.7285 520.229 66.7732C520.175 66.7642 520.122 66.7553 520.068 66.7553C519.961 66.7553 519.854 66.8089 519.747 66.8089C519.782 66.7374 519.934 66.5053 519.907 66.4338C520.095 66.148 520.309 65.8801 520.497 65.5944C520.613 65.6301 520.72 65.6569 520.827 65.7105H520.925L520.97 65.7462C521.202 65.7105 521.425 65.7194 521.658 65.7194C521.809 65.7194 521.952 65.6748 522.104 65.6748C522.301 65.6748 523.247 65.7194 523.372 65.7551C523.426 65.773 523.417 65.8176 523.462 65.8444L523.551 65.7373C524.087 65.8355 524.837 66.2373 524.837 66.8803C524.837 67.2018 524.676 67.5947 524.462 67.8358C524.292 68.0234 524.158 68.1573 523.962 68.3181L524.015 68.3538C523.935 68.4699 523.658 68.6842 523.524 68.7199C523.462 68.7378 523.399 68.7467 523.337 68.7735C523.533 68.9164 523.899 69.5236 523.971 69.5683C524.194 69.9523 524.435 70.3184 524.721 70.6577C524.703 70.7024 524.694 70.747 524.685 70.7917C524.73 70.7827 524.774 70.7827 524.819 70.7827C524.944 70.9346 525.078 71.0774 525.248 71.1846L525.274 71.2471C525.408 71.2828 525.471 71.4257 525.578 71.5061C525.569 71.5507 525.569 71.6043 525.542 71.649L525.658 71.6132C525.801 71.7115 525.953 71.7918 526.105 71.8633C525.971 71.899 525.837 71.9169 525.703 71.9169C525.623 71.9169 525.542 71.8901 525.462 71.8901C525.426 71.8901 525.399 71.899 525.364 71.9079C525.328 71.899 525.283 71.8901 525.248 71.8901C525.221 71.8901 525.131 71.899 525.149 71.9437ZM526.564 71.9079H526.314V71.8633C526.421 71.8365 526.627 71.5954 526.662 71.4971C526.716 71.3453 526.707 71.1846 526.761 71.0417C526.734 70.8899 526.734 70.747 526.734 70.5952C526.734 69.8987 526.85 69.2111 526.85 68.5145L526.984 68.4609L526.904 68.3984C526.868 68.2377 526.859 68.068 526.859 67.8983C526.859 67.6304 526.886 67.3625 526.886 67.0946C526.886 67.0053 526.913 66.916 526.913 66.8267C526.913 66.6481 526.85 66.4963 526.814 66.3266L526.877 66.2373L526.787 66.2016C526.761 66.0141 526.636 65.8087 526.448 65.7551C526.546 65.6926 526.68 65.7015 526.796 65.6926C526.93 65.7462 527.073 65.7283 527.216 65.7283C527.404 65.7283 527.6 65.7551 527.788 65.7551C527.931 65.7551 528.082 65.7373 528.225 65.7105L528.422 65.7551V65.7641H528.413C528.02 66.0141 527.948 66.5231 527.922 66.9428L527.806 66.9964L527.913 67.0678C527.886 67.1571 527.877 67.2554 527.877 67.3447C527.877 67.5769 527.922 67.809 527.922 68.0412C527.922 68.0501 527.895 68.1127 527.895 68.1216C527.904 68.2734 527.931 68.4163 527.931 68.5681C527.931 68.577 527.895 68.7199 527.886 68.7378C527.913 68.9074 527.931 69.086 527.931 69.2557C527.931 69.3807 527.904 69.4968 527.904 69.6218C527.904 70.0148 528.011 70.3988 528.011 70.7917V70.8274L527.913 70.9435L528.02 70.9881L528.082 71.3989L528.118 71.4168C528.163 71.5954 528.279 71.7383 528.386 71.8811V71.9079C528.27 71.8901 528.154 71.8901 528.038 71.8722L527.975 71.8008L527.895 71.8901C527.743 71.8811 527.582 71.8901 527.43 71.8901C527.297 71.8901 527.163 71.8722 527.029 71.8633L526.957 71.7293L526.895 71.8365C526.779 71.8365 526.662 71.8544 526.564 71.9079ZM531.212 71.9169H530.953C530.837 71.9169 530.738 71.8633 530.631 71.8365C530.533 71.9079 530.462 71.8722 530.354 71.899L530.212 71.8454C530.122 71.8544 530.051 71.899 529.961 71.899C529.836 71.899 529.729 71.8454 529.604 71.8633L529.533 71.8365C529.47 71.7293 529.417 71.6222 529.381 71.5061L529.426 71.4525L529.399 71.4257C529.426 71.2471 529.506 71.1399 529.613 70.9971C529.863 70.6667 530.051 70.2023 530.131 69.8004L530.212 69.6933C530.203 69.6576 530.194 69.6129 530.194 69.5772C530.194 69.3629 530.488 68.6395 530.622 68.4609L530.613 68.3091C530.667 68.193 530.721 68.2645 530.721 68.0948C530.721 68.0591 530.729 68.0234 530.747 67.9876C530.971 67.5858 531.337 66.541 531.346 66.0945C531.399 66.023 531.489 66.0141 531.551 65.9516L531.658 66.0409L531.739 65.9516C531.962 65.8801 531.989 65.8801 532.131 65.6837C532.167 65.6658 532.194 65.648 532.23 65.6212H532.319L532.399 65.7015C532.462 65.7015 532.489 65.7641 532.498 65.8176C532.551 66.1034 532.649 66.3713 532.721 66.6481C532.873 66.7732 533.087 67.6036 533.132 67.8269L533.185 67.8715C533.185 67.9966 533.248 68.1037 533.301 68.2109L533.221 68.3627L533.364 68.3984C533.444 68.8717 533.828 70.0237 534.06 70.4345C534.123 70.5416 534.221 70.6399 534.266 70.756L534.328 70.8006C534.418 70.9613 534.489 71.131 534.569 71.2918C534.543 71.3364 534.516 71.3811 534.489 71.4346H534.632L535.043 71.8811C534.936 71.8722 534.828 71.8722 534.721 71.8722C534.677 71.8722 534.632 71.8633 534.587 71.8633C534.552 71.8633 534.516 71.8722 534.489 71.8811C534.427 71.8722 534.364 71.8633 534.301 71.8633C534.203 71.8633 534.105 71.8811 533.998 71.8811C533.944 71.8811 533.909 71.8544 533.855 71.8544C533.775 71.8544 533.694 71.8811 533.614 71.8811C533.507 71.8811 533.391 71.8722 533.283 71.8544C533.132 71.8901 532.971 71.899 532.81 71.899C532.73 71.899 532.649 71.8901 532.569 71.8901C532.73 71.7829 532.783 71.7472 532.828 71.7025C532.873 71.6579 532.899 71.5864 532.998 71.4346C533.024 71.39 533.06 71.3543 533.069 71.3007L532.998 71.2025C532.98 71.131 532.971 71.0685 532.971 70.9971C532.971 70.9346 532.98 70.8631 532.989 70.8006C532.828 70.4345 532.703 69.9612 532.56 69.5772C532.23 69.595 531.408 69.7915 531.149 69.988C531.042 70.2916 530.98 70.5863 530.953 70.9078C530.899 70.9435 530.881 71.006 530.846 71.0596C530.863 71.0953 530.872 71.1399 530.872 71.1846C530.872 71.2471 530.854 71.3096 530.846 71.3721C530.917 71.4704 530.917 71.5864 530.953 71.6936C531.042 71.7651 531.131 71.8365 531.212 71.9169ZM531.417 69.1128C531.73 69.0503 532.078 69.0235 532.364 68.8806C532.346 68.7199 532.274 68.5681 532.283 68.4074C532.194 68.2823 532.105 67.9519 532.096 67.8001C532.024 67.6662 532.024 67.5054 531.962 67.3715C531.917 67.4518 531.864 67.5322 531.81 67.6036C531.73 68.1216 531.551 68.6127 531.417 69.1128ZM529.167 71.9615C529.077 71.9615 528.988 71.9526 528.899 71.9437C529.015 71.8276 529.113 71.7025 529.193 71.5686L529.238 71.5418C529.238 71.5418 529.283 71.5597 529.31 71.5775C529.31 71.6668 529.381 71.7293 529.435 71.8008V71.8901C529.39 71.8901 529.336 71.9079 529.319 71.9526C529.265 71.9526 529.22 71.9615 529.167 71.9615ZM536.338 71.8722C536.07 71.8722 535.793 71.8544 535.525 71.8544V71.8276L535.596 71.7651C535.712 71.6847 535.829 71.4168 535.9 71.2828L535.909 71.1667C535.998 71.006 536.025 70.8363 536.025 70.6577L536.052 70.6131L536.061 70.2737L536.195 70.1219L536.079 70.0505C536.114 69.6933 536.141 69.1753 536.141 68.7378C536.141 68.5949 536.141 68.452 536.132 68.327L536.248 68.1752L536.15 67.9876V67.9341C536.15 67.7108 536.132 67.4876 536.132 67.2643C536.132 67.2107 536.159 67.1304 536.168 67.0768C536.141 67.0321 536.096 66.9785 536.052 66.9518C536.025 66.7374 536.025 66.5142 535.989 66.2999C535.963 66.1391 535.668 66.032 535.659 65.8712L535.561 65.7462C535.712 65.7283 535.855 65.6748 536.007 65.6658L536.168 65.8087L536.275 65.6926C536.409 65.6837 536.552 65.6837 536.686 65.6658C536.739 65.6837 536.802 65.6926 536.856 65.6926C536.864 65.6926 536.927 65.6658 536.945 65.6658C537.115 65.7015 537.284 65.7373 537.454 65.7194L537.481 65.7373L537.543 65.7283L537.561 65.7105C537.615 65.7194 537.659 65.7283 537.713 65.7283V65.7551C537.507 65.9069 537.302 66.1034 537.24 66.3624L537.115 66.4427L537.222 66.5499C537.195 66.7285 537.141 66.9071 537.15 67.0946C537.132 67.1214 537.132 67.1839 537.132 67.2464C537.132 67.8358 537.168 68.4074 537.168 68.9967C537.168 69.1485 537.168 69.3093 537.195 69.4611L537.097 69.6308C537.115 69.6933 537.186 69.729 537.195 69.8004C537.257 70.1398 537.204 70.4791 537.257 70.8185L537.338 70.9524C537.409 70.9881 537.481 71.0239 537.561 71.0239C537.757 71.0239 537.945 70.9703 538.133 70.9703H538.195C538.231 70.9703 538.24 71.0239 538.284 71.0239C538.472 71.0239 538.668 70.9346 538.865 70.9346C539.115 70.9346 539.445 70.8095 539.651 70.6756H539.668C539.758 70.5952 539.838 70.4881 539.91 70.3898C539.963 70.3184 539.945 70.2202 539.99 70.1487H540.017L540.052 70.113C540.052 70.2023 540.115 70.2827 540.124 70.372C540.097 70.4077 540.061 70.4434 540.061 70.4881L540.169 70.5774C540.267 70.9256 540.329 71.2828 540.454 71.6222C540.454 71.6847 540.481 71.7472 540.481 71.8097C540.481 71.8276 540.472 71.8454 540.472 71.8633L540.383 71.8722C540.097 71.8722 539.802 71.8633 539.526 71.8454L539.427 71.7383C539.374 71.7383 539.258 71.8633 539.213 71.8633C538.954 71.8633 538.704 71.8186 538.445 71.8186C538.195 71.8186 537.954 71.8454 537.704 71.8454C537.463 71.8454 537.213 71.8365 536.972 71.8454L536.981 71.8186C536.766 71.8365 536.552 71.8722 536.338 71.8722Z" fill="#D1AF98"/>
</svg>
