<svg width="360" height="93" viewBox="0 0 360 93" fill="none" xmlns="http://www.w3.org/2000/svg">
<mask id="path-1-inside-1_837_1842" fill="white">
<path fill-rule="evenodd" clip-rule="evenodd" d="M28.391 92.3135L24.7447 86.9902L21.0322 92.4102H4.5C2.01471 92.4102 0 90.3954 0 87.9102V4.91016C0 2.42487 2.01471 0.410156 4.5 0.410156H236.08L239.306 4.99221L242.483 0.478073L245.067 4.25004L247.697 0.410156H330.816L333.363 3.87891L335.781 0.58699L338.865 4.99804L342.072 0.410156H355.5C357.985 0.410156 360 2.42487 360 4.91016V87.9102C360 90.3954 357.985 92.4102 355.5 92.4102H170.848L167.135 86.9902L164.026 91.5285L161.643 88.2014L158.628 92.4102H33.9005L31.1107 88.5703L28.391 92.3135Z"/>
</mask>
<path fill-rule="evenodd" clip-rule="evenodd" d="M28.391 92.3135L24.7447 86.9902L21.0322 92.4102H4.5C2.01471 92.4102 0 90.3954 0 87.9102V4.91016C0 2.42487 2.01471 0.410156 4.5 0.410156H236.08L239.306 4.99221L242.483 0.478073L245.067 4.25004L247.697 0.410156H330.816L333.363 3.87891L335.781 0.58699L338.865 4.99804L342.072 0.410156H355.5C357.985 0.410156 360 2.42487 360 4.91016V87.9102C360 90.3954 357.985 92.4102 355.5 92.4102H170.848L167.135 86.9902L164.026 91.5285L161.643 88.2014L158.628 92.4102H33.9005L31.1107 88.5703L28.391 92.3135Z" fill="#CF4003"/>
<path d="M28.391 92.3135L27.1535 93.1612L28.3549 94.9151L29.6046 93.1952L28.391 92.3135ZM24.7447 86.9902L25.9822 86.1426L24.7447 84.3359L23.5072 86.1426L24.7447 86.9902ZM21.0322 92.4102V93.9102H21.8229L22.2697 93.2578L21.0322 92.4102ZM236.08 0.410156L237.307 -0.45327L236.859 -1.08984H236.08V0.410156ZM239.306 4.99221L238.079 5.85564L239.306 7.59811L240.532 5.85564L239.306 4.99221ZM242.483 0.478073L243.721 -0.369591L242.5 -2.15172L241.257 -0.385353L242.483 0.478073ZM245.067 4.25004L243.829 5.0977L245.067 6.90439L246.304 5.0977L245.067 4.25004ZM247.697 0.410156V-1.08984H246.906L246.46 -0.437508L247.697 0.410156ZM330.816 0.410156L332.025 -0.477745L331.575 -1.08984H330.816V0.410156ZM333.363 3.87891L332.154 4.76681L333.363 6.41296L334.572 4.76681L333.363 3.87891ZM335.781 0.58699L337.01 -0.272453L335.811 -1.98798L334.572 -0.300911L335.781 0.58699ZM338.865 4.99804L337.635 5.85748L338.865 7.616L340.094 5.85748L338.865 4.99804ZM342.072 0.410156V-1.08984H341.291L340.843 -0.449287L342.072 0.410156ZM170.848 92.4102L169.61 93.2578L170.057 93.9102H170.848V92.4102ZM167.135 86.9902L168.373 86.1425L167.135 84.3358L165.897 86.1425L167.135 86.9902ZM164.026 91.5285L162.807 92.402L164.054 94.1427L165.264 92.3762L164.026 91.5285ZM161.643 88.2014L162.863 87.3279L161.643 85.6256L160.424 87.3279L161.643 88.2014ZM158.628 92.4102V93.9102H159.399L159.848 93.2837L158.628 92.4102ZM33.9005 92.4102L32.687 93.2918L33.1362 93.9102H33.9005V92.4102ZM31.1107 88.5703L32.3242 87.6886L31.1107 86.0184L29.8971 87.6886L31.1107 88.5703ZM29.6285 91.4659L25.9822 86.1426L23.5072 87.8379L27.1535 93.1612L29.6285 91.4659ZM23.5072 86.1426L19.7947 91.5625L22.2697 93.2578L25.9822 87.8379L23.5072 86.1426ZM21.0322 90.9102H4.5V93.9102H21.0322V90.9102ZM4.5 90.9102C2.84314 90.9102 1.5 89.567 1.5 87.9102H-1.5C-1.5 91.2239 1.18628 93.9102 4.5 93.9102V90.9102ZM1.5 87.9102V4.91016H-1.5V87.9102H1.5ZM1.5 4.91016C1.5 3.2533 2.84314 1.91016 4.5 1.91016V-1.08984C1.18628 -1.08984 -1.5 1.59645 -1.5 4.91016H1.5ZM4.5 1.91016H236.08V-1.08984H4.5V1.91016ZM234.853 1.27358L238.079 5.85564L240.532 4.12878L237.307 -0.45327L234.853 1.27358ZM240.532 5.85564L243.71 1.3415L241.257 -0.385353L238.079 4.12878L240.532 5.85564ZM241.246 1.32574L243.829 5.0977L246.304 3.40237L243.721 -0.369591L241.246 1.32574ZM246.304 5.0977L248.935 1.25782L246.46 -0.437508L243.829 3.40237L246.304 5.0977ZM247.697 1.91016H330.816V-1.08984H247.697V1.91016ZM329.607 1.29806L332.154 4.76681L334.572 2.991L332.025 -0.477745L329.607 1.29806ZM334.572 4.76681L336.99 1.47489L334.572 -0.300911L332.154 2.991L334.572 4.76681ZM334.552 1.44643L337.635 5.85748L340.094 4.1386L337.01 -0.272453L334.552 1.44643ZM340.094 5.85748L343.302 1.2696L340.843 -0.449287L337.635 4.1386L340.094 5.85748ZM342.072 1.91016H355.5V-1.08984H342.072V1.91016ZM355.5 1.91016C357.157 1.91016 358.5 3.2533 358.5 4.91016H361.5C361.5 1.59645 358.814 -1.08984 355.5 -1.08984V1.91016ZM358.5 4.91016V87.9102H361.5V4.91016H358.5ZM358.5 87.9102C358.5 89.567 357.157 90.9102 355.5 90.9102V93.9102C358.814 93.9102 361.5 91.2239 361.5 87.9102H358.5ZM355.5 90.9102H170.848V93.9102H355.5V90.9102ZM172.085 91.5625L168.373 86.1425L165.897 87.8379L169.61 93.2578L172.085 91.5625ZM165.897 86.1425L162.789 90.6808L165.264 92.3762L168.373 87.8379L165.897 86.1425ZM165.246 90.655L162.863 87.3279L160.424 89.0749L162.807 92.402L165.246 90.655ZM160.424 87.3279L157.409 91.5367L159.848 93.2837L162.863 89.0749L160.424 87.3279ZM158.628 90.9102H33.9005V93.9102H158.628V90.9102ZM35.114 91.5285L32.3242 87.6886L29.8971 89.452L32.687 93.2918L35.114 91.5285ZM29.8971 87.6886L27.1775 91.4318L29.6046 93.1952L32.3242 89.452L29.8971 87.6886Z" fill="#A73B0D" mask="url(#path-1-inside-1_837_1842)"/>
<path d="M102.631 59.6925C100.447 59.4405 98.2207 59.5245 96.0367 59.3565C96.4567 59.1045 96.7507 58.8105 97.0867 58.4745C97.1287 58.3065 97.1287 58.1805 97.1287 58.0125C97.1287 57.4665 96.9187 56.9625 96.7087 56.4585C95.7847 55.5765 93.7267 52.6785 93.6007 51.4605C91.5847 50.8305 91.9207 46.2525 88.7707 45.0345L88.5607 45.2865C88.3087 44.8665 87.6787 44.4045 87.2167 44.2365C87.4687 43.9005 87.6367 43.4805 87.8047 43.1025C88.1827 43.0185 88.5187 42.9345 88.8967 42.8925C89.6947 42.5145 90.6607 42.5985 91.5007 42.2205C92.6767 41.6745 94.5667 40.2465 95.0287 38.9865L94.6927 38.6505C94.7767 38.2725 94.8607 37.8945 94.8607 37.5165C94.8607 36.6765 94.5247 35.7945 93.8527 35.3325C93.6427 35.2905 93.3907 35.2905 93.1807 35.2905C92.1307 34.7025 91.2067 34.0725 89.9467 34.0725C88.6027 34.0725 87.3007 34.3245 85.9987 34.4505C85.7047 35.7945 85.6627 37.6005 85.6627 38.9445C85.6627 39.2805 85.4947 39.5745 85.4947 39.9105C85.4947 40.4145 85.8307 40.8345 86.1247 41.2125C86.0407 42.5985 85.9567 44.0265 85.9567 45.4125C85.9567 46.2525 86.0407 47.1345 86.1247 47.9745C85.9147 48.1845 85.6627 48.3525 85.4107 48.5205C85.6207 48.6045 85.8307 48.6465 86.0407 48.6885C86.2087 49.5705 86.3767 50.6625 86.3767 51.6285C86.3767 52.0065 86.3347 52.3425 86.2927 52.6785L86.5447 52.8885C86.5447 53.9385 86.6707 54.9885 86.8807 56.0385C86.7547 56.2065 86.6287 56.3745 86.5867 56.5845L87.1747 56.8785C87.9307 58.0965 88.6447 58.5585 89.7787 59.3565C89.1067 59.3565 88.3927 59.3985 87.7207 59.4405L87.4267 59.1045L87.0067 59.4405C86.7547 59.3985 86.4607 59.3985 86.2087 59.3985C85.5787 59.3985 84.9487 59.4405 84.2767 59.3985H84.1927C83.9827 59.3985 83.7727 59.2725 83.6467 59.1465C83.1427 59.3565 82.5967 59.2725 82.0927 59.4825C80.8327 59.4405 79.5307 59.3985 78.2707 59.3985C79.7827 58.7685 79.9927 58.2225 80.3287 56.6685L80.6647 56.3745L80.4127 55.8705L80.5387 54.9465C80.8747 54.4845 80.8747 53.8545 80.8747 53.3085C80.8747 52.8885 80.8327 52.4685 80.7067 52.0485C81.0847 51.5025 81.1267 50.2425 81.1267 48.9825V47.0925C81.1267 46.5045 81.1267 46.0005 81.1687 45.6645C81.2527 45.2025 81.6727 44.9925 81.6727 44.4885C81.6727 44.2365 81.4207 43.9425 81.4207 43.6485C81.4207 42.3885 81.1687 41.1705 81.1687 39.9105C81.1687 39.5325 81.2947 39.1545 81.2947 38.7765C81.2947 37.4745 80.8747 36.1725 81.0427 34.8705C80.5387 34.8705 79.9507 35.1645 79.4887 35.3745C79.2367 35.3325 78.9847 35.2905 78.7327 35.2905C78.2287 35.2905 77.7247 35.5425 77.2207 35.5425C77.3887 35.2065 78.1027 34.1145 77.9767 33.7785C78.8587 32.4345 79.8667 31.1745 80.7487 29.8305C81.2947 29.9985 81.7987 30.1245 82.3027 30.3765H82.7647L82.9747 30.5445C84.0667 30.3765 85.1167 30.4185 86.2087 30.4185C86.9227 30.4185 87.5947 30.2085 88.3087 30.2085C89.2327 30.2085 93.6847 30.4185 94.2727 30.5865C94.5247 30.6705 94.4827 30.8805 94.6927 31.0065L95.1127 30.5025C97.6327 30.9645 101.161 32.8545 101.161 35.8785C101.161 37.3905 100.405 39.2385 99.3967 40.3725C98.5987 41.2545 97.9687 41.8845 97.0447 42.6405L97.2967 42.8085C96.9187 43.3545 95.6167 44.3625 94.9867 44.5305C94.6927 44.6145 94.3987 44.6565 94.1047 44.7825C95.0287 45.4545 96.7507 48.3105 97.0867 48.5205C98.1367 50.3265 99.2707 52.0485 100.615 53.6445C100.531 53.8545 100.489 54.0645 100.447 54.2745C100.657 54.2325 100.867 54.2325 101.077 54.2325C101.665 54.9465 102.295 55.6185 103.093 56.1225L103.219 56.4165C103.849 56.5845 104.143 57.2565 104.647 57.6345C104.605 57.8445 104.605 58.0965 104.479 58.3065L105.025 58.1385C105.697 58.6005 106.411 58.9785 107.125 59.3145C106.495 59.4825 105.865 59.5665 105.235 59.5665C104.857 59.5665 104.479 59.4405 104.101 59.4405C103.933 59.4405 103.807 59.4825 103.639 59.5245C103.471 59.4825 103.261 59.4405 103.093 59.4405C102.967 59.4405 102.547 59.4825 102.631 59.6925ZM126.421 59.6505C125.959 59.4825 124.405 59.5245 123.859 59.5245H121.339L121.045 58.9365C120.835 59.0625 120.751 59.3985 120.499 59.4825C120.373 59.3145 120.079 59.2725 119.869 59.2725C119.323 59.2725 118.819 59.3985 118.273 59.3985C117.769 59.3985 116.761 59.2725 116.005 59.2725C115.711 59.2725 115.459 59.3145 115.291 59.3565C114.451 59.3565 113.611 59.2305 112.771 59.2305C112.183 59.2305 111.679 59.4405 111.091 59.4405C110.419 59.4405 109.747 59.3985 109.075 59.3985C108.613 59.3985 108.193 59.3985 107.731 59.4825L107.857 59.1465C108.697 58.4745 109.033 57.9285 109.579 57.0885L110.209 56.7525L109.705 56.2485C110.209 54.2745 110.923 52.3845 110.755 50.2845L111.133 49.5705C110.881 49.1925 110.629 48.8145 110.629 48.3105C110.629 47.4705 111.175 46.7145 111.175 45.8745C111.175 45.4545 111.133 44.9505 110.923 44.5725C111.091 43.3545 111.007 42.0945 111.259 40.8765C111.175 40.6665 111.091 40.4565 110.965 40.2885V40.0365C110.965 39.7425 111.049 39.4065 111.049 39.1125H111.175C111.049 38.0625 111.091 37.0545 111.007 36.0045L110.923 35.8785C110.965 35.7105 111.049 35.5425 111.133 35.3745C111.049 35.2065 110.797 35.1645 110.629 35.1645C109.747 35.1645 108.193 35.7105 107.311 36.0465C107.353 35.3745 107.731 34.1565 108.025 33.6105C108.109 33.4425 108.571 32.7285 108.571 32.6025C108.571 32.3925 108.445 32.1825 108.445 31.9725C108.445 31.6365 109.621 30.4185 109.831 29.9985C110.629 30.3765 111.595 30.2505 112.393 30.5865L112.687 31.0065C113.023 31.0065 113.191 30.5445 113.527 30.5445C114.451 30.5445 115.417 30.4185 116.341 30.4185C116.761 30.2085 119.617 30.2085 120.289 30.2085C120.415 30.2085 120.751 30.6705 120.835 30.7965L121.045 30.0825C121.801 30.0825 122.473 30.3345 123.229 30.3345C123.481 30.3345 123.565 30.6285 123.817 30.7125L124.069 30.3765H124.405C125.203 30.3765 126.001 30.4185 126.799 30.5445L126.925 30.5025C127.429 30.6285 129.319 29.6205 130.243 29.6205C129.907 31.3845 129.235 34.8285 128.017 36.1305L127.639 35.7105C127.093 35.5005 126.631 35.1645 126.085 34.9125C125.371 34.5765 122.599 34.4505 121.717 34.4505C121.591 34.4505 121.507 34.4925 121.381 34.4925C120.163 34.7025 118.945 34.6605 117.727 34.7025C117.013 34.7445 116.299 34.9545 115.585 35.0385C115.585 35.2065 115.627 35.4165 115.627 35.5845C115.627 35.9205 115.501 36.2565 115.501 36.5925C115.501 37.4745 115.501 38.3565 115.669 39.2385L115.501 39.6165C115.543 40.2885 115.543 40.8345 115.543 41.5065L116.299 41.3385L116.425 41.4225L118.063 41.2545L118.357 41.3805C119.029 41.2965 119.659 41.1285 120.331 41.1285C120.625 41.1285 120.835 41.4225 121.087 41.5065L121.465 41.0445L123.355 40.9185L123.481 41.0445C123.649 41.0445 123.817 41.0865 123.985 41.0865C124.069 41.0865 124.405 41.0025 124.489 40.9605L125.161 41.0865V41.2965L125.245 41.5065L125.161 41.7585C125.287 42.9345 125.623 44.0685 125.707 45.2445L125.623 45.4965L125.707 46.1685L125.623 46.2525C124.993 45.6645 124.153 45.1605 123.271 45.2025L122.935 44.7825L122.557 45.1605C121.297 45.0345 119.407 45.1185 118.231 44.6985C117.853 44.8665 116.257 44.9925 115.795 45.0345C115.837 45.4545 115.879 45.8745 115.879 46.2945C115.879 46.8405 115.837 47.3865 115.837 47.9745C115.837 48.5625 115.963 49.0665 116.047 49.6545L116.173 49.6965C116.257 50.3685 116.257 50.9985 116.299 51.6705C116.299 52.0905 116.467 52.4265 116.509 52.8045L115.921 53.4765L116.509 53.8125L117.055 55.0725C117.769 55.1145 118.483 55.1985 119.197 55.1985C121.045 55.1985 126.379 55.1985 127.807 54.4005L128.857 54.9465L130.201 55.0305L130.579 55.2825C130.747 56.0385 131.083 58.3905 131.419 58.8525L131.503 59.4825C130.705 59.4825 129.865 59.4405 129.067 59.4405C128.185 59.4405 127.303 59.4825 126.421 59.6505ZM129.697 54.4845H129.319C128.983 54.4845 128.605 54.4425 128.269 54.2745C128.899 53.8965 129.235 53.2245 129.613 52.6365C129.991 53.0145 130.159 53.6445 130.159 54.1905V54.3585C130.243 54.4845 129.739 54.4845 129.697 54.4845ZM151.244 60.2385L150.656 59.6085C150.656 59.1465 150.362 58.7685 150.026 58.4745C149.816 57.8445 149.564 57.2565 149.102 56.7945L149.27 55.8705L148.766 55.6605C148.178 53.8125 147.128 52.1745 146.372 50.4105C146.414 49.5705 143.642 44.7405 143.18 43.1865C143.096 44.8665 142.424 46.4625 142.046 48.1005C141.626 48.7305 141.5 53.0985 141.416 54.1485L141.29 54.3585C141.122 55.3245 141.122 56.3325 141.122 57.2985C141.122 57.3405 141.29 57.8865 141.332 57.9705C141.71 58.3905 141.668 59.1465 142.172 59.4825C141.29 59.4405 140.366 59.4405 139.484 59.4405C138.938 59.4405 138.392 59.4405 137.846 59.5665C137.594 59.5245 137.384 59.5245 137.132 59.5245H136.628C136.25 59.5245 135.83 59.5245 135.452 59.3565L133.436 59.4825L133.352 59.4405L133.772 58.7685L134.15 58.5585C134.36 57.0885 135.578 55.4925 135.914 53.8545L136.628 53.3925L136.25 52.3425C136.838 51.0825 136.586 49.7805 137.006 48.4785C137.3 47.5965 137.846 46.9245 137.972 45.9585C138.35 45.4125 138.35 44.4885 138.35 43.8165C138.35 42.8085 138.98 41.8845 139.148 40.8765C139.4 39.3225 139.778 37.7685 140.072 36.2145L139.988 35.8365C140.24 34.7445 140.618 33.6945 140.576 32.5605C140.744 32.0565 140.87 31.5525 140.996 31.0485C141.248 30.7965 141.374 30.3345 141.5 29.9985L141.962 29.7885L142.172 30.1665L143.138 30.8385C143.39 31.3425 143.768 31.7625 144.062 32.2665C144.356 32.7285 144.188 33.2745 144.356 33.7785C144.482 34.1145 144.86 34.2825 144.986 34.6185C144.986 36.0045 148.808 43.8585 148.808 44.9505C148.808 45.2865 148.724 44.9505 148.724 45.2865C148.724 45.3285 148.724 45.3705 148.766 45.4125L149.354 45.5805C149.69 46.3365 149.606 47.0505 150.11 47.7225C150.95 48.8565 151.454 50.1165 152.042 51.3765L153.05 49.6125C153.428 48.8985 153.47 48.1005 153.89 47.3865C154.814 45.8745 155.612 43.8165 156.662 42.4725C156.788 42.3045 157.166 42.1365 157.25 41.9685C157.376 41.7585 157.418 41.5065 157.418 41.2545C157.418 41.1285 157.418 41.0025 157.376 40.8765C157.712 39.9945 159.686 36.3825 159.686 35.9625L160.862 33.5685L161.366 33.1065L161.24 32.4765C161.534 31.5105 162.038 30.5865 162.5 29.7045L162.836 29.8725L163.088 30.3345C163.634 30.6705 164.18 30.9225 164.684 31.3005C165.23 32.7705 165.23 33.5685 165.23 35.0805C165.23 36.9285 165.524 38.9025 165.986 40.7085L165.776 41.1705C165.86 41.7165 166.238 42.1785 166.238 42.7245C166.238 43.4385 166.322 45.4125 166.742 45.9585C166.826 46.7145 167.036 47.5125 167.036 48.2685C167.036 48.4785 166.952 48.7725 166.91 48.9825C167.12 49.1505 167.456 49.3605 167.54 49.6125C167.96 50.7465 167.876 52.2585 168.338 53.5185C168.716 54.5265 168.8 55.8285 169.304 56.7525C169.766 57.5505 171.194 58.8105 171.908 59.4405C170.732 59.4405 169.556 59.7345 168.38 59.7345L167.96 58.9785C167.96 59.2725 167.792 59.6085 167.456 59.6085C166.742 59.6085 166.028 59.7765 165.356 59.7765H163.214C162.458 59.7765 161.744 59.7765 161.072 59.6505C161.618 59.4405 161.66 58.6005 162.038 58.1805C162.164 57.4665 162.794 56.9205 162.794 56.1645C162.794 55.5345 162.626 54.8625 162.626 54.2325C162.626 54.0645 162.752 53.8965 162.752 53.7285C162.752 51.7965 162.5 49.8645 162.5 47.9325C162.5 47.3865 161.66 44.1945 161.534 43.0605C161.072 44.5305 158.72 46.8825 158.72 48.0585C158.72 48.5205 156.578 52.1745 156.2 53.0145C156.074 53.3505 155.99 53.6865 155.864 54.0225C155.444 55.0725 154.646 55.9125 154.436 57.0465C154.1 57.4665 153.89 58.0125 153.596 58.4745C152.966 58.6425 152.546 58.7265 152.21 59.3565C151.832 59.5665 151.538 59.9025 151.244 60.2385ZM183.385 59.5665H182.167C181.621 59.5665 181.159 59.3145 180.655 59.1885C180.193 59.5245 179.857 59.3565 179.353 59.4825L178.681 59.2305C178.261 59.2725 177.925 59.4825 177.505 59.4825C176.917 59.4825 176.413 59.2305 175.825 59.3145L175.489 59.1885C175.195 58.6845 174.943 58.1805 174.775 57.6345L174.985 57.3825L174.859 57.2565C174.985 56.4165 175.363 55.9125 175.867 55.2405C177.043 53.6865 177.925 51.5025 178.303 49.6125L178.681 49.1085C178.639 48.9405 178.597 48.7305 178.597 48.5625C178.597 47.5545 179.983 44.1525 180.613 43.3125L180.571 42.5985C180.823 42.0525 181.075 42.3885 181.075 41.5905C181.075 41.4225 181.117 41.2545 181.201 41.0865C182.251 39.1965 183.973 34.2825 184.015 32.1825C184.267 31.8465 184.687 31.8045 184.981 31.5105L185.485 31.9305L185.863 31.5105C186.913 31.1745 187.039 31.1745 187.711 30.2505C187.879 30.1665 188.005 30.0825 188.173 29.9565H188.593L188.971 30.3345C189.265 30.3345 189.391 30.6285 189.433 30.8805C189.685 32.2245 190.147 33.4845 190.483 34.7865C191.197 35.3745 192.205 39.2805 192.415 40.3305L192.667 40.5405C192.667 41.1285 192.961 41.6325 193.213 42.1365L192.835 42.8505L193.507 43.0185C193.885 45.2445 195.691 50.6625 196.783 52.5945C197.077 53.0985 197.539 53.5605 197.749 54.1065L198.043 54.3165C198.463 55.0725 198.799 55.8705 199.177 56.6265C199.051 56.8365 198.925 57.0465 198.799 57.2985H199.471L201.403 59.3985C200.899 59.3565 200.395 59.3565 199.891 59.3565C199.681 59.3565 199.471 59.3145 199.261 59.3145C199.093 59.3145 198.925 59.3565 198.799 59.3985C198.505 59.3565 198.211 59.3145 197.917 59.3145C197.455 59.3145 196.993 59.3985 196.489 59.3985C196.237 59.3985 196.069 59.2725 195.817 59.2725C195.439 59.2725 195.061 59.3985 194.683 59.3985C194.179 59.3985 193.633 59.3565 193.129 59.2725C192.415 59.4405 191.659 59.4825 190.903 59.4825C190.525 59.4825 190.147 59.4405 189.769 59.4405C190.525 58.9365 190.777 58.7685 190.987 58.5585C191.197 58.3485 191.323 58.0125 191.785 57.2985C191.911 57.0885 192.079 56.9205 192.121 56.6685L191.785 56.2065C191.701 55.8705 191.659 55.5765 191.659 55.2405C191.659 54.9465 191.701 54.6105 191.743 54.3165C190.987 52.5945 190.399 50.3685 189.727 48.5625C188.173 48.6465 184.309 49.5705 183.091 50.4945C182.587 51.9225 182.293 53.3085 182.167 54.8205C181.915 54.9885 181.831 55.2825 181.663 55.5345C181.747 55.7025 181.789 55.9125 181.789 56.1225C181.789 56.4165 181.705 56.7105 181.663 57.0045C181.999 57.4665 181.999 58.0125 182.167 58.5165C182.587 58.8525 183.007 59.1885 183.385 59.5665ZM184.351 46.3785C185.821 46.0845 187.459 45.9585 188.803 45.2865C188.719 44.5305 188.383 43.8165 188.425 43.0605C188.005 42.4725 187.585 40.9185 187.543 40.2045C187.207 39.5745 187.207 38.8185 186.913 38.1885C186.703 38.5665 186.451 38.9445 186.199 39.2805C185.821 41.7165 184.981 44.0265 184.351 46.3785ZM173.767 59.7765C173.347 59.7765 172.927 59.7345 172.507 59.6925C173.053 59.1465 173.515 58.5585 173.893 57.9285L174.103 57.8025C174.103 57.8025 174.313 57.8865 174.439 57.9705C174.439 58.3905 174.775 58.6845 175.027 59.0205V59.4405C174.817 59.4405 174.565 59.5245 174.481 59.7345C174.229 59.7345 174.019 59.7765 173.767 59.7765ZM211.678 59.5665V59.6085C211.132 59.5245 210.166 59.5245 209.158 59.5245C207.73 59.5245 206.302 59.5245 205.798 59.3565C206.764 58.8525 207.562 58.9785 208.15 57.8865C208.276 57.6345 208.36 57.3825 208.486 57.1725L209.074 56.9625L208.57 56.5845L208.612 55.8285C208.906 55.5345 209.032 54.9045 209.032 54.5265C209.032 54.2745 208.822 54.0225 208.864 53.7705L209.284 49.2765C209.368 48.3945 209.662 47.5545 209.662 46.6725C209.578 46.4205 209.578 46.1685 209.578 45.9165C209.578 44.4045 209.284 42.8505 209.284 41.3385C209.284 41.0865 209.41 40.8345 209.452 40.5825C209.578 39.9525 209.578 39.3225 209.578 38.6925C209.578 38.1465 209.452 37.6425 209.452 37.0965C209.452 36.4665 209.662 35.8785 209.746 35.2905L209.62 35.0385C209.284 34.9965 208.948 34.9965 208.612 34.9965C208.024 34.9965 207.436 34.9545 206.848 34.9545C206.26 34.7025 205.546 34.7025 204.916 34.7025C204.118 34.7025 203.32 34.8705 202.564 34.8705C202.312 34.8705 201.934 34.6185 201.724 34.4925C201.598 34.7025 201.43 35.0385 201.178 35.1225C200.086 35.5005 198.91 35.3745 197.818 35.9205C197.776 35.9205 197.776 35.8785 197.734 35.8785C197.524 35.8785 197.356 36.0465 197.146 36.0465L197.062 36.0045L196.978 35.7525C197.23 35.2905 197.986 33.7365 198.28 33.4425C198.49 33.2745 198.784 33.0645 198.742 32.7705C199.162 32.0565 199.666 31.3425 199.918 30.5445C200.59 30.3345 201.136 29.8725 201.766 29.5785C201.85 29.5785 201.892 29.6205 201.976 29.6205C202.186 29.6205 202.354 29.6205 202.564 29.5365L202.648 29.4525H202.774C203.11 29.4525 203.656 29.5785 203.992 29.7045L204.244 30.3765C204.538 30.2925 204.664 29.8305 205 29.8305C205.672 29.8305 206.344 29.9145 207.016 29.9145L207.184 29.9985C208.276 29.9985 209.326 30.3765 210.418 30.3765L210.754 30.8805C211.258 30.7545 211.678 30.3765 212.182 30.3765C214.702 30.3765 217.222 30.7125 219.742 30.7125C221.128 30.7125 224.026 30.1665 225.37 29.7885C225.622 29.8725 225.874 30.0405 226.168 30.0825L226.42 29.7465C226.924 29.5365 227.428 29.3685 227.974 29.2005L228.394 29.2845C227.974 29.9565 227.512 30.8385 227.302 31.6365C227.008 32.0145 226.882 32.4765 226.756 32.8965C226.42 33.3165 226.084 33.7785 225.874 34.2825C225.496 34.5765 225.118 34.9545 224.782 35.2905C224.488 35.2905 224.236 35.2485 223.942 35.2485C223.48 35.2485 222.976 35.3325 222.514 35.4165C222.262 35.1645 221.632 35.1645 221.296 35.1645C220.75 35.1645 220.204 35.0805 219.658 35.0805C218.902 35.0805 218.188 35.3325 217.474 35.5005L217.18 35.2905C216.55 35.5425 215.878 35.6265 215.206 35.6265C214.87 35.6265 214.534 35.6265 214.24 35.5845L214.072 35.7945L214.156 36.0045V37.7265C214.156 38.9025 214.156 40.0785 214.282 41.1705C214.324 41.7165 214.408 42.2205 214.408 42.7665C214.408 43.7325 214.156 44.6565 214.156 45.6225C214.156 45.8325 214.282 46.0425 214.45 46.2105C214.45 46.7145 214.366 47.2185 214.366 47.7225C214.366 48.1425 214.66 48.5625 214.66 48.9825V50.2005C214.45 50.3685 214.198 50.4525 214.03 50.6625L214.702 51.0405C214.744 51.2085 214.744 51.3765 214.744 51.5025C214.744 51.9645 214.66 52.3845 214.66 52.8045C214.66 53.1825 214.702 53.6865 215.038 53.9385L214.912 54.2745L215.164 54.3585C215.416 55.0305 215.5 55.7025 215.668 56.3745C215.584 56.6265 215.458 56.8785 215.29 57.0885L215.626 57.1305C215.962 57.6765 216.298 58.2225 216.802 58.6425C217.222 58.9785 217.768 59.0205 218.188 59.3565C217.516 59.3565 216.844 59.3985 216.172 59.3985L215.836 59.0625L215.542 59.4405C215.164 59.4405 214.786 59.3565 214.408 59.3565C214.114 59.3565 213.778 59.3565 213.484 59.4825C213.064 59.3985 212.644 59.3985 212.224 59.3985C212.224 59.5245 211.762 59.5665 211.678 59.5665ZM243.588 59.7765H241.068C237.792 59.7765 232.878 58.0125 230.82 55.4505C230.568 55.1565 230.442 54.7785 230.232 54.4425C230.232 53.7285 229.182 51.9645 228.888 51.1665L229.266 50.1585L228.468 49.9485C227.838 48.0165 228.174 45.9585 227.754 43.9845L228.132 43.6485L227.754 43.2705C227.838 42.8925 228.006 42.5145 228.09 42.1365C228.804 37.9785 230.904 34.3245 234.558 32.0985C235.398 31.5945 236.322 31.2585 237.204 30.8385C237.414 30.9225 237.75 31.3005 237.918 31.3005C238.044 31.3005 238.086 30.7125 238.17 30.5865C238.884 30.5445 239.598 30.5025 240.27 30.2085C240.648 30.2085 241.068 30.1665 241.446 30.1665C242.328 30.1665 243.21 30.2925 244.092 30.2925C244.512 30.2925 244.932 30.1665 245.352 30.1665C246.78 30.1665 248.166 30.4605 249.594 30.6705V30.7125L250.308 30.5025L250.896 30.8805C250.686 31.7205 250.476 31.8885 250.518 32.8125L250.56 32.8965L250.224 34.8285L250.14 34.9125C249.93 35.4585 249.804 35.9625 249.72 36.5505L249.762 36.7185C249.552 37.0545 249.426 37.4325 249.342 37.8105C249.006 38.0205 248.796 38.3985 248.46 38.6085L248.082 38.3985C248.124 38.1465 248.208 37.9365 248.208 37.6845C248.208 35.0805 245.058 34.1145 242.916 34.1145C241.614 34.1145 240.396 34.6185 239.094 34.6605C238.38 35.0385 237.582 35.2905 236.91 35.7525L236.322 35.5845V35.7525C236.322 36.0045 236.406 36.2145 236.406 36.4665C235.062 36.9705 233.928 39.7845 233.844 41.1285C233.592 41.4225 233.298 42.1365 233.382 42.5145C233.34 42.6825 233.298 42.8925 233.298 43.0605C233.298 43.5225 233.55 43.9005 233.634 44.3625C233.55 44.6565 233.55 44.9925 233.55 45.2865C233.55 48.3105 234.264 50.0325 235.944 52.4685C237.582 54.8205 239.892 54.8625 242.496 54.9465L242.958 55.7445L243.42 54.9465C245.814 54.9465 247.998 54.0645 249.216 51.9225L249.51 51.7965C249.72 52.1745 249.762 52.6365 249.762 53.1405C249.762 53.6445 249.72 54.1485 249.72 54.5685C249.72 54.8625 249.804 55.1985 249.93 55.4505C249.93 55.5345 249.846 55.7025 249.846 55.7865C249.846 56.4165 249.972 57.0465 249.972 57.6765L249.93 57.7605L249.468 58.0965C248.838 58.3065 248.334 58.7265 247.746 59.0205C246.36 59.1885 245.016 59.7765 243.588 59.7765ZM261.17 59.1885L261.842 59.7345C260.708 59.6925 259.616 59.4405 258.482 59.4405C258.188 59.4405 257.852 59.4825 257.558 59.5245C256.928 59.3565 256.298 59.3145 255.668 59.3145C255.122 59.3145 254.576 59.3565 254.03 59.3985C254.24 59.2305 254.492 59.1465 254.66 58.9785C255.752 57.9285 256.844 55.2405 256.844 53.7705L257.39 53.1825C257.348 52.6365 257.012 52.1745 257.012 51.6285C257.012 50.7045 257.054 49.7805 257.054 48.8565C257.18 48.6465 257.264 48.4365 257.348 48.1845C257.306 47.9325 257.306 47.7225 257.306 47.4705C257.306 44.7825 257.726 42.0945 257.6 39.4065L257.726 39.3225C257.726 38.4405 257.642 37.5165 257.558 36.6345L258.02 36.0885L257.516 35.6265L257.18 33.1485L257.306 33.0225C257.18 32.7285 256.718 31.6785 256.508 31.5525C256.34 31.0905 256.046 30.7125 255.752 30.3345L255.878 30.2085C256.382 30.2925 256.928 30.2505 257.432 30.2505L257.978 30.9645L258.482 30.2925C258.902 30.3765 259.238 30.5025 259.7 30.5025C260.12 30.5025 260.582 30.4605 261.002 30.3345L261.128 30.2085C261.38 30.2505 261.674 30.3345 261.926 30.3345C262.766 30.3345 263.564 30.1665 264.404 30.0825V30.2085C263.06 31.4265 262.976 31.4265 262.766 33.2745C262.682 34.0725 262.388 34.8705 262.514 35.7105C262.262 36.9705 262.304 38.2725 262.304 39.5325V40.1205L262.43 40.2045L262.766 43.1865L262.64 43.3965L262.724 43.7325C262.808 43.7325 262.85 43.7745 262.934 43.7745C263.522 43.7745 264.026 43.3545 264.614 43.3125C265.832 43.2285 266.966 42.8085 268.184 42.7665C268.478 42.5985 270.2 42.3045 270.662 42.2205L270.788 42.0945C271.964 41.9265 273.182 41.8425 274.316 41.5485C274.358 41.2965 274.358 41.0025 274.358 40.7505V39.3225C274.358 38.3145 274.316 37.2225 274.106 36.4245C274.19 36.0465 274.4 35.7105 274.4 35.3325C274.4 34.8705 274.022 34.4505 274.022 33.9885C273.896 33.6105 273.896 33.2325 273.77 32.8545C273.518 32.1405 273.014 31.5525 272.846 30.7965L272.72 30.6705C272.678 30.5025 272.594 30.3345 272.468 30.2085L272.594 30.0405H272.93C273.434 30.0405 273.938 30.0825 274.442 30.0825L275.072 30.3345L275.24 30.5025L275.534 30.3765C275.954 30.4185 276.416 30.4185 276.836 30.4185C278.054 30.4185 279.272 30.2085 280.49 29.9565V30.1665L280.448 30.3345C279.356 31.0485 279.062 33.9465 279.02 35.1645L278.348 35.5005L278.936 35.9625C278.936 36.5505 278.894 37.0965 278.894 37.6845C278.894 38.0625 278.894 38.4405 278.978 38.7765C278.81 39.0285 278.81 39.3225 278.81 39.6165C278.81 41.9265 279.188 44.1945 279.188 46.5045C279.188 47.2605 279.23 48.0585 279.062 48.8145C279.146 49.1925 279.608 49.4445 279.608 49.8225C279.608 50.2845 279.398 50.6625 279.398 51.1245C279.398 51.7545 279.65 52.3845 279.776 53.0145C279.524 53.2665 279.314 53.5605 279.104 53.8125C279.314 53.9385 279.776 54.2745 279.776 54.5685C279.776 55.7865 280.826 57.7605 281.624 58.6425L280.994 58.5585C281.162 58.8525 281.498 59.0625 281.792 59.2305C281.372 59.2305 280.91 59.2305 280.49 59.1885C280.07 59.3985 279.608 59.5665 279.104 59.5665C278.138 59.5665 277.046 59.3985 276.08 59.3145L275.45 58.3905L275.114 59.4405C274.568 59.3985 273.938 59.3145 273.35 59.3145C273.014 59.3145 272.72 59.3565 272.426 59.3985C272.006 59.3145 271.586 59.3565 271.166 59.3565C272.132 58.7685 272.636 57.9705 272.888 56.8785C272.972 56.4165 273.308 56.0805 273.392 55.6185C273.518 54.9465 273.812 54.2745 273.812 53.6025C273.812 53.2665 273.854 52.9305 273.98 52.6365V52.3845C273.98 50.9145 274.274 49.4865 274.274 48.0165C274.274 47.7225 274.232 47.4285 274.232 47.1345C274.232 46.9245 274.274 46.7145 274.316 46.4625C273.77 46.0425 272.426 45.7905 271.754 45.7905C271.418 45.7905 271.208 45.3705 270.872 45.3705C270.536 45.3705 270.41 45.9585 270.032 46.0005C268.436 46.1685 266.798 46.3785 265.202 46.4625C265.076 46.4205 264.992 46.3785 264.866 46.3785C264.068 46.3785 263.312 46.8405 262.514 46.8825C262.22 47.5125 262.262 48.2265 262.136 48.8985C262.388 49.9065 262.388 50.9565 262.346 51.9645L262.43 52.1325V52.8465C262.64 53.0985 263.228 55.6605 263.354 56.1645L263.228 56.4165L263.396 56.5005L263.438 57.0885C263.774 57.5925 264.236 58.1385 264.236 58.8105C264.362 59.0205 264.572 59.2305 264.782 59.3565C264.11 59.3565 263.438 59.2725 262.766 59.1465C262.85 59.2725 262.934 59.3985 263.018 59.4825C262.388 59.4405 261.758 59.3565 261.17 59.1885Z" fill="white"/>
</svg>
