<svg width="287" height="309" viewBox="0 0 287 309" fill="none" xmlns="http://www.w3.org/2000/svg">
<mask id="path-1-inside-1_1481_8577" fill="white">
<path d="M70.6846 25.4297L81.2637 0H83.1094L90.9756 18.082L98.8428 0H235.91L243.302 16.752L250.694 0H254.12C254.717 0 255.303 0.0432135 255.877 0.125L266.463 25.5693V296.222C266.463 303.038 260.937 308.564 254.12 308.564H208.369L196.638 281.125L184.922 308.525L175.406 285.65L165.874 308.564H49.0254L38.9561 285.99L30.0332 305.99L19.6113 281.443V12.3428C19.6113 5.52616 25.1375 0 31.9541 0H60.1055L70.6846 25.4297Z"/>
</mask>
<path d="M70.6846 25.4297L81.2637 0H83.1094L90.9756 18.082L98.8428 0H235.91L243.302 16.752L250.694 0H254.12C254.717 0 255.303 0.0432135 255.877 0.125L266.463 25.5693V296.222C266.463 303.038 260.937 308.564 254.12 308.564H208.369L196.638 281.125L184.922 308.525L175.406 285.65L165.874 308.564H49.0254L38.9561 285.99L30.0332 305.99L19.6113 281.443V12.3428C19.6113 5.52616 25.1375 0 31.9541 0H60.1055L70.6846 25.4297Z" fill="url(#paint0_linear_1481_8577)"/>
<path d="M70.6846 25.4297L67.2658 26.8519L70.6846 35.0698L74.1033 26.8519L70.6846 25.4297ZM81.2637 0V-3.70277H78.7937L77.8449 -1.42224L81.2637 0ZM83.1094 0L86.5048 -1.4771L85.5365 -3.70277L83.1094 -3.70277V0ZM90.9756 18.082L87.5802 19.5591L90.9754 27.3636L94.3709 19.5593L90.9756 18.082ZM98.8428 0V-3.70277H96.4157L95.4474 -1.47725L98.8428 0ZM235.91 0L239.298 -1.49476L238.324 -3.70277L235.91 -3.70277V0ZM243.302 16.752L239.914 18.2467L243.302 25.9238L246.689 18.2469L243.302 16.752ZM250.694 0V-3.70277H248.281L247.307 -1.49493L250.694 0ZM255.877 0.125L259.296 -1.29733L258.486 -3.24335L256.399 -3.54073L255.877 0.125ZM266.463 25.5693H270.166V24.8298L269.882 24.147L266.463 25.5693ZM208.369 308.564L204.964 310.02L205.925 312.267H208.369V308.564ZM196.638 281.125L200.042 279.669L196.638 271.706L193.233 279.669L196.638 281.125ZM184.922 308.525L181.503 309.948L184.875 318.053L188.326 309.981L184.922 308.525ZM175.406 285.65L178.825 284.228L175.406 276.01L171.987 284.228L175.406 285.65ZM165.874 308.564V312.267H168.344L169.293 309.987L165.874 308.564ZM49.0254 308.564L45.6438 310.073L46.6226 312.267H49.0254V308.564ZM38.9561 285.99L42.3377 284.482L38.9564 276.901L35.5746 284.482L38.9561 285.99ZM30.0332 305.99L26.6249 307.437L29.9491 315.267L33.4147 307.499L30.0332 305.99ZM19.6113 281.443H15.9086V282.197L16.203 282.89L19.6113 281.443ZM60.1055 0L63.5242 -1.42224L62.5755 -3.70277H60.1055V0ZM70.6846 25.4297L74.1033 26.8519L84.6824 1.42224L81.2637 0L77.8449 -1.42224L67.2658 24.0074L70.6846 25.4297ZM81.2637 0V3.70277H83.1094V0V-3.70277H81.2637V0ZM83.1094 0L79.714 1.4771L87.5802 19.5591L90.9756 18.082L94.371 16.6049L86.5048 -1.4771L83.1094 0ZM90.9756 18.082L94.3709 19.5593L102.238 1.47725L98.8428 0L95.4474 -1.47725L87.5803 16.6048L90.9756 18.082ZM98.8428 0V3.70277H235.91V0V-3.70277H98.8428V0ZM235.91 0L232.523 1.49476L239.914 18.2467L243.302 16.752L246.689 15.2572L239.298 -1.49476L235.91 0ZM243.302 16.752L246.689 18.2469L254.082 1.49493L250.694 0L247.307 -1.49493L239.914 15.257L243.302 16.752ZM250.694 0V3.70277H254.12V0V-3.70277H250.694V0ZM254.12 0V3.70277C254.537 3.70277 254.949 3.73299 255.355 3.79073L255.877 0.125L256.399 -3.54073C255.657 -3.64656 254.896 -3.70277 254.12 -3.70277V0ZM255.877 0.125L252.458 1.54733L263.044 26.9917L266.463 25.5693L269.882 24.147L259.296 -1.29733L255.877 0.125ZM266.463 25.5693H262.76V296.222H266.463H270.166V25.5693H266.463ZM266.463 296.222H262.76C262.76 300.993 258.892 304.862 254.12 304.862V308.564V312.267C262.982 312.267 270.166 305.083 270.166 296.222H266.463ZM254.12 308.564V304.862H208.369V308.564V312.267H254.12V308.564ZM208.369 308.564L211.774 307.109L200.042 279.669L196.638 281.125L193.233 282.581L204.964 310.02L208.369 308.564ZM196.638 281.125L193.233 279.669L181.517 307.07L184.922 308.525L188.326 309.981L200.042 282.581L196.638 281.125ZM184.922 308.525L188.341 307.103L178.825 284.228L175.406 285.65L171.987 287.073L181.503 309.948L184.922 308.525ZM175.406 285.65L171.987 284.228L162.455 307.142L165.874 308.564L169.293 309.987L178.825 287.073L175.406 285.65ZM165.874 308.564V304.862H49.0254V308.564V312.267H165.874V308.564ZM49.0254 308.564L52.407 307.056L42.3377 284.482L38.9561 285.99L35.5744 287.499L45.6438 310.073L49.0254 308.564ZM38.9561 285.99L35.5746 284.482L26.6517 304.482L30.0332 305.99L33.4147 307.499L42.3376 287.499L38.9561 285.99ZM30.0332 305.99L33.4415 304.543L23.0196 279.996L19.6113 281.443L16.203 282.89L26.6249 307.437L30.0332 305.99ZM19.6113 281.443H23.3141V12.3428H19.6113H15.9086V281.443H19.6113ZM19.6113 12.3428H23.3141C23.3141 7.57114 27.1825 3.70277 31.9541 3.70277V0V-3.70277C23.0925 -3.70277 15.9086 3.48118 15.9086 12.3428H19.6113ZM31.9541 0V3.70277H60.1055V0V-3.70277H31.9541V0ZM60.1055 0L56.6867 1.42224L67.2658 26.8519L70.6846 25.4297L74.1033 24.0074L63.5242 -1.42224L60.1055 0Z" fill="url(#paint1_linear_1481_8577)" mask="url(#path-1-inside-1_1481_8577)"/>
<mask id="mask0_1481_8577" style="mask-type:alpha" maskUnits="userSpaceOnUse" x="19" y="0" width="248" height="309">
<mask id="path-3-inside-2_1481_8577" fill="white">
<path d="M70.6846 25.4297L81.2637 0H83.1094L90.9756 18.082L98.8428 0H235.91L243.302 16.752L250.694 0H254.12C254.717 0 255.303 0.0432135 255.877 0.125L266.463 25.5693V296.222C266.463 303.038 260.937 308.564 254.12 308.564H208.369L196.638 281.125L184.922 308.525L175.406 285.65L165.874 308.564H49.0254L38.9561 285.99L30.0332 305.99L19.6113 281.443V12.3428C19.6113 5.52616 25.1375 0 31.9541 0H60.1055L70.6846 25.4297Z"/>
</mask>
<path d="M70.6846 25.4297L81.2637 0H83.1094L90.9756 18.082L98.8428 0H235.91L243.302 16.752L250.694 0H254.12C254.717 0 255.303 0.0432135 255.877 0.125L266.463 25.5693V296.222C266.463 303.038 260.937 308.564 254.12 308.564H208.369L196.638 281.125L184.922 308.525L175.406 285.65L165.874 308.564H49.0254L38.9561 285.99L30.0332 305.99L19.6113 281.443V12.3428C19.6113 5.52616 25.1375 0 31.9541 0H60.1055L70.6846 25.4297Z" fill="url(#paint2_linear_1481_8577)"/>
<path d="M70.6846 25.4297L67.2658 26.8519L70.6846 35.0698L74.1033 26.8519L70.6846 25.4297ZM81.2637 0V-3.70277H78.7937L77.8449 -1.42224L81.2637 0ZM83.1094 0L86.5048 -1.4771L85.5365 -3.70277L83.1094 -3.70277V0ZM90.9756 18.082L87.5802 19.5591L90.9754 27.3636L94.3709 19.5593L90.9756 18.082ZM98.8428 0V-3.70277H96.4157L95.4474 -1.47725L98.8428 0ZM235.91 0L239.298 -1.49476L238.324 -3.70277L235.91 -3.70277V0ZM243.302 16.752L239.914 18.2467L243.302 25.9238L246.689 18.2469L243.302 16.752ZM250.694 0V-3.70277H248.281L247.307 -1.49493L250.694 0ZM255.877 0.125L259.296 -1.29733L258.486 -3.24335L256.399 -3.54073L255.877 0.125ZM266.463 25.5693H270.166V24.8298L269.882 24.147L266.463 25.5693ZM208.369 308.564L204.964 310.02L205.925 312.267H208.369V308.564ZM196.638 281.125L200.042 279.669L196.638 271.706L193.233 279.669L196.638 281.125ZM184.922 308.525L181.503 309.948L184.875 318.053L188.326 309.981L184.922 308.525ZM175.406 285.65L178.825 284.228L175.406 276.01L171.987 284.228L175.406 285.65ZM165.874 308.564V312.267H168.344L169.293 309.987L165.874 308.564ZM49.0254 308.564L45.6438 310.073L46.6226 312.267H49.0254V308.564ZM38.9561 285.99L42.3377 284.482L38.9564 276.901L35.5746 284.482L38.9561 285.99ZM30.0332 305.99L26.6249 307.437L29.9491 315.267L33.4147 307.499L30.0332 305.99ZM19.6113 281.443H15.9086V282.197L16.203 282.89L19.6113 281.443ZM60.1055 0L63.5242 -1.42224L62.5755 -3.70277H60.1055V0ZM70.6846 25.4297L74.1033 26.8519L84.6824 1.42224L81.2637 0L77.8449 -1.42224L67.2658 24.0074L70.6846 25.4297ZM81.2637 0V3.70277H83.1094V0V-3.70277H81.2637V0ZM83.1094 0L79.714 1.4771L87.5802 19.5591L90.9756 18.082L94.371 16.6049L86.5048 -1.4771L83.1094 0ZM90.9756 18.082L94.3709 19.5593L102.238 1.47725L98.8428 0L95.4474 -1.47725L87.5803 16.6048L90.9756 18.082ZM98.8428 0V3.70277H235.91V0V-3.70277H98.8428V0ZM235.91 0L232.523 1.49476L239.914 18.2467L243.302 16.752L246.689 15.2572L239.298 -1.49476L235.91 0ZM243.302 16.752L246.689 18.2469L254.082 1.49493L250.694 0L247.307 -1.49493L239.914 15.257L243.302 16.752ZM250.694 0V3.70277H254.12V0V-3.70277H250.694V0ZM254.12 0V3.70277C254.537 3.70277 254.949 3.73299 255.355 3.79073L255.877 0.125L256.399 -3.54073C255.657 -3.64656 254.896 -3.70277 254.12 -3.70277V0ZM255.877 0.125L252.458 1.54733L263.044 26.9917L266.463 25.5693L269.882 24.147L259.296 -1.29733L255.877 0.125ZM266.463 25.5693H262.76V296.222H266.463H270.166V25.5693H266.463ZM266.463 296.222H262.76C262.76 300.993 258.892 304.862 254.12 304.862V308.564V312.267C262.982 312.267 270.166 305.083 270.166 296.222H266.463ZM254.12 308.564V304.862H208.369V308.564V312.267H254.12V308.564ZM208.369 308.564L211.774 307.109L200.042 279.669L196.638 281.125L193.233 282.581L204.964 310.02L208.369 308.564ZM196.638 281.125L193.233 279.669L181.517 307.07L184.922 308.525L188.326 309.981L200.042 282.581L196.638 281.125ZM184.922 308.525L188.341 307.103L178.825 284.228L175.406 285.65L171.987 287.073L181.503 309.948L184.922 308.525ZM175.406 285.65L171.987 284.228L162.455 307.142L165.874 308.564L169.293 309.987L178.825 287.073L175.406 285.65ZM165.874 308.564V304.862H49.0254V308.564V312.267H165.874V308.564ZM49.0254 308.564L52.407 307.056L42.3377 284.482L38.9561 285.99L35.5744 287.499L45.6438 310.073L49.0254 308.564ZM38.9561 285.99L35.5746 284.482L26.6517 304.482L30.0332 305.99L33.4147 307.499L42.3376 287.499L38.9561 285.99ZM30.0332 305.99L33.4415 304.543L23.0196 279.996L19.6113 281.443L16.203 282.89L26.6249 307.437L30.0332 305.99ZM19.6113 281.443H23.3141V12.3428H19.6113H15.9086V281.443H19.6113ZM19.6113 12.3428H23.3141C23.3141 7.57114 27.1825 3.70277 31.9541 3.70277V0V-3.70277C23.0925 -3.70277 15.9086 3.48118 15.9086 12.3428H19.6113ZM31.9541 0V3.70277H60.1055V0V-3.70277H31.9541V0ZM60.1055 0L56.6867 1.42224L67.2658 26.8519L70.6846 25.4297L74.1033 24.0074L63.5242 -1.42224L60.1055 0Z" fill="url(#paint3_linear_1481_8577)" mask="url(#path-3-inside-2_1481_8577)"/>
</mask>
<g mask="url(#mask0_1481_8577)">
<g style="mix-blend-mode:overlay">
<rect x="19.6113" width="246.852" height="308.562" fill="url(#paint4_linear_1481_8577)"/>
</g>
<rect x="19.6113" y="-0.214844" width="246.852" height="308.777" fill="url(#paint5_radial_1481_8577)" fill-opacity="0.2"/>
<path d="M113.628 56.264C64.1337 55.778 45.2263 111.537 41.9593 139.477C40.7972 147.759 41.6245 158.942 46.4815 169.848C52.2471 182.793 63.6908 195.349 84.2253 202.2C87.9955 203.458 92.0722 204.524 96.4764 205.365C104.685 206.931 114.032 207.716 124.654 207.505C125.479 207.489 126.295 207.47 127.104 207.449C141.042 207.089 152.58 206.06 162.229 204.469C170.762 203.062 177.816 201.215 183.745 199.003C205.382 190.929 215.311 174.707 219.599 166.203C223.887 157.7 224.141 156.405 224.847 151.626C226.978 137.205 223.52 116.979 216.198 98.5701C212.507 90.9398 208.878 83.8556 205.463 77.5236C199.349 68.1126 194.485 63.5535 184.071 56.264C160.969 40.0921 131.188 37.8399 120.366 36.8281C124.245 39.6626 132.004 46.4249 132.004 50.7978C112.893 43.5091 99.9476 45.7362 95.8639 47.7608C99.335 46.7485 107.747 47.0319 113.628 56.264Z" fill="#F2E9DD"/>
<path d="M56.0347 259.742C43.7732 284.524 56.3993 285.455 64.2451 282.823C64.9966 277.247 66.1204 271.464 67.6864 265.485C61.3159 265.22 57.2642 261.546 56.0347 259.742Z" fill="#F2E9DD"/>
<path d="M199.998 294.971C206.203 294.168 208.856 289.524 209.714 284.362C209.899 283.254 210 282.123 210.036 281.001C210.138 277.854 209.727 274.778 209.186 272.497C208.505 268.898 207.587 265.011 206.496 260.957C201.404 265.33 186.662 268.246 179.927 269.157L183.745 281.001C184.652 284.197 186.201 288.929 189.584 292.018C191.353 293.633 193.623 294.798 196.565 295.06C197.62 295.153 198.762 295.131 199.998 294.971Z" fill="#F2E9DD"/>
<path d="M41.9593 139.477C28.279 185.698 13.292 281.525 62.7861 295.06C62.9052 295.092 63.0255 295.124 63.1469 295.157C63.3189 291.167 63.6748 287.054 64.2451 282.823C56.3993 285.455 43.7732 284.524 56.0347 259.742C47.4623 245.678 36.4018 213.155 46.4815 169.848C41.6245 158.942 40.7972 147.759 41.9593 139.477Z" fill="#F2E9DD"/>
<path d="M224.847 151.626C233.92 185.842 243.489 257.92 209.186 272.497C209.727 274.778 210.138 277.854 210.036 281.001C213.428 279.854 220.947 279.059 223.887 285.051C227.175 284.8 230.645 284.275 234.301 283.43C281.517 262.188 246.735 161.692 216.198 98.5701C223.52 116.979 226.978 137.205 224.847 151.626Z" fill="#F2E9DD"/>
<path d="M209.714 284.362C208.856 289.524 206.203 294.168 199.998 294.971C198.762 295.131 197.62 295.153 196.565 295.06C197.249 298.532 196.688 313.454 196.322 320.482C199.714 322.304 206.667 323.762 207.348 315.015C230.013 320.482 234.301 295.578 218.374 293.756C225.725 292.784 225.112 287.548 223.887 285.051C220.947 279.059 213.428 279.854 210.036 281.001C210 282.123 209.899 283.254 209.714 284.362Z" fill="#F2E9DD"/>
<path d="M101.898 394.698C103.351 394.698 105.53 388.554 106.438 385.481C97.6836 385.92 84.9491 386.164 80.1085 384.869V390.197C79.0492 390.197 76.9308 390.737 76.9308 392.898C78.2926 395.599 100.083 394.698 101.898 394.698Z" fill="#F2E9DD"/>
<path d="M152.219 382.754C153.444 386.9 156.384 395.191 158.344 395.191C160.794 395.191 190.197 396.406 192.035 392.762C192.035 389.846 189.176 389.117 187.747 389.117V381.928C181.215 383.675 164.032 383.346 152.219 382.754Z" fill="#F2E9DD"/>
<path d="M224.847 151.626C224.141 156.405 223.887 157.7 219.599 166.203C215.311 174.707 205.382 190.929 183.745 199.003C189.363 211.502 200.519 238.741 206.496 260.957C207.587 265.011 208.505 268.898 209.186 272.497C243.489 257.92 233.92 185.842 224.847 151.626Z" fill="#DB867D"/>
<path d="M144.256 368.466C160.917 372.839 182.234 369.276 189.584 366.644C191.203 361.829 193.768 342.324 195.418 328.378C179.993 322.547 169.584 305.37 166.307 297.51C133.737 303.395 102.824 301.891 81.7751 298.828C79.2901 305.641 72.4915 320.36 65.1774 324.733C69.4654 348.34 75.3091 365.268 78.7466 373.542C84.1941 375.493 99.9918 378.134 112.339 374.893C112.339 369.548 119.958 344.443 124.041 333.039C126.637 333.761 129.191 334.296 131.392 334.452C136.782 341.254 142.214 359.962 144.256 368.466Z" fill="#00755F"/>
<path fill-rule="evenodd" clip-rule="evenodd" d="M183.745 281.001L179.927 269.157L176.108 257.312L168.355 225.121C168.68 222.084 172.213 212.608 183.745 199.003C177.816 201.215 170.762 203.062 162.229 204.469C155.908 212.042 152.367 216.278 146.093 222.691C144.868 223.906 142.295 226.578 139.355 225.121C135.925 224.149 129.758 212.935 127.104 207.449C123.429 212.53 114.975 222.691 110.565 222.691C106.645 221.719 98.5589 212.162 95.006 207.505C80.8222 228.387 72.3192 247.797 67.6864 265.485C66.1204 271.464 64.9966 277.247 64.2451 282.823C77.8342 287.075 120.759 292.663 183.745 281.001ZM93.4136 264.601C92.1397 258.77 94.9246 243.95 96.4764 237.268C111.586 235.851 144.378 233.867 154.669 237.268C154.179 252.818 153.648 263.589 153.444 266.423C143.302 273 137.576 276.443 127.104 281.001C122.816 283.43 116.193 284.038 113.015 282.216C107.012 278.774 94.6875 270.432 93.4136 264.601Z" fill="#00755F"/>
<path d="M176.108 257.312L179.927 269.157C186.662 268.246 201.404 265.33 206.496 260.957C200.519 238.741 189.363 211.502 183.745 199.003C172.213 212.608 168.68 222.084 168.355 225.121L176.108 257.312Z" fill="#E96A98"/>
<path d="M183.745 281.001C120.759 292.663 77.8342 287.075 64.2451 282.823C63.6748 287.054 63.3189 291.167 63.1469 295.157C67.7954 296.4 74.1356 297.717 81.7751 298.828C102.824 301.891 133.737 303.395 166.307 297.51C174.01 296.118 181.805 294.313 189.584 292.018C186.201 288.929 184.652 284.197 183.745 281.001Z" fill="#00755F"/>
<path d="M65.1774 324.733C72.4915 320.36 79.2901 305.641 81.7751 298.828C74.1356 297.717 67.7954 296.4 63.1469 295.157C62.6817 305.942 63.5598 315.828 65.1774 324.733Z" fill="#00755F"/>
<path d="M112.339 374.893C99.9918 378.134 84.1941 375.493 78.7466 373.542C76.9308 371.742 74.207 381.645 78.7466 384.345C79.0783 384.543 79.5387 384.717 80.1085 384.869C84.9491 386.164 97.6836 385.92 106.438 385.481C107.936 385.406 109.318 385.325 110.524 385.246C111.886 383.595 114.155 379.214 112.339 374.893Z" fill="#00755F"/>
<path d="M189.584 366.644C182.234 369.276 160.917 372.839 144.256 368.466C141.805 374.297 144.868 380.209 146.706 382.436C148.333 382.543 150.197 382.652 152.219 382.754C164.032 383.346 181.215 383.675 187.747 381.928C188.516 381.722 189.137 381.487 189.584 381.221C195.71 377.577 192.035 364.214 189.584 366.644Z" fill="#00755F"/>
<path d="M196.322 320.482C196.688 313.454 197.249 298.532 196.565 295.06C193.623 294.798 191.353 293.633 189.584 292.018C181.805 294.313 174.01 296.118 166.307 297.51C169.584 305.37 179.993 322.547 195.418 328.378C195.766 325.435 196.073 322.739 196.322 320.482Z" fill="#00755F"/>
<path d="M96.4764 237.268C94.9246 243.95 92.1397 258.77 93.4136 264.601C94.6875 270.432 107.012 278.774 113.015 282.216C116.193 284.038 122.816 283.43 127.104 281.001C137.576 276.443 143.302 273 153.444 266.423C153.648 263.589 154.179 252.818 154.669 237.268C144.378 233.867 111.586 235.851 96.4764 237.268Z" fill="#04A183"/>
<path d="M46.4815 169.848C36.4018 213.155 47.4623 245.678 56.0347 259.742C62.573 242.842 77.3647 207.674 84.2253 202.2C63.6908 195.349 52.2471 182.793 46.4815 169.848Z" fill="#DB867D"/>
<path d="M96.4764 205.365C92.0722 204.524 87.9955 203.458 84.2253 202.2C77.3647 207.674 62.573 242.842 56.0347 259.742C57.2642 261.546 61.3159 265.22 67.6864 265.485C72.3192 247.797 80.8222 228.387 95.006 207.505C95.4895 206.793 95.9796 206.08 96.4764 205.365Z" fill="#E96A98"/>
<path d="M124.654 207.505C114.032 207.716 104.685 206.931 96.4764 205.365C95.9796 206.08 95.4895 206.793 95.006 207.505C98.5589 212.162 106.645 221.719 110.565 222.691C114.975 222.691 123.429 212.53 127.104 207.449C126.295 207.47 125.479 207.489 124.654 207.505Z" fill="#E96A98"/>
<path d="M127.104 207.449C129.758 212.935 135.925 224.149 139.355 225.121C142.295 226.578 144.868 223.906 146.093 222.691C152.367 216.278 155.908 212.042 162.229 204.469C152.58 206.06 141.042 207.089 127.104 207.449Z" fill="#E96A98"/>
<path d="M41.9593 139.477C45.2263 111.537 64.1337 55.778 113.628 56.264C107.747 47.0319 99.335 46.7485 95.8639 47.7608C99.9476 45.7362 112.893 43.5091 132.004 50.7978C132.004 46.4249 124.245 39.6626 120.366 36.8281C131.188 37.8399 160.969 40.0921 184.071 56.264C194.485 63.5535 199.349 68.1126 205.463 77.5236M41.9593 139.477C28.279 185.698 13.292 281.525 62.7861 295.06C62.9052 295.092 63.0255 295.124 63.1469 295.157M41.9593 139.477C40.7972 147.759 41.6245 158.942 46.4815 169.848M205.463 77.5236C208.878 83.8556 212.507 90.9398 216.198 98.5701M205.463 77.5236C209.603 83.8966 213.22 91.083 216.198 98.5701M166.307 216.617L168.355 225.121M224.847 151.626C224.141 156.405 223.887 157.7 219.599 166.203C215.311 174.707 205.382 190.929 183.745 199.003M224.847 151.626C233.92 185.842 243.489 257.92 209.186 272.497M224.847 151.626C226.978 137.205 223.52 116.979 216.198 98.5701M209.186 272.497C208.505 268.898 207.587 265.011 206.496 260.957M209.186 272.497C209.727 274.778 210.138 277.854 210.036 281.001M183.745 199.003C189.363 211.502 200.519 238.741 206.496 260.957M183.745 199.003C172.213 212.608 168.68 222.084 168.355 225.121M183.745 199.003C177.816 201.215 170.762 203.062 162.229 204.469M183.745 281.001L179.927 269.157M183.745 281.001C120.759 292.663 77.8342 287.075 64.2451 282.823M183.745 281.001C184.652 284.197 186.201 288.929 189.584 292.018M179.927 269.157L176.108 257.312L168.355 225.121M179.927 269.157C186.662 268.246 201.404 265.33 206.496 260.957M210.036 281.001C210 282.123 209.899 283.254 209.714 284.362C208.856 289.524 206.203 294.168 199.998 294.971C198.762 295.131 197.62 295.153 196.565 295.06M210.036 281.001C213.428 279.854 220.947 279.059 223.887 285.051M223.887 285.051C227.175 284.8 230.645 284.275 234.301 283.43C281.517 262.188 246.735 161.693 216.198 98.5701M223.887 285.051C225.112 287.548 225.725 292.784 218.374 293.756C234.301 295.578 230.013 320.482 207.348 315.015C206.667 323.762 199.714 322.304 196.322 320.482M196.322 320.482C196.688 313.454 197.249 298.532 196.565 295.06M196.322 320.482C196.073 322.739 195.766 325.435 195.418 328.378M189.584 366.644C182.234 369.276 160.917 372.839 144.256 368.466M189.584 366.644C192.035 364.214 195.71 377.577 189.584 381.221C189.137 381.487 188.516 381.722 187.747 381.928M189.584 366.644C191.203 361.829 193.768 342.324 195.418 328.378M196.565 295.06C193.623 294.798 191.353 293.633 189.584 292.018M144.256 368.466C141.805 374.297 144.868 380.209 146.706 382.436C148.333 382.543 150.197 382.652 152.219 382.754M144.256 368.466C142.214 359.962 136.782 341.254 131.392 334.452C129.191 334.296 126.637 333.761 124.041 333.039M152.219 382.754C153.444 386.899 156.384 395.191 158.344 395.191C160.794 395.191 190.197 396.406 192.035 392.762C192.035 389.846 189.176 389.117 187.747 389.117V381.928M152.219 382.754C164.032 383.346 181.215 383.675 187.747 381.928M46.4815 169.848C36.4018 213.155 47.4623 245.678 56.0347 259.742M46.4815 169.848C52.2471 182.793 63.6908 195.349 84.2253 202.2M78.7466 373.542C75.3091 365.268 69.4654 348.34 65.1774 324.733M78.7466 373.542C84.1941 375.493 99.9918 378.134 112.339 374.893M78.7466 373.542C76.9308 371.742 74.207 381.645 78.7466 384.345C79.0783 384.543 79.5387 384.717 80.1085 384.869M96.4764 205.365C104.685 206.931 114.032 207.716 124.654 207.505C125.479 207.489 126.295 207.47 127.104 207.449M96.4764 205.365C92.0722 204.524 87.9955 203.458 84.2253 202.2M96.4764 205.365C95.9796 206.08 95.4895 206.793 95.006 207.505M64.2451 282.823C56.3993 285.455 43.7732 284.524 56.0347 259.742M64.2451 282.823C64.9966 277.247 66.1204 271.464 67.6864 265.485M64.2451 282.823C63.6748 287.054 63.3189 291.167 63.1469 295.157M56.0347 259.742C62.573 242.842 77.3647 207.674 84.2253 202.2M56.0347 259.742C57.2642 261.546 61.3159 265.22 67.6864 265.485M67.6864 265.485C72.3192 247.797 80.8222 228.387 95.006 207.505M95.006 207.505C98.5589 212.162 106.645 221.719 110.565 222.691C114.975 222.691 123.429 212.53 127.104 207.449M127.104 207.449C129.758 212.935 135.925 224.149 139.355 225.121C142.295 226.578 144.868 223.906 146.093 222.691C152.367 216.278 155.908 212.042 162.229 204.469M127.104 207.449C141.042 207.089 152.58 206.06 162.229 204.469M189.584 292.018C181.805 294.313 174.01 296.118 166.307 297.51M81.7751 298.828C79.2901 305.641 72.4915 320.36 65.1774 324.733M81.7751 298.828C102.824 301.891 133.737 303.395 166.307 297.51M81.7751 298.828C74.1356 297.717 67.7954 296.4 63.1469 295.157M65.1774 324.733C63.5598 315.828 62.6817 305.942 63.1469 295.157M166.307 297.51C169.584 305.37 179.993 322.547 195.418 328.378M109.952 327.77C112.865 329.145 118.546 331.511 124.041 333.039M124.041 333.039C119.958 344.443 112.339 369.548 112.339 374.893M112.339 374.893C114.155 379.214 111.886 383.595 110.524 385.246C109.318 385.325 107.936 385.406 106.438 385.481M106.438 385.481C105.53 388.554 103.351 394.698 101.898 394.698C100.083 394.698 78.2926 395.599 76.9308 392.898C76.9308 390.737 79.0492 390.197 80.1085 390.197V384.869M106.438 385.481C97.6836 385.92 84.9491 386.164 80.1085 384.869M96.4764 237.268C94.9246 243.95 92.1397 258.77 93.4136 264.601C94.6875 270.432 107.012 278.774 113.015 282.216C116.193 284.038 122.816 283.43 127.104 281.001C137.576 276.443 143.302 273 153.444 266.423C153.648 263.589 154.179 252.818 154.669 237.268C144.378 233.867 111.586 235.851 96.4764 237.268Z" stroke="#503C3C" stroke-width="2.00902" stroke-linecap="round"/>
<path d="M110.771 268.259C110.332 272.812 112.476 271.819 114.446 270.688C120.335 267.307 129.283 260.52 128.968 254.896C128.867 253.11 127.834 251.442 125.472 250.037C123.278 248.731 121.37 248.497 119.721 249.016C114.006 250.815 111.405 261.659 110.771 268.259Z" fill="#F96B35"/>
<path d="M119.721 249.016C121.37 248.497 123.278 248.731 125.472 250.037C127.834 251.442 128.867 253.11 128.968 254.896C132.821 256.718 135.883 250.653 131.596 247.616C136.496 243.974 126.083 237.292 124.858 243.364C118.732 239.72 116.282 247.607 119.721 249.016Z" fill="#5FBE50"/>
<path d="M119.721 249.016C114.006 250.815 111.405 261.659 110.771 268.259C110.332 272.812 112.476 271.819 114.446 270.688C120.335 267.307 129.283 260.52 128.968 254.896M119.721 249.016C121.37 248.497 123.278 248.731 125.472 250.037C127.834 251.442 128.867 253.11 128.968 254.896M119.721 249.016C116.282 247.607 118.732 239.72 124.858 243.364C126.083 237.292 136.496 243.974 131.596 247.616C135.883 250.653 132.821 256.718 128.968 254.896" stroke="#503C3C" stroke-width="2.00902"/>
<path d="M102.001 215.751C101.524 215.098 100.509 215.208 100.244 215.972C99.1397 219.149 97.5513 224.675 97.2773 228.81C97.2366 229.425 97.7768 229.896 98.3871 229.814C113.236 227.817 144.39 228.756 153.531 229.827C154.143 229.899 154.674 229.425 154.703 228.81C154.914 224.35 156.276 219.424 157.872 215.127C158.295 213.987 156.186 212.638 155.38 213.549C149.909 219.734 146.071 223.456 141.953 225.728C138.123 227.242 130.314 208.721 126.026 209.328C121.738 209.935 113.775 222.691 110.1 222.691C107.431 222.691 103.794 218.207 102.001 215.751Z" fill="#E96A98" stroke="#503C3C" stroke-width="2.00902"/>
<path d="M167.68 225.73C170.254 250.845 175.03 298.01 187.281 290.722C181.307 285.794 170.683 244.723 167.68 225.73Z" fill="#2A5375" fill-opacity="0.5"/>
<path d="M56.2287 281.495C57.4864 285.052 62.5144 283.224 63.5457 282.215C66.5353 254.905 85.2906 220.236 94.8408 206.012C91.7231 205.682 93.5608 206.115 91.7231 205.508C83.0213 214.633 54.4755 270.873 56.1935 281.361C56.2013 281.408 56.2125 281.45 56.2287 281.495Z" fill="#775959" fill-opacity="0.5"/>
<path d="M126.638 207.509C97.0316 209.736 38.7983 199.248 42.7187 139.48C44.9766 155.461 63.4344 198.522 126.638 207.509Z" fill="#503C3C" fill-opacity="0.3"/>
<path d="M75.7965 214.186C42.9637 205.44 37.2055 169.037 41.4934 145.551C39.5333 179.565 68.0373 197.382 82.5344 202.038C78.2467 209.327 79.4718 206.898 75.7965 214.186Z" fill="#503C3C" fill-opacity="0.3" stroke="#503C3C" stroke-opacity="0.3" stroke-width="2.00902"/>
<path d="M226.486 139.48C228.446 173.495 197.492 194.348 182.995 199.005C192.382 218.488 209.029 263.499 211.172 280.396C214.235 277.966 210.559 223.301 201.371 206.901C225.477 182.24 228.325 150.304 226.486 139.48Z" fill="#503C3C" fill-opacity="0.3" stroke="#503C3C" stroke-opacity="0.3" stroke-width="2.00902"/>
<path d="M114.388 56.8707C112.428 51.5256 105.813 48.1647 102.75 47.1523C111.571 47.6383 121.943 55.0485 125.414 58.6928C124.802 58.0855 120.759 56.8707 114.388 56.8707Z" fill="#503C3C" fill-opacity="0.3" stroke="#503C3C" stroke-opacity="0.3" stroke-width="2.00902"/>
<path d="M133.378 52.013C131.418 46.668 124.802 39.0553 121.739 38.043C130.56 38.5289 143.383 53.2278 146.854 56.8722C146.241 56.2648 140.116 53.8352 133.378 52.013Z" fill="#503C3C" fill-opacity="0.3" stroke="#503C3C" stroke-opacity="0.3" stroke-width="2.00902"/>
<path d="M109.487 227.551C102.627 227.065 87.4356 195.966 95.3988 208.721C103.362 221.477 108.907 224.484 110.713 223.906C115.899 222.51 122.98 210.566 126.026 210.543C129.073 210.521 136.685 226.943 141.953 226.943C147.22 226.943 156.041 212.973 162.779 205.684C145.628 234.839 141.953 228.765 138.89 228.765C135.827 228.765 130.927 220.262 126.026 212.973C116.226 222.084 116.348 228.037 109.487 227.551Z" fill="#503C3C" fill-opacity="0.3" stroke="#503C3C" stroke-opacity="0.3" stroke-width="2.00902"/>
<path d="M100.216 125.451C97.2154 135.065 91.6739 141.905 83.0798 139.268C75.0361 136.8 73.8084 127.883 76.8086 118.269C79.8089 108.655 84.8367 101.819 94.0247 103.64C101.988 106.071 103.216 115.838 100.216 125.451Z" fill="black"/>
<path d="M160.861 121.404C160.147 131.443 162.814 139.808 171.788 140.436C180.187 141.024 184.588 133.154 185.302 123.115C186.017 113.076 183.827 104.898 174.598 103.297C166.287 102.703 161.576 111.366 160.861 121.404Z" fill="black"/>
<path d="M67.6846 104.857C69.1139 96.9607 76.9954 83.1121 97.0871 90.8868" stroke="black" stroke-width="2.00902" stroke-linecap="round"/>
<path d="M192.084 106.26C191.173 98.2891 184.211 83.964 163.654 90.4339" stroke="black" stroke-width="2.00902" stroke-linecap="round"/>
<mask id="path-24-inside-3_1481_8577" fill="white">
<ellipse cx="62.7847" cy="140.09" rx="1.2251" ry="1.21479"/>
</mask>
<ellipse cx="62.7847" cy="140.09" rx="1.2251" ry="1.21479" fill="black"/>
<path d="M64.0098 140.09H62.0008C62.0008 139.635 62.3678 139.296 62.7847 139.296V141.305V143.314C64.5548 143.314 66.0188 141.886 66.0188 140.09H64.0098ZM62.7847 141.305V139.296C63.2016 139.296 63.5686 139.635 63.5686 140.09H61.5596H59.5506C59.5506 141.886 61.0146 143.314 62.7847 143.314V141.305ZM61.5596 140.09H63.5686C63.5686 140.544 63.2016 140.884 62.7847 140.884V138.875V136.866C61.0146 136.866 59.5506 138.293 59.5506 140.09H61.5596ZM62.7847 138.875V140.884C62.3678 140.884 62.0008 140.544 62.0008 140.09H64.0098H66.0188C66.0188 138.293 64.5548 136.866 62.7847 136.866V138.875Z" fill="#503C3C" mask="url(#path-24-inside-3_1481_8577)"/>
<mask id="path-26-inside-4_1481_8577" fill="white">
<ellipse cx="1.2251" cy="1.21479" rx="1.2251" ry="1.21479" transform="matrix(-1 0 0 1 193.869 142.52)"/>
</mask>
<ellipse cx="1.2251" cy="1.21479" rx="1.2251" ry="1.21479" transform="matrix(-1 0 0 1 193.869 142.52)" fill="black"/>
<path d="M191.419 143.734H193.428C193.428 143.28 193.061 142.94 192.644 142.94V144.949V146.958C190.874 146.958 189.41 145.531 189.41 143.734H191.419ZM192.644 144.949V142.94C192.227 142.94 191.86 143.28 191.86 143.734H193.869H195.878C195.878 145.531 194.414 146.958 192.644 146.958V144.949ZM193.869 143.734H191.86C191.86 144.189 192.227 144.529 192.644 144.529V142.52V140.511C194.414 140.511 195.878 141.938 195.878 143.734H193.869ZM192.644 142.52V144.529C193.061 144.529 193.428 144.189 193.428 143.734H191.419H189.41C189.41 141.938 190.874 140.511 192.644 140.511V142.52Z" fill="#503C3C" mask="url(#path-26-inside-4_1481_8577)"/>
<mask id="path-28-inside-5_1481_8577" fill="white">
<ellipse cx="65.2349" cy="152.234" rx="1.2251" ry="1.21479"/>
</mask>
<ellipse cx="65.2349" cy="152.234" rx="1.2251" ry="1.21479" fill="black"/>
<path d="M66.46 152.234H64.451C64.451 151.78 64.818 151.44 65.2349 151.44V153.449V155.458C67.005 155.458 68.469 154.031 68.469 152.234H66.46ZM65.2349 153.449V151.44C65.6518 151.44 66.0188 151.78 66.0188 152.234H64.0098H62.0007C62.0007 154.031 63.4648 155.458 65.2349 155.458V153.449ZM64.0098 152.234H66.0188C66.0188 152.689 65.6518 153.029 65.2349 153.029V151.02V149.011C63.4648 149.011 62.0007 150.438 62.0007 152.234H64.0098ZM65.2349 151.02V153.029C64.818 153.029 64.451 152.689 64.451 152.234H66.46H68.469C68.469 150.438 67.005 149.011 65.2349 149.011V151.02Z" fill="#503C3C" mask="url(#path-28-inside-5_1481_8577)"/>
<mask id="path-30-inside-6_1481_8577" fill="white">
<ellipse cx="1.2251" cy="1.21479" rx="1.2251" ry="1.21479" transform="matrix(-1 0 0 1 191.42 154.664)"/>
</mask>
<ellipse cx="1.2251" cy="1.21479" rx="1.2251" ry="1.21479" transform="matrix(-1 0 0 1 191.42 154.664)" fill="black"/>
<path d="M188.97 155.879H190.979C190.979 155.424 190.612 155.085 190.195 155.085V157.094V159.103C188.425 159.103 186.961 157.675 186.961 155.879H188.97ZM190.195 157.094V155.085C189.778 155.085 189.411 155.424 189.411 155.879H191.42H193.429C193.429 157.675 191.965 159.103 190.195 159.103V157.094ZM191.42 155.879H189.411C189.411 156.333 189.778 156.673 190.195 156.673V154.664V152.655C191.965 152.655 193.429 154.082 193.429 155.879H191.42ZM190.195 154.664V156.673C190.612 156.673 190.979 156.333 190.979 155.879H188.97H186.961C186.961 154.082 188.425 152.655 190.195 152.655V154.664Z" fill="#503C3C" mask="url(#path-30-inside-6_1481_8577)"/>
<mask id="path-32-inside-7_1481_8577" fill="white">
<ellipse cx="73.811" cy="141.301" rx="1.2251" ry="1.21479"/>
</mask>
<ellipse cx="73.811" cy="141.301" rx="1.2251" ry="1.21479" fill="black"/>
<path d="M75.0361 141.301H73.0271C73.0271 140.846 73.3941 140.506 73.811 140.506V142.516V144.525C75.5812 144.525 77.0452 143.097 77.0452 141.301H75.0361ZM73.811 142.516V140.506C74.2279 140.506 74.595 140.846 74.595 141.301H72.5859H70.5769C70.5769 143.097 72.0409 144.525 73.811 144.525V142.516ZM72.5859 141.301H74.595C74.595 141.755 74.2279 142.095 73.811 142.095V140.086V138.077C72.0409 138.077 70.5769 139.504 70.5769 141.301H72.5859ZM73.811 140.086V142.095C73.3941 142.095 73.0271 141.755 73.0271 141.301H75.0361H77.0452C77.0452 139.504 75.5812 138.077 73.811 138.077V140.086Z" fill="#503C3C" mask="url(#path-32-inside-7_1481_8577)"/>
<mask id="path-34-inside-8_1481_8577" fill="white">
<ellipse cx="1.2251" cy="1.21479" rx="1.2251" ry="1.21479" transform="matrix(-1 0 0 1 182.844 143.73)"/>
</mask>
<ellipse cx="1.2251" cy="1.21479" rx="1.2251" ry="1.21479" transform="matrix(-1 0 0 1 182.844 143.73)" fill="black"/>
<path d="M180.394 144.945H182.403C182.403 144.491 182.036 144.151 181.619 144.151V146.16V148.169C179.849 148.169 178.385 146.742 178.385 144.945H180.394ZM181.619 146.16V144.151C181.202 144.151 180.835 144.491 180.835 144.945H182.844H184.853C184.853 146.742 183.389 148.169 181.619 148.169V146.16ZM182.844 144.945H180.835C180.835 145.4 181.202 145.739 181.619 145.739V143.73V141.721C183.389 141.721 184.853 143.149 184.853 144.945H182.844ZM181.619 143.73V145.739C182.036 145.739 182.403 145.4 182.403 144.945H180.394H178.385C178.385 143.149 179.849 141.721 181.619 141.721V143.73Z" fill="#503C3C" mask="url(#path-34-inside-8_1481_8577)"/>
<path d="M110.639 133.763C109.979 134.156 108.658 135.557 108.658 138.019C108.658 140.481 117.594 148.036 122.062 151.506L137.646 139.721C138.526 138.564 139.759 135.923 137.646 134.614C135.005 132.977 120.94 128.721 110.639 133.763Z" fill="#DB867D"/>
<path d="M122.202 151.628C117.302 148.186 107.746 140.452 108.726 137.051M122.202 151.628L137.516 139.48M122.202 151.628V158.31M122.202 158.31L117.915 163.169M122.202 158.31L127.103 163.169" stroke="black" stroke-width="2.00902" stroke-linecap="round"/>
<path d="M110.564 133.404C114.648 131.582 125.756 129.274 137.517 134.619" stroke="black" stroke-width="2.00902" stroke-linecap="round"/>
</g>
<defs>
<linearGradient id="paint0_linear_1481_8577" x1="143.037" y1="0" x2="143.037" y2="308.564" gradientUnits="userSpaceOnUse">
<stop stop-color="#012721"/>
<stop offset="1" stop-color="#308979"/>
</linearGradient>
<linearGradient id="paint1_linear_1481_8577" x1="143.037" y1="0" x2="143.037" y2="308.564" gradientUnits="userSpaceOnUse">
<stop stop-color="#01745F"/>
<stop offset="1" stop-color="#012721"/>
</linearGradient>
<linearGradient id="paint2_linear_1481_8577" x1="143.037" y1="0" x2="143.037" y2="474.004" gradientUnits="userSpaceOnUse">
<stop stop-color="#C0DA92"/>
<stop offset="1" stop-color="#005B43"/>
</linearGradient>
<linearGradient id="paint3_linear_1481_8577" x1="143.037" y1="0" x2="143.037" y2="474.004" gradientUnits="userSpaceOnUse">
<stop stop-color="#A9BE83"/>
<stop offset="1" stop-color="#106D54"/>
</linearGradient>
<linearGradient id="paint4_linear_1481_8577" x1="143.037" y1="0" x2="143.037" y2="308.562" gradientUnits="userSpaceOnUse">
<stop stop-color="#01745F"/>
<stop offset="1" stop-color="#012721"/>
</linearGradient>
<radialGradient id="paint5_radial_1481_8577" cx="0" cy="0" r="1" gradientUnits="userSpaceOnUse" gradientTransform="translate(143.037 154.174) rotate(90) scale(154.389 123.426)">
<stop stop-color="#666666"/>
<stop offset="1"/>
</radialGradient>
</defs>
</svg>
