<svg width="287" height="309" viewBox="0 0 287 309" fill="none" xmlns="http://www.w3.org/2000/svg">
<mask id="path-1-inside-1_1481_11373" fill="white">
<path d="M70.9102 25.8672L81.4893 0.4375H83.335L91.2012 18.5195L99.0684 0.4375H236.136L243.527 17.1895L250.92 0.4375H254.346C254.942 0.4375 255.529 0.480713 256.103 0.5625L266.688 26.0068V296.659C266.688 303.476 261.162 309.002 254.346 309.002H208.595L196.863 281.562L185.147 308.963L175.632 286.088L166.1 309.002H49.251L39.1816 286.428L30.2588 306.428L19.8369 281.881V12.7803C19.8369 5.96366 25.3631 0.4375 32.1797 0.4375H60.3311L70.9102 25.8672Z"/>
</mask>
<path d="M70.9102 25.8672L81.4893 0.4375H83.335L91.2012 18.5195L99.0684 0.4375H236.136L243.527 17.1895L250.92 0.4375H254.346C254.942 0.4375 255.529 0.480713 256.103 0.5625L266.688 26.0068V296.659C266.688 303.476 261.162 309.002 254.346 309.002H208.595L196.863 281.562L185.147 308.963L175.632 286.088L166.1 309.002H49.251L39.1816 286.428L30.2588 306.428L19.8369 281.881V12.7803C19.8369 5.96366 25.3631 0.4375 32.1797 0.4375H60.3311L70.9102 25.8672Z" fill="url(#paint0_linear_1481_11373)"/>
<path d="M70.9102 25.8672L67.4914 27.2894L70.9102 35.5073L74.3289 27.2894L70.9102 25.8672ZM81.4893 0.4375V-3.26527H79.0193L78.0705 -0.984741L81.4893 0.4375ZM83.335 0.4375L86.7304 -1.0396L85.7621 -3.26527L83.335 -3.26527V0.4375ZM91.2012 18.5195L87.8058 19.9966L91.201 27.8011L94.5965 19.9968L91.2012 18.5195ZM99.0684 0.4375V-3.26527H96.6413L95.673 -1.03975L99.0684 0.4375ZM236.136 0.4375L239.523 -1.05726L238.549 -3.26527L236.136 -3.26527V0.4375ZM243.527 17.1895L240.14 18.6842L243.527 26.3613L246.915 18.6844L243.527 17.1895ZM250.92 0.4375V-3.26527H248.507L247.532 -1.05743L250.92 0.4375ZM256.103 0.5625L259.521 -0.859826L258.712 -2.80585L256.625 -3.10323L256.103 0.5625ZM266.688 26.0068H270.391V25.2673L270.107 24.5845L266.688 26.0068ZM208.595 309.002L205.19 310.458L206.151 312.705H208.595V309.002ZM196.863 281.562L200.268 280.107L196.863 272.144L193.459 280.107L196.863 281.562ZM185.147 308.963L181.729 310.385L185.101 318.491L188.552 310.419L185.147 308.963ZM175.632 286.088L179.051 284.666L175.632 276.447L172.213 284.666L175.632 286.088ZM166.1 309.002V312.705H168.57L169.518 310.424L166.1 309.002ZM49.251 309.002L45.8694 310.51L46.8482 312.705H49.251V309.002ZM39.1816 286.428L42.5633 284.919L39.182 277.339L35.8001 284.919L39.1816 286.428ZM30.2588 306.428L26.8505 307.875L30.1747 315.704L33.6403 307.936L30.2588 306.428ZM19.8369 281.881H16.1341V282.634L16.4286 283.328L19.8369 281.881ZM60.3311 0.4375L63.7498 -0.984741L62.8011 -3.26527H60.3311V0.4375ZM70.9102 25.8672L74.3289 27.2894L84.908 1.85974L81.4893 0.4375L78.0705 -0.984741L67.4914 24.4449L70.9102 25.8672ZM81.4893 0.4375V4.14027H83.335V0.4375V-3.26527H81.4893V0.4375ZM83.335 0.4375L79.9396 1.9146L87.8058 19.9966L91.2012 18.5195L94.5966 17.0424L86.7304 -1.0396L83.335 0.4375ZM91.2012 18.5195L94.5965 19.9968L102.464 1.91475L99.0684 0.4375L95.673 -1.03975L87.8058 17.0423L91.2012 18.5195ZM99.0684 0.4375V4.14027H236.136V0.4375V-3.26527H99.0684V0.4375ZM236.136 0.4375L232.748 1.93226L240.14 18.6842L243.527 17.1895L246.915 15.6947L239.523 -1.05726L236.136 0.4375ZM243.527 17.1895L246.915 18.6844L254.308 1.93243L250.92 0.4375L247.532 -1.05743L240.14 15.6945L243.527 17.1895ZM250.92 0.4375V4.14027H254.346V0.4375V-3.26527H250.92V0.4375ZM254.346 0.4375V4.14027C254.763 4.14027 255.175 4.17049 255.58 4.22823L256.103 0.5625L256.625 -3.10323C255.882 -3.20906 255.121 -3.26527 254.346 -3.26527V0.4375ZM256.103 0.5625L252.684 1.98483L263.27 27.4292L266.688 26.0068L270.107 24.5845L259.521 -0.859826L256.103 0.5625ZM266.688 26.0068H262.986V296.659H266.688H270.391V26.0068H266.688ZM266.688 296.659H262.986C262.986 301.431 259.117 305.299 254.346 305.299V309.002V312.705C263.207 312.705 270.391 305.521 270.391 296.659H266.688ZM254.346 309.002V305.299H208.595V309.002V312.705H254.346V309.002ZM208.595 309.002L211.999 307.546L200.268 280.107L196.863 281.562L193.459 283.018L205.19 310.458L208.595 309.002ZM196.863 281.562L193.459 280.107L181.743 307.507L185.147 308.963L188.552 310.419L200.268 283.018L196.863 281.562ZM185.147 308.963L188.566 307.541L179.051 284.666L175.632 286.088L172.213 287.51L181.729 310.385L185.147 308.963ZM175.632 286.088L172.213 284.666L162.681 307.58L166.1 309.002L169.518 310.424L179.051 287.51L175.632 286.088ZM166.1 309.002V305.299H49.251V309.002V312.705H166.1V309.002ZM49.251 309.002L52.6326 307.494L42.5633 284.919L39.1816 286.428L35.8 287.936L45.8694 310.51L49.251 309.002ZM39.1816 286.428L35.8001 284.919L26.8773 304.919L30.2588 306.428L33.6403 307.936L42.5631 287.936L39.1816 286.428ZM30.2588 306.428L33.6671 304.981L23.2452 280.434L19.8369 281.881L16.4286 283.328L26.8505 307.875L30.2588 306.428ZM19.8369 281.881H23.5397V12.7803H19.8369H16.1341V281.881H19.8369ZM19.8369 12.7803H23.5397C23.5397 8.00864 27.4081 4.14027 32.1797 4.14027V0.4375V-3.26527C23.3181 -3.26527 16.1341 3.91868 16.1341 12.7803H19.8369ZM32.1797 0.4375V4.14027H60.3311V0.4375V-3.26527H32.1797V0.4375ZM60.3311 0.4375L56.9123 1.85974L67.4914 27.2894L70.9102 25.8672L74.3289 24.4449L63.7498 -0.984741L60.3311 0.4375Z" fill="url(#paint1_linear_1481_11373)" mask="url(#path-1-inside-1_1481_11373)"/>
<mask id="mask0_1481_11373" style="mask-type:alpha" maskUnits="userSpaceOnUse" x="19" y="0" width="248" height="309">
<mask id="path-3-inside-2_1481_11373" fill="white">
<path d="M70.9863 25.4561L81.5645 0H83.4111L91.2773 18.1006L99.1436 0H236.212L243.604 16.7686L250.995 0H254.421C255.018 0 255.605 0.0430347 256.18 0.125L266.764 25.5938V296.563C266.764 303.38 261.238 308.906 254.421 308.906H208.669L196.938 281.437L185.222 308.867L175.706 285.967L166.174 308.906H49.3232L39.2559 286.311L30.334 306.331L19.9121 281.757V12.3428C19.9121 5.52616 25.4383 0 32.2549 0H60.4082L70.9863 25.4561Z"/>
</mask>
<path d="M70.9863 25.4561L81.5645 0H83.4111L91.2773 18.1006L99.1436 0H236.212L243.604 16.7686L250.995 0H254.421C255.018 0 255.605 0.0430347 256.18 0.125L266.764 25.5938V296.563C266.764 303.38 261.238 308.906 254.421 308.906H208.669L196.938 281.437L185.222 308.867L175.706 285.967L166.174 308.906H49.3232L39.2559 286.311L30.334 306.331L19.9121 281.757V12.3428C19.9121 5.52616 25.4383 0 32.2549 0H60.4082L70.9863 25.4561Z" fill="url(#paint2_linear_1481_11373)"/>
<path d="M70.9863 25.4561L81.5645 0H83.4111L91.2773 18.1006L99.1436 0H236.212L243.604 16.7686L250.995 0H254.421C255.018 0 255.605 0.0430347 256.18 0.125L266.764 25.5938V296.563C266.764 303.38 261.238 308.906 254.421 308.906H208.669L196.938 281.437L185.222 308.867L175.706 285.967L166.174 308.906H49.3232L39.2559 286.311L30.334 306.331L19.9121 281.757V12.3428C19.9121 5.52616 25.4383 0 32.2549 0H60.4082L70.9863 25.4561Z" fill="url(#paint3_linear_1481_11373)"/>
<path d="M70.9863 25.4561L67.567 26.8769L70.9863 35.1054L74.4056 26.8769L70.9863 25.4561ZM81.5645 0V-3.70277H79.0934L78.1452 -1.42087L81.5645 0ZM83.4111 0L86.8071 -1.47582L85.8393 -3.70277H83.4111V0ZM91.2773 18.1006L87.8814 19.5764L91.2773 27.3907L94.6733 19.5764L91.2773 18.1006ZM99.1436 0V-3.70277H96.7154L95.7476 -1.47582L99.1436 0ZM236.212 0L239.6 -1.49352L238.626 -3.70277H236.212V0ZM243.604 16.7686L240.215 18.2621L243.604 25.9485L246.992 18.2621L243.604 16.7686ZM250.995 0V-3.70277H248.581L247.607 -1.49352L250.995 0ZM256.18 0.125L259.599 -1.29594L258.79 -3.24286L256.703 -3.54065L256.18 0.125ZM266.764 25.5938H270.466V24.855L270.183 24.1728L266.764 25.5938ZM208.669 308.906L205.264 310.361L206.224 312.609H208.669V308.906ZM196.938 281.437L200.343 279.982L196.938 272.009L193.532 279.982L196.938 281.437ZM185.222 308.867L181.802 310.288L185.175 318.404L188.627 310.322L185.222 308.867ZM175.706 285.967L179.125 284.546L175.706 276.317L172.287 284.546L175.706 285.967ZM166.174 308.906V312.609H168.645L169.593 310.327L166.174 308.906ZM49.3232 308.906L45.941 310.413L46.9193 312.609H49.3232V308.906ZM39.2559 286.311L42.6381 284.804L39.2562 277.213L35.8737 284.803L39.2559 286.311ZM30.334 306.331L26.9251 307.777L30.2499 315.616L33.7161 307.838L30.334 306.331ZM19.9121 281.757H16.2093V282.51L16.5032 283.203L19.9121 281.757ZM60.4082 0L63.8275 -1.42087L62.8793 -3.70277H60.4082V0ZM70.9863 25.4561L74.4056 26.8769L84.9838 1.42087L81.5645 0L78.1452 -1.42087L67.567 24.0352L70.9863 25.4561ZM81.5645 0V3.70277H83.4111V0V-3.70277H81.5645V0ZM83.4111 0L80.0152 1.47582L87.8814 19.5764L91.2773 18.1006L94.6733 16.6248L86.8071 -1.47582L83.4111 0ZM91.2773 18.1006L94.6733 19.5764L102.54 1.47582L99.1436 0L95.7476 -1.47582L87.8814 16.6248L91.2773 18.1006ZM99.1436 0V3.70277H236.212V0V-3.70277H99.1436V0ZM236.212 0L232.824 1.49352L240.215 18.2621L243.604 16.7686L246.992 15.275L239.6 -1.49352L236.212 0ZM243.604 16.7686L246.992 18.2621L254.383 1.49352L250.995 0L247.607 -1.49352L240.215 15.275L243.604 16.7686ZM250.995 0V3.70277H254.421V0V-3.70277H250.995V0ZM254.421 0V3.70277C254.84 3.70277 255.252 3.73295 255.657 3.79065L256.18 0.125L256.703 -3.54065C255.958 -3.64688 255.196 -3.70277 254.421 -3.70277V0ZM256.18 0.125L252.76 1.54594L263.344 27.0147L266.764 25.5938L270.183 24.1728L259.599 -1.29594L256.18 0.125ZM266.764 25.5938H263.061V296.563H266.764H270.466V25.5938H266.764ZM266.764 296.563H263.061C263.061 301.335 259.193 305.203 254.421 305.203V308.906V312.609C263.282 312.609 270.466 305.425 270.466 296.563H266.764ZM254.421 308.906V305.203H208.669V308.906V312.609H254.421V308.906ZM208.669 308.906L212.074 307.452L200.343 279.982L196.938 281.437L193.532 282.891L205.264 310.361L208.669 308.906ZM196.938 281.437L193.532 279.982L181.816 307.413L185.222 308.867L188.627 310.322L200.343 282.891L196.938 281.437ZM185.222 308.867L188.641 307.446L179.125 284.546L175.706 285.967L172.287 287.388L181.802 310.288L185.222 308.867ZM175.706 285.967L172.287 284.546L162.755 307.485L166.174 308.906L169.593 310.327L179.125 287.388L175.706 285.967ZM166.174 308.906V305.203H49.3232V308.906V312.609H166.174V308.906ZM49.3232 308.906L52.7055 307.399L42.6381 284.804L39.2559 286.311L35.8736 287.817L45.941 310.413L49.3232 308.906ZM39.2559 286.311L35.8737 284.803L26.9518 304.824L30.334 306.331L33.7161 307.838L42.638 287.818L39.2559 286.311ZM30.334 306.331L33.7429 304.885L23.321 280.311L19.9121 281.757L16.5032 283.203L26.9251 307.777L30.334 306.331ZM19.9121 281.757H23.6149V12.3428H19.9121H16.2093V281.757H19.9121ZM19.9121 12.3428H23.6149C23.6149 7.57114 27.4833 3.70277 32.2549 3.70277V0V-3.70277C23.3933 -3.70277 16.2093 3.48118 16.2093 12.3428H19.9121ZM32.2549 0V3.70277H60.4082V0V-3.70277H32.2549V0ZM60.4082 0L56.9889 1.42087L67.567 26.8769L70.9863 25.4561L74.4056 24.0352L63.8275 -1.42087L60.4082 0Z" fill="url(#paint4_linear_1481_11373)" mask="url(#path-3-inside-2_1481_11373)"/>
</mask>
<g mask="url(#mask0_1481_11373)">
<g style="mix-blend-mode:overlay">
<rect x="19.9121" y="0.4375" width="246.852" height="308.117" fill="url(#paint5_linear_1481_11373)"/>
</g>
<rect x="19.9121" y="0.4375" width="246.852" height="308.562" fill="url(#paint6_radial_1481_11373)" fill-opacity="0.2"/>
<path d="M113.853 55.764C64.3593 55.278 45.4518 111.037 42.1849 138.977C41.0228 147.259 41.8501 158.442 46.7071 169.348C52.4726 182.293 63.9163 194.849 84.4509 201.7C88.2211 202.958 92.2977 204.024 96.702 204.865C104.911 206.431 114.258 207.216 124.879 207.005C125.704 206.989 126.521 206.97 127.33 206.949C141.268 206.589 152.806 205.56 162.454 203.969C170.987 202.562 178.042 200.715 183.971 198.503C205.608 190.429 215.537 174.207 219.825 165.703C224.113 157.2 224.366 155.905 225.073 151.126C227.203 136.705 223.746 116.479 216.424 98.0701C212.733 90.4398 209.103 83.3556 205.688 77.0236C199.574 67.6126 194.71 63.0535 184.297 55.764C161.195 39.5921 131.413 37.3399 120.592 36.3281C124.471 39.1626 132.23 45.9249 132.23 50.2978C113.118 43.0091 100.173 45.2362 96.0895 47.2608C99.5606 46.2485 107.973 46.5319 113.853 55.764Z" fill="#F2E9DD"/>
<path d="M56.2603 259.242C43.9987 284.024 56.6249 284.955 64.4706 282.323C65.2222 276.747 66.346 270.964 67.912 264.985C61.5415 264.72 57.4898 261.046 56.2603 259.242Z" fill="#F2E9DD"/>
<path d="M200.223 294.471C206.429 293.668 209.082 289.024 209.94 283.862C210.124 282.754 210.226 281.623 210.262 280.501C210.364 277.354 209.953 274.278 209.412 271.997C208.731 268.398 207.813 264.511 206.722 260.457C201.63 264.83 186.887 267.746 180.152 268.657L183.971 280.501C184.878 283.697 186.427 288.429 189.81 291.518C191.579 293.133 193.849 294.298 196.79 294.56C197.846 294.653 198.987 294.631 200.223 294.471Z" fill="#F2E9DD"/>
<path d="M42.1849 138.977C28.5046 185.198 13.5176 281.025 63.0117 294.56C63.1308 294.592 63.251 294.624 63.3725 294.657C63.5445 290.667 63.9004 286.554 64.4706 282.323C56.6249 284.955 43.9987 284.024 56.2603 259.242C47.6879 245.178 36.6274 212.655 46.7071 169.348C41.8501 158.442 41.0228 147.259 42.1849 138.977Z" fill="#F2E9DD"/>
<path d="M225.073 151.126C234.145 185.342 243.714 257.42 209.412 271.997C209.953 274.278 210.364 277.354 210.262 280.501C213.654 279.354 221.173 278.559 224.113 284.551C227.401 284.3 230.87 283.775 234.526 282.93C281.743 261.688 246.96 161.192 216.424 98.0701C223.746 116.479 227.203 136.705 225.073 151.126Z" fill="#F2E9DD"/>
<path d="M209.94 283.862C209.082 289.024 206.429 293.668 200.223 294.471C198.987 294.631 197.846 294.653 196.79 294.56C197.474 298.032 196.914 312.954 196.548 319.982C199.939 321.804 206.892 323.262 207.574 314.515C230.238 319.982 234.526 295.078 218.6 293.256C225.95 292.284 225.338 287.048 224.113 284.551C221.173 278.559 213.654 279.354 210.262 280.501C210.226 281.623 210.124 282.754 209.94 283.862Z" fill="#F2E9DD"/>
<path d="M102.124 394.198C103.577 394.198 105.756 388.054 106.664 384.981C97.9091 385.42 85.1747 385.664 80.3341 384.369V389.697C79.2748 389.697 77.1563 390.237 77.1563 392.398C78.5182 395.099 100.308 394.198 102.124 394.198Z" fill="#F2E9DD"/>
<path d="M152.444 382.254C153.669 386.4 156.61 394.691 158.57 394.691C161.02 394.691 190.422 395.906 192.26 392.262C192.26 389.346 189.402 388.617 187.972 388.617V381.428C181.441 383.175 164.257 382.846 152.444 382.254Z" fill="#F2E9DD"/>
<path d="M225.073 151.126C224.366 155.905 224.113 157.2 219.825 165.703C215.537 174.207 205.608 190.429 183.971 198.503C189.588 211.002 200.745 238.241 206.722 260.457C207.813 264.511 208.731 268.398 209.412 271.997C243.714 257.42 234.145 185.342 225.073 151.126Z" fill="#DB867D"/>
<path d="M144.481 367.966C161.143 372.339 182.459 368.776 189.81 366.144C191.429 361.329 193.994 341.824 195.644 327.878C180.219 322.047 169.81 304.87 166.533 297.01C133.963 302.895 103.05 301.391 82.0007 298.328C79.5157 305.141 72.7171 319.86 65.403 324.233C69.691 347.84 75.5347 364.768 78.9722 373.042C84.4197 374.993 100.217 377.634 112.565 374.393C112.565 369.048 120.183 343.943 124.267 332.539C126.862 333.261 129.416 333.796 131.617 333.952C137.008 340.754 142.439 359.462 144.481 367.966Z" fill="#FCB93E"/>
<path fill-rule="evenodd" clip-rule="evenodd" d="M183.971 280.501L180.152 268.657L176.334 256.812L168.581 224.621C168.906 221.584 172.439 212.108 183.971 198.503C178.042 200.715 170.987 202.562 162.454 203.969C156.133 211.542 152.593 215.778 146.319 222.191C145.094 223.406 142.521 226.078 139.581 224.621C136.15 223.649 129.984 212.435 127.33 206.949C123.654 212.03 115.201 222.191 110.791 222.191C106.87 221.219 98.7845 211.662 95.2316 207.005C81.0478 227.887 72.5448 247.297 67.912 264.985C66.346 270.964 65.2222 276.747 64.4706 282.323C78.0598 286.575 120.985 292.163 183.971 280.501ZM93.6392 264.101C92.3653 258.27 95.1502 243.45 96.702 236.768C111.812 235.351 144.604 233.367 154.894 236.768C154.404 252.318 153.873 263.089 153.669 265.923C143.528 272.5 137.802 275.943 127.33 280.501C123.042 282.93 116.419 283.538 113.241 281.716C107.238 278.274 94.9131 269.932 93.6392 264.101Z" fill="#FCB93E"/>
<path d="M176.334 256.812L180.152 268.657C186.887 267.746 201.63 264.83 206.722 260.457C200.745 238.241 189.588 211.002 183.971 198.503C172.439 212.108 168.906 221.584 168.581 224.621L176.334 256.812Z" fill="#687EDF"/>
<path d="M183.971 280.501C120.985 292.163 78.0598 286.575 64.4706 282.323C63.9004 286.554 63.5445 290.667 63.3725 294.657C68.021 295.9 74.3612 297.217 82.0007 298.328C103.05 301.391 133.963 302.895 166.533 297.01C174.235 295.618 182.031 293.813 189.81 291.518C186.427 288.429 184.878 283.697 183.971 280.501Z" fill="#FCB93E"/>
<path d="M65.403 324.233C72.7171 319.86 79.5157 305.141 82.0007 298.328C74.3612 297.217 68.021 295.9 63.3725 294.657C62.9073 305.442 63.7854 315.328 65.403 324.233Z" fill="#FCB93E"/>
<path d="M112.565 374.393C100.217 377.634 84.4197 374.993 78.9722 373.042C77.1563 371.242 74.4326 381.145 78.9722 383.845C79.3039 384.043 79.7643 384.217 80.3341 384.369C85.1747 385.664 97.9091 385.42 106.664 384.981C108.162 384.906 109.544 384.825 110.749 384.746C112.111 383.095 114.381 378.714 112.565 374.393Z" fill="#FCB93E"/>
<path d="M189.81 366.144C182.459 368.776 161.143 372.339 144.481 367.966C142.031 373.797 145.094 379.709 146.931 381.936C148.558 382.043 150.423 382.152 152.444 382.254C164.257 382.846 181.441 383.175 187.972 381.428C188.741 381.222 189.362 380.987 189.81 380.721C195.935 377.077 192.26 363.714 189.81 366.144Z" fill="#FCB93E"/>
<path d="M196.548 319.982C196.914 312.954 197.474 298.032 196.79 294.56C193.849 294.298 191.579 293.133 189.81 291.518C182.031 293.813 174.235 295.618 166.533 297.01C169.81 304.87 180.219 322.047 195.644 327.878C195.992 324.935 196.299 322.239 196.548 319.982Z" fill="#FCB93E"/>
<path d="M96.702 236.768C95.1502 243.45 92.3653 258.27 93.6392 264.101C94.9131 269.932 107.238 278.274 113.241 281.716C116.419 283.538 123.042 282.93 127.33 280.501C137.802 275.943 143.528 272.5 153.669 265.923C153.873 263.089 154.404 252.318 154.894 236.768C144.604 233.367 111.812 235.351 96.702 236.768Z" fill="#FFD68B"/>
<path d="M46.7071 169.348C36.6274 212.655 47.6879 245.178 56.2603 259.242C62.7986 242.342 77.5903 207.174 84.4509 201.7C63.9163 194.849 52.4726 182.293 46.7071 169.348Z" fill="#DB867D"/>
<path d="M96.702 204.865C92.2977 204.024 88.2211 202.958 84.4509 201.7C77.5903 207.174 62.7986 242.342 56.2603 259.242C57.4898 261.046 61.5415 264.72 67.912 264.985C72.5448 247.297 81.0478 227.887 95.2316 207.005C95.7151 206.293 96.2052 205.58 96.702 204.865Z" fill="#687EDF"/>
<path d="M124.879 207.005C114.258 207.216 104.911 206.431 96.702 204.865C96.2052 205.58 95.7151 206.293 95.2316 207.005C98.7845 211.662 106.87 221.219 110.791 222.191C115.201 222.191 123.654 212.03 127.33 206.949C126.521 206.97 125.704 206.989 124.879 207.005Z" fill="#687EE0"/>
<path d="M127.33 206.949C129.984 212.435 136.15 223.649 139.581 224.621C142.521 226.078 145.094 223.406 146.319 222.191C152.593 215.778 156.133 211.542 162.454 203.969C152.806 205.56 141.268 206.589 127.33 206.949Z" fill="#687EE0"/>
<path d="M42.1849 138.977C45.4518 111.037 64.3593 55.278 113.853 55.764C107.973 46.5319 99.5606 46.2485 96.0895 47.2608C100.173 45.2362 113.118 43.0091 132.23 50.2978C132.23 45.9249 124.471 39.1626 120.592 36.3281C131.413 37.3399 161.195 39.5921 184.297 55.764C194.71 63.0535 199.574 67.6126 205.688 77.0236M42.1849 138.977C28.5046 185.198 13.5176 281.025 63.0117 294.56C63.1308 294.592 63.251 294.624 63.3725 294.657M42.1849 138.977C41.0228 147.259 41.8501 158.442 46.7071 169.348M205.688 77.0236C209.103 83.3556 212.733 90.4398 216.424 98.0701M205.688 77.0236C209.829 83.3966 213.446 90.583 216.424 98.0701M166.533 216.117L168.581 224.621M225.073 151.126C224.366 155.905 224.113 157.2 219.825 165.703C215.537 174.207 205.608 190.429 183.971 198.503M225.073 151.126C234.145 185.342 243.714 257.42 209.412 271.997M225.073 151.126C227.203 136.705 223.746 116.479 216.424 98.0701M209.412 271.997C208.731 268.398 207.813 264.511 206.722 260.457M209.412 271.997C209.953 274.278 210.364 277.354 210.262 280.501M183.971 198.503C189.588 211.002 200.745 238.241 206.722 260.457M183.971 198.503C172.439 212.108 168.906 221.584 168.581 224.621M183.971 198.503C178.042 200.715 170.987 202.562 162.454 203.969M183.971 280.501L180.152 268.657M183.971 280.501C120.985 292.163 78.0598 286.575 64.4706 282.323M183.971 280.501C184.878 283.697 186.427 288.429 189.81 291.518M180.152 268.657L176.334 256.812L168.581 224.621M180.152 268.657C186.887 267.746 201.63 264.83 206.722 260.457M210.262 280.501C210.226 281.623 210.124 282.754 209.94 283.862C209.082 289.024 206.429 293.668 200.223 294.471C198.987 294.631 197.846 294.653 196.79 294.56M210.262 280.501C213.654 279.354 221.173 278.559 224.113 284.551M224.113 284.551C227.401 284.3 230.87 283.775 234.526 282.93C281.743 261.688 246.96 161.193 216.424 98.0701M224.113 284.551C225.338 287.048 225.95 292.284 218.6 293.256C234.526 295.078 230.238 319.982 207.574 314.515C206.892 323.262 199.939 321.804 196.548 319.982M196.548 319.982C196.914 312.954 197.474 298.032 196.79 294.56M196.548 319.982C196.299 322.239 195.992 324.935 195.644 327.878M189.81 366.144C182.459 368.776 161.142 372.339 144.481 367.966M189.81 366.144C192.26 363.714 195.935 377.077 189.81 380.721C189.362 380.987 188.741 381.222 187.972 381.428M189.81 366.144C191.429 361.329 193.994 341.824 195.644 327.878M196.79 294.56C193.849 294.298 191.579 293.133 189.81 291.518M144.481 367.966C142.031 373.797 145.094 379.709 146.931 381.936C148.558 382.043 150.423 382.152 152.444 382.254M144.481 367.966C142.439 359.462 137.008 340.754 131.617 333.952C129.416 333.796 126.862 333.261 124.267 332.539M152.444 382.254C153.669 386.399 156.61 394.691 158.57 394.691C161.02 394.691 190.422 395.906 192.26 392.262C192.26 389.346 189.402 388.617 187.972 388.617V381.428M152.444 382.254C164.257 382.846 181.441 383.175 187.972 381.428M46.7071 169.348C36.6274 212.655 47.6879 245.178 56.2603 259.242M46.7071 169.348C52.4726 182.293 63.9163 194.849 84.4509 201.7M78.9722 373.042C75.5347 364.768 69.691 347.84 65.403 324.233M78.9722 373.042C84.4197 374.993 100.217 377.634 112.565 374.393M78.9722 373.042C77.1563 371.242 74.4326 381.145 78.9722 383.845C79.3039 384.043 79.7643 384.217 80.3341 384.369M96.702 204.865C104.911 206.431 114.258 207.216 124.879 207.005C125.704 206.989 126.521 206.97 127.33 206.949M96.702 204.865C92.2977 204.024 88.2211 202.958 84.4509 201.7M96.702 204.865C96.2052 205.58 95.7151 206.293 95.2316 207.005M64.4706 282.323C56.6249 284.955 43.9987 284.024 56.2603 259.242M64.4706 282.323C65.2222 276.747 66.346 270.964 67.912 264.985M64.4706 282.323C63.9004 286.554 63.5445 290.667 63.3725 294.657M56.2603 259.242C62.7986 242.342 77.5903 207.174 84.4509 201.7M56.2603 259.242C57.4898 261.046 61.5415 264.72 67.912 264.985M67.912 264.985C72.5448 247.297 81.0478 227.887 95.2316 207.005M95.2316 207.005C98.7845 211.662 106.87 221.219 110.791 222.191C115.201 222.191 123.654 212.03 127.33 206.949M127.33 206.949C129.984 212.435 136.15 223.649 139.581 224.621C142.521 226.078 145.094 223.406 146.319 222.191C152.593 215.778 156.133 211.542 162.454 203.969M127.33 206.949C141.268 206.589 152.806 205.56 162.454 203.969M189.81 291.518C182.031 293.813 174.235 295.618 166.533 297.01M82.0007 298.328C79.5157 305.141 72.7171 319.86 65.403 324.233M82.0007 298.328C103.05 301.391 133.963 302.895 166.533 297.01M82.0007 298.328C74.3612 297.217 68.021 295.9 63.3725 294.657M65.403 324.233C63.7854 315.328 62.9073 305.442 63.3725 294.657M166.533 297.01C169.81 304.87 180.219 322.047 195.644 327.878M110.178 327.27C113.09 328.645 118.772 331.011 124.267 332.539M124.267 332.539C120.183 343.943 112.565 369.048 112.565 374.393M112.565 374.393C114.381 378.714 112.111 383.095 110.749 384.746C109.544 384.825 108.162 384.906 106.664 384.981M106.664 384.981C105.756 388.054 103.577 394.198 102.124 394.198C100.308 394.198 78.5182 395.099 77.1563 392.398C77.1563 390.237 79.2748 389.697 80.3341 389.697V384.369M106.664 384.981C97.9091 385.42 85.1747 385.664 80.3341 384.369M96.702 236.768C95.1502 243.45 92.3653 258.27 93.6392 264.101C94.9131 269.932 107.238 278.274 113.241 281.716C116.419 283.538 123.042 282.93 127.33 280.501C137.802 275.943 143.528 272.5 153.669 265.923C153.873 263.089 154.404 252.318 154.894 236.768C144.604 233.367 111.812 235.351 96.702 236.768Z" stroke="#503C3C" stroke-width="2.00902" stroke-linecap="round"/>
<path d="M110.996 267.759C110.557 272.312 112.701 271.319 114.672 270.188C120.561 266.807 129.509 260.02 129.193 254.396C129.093 252.61 128.059 250.942 125.698 249.537C123.503 248.231 121.596 247.997 119.947 248.516C114.232 250.315 111.63 261.159 110.996 267.759Z" fill="#F96B35"/>
<path d="M119.947 248.516C121.596 247.997 123.503 248.231 125.698 249.537C128.059 250.942 129.093 252.61 129.193 254.396C133.046 256.218 136.109 250.153 131.821 247.116C136.722 243.474 126.308 236.792 125.083 242.864C118.958 239.22 116.507 247.107 119.947 248.516Z" fill="#5FBE50"/>
<path d="M119.947 248.516C114.232 250.315 111.63 261.159 110.996 267.759C110.557 272.312 112.701 271.319 114.672 270.188C120.561 266.807 129.509 260.02 129.193 254.396M119.947 248.516C121.596 247.997 123.503 248.231 125.698 249.537C128.059 250.942 129.093 252.61 129.193 254.396M119.947 248.516C116.507 247.107 118.958 239.22 125.083 242.864C126.308 236.792 136.722 243.474 131.821 247.116C136.109 250.153 133.046 256.218 129.193 254.396" stroke="#503C3C" stroke-width="2.00902"/>
<path d="M102.227 215.251C101.75 214.598 100.735 214.708 100.469 215.472C99.3652 218.649 97.7769 224.175 97.5029 228.31C97.4622 228.925 98.0023 229.396 98.6127 229.314C113.462 227.317 144.616 228.256 153.757 229.327C154.368 229.399 154.9 228.925 154.929 228.31C155.139 223.85 156.502 218.924 158.098 214.627C158.521 213.487 156.412 212.138 155.606 213.049C150.135 219.234 146.297 222.956 142.178 225.228C138.349 226.742 130.54 208.221 126.252 208.828C121.964 209.435 114.001 222.191 110.326 222.191C107.657 222.191 104.019 217.707 102.227 215.251Z" fill="#687EE0" stroke="#503C3C" stroke-width="2.00902"/>
<path d="M167.905 225.23C170.479 250.345 175.256 297.51 187.507 290.222C181.533 285.294 170.908 244.223 167.905 225.23Z" fill="#2A5375" fill-opacity="0.5"/>
<path d="M56.4543 280.995C57.7119 284.552 62.74 282.724 63.7713 281.715C66.7609 254.405 85.5162 219.736 95.0664 205.512C91.9487 205.182 93.7864 205.615 91.9487 205.008C83.2469 214.133 54.7011 270.373 56.4191 280.861C56.4269 280.908 56.4381 280.95 56.4543 280.995Z" fill="#775959" fill-opacity="0.5"/>
<path d="M126.864 207.009C97.2572 209.236 39.0239 198.748 42.9443 138.98C45.2022 154.961 63.66 198.022 126.864 207.009Z" fill="#503C3C" fill-opacity="0.3"/>
<path d="M76.0221 213.686C43.1893 204.94 37.4311 168.537 41.719 145.051C39.7588 179.065 68.2629 196.882 82.76 201.538C78.4723 208.827 79.6974 206.398 76.0221 213.686Z" fill="#503C3C" fill-opacity="0.3" stroke="#503C3C" stroke-opacity="0.3" stroke-width="2.00902"/>
<path d="M226.711 138.98C228.672 172.995 197.717 193.848 183.22 198.505C192.607 217.988 209.255 262.999 211.398 279.896C214.46 277.466 210.785 222.801 201.597 206.401C225.703 181.74 228.55 149.804 226.711 138.98Z" fill="#503C3C" fill-opacity="0.3" stroke="#503C3C" stroke-opacity="0.3" stroke-width="2.00902"/>
<path d="M114.614 56.3707C112.654 51.0256 106.038 47.6647 102.976 46.6523C111.796 47.1383 122.169 54.5485 125.64 58.1928C125.027 57.5855 120.985 56.3707 114.614 56.3707Z" fill="#503C3C" fill-opacity="0.3" stroke="#503C3C" stroke-opacity="0.3" stroke-width="2.00902"/>
<path d="M133.603 51.513C131.643 46.168 125.028 38.5553 121.965 37.543C130.786 38.0289 143.608 52.7278 147.079 56.3722C146.467 55.7648 140.341 53.3352 133.603 51.513Z" fill="#503C3C" fill-opacity="0.3" stroke="#503C3C" stroke-opacity="0.3" stroke-width="2.00902"/>
<path d="M109.713 227.051C102.852 226.565 87.6612 195.466 95.6244 208.221C103.588 220.977 109.133 223.984 110.938 223.406C116.125 222.01 123.206 210.066 126.252 210.043C129.298 210.021 136.911 226.443 142.178 226.443C147.446 226.443 156.267 212.473 163.005 205.184C145.854 234.339 142.178 228.265 139.116 228.265C136.053 228.265 131.152 219.762 126.252 212.473C116.451 221.584 116.574 227.537 109.713 227.051Z" fill="#503C3C" fill-opacity="0.3" stroke="#503C3C" stroke-opacity="0.3" stroke-width="2.00902"/>
<path d="M100.441 124.951C97.441 134.565 91.8995 141.405 83.3054 138.768C75.2616 136.3 74.034 127.383 77.0342 117.769C80.0344 108.155 85.0623 101.319 94.2503 103.14C102.214 105.571 103.441 115.338 100.441 124.951Z" fill="black"/>
<path d="M161.087 120.904C160.372 130.943 163.039 139.308 172.013 139.936C180.413 140.524 184.813 132.654 185.528 122.615C186.243 112.576 184.053 104.398 174.824 102.797C166.513 102.203 161.801 110.866 161.087 120.904Z" fill="black"/>
<path d="M67.9102 104.357C69.3394 96.4607 77.2209 82.6121 97.3126 90.3868" stroke="black" stroke-width="2.00902" stroke-linecap="round"/>
<path d="M192.309 105.76C191.398 97.7891 184.436 83.464 163.88 89.9339" stroke="black" stroke-width="2.00902" stroke-linecap="round"/>
<mask id="path-24-inside-3_1481_11373" fill="white">
<ellipse cx="63.0103" cy="139.59" rx="1.2251" ry="1.21479"/>
</mask>
<ellipse cx="63.0103" cy="139.59" rx="1.2251" ry="1.21479" fill="black"/>
<path d="M64.2354 139.59H62.2263C62.2263 139.135 62.5934 138.796 63.0103 138.796V140.805V142.814C64.7804 142.814 66.2444 141.386 66.2444 139.59H64.2354ZM63.0103 140.805V138.796C63.4272 138.796 63.7942 139.135 63.7942 139.59H61.7852H59.7761C59.7761 141.386 61.2402 142.814 63.0103 142.814V140.805ZM61.7852 139.59H63.7942C63.7942 140.044 63.4272 140.384 63.0103 140.384V138.375V136.366C61.2402 136.366 59.7761 137.793 59.7761 139.59H61.7852ZM63.0103 138.375V140.384C62.5934 140.384 62.2263 140.044 62.2263 139.59H64.2354H66.2444C66.2444 137.793 64.7804 136.366 63.0103 136.366V138.375Z" fill="#503C3C" mask="url(#path-24-inside-3_1481_11373)"/>
<mask id="path-26-inside-4_1481_11373" fill="white">
<ellipse cx="1.2251" cy="1.21479" rx="1.2251" ry="1.21479" transform="matrix(-1 0 0 1 194.095 142.02)"/>
</mask>
<ellipse cx="1.2251" cy="1.21479" rx="1.2251" ry="1.21479" transform="matrix(-1 0 0 1 194.095 142.02)" fill="black"/>
<path d="M191.645 143.234H193.654C193.654 142.78 193.287 142.44 192.87 142.44V144.449V146.458C191.1 146.458 189.636 145.031 189.636 143.234H191.645ZM192.87 144.449V142.44C192.453 142.44 192.086 142.78 192.086 143.234H194.095H196.104C196.104 145.031 194.64 146.458 192.87 146.458V144.449ZM194.095 143.234H192.086C192.086 143.689 192.453 144.029 192.87 144.029V142.02V140.011C194.64 140.011 196.104 141.438 196.104 143.234H194.095ZM192.87 142.02V144.029C193.287 144.029 193.654 143.689 193.654 143.234H191.645H189.636C189.636 141.438 191.1 140.011 192.87 140.011V142.02Z" fill="#503C3C" mask="url(#path-26-inside-4_1481_11373)"/>
<mask id="path-28-inside-5_1481_11373" fill="white">
<ellipse cx="65.4605" cy="151.734" rx="1.2251" ry="1.21479"/>
</mask>
<ellipse cx="65.4605" cy="151.734" rx="1.2251" ry="1.21479" fill="black"/>
<path d="M66.6856 151.734H64.6765C64.6765 151.28 65.0436 150.94 65.4605 150.94V152.949V154.958C67.2306 154.958 68.6946 153.531 68.6946 151.734H66.6856ZM65.4605 152.949V150.94C65.8774 150.94 66.2444 151.28 66.2444 151.734H64.2354H62.2263C62.2263 153.531 63.6903 154.958 65.4605 154.958V152.949ZM64.2354 151.734H66.2444C66.2444 152.189 65.8774 152.529 65.4605 152.529V150.52V148.511C63.6903 148.511 62.2263 149.938 62.2263 151.734H64.2354ZM65.4605 150.52V152.529C65.0436 152.529 64.6765 152.189 64.6765 151.734H66.6856H68.6946C68.6946 149.938 67.2306 148.511 65.4605 148.511V150.52Z" fill="#503C3C" mask="url(#path-28-inside-5_1481_11373)"/>
<mask id="path-30-inside-6_1481_11373" fill="white">
<ellipse cx="1.2251" cy="1.21479" rx="1.2251" ry="1.21479" transform="matrix(-1 0 0 1 191.646 154.164)"/>
</mask>
<ellipse cx="1.2251" cy="1.21479" rx="1.2251" ry="1.21479" transform="matrix(-1 0 0 1 191.646 154.164)" fill="black"/>
<path d="M189.195 155.379H191.204C191.204 154.924 190.837 154.585 190.42 154.585V156.594V158.603C188.65 158.603 187.186 157.175 187.186 155.379H189.195ZM190.42 156.594V154.585C190.004 154.585 189.636 154.924 189.636 155.379H191.646H193.655C193.655 157.175 192.191 158.603 190.42 158.603V156.594ZM191.646 155.379H189.636C189.636 155.833 190.004 156.173 190.42 156.173V154.164V152.155C192.191 152.155 193.655 153.582 193.655 155.379H191.646ZM190.42 154.164V156.173C190.837 156.173 191.204 155.833 191.204 155.379H189.195H187.186C187.186 153.582 188.65 152.155 190.42 152.155V154.164Z" fill="#503C3C" mask="url(#path-30-inside-6_1481_11373)"/>
<mask id="path-32-inside-7_1481_11373" fill="white">
<ellipse cx="74.0366" cy="140.801" rx="1.2251" ry="1.21479"/>
</mask>
<ellipse cx="74.0366" cy="140.801" rx="1.2251" ry="1.21479" fill="black"/>
<path d="M75.2617 140.801H73.2527C73.2527 140.346 73.6197 140.006 74.0366 140.006V142.016V144.025C75.8067 144.025 77.2707 142.597 77.2707 140.801H75.2617ZM74.0366 142.016V140.006C74.4535 140.006 74.8205 140.346 74.8205 140.801H72.8115H70.8025C70.8025 142.597 72.2665 144.025 74.0366 144.025V142.016ZM72.8115 140.801H74.8205C74.8205 141.255 74.4535 141.595 74.0366 141.595V139.586V137.577C72.2665 137.577 70.8025 139.004 70.8025 140.801H72.8115ZM74.0366 139.586V141.595C73.6197 141.595 73.2527 141.255 73.2527 140.801H75.2617H77.2707C77.2707 139.004 75.8067 137.577 74.0366 137.577V139.586Z" fill="#503C3C" mask="url(#path-32-inside-7_1481_11373)"/>
<mask id="path-34-inside-8_1481_11373" fill="white">
<ellipse cx="1.2251" cy="1.21479" rx="1.2251" ry="1.21479" transform="matrix(-1 0 0 1 183.07 143.23)"/>
</mask>
<ellipse cx="1.2251" cy="1.21479" rx="1.2251" ry="1.21479" transform="matrix(-1 0 0 1 183.07 143.23)" fill="black"/>
<path d="M180.62 144.445H182.629C182.629 143.991 182.262 143.651 181.845 143.651V145.66V147.669C180.075 147.669 178.611 146.242 178.611 144.445H180.62ZM181.845 145.66V143.651C181.428 143.651 181.061 143.991 181.061 144.445H183.07H185.079C185.079 146.242 183.615 147.669 181.845 147.669V145.66ZM183.07 144.445H181.061C181.061 144.9 181.428 145.239 181.845 145.239V143.23V141.221C183.615 141.221 185.079 142.649 185.079 144.445H183.07ZM181.845 143.23V145.239C182.262 145.239 182.629 144.9 182.629 144.445H180.62H178.611C178.611 142.649 180.075 141.221 181.845 141.221V143.23Z" fill="#503C3C" mask="url(#path-34-inside-8_1481_11373)"/>
<path d="M110.865 133.263C110.204 133.656 108.884 135.057 108.884 137.519C108.884 139.981 117.82 147.536 122.288 151.006L137.871 139.221C138.752 138.064 139.984 135.423 137.871 134.114C135.23 132.477 121.166 128.221 110.865 133.263Z" fill="#DB867D"/>
<path d="M122.428 151.128C117.528 147.686 107.972 139.952 108.952 136.551M122.428 151.128L137.742 138.98M122.428 151.128V157.81M122.428 157.81L118.14 162.669M122.428 157.81L127.328 162.669" stroke="black" stroke-width="2.00902" stroke-linecap="round"/>
<path d="M110.79 132.904C114.874 131.082 125.981 128.774 137.742 134.119" stroke="black" stroke-width="2.00902" stroke-linecap="round"/>
</g>
<defs>
<linearGradient id="paint0_linear_1481_11373" x1="143.263" y1="0.4375" x2="143.263" y2="309.002" gradientUnits="userSpaceOnUse">
<stop stop-color="#FFA700"/>
<stop offset="1" stop-color="#F3CD8B"/>
</linearGradient>
<linearGradient id="paint1_linear_1481_11373" x1="143.263" y1="0.4375" x2="143.263" y2="309.002" gradientUnits="userSpaceOnUse">
<stop stop-color="#F3CD8B"/>
<stop offset="1" stop-color="#FFA700"/>
</linearGradient>
<linearGradient id="paint2_linear_1481_11373" x1="143.338" y1="0" x2="143.338" y2="474.529" gradientUnits="userSpaceOnUse">
<stop stop-color="#C0DA92"/>
<stop offset="1" stop-color="#005B43"/>
</linearGradient>
<linearGradient id="paint3_linear_1481_11373" x1="143.338" y1="0" x2="143.338" y2="308.906" gradientUnits="userSpaceOnUse">
<stop stop-color="#FFA700"/>
<stop offset="1" stop-color="#F3CD8B"/>
</linearGradient>
<linearGradient id="paint4_linear_1481_11373" x1="143.338" y1="0" x2="143.338" y2="474.529" gradientUnits="userSpaceOnUse">
<stop stop-color="#A9BE83"/>
<stop offset="1" stop-color="#106D54"/>
</linearGradient>
<linearGradient id="paint5_linear_1481_11373" x1="143.338" y1="0.4375" x2="143.338" y2="308.554" gradientUnits="userSpaceOnUse">
<stop stop-color="#B0935B"/>
<stop offset="1" stop-color="#A79B85"/>
</linearGradient>
<radialGradient id="paint6_radial_1481_11373" cx="0" cy="0" r="1" gradientUnits="userSpaceOnUse" gradientTransform="translate(143.338 154.719) rotate(90) scale(154.281 123.426)">
<stop stop-color="#666666"/>
<stop offset="1"/>
</radialGradient>
</defs>
</svg>
