<svg width="232" height="361" viewBox="0 0 232 361" fill="none" xmlns="http://www.w3.org/2000/svg">
<path d="M86.8134 20.8343C37.3192 20.3483 18.4118 76.1072 15.1449 104.047C13.9827 112.33 14.81 123.512 19.6671 134.418C25.4326 147.363 36.8763 159.919 57.4109 166.771C61.1811 168.029 65.2577 169.094 69.6619 169.935C77.8708 171.502 87.2177 172.286 97.8393 172.076C98.6642 172.059 99.4809 172.041 100.289 172.02C114.228 171.66 125.766 170.631 135.414 169.039C143.947 167.632 151.002 165.785 156.931 163.573C178.568 155.499 188.497 139.277 192.785 130.774C197.073 122.27 197.326 120.975 198.033 116.196C200.163 101.776 196.706 81.5493 189.384 63.1404C185.692 55.5101 182.063 48.426 178.648 42.0939C172.534 32.683 167.67 28.1238 157.257 20.8343C134.155 4.6624 104.373 2.41022 93.5515 1.39844C97.431 4.23295 105.19 10.9952 105.19 15.3681C86.0784 8.07937 73.1331 10.3065 69.0494 12.3311C72.5206 11.3188 80.933 11.6022 86.8134 20.8343Z" fill="#F2E9DD"/>
<path d="M29.2203 224.312C16.9587 249.094 29.5848 250.025 37.4306 247.393C38.1821 241.817 39.3059 236.034 40.872 230.055C34.5014 229.79 30.4498 226.116 29.2203 224.312Z" fill="#F2E9DD"/>
<path d="M173.183 259.541C179.389 258.739 182.042 254.094 182.9 248.932C183.084 247.825 183.186 246.693 183.222 245.571C183.324 242.424 182.913 239.348 182.372 237.068C181.691 233.468 180.773 229.581 179.682 225.527C174.59 229.9 159.847 232.816 153.112 233.727L156.931 245.571C157.838 248.767 159.387 253.5 162.77 256.588C164.539 258.203 166.809 259.368 169.75 259.63C170.806 259.724 171.947 259.701 173.183 259.541Z" fill="#F2E9DD"/>
<path d="M15.1449 104.047C1.46458 150.269 -13.5225 246.095 35.9717 259.63C36.0907 259.662 36.211 259.695 36.3324 259.727C36.5045 255.737 36.8604 251.625 37.4306 247.393C29.5848 250.025 16.9587 249.094 29.2203 224.312C20.6478 210.249 9.58735 177.725 19.6671 134.418C14.81 123.512 13.9827 112.33 15.1449 104.047Z" fill="#F2E9DD"/>
<path d="M198.033 116.196C207.105 150.413 216.674 222.49 182.372 237.068C182.913 239.348 183.324 242.424 183.222 245.571C186.614 244.424 194.133 243.629 197.073 249.621C200.361 249.371 203.83 248.845 207.486 248.001C254.703 226.759 219.92 126.263 189.384 63.1404C196.706 81.5493 200.163 101.776 198.033 116.196Z" fill="#F2E9DD"/>
<path d="M182.9 248.932C182.042 254.094 179.389 258.739 173.183 259.541C171.947 259.701 170.806 259.724 169.75 259.63C170.434 263.102 169.874 278.025 169.508 285.052C172.899 286.874 179.852 288.332 180.534 279.585C203.198 285.052 207.486 260.149 191.56 258.326C198.91 257.355 198.298 252.118 197.073 249.621C194.133 243.629 186.614 244.424 183.222 245.571C183.186 246.693 183.084 247.825 182.9 248.932Z" fill="#F2E9DD"/>
<path d="M75.084 359.269C76.5367 359.269 78.7157 353.124 79.6236 350.052C70.8691 350.49 58.1346 350.735 53.294 349.439V354.768C52.2348 354.768 50.1163 355.308 50.1163 357.468C51.4782 360.169 73.2682 359.269 75.084 359.269Z" fill="#F2E9DD"/>
<path d="M125.404 347.324C126.629 351.47 129.57 359.761 131.53 359.761C133.98 359.761 163.382 360.976 165.22 357.332C165.22 354.416 162.362 353.687 160.932 353.687V346.498C154.401 348.246 137.217 347.916 125.404 347.324Z" fill="#F2E9DD"/>
<path d="M198.033 116.196C197.326 120.975 197.073 122.27 192.785 130.774C188.497 139.277 178.568 155.499 156.931 163.573C162.548 176.072 173.705 203.311 179.682 225.527C180.773 229.581 181.691 233.468 182.372 237.068C216.674 222.49 207.105 150.413 198.033 116.196Z" fill="#DB867D"/>
<path d="M117.441 333.036C134.102 337.409 155.419 333.846 162.77 331.214C164.389 326.399 166.954 306.895 168.604 292.948C153.179 287.117 142.769 269.94 139.493 262.08C106.923 267.965 76.0098 266.461 54.9607 263.398C52.4756 270.211 45.677 284.93 38.3629 289.304C42.6509 312.91 48.4947 329.839 51.9321 338.113C57.3796 340.063 73.1774 342.704 85.525 339.463C85.525 334.118 93.1431 309.013 97.2267 297.609C99.8223 298.331 102.376 298.866 104.577 299.022C109.968 305.825 115.399 324.533 117.441 333.036Z" fill="#D85353"/>
<path fill-rule="evenodd" clip-rule="evenodd" d="M156.931 245.571L153.112 233.727L149.294 221.883L141.541 189.691C141.866 186.654 145.399 177.179 156.931 163.573C151.002 165.785 143.947 167.632 135.414 169.039C129.093 176.613 125.553 180.848 119.279 187.261C118.054 188.476 115.481 191.149 112.541 189.691C109.11 188.719 102.944 177.505 100.289 172.02C96.6142 177.1 88.161 187.261 83.7506 187.261C79.8303 186.289 71.7444 176.733 68.1916 172.076C54.0077 192.958 45.5047 212.367 40.872 230.055C39.3059 236.034 38.1821 241.817 37.4306 247.393C51.0198 251.645 93.9446 257.233 156.931 245.571ZM66.5992 229.172C65.3252 223.341 68.1102 208.52 69.6619 201.839C84.7715 200.421 117.563 198.437 127.854 201.839C127.364 217.388 126.833 228.159 126.629 230.994C116.488 237.57 110.762 241.013 100.289 245.571C96.0016 248.001 89.3789 248.608 86.2008 246.786C80.1977 243.344 67.8731 235.003 66.5992 229.172Z" fill="#D85353"/>
<path d="M149.294 221.883L153.112 233.727C159.847 232.816 174.59 229.9 179.682 225.527C173.705 203.311 162.548 176.072 156.931 163.573C145.399 177.179 141.866 186.654 141.541 189.691L149.294 221.883Z" fill="#D85353"/>
<path d="M156.931 245.571C93.9446 257.233 51.0198 251.645 37.4306 247.393C36.8604 251.625 36.5045 255.737 36.3324 259.727C40.981 260.97 47.3212 262.287 54.9607 263.398C76.0098 266.461 106.923 267.965 139.493 262.08C147.195 260.689 154.991 258.884 162.77 256.588C159.387 253.5 157.838 248.767 156.931 245.571Z" fill="#D85353"/>
<path d="M38.3629 289.304C45.677 284.93 52.4756 270.211 54.9607 263.398C47.3212 262.287 40.981 260.97 36.3324 259.727C35.8673 270.512 36.7453 280.398 38.3629 289.304Z" fill="#D85353"/>
<path d="M85.525 339.463C73.1774 342.704 57.3796 340.063 51.9321 338.113C50.1163 336.312 47.3926 346.215 51.9321 348.916C52.2638 349.113 52.7242 349.287 53.294 349.439C58.1346 350.735 70.8691 350.49 79.6236 350.052C81.1219 349.977 82.5036 349.896 83.7092 349.816C85.0711 348.166 87.3409 343.784 85.525 339.463Z" fill="#D85353"/>
<path d="M162.77 331.214C155.419 333.846 134.102 337.409 117.441 333.036C114.991 338.867 118.054 344.779 119.891 347.006C121.518 347.114 123.382 347.223 125.404 347.324C137.217 347.916 154.401 348.246 160.932 346.498C161.701 346.292 162.322 346.058 162.77 345.791C168.895 342.147 165.22 328.784 162.77 331.214Z" fill="#D85353"/>
<path d="M169.508 285.052C169.874 278.025 170.434 263.102 169.75 259.63C166.809 259.368 164.539 258.203 162.77 256.588C154.991 258.884 147.195 260.689 139.493 262.08C142.769 269.94 153.179 287.117 168.604 292.948C168.952 290.005 169.259 287.31 169.508 285.052Z" fill="#D85353"/>
<path d="M69.6619 201.839C68.1102 208.52 65.3252 223.341 66.5992 229.172C67.8731 235.003 80.1977 243.344 86.2008 246.786C89.3789 248.608 96.0016 248.001 100.289 245.571C110.762 241.013 116.488 237.57 126.629 230.994C126.833 228.159 127.364 217.388 127.854 201.839C117.563 198.437 84.7715 200.421 69.6619 201.839Z" fill="#F5A0A0"/>
<path d="M19.6671 134.418C9.58735 177.725 20.6478 210.249 29.2203 224.312C35.7586 207.413 50.5503 172.244 57.4109 166.771C36.8763 159.919 25.4326 147.363 19.6671 134.418Z" fill="#DB867D"/>
<path d="M69.6619 169.935C65.2577 169.094 61.1811 168.029 57.4109 166.771C50.5503 172.244 35.7586 207.413 29.2203 224.312C30.4498 226.116 34.5014 229.79 40.872 230.055C45.5047 212.367 54.0077 192.958 68.1916 172.076C68.675 171.364 69.1651 170.65 69.6619 169.935Z" fill="#D85353"/>
<path d="M97.8393 172.076C87.2177 172.286 77.8708 171.502 69.6619 169.935C69.1651 170.65 68.675 171.364 68.1916 172.076C71.7444 176.733 79.8303 186.289 83.7506 187.261C88.161 187.261 96.6142 177.1 100.289 172.02C99.4809 172.041 98.6642 172.059 97.8393 172.076Z" fill="#FCB93E"/>
<path d="M100.289 172.02C102.944 177.505 109.11 188.719 112.541 189.691C115.481 191.149 118.054 188.476 119.279 187.261C125.553 180.848 129.093 176.613 135.414 169.039C125.766 170.631 114.228 171.66 100.289 172.02Z" fill="#FCB93E"/>
<path d="M15.1449 104.047C18.4118 76.1072 37.3192 20.3483 86.8134 20.8343C80.933 11.6022 72.5206 11.3188 69.0494 12.3311C73.1331 10.3065 86.0784 8.07937 105.19 15.3681C105.19 10.9952 97.431 4.23295 93.5515 1.39844C104.373 2.41022 134.155 4.6624 157.257 20.8343C167.67 28.1238 172.534 32.683 178.648 42.0939M15.1449 104.047C1.46458 150.269 -13.5225 246.095 35.9717 259.63C36.0907 259.662 36.211 259.695 36.3324 259.727M15.1449 104.047C13.9827 112.33 14.81 123.512 19.6671 134.418M178.648 42.0939C182.063 48.426 185.692 55.5101 189.384 63.1404M178.648 42.0939C182.789 48.4669 186.406 55.6533 189.384 63.1404M139.493 181.187L141.541 189.691M198.033 116.196C197.326 120.975 197.073 122.27 192.785 130.774C188.497 139.277 178.568 155.499 156.931 163.573M198.033 116.196C207.105 150.413 216.674 222.49 182.372 237.068M198.033 116.196C200.163 101.776 196.706 81.5493 189.384 63.1404M182.372 237.068C181.691 233.468 180.773 229.581 179.682 225.527M182.372 237.068C182.913 239.348 183.324 242.424 183.222 245.571M156.931 163.573C162.548 176.072 173.705 203.311 179.682 225.527M156.931 163.573C145.399 177.179 141.866 186.654 141.541 189.691M156.931 163.573C151.002 165.785 143.947 167.632 135.414 169.039M156.931 245.571L153.112 233.727M156.931 245.571C93.9446 257.233 51.0198 251.645 37.4306 247.393M156.931 245.571C157.838 248.767 159.387 253.5 162.77 256.588M153.112 233.727L149.294 221.883L141.541 189.691M153.112 233.727C159.847 232.816 174.59 229.9 179.682 225.527M183.222 245.571C183.186 246.693 183.084 247.825 182.9 248.932C182.042 254.094 179.389 258.739 173.183 259.541C171.947 259.701 170.806 259.724 169.75 259.63M183.222 245.571C186.614 244.424 194.133 243.629 197.073 249.621M197.073 249.621C200.361 249.371 203.83 248.845 207.486 248.001C254.703 226.759 219.92 126.263 189.384 63.1404M197.073 249.621C198.298 252.118 198.91 257.355 191.56 258.326C207.486 260.149 203.198 285.052 180.534 279.585C179.852 288.332 172.899 286.874 169.508 285.052M169.508 285.052C169.874 278.025 170.434 263.102 169.75 259.63M169.508 285.052C169.259 287.31 168.952 290.005 168.604 292.948M162.77 331.214C155.419 333.846 134.102 337.409 117.441 333.036M162.77 331.214C165.22 328.784 168.895 342.147 162.77 345.791C162.322 346.058 161.701 346.292 160.932 346.498M162.77 331.214C164.389 326.399 166.954 306.895 168.604 292.948M169.75 259.63C166.809 259.368 164.539 258.203 162.77 256.588M117.441 333.036C114.991 338.867 118.054 344.779 119.891 347.006C121.518 347.114 123.382 347.223 125.404 347.324M117.441 333.036C115.399 324.533 109.968 305.825 104.577 299.022C102.376 298.866 99.8223 298.331 97.2267 297.609M125.404 347.324C126.629 351.47 129.57 359.761 131.53 359.761C133.98 359.761 163.382 360.976 165.22 357.332C165.22 354.416 162.362 353.687 160.932 353.687V346.498M125.404 347.324C137.217 347.916 154.401 348.246 160.932 346.498M19.6671 134.418C9.58735 177.725 20.6478 210.249 29.2203 224.312M19.6671 134.418C25.4326 147.363 36.8763 159.919 57.4109 166.771M51.9321 338.113C48.4947 329.839 42.6509 312.91 38.3629 289.304M51.9321 338.113C57.3796 340.063 73.1774 342.704 85.525 339.463M51.9321 338.113C50.1163 336.312 47.3926 346.215 51.9321 348.916C52.2638 349.113 52.7242 349.287 53.294 349.439M69.6619 169.935C77.8708 171.502 87.2177 172.286 97.8393 172.076C98.6642 172.059 99.4809 172.041 100.289 172.02M69.6619 169.935C65.2577 169.094 61.1811 168.029 57.4109 166.771M69.6619 169.935C69.1651 170.65 68.6751 171.364 68.1916 172.076M37.4306 247.393C29.5848 250.025 16.9587 249.094 29.2203 224.312M37.4306 247.393C38.1821 241.817 39.3059 236.034 40.872 230.055M37.4306 247.393C36.8604 251.625 36.5045 255.737 36.3324 259.727M29.2203 224.312C35.7586 207.413 50.5503 172.244 57.4109 166.771M29.2203 224.312C30.4498 226.116 34.5014 229.79 40.872 230.055M40.872 230.055C45.5047 212.367 54.0077 192.958 68.1916 172.076M68.1916 172.076C71.7444 176.733 79.8303 186.289 83.7506 187.261C88.161 187.261 96.6142 177.1 100.289 172.02M100.289 172.02C102.944 177.505 109.11 188.719 112.541 189.691C115.481 191.149 118.054 188.476 119.279 187.261C125.553 180.848 129.093 176.612 135.414 169.039M100.289 172.02C114.228 171.66 125.766 170.631 135.414 169.039M162.77 256.588C154.991 258.884 147.195 260.689 139.493 262.08M54.9607 263.398C52.4756 270.211 45.677 284.93 38.3629 289.304M54.9607 263.398C76.0098 266.461 106.923 267.965 139.493 262.08M54.9607 263.398C47.3212 262.287 40.981 260.97 36.3324 259.727M38.3629 289.304C36.7453 280.398 35.8673 270.512 36.3324 259.727M139.493 262.08C142.769 269.94 153.179 287.117 168.604 292.948M83.138 292.341C86.0503 293.716 91.7317 296.081 97.2267 297.609M97.2267 297.609C93.1431 309.013 85.525 334.118 85.525 339.463M85.525 339.463C87.3409 343.784 85.0711 348.166 83.7092 349.816C82.5036 349.896 81.1219 349.977 79.6236 350.052M79.6236 350.052C78.7157 353.124 76.5367 359.269 75.084 359.269C73.2682 359.269 51.4782 360.169 50.1163 357.468C50.1163 355.308 52.2348 354.768 53.294 354.768V349.439M79.6236 350.052C70.8691 350.49 58.1346 350.735 53.294 349.439M69.6619 201.839C68.1102 208.52 65.3252 223.341 66.5992 229.172C67.8731 235.003 80.1977 243.344 86.2008 246.786C89.3789 248.608 96.0016 248.001 100.289 245.571C110.762 241.013 116.488 237.57 126.629 230.994C126.833 228.159 127.364 217.388 127.854 201.839C117.563 198.437 84.7715 200.421 69.6619 201.839Z" stroke="#503C3C" stroke-width="2.00902" stroke-linecap="round"/>
<path d="M83.9562 232.829C83.5171 237.382 85.6611 236.389 87.6316 235.258C93.5209 231.877 102.469 225.09 102.153 219.466C102.053 217.68 101.019 216.012 98.6575 214.607C96.4632 213.301 94.5555 213.068 92.9068 213.587C87.1918 215.385 84.5901 226.229 83.9562 232.829Z" fill="#F96B35"/>
<path d="M92.9068 213.587C94.5555 213.068 96.4632 213.301 98.6575 214.607C101.019 216.012 102.053 217.68 102.153 219.466C106.006 221.288 109.069 215.223 104.781 212.186C109.682 208.544 99.2682 201.862 98.0431 207.935C91.9175 204.29 89.4673 212.177 92.9068 213.587Z" fill="#5FBE50"/>
<path d="M92.9068 213.587C87.1918 215.385 84.5901 226.229 83.9562 232.829C83.5171 237.382 85.6611 236.389 87.6316 235.258C93.5209 231.877 102.469 225.09 102.153 219.466M92.9068 213.587C94.5555 213.068 96.4632 213.301 98.6575 214.607C101.019 216.012 102.053 217.68 102.153 219.466M92.9068 213.587C89.4673 212.177 91.9175 204.29 98.0431 207.935C99.2682 201.862 109.682 208.544 104.781 212.186C109.069 215.223 106.006 221.288 102.153 219.466" stroke="#503C3C" stroke-width="2.00902"/>
<path d="M75.1868 180.322C74.71 179.668 73.6948 179.779 73.4293 180.543C72.3252 183.719 70.7369 189.245 70.4629 193.381C70.4222 193.995 70.9623 194.466 71.5727 194.384C86.4217 192.387 117.576 193.326 126.717 194.397C127.328 194.469 127.86 193.995 127.889 193.38C128.099 188.92 129.462 183.995 131.058 179.697C131.481 178.557 129.372 177.208 128.566 178.119C123.095 184.304 119.257 188.027 115.138 190.298C111.309 191.812 103.5 173.291 99.2118 173.898C94.9239 174.506 86.9608 187.261 83.2855 187.261C80.6168 187.261 76.9792 182.778 75.1868 180.322Z" fill="#FCB93E" stroke="#503C3C" stroke-width="2.00902"/>
<path d="M80.2236 340.328C84.2799 314.356 85.5072 302.406 82.6739 293.559C84.8365 294.586 86.8011 295.31 89.5549 296.292C92.8311 297.461 95.5374 298.418 95.5374 298.418C94.2723 301.85 82.6807 339.27 84.5115 339.113C85.705 343.533 84.0804 346.808 83.2864 348.832H77.7734C79.7336 346.888 80.2236 342.96 80.2236 340.328Z" fill="#2A5375" fill-opacity="0.5"/>
<path d="M140.865 190.301C143.439 215.415 148.216 262.581 160.467 255.292C154.493 250.365 143.868 209.293 140.865 190.301Z" fill="#2A5375" fill-opacity="0.5"/>
<path d="M29.4142 246.066C30.6719 249.622 35.7 247.795 36.7313 246.785C39.7208 219.475 58.4761 184.806 68.0264 170.582C64.9087 170.253 66.7463 170.686 64.9087 170.078C56.2069 179.203 27.6611 235.444 29.379 245.931C29.3868 245.979 29.3981 246.02 29.4142 246.066Z" fill="#775959" fill-opacity="0.5"/>
<path d="M99.8238 172.079C70.2172 174.306 11.9839 163.818 15.9042 104.051C18.1621 120.032 36.6199 163.093 99.8238 172.079Z" fill="#503C3C" fill-opacity="0.3"/>
<path d="M48.982 178.757C16.1493 170.01 10.3911 133.607 14.679 110.121C12.7188 144.135 41.2229 161.952 55.7199 166.609C51.4322 173.898 52.6573 171.468 48.982 178.757Z" fill="#503C3C" fill-opacity="0.3" stroke="#503C3C" stroke-opacity="0.3" stroke-width="2.00902"/>
<path d="M199.671 104.051C201.632 138.065 170.677 158.919 156.18 163.575C165.567 183.059 182.215 228.069 184.358 244.966C187.42 242.537 183.745 187.871 174.557 171.472C198.663 146.81 201.51 114.874 199.671 104.051Z" fill="#503C3C" fill-opacity="0.3" stroke="#503C3C" stroke-opacity="0.3" stroke-width="2.00902"/>
<path d="M87.574 21.441C85.6139 16.0959 78.9983 12.735 75.9355 11.7227C84.7563 12.2086 95.1288 19.6188 98.6 23.2632C97.9874 22.6558 93.9446 21.441 87.574 21.441Z" fill="#503C3C" fill-opacity="0.3" stroke="#503C3C" stroke-opacity="0.3" stroke-width="2.00902"/>
<path d="M106.563 16.5834C104.603 11.2383 97.9876 3.62561 94.9248 2.61328C103.746 3.0992 116.568 17.7982 120.039 21.4425C119.427 20.8351 113.301 18.4055 106.563 16.5834Z" fill="#503C3C" fill-opacity="0.3" stroke="#503C3C" stroke-opacity="0.3" stroke-width="2.00902"/>
<path d="M82.673 192.121C75.8124 191.635 60.6212 160.536 68.5843 173.292C76.5475 186.047 82.0927 189.054 83.8981 188.476C89.085 187.08 96.1655 175.136 99.2119 175.114C102.258 175.092 109.871 191.513 115.138 191.513C120.405 191.513 129.227 177.543 135.965 170.255C118.814 199.41 115.138 193.336 112.075 193.336C109.013 193.336 104.112 184.832 99.2119 177.543C89.4111 186.654 89.5336 192.607 82.673 192.121Z" fill="#503C3C" fill-opacity="0.3" stroke="#503C3C" stroke-opacity="0.3" stroke-width="2.00902"/>
<path d="M73.4012 90.0218C70.401 99.6357 64.8595 106.475 56.2653 103.838C48.2216 101.37 46.994 92.4535 49.9942 82.8396C52.9944 73.2257 58.0223 66.3891 67.2103 68.2105C75.1737 70.6411 76.4014 80.4079 73.4012 90.0218Z" fill="black"/>
<path d="M134.047 85.9746C133.332 96.0133 135.999 104.378 144.973 105.007C153.372 105.595 157.773 97.7241 158.488 87.6855C159.203 77.6468 157.013 69.4688 147.783 67.8671C139.473 67.273 134.761 75.9359 134.047 85.9746Z" fill="black"/>
<path d="M40.8701 69.4272C42.2994 61.5311 50.1809 47.6825 70.2726 55.4571" stroke="black" stroke-width="2.00902" stroke-linecap="round"/>
<path d="M165.269 70.8306C164.358 62.8594 157.396 48.5343 136.84 55.0042" stroke="black" stroke-width="2.00902" stroke-linecap="round"/>
<mask id="path-19-inside-1_1520_4095" fill="white">
<ellipse cx="35.9702" cy="104.66" rx="1.2251" ry="1.21479"/>
</mask>
<ellipse cx="35.9702" cy="104.66" rx="1.2251" ry="1.21479" fill="black"/>
<path d="M37.1953 104.66H35.1863C35.1863 104.205 35.5533 103.866 35.9702 103.866V105.875V107.884C37.7403 107.884 39.2043 106.457 39.2043 104.66H37.1953ZM35.9702 105.875V103.866C36.3871 103.866 36.7541 104.205 36.7541 104.66H34.7451H32.7361C32.7361 106.457 34.2001 107.884 35.9702 107.884V105.875ZM34.7451 104.66H36.7541C36.7541 105.115 36.3871 105.454 35.9702 105.454V103.445V101.436C34.2001 101.436 32.7361 102.864 32.7361 104.66H34.7451ZM35.9702 103.445V105.454C35.5533 105.454 35.1863 105.115 35.1863 104.66H37.1953H39.2043C39.2043 102.864 37.7403 101.436 35.9702 101.436V103.445Z" fill="#503C3C" mask="url(#path-19-inside-1_1520_4095)"/>
<mask id="path-21-inside-2_1520_4095" fill="white">
<ellipse cx="1.2251" cy="1.21479" rx="1.2251" ry="1.21479" transform="matrix(-1 0 0 1 167.055 107.09)"/>
</mask>
<ellipse cx="1.2251" cy="1.21479" rx="1.2251" ry="1.21479" transform="matrix(-1 0 0 1 167.055 107.09)" fill="black"/>
<path d="M164.604 108.305H166.613C166.613 107.85 166.246 107.51 165.83 107.51V109.519V111.528C164.059 111.528 162.595 110.101 162.595 108.305H164.604ZM165.83 109.519V107.51C165.413 107.51 165.046 107.85 165.046 108.305H167.055H169.064C169.064 110.101 167.6 111.528 165.83 111.528V109.519ZM167.055 108.305H165.046C165.046 108.759 165.413 109.099 165.83 109.099V107.09V105.081C167.6 105.081 169.064 106.508 169.064 108.305H167.055ZM165.83 107.09V109.099C166.246 109.099 166.613 108.759 166.613 108.305H164.604H162.595C162.595 106.508 164.059 105.081 165.83 105.081V107.09Z" fill="#503C3C" mask="url(#path-21-inside-2_1520_4095)"/>
<mask id="path-23-inside-3_1520_4095" fill="white">
<ellipse cx="38.4204" cy="116.805" rx="1.2251" ry="1.21479"/>
</mask>
<ellipse cx="38.4204" cy="116.805" rx="1.2251" ry="1.21479" fill="black"/>
<path d="M39.6455 116.805H37.6365C37.6365 116.35 38.0035 116.01 38.4204 116.01V118.019V120.028C40.1905 120.028 41.6545 118.601 41.6545 116.805H39.6455ZM38.4204 118.019V116.01C38.8373 116.01 39.2043 116.35 39.2043 116.805H37.1953H35.1863C35.1863 118.601 36.6503 120.028 38.4204 120.028V118.019ZM37.1953 116.805H39.2043C39.2043 117.259 38.8373 117.599 38.4204 117.599V115.59V113.581C36.6503 113.581 35.1863 115.008 35.1863 116.805H37.1953ZM38.4204 115.59V117.599C38.0035 117.599 37.6365 117.259 37.6365 116.805H39.6455H41.6545C41.6545 115.008 40.1905 113.581 38.4204 113.581V115.59Z" fill="#503C3C" mask="url(#path-23-inside-3_1520_4095)"/>
<mask id="path-25-inside-4_1520_4095" fill="white">
<ellipse cx="1.2251" cy="1.21479" rx="1.2251" ry="1.21479" transform="matrix(-1 0 0 1 164.605 119.234)"/>
</mask>
<ellipse cx="1.2251" cy="1.21479" rx="1.2251" ry="1.21479" transform="matrix(-1 0 0 1 164.605 119.234)" fill="black"/>
<path d="M162.155 120.449H164.164C164.164 119.995 163.797 119.655 163.38 119.655V121.664V123.673C161.61 123.673 160.146 122.246 160.146 120.449H162.155ZM163.38 121.664V119.655C162.963 119.655 162.596 119.995 162.596 120.449H164.605H166.614C166.614 122.246 165.15 123.673 163.38 123.673V121.664ZM164.605 120.449H162.596C162.596 120.904 162.963 121.243 163.38 121.243V119.234V117.225C165.15 117.225 166.614 118.653 166.614 120.449H164.605ZM163.38 119.234V121.243C163.797 121.243 164.164 120.904 164.164 120.449H162.155H160.146C160.146 118.653 161.61 117.225 163.38 117.225V119.234Z" fill="#503C3C" mask="url(#path-25-inside-4_1520_4095)"/>
<mask id="path-27-inside-5_1520_4095" fill="white">
<ellipse cx="46.9966" cy="105.871" rx="1.2251" ry="1.21479"/>
</mask>
<ellipse cx="46.9966" cy="105.871" rx="1.2251" ry="1.21479" fill="black"/>
<path d="M48.2217 105.871H46.2127C46.2127 105.416 46.5797 105.077 46.9966 105.077V107.086V109.095C48.7667 109.095 50.2307 107.667 50.2307 105.871H48.2217ZM46.9966 107.086V105.077C47.4135 105.077 47.7805 105.416 47.7805 105.871H45.7715H43.7625C43.7625 107.667 45.2265 109.095 46.9966 109.095V107.086ZM45.7715 105.871H47.7805C47.7805 106.326 47.4135 106.665 46.9966 106.665V104.656V102.647C45.2265 102.647 43.7625 104.075 43.7625 105.871H45.7715ZM46.9966 104.656V106.665C46.5797 106.665 46.2127 106.326 46.2127 105.871H48.2217H50.2307C50.2307 104.075 48.7667 102.647 46.9966 102.647V104.656Z" fill="#503C3C" mask="url(#path-27-inside-5_1520_4095)"/>
<mask id="path-29-inside-6_1520_4095" fill="white">
<ellipse cx="1.2251" cy="1.21479" rx="1.2251" ry="1.21479" transform="matrix(-1 0 0 1 156.03 108.301)"/>
</mask>
<ellipse cx="1.2251" cy="1.21479" rx="1.2251" ry="1.21479" transform="matrix(-1 0 0 1 156.03 108.301)" fill="black"/>
<path d="M153.58 109.516H155.589C155.589 109.061 155.222 108.721 154.805 108.721V110.73V112.739C153.035 112.739 151.571 111.312 151.571 109.516H153.58ZM154.805 110.73V108.721C154.388 108.721 154.021 109.061 154.021 109.516H156.03H158.039C158.039 111.312 156.575 112.739 154.805 112.739V110.73ZM156.03 109.516H154.021C154.021 109.97 154.388 110.31 154.805 110.31V108.301V106.292C156.575 106.292 158.039 107.719 158.039 109.516H156.03ZM154.805 108.301V110.31C155.222 110.31 155.589 109.97 155.589 109.516H153.58H151.571C151.571 107.719 153.035 106.292 154.805 106.292V108.301Z" fill="#503C3C" mask="url(#path-29-inside-6_1520_4095)"/>
<path d="M83.8247 98.3331C83.1644 98.7259 81.8438 100.127 81.8438 102.589C81.8438 105.051 90.7799 112.607 95.248 116.077L110.831 104.291C111.712 103.135 112.944 100.494 110.831 99.1843C108.19 97.5474 94.1255 93.2915 83.8247 98.3331Z" fill="#DB867D"/>
<path d="M95.3879 116.199C90.4875 112.757 80.9317 105.023 81.9118 101.621M95.3879 116.199L110.702 104.051M95.3879 116.199V122.88M95.3879 122.88L91.1001 127.739M95.3879 122.88L100.288 127.739" stroke="black" stroke-width="2.00902" stroke-linecap="round"/>
<path d="M83.75 97.9744C87.8337 96.1523 98.9413 93.8442 110.702 99.1892" stroke="black" stroke-width="2.00902" stroke-linecap="round"/>
</svg>
