<svg width="573" height="23" viewBox="0 0 573 23" fill="none" xmlns="http://www.w3.org/2000/svg">
<ellipse cx="2.9943" cy="11.8124" rx="2.92589" ry="2.9943" transform="rotate(-90 2.9943 11.8124)" fill="#D1AF98"/>
<ellipse cx="11.9777" cy="11.8124" rx="2.92589" ry="2.9943" transform="rotate(-90 11.9777 11.8124)" fill="#D1AF98"/>
<ellipse cx="7.48551" cy="16.203" rx="2.92589" ry="2.9943" transform="rotate(-90 7.48551 16.203)" fill="#D1AF98"/>
<ellipse cx="7.48551" cy="7.42567" rx="2.92589" ry="2.9943" transform="rotate(-90 7.48551 7.42567)" fill="#D1AF98"/>
<path d="M19 11.5L468 11.5" stroke="#D1AF98" stroke-width="2"/>
<path d="M479.952 16.0996V16.1162C479.802 16.0941 479.462 16.083 478.931 16.083C478.161 16.083 477.708 16.0609 477.569 16.0166C477.647 15.9723 477.76 15.9281 477.91 15.8838C478.065 15.834 478.186 15.7786 478.275 15.7178C478.369 15.6514 478.452 15.5518 478.524 15.4189C478.535 15.3968 478.554 15.3525 478.582 15.2861C478.615 15.2197 478.64 15.1699 478.657 15.1367L478.897 15.0454L478.69 14.896L478.707 14.5889C478.823 14.4727 478.881 14.2983 478.881 14.0659C478.881 14.0382 478.867 13.9884 478.839 13.9165C478.817 13.8446 478.809 13.792 478.814 13.7588L478.98 11.9409C478.992 11.8524 479.019 11.6891 479.063 11.4512C479.108 11.2077 479.13 11.0195 479.13 10.8867C479.108 10.8203 479.097 10.7179 479.097 10.5796C479.097 10.3748 479.077 10.0649 479.039 9.6499C479 9.23486 478.98 8.92497 478.98 8.72021C478.98 8.68148 478.989 8.62891 479.005 8.5625C479.028 8.49056 479.041 8.44352 479.047 8.42139C479.08 8.24984 479.097 7.99251 479.097 7.64941C479.097 7.57194 479.088 7.4668 479.072 7.33398C479.055 7.19564 479.047 7.08773 479.047 7.01025C479.047 6.91064 479.066 6.77507 479.105 6.60352C479.144 6.43197 479.166 6.32406 479.171 6.27979L479.113 6.17188C479.025 6.16081 478.889 6.15527 478.707 6.15527C478.624 6.15527 478.505 6.15251 478.35 6.14697C478.195 6.14144 478.076 6.13867 477.993 6.13867C477.832 6.07227 477.572 6.03906 477.212 6.03906C477.102 6.03906 476.938 6.05013 476.723 6.07227C476.512 6.0944 476.357 6.10547 476.258 6.10547C476.197 6.10547 476.083 6.05566 475.917 5.95605C475.829 6.10547 475.757 6.18848 475.702 6.20508C475.585 6.24382 475.37 6.28809 475.054 6.33789C474.744 6.38216 474.506 6.4458 474.34 6.52881C474.335 6.52881 474.329 6.52604 474.324 6.52051C474.318 6.51497 474.313 6.51221 474.307 6.51221C474.279 6.51221 474.238 6.52327 474.183 6.54541C474.133 6.56755 474.094 6.57861 474.066 6.57861L474.033 6.56201L474 6.4624C474.304 5.88135 474.479 5.56868 474.523 5.52441C474.661 5.41374 474.725 5.3252 474.714 5.25879C474.742 5.20898 474.783 5.13704 474.838 5.04297C474.899 4.94889 474.946 4.87419 474.979 4.81885C475.013 4.75798 475.049 4.68604 475.087 4.60303C475.132 4.51449 475.165 4.43148 475.187 4.354C475.292 4.3208 475.428 4.25439 475.594 4.15479C475.76 4.05518 475.873 3.99154 475.934 3.96387C475.945 3.96387 475.959 3.96663 475.976 3.97217C475.998 3.9777 476.014 3.98047 476.025 3.98047C476.125 3.98047 476.202 3.9694 476.258 3.94727L476.291 3.91406H476.349C476.499 3.91406 476.662 3.94727 476.839 4.01367L476.938 4.2876C476.972 4.27653 477.019 4.23779 477.08 4.17139C477.14 4.09945 477.196 4.06348 477.246 4.06348C477.34 4.06348 477.475 4.06901 477.652 4.08008C477.829 4.09115 477.965 4.09668 478.059 4.09668L478.134 4.12988C478.278 4.12988 478.493 4.15755 478.781 4.21289C479.069 4.2627 479.288 4.2876 479.437 4.2876L479.578 4.49512C479.633 4.48405 479.722 4.44808 479.844 4.38721C479.971 4.3208 480.073 4.2876 480.151 4.2876C480.488 4.2876 480.998 4.30973 481.678 4.354C482.359 4.39827 482.871 4.42041 483.214 4.42041C483.474 4.42041 483.839 4.37891 484.31 4.2959C484.785 4.21289 485.178 4.12988 485.488 4.04688C485.505 4.05241 485.552 4.07454 485.629 4.11328C485.707 4.14648 485.768 4.16585 485.812 4.17139L485.92 4.03027C486.119 3.94727 486.327 3.87533 486.542 3.81445L486.717 3.84766C486.49 4.22396 486.343 4.53939 486.277 4.79395C486.199 4.89355 486.125 5.0651 486.053 5.30859C485.876 5.52995 485.757 5.71533 485.696 5.86475C485.624 5.92562 485.477 6.06396 485.256 6.27979C485.217 6.27979 485.159 6.27702 485.082 6.27148C485.01 6.26042 484.954 6.25488 484.916 6.25488C484.816 6.25488 484.622 6.27979 484.334 6.32959C484.263 6.25765 484.099 6.22168 483.845 6.22168C483.767 6.22168 483.657 6.21615 483.513 6.20508C483.369 6.19401 483.258 6.18848 483.181 6.18848C483.087 6.18848 482.993 6.19678 482.898 6.21338C482.804 6.22998 482.691 6.25765 482.558 6.29639C482.425 6.32959 482.337 6.35173 482.292 6.36279L482.176 6.27979C481.949 6.36833 481.684 6.4126 481.379 6.4126C481.197 6.4126 481.067 6.40706 480.989 6.396L480.923 6.479L480.956 6.56201V7.25928C480.956 7.89567 480.973 8.36051 481.006 8.65381C481.006 8.67041 481.014 8.76172 481.031 8.92773C481.047 9.08822 481.056 9.21273 481.056 9.30127C481.056 9.42855 481.039 9.61947 481.006 9.87402C480.973 10.1286 480.956 10.3223 480.956 10.4551C480.956 10.5381 480.995 10.6183 481.072 10.6958C481.072 10.7677 481.067 10.8701 481.056 11.0029C481.045 11.1357 481.039 11.2381 481.039 11.3101C481.039 11.3654 481.058 11.4512 481.097 11.5674C481.136 11.6781 481.155 11.7611 481.155 11.8164V12.3145C481.139 12.3255 481.097 12.3504 481.031 12.3892C480.97 12.4279 480.926 12.4639 480.898 12.4971L481.172 12.6548C481.183 12.6991 481.188 12.7599 481.188 12.8374C481.188 12.9038 481.183 12.9951 481.172 13.1113C481.161 13.2275 481.155 13.3133 481.155 13.3687C481.155 13.5955 481.208 13.7477 481.313 13.8252L481.255 13.958L481.363 13.9912C481.39 14.0742 481.415 14.1628 481.438 14.2568C481.46 14.3454 481.482 14.445 481.504 14.5557C481.526 14.6663 481.545 14.7521 481.562 14.813C481.523 14.9237 481.473 15.0177 481.413 15.0952L481.545 15.1201C481.711 15.4023 481.872 15.6043 482.027 15.7261C482.082 15.7703 482.174 15.8201 482.301 15.8755C482.434 15.9253 482.528 15.9723 482.583 16.0166C482.494 16.0166 482.359 16.0194 482.176 16.0249C481.994 16.0304 481.858 16.0332 481.77 16.0332L481.637 15.9004L481.512 16.0498C481.462 16.0498 481.385 16.0443 481.28 16.0332C481.18 16.0221 481.105 16.0166 481.056 16.0166C480.884 16.0166 480.76 16.0332 480.682 16.0664C480.571 16.0443 480.4 16.0332 480.167 16.0332C480.167 16.0775 480.096 16.0996 479.952 16.0996ZM493.658 16.2407C493.508 16.2407 493.348 16.2297 493.176 16.2075C493.01 16.1909 492.828 16.1688 492.629 16.1411C492.429 16.1134 492.274 16.0941 492.164 16.083C492.081 16.0443 492.009 15.9613 491.948 15.834C491.876 15.8561 491.757 15.8783 491.591 15.9004C491.536 15.8727 491.383 15.8008 491.134 15.6846C490.885 15.5684 490.683 15.4632 490.528 15.3691C490.373 15.2695 490.246 15.1616 490.147 15.0454C490.064 14.9513 490.019 14.8711 490.014 14.8047C490.008 14.7383 489.986 14.694 489.947 14.6719C489.914 14.6442 489.798 14.5999 489.599 14.5391C489.317 14.1185 489.175 13.8114 489.175 13.6177C489.175 13.5623 489.184 13.4821 489.2 13.377C489.217 13.2663 489.225 13.1833 489.225 13.1279C489.225 12.8955 489.117 12.7129 488.901 12.5801C488.791 12.0488 488.735 11.2326 488.735 10.1313C488.735 10.0705 488.722 9.97917 488.694 9.85742C488.672 9.73568 488.661 9.6416 488.661 9.5752C488.661 9.47559 488.672 9.257 488.694 8.91943C488.722 8.58187 488.735 8.33008 488.735 8.16406C488.735 8.06999 488.722 7.93994 488.694 7.77393C488.727 7.69092 488.769 7.61621 488.818 7.5498C488.735 7.43913 488.694 7.34782 488.694 7.27588C488.694 7.23161 488.702 7.1652 488.719 7.07666C488.741 6.98258 488.752 6.91341 488.752 6.86914C488.752 6.73633 488.711 6.62842 488.628 6.54541L488.661 6.4126C488.639 6.18571 488.594 5.84538 488.528 5.3916L488.561 5.27539C488.517 5.17578 488.412 5.05127 488.246 4.90186C488.085 4.75244 487.986 4.65007 487.947 4.59473H487.897C487.809 4.47298 487.759 4.40934 487.748 4.40381L487.623 4.22119C487.712 4.21566 487.858 4.21842 488.063 4.22949C488.268 4.24056 488.401 4.24333 488.462 4.23779L488.984 4.20459L489.308 4.45361C489.447 4.35954 489.599 4.27653 489.765 4.20459H490.039C490.116 4.20459 490.224 4.20736 490.362 4.21289C490.506 4.21842 490.614 4.22119 490.686 4.22119V4.25439C490.725 4.25439 490.783 4.24886 490.86 4.23779C490.943 4.22673 491.004 4.22119 491.043 4.22119C491.104 4.22119 491.198 4.22949 491.325 4.24609C491.453 4.2627 491.547 4.271 491.608 4.271C491.663 4.271 491.735 4.25993 491.823 4.23779V4.2876C491.785 4.3208 491.693 4.38721 491.549 4.48682C491.411 4.58643 491.323 4.65283 491.284 4.68604C491.251 4.71924 491.187 4.78288 491.093 4.87695C491.004 4.96549 490.946 5.04574 490.919 5.11768C490.891 5.18408 490.86 5.27262 490.827 5.3833C490.8 5.49398 490.786 5.61572 490.786 5.74854C490.786 5.84261 490.761 5.99479 490.711 6.20508C490.667 6.40983 490.647 6.56478 490.653 6.66992L490.553 6.78613C490.653 7.27311 490.703 7.60238 490.703 7.77393C490.703 7.82373 490.694 7.89844 490.678 7.99805C490.661 8.09212 490.653 8.16406 490.653 8.21387C490.653 8.42969 490.681 8.74788 490.736 9.16846C490.791 9.5835 490.819 9.89893 490.819 10.1147C490.786 10.1646 490.769 10.2171 490.769 10.2725C490.769 10.3167 490.78 10.3859 490.802 10.48C490.83 10.5685 490.844 10.6349 490.844 10.6792C490.844 10.7622 490.833 10.884 490.811 11.0444C490.794 11.2049 490.786 11.3267 490.786 11.4097C490.786 11.5923 490.86 11.7694 491.01 11.9409C491.01 12.5109 491.17 12.9868 491.491 13.3687C491.818 13.745 492.263 13.9884 492.828 14.0991C492.839 14.1434 492.875 14.2153 492.936 14.3149C492.997 14.4146 493.03 14.4837 493.035 14.5225C493.118 14.4007 493.179 14.2928 493.218 14.1987H493.326C493.47 14.1987 493.672 14.1711 493.932 14.1157C494.197 14.0549 494.397 14.0244 494.529 14.0244C494.64 14.0244 494.737 13.9829 494.82 13.8999C494.908 13.8169 494.994 13.7035 495.077 13.5596C495.16 13.4157 495.221 13.3216 495.26 13.2773L495.517 13.1611C495.517 13.0671 495.495 12.9315 495.451 12.7544C495.561 12.6659 495.65 12.5303 495.716 12.3477C495.788 12.165 495.824 11.9935 495.824 11.833C495.824 11.7445 495.805 11.6532 495.766 11.5591C495.827 11.3377 495.869 10.9919 495.891 10.5215C495.913 10.0511 495.929 9.77441 495.941 9.69141V9.6582C495.941 9.625 495.932 9.56689 495.916 9.48389C495.899 9.39535 495.891 9.33447 495.891 9.30127C495.891 9.22933 495.899 9.11589 495.916 8.96094C495.932 8.80599 495.941 8.68701 495.941 8.604C495.941 8.43799 495.927 8.19173 495.899 7.86523C495.871 7.53874 495.858 7.29801 495.858 7.14307C495.858 7.08773 495.88 7.01302 495.924 6.91895C495.974 6.82487 496.001 6.75846 496.007 6.71973L495.824 6.49561C495.846 6.41813 495.858 6.29915 495.858 6.13867C495.858 6.05013 495.816 5.93669 495.733 5.79834C495.656 5.65999 495.617 5.54655 495.617 5.45801C495.589 5.39714 495.553 5.33626 495.509 5.27539C495.465 5.20898 495.412 5.13704 495.351 5.05957C495.296 4.9821 495.254 4.92399 495.227 4.88525C495.21 4.81331 495.18 4.74691 495.135 4.68604C495.091 4.61963 495.036 4.55322 494.969 4.48682C494.903 4.42041 494.853 4.36507 494.82 4.3208C494.881 4.33187 495.066 4.3374 495.376 4.3374L495.451 4.37061H495.6C495.678 4.37061 495.786 4.354 495.924 4.3208C496.068 4.28206 496.159 4.25993 496.198 4.25439C496.441 4.3208 496.782 4.354 497.219 4.354C497.313 4.354 497.443 4.35124 497.609 4.3457C497.781 4.34017 497.905 4.3374 497.983 4.3374C498.016 4.3374 498.066 4.33464 498.132 4.3291C498.204 4.32357 498.256 4.3208 498.29 4.3208L498.389 4.22119C498.666 4.24886 498.829 4.25993 498.879 4.25439C498.669 4.39274 498.528 4.51725 498.456 4.62793C498.384 4.73861 498.326 4.86865 498.281 5.01807C498.237 5.16748 498.171 5.30859 498.082 5.44141C498.082 5.59635 498.068 5.82324 498.041 6.12207C498.013 6.4209 497.999 6.64779 497.999 6.80273C497.999 6.88021 498.002 6.99089 498.007 7.13477C498.013 7.27865 498.016 7.38932 498.016 7.4668C498.016 7.5332 498.007 7.63281 497.991 7.76562C497.974 7.89844 497.966 7.99805 497.966 8.06445L498.016 8.08105V8.19727C498.016 8.39095 498.024 8.68424 498.041 9.07715C498.057 9.46452 498.066 9.75505 498.066 9.94873C498.06 9.95426 498.03 9.97917 497.974 10.0234C497.924 10.0677 497.883 10.1092 497.85 10.1479C497.822 10.1867 497.808 10.2227 497.808 10.2559C497.808 10.3057 497.836 10.3721 497.891 10.4551C497.952 10.5381 497.988 10.5907 497.999 10.6128C497.977 10.812 497.958 11.1496 497.941 11.6255C497.93 12.1014 497.902 12.4666 497.858 12.7212L497.642 12.8706L497.841 13.1113L497.675 13.8916C497.498 13.9469 497.39 14.0659 497.352 14.2485C497.307 14.2873 497.258 14.3537 497.202 14.4478C497.147 14.5418 497.105 14.6055 497.078 14.6387C496.596 15.2087 496.093 15.6182 495.567 15.8672C495.047 16.1162 494.41 16.2407 493.658 16.2407ZM505.737 16.0996V16.1162C505.588 16.0941 505.247 16.083 504.716 16.083C503.947 16.083 503.493 16.0609 503.355 16.0166C503.432 15.9723 503.546 15.9281 503.695 15.8838C503.85 15.834 503.972 15.7786 504.06 15.7178C504.154 15.6514 504.237 15.5518 504.309 15.4189C504.32 15.3968 504.34 15.3525 504.367 15.2861C504.401 15.2197 504.425 15.1699 504.442 15.1367L504.683 15.0454L504.475 14.896L504.492 14.5889C504.608 14.4727 504.666 14.2983 504.666 14.0659C504.666 14.0382 504.652 13.9884 504.625 13.9165C504.603 13.8446 504.594 13.792 504.6 13.7588L504.766 11.9409C504.777 11.8524 504.805 11.6891 504.849 11.4512C504.893 11.2077 504.915 11.0195 504.915 10.8867C504.893 10.8203 504.882 10.7179 504.882 10.5796C504.882 10.3748 504.863 10.0649 504.824 9.6499C504.785 9.23486 504.766 8.92497 504.766 8.72021C504.766 8.68148 504.774 8.62891 504.791 8.5625C504.813 8.49056 504.827 8.44352 504.832 8.42139C504.865 8.24984 504.882 7.99251 504.882 7.64941C504.882 7.57194 504.874 7.4668 504.857 7.33398C504.841 7.19564 504.832 7.08773 504.832 7.01025C504.832 6.91064 504.852 6.77507 504.89 6.60352C504.929 6.43197 504.951 6.32406 504.957 6.27979L504.899 6.17188C504.81 6.16081 504.675 6.15527 504.492 6.15527C504.409 6.15527 504.29 6.15251 504.135 6.14697C503.98 6.14144 503.861 6.13867 503.778 6.13867C503.618 6.07227 503.357 6.03906 502.998 6.03906C502.887 6.03906 502.724 6.05013 502.508 6.07227C502.298 6.0944 502.143 6.10547 502.043 6.10547C501.982 6.10547 501.869 6.05566 501.703 5.95605C501.614 6.10547 501.542 6.18848 501.487 6.20508C501.371 6.24382 501.155 6.28809 500.84 6.33789C500.53 6.38216 500.292 6.4458 500.126 6.52881C500.12 6.52881 500.115 6.52604 500.109 6.52051C500.104 6.51497 500.098 6.51221 500.092 6.51221C500.065 6.51221 500.023 6.52327 499.968 6.54541C499.918 6.56755 499.879 6.57861 499.852 6.57861L499.819 6.56201L499.785 6.4624C500.09 5.88135 500.264 5.56868 500.308 5.52441C500.447 5.41374 500.51 5.3252 500.499 5.25879C500.527 5.20898 500.568 5.13704 500.624 5.04297C500.685 4.94889 500.732 4.87419 500.765 4.81885C500.798 4.75798 500.834 4.68604 500.873 4.60303C500.917 4.51449 500.95 4.43148 500.972 4.354C501.078 4.3208 501.213 4.25439 501.379 4.15479C501.545 4.05518 501.659 3.99154 501.719 3.96387C501.731 3.96387 501.744 3.96663 501.761 3.97217C501.783 3.9777 501.8 3.98047 501.811 3.98047C501.91 3.98047 501.988 3.9694 502.043 3.94727L502.076 3.91406H502.134C502.284 3.91406 502.447 3.94727 502.624 4.01367L502.724 4.2876C502.757 4.27653 502.804 4.23779 502.865 4.17139C502.926 4.09945 502.981 4.06348 503.031 4.06348C503.125 4.06348 503.261 4.06901 503.438 4.08008C503.615 4.09115 503.75 4.09668 503.844 4.09668L503.919 4.12988C504.063 4.12988 504.279 4.15755 504.567 4.21289C504.854 4.2627 505.073 4.2876 505.222 4.2876L505.363 4.49512C505.419 4.48405 505.507 4.44808 505.629 4.38721C505.756 4.3208 505.859 4.2876 505.936 4.2876C506.274 4.2876 506.783 4.30973 507.464 4.354C508.144 4.39827 508.656 4.42041 508.999 4.42041C509.259 4.42041 509.625 4.37891 510.095 4.2959C510.571 4.21289 510.964 4.12988 511.274 4.04688C511.29 4.05241 511.337 4.07454 511.415 4.11328C511.492 4.14648 511.553 4.16585 511.597 4.17139L511.705 4.03027C511.904 3.94727 512.112 3.87533 512.328 3.81445L512.502 3.84766C512.275 4.22396 512.129 4.53939 512.062 4.79395C511.985 4.89355 511.91 5.0651 511.838 5.30859C511.661 5.52995 511.542 5.71533 511.481 5.86475C511.409 5.92562 511.263 6.06396 511.041 6.27979C511.002 6.27979 510.944 6.27702 510.867 6.27148C510.795 6.26042 510.74 6.25488 510.701 6.25488C510.601 6.25488 510.408 6.27979 510.12 6.32959C510.048 6.25765 509.885 6.22168 509.63 6.22168C509.553 6.22168 509.442 6.21615 509.298 6.20508C509.154 6.19401 509.043 6.18848 508.966 6.18848C508.872 6.18848 508.778 6.19678 508.684 6.21338C508.59 6.22998 508.476 6.25765 508.343 6.29639C508.211 6.32959 508.122 6.35173 508.078 6.36279L507.962 6.27979C507.735 6.36833 507.469 6.4126 507.165 6.4126C506.982 6.4126 506.852 6.40706 506.775 6.396L506.708 6.479L506.741 6.56201V7.25928C506.741 7.89567 506.758 8.36051 506.791 8.65381C506.791 8.67041 506.8 8.76172 506.816 8.92773C506.833 9.08822 506.841 9.21273 506.841 9.30127C506.841 9.42855 506.824 9.61947 506.791 9.87402C506.758 10.1286 506.741 10.3223 506.741 10.4551C506.741 10.5381 506.78 10.6183 506.858 10.6958C506.858 10.7677 506.852 10.8701 506.841 11.0029C506.83 11.1357 506.824 11.2381 506.824 11.3101C506.824 11.3654 506.844 11.4512 506.883 11.5674C506.921 11.6781 506.941 11.7611 506.941 11.8164V12.3145C506.924 12.3255 506.883 12.3504 506.816 12.3892C506.755 12.4279 506.711 12.4639 506.683 12.4971L506.957 12.6548C506.968 12.6991 506.974 12.7599 506.974 12.8374C506.974 12.9038 506.968 12.9951 506.957 13.1113C506.946 13.2275 506.941 13.3133 506.941 13.3687C506.941 13.5955 506.993 13.7477 507.098 13.8252L507.04 13.958L507.148 13.9912C507.176 14.0742 507.201 14.1628 507.223 14.2568C507.245 14.3454 507.267 14.445 507.289 14.5557C507.311 14.6663 507.331 14.7521 507.347 14.813C507.309 14.9237 507.259 15.0177 507.198 15.0952L507.331 15.1201C507.497 15.4023 507.657 15.6043 507.812 15.7261C507.868 15.7703 507.959 15.8201 508.086 15.8755C508.219 15.9253 508.313 15.9723 508.368 16.0166C508.28 16.0166 508.144 16.0194 507.962 16.0249C507.779 16.0304 507.643 16.0332 507.555 16.0332L507.422 15.9004L507.298 16.0498C507.248 16.0498 507.17 16.0443 507.065 16.0332C506.966 16.0221 506.891 16.0166 506.841 16.0166C506.669 16.0166 506.545 16.0332 506.467 16.0664C506.357 16.0443 506.185 16.0332 505.953 16.0332C505.953 16.0775 505.881 16.0996 505.737 16.0996ZM518.007 16.3901C517.686 16.3901 517.075 16.3293 516.173 16.2075C516.09 16.1466 516.023 16.0277 515.973 15.8506C515.879 15.9059 515.741 15.9557 515.558 16C515.514 15.9779 515.406 15.9198 515.235 15.8257C515.069 15.7261 514.952 15.6569 514.886 15.6182C514.825 15.5794 514.731 15.5213 514.604 15.4438C514.482 15.3608 514.374 15.2834 514.28 15.2114C514.192 15.134 514.103 15.0509 514.014 14.9624C513.007 13.9718 512.504 12.8042 512.504 11.4595C512.504 11.3101 512.462 11.05 512.379 10.6792C512.39 10.5851 512.41 10.314 512.437 9.86572C512.459 9.31787 512.54 8.74235 512.678 8.13916C512.822 7.53044 513.024 7.05176 513.284 6.70312C513.361 6.59245 513.492 6.51774 513.674 6.479C513.702 6.24658 513.741 6.08887 513.79 6.00586C514.067 5.54655 514.441 5.16195 514.911 4.85205C515.387 4.53662 515.879 4.31527 516.388 4.18799C516.903 4.05518 517.443 3.986 518.007 3.98047L517.957 3.91406C518.013 3.90299 518.098 3.89746 518.215 3.89746C518.464 3.89746 518.837 3.90853 519.335 3.93066C519.446 3.99154 519.532 4.10498 519.593 4.271C519.759 4.22119 519.922 4.18799 520.082 4.17139C520.165 4.21566 520.318 4.2959 520.539 4.41211C520.76 4.52832 520.929 4.61963 521.045 4.68604C521.161 4.75244 521.3 4.84652 521.46 4.96826C521.626 5.08447 521.767 5.20345 521.884 5.3252C522.16 5.62956 522.39 5.89795 522.573 6.13037C522.755 6.35726 522.941 6.62565 523.129 6.93555C523.317 7.23991 523.452 7.55811 523.535 7.89014C523.624 8.21663 523.663 8.55697 523.652 8.91113C523.674 8.99967 523.685 9.06331 523.685 9.10205C523.685 9.25146 523.652 9.37598 523.585 9.47559L523.826 9.6582C523.804 9.81868 523.779 10.1895 523.751 10.7705C523.724 11.346 523.663 11.786 523.569 12.0903L523.212 12.2397L523.436 12.5303C523.297 12.984 523.126 13.3465 522.921 13.6177C522.905 13.6398 522.877 13.673 522.838 13.7173C522.799 13.7616 522.769 13.8031 522.747 13.8418C522.73 13.875 522.716 13.9137 522.705 13.958C522.517 14.1019 522.279 14.3675 521.992 14.7549C521.704 15.1423 521.466 15.4106 521.278 15.5601C521.228 15.5988 521.175 15.632 521.12 15.6597C521.07 15.6873 521.001 15.7178 520.912 15.751C520.824 15.7786 520.763 15.798 520.73 15.8091C519.855 16.1965 518.948 16.3901 518.007 16.3901ZM518.381 14.6719C518.502 14.6719 518.721 14.6414 519.036 14.5806C519.352 14.5142 519.51 14.4478 519.51 14.3813C519.902 14.2541 520.262 13.9414 520.589 13.4434C520.915 12.9398 521.125 12.4556 521.22 11.9907L521.377 11.9409V11.8662C521.377 11.8441 521.363 11.7943 521.336 11.7168C521.308 11.6393 521.294 11.5757 521.294 11.5259C521.294 11.3765 521.327 11.1551 521.394 10.8618C521.46 10.5685 521.493 10.3499 521.493 10.2061C521.493 10.0732 521.474 9.86296 521.435 9.5752C521.402 9.28743 521.366 9.09928 521.327 9.01074V8.97754C521.327 8.9222 521.28 8.83643 521.186 8.72021C521.137 8.39925 521.067 8.11702 520.979 7.87354C520.89 7.62451 520.804 7.43359 520.721 7.30078C520.638 7.16797 520.539 6.99089 520.423 6.76953C520.312 6.54818 520.215 6.31576 520.132 6.07227H519.883C519.783 5.98926 519.604 5.90072 519.344 5.80664C519.089 5.71257 518.912 5.61849 518.812 5.52441C518.74 5.50228 518.655 5.48568 518.555 5.47461C518.461 5.46354 518.383 5.45801 518.323 5.45801C518.267 5.45247 518.176 5.45247 518.049 5.45801C517.921 5.45801 517.841 5.45801 517.808 5.45801C517.736 5.45801 517.683 5.46354 517.65 5.47461L517.742 5.59912C517.16 5.65999 516.754 5.74577 516.521 5.85645C516.294 5.96712 516.015 6.23275 515.683 6.65332L515.309 6.66992L515.442 7.04346C515.038 7.75179 514.817 8.37988 514.778 8.92773C514.773 9.02734 514.748 9.22103 514.703 9.50879C514.665 9.79102 514.645 10.0124 514.645 10.1729C514.645 10.2669 514.662 10.3997 514.695 10.5713C514.728 10.7428 514.745 10.8701 514.745 10.9531C514.745 11.0638 514.706 11.2215 514.629 11.4263C514.789 11.5203 514.903 11.6061 514.969 11.6836C515.008 11.9769 515.152 12.3449 515.401 12.7876C515.655 13.2303 515.918 13.637 516.189 14.0078H516.314C516.369 14.0521 516.488 14.1323 516.671 14.2485C516.859 14.3647 516.994 14.4616 517.077 14.5391C517.155 14.5391 517.296 14.5778 517.501 14.6553C517.611 14.6497 517.769 14.6525 517.974 14.6636C518.179 14.6691 518.314 14.6719 518.381 14.6719ZM535.183 16.1494C534.857 16.1107 534.389 16.083 533.78 16.0664C533.171 16.0498 532.751 16.0332 532.518 16.0166C532.629 15.9502 532.77 15.8312 532.942 15.6597C532.953 15.6154 532.958 15.5545 532.958 15.4771C532.958 15.3332 532.903 15.1229 532.792 14.8462C532.577 14.6414 532.316 14.3094 532.012 13.8501C531.713 13.3908 531.553 13.0477 531.531 12.8208C531.381 12.7765 531.251 12.6714 531.141 12.5054C531.03 12.3394 530.933 12.1484 530.85 11.9326C530.773 11.7168 530.684 11.4982 530.584 11.2769C530.49 11.0555 530.357 10.848 530.186 10.6543C530.02 10.4551 529.818 10.3112 529.58 10.2227L529.489 10.3223C529.439 10.2393 529.359 10.1562 529.248 10.0732C529.143 9.99023 529.043 9.93213 528.949 9.89893C529.004 9.82699 529.085 9.67204 529.19 9.43408C529.395 9.38981 529.541 9.36214 529.63 9.35107C529.74 9.30127 529.915 9.257 530.153 9.21826C530.396 9.17399 530.573 9.12695 530.684 9.07715C530.955 8.94987 531.237 8.75895 531.531 8.50439C531.829 8.24984 532.023 8.00635 532.112 7.77393L531.971 7.63281C532.02 7.41146 532.045 7.25928 532.045 7.17627C532.045 6.78337 531.907 6.49007 531.63 6.29639C531.575 6.28532 531.486 6.27979 531.365 6.27979C531.343 6.26872 531.284 6.23551 531.19 6.18018C531.096 6.12484 531.033 6.08887 530.999 6.07227C530.972 6.05566 530.916 6.02799 530.833 5.98926C530.756 5.94499 530.692 5.91455 530.642 5.89795C530.598 5.88135 530.54 5.86198 530.468 5.83984C530.396 5.81771 530.327 5.80387 530.261 5.79834C530.194 5.78727 530.125 5.78174 530.053 5.78174C529.893 5.78174 529.721 5.79281 529.538 5.81494C529.356 5.83154 529.157 5.85368 528.941 5.88135C528.731 5.90902 528.567 5.92839 528.451 5.93945C528.363 6.35449 528.318 6.96045 528.318 7.75732C528.318 7.8016 528.307 7.868 528.285 7.95654C528.263 8.03955 528.252 8.10319 528.252 8.14746C528.252 8.27474 528.338 8.44906 528.509 8.67041C528.459 9.51709 528.434 10.0843 528.434 10.3721C528.434 10.5547 528.459 10.9006 528.509 11.4097C528.448 11.4705 528.351 11.5452 528.219 11.6338C528.268 11.6559 528.354 11.6781 528.476 11.7002C528.565 12.1761 528.609 12.5718 528.609 12.8872C528.609 12.9924 528.598 13.1335 528.576 13.3105L528.675 13.4019C528.675 13.7948 528.719 14.2181 528.808 14.6719C528.742 14.7604 528.703 14.8351 528.692 14.896L528.933 15.0122C529.027 15.1672 529.135 15.3083 529.256 15.4355C529.384 15.5573 529.483 15.6486 529.555 15.7095C529.633 15.7648 529.776 15.8672 529.987 16.0166C529.793 16.0166 529.514 16.0277 529.148 16.0498L529.032 15.917L528.866 16.0498C528.8 16.0387 528.692 16.0332 528.542 16.0332H527.762H527.721C527.643 16.0332 527.571 16 527.505 15.9336C527.433 15.9613 527.328 15.9834 527.189 16C527.051 16.0166 526.946 16.0387 526.874 16.0664C526.199 16.0443 525.684 16.0332 525.33 16.0332C525.623 15.9115 525.817 15.7814 525.911 15.6431C526.005 15.5047 526.088 15.2668 526.16 14.9292L526.293 14.813L526.193 14.6055L526.243 14.2319C526.337 14.0991 526.384 13.8778 526.384 13.5679C526.384 13.3963 526.359 13.2275 526.309 13.0615C526.426 12.8844 526.484 12.4694 526.484 11.8164V11.0527C526.484 10.7539 526.489 10.5602 526.5 10.4717C526.511 10.4163 526.547 10.3416 526.608 10.2476C526.675 10.1535 526.708 10.0705 526.708 9.99854C526.708 9.96533 526.689 9.90999 526.65 9.83252C526.617 9.75505 526.6 9.69694 526.6 9.6582C526.6 9.49219 526.583 9.2404 526.55 8.90283C526.517 8.56527 526.5 8.31348 526.5 8.14746C526.5 8.09766 526.509 8.02295 526.525 7.92334C526.542 7.8182 526.55 7.74072 526.55 7.69092C526.55 7.56364 526.525 7.31738 526.475 6.95215C526.431 6.58138 526.423 6.29915 526.451 6.10547C526.351 6.10547 526.141 6.17464 525.82 6.31299C525.687 6.29085 525.585 6.27979 525.513 6.27979C525.441 6.27979 525.338 6.29639 525.205 6.32959C525.073 6.36279 524.97 6.37939 524.898 6.37939L525.006 6.18848C525.078 6.0612 525.134 5.95329 525.172 5.86475C525.211 5.77067 525.222 5.70426 525.205 5.66553C525.322 5.48291 525.507 5.21729 525.762 4.86865C526.022 4.51449 526.21 4.24609 526.326 4.06348C526.614 4.14648 526.824 4.22119 526.957 4.2876H527.148L527.231 4.354C527.452 4.3208 527.889 4.3042 528.542 4.3042C528.642 4.3042 528.783 4.29036 528.966 4.2627C529.148 4.23503 529.289 4.22119 529.389 4.22119C529.627 4.22119 530.061 4.24056 530.692 4.2793C531.323 4.3125 531.694 4.34294 531.805 4.37061C531.838 4.38167 531.868 4.40934 531.896 4.45361C531.924 4.49788 531.948 4.52832 531.971 4.54492L532.145 4.3374C532.516 4.40934 532.878 4.53385 533.232 4.71094C533.592 4.88249 533.907 5.13151 534.179 5.45801C534.455 5.77897 534.594 6.13037 534.594 6.51221C534.594 6.81657 534.524 7.13753 534.386 7.4751C534.253 7.81266 534.085 8.09766 533.88 8.33008C533.553 8.68978 533.235 8.99691 532.925 9.25146L533.025 9.31787C532.947 9.43408 532.803 9.57243 532.593 9.73291C532.388 9.88786 532.222 9.98193 532.095 10.0151C532.09 10.0151 532.04 10.0262 531.946 10.0483C531.852 10.0705 531.782 10.0926 531.738 10.1147C531.882 10.2199 532.112 10.4966 532.427 10.9448C532.743 11.3875 532.914 11.6172 532.942 11.6338C533.418 12.4528 533.894 13.1445 534.37 13.709C534.347 13.7643 534.325 13.8473 534.303 13.958C534.358 13.9469 534.444 13.9414 534.56 13.9414C534.848 14.2845 535.119 14.5391 535.374 14.7051L535.424 14.8296C535.523 14.8573 535.634 14.9403 535.756 15.0786C535.883 15.2114 535.966 15.2917 536.005 15.3193C535.972 15.4854 535.949 15.5767 535.938 15.5933L536.154 15.5269C536.381 15.6873 536.666 15.8451 537.009 16C536.755 16.0664 536.497 16.0996 536.237 16.0996C536.187 16.0996 536.11 16.0913 536.005 16.0747C535.905 16.0581 535.83 16.0498 535.781 16.0498C535.747 16.0498 535.687 16.0609 535.598 16.083C535.51 16.0609 535.435 16.0498 535.374 16.0498C535.357 16.0498 535.338 16.0498 535.316 16.0498C535.294 16.0553 535.269 16.0609 535.241 16.0664C535.219 16.0719 535.202 16.083 535.191 16.0996C535.18 16.1162 535.177 16.1328 535.183 16.1494ZM537.882 16.083H537.401V16C537.5 15.9779 537.628 15.8838 537.783 15.7178C537.938 15.5462 538.032 15.4079 538.065 15.3027C538.098 15.2087 538.129 15.0648 538.156 14.8711C538.189 14.6774 538.223 14.5335 538.256 14.4395C538.223 14.2458 538.206 13.9608 538.206 13.5845C538.206 13.1418 538.242 12.4832 538.314 11.6089C538.386 10.729 538.422 10.0677 538.422 9.625L538.679 9.52539L538.53 9.40088C538.469 9.11865 538.438 8.80322 538.438 8.45459C538.438 8.28304 538.447 8.02572 538.463 7.68262C538.486 7.33952 538.497 7.08496 538.497 6.91895C538.497 6.86361 538.505 6.7806 538.521 6.66992C538.538 6.55371 538.546 6.46794 538.546 6.4126C538.546 6.31299 538.535 6.21061 538.513 6.10547C538.497 6.00033 538.469 5.88411 538.43 5.75684C538.397 5.62956 538.372 5.52995 538.355 5.45801L538.472 5.29199L538.306 5.22559C538.278 5.03743 538.206 4.86035 538.09 4.69434C537.974 4.52832 537.83 4.42041 537.658 4.37061C537.702 4.34294 537.755 4.3208 537.816 4.3042C537.877 4.2876 537.927 4.2793 537.965 4.2793C538.01 4.27376 538.073 4.26823 538.156 4.2627C538.239 4.25716 538.295 4.25439 538.322 4.25439C538.383 4.27653 538.45 4.29313 538.521 4.3042C538.599 4.31527 538.66 4.32357 538.704 4.3291C538.748 4.3291 538.82 4.3291 538.92 4.3291C539.02 4.32357 539.086 4.3208 539.119 4.3208C539.241 4.3208 539.424 4.3291 539.667 4.3457C539.91 4.3623 540.09 4.37061 540.207 4.37061C540.461 4.37061 540.741 4.34294 541.045 4.2876L541.418 4.37061V4.38721H541.402C541.07 4.59749 540.837 4.89632 540.705 5.28369C540.577 5.67106 540.497 6.12207 540.464 6.63672L540.24 6.73633L540.447 6.86914C540.403 7.01855 540.381 7.19564 540.381 7.40039C540.381 7.54427 540.395 7.76286 540.422 8.05615C540.45 8.34945 540.464 8.5708 540.464 8.72021C540.464 8.72575 540.456 8.75342 540.439 8.80322C540.422 8.84749 540.414 8.8724 540.414 8.87793C540.42 8.94434 540.431 9.07438 540.447 9.26807C540.469 9.46175 540.48 9.61393 540.48 9.72461C540.48 9.73568 540.467 9.78825 540.439 9.88232C540.417 9.9764 540.403 10.0317 540.397 10.0483C540.453 10.408 540.48 10.7373 540.48 11.0361C540.48 11.1136 540.472 11.2298 540.456 11.3848C540.439 11.5397 540.431 11.6559 540.431 11.7334C540.431 11.9824 540.464 12.3532 540.53 12.8457C540.602 13.3382 540.638 13.709 540.638 13.958V14.0244L540.447 14.2485L540.655 14.3315L540.771 15.1201L540.837 15.1533C540.848 15.2031 540.862 15.2502 540.879 15.2944C540.896 15.3387 540.915 15.3857 540.937 15.4355C540.965 15.4854 540.987 15.5269 541.003 15.5601C541.02 15.5877 541.048 15.6292 541.086 15.6846C541.131 15.7399 541.158 15.7786 541.169 15.8008C541.186 15.8174 541.219 15.8589 541.269 15.9253C541.319 15.9862 541.347 16.0221 541.352 16.0332V16.083C541.28 16.0719 541.169 16.0609 541.02 16.0498C540.871 16.0387 540.76 16.0277 540.688 16.0166L540.563 15.8838L540.414 16.0498H539.526C539.448 16.0498 539.368 16.047 539.285 16.0415C539.202 16.036 539.108 16.0277 539.003 16.0166C538.898 16.0111 538.818 16.0055 538.762 16L538.629 15.7427L538.513 15.9502C538.264 15.9502 538.054 15.9945 537.882 16.083ZM546.724 16.0996H546.234C546.168 16.0996 546.099 16.0913 546.027 16.0747C545.961 16.0581 545.886 16.036 545.803 16.0083C545.725 15.9806 545.664 15.9613 545.62 15.9502C545.565 15.9889 545.51 16.0138 545.454 16.0249C545.399 16.036 545.338 16.0415 545.272 16.0415C545.205 16.047 545.147 16.0553 545.097 16.0664L544.823 15.9668C544.774 15.9723 544.696 15.9889 544.591 16.0166C544.491 16.0498 544.411 16.0664 544.35 16.0664C544.284 16.0664 544.176 16.0526 544.026 16.0249C543.877 15.9972 543.758 15.9889 543.67 16L543.528 15.9502C543.396 15.7067 543.302 15.4964 543.246 15.3193L543.329 15.2197L543.279 15.1699C543.313 14.932 543.448 14.658 543.686 14.3481C544.173 13.6951 544.502 12.937 544.674 12.0737L544.823 11.8662C544.801 11.7777 544.79 11.7057 544.79 11.6504C544.79 11.4567 544.893 11.0998 545.097 10.5796C545.302 10.0539 545.471 9.70247 545.604 9.52539L545.587 9.23486C545.609 9.18506 545.648 9.13525 545.703 9.08545C545.764 9.03564 545.795 8.94987 545.795 8.82812C545.795 8.75618 545.811 8.68701 545.844 8.62061C546.071 8.20557 546.315 7.60238 546.575 6.81104C546.84 6.01416 546.976 5.4165 546.982 5.01807C547.015 4.96826 547.078 4.91846 547.172 4.86865C547.272 4.81885 547.338 4.77734 547.372 4.74414L547.579 4.91846L547.729 4.74414C547.9 4.6888 548.011 4.65007 548.061 4.62793C548.116 4.60579 548.174 4.56706 548.235 4.51172C548.301 4.45638 548.382 4.36507 548.476 4.23779C548.525 4.21012 548.589 4.16862 548.667 4.11328H548.833L548.99 4.271C549.084 4.271 549.145 4.3457 549.173 4.49512C549.212 4.7054 549.286 4.99593 549.397 5.3667C549.508 5.73193 549.577 5.96712 549.605 6.07227C549.732 6.17741 549.876 6.49561 550.036 7.02686C550.202 7.55257 550.318 7.98145 550.385 8.31348L550.484 8.40479C550.484 8.46012 550.493 8.521 550.509 8.5874C550.526 8.64827 550.54 8.69531 550.551 8.72852C550.567 8.76172 550.595 8.81982 550.634 8.90283C550.678 8.98031 550.703 9.02734 550.709 9.04395L550.551 9.33447L550.825 9.40088C550.902 9.86019 551.088 10.527 551.381 11.4014C551.68 12.2702 551.937 12.8955 552.153 13.2773C552.181 13.3216 552.244 13.4157 552.344 13.5596C552.443 13.6979 552.51 13.8086 552.543 13.8916L552.659 13.9746C552.659 13.9801 552.811 14.2928 553.116 14.9126C553.066 14.9956 553.016 15.0869 552.966 15.1865H553.24L554.021 16.0332C553.882 16.0221 553.678 16.0166 553.406 16.0166C553.379 16.0166 553.337 16.0138 553.282 16.0083C553.226 16.0028 553.185 16 553.157 16C553.096 16 553.033 16.0111 552.966 16.0332C552.811 16.0111 552.692 16 552.609 16C552.549 16 552.455 16.0055 552.327 16.0166C552.2 16.0277 552.1 16.0332 552.028 16.0332C551.995 16.0332 551.951 16.0249 551.896 16.0083C551.84 15.9917 551.796 15.9834 551.763 15.9834C551.713 15.9834 551.636 15.9917 551.53 16.0083C551.425 16.0249 551.348 16.0332 551.298 16.0332C551.093 16.0332 550.886 16.0166 550.675 15.9834C550.432 16.0387 550.13 16.0664 549.771 16.0664C549.721 16.0664 549.643 16.0636 549.538 16.0581C549.439 16.0526 549.364 16.0498 549.314 16.0498C549.585 15.8672 549.748 15.7482 549.804 15.6929C549.826 15.6707 549.848 15.6403 549.87 15.6016C549.898 15.5573 549.934 15.4964 549.978 15.4189C550.028 15.3415 550.078 15.264 550.128 15.1865C550.211 15.0482 550.255 14.9624 550.26 14.9292L550.128 14.7383C550.094 14.6055 550.078 14.4754 550.078 14.3481C550.078 14.2541 550.089 14.1296 550.111 13.9746C549.995 13.709 549.845 13.2995 549.663 12.7461C549.486 12.1872 549.364 11.8219 549.297 11.6504C548.943 11.667 548.462 11.7583 547.853 11.9243C547.25 12.0903 546.835 12.2591 546.608 12.4307C546.409 12.9896 546.284 13.5734 546.234 14.1821C546.207 14.2043 546.179 14.2319 546.151 14.2651C546.129 14.2928 546.104 14.3315 546.077 14.3813C546.055 14.4256 546.038 14.4561 546.027 14.4727C546.066 14.5501 546.085 14.6276 546.085 14.7051C546.085 14.7493 546.074 14.8158 546.052 14.9043C546.035 14.9928 546.027 15.0454 546.027 15.062C546.066 15.1174 546.096 15.1782 546.118 15.2446C546.146 15.311 546.168 15.3885 546.185 15.4771C546.201 15.5656 546.218 15.632 546.234 15.6763C546.456 15.8534 546.619 15.9945 546.724 16.0996ZM547.123 10.7622C547.217 10.7456 547.363 10.7207 547.563 10.6875C547.767 10.6543 547.931 10.6266 548.052 10.6045C548.174 10.5768 548.318 10.5409 548.484 10.4966C548.65 10.4468 548.797 10.3887 548.924 10.3223C548.918 10.2503 548.888 10.112 548.833 9.90723C548.783 9.69694 548.761 9.53369 548.766 9.41748C548.689 9.30127 548.611 9.11865 548.534 8.86963C548.462 8.62061 548.42 8.41862 548.409 8.26367C548.365 8.17513 548.318 8.03678 548.268 7.84863C548.224 7.66048 548.185 7.52767 548.152 7.4502C548.063 7.61621 547.969 7.76286 547.87 7.89014C547.825 8.18343 547.762 8.48779 547.679 8.80322C547.601 9.11312 547.502 9.47005 547.38 9.87402C547.258 10.278 547.172 10.5741 547.123 10.7622ZM542.831 16.1909C542.77 16.1909 542.601 16.1771 542.325 16.1494C542.563 15.9115 542.751 15.6735 542.889 15.4355L542.972 15.3857C543.028 15.4079 543.072 15.43 543.105 15.4521C543.105 15.4909 543.113 15.5324 543.13 15.5767C543.152 15.6209 543.171 15.6541 543.188 15.6763C543.205 15.6984 543.232 15.7344 543.271 15.7842C543.31 15.834 543.335 15.8672 543.346 15.8838V16.0498C543.23 16.0498 543.155 16.0885 543.122 16.166C543.088 16.166 543.039 16.1688 542.972 16.1743C542.911 16.1854 542.864 16.1909 542.831 16.1909ZM556.488 16.0166C556.321 16.0166 556.061 16.0111 555.707 16C555.359 15.9889 555.101 15.9834 554.935 15.9834V15.9336L555.076 15.8091C555.126 15.7759 555.182 15.7178 555.242 15.6348C555.309 15.5462 555.359 15.4715 555.392 15.4106C555.425 15.3442 555.475 15.2446 555.541 15.1118C555.608 14.979 555.644 14.9071 555.649 14.896L555.674 14.6719C555.818 14.4062 555.89 14.0853 555.89 13.709L555.94 13.6177L555.956 12.9702L556.214 12.688L555.989 12.5469C556.072 11.6947 556.114 10.8618 556.114 10.0483C556.114 9.68864 556.108 9.42855 556.097 9.26807L556.313 8.97754L556.131 8.62061V8.521C556.131 8.38265 556.125 8.1696 556.114 7.88184C556.103 7.59408 556.097 7.38102 556.097 7.24268C556.097 7.20394 556.108 7.13753 556.131 7.04346C556.153 6.94938 556.164 6.89681 556.164 6.88574C556.103 6.78613 556.028 6.70866 555.94 6.65332C555.929 6.54264 555.912 6.34619 555.89 6.06396C555.868 5.7762 555.846 5.55762 555.823 5.4082C555.807 5.30859 555.699 5.17578 555.5 5.00977C555.3 4.83822 555.198 4.69987 555.193 4.59473L555.01 4.354C555.093 4.34294 555.229 4.31803 555.417 4.2793C555.605 4.23503 555.752 4.21012 555.857 4.20459L556.164 4.47021L556.363 4.25439C556.418 4.24886 556.499 4.24609 556.604 4.24609C556.714 4.24056 556.814 4.23503 556.903 4.22949C556.991 4.22396 557.074 4.21566 557.152 4.20459C557.251 4.23779 557.359 4.25439 557.475 4.25439C557.481 4.25439 557.506 4.24609 557.55 4.22949C557.6 4.21289 557.63 4.20459 557.641 4.20459C558.073 4.29313 558.397 4.32633 558.613 4.3042L558.662 4.3374L558.779 4.3208L558.812 4.2876C558.945 4.30973 559.041 4.3208 559.102 4.3208V4.37061C558.599 4.74691 558.3 5.13151 558.206 5.52441L557.965 5.68213L558.173 5.88135C558.161 5.95329 558.142 6.0612 558.114 6.20508C558.087 6.34342 558.065 6.4707 558.048 6.58691C558.031 6.70312 558.026 6.8138 558.031 6.91895C558.009 6.95215 557.998 7.04899 557.998 7.20947C557.998 7.58024 558.009 8.13639 558.031 8.87793C558.054 9.61947 558.065 10.1756 558.065 10.5464C558.065 10.9393 558.081 11.2326 558.114 11.4263L557.932 11.75C557.943 11.7832 557.973 11.833 558.023 11.8994C558.078 11.9658 558.109 12.0239 558.114 12.0737C558.153 12.3006 558.175 12.6299 558.181 13.0615C558.186 13.4876 558.206 13.8031 558.239 14.0078L558.388 14.2651C558.565 14.3537 558.707 14.3979 558.812 14.3979C558.939 14.3979 559.122 14.3813 559.36 14.3481C559.603 14.3149 559.783 14.2983 559.899 14.2983H560.024C560.046 14.2983 560.071 14.3149 560.098 14.3481C560.132 14.3813 560.162 14.3979 560.19 14.3979C560.306 14.3979 560.486 14.3703 560.729 14.3149C560.978 14.2596 561.166 14.2319 561.294 14.2319C561.521 14.2319 561.775 14.1849 562.057 14.0908C562.345 13.9912 562.591 13.875 562.796 13.7422H562.829C562.962 13.6204 563.114 13.4378 563.286 13.1943C563.319 13.1501 563.344 13.0726 563.361 12.9619C563.383 12.8512 563.408 12.7765 563.435 12.7378H563.493L563.56 12.6714C563.56 12.7323 563.579 12.818 563.618 12.9287C563.662 13.0339 563.687 13.1113 563.693 13.1611C563.615 13.2663 563.576 13.341 563.576 13.3853L563.776 13.5513C563.809 13.6564 563.883 13.9525 564 14.4395C564.121 14.9209 564.229 15.2889 564.323 15.5435C564.323 15.5822 564.332 15.6431 564.348 15.7261C564.365 15.8035 564.373 15.8617 564.373 15.9004C564.373 15.9115 564.37 15.9281 564.365 15.9502C564.359 15.9723 564.357 15.9889 564.357 16L564.191 16.0166C563.626 16.0166 563.081 16 562.555 15.9668L562.364 15.7593C562.331 15.7593 562.262 15.8008 562.157 15.8838C562.052 15.9613 561.985 16 561.958 16C561.797 16 561.554 15.9862 561.227 15.9585C560.901 15.9308 560.657 15.917 560.497 15.917C560.336 15.917 560.101 15.9253 559.791 15.9419C559.481 15.9585 559.246 15.9668 559.086 15.9668H557.691L557.708 15.917C557.619 15.9225 557.492 15.9364 557.326 15.9585C557.16 15.9751 557.008 15.9889 556.869 16C556.737 16.0111 556.609 16.0166 556.488 16.0166Z" fill="#D1AF98"/>
</svg>
