<svg width="211" height="62" viewBox="0 0 211 62" fill="none" xmlns="http://www.w3.org/2000/svg">
<path d="M14.0781 32.3438C13.7969 32.3438 13.5625 32.2552 13.375 32.0781C13.1875 31.901 13.0938 31.6615 13.0938 31.3594C13.0938 31.0573 13.1875 30.8177 13.375 30.6406C13.5625 30.4531 13.7969 30.3594 14.0781 30.3594H24.25C24.5312 30.3594 24.7604 30.4531 24.9375 30.6406C25.125 30.8177 25.2188 31.0573 25.2188 31.3594C25.2188 31.6615 25.125 31.901 24.9375 32.0781C24.7604 32.2552 24.5312 32.3438 24.25 32.3438H14.0781ZM4.48438 33.2188V6.1875C4.48438 4.44792 4.98958 3.07812 6 2.07812C7.02083 1.06771 8.41146 0.5625 10.1719 0.5625H28.125C29.8958 0.5625 31.2865 1.06771 32.2969 2.07812C33.3073 3.07812 33.8125 4.44792 33.8125 6.1875V33.2188C33.8125 34.9688 33.3073 36.3438 32.2969 37.3438C31.2865 38.3542 29.8958 38.8594 28.125 38.8594H10.1719C8.41146 38.8594 7.02083 38.3542 6 37.3438C4.98958 36.3438 4.48438 34.9688 4.48438 33.2188ZM9.375 32.4531C9.375 32.9427 9.5 33.3177 9.75 33.5781C10 33.8385 10.3906 33.9688 10.9219 33.9688H27.375C27.9062 33.9688 28.2969 33.8385 28.5469 33.5781C28.7969 33.3177 28.9219 32.9427 28.9219 32.4531V6.98438C28.9219 6.47396 28.7969 6.08854 28.5469 5.82812C28.2969 5.56771 27.9062 5.4375 27.375 5.4375H10.9219C10.3906 5.4375 10 5.56771 9.75 5.82812C9.5 6.08854 9.375 6.47396 9.375 6.98438V32.4531Z" fill="white"/>
<path d="M5.42621 58H2.50121C2.26721 58 2.16321 57.896 2.16321 57.623C2.16321 57.376 2.24121 57.246 2.41021 57.181L2.78721 57.025C3.12521 56.882 3.30721 56.687 3.30721 56.154V50.746C3.30721 50.213 3.12521 50.005 2.78721 49.875L2.41021 49.719C2.24121 49.654 2.16321 49.524 2.16321 49.277C2.16321 49.004 2.26721 48.9 2.50121 48.9H5.42621C5.66021 48.9 5.76421 49.004 5.76421 49.277C5.76421 49.524 5.68621 49.654 5.51721 49.719L5.14021 49.875C4.80221 50.005 4.62021 50.213 4.62021 50.746V56.154C4.62021 56.687 4.80221 56.882 5.14021 57.025L5.51721 57.181C5.68621 57.246 5.76421 57.376 5.76421 57.623C5.76421 57.896 5.66021 58 5.42621 58ZM8.29672 48.9H12.7557C15.1607 48.9 16.0057 50.122 16.0057 51.591C16.0057 53.372 14.7577 54.672 12.1837 54.672H10.4157V56.154C10.4157 56.674 10.5847 56.908 11.2087 57.051L11.7027 57.168C11.8977 57.22 11.9887 57.35 11.9887 57.623C11.9887 57.896 11.8847 58 11.6507 58H8.29672C8.06272 58 7.95872 57.896 7.95872 57.623C7.95872 57.376 8.03672 57.246 8.20572 57.181L8.58272 57.025C8.92072 56.882 9.10272 56.687 9.10272 56.154V50.746C9.10272 50.213 8.92072 50.005 8.58272 49.875L8.20572 49.719C8.03672 49.654 7.95872 49.524 7.95872 49.277C7.95872 49.004 8.06272 48.9 8.29672 48.9ZM10.4157 53.58H12.1577C13.8477 53.58 14.5627 52.722 14.5627 51.656C14.5627 50.577 13.8607 50.005 12.6257 50.005H10.4157V53.58ZM25.7363 57.064L25.9053 57.168C26.0613 57.272 26.1393 57.363 26.1393 57.597C26.1393 57.883 26.0483 58 25.8013 58H23.1493C22.9023 58 22.8113 57.883 22.8113 57.597C22.8113 57.363 22.8893 57.233 23.0453 57.168L23.3573 57.064C23.7993 56.882 23.8643 56.583 23.6953 56.141L23.3053 55.088H19.2363L18.8203 56.141C18.6513 56.583 18.7293 56.895 19.1843 57.064L19.4963 57.181C19.6523 57.233 19.7303 57.363 19.7303 57.597C19.7303 57.883 19.6263 58 19.3793 58H16.9223C16.6883 58 16.5973 57.883 16.5973 57.597C16.5973 57.363 16.6753 57.272 16.8313 57.168L16.9873 57.051C17.2993 56.83 17.4423 56.635 17.7023 55.972L20.2763 49.485C20.5103 48.874 20.7443 48.757 21.4073 48.757C22.0703 48.757 22.2263 48.874 22.4733 49.511L25.0343 55.998C25.2813 56.609 25.4373 56.843 25.7363 57.064ZM21.3163 49.758L19.6393 54.048H22.9153L21.3163 49.758ZM28.1016 48.9H32.1706C35.4206 48.9 36.8506 51.019 36.8506 53.151C36.8506 56.323 34.8486 58 31.7416 58H28.1016C27.8676 58 27.7636 57.896 27.7636 57.623C27.7636 57.376 27.8416 57.246 28.0106 57.181L28.3876 57.025C28.7256 56.882 28.9076 56.687 28.9076 56.154V50.746C28.9076 50.213 28.7256 50.005 28.3876 49.875L28.0106 49.719C27.8416 49.654 27.7636 49.524 27.7636 49.277C27.7636 49.004 27.8676 48.9 28.1016 48.9ZM30.2206 56.895H31.7286C34.0426 56.895 35.3426 55.517 35.3426 53.346C35.3426 51.071 33.9776 50.005 31.8716 50.005H30.2206V56.895Z" fill="white"/>
<path d="M93.0625 16.625C93.0417 16.0729 93.2135 15.5833 93.5781 15.1562C93.9427 14.7292 94.4062 14.5052 94.9688 14.4844C95.0104 14.8177 94.9479 15.1562 94.7812 15.5C94.6146 15.8438 94.3802 16.125 94.0781 16.3438C93.776 16.5625 93.4375 16.6562 93.0625 16.625ZM96.9062 21.4375C96.8021 21.7708 96.6406 22.1406 96.4219 22.5469C96.2031 22.9531 95.9323 23.2917 95.6094 23.5625C95.5052 23.6458 95.3854 23.7188 95.25 23.7812C95.125 23.8438 94.974 23.875 94.7969 23.875C94.6406 23.875 94.5052 23.849 94.3906 23.7969C94.276 23.7448 94.1458 23.6979 94 23.6562C93.9062 23.6354 93.8021 23.6042 93.6875 23.5625C93.5729 23.5208 93.4375 23.5 93.2812 23.5C92.9375 23.5 92.6615 23.5677 92.4531 23.7031C92.2552 23.8385 92.0104 23.9062 91.7188 23.9062C91.3854 23.9062 91.0104 23.6667 90.5938 23.1875C90.1875 22.7396 89.8646 22.1927 89.625 21.5469C89.3854 20.901 89.2656 20.276 89.2656 19.6719C89.2656 19.3073 89.3177 18.9531 89.4219 18.6094C89.526 18.2552 89.6875 17.9375 89.9062 17.6562C90.3229 17.1042 90.9062 16.8281 91.6562 16.8281C92.0104 16.8281 92.2969 16.901 92.5156 17.0469C92.7344 17.1927 92.9375 17.2656 93.125 17.2656C93.3229 17.2656 93.5573 17.1927 93.8281 17.0469C94.1094 16.8906 94.4583 16.8125 94.875 16.8125C95.6562 16.8125 96.2552 17.1146 96.6719 17.7188C96.401 17.8854 96.2031 18.0625 96.0781 18.25C95.9531 18.4375 95.8646 18.6042 95.8125 18.75C95.7188 18.9792 95.6667 19.2292 95.6562 19.5C95.6458 19.7604 95.6979 20.0312 95.8125 20.3125C95.9062 20.5729 96.0417 20.7969 96.2188 20.9844C96.4062 21.1615 96.6354 21.3125 96.9062 21.4375ZM100.688 15.1719V16.8125H102.062V17.9375H100.688V21.8125C100.688 22.3958 100.984 22.6875 101.578 22.6875C101.641 22.6875 101.719 22.6875 101.812 22.6875C101.917 22.6771 101.979 22.6667 102 22.6562V23.8281C101.958 23.8385 101.865 23.849 101.719 23.8594C101.573 23.8698 101.411 23.875 101.234 23.875C100.526 23.875 100.016 23.7344 99.7031 23.4531C99.401 23.1615 99.25 22.6667 99.25 21.9688V17.9375H98.2656V16.8125H99.25V15.1719H100.688ZM106.781 23.8281H105.266L102.703 16.8125H104.234L106.016 22.4531L107.75 16.8125H109.312L106.781 23.8281ZM92.3594 36.0469C90.651 36.0469 89.224 35.8906 88.0781 35.5781C86.9427 35.2656 85.9583 34.6979 85.125 33.875C84.3021 33.0625 83.7396 32.0885 83.4375 30.9531C83.1354 29.8073 82.9844 28.375 82.9844 26.6562V12.8125C82.9844 11.0938 83.1354 9.66667 83.4375 8.53125C83.7396 7.39583 84.3021 6.41667 85.125 5.59375C85.9479 4.78125 86.9323 4.21875 88.0781 3.90625C89.224 3.59375 90.651 3.4375 92.3594 3.4375H106.234C107.943 3.4375 109.37 3.59375 110.516 3.90625C111.661 4.21875 112.646 4.78125 113.469 5.59375C114.292 6.40625 114.854 7.38542 115.156 8.53125C115.469 9.66667 115.625 11.099 115.625 12.8281V26.6562C115.625 28.375 115.469 29.8021 115.156 30.9375C114.854 32.0729 114.292 33.0521 113.469 33.875C112.656 34.6979 111.672 35.2656 110.516 35.5781C109.37 35.8906 107.943 36.0469 106.234 36.0469H92.3594ZM91.9375 31.1406H106.672C107.495 31.1406 108.156 31.0781 108.656 30.9531C109.167 30.8177 109.578 30.5938 109.891 30.2812C110.193 29.9792 110.406 29.5833 110.531 29.0938C110.667 28.5938 110.734 27.9271 110.734 27.0938V12.3906C110.734 11.5573 110.667 10.8958 110.531 10.4062C110.406 9.90625 110.193 9.5 109.891 9.1875C109.578 8.875 109.167 8.65625 108.656 8.53125C108.156 8.39583 107.495 8.32812 106.672 8.32812H91.9375C91.1042 8.32812 90.4375 8.39583 89.9375 8.53125C89.4375 8.65625 89.026 8.875 88.7031 9.1875C88.401 9.5 88.1875 9.90625 88.0625 10.4062C87.9375 10.8958 87.875 11.5625 87.875 12.4062V27.0938C87.875 27.9271 87.9375 28.5938 88.0625 29.0938C88.1875 29.5833 88.401 29.9792 88.7031 30.2812C89.026 30.5938 89.4375 30.8177 89.9375 30.9531C90.4375 31.0781 91.1042 31.1406 91.9375 31.1406Z" fill="white"/>
<path d="M73.0962 57.064L73.2652 57.168C73.4212 57.272 73.4992 57.363 73.4992 57.597C73.4992 57.883 73.4082 58 73.1612 58H70.5092C70.2622 58 70.1712 57.883 70.1712 57.597C70.1712 57.363 70.2492 57.233 70.4052 57.168L70.7172 57.064C71.1592 56.882 71.2242 56.583 71.0552 56.141L70.6652 55.088H66.5962L66.1802 56.141C66.0112 56.583 66.0892 56.895 66.5442 57.064L66.8562 57.181C67.0122 57.233 67.0902 57.363 67.0902 57.597C67.0902 57.883 66.9862 58 66.7392 58H64.2822C64.0482 58 63.9572 57.883 63.9572 57.597C63.9572 57.363 64.0352 57.272 64.1912 57.168L64.3472 57.051C64.6592 56.83 64.8022 56.635 65.0622 55.972L67.6362 49.485C67.8702 48.874 68.1042 48.757 68.7672 48.757C69.4302 48.757 69.5862 48.874 69.8332 49.511L72.3942 55.998C72.6412 56.609 72.7972 56.843 73.0962 57.064ZM68.6762 49.758L66.9992 54.048H70.2752L68.6762 49.758ZM75.4616 48.9H79.9206C82.3256 48.9 83.1706 50.122 83.1706 51.591C83.1706 53.372 81.9226 54.672 79.3486 54.672H77.5806V56.154C77.5806 56.674 77.7496 56.908 78.3736 57.051L78.8676 57.168C79.0626 57.22 79.1536 57.35 79.1536 57.623C79.1536 57.896 79.0496 58 78.8156 58H75.4616C75.2276 58 75.1236 57.896 75.1236 57.623C75.1236 57.376 75.2016 57.246 75.3706 57.181L75.7476 57.025C76.0856 56.882 76.2676 56.687 76.2676 56.154V50.746C76.2676 50.213 76.0856 50.005 75.7476 49.875L75.3706 49.719C75.2016 49.654 75.1236 49.524 75.1236 49.277C75.1236 49.004 75.2276 48.9 75.4616 48.9ZM77.5806 53.58H79.3226C81.0126 53.58 81.7276 52.722 81.7276 51.656C81.7276 50.577 81.0256 50.005 79.7906 50.005H77.5806V53.58ZM85.2053 48.9H89.6643C92.0693 48.9 92.9143 50.122 92.9143 51.591C92.9143 53.372 91.6663 54.672 89.0923 54.672H87.3243V56.154C87.3243 56.674 87.4933 56.908 88.1173 57.051L88.6113 57.168C88.8063 57.22 88.8973 57.35 88.8973 57.623C88.8973 57.896 88.7933 58 88.5593 58H85.2053C84.9713 58 84.8673 57.896 84.8673 57.623C84.8673 57.376 84.9453 57.246 85.1143 57.181L85.4913 57.025C85.8293 56.882 86.0113 56.687 86.0113 56.154V50.746C86.0113 50.213 85.8293 50.005 85.4913 49.875L85.1143 49.719C84.9453 49.654 84.8673 49.524 84.8673 49.277C84.8673 49.004 84.9713 48.9 85.2053 48.9ZM87.3243 53.58H89.0663C90.7563 53.58 91.4713 52.722 91.4713 51.656C91.4713 50.577 90.7693 50.005 89.5343 50.005H87.3243V53.58ZM101.774 54.464C102.19 54.568 102.19 54.75 102.151 55.179L101.904 57.48C101.865 57.844 101.67 58 101.254 58H94.9491C94.7151 58 94.6111 57.896 94.6111 57.623C94.6111 57.376 94.6891 57.246 94.8581 57.181L95.2351 57.025C95.5731 56.882 95.7551 56.687 95.7551 56.154V50.746C95.7551 50.213 95.5731 50.005 95.2351 49.875L94.8581 49.719C94.6891 49.654 94.6111 49.524 94.6111 49.277C94.6111 49.004 94.7151 48.9 94.9491 48.9H98.3291C98.5631 48.9 98.6931 49.004 98.6931 49.277C98.6931 49.55 98.6151 49.667 98.3421 49.745L97.8091 49.875C97.2371 50.031 97.0681 50.213 97.0681 50.746V56.895H100.5L101.098 54.763C101.189 54.477 101.332 54.373 101.774 54.464ZM111.705 54.633C112.134 54.737 112.134 54.919 112.082 55.348L111.835 57.48C111.783 57.844 111.601 58 111.185 58H104.477C104.243 58 104.139 57.896 104.139 57.623C104.139 57.376 104.217 57.246 104.386 57.181L104.763 57.025C105.101 56.882 105.283 56.687 105.283 56.154V50.746C105.283 50.213 105.101 50.005 104.763 49.875L104.386 49.719C104.217 49.654 104.139 49.524 104.139 49.277C104.139 49.004 104.243 48.9 104.477 48.9H111.159C111.575 48.9 111.757 49.056 111.796 49.42L112.069 51.695C112.108 52.033 112.03 52.176 111.666 52.267C111.237 52.371 111.094 52.267 110.964 51.903L110.405 50.005H106.596V52.813H109.43C109.781 52.813 109.898 52.969 109.898 53.385C109.898 53.788 109.781 53.918 109.43 53.918H106.596V56.895H110.431L111.029 54.906C111.133 54.633 111.289 54.529 111.705 54.633ZM124.455 49.42L124.728 51.721C124.767 52.059 124.676 52.189 124.338 52.267C123.922 52.358 123.779 52.254 123.675 51.929L123.103 50.005H121.205V56.154C121.205 56.687 121.387 56.856 121.946 57.051L122.258 57.155C122.531 57.246 122.609 57.324 122.609 57.597C122.609 57.896 122.505 58 122.271 58H118.826C118.592 58 118.488 57.896 118.488 57.597C118.488 57.324 118.566 57.246 118.839 57.155L119.151 57.051C119.71 56.856 119.892 56.687 119.892 56.154V50.005H117.994L117.422 51.929C117.305 52.254 117.175 52.358 116.759 52.267C116.421 52.189 116.33 52.059 116.369 51.721L116.642 49.42C116.681 49.056 116.863 48.9 117.279 48.9H123.818C124.234 48.9 124.416 49.056 124.455 49.42ZM132.455 48.887H134.938C135.185 48.887 135.276 49.004 135.276 49.29C135.276 49.524 135.198 49.615 135.042 49.719L134.873 49.836C134.574 50.057 134.431 50.252 134.171 50.915L131.597 57.402C131.35 58.013 131.155 58.13 130.492 58.13C129.829 58.13 129.673 58.013 129.413 57.363L126.852 50.889C126.605 50.278 126.462 50.044 126.15 49.823L125.994 49.719C125.838 49.615 125.76 49.524 125.76 49.29C125.76 49.004 125.851 48.887 126.098 48.887H128.841C129.088 48.887 129.179 49.004 129.179 49.29C129.179 49.524 129.101 49.667 128.893 49.732L128.568 49.823C128.126 49.966 128.061 50.304 128.217 50.746L130.57 56.973L132.923 50.941C133.144 50.408 133.105 49.992 132.65 49.823L132.351 49.706C132.182 49.654 132.104 49.524 132.104 49.29C132.104 49.004 132.208 48.887 132.455 48.887Z" fill="white"/>
<path d="M169.766 31.1562C168.109 31.1562 166.812 30.6927 165.875 29.7656C164.948 28.8385 164.484 27.5417 164.484 25.875V7.51562C164.484 5.85938 164.948 4.56771 165.875 3.64062C166.812 2.70312 168.109 2.23438 169.766 2.23438H200.625C202.281 2.23438 203.573 2.70312 204.5 3.64062C205.438 4.56771 205.906 5.85938 205.906 7.51562V25.875C205.906 27.5417 205.438 28.8385 204.5 29.7656C203.573 30.6927 202.281 31.1562 200.625 31.1562H169.766ZM170.391 26.5938H200.016C200.443 26.5938 200.771 26.4896 201 26.2812C201.229 26.0625 201.344 25.724 201.344 25.2656V8.14062C201.344 7.68229 201.229 7.34896 201 7.14062C200.771 6.92188 200.443 6.8125 200.016 6.8125H170.391C169.953 6.8125 169.62 6.92188 169.391 7.14062C169.172 7.34896 169.062 7.68229 169.062 8.14062V25.2656C169.062 25.724 169.172 26.0625 169.391 26.2812C169.62 26.4896 169.953 26.5938 170.391 26.5938ZM176.75 37.1875C176.219 37.1875 175.766 36.9948 175.391 36.6094C175.016 36.224 174.828 35.7812 174.828 35.2812C174.828 34.7812 175.016 34.3333 175.391 33.9375C175.766 33.5521 176.219 33.3594 176.75 33.3594H193.641C194.182 33.3594 194.635 33.5521 195 33.9375C195.375 34.3333 195.562 34.7812 195.562 35.2812C195.562 35.7812 195.375 36.224 195 36.6094C194.635 36.9948 194.182 37.1875 193.641 37.1875H176.75Z" fill="white"/>
<path d="M184.36 49.42L184.633 51.721C184.672 52.059 184.581 52.189 184.243 52.267C183.827 52.358 183.684 52.254 183.58 51.929L183.008 50.005H181.11V56.154C181.11 56.687 181.292 56.856 181.851 57.051L182.163 57.155C182.436 57.246 182.514 57.324 182.514 57.597C182.514 57.896 182.41 58 182.176 58H178.731C178.497 58 178.393 57.896 178.393 57.597C178.393 57.324 178.471 57.246 178.744 57.155L179.056 57.051C179.615 56.856 179.797 56.687 179.797 56.154V50.005H177.899L177.327 51.929C177.21 52.254 177.08 52.358 176.664 52.267C176.326 52.189 176.235 52.059 176.274 51.721L176.547 49.42C176.586 49.056 176.768 48.9 177.184 48.9H183.723C184.139 48.9 184.321 49.056 184.36 49.42ZM192.359 48.887H194.842C195.089 48.887 195.18 49.004 195.18 49.29C195.18 49.524 195.102 49.615 194.946 49.719L194.777 49.836C194.478 50.057 194.335 50.252 194.075 50.915L191.501 57.402C191.254 58.013 191.059 58.13 190.396 58.13C189.733 58.13 189.577 58.013 189.317 57.363L186.756 50.889C186.509 50.278 186.366 50.044 186.054 49.823L185.898 49.719C185.742 49.615 185.664 49.524 185.664 49.29C185.664 49.004 185.755 48.887 186.002 48.887H188.745C188.992 48.887 189.083 49.004 189.083 49.29C189.083 49.524 189.005 49.667 188.797 49.732L188.472 49.823C188.03 49.966 187.965 50.304 188.121 50.746L190.474 56.973L192.827 50.941C193.048 50.408 193.009 49.992 192.554 49.823L192.255 49.706C192.086 49.654 192.008 49.524 192.008 49.29C192.008 49.004 192.112 48.887 192.359 48.887Z" fill="white"/>
</svg>
