<svg width="221" height="290" viewBox="0 0 221 290" fill="none" xmlns="http://www.w3.org/2000/svg">
<path fill-rule="evenodd" clip-rule="evenodd" d="M91.5346 0.0686629C88.6291 0.37782 85.4392 1.54026 83.0042 3.17725C78.1112 6.4666 75.07 11.5995 74.5167 17.5021C74.4548 18.1622 74.4175 22.9297 74.4175 30.197L74.4175 41.8349L73.6564 41.6139C70.6057 40.7278 67.064 40.9937 64.3799 42.3104C60.7309 44.1005 57.9838 47.8742 57.008 52.4371C56.7457 53.6637 56.7823 56.065 57.1025 58.6334C57.9561 65.4801 58.0562 73.0374 57.35 77.3099C57.0814 78.935 56.5782 80.7257 55.2797 84.6768C51.2832 96.8375 47.5668 106.033 41.7439 118.168C39.6546 122.522 31.7994 137.986 24.4878 152.14C18.6643 163.413 18.6501 163.444 18.1269 166.315C17.4979 169.765 17.3116 172.394 17.204 179.336C17.0915 186.579 16.972 188.187 16.3441 190.892C16.1326 191.803 15.6556 194.225 15.2842 196.273C14.2329 202.073 13.5178 204.993 12.2882 208.506C9.60787 216.163 6.04893 222.815 0.926865 229.74C0.399689 230.453 -0.0171838 231.05 0.000545211 231.068C0.140557 231.209 3.94406 234.162 3.98489 234.162C4.15164 234.162 6.40888 231.092 8.00258 228.697C10.0144 225.675 11.1901 223.614 13.1645 219.651C16.9841 211.984 19.6481 203.546 21.2214 194.132C22.012 189.401 22.253 186.263 22.3348 179.636C22.3932 174.9 22.5009 172.349 22.7267 170.351C22.9482 168.391 23.3109 166.354 23.5868 165.522C23.9119 164.541 25.0894 162.169 29.2529 154.11C38.2493 136.696 45.2152 122.924 47.5782 117.88C52.8339 106.66 56.0671 98.5801 59.9022 87.0793C62.539 79.1719 62.915 77.0438 62.9161 70.0213C62.9168 65.6486 62.7088 62.1812 62.187 57.8646C61.856 55.1268 61.8951 53.66 62.3338 52.3442C63.7383 48.1324 66.9201 45.8273 70.7039 46.2801C74.6402 46.7512 77.2628 48.9761 80.4511 54.5491C81.4161 56.2359 83.7702 60.9855 84.3805 62.4774C87.7195 70.6383 89.4403 80.1479 89.2408 89.3377C89.1584 93.1322 88.8643 95.8063 88.1155 99.5724C87.1262 104.548 85.8183 108.743 82.4679 117.688C76.8872 132.587 75.1459 139.246 74.5158 148.101C74.3768 150.054 74.3785 205.153 74.5176 206.637C74.8584 210.276 76.1838 213.71 78.3649 216.606C79.1283 217.619 80.952 219.447 81.9672 220.216C84.829 222.384 88.1133 223.686 91.6876 224.068C92.3052 224.134 101.177 224.168 118.076 224.168C142.031 224.168 143.53 224.177 143.471 224.332C143.328 224.704 141.461 227.716 140.207 229.597C136.669 234.902 133.904 238.319 129.858 242.385C125.123 247.143 121.493 250.015 112.882 255.815C105.513 260.78 101.755 263.043 96.9861 265.392C92.993 267.359 89.9596 268.589 84.8153 270.33C79.4153 272.157 78.0296 272.703 75.3758 274.048C71.6978 275.913 67.8504 278.523 64.355 281.523C62.9637 282.718 59.2759 286.337 59.2759 286.508C59.2759 286.566 59.9332 287.212 60.7367 287.944C61.54 288.677 62.3758 289.439 62.5938 289.638L62.9903 290L64.3196 288.642C68.5588 284.312 73.1249 280.934 78.107 278.442C80.1139 277.438 81.4092 276.931 85.5341 275.532C91.0698 273.655 93.5011 272.711 97.2736 270.973C102.773 268.44 107.033 265.933 115.6 260.186C124.464 254.239 128.536 251.021 133.504 246.037C136.723 242.808 138.474 240.774 141.289 236.997C143.952 233.423 146.825 228.978 148.71 225.513L149.416 224.216L161.965 224.161C174.287 224.108 174.534 224.103 175.569 223.901C177.15 223.592 178.546 223.17 179.856 222.604C186.062 219.924 190.411 214.169 191.285 207.479C191.375 206.797 191.429 205.598 191.429 204.322V202.265L191.741 202.217C191.912 202.191 192.415 202.12 192.858 202.061C194.333 201.864 196.244 201.198 197.609 200.408C198.467 199.91 204.83 195.325 205.881 194.447C209.227 191.65 211.128 186.934 210.692 182.508C210.347 179.004 208.905 176.016 206.393 173.598C204.449 171.727 201.842 170.369 199.379 169.946C199.012 169.883 198.713 169.806 198.713 169.775C198.713 169.745 200.621 168.341 202.953 166.656C206.781 163.891 207.311 163.476 208.398 162.383C211.557 159.208 213.144 155.113 212.964 150.604C212.678 143.432 207.849 137.566 200.738 135.752L200.32 135.645L201.073 135.094C201.488 134.791 202.527 134.036 203.382 133.415C204.237 132.795 205.308 131.935 205.762 131.504C207.906 129.469 209.454 126.616 210.13 123.454C210.312 122.599 210.346 122.143 210.35 120.474C210.354 118.792 210.322 118.345 210.135 117.416C208.803 110.795 203.703 105.733 197.18 104.56C195.58 104.272 192.913 104.285 191.645 104.587L191.429 104.639V103.15C191.429 102.073 191.462 101.637 191.549 101.57C191.615 101.519 192.143 101.29 192.723 101.062C194.472 100.373 198.914 98.4519 201.156 97.4145C206.247 95.0591 209.515 93.1342 213.04 90.4135C215.581 88.4517 216.909 87.2245 217.894 85.9261C220.9 81.9654 221.761 76.5878 220.316 70.7994C219.957 69.3605 219.576 68.4811 218.779 67.2509C216.489 63.7169 212.749 61.1927 208.326 60.1953C207.509 60.0112 207.102 59.9831 205.229 59.982C202.881 59.9808 202.538 60.0236 199.767 60.6641C197.64 61.1555 195.582 61.7675 193.485 62.5324C192.481 62.8985 191.608 63.1982 191.544 63.1982C191.455 63.1982 191.429 58.0883 191.429 40.4752C191.429 15.5951 191.455 16.7925 190.866 14.461C190.325 12.3218 189.462 10.3719 188.255 8.56468C185.241 4.04984 180.873 1.21765 175.329 0.1836C174.469 0.0231109 172.175 0.0131164 133.355 0.00100766C110.769 -0.00600772 91.9502 0.0243602 91.5346 0.0686629ZM145.07 7.98105C145.896 8.27637 146.378 8.8994 146.463 9.77872C146.544 10.6178 146.063 11.4436 145.287 11.797C144.922 11.9633 144.303 11.9721 132.914 11.9742L120.927 11.9763L120.504 11.7526C119.692 11.3225 119.304 10.3843 119.502 9.32695C119.59 8.85548 120.339 8.10031 120.854 7.96385C121.105 7.89725 125.157 7.86189 132.971 7.85804C142.547 7.85343 144.777 7.87611 145.07 7.98105ZM181.192 17.0792C182.519 17.5971 183.395 18.3765 183.989 19.5684C184.173 19.936 184.366 20.5173 184.426 20.8829C184.505 21.3637 184.527 33.0581 184.508 64.7834L184.481 108.029L180.073 111.223C170.867 117.893 170.718 118.004 169.825 118.889C167.575 121.119 166.087 124.017 165.54 127.235C165.25 128.943 165.317 131.565 165.692 133.208C166.428 136.429 167.924 139.105 170.264 141.385C172.317 143.386 174.673 144.709 177.514 145.458L177.926 145.567L173.489 148.775C168.575 152.329 167.521 153.225 166.232 154.947C165.047 156.53 164.074 158.544 163.587 160.425C162.808 163.43 162.911 166.534 163.887 169.48C165.922 175.622 171.445 179.879 177.941 180.312C178.455 180.346 178.875 180.387 178.875 180.403C178.875 180.418 178.72 180.696 178.531 181.02C177.723 182.402 177.099 184.124 176.808 185.775C176.598 186.964 176.587 189.376 176.786 190.46L176.923 191.205L131.348 191.203C81.0664 191.202 85.1895 191.254 83.963 190.602C82.8565 190.013 81.8773 188.764 81.5465 187.518C81.4374 187.107 81.4154 182.861 81.4144 162.076L81.4132 137.128L81.8888 135.383C83.1058 130.919 84.2274 127.62 87.5441 118.749C91.3538 108.559 92.8498 103.326 93.7672 96.9777C95.1533 87.3863 94.2295 76.3726 91.2 66.3672C90.0788 62.6647 88.8761 59.7113 86.8762 55.7503C84.826 51.6898 83.5397 49.52 82.0229 47.5644L81.4132 46.7782V33.9142C81.4132 22.6731 81.4317 20.9789 81.56 20.4853C82.0377 18.646 83.6163 17.1987 85.4888 16.8835C85.7509 16.8394 107.247 16.8091 133.259 16.8163L180.552 16.8294L181.192 17.0792ZM206.427 64.9385C209.563 65.3238 212.708 67.1906 214.42 69.6828C215.077 70.6399 215.26 71.0406 215.528 72.1077C216.72 76.8587 215.848 81.0672 213.092 83.8595C212.314 84.6485 210.55 86.0864 208.698 87.4426C206.199 89.2721 203.393 90.8669 199.341 92.7592C196.947 93.8771 191.699 96.1609 191.523 96.1609C191.462 96.1609 191.429 91.2878 191.429 82.4149V68.6691L191.884 68.473C193.044 67.9733 196.566 66.7052 197.97 66.2821C200.116 65.6354 202.585 65.0957 204.319 64.8941C204.933 64.8227 205.599 64.8367 206.427 64.9385ZM195.38 109.519C197.9 109.765 200.162 110.816 201.946 112.572C205.668 116.233 206.35 121.882 203.586 126.144C202.696 127.516 201.997 128.079 194.001 133.862C189.409 137.182 186.169 139.461 185.712 139.691C184.117 140.493 182.642 140.802 180.792 140.722C174.878 140.469 170.189 135.285 170.476 129.316C170.6 126.72 171.639 124.33 173.402 122.588C174.399 121.601 188.924 111.086 190.087 110.507C191.1 110.004 192.376 109.632 193.442 109.528C193.89 109.484 194.299 109.444 194.352 109.438C194.405 109.433 194.867 109.469 195.38 109.519ZM199.24 140.714C202.463 141.378 205.144 143.402 206.653 146.31C209.033 150.898 207.766 156.623 203.678 159.752C202.238 160.855 184.695 173.504 184.216 173.785C179.498 176.558 173.151 175.092 170.074 170.518C168.782 168.597 168.237 166.796 168.239 164.456C168.242 161.855 168.976 159.756 170.602 157.695C170.928 157.282 171.424 156.746 171.705 156.504C172.44 155.868 190.853 142.532 191.751 141.985C193.912 140.669 196.713 140.193 199.24 140.714ZM199.079 175.147C201.229 175.777 202.936 177.041 204.167 178.915C206.471 182.423 205.972 187.153 202.988 190.1C202.353 190.726 197.203 194.534 195.416 195.699C193.979 196.634 192.477 197.067 190.663 197.067C188.141 197.067 185.977 196.139 184.234 194.31C182.966 192.979 182.125 191.303 181.843 189.546C181.685 188.558 181.772 186.862 182.031 185.871C182.426 184.363 183.38 182.738 184.473 181.713C185.263 180.972 191.705 176.314 192.594 175.84C194.036 175.073 194.985 174.867 196.892 174.909C198.056 174.934 198.529 174.986 199.079 175.147ZM134.792 197.117C138.27 197.856 140.99 200.415 142.043 203.938C142.281 204.734 142.302 204.938 142.303 206.485C142.305 208.408 142.178 209.046 141.512 210.471C141 211.566 140.529 212.258 139.7 213.131C137.761 215.171 135.107 216.225 132.308 216.064C129.253 215.889 126.55 214.35 124.883 211.837C124.267 210.908 123.962 210.254 123.605 209.093C123.367 208.32 123.349 208.139 123.349 206.485C123.349 204.824 123.366 204.652 123.609 203.863C124.38 201.353 126.019 199.313 128.275 198.052C129.243 197.512 130.508 197.137 132.061 196.93C132.537 196.867 134.127 196.976 134.792 197.117Z" fill="#583311"/>
</svg>
