<svg width="307" height="198" viewBox="0 0 307 198" fill="none" xmlns="http://www.w3.org/2000/svg">
<path d="M21.1976 164.354C22.6085 155.182 17.4759 147.332 13.351 141.025C11.9641 138.903 10.6531 136.899 9.80732 135.15C6.5729 128.466 2.72992 91.7907 2.72992 87.0573C2.72992 82.2306 9.8153 69.1792 12.4826 64.2659C14.1968 61.1084 16.3955 56.3354 18.7235 51.2821C22.3173 43.4828 26.3902 34.6432 30.0285 28.7145C34.5816 21.2936 44.7199 17.8283 48.688 16.7189V18.4252C39.9239 21.5843 39.237 33.2866 38.922 38.7414C38.6954 42.6737 37.3551 46.3807 36.1728 49.6512C35.1755 52.409 34.2991 54.8395 34.1367 57.0871C32.3787 57.1782 29.2767 57.4006 27.4685 57.8936L28.007 59.869C29.6004 59.4343 32.4913 59.2253 34.1803 59.1359C34.3186 60.7598 34.6476 63.2801 35.0471 66.3319C35.3052 68.3036 35.6386 70.8536 35.9579 73.5647C33.066 72.8292 25.8838 71.0606 20.679 70.2665L20.3698 72.2906C26.0326 73.1545 34.1175 75.2024 36.2066 75.7421C36.9488 82.4719 37.4659 89.5158 36.4667 90.9262C35.409 92.4192 34.3586 95.5096 33.029 99.4226C32.2849 101.612 31.4418 104.086 30.4801 106.615C28.3647 108.787 24.8516 112.053 22.7192 112.672L23.2897 114.638C24.8753 114.178 26.8287 112.759 28.5877 111.24C27.1941 114.372 25.5889 117.376 23.7235 119.813L25.8909 121.473C30.437 115.534 33.4289 106.73 35.6136 100.301C36.8226 96.7447 37.8664 93.6735 38.6941 92.5045C40.6736 89.7099 39.4973 79.2984 37.7537 65.9773C37.2859 62.4013 36.8813 59.3128 36.8407 58.0122C36.778 56.0064 37.6871 53.4914 38.7401 50.5792C39.6532 48.0536 40.6514 45.2786 41.2202 42.2732C41.3196 42.2316 41.4097 42.1944 41.5207 42.1476C44.5706 40.8596 53.8507 36.94 59.3485 38.1183C59.5785 38.1673 59.8204 38.115 60.0097 37.9737C60.199 37.8324 60.3183 37.6162 60.3363 37.3806L61.238 25.6594C61.2434 25.5951 61.2407 25.5304 61.2301 25.4672C61.0655 24.4387 60.5279 22.9682 59.4822 21.6789C64.8684 24.4106 67.416 30.9387 69.895 37.3043C70.3283 38.416 70.7522 39.5044 71.1827 40.5441C73.3634 45.816 71.6932 53.475 70.0783 60.8819C69.1592 65.0938 68.2921 69.072 68.0755 72.7C67.4623 82.9626 81.4359 97.1594 82.8175 98.5357C99.4176 122.191 86.1012 161.528 80.988 168.037C76.6348 173.576 70.1351 190.353 68.2372 195.387C67.9398 196.176 67.7514 196.687 67.7062 196.81L70.2682 197.751C70.3488 197.533 78.3646 175.793 83.134 169.723C85.8673 166.245 90.7053 154.087 92.6821 140.306C93.4846 134.709 93.9399 128.039 93.3086 121.156C96.0815 119.727 98.6148 117 100.494 114.962C101.368 114.013 102.193 113.118 102.725 112.711C104.642 111.245 105.785 105.546 106.247 102.698H200.144C200.606 105.546 201.748 111.244 203.664 112.711C204.197 113.118 205.023 114.014 205.897 114.962C207.776 117 210.31 119.727 213.082 121.156C212.45 128.039 212.906 134.709 213.708 140.306C215.685 154.086 220.523 166.244 223.256 169.723C228.026 175.793 236.042 197.533 236.122 197.751L238.684 196.81C238.662 196.75 238.606 196.597 238.521 196.369C237.32 193.137 230.107 174.023 225.403 168.037C220.289 161.528 206.973 122.191 223.573 98.5356C224.954 97.1593 238.928 82.9624 238.315 72.6999C238.098 69.0719 237.231 65.0937 236.312 60.8818C234.697 53.4748 233.027 45.8159 235.208 40.544C235.638 39.5049 236.062 38.4173 236.494 37.3065C238.973 30.9397 241.521 24.4104 246.908 21.6786C245.862 22.968 245.325 24.4386 245.161 25.4671C245.15 25.5308 245.147 25.5951 245.153 25.659L246.054 37.3802C246.072 37.6161 246.191 37.8324 246.38 37.9736C246.569 38.1153 246.811 38.1683 247.041 38.1183C252.545 36.9406 261.82 40.8595 264.87 42.1475C264.981 42.1942 265.071 42.2314 265.17 42.2729C265.739 45.2779 266.737 48.0526 267.65 50.5779C268.703 53.4905 269.612 56.0061 269.549 58.0122C269.509 59.3135 269.104 62.4041 268.636 65.982C266.893 79.3007 265.717 89.7106 267.696 92.5045C268.524 93.6735 269.568 96.7447 270.777 100.301C272.962 106.73 275.954 115.534 280.5 121.473L282.667 119.813C280.802 117.376 279.197 114.372 277.803 111.24C279.562 112.759 281.515 114.178 283.101 114.638L283.671 112.672C281.541 112.054 278.026 108.787 275.91 106.614C274.949 104.085 274.105 101.612 273.362 99.4226C272.032 95.5096 270.982 92.4192 269.924 90.9262C268.925 89.5161 269.442 82.4716 270.184 75.7421C272.274 75.2022 280.357 73.1545 286.02 72.2907L285.711 70.2666C280.506 71.0607 273.325 72.8292 270.433 73.5647C270.752 70.8552 271.085 68.307 271.343 66.3363C271.742 63.2828 272.071 60.7607 272.21 59.136C273.899 59.2253 276.79 59.4345 278.384 59.8691L278.922 57.8937C277.114 57.4007 274.012 57.1782 272.254 57.0873C272.091 54.8393 271.214 52.4081 270.217 49.6499C269.035 46.3795 267.694 42.6731 267.468 38.7416C267.154 33.2853 266.489 21.5682 257.703 18.4186V16.719C261.671 17.8285 271.809 21.2938 276.362 28.7146C280 34.6427 284.073 43.4819 287.666 51.2808C289.994 56.3344 292.194 61.1081 293.908 64.2659C296.575 69.1799 303.661 82.2334 303.661 87.0574C303.661 91.7907 299.818 128.466 296.583 135.15C295.737 136.899 294.427 138.904 293.039 141.025C288.915 147.333 283.781 155.182 285.193 164.354C286.834 175.021 293.118 191.934 294.482 195.531C294.618 195.89 294.707 196.121 294.736 196.195L297.282 195.211C297.206 195.014 289.651 175.377 287.891 163.939C286.639 155.801 291.455 148.437 295.324 142.52C296.761 140.322 298.118 138.247 299.041 136.339C302.506 129.177 306.391 91.9633 306.391 87.0573C306.391 82.196 301.293 72.1497 296.307 62.9636C294.636 59.8844 292.454 55.1504 290.145 50.138C286.52 42.2705 282.412 33.353 278.689 27.2869C273.264 18.4465 261.375 14.8205 257.703 13.8851V8.69071C257.703 3.8986 253.804 0 249.012 0H57.3783C52.5863 0 48.688 3.8986 48.688 8.69064V13.8851C45.0154 14.8204 33.126 18.4464 27.7011 27.2869C23.9781 33.3536 19.8692 42.2715 16.2442 50.1397C13.9355 55.151 11.7548 59.8843 10.0832 62.9635C5.09731 72.148 0 82.1933 0 87.0573C0 91.9633 3.88427 129.177 7.34936 136.339C8.27242 138.247 9.62939 140.322 11.0664 142.52C14.936 148.437 19.7513 155.801 18.4997 163.939C16.7395 175.377 9.18421 195.014 9.10825 195.211L11.6542 196.195C11.6789 196.131 11.7514 195.943 11.8567 195.666C13.0997 192.398 19.5338 175.17 21.1976 164.354ZM58.772 36.3624C53.1193 35.6604 45.1922 38.8309 41.514 40.3734C41.5715 39.887 41.6192 39.3964 41.648 38.8987C41.7085 37.8494 41.7858 36.81 41.8849 35.7886C42.6281 31.8809 43.354 28.652 43.9466 26.6465C44.7079 24.9343 45.7192 23.488 47.0622 22.4124C48.6191 21.3365 50.7259 20.5441 53.2828 20.5441C53.4455 20.5441 53.6114 20.5474 53.7781 20.5541C58.4261 20.7374 59.4598 24.9578 59.5972 25.6397L58.772 36.3624ZM88.4129 102.698H103.477C102.818 106.516 101.765 110.008 101.067 110.542C100.347 111.093 99.4849 112.028 98.4866 113.111C96.9728 114.753 94.9978 116.881 92.9696 118.202C92.2449 112.96 90.8326 107.669 88.4129 102.698ZM213.421 118.202C211.393 116.881 209.418 114.754 207.905 113.112C206.906 112.029 206.043 111.093 205.323 110.542C204.625 110.008 203.573 106.516 202.913 102.698H217.978C215.558 107.669 214.146 112.96 213.421 118.202ZM249.329 36.2621C248.742 36.2621 248.168 36.2941 247.618 36.3624L246.793 25.6377C246.927 24.9495 247.938 20.7383 252.613 20.5541C255.401 20.4407 257.682 21.2723 259.34 22.4239C260.686 23.5094 261.698 24.9711 262.46 26.7C263.048 28.706 263.767 31.908 264.503 35.778C264.603 36.8031 264.681 37.8461 264.742 38.8988C264.771 39.3963 264.818 39.8868 264.876 40.3731C261.555 38.9798 254.774 36.2621 249.329 36.2621Z" fill="#583311"/>
<path d="M264.95 50.7878L265.363 49.2028C259.186 47.5916 249.933 48.1961 249.542 48.2224L249.653 49.8566C249.747 49.8507 259.033 49.2456 264.95 50.7878Z" fill="#583311"/>
<path d="M253.22 52.5435L253.412 54.1704C253.469 54.1637 259.121 53.5236 265.574 54.9005L265.916 53.299C259.185 51.8621 253.461 52.5152 253.22 52.5435Z" fill="#583311"/>
<path d="M255.417 66.0656C258.751 66.8657 262.893 67.2003 265.781 67.3402L265.86 65.704C263.042 65.5677 259.009 65.2435 255.799 64.4727L255.417 66.0656Z" fill="#583311"/>
<path d="M41.0278 49.2025L41.4411 50.7874C47.3581 49.2445 56.6443 49.8504 56.7376 49.8563L56.8482 48.2221C56.4583 48.1961 47.2048 47.5919 41.0278 49.2025Z" fill="#583311"/>
<path d="M40.4751 53.2988L40.8163 54.9004C47.2699 53.5231 52.9217 54.1633 52.9784 54.1703L53.1709 52.5434C52.9304 52.5154 47.2065 51.8619 40.4751 53.2988Z" fill="#583311"/>
<path d="M40.5312 65.704L40.6099 67.3402C43.4977 67.2003 47.64 66.8657 50.9737 66.0656L50.5912 64.4727C47.3814 65.2431 43.3485 65.5677 40.5312 65.704Z" fill="#583311"/>
<path d="M118.751 39.5725C118.198 40.0661 118.149 40.9149 118.643 41.4683C119.136 42.0217 119.985 42.0702 120.538 41.5766L118.751 39.5725ZM178.112 25.8394C178.749 25.4614 178.96 24.6377 178.582 23.9998L172.421 13.6041C172.043 12.9662 171.22 12.7555 170.582 13.1336C169.944 13.5117 169.733 14.3353 170.111 14.9732L175.587 24.2138L166.347 29.6901C165.709 30.0682 165.498 30.8918 165.876 31.5297C166.254 32.1676 167.078 32.3783 167.716 32.0002L178.112 25.8394ZM119.645 40.5746L120.538 41.5766C124.872 37.7116 132.961 32.2398 143.023 28.5265C153.079 24.8154 165.011 22.8944 177.094 25.9851L177.427 24.6843L177.76 23.3835C164.996 20.1188 152.49 22.1704 142.094 26.0072C131.703 29.8417 123.325 35.4927 118.751 39.5725L119.645 40.5746Z" fill="#A88771"/>
<path d="M187.64 62.0017C188.194 61.5081 188.242 60.6593 187.748 60.1059C187.255 59.5525 186.406 59.504 185.853 59.9976L187.64 62.0017ZM128.28 75.7348C127.642 76.1129 127.431 76.9365 127.809 77.5744L133.97 87.9701C134.348 88.608 135.172 88.8187 135.809 88.4406C136.447 88.0626 136.658 87.2389 136.28 86.601L130.804 77.3604L140.044 71.8841C140.682 71.5061 140.893 70.6824 140.515 70.0445C140.137 69.4066 139.313 69.1959 138.675 69.574L128.28 75.7348ZM186.746 60.9997L185.853 59.9976C181.519 63.8627 173.43 69.3345 163.368 73.0478C153.312 76.7588 141.381 78.6799 129.297 75.5891L128.964 76.8899L128.631 78.1907C141.395 81.4554 153.901 79.4038 164.297 75.567C174.688 71.7326 183.066 66.0815 187.64 62.0017L186.746 60.9997Z" fill="#A88771"/>
</svg>
