<svg width="286" height="306" viewBox="0 0 286 306" fill="none" xmlns="http://www.w3.org/2000/svg">
<rect width="4" height="30" transform="matrix(-1 0 0 1 256.648 115)" fill="#583311" fill-opacity="0.5"/>
<rect x="73.2031" y="25.582" width="4" height="30" fill="#583311" fill-opacity="0.5"/>
<rect width="4" height="60" transform="matrix(-1 0 0 1 270.648 100)" fill="#583311" fill-opacity="0.5"/>
<rect width="8" height="60" transform="matrix(-1 0 0 1 150.698 76.7266)" fill="#583311"/>
<path d="M281.828 10.582L142.698 138.118L3.56738 265.654" stroke="#583311" stroke-width="10"/>
<rect x="168.735" y="166.727" width="8" height="60" transform="rotate(180 168.735 166.727)" fill="#583311"/>
<path d="M146.698 58.6914L162.319 85.7471H131.078L146.698 58.6914Z" fill="#583311"/>
<rect x="59.2031" y="10.582" width="4" height="60" fill="#583311" fill-opacity="0.5"/>
<path d="M164.735 184.766L180.356 157.71H149.115L164.735 184.766Z" fill="#583311"/>
<path fill-rule="evenodd" clip-rule="evenodd" d="M113.535 16.0687C110.629 16.3778 107.439 17.5403 105.004 19.1772C100.111 22.4666 97.07 27.5995 96.5167 33.5021C96.4548 34.1622 96.4175 38.9297 96.4175 46.197L96.4175 57.8349L95.6564 57.6139C92.6057 56.7278 89.064 56.9937 86.3799 58.3104C82.7309 60.1005 79.9838 63.8742 79.008 68.4371C78.7457 69.6637 78.7823 72.065 79.1025 74.6334C79.9561 81.4801 80.0562 89.0374 79.35 93.3099C79.0814 94.935 78.5782 96.7257 77.2797 100.677C73.2832 112.838 69.5668 122.033 63.7439 134.168C61.6546 138.522 53.7994 153.986 46.4878 168.14C40.6643 179.413 40.6501 179.444 40.1269 182.315C39.4979 185.765 39.3116 188.394 39.204 195.336C39.0916 202.579 38.972 204.187 38.3441 206.892C38.1326 207.803 37.6556 210.225 37.2842 212.273C36.2329 218.073 35.5178 220.993 34.2882 224.506C31.6079 232.163 28.0489 238.815 22.9269 245.74C22.3997 246.453 21.9828 247.05 22.0005 247.068C22.1406 247.209 25.9441 250.162 25.9849 250.162C26.1516 250.162 28.4089 247.092 30.0026 244.697C32.0144 241.675 33.1901 239.614 35.1645 235.651C38.9841 227.984 41.6481 219.546 43.2214 210.132C44.012 205.401 44.253 202.263 44.3348 195.636C44.3932 190.9 44.5009 188.349 44.7267 186.351C44.9482 184.391 45.3109 182.354 45.5868 181.522C45.9119 180.541 47.0894 178.169 51.2529 170.11C60.2493 152.696 67.2152 138.924 69.5782 133.88C74.8339 122.66 78.0671 114.58 81.9022 103.079C84.539 95.1719 84.915 93.0438 84.9161 86.0213C84.9168 81.6486 84.7088 78.1812 84.187 73.8646C83.856 71.1268 83.8951 69.66 84.3338 68.3442C85.7383 64.1324 88.9201 61.8273 92.7039 62.2801C96.6402 62.7512 99.2628 64.9761 102.451 70.5491C103.416 72.2359 105.77 76.9855 106.381 78.4774C109.72 86.6383 111.44 96.1479 111.241 105.338C111.158 109.132 110.864 111.806 110.116 115.572C109.126 120.548 107.818 124.743 104.468 133.688C98.8872 148.587 97.1459 155.246 96.5158 164.101C96.3768 166.054 96.3785 221.153 96.5176 222.637C96.8584 226.276 98.1838 229.71 100.365 232.606C101.128 233.619 102.952 235.447 103.967 236.216C106.829 238.384 110.113 239.686 113.688 240.068C114.305 240.134 123.177 240.168 140.076 240.168C164.031 240.168 165.53 240.177 165.471 240.332C165.328 240.704 163.461 243.716 162.207 245.597C158.669 250.902 155.904 254.319 151.858 258.385C147.123 263.143 143.493 266.015 134.882 271.815C127.513 276.779 123.755 279.043 118.986 281.392C114.993 283.359 111.96 284.589 106.815 286.33C101.415 288.157 100.03 288.703 97.3758 290.048C93.6978 291.913 89.8504 294.523 86.355 297.523C84.9637 298.718 81.2759 302.337 81.2759 302.508C81.2759 302.566 81.9332 303.212 82.7367 303.944C83.54 304.677 84.3758 305.439 84.5938 305.638L84.9903 306L86.3196 304.642C90.5588 300.312 95.1249 296.934 100.107 294.442C102.114 293.438 103.409 292.931 107.534 291.532C113.07 289.655 115.501 288.711 119.274 286.973C124.773 284.44 129.033 281.933 137.6 276.186C146.464 270.239 150.536 267.021 155.504 262.037C158.723 258.808 160.474 256.774 163.289 252.997C165.952 249.423 168.825 244.978 170.71 241.513L171.416 240.216L183.965 240.161C196.287 240.108 196.534 240.103 197.569 239.901C199.15 239.592 200.546 239.17 201.856 238.604C208.062 235.924 212.411 230.169 213.285 223.479C213.375 222.797 213.429 221.598 213.429 220.322V218.265L213.741 218.217C213.912 218.191 214.415 218.12 214.858 218.061C216.333 217.864 218.244 217.198 219.609 216.408C220.467 215.91 226.83 211.325 227.881 210.447C231.227 207.65 233.128 202.934 232.692 198.508C232.347 195.004 230.905 192.016 228.393 189.598C226.449 187.727 223.842 186.369 221.379 185.946C221.012 185.883 220.713 185.806 220.713 185.775C220.713 185.745 222.621 184.341 224.953 182.656C228.781 179.891 229.311 179.476 230.398 178.383C233.557 175.208 235.144 171.113 234.964 166.604C234.678 159.432 229.849 153.566 222.738 151.752L222.32 151.645L223.073 151.094C223.488 150.791 224.527 150.036 225.382 149.415C226.237 148.795 227.308 147.935 227.762 147.504C229.906 145.469 231.454 142.616 232.13 139.454C232.312 138.599 232.346 138.143 232.35 136.474C232.354 134.792 232.322 134.345 232.135 133.416C230.803 126.795 225.703 121.733 219.18 120.56C217.58 120.272 214.913 120.285 213.645 120.587L213.429 120.639V119.15C213.429 118.073 213.462 117.637 213.549 117.57C213.615 117.519 214.143 117.29 214.723 117.062C216.472 116.373 220.914 114.452 223.156 113.414C228.247 111.059 231.515 109.134 235.04 106.414C237.581 104.452 238.909 103.225 239.894 101.926C242.9 97.9654 243.761 92.5878 242.316 86.7994C241.957 85.3605 241.576 84.4811 240.779 83.2509C238.489 79.7169 234.749 77.1927 230.326 76.1953C229.509 76.0112 229.102 75.9831 227.229 75.982C224.881 75.9808 224.538 76.0236 221.767 76.6641C219.64 77.1555 217.582 77.7675 215.485 78.5324C214.481 78.8985 213.608 79.1982 213.544 79.1982C213.455 79.1982 213.429 74.0883 213.429 56.4752C213.429 31.5951 213.455 32.7925 212.866 30.461C212.325 28.3218 211.462 26.3719 210.255 24.5647C207.241 20.0498 202.873 17.2176 197.329 16.1836C196.469 16.0231 194.175 16.0131 155.355 16.001C132.769 15.994 113.95 16.0244 113.535 16.0687ZM167.07 23.9811C167.896 24.2764 168.378 24.8994 168.463 25.7787C168.544 26.6178 168.063 27.4436 167.287 27.797C166.922 27.9633 166.303 27.9721 154.914 27.9742L142.927 27.9763L142.504 27.7526C141.692 27.3225 141.304 26.3843 141.502 25.3269C141.59 24.8555 142.339 24.1003 142.854 23.9639C143.105 23.8973 147.157 23.8619 154.971 23.858C164.547 23.8534 166.777 23.8761 167.07 23.9811ZM203.192 33.0792C204.519 33.5971 205.395 34.3765 205.989 35.5684C206.173 35.936 206.366 36.5173 206.426 36.8829C206.505 37.3637 206.527 49.0581 206.508 80.7834L206.481 124.029L202.073 127.223C192.867 133.893 192.718 134.004 191.825 134.889C189.575 137.119 188.087 140.017 187.54 143.235C187.25 144.943 187.317 147.565 187.692 149.208C188.428 152.429 189.924 155.105 192.264 157.385C194.317 159.386 196.673 160.709 199.514 161.458L199.926 161.567L195.489 164.775C190.575 168.329 189.521 169.225 188.232 170.947C187.047 172.53 186.074 174.544 185.587 176.425C184.808 179.43 184.911 182.534 185.887 185.48C187.922 191.622 193.445 195.879 199.941 196.312C200.455 196.346 200.875 196.387 200.875 196.403C200.875 196.418 200.72 196.696 200.531 197.02C199.723 198.402 199.099 200.124 198.808 201.775C198.598 202.964 198.587 205.376 198.786 206.46L198.923 207.205L153.348 207.203C103.066 207.202 107.19 207.254 105.963 206.602C104.856 206.013 103.877 204.764 103.546 203.518C103.437 203.107 103.415 198.861 103.414 178.076L103.413 153.128L103.889 151.383C105.106 146.919 106.227 143.62 109.544 134.749C113.354 124.559 114.85 119.326 115.767 112.978C117.153 103.386 116.23 92.3726 113.2 82.3672C112.079 78.6647 110.876 75.7113 108.876 71.7503C106.826 67.6898 105.54 65.52 104.023 63.5644L103.413 62.7782V49.9142C103.413 38.6731 103.432 36.9789 103.56 36.4853C104.038 34.646 105.616 33.1987 107.489 32.8835C107.751 32.8394 129.247 32.8091 155.259 32.8163L202.552 32.8294L203.192 33.0792ZM228.427 80.9385C231.563 81.3238 234.708 83.1906 236.42 85.6828C237.077 86.6399 237.26 87.0406 237.528 88.1077C238.72 92.8587 237.848 97.0672 235.092 99.8595C234.314 100.649 232.55 102.086 230.698 103.443C228.199 105.272 225.393 106.867 221.341 108.759C218.947 109.877 213.699 112.161 213.523 112.161C213.462 112.161 213.429 107.288 213.429 98.4149V84.6691L213.884 84.473C215.044 83.9733 218.566 82.7052 219.97 82.2821C222.116 81.6354 224.585 81.0957 226.319 80.8941C226.933 80.8227 227.599 80.8367 228.427 80.9385ZM217.38 125.519C219.9 125.765 222.162 126.816 223.946 128.572C227.668 132.233 228.35 137.882 225.586 142.144C224.696 143.516 223.997 144.079 216.001 149.862C211.41 153.182 208.169 155.461 207.712 155.691C206.117 156.493 204.642 156.802 202.792 156.722C196.878 156.469 192.189 151.285 192.476 145.316C192.6 142.72 193.639 140.33 195.402 138.588C196.399 137.601 210.924 127.086 212.087 126.507C213.1 126.004 214.376 125.632 215.442 125.528C215.89 125.484 216.299 125.444 216.352 125.438C216.405 125.433 216.867 125.469 217.38 125.519ZM221.24 156.714C224.463 157.378 227.144 159.402 228.653 162.31C231.033 166.898 229.766 172.623 225.678 175.752C224.238 176.855 206.695 189.504 206.216 189.785C201.498 192.558 195.151 191.092 192.074 186.518C190.782 184.597 190.237 182.796 190.239 180.456C190.242 177.855 190.976 175.756 192.602 173.695C192.928 173.282 193.424 172.746 193.705 172.504C194.44 171.868 212.853 158.532 213.751 157.985C215.912 156.669 218.713 156.193 221.24 156.714ZM221.079 191.147C223.229 191.777 224.936 193.041 226.167 194.915C228.471 198.423 227.972 203.153 224.988 206.1C224.353 206.726 219.203 210.534 217.416 211.699C215.979 212.634 214.477 213.067 212.663 213.067C210.141 213.067 207.977 212.139 206.234 210.31C204.966 208.979 204.125 207.303 203.843 205.546C203.685 204.558 203.772 202.862 204.031 201.871C204.426 200.363 205.38 198.738 206.473 197.713C207.263 196.972 213.705 192.314 214.594 191.84C216.036 191.073 216.985 190.867 218.892 190.909C220.056 190.934 220.529 190.986 221.079 191.147ZM156.792 213.117C160.27 213.856 162.99 216.415 164.043 219.938C164.281 220.734 164.302 220.938 164.303 222.485C164.305 224.408 164.178 225.046 163.512 226.471C163 227.566 162.529 228.258 161.7 229.131C159.761 231.171 157.107 232.225 154.308 232.064C151.253 231.889 148.55 230.35 146.883 227.837C146.267 226.908 145.962 226.254 145.605 225.093C145.367 224.32 145.349 224.139 145.349 222.485C145.349 220.824 145.366 220.652 145.609 219.863C146.38 217.353 148.019 215.313 150.275 214.052C151.243 213.512 152.508 213.137 154.061 212.93C154.537 212.867 156.127 212.976 156.792 213.117Z" fill="#583311"/>
<path d="M92.5713 237.465C92.5716 242.65 95.4578 252.84 107 252.119C118.542 251.398 176.435 251.819 203.939 252.119C208.673 251.968 218.277 248.827 218.818 237.465" stroke="#583311" stroke-opacity="0.5" stroke-width="5"/>
<path d="M92.5713 17.9258C92.5716 12.7405 95.4578 2.55018 107 3.27148C118.542 3.99279 176.435 3.57203 203.939 3.27148C208.673 3.42215 218.277 6.56394 218.818 17.9258" stroke="#583311" stroke-opacity="0.5" stroke-width="5"/>
</svg>
