<svg width="786" height="161" viewBox="0 0 786 161" fill="none" xmlns="http://www.w3.org/2000/svg">
<mask id="path-1-inside-1_854_4202" fill="white">
<path fill-rule="evenodd" clip-rule="evenodd" d="M727.402 0.746094L733.318 7.62099L739.234 0.746094H778.93C782.305 0.746094 785.042 3.48223 785.042 6.85742V154.14C785.042 157.516 782.305 160.252 778.93 160.252H290.901L286.038 154.752L281.175 160.252H277.844L274.163 155.974L270.482 160.252H95.3403L91.9578 156.586L88.5754 160.252H85.4421L80.6113 154.751L75.7806 160.252H7.06956C3.69436 160.252 0.958252 157.516 0.958252 154.14V6.85741C0.958252 3.48222 3.69439 0.746094 7.06958 0.746094H433.595L439.51 7.62099L445.426 0.746094H446.457L450.857 5.63482L455.256 0.746094H716.276L720.18 5.02368L724.084 0.746094H727.402Z"/>
</mask>
<path fill-rule="evenodd" clip-rule="evenodd" d="M727.402 0.746094L733.318 7.62099L739.234 0.746094H778.93C782.305 0.746094 785.042 3.48223 785.042 6.85742V154.14C785.042 157.516 782.305 160.252 778.93 160.252H290.901L286.038 154.752L281.175 160.252H277.844L274.163 155.974L270.482 160.252H95.3403L91.9578 156.586L88.5754 160.252H85.4421L80.6113 154.751L75.7806 160.252H7.06956C3.69436 160.252 0.958252 157.516 0.958252 154.14V6.85741C0.958252 3.48222 3.69439 0.746094 7.06958 0.746094H433.595L439.51 7.62099L445.426 0.746094H446.457L450.857 5.63482L455.256 0.746094H716.276L720.18 5.02368L724.084 0.746094H727.402Z" fill="#FEEDD5"/>
<path d="M727.402 0.746094L728.792 -0.449737L728.243 -1.0873H727.402V0.746094ZM733.318 7.62099L731.928 8.81682L733.318 10.4319L734.707 8.81683L733.318 7.62099ZM739.234 0.746094V-1.0873H738.392L737.844 -0.449744L739.234 0.746094ZM290.901 160.252L289.528 161.466L290.075 162.085H290.901V160.252ZM286.038 154.752L287.411 153.538L286.038 151.985L284.664 153.538L286.038 154.752ZM281.175 160.252V162.085H282.001L282.548 161.466L281.175 160.252ZM277.844 160.252L276.454 161.448L277.003 162.085H277.844V160.252ZM274.163 155.974L275.553 154.778L274.163 153.163L272.773 154.778L274.163 155.974ZM270.482 160.252V162.085H271.323L271.872 161.448L270.482 160.252ZM95.3403 160.252L93.9928 161.495L94.5373 162.085H95.3403V160.252ZM91.9578 156.586L93.3053 155.342L91.9578 153.882L90.6104 155.342L91.9578 156.586ZM88.5754 160.252V162.085H89.3784L89.9229 161.495L88.5754 160.252ZM85.4421 160.252L84.0646 161.462L84.6122 162.085H85.4421V160.252ZM80.6113 154.751L81.9889 153.541L80.6113 151.973L79.2338 153.541L80.6113 154.751ZM75.7806 160.252V162.085H76.6105L77.1581 161.462L75.7806 160.252ZM433.595 0.746094L434.984 -0.44974L434.436 -1.0873H433.595V0.746094ZM439.51 7.62099L438.121 8.81683L439.51 10.4319L440.9 8.81683L439.51 7.62099ZM445.426 0.746094V-1.0873H444.585L444.037 -0.44974L445.426 0.746094ZM446.457 0.746094L447.82 -0.48029L447.274 -1.0873H446.457V0.746094ZM450.857 5.63482L449.494 6.8612L450.857 8.37568L452.22 6.8612L450.857 5.63482ZM455.256 0.746094V-1.0873H454.439L453.893 -0.48029L455.256 0.746094ZM716.276 0.746094L717.63 -0.489881L717.085 -1.0873H716.276V0.746094ZM720.18 5.02368L718.826 6.25966L720.18 7.74327L721.534 6.25966L720.18 5.02368ZM724.084 0.746094V-1.0873H723.275L722.73 -0.489881L724.084 0.746094ZM726.012 1.94192L731.928 8.81682L734.707 6.42516L728.792 -0.449737L726.012 1.94192ZM734.707 8.81683L740.623 1.94193L737.844 -0.449744L731.928 6.42516L734.707 8.81683ZM739.234 2.57949H778.93V-1.0873H739.234V2.57949ZM778.93 2.57949C781.293 2.57949 783.208 4.49478 783.208 6.85742H786.875C786.875 2.46968 783.318 -1.0873 778.93 -1.0873V2.57949ZM783.208 6.85742V154.14H786.875V6.85742H783.208ZM783.208 154.14C783.208 156.503 781.293 158.418 778.93 158.418V162.085C783.318 162.085 786.875 158.528 786.875 154.14H783.208ZM778.93 158.418H290.901V162.085H778.93V158.418ZM292.275 159.037L287.411 153.538L284.664 155.967L289.528 161.466L292.275 159.037ZM284.664 153.538L279.801 159.037L282.548 161.466L287.411 155.967L284.664 153.538ZM281.175 158.418H277.844V162.085H281.175V158.418ZM279.234 159.056L275.553 154.778L272.773 157.17L276.454 161.448L279.234 159.056ZM272.773 154.778L269.092 159.056L271.872 161.448L275.553 157.17L272.773 154.778ZM270.482 158.418H95.3403V162.085H270.482V158.418ZM96.6878 159.009L93.3053 155.342L90.6104 157.829L93.9928 161.495L96.6878 159.009ZM90.6104 155.342L87.2279 159.009L89.9229 161.495L93.3053 157.829L90.6104 155.342ZM88.5754 158.418H85.4421V162.085H88.5754V158.418ZM86.8197 159.042L81.9889 153.541L79.2338 155.961L84.0646 161.462L86.8197 159.042ZM79.2338 153.541L74.403 159.042L77.1581 161.462L81.9889 155.961L79.2338 153.541ZM75.7806 158.418H7.06956V162.085H75.7806V158.418ZM7.06956 158.418C4.70693 158.418 2.79165 156.503 2.79165 154.14H-0.875146C-0.875146 158.528 2.6818 162.085 7.06956 162.085V158.418ZM2.79165 154.14V6.85741H-0.875146V154.14H2.79165ZM2.79165 6.85741C2.79165 4.49478 4.70694 2.57949 7.06958 2.57949V-1.0873C2.68183 -1.0873 -0.875146 2.46965 -0.875146 6.85741H2.79165ZM7.06958 2.57949H433.595V-1.0873H7.06958V2.57949ZM432.205 1.94193L438.121 8.81683L440.9 6.42516L434.984 -0.44974L432.205 1.94193ZM440.9 8.81683L446.816 1.94193L444.037 -0.44974L438.121 6.42516L440.9 8.81683ZM445.426 2.57949H446.457V-1.0873H445.426V2.57949ZM445.095 1.97248L449.494 6.8612L452.22 4.40843L447.82 -0.48029L445.095 1.97248ZM452.22 6.8612L456.619 1.97248L453.893 -0.48029L449.494 4.40843L452.22 6.8612ZM455.256 2.57949H716.276V-1.0873H455.256V2.57949ZM714.922 1.98207L718.826 6.25966L721.534 3.78771L717.63 -0.489881L714.922 1.98207ZM721.534 6.25966L725.438 1.98207L722.73 -0.489881L718.826 3.78771L721.534 6.25966ZM724.084 2.57949H727.402V-1.0873H724.084V2.57949Z" fill="#CDAB94" mask="url(#path-1-inside-1_854_4202)"/>
<ellipse cx="775.267" cy="7.74478" rx="2.0618" ry="2.11001" fill="#D1AF98"/>
<ellipse cx="775.267" cy="14.0749" rx="2.0618" ry="2.11001" fill="#D1AF98"/>
<ellipse cx="772.174" cy="10.9108" rx="2.0618" ry="2.11001" fill="#D1AF98"/>
<ellipse cx="778.359" cy="10.9108" rx="2.0618" ry="2.11001" fill="#D1AF98"/>
<ellipse cx="775.267" cy="147.534" rx="2.0618" ry="2.11001" fill="#D1AF98"/>
<ellipse cx="775.267" cy="153.864" rx="2.0618" ry="2.11001" fill="#D1AF98"/>
<ellipse cx="772.174" cy="150.7" rx="2.0618" ry="2.11001" fill="#D1AF98"/>
<ellipse cx="778.359" cy="150.7" rx="2.0618" ry="2.11001" fill="#D1AF98"/>
<path d="M775.267 19.0801V142.529" stroke="#D1AF98" stroke-width="1.22227"/>
<rect x="20.0811" y="11.7479" width="745.837" height="137.505" stroke="#D1AF98" stroke-width="1.22227"/>
<ellipse cx="11.7071" cy="7.13345" rx="2.0618" ry="2.11001" fill="#D1AF98"/>
<ellipse cx="11.7071" cy="13.4635" rx="2.0618" ry="2.11001" fill="#D1AF98"/>
<ellipse cx="8.61454" cy="10.2995" rx="2.0618" ry="2.11001" fill="#D1AF98"/>
<ellipse cx="14.8001" cy="10.2995" rx="2.0618" ry="2.11001" fill="#D1AF98"/>
<ellipse cx="11.7071" cy="146.923" rx="2.0618" ry="2.11001" fill="#D1AF98"/>
<ellipse cx="11.7071" cy="153.253" rx="2.0618" ry="2.11001" fill="#D1AF98"/>
<ellipse cx="8.61454" cy="150.089" rx="2.0618" ry="2.11001" fill="#D1AF98"/>
<ellipse cx="14.8001" cy="150.089" rx="2.0618" ry="2.11001" fill="#D1AF98"/>
<path d="M11.7075 18.4688V141.918" stroke="#D1AF98" stroke-width="1.22227"/>
</svg>
