<svg width="56" height="18" viewBox="0 0 56 18" fill="none" xmlns="http://www.w3.org/2000/svg">
<path d="M2.42609 4.24107C2.42609 4.59279 2.41933 5.12037 2.4058 5.8238C2.39228 6.52048 2.38551 7.04468 2.38551 7.3964C2.38551 7.6196 2.35846 7.94765 2.30435 8.38054C2.25023 8.80666 2.22318 9.13132 2.22318 9.35453C2.22318 9.67919 2.24685 10.1594 2.2942 10.7952C2.34155 11.431 2.36522 11.9113 2.36522 12.2359C2.36522 12.7026 2.35507 13.1862 2.33478 13.6868C2.32125 14.1805 2.29758 14.7724 2.26376 15.4623C2.23671 16.1454 2.21642 16.6223 2.20289 16.8928C1.78353 17.0619 1.5265 17.1532 1.43181 17.1668C1.42505 17.1059 1.40814 17.018 1.38108 16.903C1.35403 16.788 1.33373 16.6831 1.32021 16.5885C1.30668 16.5005 1.3033 16.416 1.31006 16.3348L1.07671 16.1826C0.988779 15.9324 0.900849 15.7599 0.812919 15.6652V14.3361V11.6779C0.812919 11.5156 0.829828 11.2721 0.863648 10.9474C0.897467 10.6227 0.914376 10.3759 0.914376 10.2068C0.914376 9.94975 0.910995 9.56759 0.904231 9.0603C0.897467 8.55301 0.894085 8.17086 0.894085 7.91383C0.894085 7.15628 0.927904 6.01996 0.995543 4.50486C1.06318 2.98299 1.097 1.84329 1.097 1.08574L1.19846 1.01472V0.750925H1.28977C1.37094 0.750925 1.43181 0.744161 1.47239 0.730634L1.78691 0.933549H1.82749V0.974132C1.85455 0.994424 1.91542 1.04515 2.01012 1.12632C2.11158 1.20072 2.19612 1.24807 2.26376 1.26836L2.36522 1.45098L2.32464 1.54229V1.70463C2.32464 2.11046 2.35169 2.71244 2.4058 3.51057L2.34493 3.57145C2.39904 3.75407 2.42609 3.97728 2.42609 4.24107ZM1.43181 17.1668V17.1871L1.37094 17.1668H1.43181ZM15.7697 16.2029L15.2522 15.9797L15.0087 16.2536C14.4 16.2536 13.5376 16.1116 12.4216 15.8275C11.3123 15.5434 10.4195 15.256 9.7431 14.9651C9.75662 14.8975 9.78368 14.7521 9.82426 14.5289C9.87161 14.2989 9.91557 14.1061 9.95616 13.9506C9.99674 13.795 10.0441 13.6529 10.0982 13.5244C10.1185 13.4839 10.1591 13.4264 10.2199 13.352C10.2876 13.2708 10.3315 13.2099 10.3518 13.1693C10.406 13.0476 10.4465 12.8582 10.4736 12.6012C10.5006 12.3374 10.5277 12.1548 10.5548 12.0533C10.6156 12.006 10.6731 11.9485 10.7272 11.8808C10.7813 11.8064 10.8388 11.7253 10.8997 11.6373C10.9674 11.5426 11.0181 11.4716 11.0519 11.4243L11.1635 11.6576C11.1635 11.7388 11.2075 11.8504 11.2954 11.9924C11.3833 12.1345 11.4341 12.2461 11.4476 12.3272C11.4679 12.449 11.6268 12.6418 11.9244 12.9055C12.2288 13.1626 12.4588 13.3283 12.6143 13.4027C12.8511 13.423 13.1081 13.4703 13.3854 13.5447C13.6627 13.6191 13.8657 13.6834 13.9942 13.7375C14.1294 13.7848 14.3729 13.8829 14.7247 14.0317C14.745 14.0385 14.7585 14.0453 14.7652 14.052C14.772 14.052 14.7822 14.0554 14.7957 14.0622C14.816 14.0689 14.8295 14.0757 14.8363 14.0825C14.8498 14.0825 14.8633 14.0858 14.8768 14.0926C14.9918 14.0791 15.2353 14.0047 15.6073 13.8694C15.9861 13.7274 16.2499 13.6631 16.3987 13.6766C16.4258 13.6631 16.4968 13.6327 16.6118 13.5853C16.7268 13.5312 16.8113 13.494 16.8654 13.4737C16.9195 13.4467 16.9939 13.4027 17.0886 13.3418C17.1833 13.2809 17.2543 13.2268 17.3017 13.1795C17.349 13.1254 17.393 13.0611 17.4336 12.9867C17.4742 12.9055 17.4945 12.821 17.4945 12.7331C17.5824 12.679 17.6636 12.5978 17.738 12.4896C17.8124 12.3746 17.8496 12.2697 17.8496 12.175C17.8496 12.1615 17.8428 12.1412 17.8293 12.1142C17.8157 12.0871 17.809 12.0668 17.809 12.0533C17.8698 11.8098 17.7921 11.5392 17.5756 11.2416C17.3659 10.9373 17.0886 10.6633 16.7437 10.4198C16.4055 10.1763 16.0639 9.96327 15.7189 9.78065C15.374 9.59803 15.0865 9.47628 14.8566 9.4154C14.5387 9.33424 14.2343 9.24292 13.9434 9.14147C13.8082 8.97914 13.6695 8.89797 13.5275 8.89797C13.3854 8.83709 13.1656 8.71535 12.868 8.53272C12.5704 8.3501 12.3269 8.22835 12.1375 8.16747C12.0699 8.14718 11.9244 8.05925 11.7012 7.90368C11.478 7.74812 11.3326 7.63651 11.265 7.56887C10.778 7.08188 10.4601 6.2364 10.3113 5.03244C10.3248 5.01891 10.3586 4.98847 10.4127 4.94112C10.4668 4.88701 10.5176 4.83628 10.5649 4.78894C10.619 4.74159 10.6461 4.71115 10.6461 4.69763C10.6461 4.65704 10.6089 4.59955 10.5345 4.52515C10.4668 4.45075 10.433 4.4034 10.433 4.38311V4.32223C10.433 4.11932 10.6089 3.74731 10.9606 3.2062C11.3191 2.65833 11.593 2.33705 11.7824 2.24235C11.8162 2.22206 12.0157 2.11722 12.381 1.92783C12.7462 1.73845 12.9965 1.6167 13.1318 1.56259C13.2671 1.50171 13.4734 1.43069 13.7507 1.34953C14.028 1.26836 14.2782 1.22778 14.5015 1.22778L14.7754 1.47127C14.843 1.29541 14.9107 1.18719 14.9783 1.14661C15.0459 1.10603 15.1575 1.08574 15.3131 1.08574C15.5972 1.08574 16.0199 1.10603 16.5813 1.14661C17.1427 1.18719 17.5655 1.20748 17.8496 1.20748C17.9307 1.20748 18.0559 1.22439 18.2249 1.25821C18.394 1.29203 18.5192 1.30894 18.6003 1.30894C18.668 1.35629 18.7491 1.43745 18.8438 1.55244C18.9453 1.66743 19.0163 1.74521 19.0569 1.78579L19.0975 2.01915L19.2395 2.22206C19.2395 2.28293 19.27 2.37763 19.3308 2.50614C19.3917 2.62789 19.4188 2.72935 19.412 2.81051L19.5338 3.01343V3.03372C19.5338 3.0743 19.5033 3.11489 19.4424 3.15547C19.3816 3.19605 19.3511 3.25355 19.3511 3.32795C19.3511 3.355 19.3714 3.42941 19.412 3.55115C19.3173 3.6729 19.2598 3.79127 19.2395 3.90626C19.1313 3.99419 19.0163 4.11255 18.8946 4.26136C18.7796 4.31547 18.6612 4.4406 18.5395 4.63675C18.4245 4.8329 18.3332 4.95803 18.2655 5.01214L18.1235 4.81937C18.1505 4.6841 18.1641 4.57926 18.1641 4.50486C18.1641 4.22077 18.1133 4.01786 18.0119 3.89611C17.9172 3.77436 17.7312 3.64585 17.4539 3.51057L17.4133 3.38882C17.2983 3.36853 17.0886 3.33133 16.7843 3.27722C16.4866 3.21634 16.2229 3.17238 15.9929 3.14532C15.7697 3.11151 15.5634 3.0946 15.374 3.0946C15.3402 3.0946 15.2861 3.10812 15.2117 3.13518C15.144 3.15547 15.0696 3.18591 14.9885 3.22649C14.9141 3.26031 14.8633 3.2806 14.8363 3.28736L14.7754 3.34824C14.4372 3.41588 14.1328 3.48352 13.8623 3.55115L13.8014 3.53086C13.6864 3.58497 13.585 3.71687 13.497 3.92655C13.4159 4.12946 13.3381 4.26136 13.2637 4.32223C13.2299 4.41693 13.1859 4.57249 13.1318 4.78894C13.0777 4.99862 13.0506 5.14066 13.0506 5.21506C13.0506 5.33004 13.0641 5.41121 13.0912 5.45856C13.125 5.5059 13.196 5.57692 13.3043 5.67162C13.3651 5.82719 13.4903 6.01319 13.6797 6.22963C13.7946 6.29727 14.0517 6.45284 14.4507 6.69634C14.8498 6.93984 15.1948 7.13261 15.4856 7.27465C15.7764 7.41669 16.0538 7.51476 16.3175 7.56887C16.5069 7.70415 16.8756 7.91045 17.4234 8.18777C17.9781 8.45832 18.3839 8.70858 18.6409 8.93855C18.695 8.9859 18.7796 9.05016 18.8946 9.13132C19.0096 9.20572 19.084 9.25645 19.1178 9.28351C19.2598 9.38497 19.4052 9.57435 19.554 9.85167C19.7028 10.129 19.8415 10.315 19.97 10.4097L20.0918 10.6836C20.0918 10.8798 20.1357 11.174 20.2237 11.5663C20.3184 11.9586 20.3657 12.2596 20.3657 12.4693L20.0918 12.7635V12.9055C20.0918 12.9191 20.0918 12.9427 20.0918 12.9766C20.0985 13.0036 20.1053 13.0408 20.1121 13.0882C20.1188 13.1288 20.1324 13.1626 20.1526 13.1896C20.1729 13.2167 20.1966 13.2268 20.2237 13.2201C20.156 13.5109 20.0377 13.8288 19.8686 14.1738C19.7062 14.512 19.5338 14.769 19.3511 14.9448C19.2632 15.026 19.0941 15.1545 18.8438 15.3304C18.5936 15.5062 18.4143 15.6618 18.3061 15.7971C17.9138 15.9121 17.694 15.9865 17.6466 16.0203C17.4573 16.0541 17.1495 16.0812 16.7234 16.1015C16.304 16.1285 15.9861 16.1623 15.7697 16.2029ZM19.6961 2.8511L19.5946 2.78008C19.5608 2.69215 19.5371 2.56702 19.5236 2.40468C19.5101 2.23559 19.4999 2.13413 19.4932 2.10031C19.4796 2.03944 19.4424 1.95489 19.3816 1.84667C19.3275 1.73845 19.2936 1.66404 19.2801 1.62346L19.4323 1.56259C19.5405 1.58964 19.6352 1.60317 19.7164 1.60317C19.8043 1.60317 19.8686 1.59641 19.9091 1.58288L20.2034 1.84667C20.0207 2.27279 19.8517 2.6076 19.6961 2.8511ZM23.7959 16.2334C23.7418 16.2334 23.6573 16.2164 23.5423 16.1826C23.4341 16.1556 23.3529 16.142 23.2988 16.142C23.2311 16.142 23.1229 16.1522 22.9741 16.1725C22.8253 16.1928 22.7171 16.2029 22.6495 16.2029C22.5142 16.2029 22.4127 16.1962 22.3451 16.1826C22.3924 16.115 22.4804 16.044 22.6089 15.9696C22.7441 15.8884 22.8287 15.8309 22.8625 15.7971C22.9978 15.6821 23.0993 15.5299 23.1669 15.3405C23.2413 15.1444 23.2853 14.9719 23.2988 14.8231C23.3123 14.6743 23.3191 14.4849 23.3191 14.2549C23.3191 14.1602 23.3766 14.0486 23.4916 13.9201C23.6133 13.7916 23.6742 13.68 23.6742 13.5853C23.6742 13.5244 23.6268 13.4433 23.5321 13.3418C23.4442 13.2336 23.3935 13.1626 23.3799 13.1288V13.0273C23.3799 12.7635 23.4036 12.3712 23.451 11.8504C23.4983 11.3228 23.522 10.9271 23.522 10.6633C23.522 10.3657 23.5423 9.92269 23.5829 9.33424C23.6302 8.74578 23.6539 8.30275 23.6539 8.00514C23.6539 7.74812 23.6167 7.55873 23.5423 7.43698C23.6167 7.22054 23.6539 6.98718 23.6539 6.73692C23.6539 6.37844 23.6032 6.10789 23.5017 5.92526L23.5423 5.40783C23.5829 5.40106 23.6302 5.36725 23.6843 5.30637C23.7452 5.2455 23.7959 5.2083 23.8365 5.19477C23.8162 5.17448 23.7858 5.14404 23.7452 5.10346C23.7046 5.06287 23.664 5.02905 23.6234 5.002C23.5896 4.97494 23.5558 4.95465 23.522 4.94112C23.5152 4.84643 23.5051 4.63337 23.4916 4.30194L23.4814 4.03815V4.08888V4.11932C23.4273 3.9164 23.2954 3.63908 23.0857 3.28736V3.21634C23.0384 3.14871 22.9538 3.05739 22.8321 2.94241C22.7171 2.82066 22.6495 2.74626 22.6292 2.7192C22.7171 2.62451 22.8219 2.39792 22.9437 2.03944L23.1466 1.95827V1.93798L23.2785 1.82638C23.4746 1.81285 23.7723 1.81961 24.1713 1.84667L24.2525 1.80608L24.567 1.82638C24.6752 1.79932 24.8409 1.78579 25.0641 1.78579C25.1656 1.78579 25.3144 1.79256 25.5106 1.80608C25.7067 1.81961 25.8555 1.82638 25.957 1.82638C26.1667 1.82638 26.3256 1.81285 26.4338 1.78579L26.3121 2.08002C26.1633 2.20177 26.055 2.48585 25.9874 2.93226C25.9265 3.37868 25.8961 3.77436 25.8961 4.11932C25.8961 4.28841 25.8792 4.54882 25.8454 4.90054C25.8115 5.25226 25.7946 5.51605 25.7946 5.69191C25.7946 5.91512 25.8149 6.08083 25.8555 6.18905C25.8488 6.22287 25.8386 6.2736 25.8251 6.34124C25.8183 6.40211 25.8115 6.45961 25.8048 6.51372C25.798 6.56783 25.7946 6.61856 25.7946 6.6659C25.7946 6.88911 25.8149 7.09202 25.8555 7.27465C25.8961 7.24759 25.9908 7.18334 26.1396 7.08188C26.2884 6.97366 26.3899 6.89925 26.444 6.85867C26.5048 6.81809 26.5826 6.75383 26.6773 6.6659C26.7788 6.57797 26.8701 6.49004 26.9513 6.40211C27.0054 6.34124 27.1034 6.26345 27.2455 6.16876C27.3875 6.0673 27.4856 5.98614 27.5397 5.92526C27.8103 5.6006 28.1552 5.2827 28.5746 4.97156C28.5949 4.91069 28.7437 4.7213 29.021 4.4034C29.3051 4.0855 29.4809 3.90626 29.5486 3.86567C29.5689 3.75745 29.65 3.63908 29.7921 3.51057C29.9341 3.38206 30.0187 3.30089 30.0457 3.26707L30.3196 3.19605C30.3196 3.16223 30.3163 3.11151 30.3095 3.04387C30.3027 2.97623 30.2994 2.9255 30.2994 2.89168C30.2994 2.84433 30.3332 2.72597 30.4008 2.53658C30.4685 2.34719 30.5023 2.18148 30.5023 2.03944C30.4482 1.93122 30.4211 1.84667 30.4211 1.78579C30.5699 1.78579 30.8641 1.78579 31.3038 1.78579C31.7502 1.77903 32.129 1.76888 32.4401 1.75536C32.7512 1.74183 33.0489 1.71815 33.3329 1.68434C33.5426 1.75197 33.7794 1.78579 34.0431 1.78579C34.1378 1.78579 34.2799 1.77903 34.4693 1.7655C34.6654 1.75197 34.821 1.74521 34.936 1.74521C34.9089 1.77226 34.848 1.81961 34.7533 1.88725C34.6654 1.94812 34.6012 1.99885 34.5606 2.03944C34.29 2.1206 33.847 2.42159 33.2315 2.94241C32.6227 3.45646 32.2541 3.83862 32.1256 4.08888L32.0038 4.13961L31.9024 4.24107L31.8821 4.34252C31.855 4.36282 31.7773 4.42031 31.6487 4.515C31.5202 4.60293 31.4255 4.67057 31.3647 4.71792C31.3038 4.76526 31.2226 4.82952 31.1212 4.91069C31.0197 4.99185 30.9318 5.06964 30.8574 5.14404C30.7897 5.21168 30.7289 5.2827 30.6748 5.3571L30.2994 5.4687L30.3805 5.7122C29.7853 6.45622 29.2036 7.07511 28.6355 7.56887C28.5205 7.56887 28.4292 7.61622 28.3615 7.71092L28.7369 8.08631C28.791 8.22159 28.95 8.47861 29.2138 8.85739C29.4843 9.23616 29.6297 9.46275 29.65 9.53715C29.7177 9.60479 29.836 9.71978 30.0051 9.88211C30.1742 10.0444 30.3163 10.1865 30.4313 10.3082C30.5462 10.4232 30.6545 10.5416 30.7559 10.6633L30.7762 10.8054C30.7897 10.8189 30.8472 10.9034 30.9487 11.059C31.0501 11.2078 31.1516 11.2958 31.2531 11.3228C31.2666 11.3431 31.2835 11.3803 31.3038 11.4344C31.3241 11.4818 31.341 11.5156 31.3545 11.5359V11.5562C31.5642 11.7929 31.8145 12.0465 32.1053 12.3171C32.4029 12.5809 32.6227 12.7703 32.7648 12.8853C32.9136 13.0002 33.1943 13.2201 33.6069 13.5447L33.6272 13.7172C33.6542 13.7375 33.7016 13.7747 33.7692 13.8288C33.8368 13.8829 33.8842 13.9235 33.9112 13.9506C33.9451 13.9708 33.989 14.0047 34.0431 14.052C34.104 14.0994 34.148 14.1433 34.175 14.1839C34.2089 14.2177 34.2461 14.2617 34.2866 14.3158C34.3272 14.3632 34.361 14.4105 34.3881 14.4578C34.6789 14.5999 34.8379 14.6777 34.8649 14.6912C35.2437 15.3473 35.6597 15.7903 36.1129 16.0203C36.0047 16.0338 35.8322 16.0406 35.5954 16.0406C35.3858 16.0406 35.1659 16.0203 34.936 15.9797C34.9698 15.9932 35.0036 16.0101 35.0374 16.0304C35.0712 16.0507 35.1084 16.0744 35.149 16.1015C35.1896 16.1285 35.22 16.1488 35.2403 16.1623C35.051 16.1556 34.8683 16.1353 34.6925 16.1015C34.5234 16.0676 34.334 16.0237 34.1243 15.9696C33.9214 15.9087 33.7489 15.8647 33.6069 15.8377C33.6204 15.8647 33.6272 15.9121 33.6272 15.9797C33.6272 16.0609 33.5832 16.1353 33.4953 16.2029C33.3735 16.2029 33.2078 16.1826 32.9981 16.142C32.7884 16.1015 32.6227 16.0812 32.501 16.0812C32.3522 16.0812 32.1222 16.1015 31.8111 16.142C31.5067 16.1826 31.2733 16.2029 31.111 16.2029H30.5936C30.81 15.9324 30.9182 15.6077 30.9182 15.2289C30.9182 15.1342 30.9115 15.0666 30.898 15.026C30.8438 14.9719 30.7728 14.8907 30.6849 14.7825C30.597 14.6675 30.5429 14.5965 30.5226 14.5694L30.5023 14.3564L30.3196 14.2955C30.2182 14.1805 30.0964 13.9878 29.9544 13.7172C29.8191 13.4399 29.6974 13.2437 29.5892 13.1288L29.721 12.7838C29.6872 12.75 29.6433 12.7331 29.5892 12.7331C29.5689 12.7331 29.5384 12.7398 29.4978 12.7534C29.4573 12.7601 29.4268 12.7635 29.4065 12.7635C29.3998 12.7635 29.3795 12.7567 29.3457 12.7432C29.3118 12.7229 29.2915 12.7128 29.2848 12.7128C29.2171 12.5843 29.1123 12.4321 28.9703 12.2562C28.835 12.0736 28.7268 11.9383 28.6456 11.8504C28.5712 11.7557 28.4224 11.59 28.1992 11.3532C27.9827 11.1165 27.8711 10.9948 27.8644 10.988C27.7426 10.616 27.2928 10.0411 26.515 9.26322L25.8149 9.7705C25.7811 10.1087 25.7642 10.3218 25.7642 10.4097C25.7642 10.6464 25.7946 10.7783 25.8555 10.8054C25.8555 11.0624 25.9029 11.6238 25.9976 12.4896L25.8149 12.8041L26.099 13.0476C26.1869 13.2776 26.2715 13.6597 26.3527 14.1941C26.3256 14.2346 26.3121 14.3023 26.3121 14.397C26.3121 14.5931 26.356 14.7791 26.444 14.955C26.5319 15.1241 26.6232 15.2594 26.7179 15.3608C26.8126 15.4555 26.9513 15.584 27.1339 15.7464C27.3233 15.9019 27.4585 16.0203 27.5397 16.1015C27.4585 16.1285 27.374 16.142 27.2861 16.142C27.232 16.142 27.1576 16.1387 27.0629 16.1319C26.9682 16.1251 26.8836 16.1217 26.8092 16.1217C26.7416 16.1217 26.6773 16.1285 26.6164 16.142C26.542 16.1082 26.4879 16.1082 26.4541 16.142C26.3662 16.142 26.2478 16.1285 26.099 16.1015C25.9502 16.0812 25.8488 16.0676 25.7946 16.0609C25.7676 16.0744 25.7304 16.0812 25.683 16.0812C25.6289 16.0812 25.5511 16.0541 25.4497 16C25.3482 15.9459 25.2603 15.9188 25.1859 15.9188L25.0439 16.1826C24.9897 16.1826 24.9086 16.1759 24.8004 16.1623C24.6989 16.1488 24.6211 16.142 24.567 16.142C24.4858 16.142 24.3573 16.1556 24.1815 16.1826C24.0056 16.2164 23.8771 16.2334 23.7959 16.2334ZM22.3451 2.67862L22.2538 2.39454C22.1929 2.36072 22.132 2.2897 22.0711 2.18148C22.017 2.06649 21.9697 1.99209 21.9291 1.95827V1.88725L21.8581 1.82638L21.8784 1.74521L21.9291 1.72492C22.0509 1.75197 22.2301 1.7655 22.4668 1.7655C22.5277 1.80608 22.5886 1.82638 22.6495 1.82638L22.69 1.80608C22.7306 1.81961 22.7881 1.82976 22.8625 1.83652C22.9369 1.83652 22.9843 1.8399 23.0046 1.84667L22.9843 1.90754L22.9031 1.93798C22.8963 1.95151 22.8794 1.98533 22.8524 2.03944C22.8253 2.09355 22.805 2.13751 22.7915 2.17133C22.778 2.19839 22.7543 2.23897 22.7205 2.29308C22.6934 2.34719 22.6664 2.39116 22.6393 2.42498C22.6123 2.45879 22.5818 2.496 22.548 2.53658C22.5142 2.57716 22.4804 2.61098 22.4465 2.63804C22.4127 2.65833 22.3789 2.67186 22.3451 2.67862ZM37.7676 16.1015H37.1791V16C37.3009 15.9729 37.4565 15.858 37.6458 15.655C37.8352 15.4454 37.9502 15.2763 37.9908 15.1478C38.0314 15.0328 38.0686 14.8569 38.1024 14.6202C38.143 14.3834 38.1836 14.2076 38.2241 14.0926C38.1836 13.8559 38.1633 13.5075 38.1633 13.0476C38.1633 12.5065 38.2072 11.7016 38.2952 10.6329C38.3831 9.55744 38.4271 8.74916 38.4271 8.20806L38.7416 8.08631L38.559 7.93412C38.4846 7.58917 38.4474 7.20363 38.4474 6.77751C38.4474 6.56783 38.4575 6.25331 38.4778 5.83395C38.5048 5.41459 38.5184 5.10346 38.5184 4.90054C38.5184 4.8329 38.5285 4.73144 38.5488 4.59617C38.5691 4.45413 38.5793 4.34929 38.5793 4.28165C38.5793 4.1599 38.5657 4.03477 38.5387 3.90626C38.5184 3.77774 38.4846 3.6357 38.4372 3.48013C38.3966 3.32457 38.3662 3.20282 38.3459 3.11489L38.4879 2.91197L38.285 2.83081C38.2512 2.60084 38.1633 2.38439 38.0212 2.18148C37.8792 1.97856 37.7033 1.84667 37.4937 1.78579C37.5478 1.75197 37.612 1.72492 37.6864 1.70463C37.7608 1.68434 37.8217 1.67419 37.869 1.67419C37.9232 1.66743 38.0009 1.66066 38.1024 1.6539C38.2039 1.64713 38.2715 1.64375 38.3053 1.64375C38.3797 1.67081 38.4609 1.6911 38.5488 1.70463C38.6435 1.71815 38.7179 1.7283 38.772 1.73506C38.8261 1.73506 38.9141 1.73506 39.0358 1.73506C39.1576 1.7283 39.2387 1.72492 39.2793 1.72492C39.4281 1.72492 39.6513 1.73506 39.9489 1.75536C40.2465 1.77565 40.4664 1.78579 40.6084 1.78579C40.9195 1.78579 41.2611 1.75197 41.6331 1.68434L42.0897 1.78579V1.80608H42.0694C41.6636 2.06311 41.3795 2.42836 41.2171 2.90183C41.0616 3.37529 40.9635 3.92655 40.9229 4.55558L40.649 4.67733L40.9026 4.83967C40.8485 5.02229 40.8215 5.23873 40.8215 5.48899C40.8215 5.66485 40.8384 5.93203 40.8722 6.29051C40.906 6.64899 40.9229 6.91955 40.9229 7.10217C40.9229 7.10893 40.9128 7.14275 40.8925 7.20363C40.8722 7.25774 40.862 7.28818 40.862 7.29494C40.8688 7.37611 40.8823 7.53506 40.9026 7.77179C40.9297 8.00852 40.9432 8.19453 40.9432 8.32981C40.9432 8.34333 40.9263 8.40759 40.8925 8.52258C40.8654 8.63756 40.8485 8.7052 40.8418 8.72549C40.9094 9.16514 40.9432 9.56759 40.9432 9.93284C40.9432 10.0275 40.9331 10.1696 40.9128 10.359C40.8925 10.5483 40.8823 10.6904 40.8823 10.7851C40.8823 11.0895 40.9229 11.5426 41.0041 12.1446C41.092 12.7466 41.136 13.1998 41.136 13.5041V13.5853L40.9026 13.8592L41.1563 13.9607L41.2983 14.9245L41.3795 14.9651C41.393 15.026 41.4099 15.0835 41.4302 15.1376C41.4505 15.1917 41.4742 15.2492 41.5012 15.3101C41.535 15.371 41.5621 15.4217 41.5824 15.4623C41.6027 15.4961 41.6365 15.5468 41.6839 15.6145C41.738 15.6821 41.7718 15.7294 41.7853 15.7565C41.8056 15.7768 41.8462 15.8275 41.9071 15.9087C41.9679 15.9831 42.0018 16.0271 42.0085 16.0406V16.1015C41.9206 16.0879 41.7853 16.0744 41.6027 16.0609C41.4201 16.0473 41.2848 16.0338 41.1969 16.0203L41.0447 15.858L40.862 16.0609H39.7765C39.6818 16.0609 39.5837 16.0575 39.4822 16.0507C39.3808 16.044 39.2658 16.0338 39.1373 16.0203C39.0088 16.0135 38.9107 16.0068 38.843 16L38.6807 15.6855L38.5387 15.9391C38.2343 15.9391 37.9773 15.9932 37.7676 16.1015ZM45.8649 16.2334L45.6518 16.0812V16.0406C45.503 16.0406 45.2866 16.0541 45.0025 16.0812C44.7184 16.1082 44.5053 16.1217 44.3633 16.1217C44.3227 16.1217 44.2618 16.1184 44.1807 16.1116C44.1063 16.1048 44.0488 16.1015 44.0082 16.1015C44.2449 15.9594 44.4343 15.8377 44.5764 15.7362C44.7184 15.628 44.8672 15.4826 45.0228 15.2999C45.1851 15.1106 45.2933 14.9076 45.3474 14.6912L45.6721 14.4376L45.4083 14.1738L45.4286 13.8187C45.5503 13.6157 45.6112 13.379 45.6112 13.1085C45.6112 12.9123 45.5774 12.7128 45.5098 12.5099C45.645 12.3002 45.7127 11.5392 45.7127 10.2271C45.7127 10.085 45.6991 9.87196 45.6721 9.58788C45.645 9.29704 45.6315 9.08059 45.6315 8.93855C45.6315 8.83033 45.6417 8.67814 45.6619 8.48199C45.6822 8.28584 45.6924 8.13366 45.6924 8.02543C45.6924 7.83605 45.6856 7.55873 45.6721 7.19348C45.6586 6.82147 45.6518 6.54415 45.6518 6.36153V6.24993C45.6653 6.22287 45.6958 6.17891 45.7431 6.11803C45.7905 6.05039 45.8277 5.98952 45.8547 5.93541C45.8818 5.8813 45.8987 5.82719 45.9054 5.77308C45.6822 5.11698 45.5706 4.49471 45.5706 3.90626C45.503 3.90626 45.4286 3.9164 45.3474 3.93669C45.273 3.95698 45.2088 3.97728 45.1547 3.99757C45.1073 4.0111 45.0363 4.03815 44.9416 4.07873C44.8537 4.11932 44.7928 4.14637 44.759 4.1599H44.5966C44.4749 4.1599 44.3024 4.17343 44.0792 4.20048C43.856 4.22754 43.6869 4.24107 43.5719 4.24107C43.5922 4.20725 43.6734 4.0855 43.8154 3.87582C43.9575 3.65938 44.0724 3.46999 44.1604 3.30766C44.2551 3.13856 44.3024 3.01343 44.3024 2.93226C44.4174 2.7564 44.6 2.50276 44.8503 2.17133C45.1005 1.8399 45.2866 1.58626 45.4083 1.4104C45.8277 1.53215 46.0982 1.62346 46.22 1.68434C46.3688 1.68434 46.5954 1.68095 46.8997 1.67419C47.2041 1.66743 47.4341 1.66404 47.5896 1.66404C47.6843 1.66404 47.7926 1.74521 47.9143 1.90754C48.0496 1.77226 48.1612 1.70463 48.2491 1.70463C48.452 1.70463 48.7496 1.6911 49.1419 1.66404C49.5342 1.63699 49.8319 1.62346 50.0348 1.62346C50.1024 1.62346 50.2106 1.63361 50.3594 1.6539C50.5082 1.67419 50.6165 1.68434 50.6841 1.68434C50.7923 1.68434 50.9445 1.68095 51.1407 1.67419C51.3368 1.66743 51.489 1.66404 51.5972 1.66404C52.1383 1.66404 52.534 1.74521 52.7843 1.90754L52.8654 1.84667C53.0075 1.90078 53.2577 1.98194 53.6162 2.09017C53.9747 2.19839 54.2656 2.31337 54.4888 2.43512C54.712 2.55687 54.925 2.72935 55.1279 2.95255H55.1888C55.2903 3.10136 55.4019 3.28736 55.5236 3.51057L55.27 3.92655C55.2835 3.97389 55.341 4.00771 55.4425 4.02801C55.5507 4.0483 55.6183 4.07873 55.6454 4.11932L55.6251 4.28165C55.6995 4.48456 55.7367 4.76865 55.7367 5.13389C55.7367 5.3571 55.6724 5.61413 55.5439 5.90497C55.4154 6.19582 55.341 6.40888 55.3207 6.54415C55.2666 6.63885 55.199 6.79442 55.1178 7.01086C55.0366 7.2273 54.9588 7.38963 54.8844 7.49785C54.8168 7.59931 54.6984 7.74812 54.5293 7.94427C54.3602 8.13366 54.2419 8.28246 54.1742 8.39068C54.0931 8.4245 53.9206 8.44141 53.6568 8.44141C53.5553 8.71873 53.4843 8.88444 53.4437 8.93855C53.2273 9.03325 53.0481 9.1347 52.906 9.24292C52.4055 9.56759 51.7629 9.72992 50.9783 9.72992C50.7686 9.72992 50.4744 9.70625 50.0956 9.6589C49.7236 9.61155 49.4903 9.5845 49.3956 9.57774L49.2941 9.45599L49.2028 9.51686C49.1893 9.5101 49.1555 9.48981 49.1014 9.45599C49.0472 9.4154 49.01 9.38835 48.9898 9.37482C48.9762 9.36129 48.9458 9.33762 48.8984 9.3038C48.8511 9.26998 48.8173 9.24292 48.797 9.22263C48.7835 9.20234 48.7598 9.17529 48.726 9.14147C48.6921 9.10088 48.6685 9.06368 48.6549 9.02986C48.6414 8.99604 48.6279 8.95884 48.6144 8.91826C48.6076 8.87768 48.6042 8.83371 48.6042 8.78637C48.6042 8.77284 48.6076 8.75255 48.6144 8.72549C48.6211 8.69844 48.6245 8.67814 48.6245 8.66462C48.7192 8.66462 48.8883 8.69167 49.1318 8.74578C49.3753 8.79989 49.5613 8.82695 49.6898 8.82695C49.8589 8.82695 50.0348 8.79989 50.2174 8.74578C50.4 8.68491 50.5962 8.61051 50.8058 8.52258C51.0155 8.42788 51.1812 8.36363 51.303 8.32981L51.5972 8.52258L51.6987 8.18777C51.8948 8.05249 52.1316 7.80561 52.4089 7.44713C52.693 7.08188 52.8587 6.79442 52.906 6.58474C53.0278 6.52386 53.1394 6.46299 53.2408 6.40211C53.0988 6.28713 53.0278 6.16876 53.0278 6.04701C53.0278 5.22859 52.7572 4.6097 52.2161 4.19034C51.6818 3.76422 50.9919 3.55115 50.1464 3.55115C49.9164 3.55115 49.5714 3.57821 49.1115 3.63232C48.6583 3.67967 48.3168 3.70334 48.0868 3.70334C47.9583 4.28503 47.894 4.94112 47.894 5.67162C47.9549 5.83395 47.9853 6.00643 47.9853 6.18905C47.9853 6.84514 47.9075 7.39978 47.752 7.85296L48.0056 8.06602C48.0056 8.29599 48.0293 8.69167 48.0766 9.25307C48.1307 9.81447 48.1815 10.1527 48.2288 10.2676L48.0665 10.3691C48.1612 10.4638 48.2085 10.6566 48.2085 10.9474C48.2085 11.0151 48.2018 11.1165 48.1882 11.2518C48.1747 11.3871 48.1679 11.4885 48.1679 11.5562C48.1679 11.7658 48.2085 11.918 48.2897 12.0127C48.2897 12.1142 48.3066 12.2528 48.3404 12.4287C48.3742 12.5978 48.3945 12.7162 48.4013 12.7838C48.3878 12.8176 48.3573 12.8616 48.31 12.9157C48.2694 12.9698 48.2424 13.0138 48.2288 13.0476L48.5028 13.3012C48.5298 13.4297 48.5636 13.6293 48.6042 13.8998C48.6516 14.1636 48.6888 14.3632 48.7158 14.4984C48.7496 14.6337 48.8139 14.7994 48.9086 14.9956C49.01 15.1917 49.1386 15.3676 49.2941 15.5231C49.3415 15.5705 49.4226 15.672 49.5376 15.8275C49.6594 15.9763 49.7642 16.0812 49.8521 16.142C49.6763 16.142 49.3922 16.1285 48.9999 16.1015C48.7564 16.1894 48.3066 16.2334 47.6505 16.2334L46.4432 16.2029L45.8649 16.2334Z" fill="#FFFFEB"/>
</svg>
