<svg width="192" height="206" viewBox="0 0 192 206" fill="none" xmlns="http://www.w3.org/2000/svg">
<mask id="path-1-inside-1_835_1672" fill="white">
<path fill-rule="evenodd" clip-rule="evenodd" d="M167.833 0.0827899L174.89 17.0454V197.481C174.89 202.026 171.206 205.709 166.661 205.709H136.16L128.339 187.416L120.529 205.684L114.185 190.435L107.831 205.709H29.9306L23.2183 190.661L17.271 203.994L10.3223 187.628V8.22838C10.3223 3.68398 14.0062 0 18.5506 0H37.3192L44.3715 16.9521L51.4239 0H52.6544L57.8989 12.0547L63.1434 0H154.521L159.45 11.1698L164.379 0H166.661C167.059 0 167.45 0.0282279 167.833 0.0827899Z"/>
</mask>
<path fill-rule="evenodd" clip-rule="evenodd" d="M167.833 0.0827899L174.89 17.0454V197.481C174.89 202.026 171.206 205.709 166.661 205.709H136.16L128.339 187.416L120.529 205.684L114.185 190.435L107.831 205.709H29.9306L23.2183 190.661L17.271 203.994L10.3223 187.628V8.22838C10.3223 3.68398 14.0062 0 18.5506 0H37.3192L44.3715 16.9521L51.4239 0H52.6544L57.8989 12.0547L63.1434 0H154.521L159.45 11.1698L164.379 0H166.661C167.059 0 167.45 0.0282279 167.833 0.0827899Z" fill="url(#paint0_linear_835_1672)"/>
<path d="M167.833 0.0827899L170.112 -0.86537L169.573 -2.1627L168.182 -2.36101L167.833 0.0827899ZM174.89 17.0454H177.358V16.5524L177.169 16.0973L174.89 17.0454ZM136.16 205.709L133.891 206.68L134.531 208.178H136.16V205.709ZM128.339 187.416L130.609 186.446L128.339 181.137L126.07 186.446L128.339 187.416ZM120.529 205.684L118.25 206.632L120.498 212.036L122.799 206.655L120.529 205.684ZM114.185 190.435L116.464 189.486L114.185 184.008L111.906 189.486L114.185 190.435ZM107.831 205.709V208.178H109.477L110.11 206.658L107.831 205.709ZM29.9306 205.709L27.6762 206.715L28.3288 208.178H29.9306V205.709ZM23.2183 190.661L25.4727 189.656L23.2183 184.601L20.9639 189.656L23.2183 190.661ZM17.271 203.994L14.9989 204.959L17.2153 210.179L19.5255 205L17.271 203.994ZM10.3223 187.628H7.85375V188.131L8.05008 188.593L10.3223 187.628ZM37.3192 0L39.5984 -0.94816L38.9659 -2.46851H37.3192V0ZM44.3715 16.9521L42.0924 17.9003L44.3715 23.3789L46.6507 17.9003L44.3715 16.9521ZM51.4239 0V-2.46851H49.7772L49.1447 -0.94816L51.4239 0ZM52.6544 0L54.918 -0.984782L54.2725 -2.46851H52.6544V0ZM57.8989 12.0547L55.6353 13.0395L57.8989 18.2424L60.1625 13.0395L57.8989 12.0547ZM63.1434 0V-2.46851H61.5253L60.8798 -0.984782L63.1434 0ZM154.521 0L156.779 -0.996571L156.13 -2.46851H154.521V0ZM159.45 11.1698L157.191 12.1664L159.45 17.2843L161.708 12.1664L159.45 11.1698ZM164.379 0V-2.46851H162.77L162.12 -0.996571L164.379 0ZM165.554 1.03095L172.611 17.9936L177.169 16.0973L170.112 -0.86537L165.554 1.03095ZM172.421 17.0454V197.481H177.358V17.0454H172.421ZM172.421 197.481C172.421 200.662 169.843 203.241 166.661 203.241V208.178C172.569 208.178 177.358 203.389 177.358 197.481H172.421ZM166.661 203.241H136.16V208.178H166.661V203.241ZM138.43 204.739L130.609 186.446L126.07 188.386L133.891 206.68L138.43 204.739ZM126.07 186.446L118.259 204.714L122.799 206.655L130.609 188.386L126.07 186.446ZM122.808 204.736L116.464 189.486L111.906 191.383L118.25 206.632L122.808 204.736ZM111.906 189.486L105.551 204.761L110.11 206.658L116.464 191.383L111.906 189.486ZM107.831 203.241H29.9306V208.178H107.831V203.241ZM32.185 204.704L25.4727 189.656L20.9639 191.667L27.6762 206.715L32.185 204.704ZM20.9639 189.656L15.0166 202.989L19.5255 205L25.4727 191.667L20.9639 189.656ZM19.5432 203.03L12.5944 186.664L8.05008 188.593L14.9989 204.959L19.5432 203.03ZM12.7908 187.628V8.22838H7.85375V187.628H12.7908ZM12.7908 8.22838C12.7908 5.0473 15.3696 2.46851 18.5506 2.46851V-2.46851C12.6429 -2.46851 7.85375 2.32065 7.85375 8.22838H12.7908ZM18.5506 2.46851H37.3192V-2.46851H18.5506V2.46851ZM35.0401 0.94816L42.0924 17.9003L46.6507 16.004L39.5984 -0.94816L35.0401 0.94816ZM46.6507 17.9003L53.703 0.94816L49.1447 -0.94816L42.0924 16.004L46.6507 17.9003ZM51.4239 2.46851H52.6544V-2.46851H51.4239V2.46851ZM50.3908 0.984782L55.6353 13.0395L60.1625 11.0699L54.918 -0.984782L50.3908 0.984782ZM60.1625 13.0395L65.4069 0.984782L60.8798 -0.984782L55.6353 11.0699L60.1625 13.0395ZM63.1434 2.46851H154.521V-2.46851H63.1434V2.46851ZM152.263 0.996571L157.191 12.1664L161.708 10.1732L156.779 -0.996571L152.263 0.996571ZM161.708 12.1664L166.637 0.996571L162.12 -0.996571L157.191 10.1732L161.708 12.1664ZM164.379 2.46851H166.661V-2.46851H164.379V2.46851ZM166.661 2.46851C166.942 2.46851 167.217 2.48843 167.485 2.52659L168.182 -2.36101C167.684 -2.43198 167.176 -2.46851 166.661 -2.46851V2.46851Z" fill="url(#paint1_linear_835_1672)" mask="url(#path-1-inside-1_835_1672)"/>
<g clip-path="url(#clip0_835_1672)">
<path fill-rule="evenodd" clip-rule="evenodd" d="M111.419 36.7586C108.745 38.7352 106.485 41.098 105.532 42.4312L105.244 42.835L104.753 42.7607C94.1836 41.1592 83.518 42.0955 79.5381 42.7588L79.0405 42.8417L78.7472 42.4312C77.8021 41.1081 75.5502 38.8447 72.8757 36.9627C70.1699 35.0586 67.2401 33.6945 64.9133 33.8735L64.8823 33.8759L64.8513 33.8759C64.4483 33.8759 63.9089 34.0195 63.2248 34.3732C62.5479 34.7232 61.7775 35.2539 60.9272 35.9637C59.2265 37.3832 57.2716 39.4636 55.1869 42.0742C54.088 43.4504 52.9574 44.9682 51.8137 46.6059C52.9075 46.4755 54.0208 46.4084 55.1498 46.4084C68.4684 46.4084 79.6068 55.7425 82.3805 68.2258C86.387 66.1634 94.0057 63.9644 102.306 68.22C105.082 55.7396 116.219 46.4084 129.536 46.4084C130.613 46.4084 131.676 46.4695 132.722 46.5885C131.491 44.8095 130.274 43.167 129.093 41.688C127.008 39.0774 125.053 36.997 123.352 35.5775C122.502 34.8677 121.732 34.337 121.055 33.987C120.371 33.6333 119.831 33.4897 119.428 33.4897L119.397 33.4897L119.366 33.4873C118.232 33.4001 116.93 33.7031 115.543 34.3045C114.163 34.9029 112.751 35.7741 111.419 36.7586ZM134.909 46.9255C133.367 44.6308 131.836 42.5316 130.356 40.679C128.234 38.0214 126.203 35.8506 124.388 34.336C123.481 33.5787 122.612 32.9716 121.797 32.5506C121.002 32.1392 120.21 31.88 119.46 31.8728C117.975 31.7655 116.408 32.1667 114.9 32.8209C113.374 33.4825 111.855 34.4259 110.458 35.4582C107.91 37.3411 105.693 39.5778 104.516 41.0909C94.3006 39.6152 84.117 40.4226 79.7586 41.0863C78.574 39.5797 76.3516 37.4314 73.8063 35.6403C71.0638 33.7104 67.7406 32.0472 64.8191 32.2589C64.0693 32.2662 63.2778 32.5253 62.4821 32.9368C61.6679 33.3578 60.7983 33.9649 59.891 34.7222C58.0765 36.2368 56.0455 38.4076 53.9233 41.0651C52.52 42.8224 51.0697 44.8015 49.6083 46.9588C36.8572 49.5289 27.2551 60.7947 27.2551 74.3031C27.2551 79.4431 28.6453 84.2583 31.0702 88.3934C29.1885 96.8411 28.796 105.008 30.9227 111.716C33.0619 120.33 42.1085 134.834 62.4086 141.684C58.9393 147.282 54.8207 154.303 51.1842 162.092C43.1875 179.22 37.4051 200.31 46.3404 218.181L46.3448 218.189C51.833 228.843 62.8988 252.239 67.7535 262.623C68.3758 264.032 70.265 265.525 73.6223 266.355C77.0133 267.193 82.0315 267.394 89.1804 266.102H90.5227H91.8649C99.0187 267.394 104.041 267.135 107.436 266.236C110.801 265.346 112.675 263.79 113.292 262.393C118.147 252.009 129.212 228.613 134.701 217.959L134.705 217.951C143.703 199.954 138.153 179.063 130.297 162.094C126.834 154.615 122.902 147.852 119.513 142.373C141.044 135.907 150.756 120.873 153.219 111.857C153.268 111.679 153.314 111.503 153.357 111.33C155.418 104.829 155.113 96.9576 153.379 88.7884C155.95 84.5663 157.43 79.6076 157.43 74.3031C157.43 60.7354 147.744 49.4302 134.909 46.9255ZM133.945 48.3939C132.511 48.1516 131.038 48.0255 129.536 48.0255C115.023 48.0255 103.258 59.7904 103.258 74.3031C103.258 88.8158 115.023 100.581 129.536 100.581C138.824 100.581 146.986 95.7619 151.66 88.488C151.608 88.2525 151.554 88.0167 151.5 87.7804C149.535 79.256 146.024 70.348 141.951 62.2531C139.414 57.2104 136.665 52.4945 133.945 48.3939ZM152.845 86.4458C150.808 78.0634 147.357 69.3988 143.396 61.5263C141.112 56.9861 138.653 52.7004 136.192 48.8758C147.481 51.8229 155.813 62.09 155.813 74.3031C155.813 78.6837 154.741 82.8139 152.845 86.4458ZM152.112 90.6897C147.37 97.2115 139.871 101.599 131.328 102.141C138.12 104.247 145.012 106.985 151.931 110.466C153.626 104.81 153.495 97.9731 152.112 90.6897ZM115.202 98.2381C107.078 93.3624 101.641 84.4676 101.641 74.3031C101.641 72.7981 101.76 71.321 101.99 69.8806C93.8272 65.4783 86.3289 67.8903 82.6971 69.8887C82.9257 71.3265 83.0445 72.8009 83.0445 74.3031C83.0445 84.3252 77.7592 93.1128 69.8238 98.0307C83.2087 95.8409 98.7126 95.3334 115.202 98.2381ZM58.8702 101.952C60.6393 101.716 62.356 101.314 64.0041 100.763C87.5853 95.7916 119.249 95.7393 151.481 112.051C148.603 121.554 137.385 137.856 111.813 142.561C111.788 142.415 111.761 142.268 111.734 142.12C111.157 138.987 110.137 136.967 108.659 135.995C107.121 134.983 105.361 135.272 103.763 136.076C102.164 136.881 100.557 138.276 99.1152 139.815C97.9056 141.105 96.7828 142.529 95.8455 143.863C95.3617 143.858 94.8742 143.85 94.383 143.838L94.3731 143.838H94.3633H93.8502C93.1791 143.739 92.4424 143.66 91.6763 143.621C90.3871 143.555 88.9759 143.598 87.6373 143.868C87.2265 143.868 86.8184 143.866 86.4131 143.862C85.4759 142.528 84.3532 141.105 83.1438 139.814C81.702 138.276 80.0946 136.881 78.4957 136.076C76.8977 135.272 75.1384 134.983 73.5996 135.995C72.1225 136.967 71.1021 138.987 70.525 142.12L70.509 142.207C68.1766 141.719 65.9702 141.134 63.8848 140.467C44.0567 134.132 35.082 120.409 32.696 112.087C38.6011 108.65 47.6439 104.787 58.8702 101.952ZM110.144 142.413C110.17 142.555 110.195 142.696 110.22 142.836C106.408 143.451 102.289 143.812 97.8439 143.861C98.5881 142.866 99.4199 141.854 100.295 140.92C101.683 139.439 103.138 138.201 104.49 137.521C105.844 136.839 106.924 136.79 107.771 137.346C108.679 137.944 109.589 139.4 110.144 142.413ZM110.475 144.433C106.378 145.093 101.939 145.466 97.1374 145.484C97.5941 146.46 97.9549 147.872 97.8389 149.553C97.7602 150.693 97.4625 151.954 96.831 153.284C97.6194 156.699 99.4918 158.212 101.469 158.805C103.573 159.436 105.912 159.054 107.421 158.489L107.458 158.475L107.496 158.464C108.142 158.292 109.367 157.41 110.158 154.918C110.853 152.731 111.182 149.376 110.475 144.433ZM89.926 145.455C89.2118 145.472 88.5052 145.482 87.8061 145.484C87.4644 145.558 87.1332 145.65 86.8168 145.759C86.0925 146.982 85.93 148.348 86.0521 149.616C86.1679 150.818 86.5357 151.884 86.8656 152.558C87.6907 152.908 89.0147 153.303 90.5183 153.426C92.1028 153.556 93.8277 153.379 95.3697 152.591C95.9148 151.444 96.1609 150.38 96.2256 149.442C96.3422 147.753 95.8726 146.459 95.478 145.8C95.01 145.682 94.411 145.558 93.73 145.455H89.926ZM81.9639 140.92C82.8265 141.841 83.6469 142.837 84.3829 143.818C79.9569 143.674 75.8678 143.222 72.0956 142.52L72.1154 142.413C72.6703 139.4 73.5803 137.944 74.4883 137.346C75.3347 136.79 76.4155 136.839 77.7686 137.521C79.1208 138.201 80.5758 139.439 81.9639 140.92ZM85.1448 145.457C80.3398 145.343 75.909 144.873 71.8303 144.116C71.0637 149.233 71.3918 152.685 72.1009 154.918C72.8924 157.41 74.1167 158.292 74.7627 158.464L74.8011 158.475L74.8383 158.488C76.3475 159.054 78.6859 159.436 80.7903 158.805C82.7652 158.212 84.6357 156.702 85.4256 153.294C85.0114 152.455 84.5793 151.192 84.4425 149.771C84.3133 148.429 84.4443 146.903 85.1448 145.457ZM70.5597 155.407C69.75 152.858 69.4375 149.12 70.2421 143.803C68.0555 143.347 65.974 142.808 63.994 142.197C60.5049 147.811 56.3414 154.877 52.6759 162.719C50.1005 171.619 49.3233 186.044 54.3061 198.209C56.7966 204.289 60.7172 209.785 66.5547 213.765C72.3905 217.744 80.1968 220.245 90.5227 220.245C101.258 220.245 109.296 217.724 115.249 213.724C121.202 209.724 125.127 204.205 127.571 198.113C132.464 185.92 131.398 171.496 128.805 162.72C125.304 155.167 121.315 148.342 117.897 142.835C116.04 143.342 114.098 143.786 112.069 144.158C112.807 149.287 112.491 152.915 111.699 155.407C110.822 158.17 109.318 159.631 107.953 160.016C106.227 160.656 103.532 161.112 101.004 160.354C98.6003 159.632 96.4441 157.838 95.4347 154.34C93.7393 155.036 91.9573 155.166 90.3864 155.038C89.0227 154.926 87.7835 154.617 86.8407 154.282C85.8384 157.819 83.6718 159.628 81.255 160.354C78.7275 161.112 76.032 160.656 74.3055 160.016C72.9408 159.631 71.4372 158.17 70.5597 155.407ZM63.5654 99.2042C61.8606 99.5651 60.1975 99.9515 58.5786 100.359C57.4564 100.505 56.3119 100.581 55.1498 100.581C45.7044 100.581 37.4229 95.5972 32.7913 88.1162C34.7588 79.607 38.2636 70.7182 42.3282 62.6393C44.9391 57.4495 47.7751 52.6058 50.5722 48.4228C52.0588 48.1617 53.5884 48.0255 55.1498 48.0255C69.6625 48.0255 81.4274 59.7904 81.4274 74.3031C81.4274 85.8725 73.9506 95.6957 63.5654 99.2042ZM48.305 48.9259C37.1113 51.9376 28.8722 62.1582 28.8722 74.3031C28.8722 78.5203 29.8656 82.5054 31.6312 86.0372C33.6902 77.9033 37.0479 69.5365 40.8836 61.9125C43.235 57.2388 45.7707 52.8348 48.305 48.9259ZM32.3136 90.3266C36.87 96.8083 44.1162 101.262 52.43 102.067C44.027 104.626 37.1348 107.679 32.2409 110.483C30.6042 104.704 30.8275 97.7312 32.3136 90.3266ZM132.037 170.322C133.183 178.829 132.82 189.374 129.072 198.715C126.528 205.054 122.418 210.855 116.151 215.066C109.884 219.278 101.517 221.862 90.5227 221.862C79.9275 221.862 71.7906 219.292 65.6438 215.101C59.4988 210.912 55.3975 205.139 52.8097 198.822C48.9221 189.33 48.4306 178.566 49.564 169.916C43.4556 185.343 40.3764 202.632 47.7847 217.453C53.292 228.144 64.3732 251.575 69.2224 261.946L69.2267 261.955L69.2307 261.965C69.5561 262.709 70.8597 264.006 74.0102 264.785C77.1232 265.554 81.92 265.778 88.9631 264.498L89.0348 264.485H89.1077H89.7141V228.734H91.3312V264.485H91.9376H92.0105L92.0822 264.498C99.1206 265.777 103.913 265.496 107.022 264.673C110.165 263.841 111.484 262.491 111.815 261.735L111.819 261.726L111.823 261.716C116.672 251.344 127.754 227.913 133.261 217.222C140.65 202.439 137.879 185.478 132.037 170.322ZM61.7717 75.8151C62.2694 75.4796 62.869 74.788 63.2079 73.7279C63.5468 72.6679 63.4595 71.7567 63.2486 71.1947C63.1463 70.9221 63.033 70.7748 62.9717 70.7115C62.942 70.6808 62.9234 70.6684 62.9187 70.6655C62.9149 70.6631 62.915 70.6633 62.9143 70.6631L62.9141 70.663C62.9136 70.6629 62.9132 70.6627 62.9094 70.6625C62.9039 70.6622 62.8816 70.6615 62.8395 70.6692C62.7529 70.6852 62.5751 70.7395 62.3337 70.9022C61.8359 71.2378 61.2363 71.9293 60.8974 72.9894C60.5586 74.0494 60.6459 74.9606 60.8567 75.5226C60.959 75.7952 61.0723 75.9426 61.1336 76.0058C61.1634 76.0366 61.1819 76.0489 61.1866 76.0519C61.1898 76.0539 61.1903 76.054 61.1908 76.0541L61.191 76.0542L61.1913 76.0543C61.1917 76.0545 61.1922 76.0546 61.196 76.0549C61.2015 76.0552 61.2238 76.0559 61.2658 76.0481C61.3525 76.0321 61.5302 75.9778 61.7717 75.8151ZM123.555 76.0543L123.555 76.0542L123.555 76.0541C123.556 76.054 123.556 76.0539 123.559 76.0519C123.564 76.0489 123.583 76.0366 123.612 76.0058C123.674 75.9426 123.787 75.7953 123.889 75.5226C124.1 74.9606 124.187 74.0494 123.848 72.9894C123.51 71.9293 122.91 71.2378 122.412 70.9022C122.171 70.7395 121.993 70.6852 121.906 70.6692C121.864 70.6615 121.842 70.6622 121.837 70.6625L121.833 70.6627L121.832 70.6629L121.832 70.6631L121.831 70.6632L121.83 70.6636L121.827 70.6655C121.822 70.6684 121.804 70.6808 121.774 70.7115C121.713 70.7748 121.6 70.9221 121.497 71.1947C121.286 71.7567 121.199 72.6679 121.538 73.7279C121.877 74.788 122.476 75.4796 122.974 75.8151C123.216 75.9778 123.393 76.0321 123.48 76.0481C123.522 76.0559 123.544 76.0552 123.55 76.0549L123.553 76.0547C123.554 76.0545 123.554 76.0544 123.555 76.0543ZM59.7139 80.6751C62.904 81.6948 66.5371 79.2458 67.8288 75.2051C69.1205 71.1643 67.5815 67.062 64.3914 66.0422C61.2014 65.0225 57.5682 67.4715 56.2765 71.5123C54.9849 75.553 56.5238 79.6553 59.7139 80.6751ZM125.032 80.6751C121.842 81.6948 118.209 79.2458 116.917 75.2051C115.625 71.1643 117.164 67.062 120.354 66.0422C123.545 65.0225 127.178 67.4715 128.469 71.5123C129.761 75.553 128.222 79.6553 125.032 80.6751ZM79.8009 174.281C79.8688 173.84 79.5661 173.427 79.1247 173.359C78.6834 173.291 78.2705 173.594 78.2026 174.035C78.0692 174.903 78.286 175.798 78.6567 176.656C79.0298 177.52 79.5898 178.417 80.233 179.316C81.0604 180.471 82.0847 181.707 83.0987 182.93L83.099 182.931C83.6416 183.585 84.1813 184.236 84.6863 184.87C86.1829 186.747 87.3868 188.481 87.8354 189.968C88.0541 190.694 88.0731 191.299 87.9098 191.808C87.7499 192.307 87.3843 192.812 86.6479 193.288C85.6556 193.931 84.1768 193.817 82.1594 192.789C80.1818 191.782 77.9305 190.014 75.6249 187.84C71.0236 183.502 66.368 177.705 63.4881 173.687C63.228 173.324 62.7229 173.241 62.36 173.501C61.997 173.761 61.9136 174.266 62.1737 174.629C65.0884 178.696 69.8119 184.582 74.5156 189.017C76.8625 191.23 79.2451 193.12 81.4256 194.23C83.5663 195.32 85.7698 195.783 87.5264 194.646C88.5083 194.011 89.1533 193.227 89.4498 192.302C89.7429 191.387 89.6639 190.431 89.3836 189.502C88.8342 187.679 87.4356 185.724 85.9507 183.862C85.4007 183.172 84.8387 182.494 84.2867 181.829C83.3002 180.64 82.3455 179.489 81.5479 178.374C80.9341 177.517 80.4487 176.727 80.1412 176.015C79.8312 175.297 79.7322 174.727 79.8009 174.281ZM104.988 174.035C104.92 173.594 104.507 173.291 104.066 173.359C103.625 173.427 103.322 173.84 103.39 174.281C103.458 174.727 103.359 175.297 103.049 176.015C102.742 176.727 102.257 177.517 101.643 178.374C100.845 179.488 99.8906 180.639 98.9041 181.829L98.904 181.829L98.9034 181.83C98.3516 182.495 97.7898 183.172 97.24 183.862C95.7551 185.724 94.3565 187.679 93.8071 189.502C93.5268 190.431 93.4478 191.387 93.7409 192.302C94.0374 193.227 94.6824 194.011 95.6643 194.646C97.4209 195.783 99.6244 195.32 101.765 194.23C103.946 193.12 106.328 191.23 108.675 189.017C113.379 184.582 118.102 178.696 121.017 174.629C121.277 174.266 121.194 173.761 120.831 173.501C120.468 173.241 119.963 173.324 119.703 173.687C116.823 177.705 112.167 183.502 107.566 187.84C105.26 190.014 103.009 191.782 101.031 192.789C99.0139 193.817 97.5352 193.931 96.5428 193.288C95.8065 192.812 95.4408 192.307 95.2809 191.808C95.1176 191.299 95.1366 190.694 95.3553 189.968C95.8039 188.481 97.0078 186.747 98.5044 184.87C99.0092 184.237 99.5487 183.586 100.091 182.931L100.092 182.931C101.106 181.707 102.13 180.472 102.958 179.316C103.601 178.417 104.161 177.52 104.534 176.656C104.905 175.798 105.122 174.903 104.988 174.035Z" fill="black"/>
</g>
<path d="M191.15 178.097L178.076 186.812V158.124L191.15 155.219L182.434 172.649L191.15 178.097Z" fill="#B9B9B9"/>
<path d="M0.433594 182.413L13.5078 186.811V162.44L0.433594 159.535L6.90474 172.484L0.433594 182.413Z" fill="#B9B9B9"/>
<rect x="10.0176" y="151.406" width="169.461" height="35" fill="#D9D9D9"/>
<path d="M53.1461 174.631H51.9449C51.1246 174.631 50.2229 174.436 49.2398 174.045C48.2568 173.648 47.5309 173.156 47.0621 172.57C47.0165 172.518 46.9612 172.434 46.8961 172.316C46.8375 172.193 46.7984 172.115 46.7789 172.082C46.7789 171.945 46.6747 171.665 46.4664 171.242C46.2646 170.812 46.1572 170.575 46.1441 170.529L46.3199 170.051L45.9391 169.943C45.8284 169.605 45.7568 169.11 45.7242 168.459C45.6917 167.808 45.6494 167.355 45.5973 167.102L45.7828 166.945L45.5973 166.77C45.6103 166.711 45.6363 166.62 45.6754 166.496C45.721 166.372 45.7503 166.281 45.7633 166.223C45.9391 165.201 46.2841 164.279 46.7984 163.459C47.3128 162.639 47.9931 161.968 48.8395 161.447C48.9566 161.376 49.0836 161.307 49.2203 161.242C49.357 161.177 49.5198 161.102 49.7086 161.018C49.8974 160.933 50.0276 160.874 50.0992 160.842C50.1253 160.855 50.1806 160.897 50.2652 160.969C50.3564 161.034 50.415 161.066 50.441 161.066C50.4605 161.066 50.4768 161.044 50.4898 160.998C50.5029 160.946 50.5126 160.891 50.5191 160.832C50.5322 160.773 50.5452 160.738 50.5582 160.725C51.0139 160.699 51.3492 160.64 51.5641 160.549C51.6227 160.549 51.7138 160.546 51.8375 160.539C51.9677 160.533 52.0621 160.529 52.1207 160.529C52.2574 160.529 52.4658 160.539 52.7457 160.559C53.0257 160.578 53.2372 160.588 53.3805 160.588C53.4456 160.588 53.5465 160.578 53.6832 160.559C53.8199 160.539 53.9208 160.529 53.9859 160.529C54.1487 160.529 54.3212 160.539 54.5035 160.559C54.6923 160.572 54.8518 160.588 54.982 160.607C55.1122 160.627 55.2848 160.656 55.4996 160.695C55.721 160.728 55.887 160.751 55.9977 160.764V160.783L56.3395 160.686L56.6227 160.871C56.6031 160.956 56.5738 161.057 56.5348 161.174C56.4957 161.285 56.4664 161.382 56.4469 161.467C56.4339 161.551 56.4306 161.659 56.4371 161.789L56.4664 161.828L56.3004 162.746L56.2613 162.785C56.1702 163.039 56.1051 163.299 56.066 163.566L56.0855 163.645C55.9944 163.794 55.926 163.967 55.8805 164.162C55.8284 164.195 55.7568 164.26 55.6656 164.357C55.581 164.449 55.5126 164.51 55.4605 164.543L55.2848 164.445C55.2848 164.439 55.2945 164.393 55.3141 164.309C55.3336 164.217 55.3434 164.149 55.3434 164.104C55.3434 163.869 55.288 163.654 55.1773 163.459C55.0667 163.257 54.9234 163.094 54.7477 162.971C54.5719 162.84 54.3701 162.733 54.1422 162.648C53.9208 162.557 53.6995 162.495 53.4781 162.463C53.2568 162.424 53.0387 162.404 52.8238 162.404C52.609 162.404 52.2997 162.447 51.8961 162.531C51.4924 162.616 51.193 162.661 50.9977 162.668C50.9586 162.688 50.8089 162.756 50.5484 162.873C50.288 162.99 50.0927 163.094 49.9625 163.186L49.6793 163.107V163.186C49.6793 163.225 49.6858 163.283 49.6988 163.361C49.7119 163.433 49.7184 163.488 49.7184 163.527C49.4189 163.638 49.1454 163.944 48.898 164.445C48.6507 164.94 48.5172 165.373 48.4977 165.744C48.4326 165.816 48.374 165.923 48.3219 166.066C48.2763 166.21 48.2633 166.324 48.2828 166.408C48.2568 166.512 48.2438 166.597 48.2438 166.662C48.2438 166.747 48.2665 166.857 48.3121 166.994C48.3642 167.131 48.3935 167.229 48.4 167.287C48.374 167.378 48.3609 167.525 48.3609 167.727C48.3609 168.417 48.4456 169.009 48.6148 169.504C48.7906 169.992 49.0869 170.539 49.5035 171.145C49.6272 171.327 49.7607 171.486 49.9039 171.623C50.0471 171.753 50.2099 171.861 50.3922 171.945C50.5745 172.023 50.734 172.089 50.8707 172.141C51.0139 172.193 51.206 172.232 51.4469 172.258C51.6878 172.277 51.8701 172.294 51.9938 172.307C52.124 172.313 52.3323 172.32 52.6188 172.326L52.8434 172.707L53.0582 172.326C53.6572 172.326 54.1975 172.209 54.6793 171.975C55.1676 171.74 55.5484 171.379 55.8219 170.891L55.9586 170.822C56.0432 170.972 56.0855 171.187 56.0855 171.467C56.0855 171.551 56.0823 171.672 56.0758 171.828C56.0693 171.984 56.066 172.092 56.066 172.15C56.066 172.3 56.0986 172.44 56.1637 172.57C56.1637 172.583 56.1572 172.609 56.1441 172.648C56.1311 172.688 56.1246 172.714 56.1246 172.727C56.1246 172.831 56.1344 172.98 56.1539 173.176C56.1734 173.371 56.1832 173.521 56.1832 173.625L56.1637 173.664L55.9391 173.83C55.8219 173.869 55.6689 173.944 55.4801 174.055C55.2978 174.165 55.1773 174.237 55.1188 174.27C54.9495 174.289 54.6402 174.354 54.191 174.465C53.7483 174.576 53.4 174.631 53.1461 174.631ZM59.7668 174.426C59.591 174.426 59.3339 174.419 58.9953 174.406C58.6568 174.393 58.3996 174.387 58.2238 174.387V174.348C58.315 174.289 58.3638 174.25 58.3703 174.23C58.4354 174.191 58.5038 174.123 58.5754 174.025C58.647 173.921 58.7219 173.794 58.8 173.645C58.8846 173.488 58.9335 173.397 58.9465 173.371L58.966 173.166C58.979 173.146 59.0311 173.078 59.1223 172.961C59.2199 172.837 59.2753 172.746 59.2883 172.688V172.648C59.2883 172.609 59.272 172.544 59.2395 172.453C59.2069 172.355 59.1906 172.287 59.1906 172.248L59.2297 172.17C59.2362 171.955 59.2525 171.662 59.2785 171.291C59.3111 170.92 59.3273 170.598 59.3273 170.324C59.3273 170.129 59.3404 169.784 59.3664 169.289C59.399 168.788 59.4055 168.381 59.3859 168.068L59.6105 167.805L59.425 167.463C59.4315 167.255 59.4283 167.049 59.4152 166.848C59.4087 166.646 59.3924 166.434 59.3664 166.213C59.3404 165.992 59.3176 165.809 59.298 165.666C59.2785 165.523 59.246 165.318 59.2004 165.051C59.1613 164.777 59.132 164.576 59.1125 164.445C59.0995 164.361 58.9888 164.234 58.7805 164.064C58.5786 163.889 58.4745 163.755 58.468 163.664L58.3117 163.449C58.3964 163.443 58.5363 163.42 58.7316 163.381C58.927 163.335 59.0669 163.309 59.1516 163.303C59.2688 163.4 59.4152 163.449 59.591 163.449C59.6887 163.449 59.8384 163.426 60.0402 163.381C60.2421 163.335 60.3788 163.309 60.4504 163.303C60.4829 163.316 60.535 163.378 60.6066 163.488C60.6848 163.592 60.7401 163.645 60.7727 163.645C60.7792 163.645 60.8052 163.589 60.8508 163.479C60.8964 163.361 60.9224 163.303 60.9289 163.303C61.4172 163.394 61.7362 163.43 61.8859 163.41L61.9445 163.43L62.0715 163.41L62.1105 163.391C62.1431 163.391 62.1887 163.394 62.2473 163.4C62.3059 163.407 62.3514 163.41 62.384 163.41V163.469C61.9738 163.762 61.6906 164.1 61.5344 164.484C61.3781 164.868 61.3098 165.331 61.3293 165.871C61.3033 165.897 61.2902 166.05 61.2902 166.33C61.2902 166.46 61.2935 166.636 61.3 166.857C61.3065 167.079 61.3098 167.202 61.3098 167.229C61.3098 167.456 61.3163 167.798 61.3293 168.254C61.3423 168.703 61.3488 169.042 61.3488 169.27C61.3488 169.315 61.3065 169.393 61.2219 169.504C61.1372 169.608 61.0982 169.683 61.1047 169.729C61.1112 169.768 61.1633 169.829 61.2609 169.914C61.3586 169.992 61.4074 170.051 61.4074 170.09C61.4465 170.708 61.466 171.333 61.466 171.965C61.466 172.18 61.4855 172.365 61.5246 172.521L61.6906 172.766C61.7688 172.811 61.8371 172.844 61.8957 172.863C61.9608 172.876 62.0096 172.886 62.0422 172.893C62.0747 172.893 62.1366 172.893 62.2277 172.893C62.3189 172.886 62.3938 172.883 62.4523 172.883C62.5435 172.883 62.677 172.87 62.8527 172.844C63.035 172.811 63.1815 172.798 63.2922 172.805C63.3182 172.798 63.3508 172.814 63.3898 172.854C63.4289 172.893 63.4615 172.909 63.4875 172.902C63.5526 172.896 63.7219 172.87 63.9953 172.824C64.2688 172.772 64.4673 172.746 64.591 172.746C64.8254 172.746 65.0858 172.701 65.3723 172.609C65.6652 172.518 65.9029 172.411 66.0852 172.287H66.1047C66.2284 172.176 66.3814 172.004 66.5637 171.77C66.5962 171.73 66.6255 171.656 66.6516 171.545C66.6776 171.434 66.7036 171.363 66.7297 171.33H66.7688L66.8469 171.262C66.8469 171.32 66.8664 171.402 66.9055 171.506C66.951 171.61 66.9771 171.685 66.9836 171.73C67.0422 171.952 67.0715 172.076 67.0715 172.102C67.0975 172.18 67.1203 172.323 67.1398 172.531C67.1659 172.733 67.1952 172.886 67.2277 172.99C67.2342 173.01 67.2635 173.029 67.3156 173.049C67.3677 173.068 67.397 173.088 67.4035 173.107C67.4165 173.166 67.4426 173.299 67.4816 173.508C67.5272 173.71 67.5695 173.863 67.6086 173.967C67.6086 173.993 67.6184 174.061 67.6379 174.172C67.6574 174.276 67.6607 174.354 67.6477 174.406C67.6086 174.419 67.55 174.426 67.4719 174.426C67.0617 174.426 66.4465 174.41 65.6262 174.377C64.8059 174.344 64.1939 174.328 63.7902 174.328C63.7707 174.328 63.7121 174.338 63.6145 174.357C63.5168 174.377 63.4484 174.387 63.4094 174.387C63.3182 174.387 63.2303 174.348 63.1457 174.27C63.0611 174.185 62.9895 174.143 62.9309 174.143C62.8658 174.143 62.7714 174.182 62.6477 174.26C62.524 174.331 62.4296 174.367 62.3645 174.367H60.9875L61.007 174.328C60.343 174.393 59.9296 174.426 59.7668 174.426ZM76.3484 174.504H75.8504C76.0522 174.328 76.2182 174.188 76.3484 174.084C76.3549 174.051 76.3712 173.99 76.3973 173.898C76.4233 173.801 76.4461 173.723 76.4656 173.664C76.4917 173.599 76.521 173.54 76.5535 173.488C76.5145 173.254 76.4949 173.133 76.4949 173.127C76.4949 173.12 76.5145 173.039 76.5535 172.883C76.4624 172.727 76.394 172.635 76.3484 172.609C76.2898 171.958 76.1434 171.311 75.909 170.666C75.8113 170.588 75.6518 170.549 75.4305 170.549C75.2156 170.549 74.9487 170.585 74.6297 170.656C74.3172 170.721 73.9884 170.803 73.6434 170.9C73.2983 170.998 73.0672 171.06 72.95 171.086C72.8654 171.307 72.7807 171.551 72.6961 171.818C72.6115 172.079 72.5366 172.274 72.4715 172.404C72.4845 172.469 72.491 172.583 72.491 172.746C72.491 172.935 72.478 173.075 72.452 173.166L72.3152 173.342C72.3283 173.413 72.3738 173.501 72.452 173.605L72.7742 174.104C72.8133 174.143 72.9793 174.257 73.2723 174.445C73.2202 174.445 73.1421 174.449 73.0379 174.455C72.9402 174.462 72.8654 174.465 72.8133 174.465C72.4813 174.465 72.1818 174.439 71.9148 174.387C71.7846 174.413 71.5763 174.426 71.2898 174.426C71.2378 174.426 71.1596 174.419 71.0555 174.406C70.9513 174.393 70.8764 174.387 70.8309 174.387L70.7918 174.396V174.406C70.7788 174.419 70.7658 174.426 70.7527 174.426C70.6355 174.426 70.5086 174.419 70.3719 174.406C70.2352 174.393 70.1408 174.387 70.0887 174.387C70.0496 174.387 69.9259 174.4 69.7176 174.426C69.6785 174.406 69.6329 174.396 69.5809 174.396C69.5288 174.39 69.4669 174.39 69.3953 174.396C69.3302 174.403 69.2879 174.406 69.2684 174.406C69.2033 174.406 69.0991 174.41 68.9559 174.416C68.8191 174.423 68.7182 174.426 68.6531 174.426C68.6922 174.374 68.741 174.338 68.7996 174.318C68.8647 174.292 68.9233 174.273 68.9754 174.26C69.034 174.24 69.1154 174.178 69.2195 174.074C69.3237 173.964 69.4344 173.807 69.5516 173.605H69.8152C69.8022 173.573 69.7762 173.527 69.7371 173.469C69.7046 173.404 69.6818 173.355 69.6688 173.322C69.7208 173.218 69.799 173.101 69.9031 172.971C70.0073 172.834 70.0854 172.714 70.1375 172.609L70.2352 172.521C70.3654 172.222 70.4988 171.958 70.6355 171.73C70.8374 171.379 71.088 170.764 71.3875 169.885C71.6935 168.999 71.8823 168.345 71.9539 167.922L72.2371 167.844L72.0711 167.57C72.2208 167.271 72.2957 167.056 72.2957 166.926L72.3934 166.848C72.3999 166.802 72.4161 166.701 72.4422 166.545C72.4682 166.382 72.4943 166.239 72.5203 166.115C72.5464 165.985 72.5757 165.845 72.6082 165.695C72.6473 165.546 72.6896 165.419 72.7352 165.314C72.7872 165.21 72.8393 165.135 72.8914 165.09C72.8914 164.875 72.8882 164.719 72.8816 164.621C72.8816 164.517 72.8654 164.403 72.8328 164.279C72.8068 164.156 72.7612 164.045 72.6961 163.947L72.5496 163.723C72.5431 163.716 72.5008 163.697 72.4227 163.664C72.3445 163.632 72.3022 163.612 72.2957 163.605C72.2827 163.586 72.2762 163.547 72.2762 163.488C72.2762 163.43 72.2697 163.391 72.2566 163.371L73.2527 163.322L73.4773 163.469L74.6102 163.41L74.6492 163.605L75.118 163.371L75.7332 163.303L76.0945 163.371L76.6121 163.322L76.7684 163.371C76.7944 163.443 76.7879 163.488 76.7488 163.508C76.4689 163.729 76.2703 164.087 76.1531 164.582L76.2703 164.943C76.2703 165.301 76.3322 165.686 76.4559 166.096C76.5796 166.506 76.7391 166.857 76.9344 167.15C76.9734 167.209 76.993 167.274 76.993 167.346C76.993 167.424 76.9995 167.482 77.0125 167.521C77.0255 167.554 77.0385 167.574 77.0516 167.58C77.0711 167.587 77.0939 167.603 77.1199 167.629C77.146 167.655 77.1688 167.694 77.1883 167.746L77.1688 168.029C77.3055 168.192 77.4747 168.534 77.6766 169.055C77.8849 169.576 77.9891 169.934 77.9891 170.129C77.9891 170.161 77.9695 170.217 77.9305 170.295C77.8979 170.373 77.8784 170.422 77.8719 170.441L78.116 170.549C78.1876 170.926 78.3113 171.32 78.4871 171.73C78.6629 172.141 78.8647 172.492 79.0926 172.785C79.1382 172.844 79.174 172.893 79.2 172.932C79.226 172.964 79.2456 173 79.2586 173.039C79.2781 173.078 79.2879 173.111 79.2879 173.137C79.2944 173.156 79.3042 173.199 79.3172 173.264C79.3302 173.329 79.3432 173.384 79.3563 173.43L79.4148 173.684L79.6688 173.645L79.7566 173.703C79.8999 173.944 80.0854 174.178 80.3133 174.406C80.2091 174.419 79.9682 174.426 79.5906 174.426C79.5255 174.413 79.3986 174.403 79.2098 174.396C79.021 174.383 78.894 174.387 78.8289 174.406C78.6531 174.445 78.5197 174.465 78.4285 174.465C78.3699 174.465 78.2885 174.449 78.1844 174.416C78.0802 174.383 78.0021 174.367 77.95 174.367L77.6961 174.465C77.6505 174.452 77.5333 174.442 77.3445 174.436C77.1622 174.429 77.032 174.4 76.9539 174.348C76.9148 174.354 76.8237 174.38 76.6805 174.426C76.5438 174.478 76.4331 174.504 76.3484 174.504ZM73.3699 169.631C73.8517 169.52 74.5255 169.318 75.3914 169.025C75.3719 168.947 75.3165 168.765 75.2254 168.479C75.1342 168.186 75.0691 167.941 75.0301 167.746C75.004 167.616 74.9487 167.404 74.8641 167.111C74.7859 166.812 74.7371 166.584 74.7176 166.428L74.4344 166.008C74.4018 166.086 74.3595 166.216 74.3074 166.398C74.2618 166.581 74.2163 166.717 74.1707 166.809C74.1577 166.945 74.1121 167.137 74.034 167.385C73.9559 167.632 73.881 167.811 73.8094 167.922C73.8159 168.039 73.7443 168.335 73.5945 168.811C73.4513 169.286 73.3764 169.559 73.3699 169.631ZM91.3578 174.709C91.3383 174.696 91.3057 174.667 91.2602 174.621C91.2146 174.582 91.1723 174.546 91.1332 174.514C91.0941 174.488 91.0551 174.465 91.016 174.445C90.9704 174.315 90.8858 174.182 90.7621 174.045C90.6449 173.908 90.5017 173.765 90.3324 173.615C90.1632 173.465 90.046 173.355 89.9809 173.283C89.9678 173.277 89.9288 173.267 89.8637 173.254C89.7986 173.241 89.7628 173.231 89.7563 173.225L88.1547 171.467C88.1156 171.35 88.0961 171.216 88.0961 171.066C87.8943 171.132 87.7673 171.138 87.7152 171.086C87.585 170.956 87.2986 170.624 86.8559 170.09C86.8559 170.083 86.7615 169.992 86.5727 169.816C86.3904 169.641 86.2016 169.462 86.0063 169.279L85.7133 169.006C85.6417 168.954 85.5701 168.902 85.4984 168.85C85.4268 168.791 85.365 168.742 85.3129 168.703C85.2608 168.658 85.1957 168.599 85.1176 168.527C85.046 168.456 84.9906 168.404 84.9516 168.371C84.9125 168.332 84.8507 168.27 84.766 168.186C84.6879 168.094 84.6358 168.036 84.6098 168.01C84.5837 167.984 84.5219 167.922 84.4242 167.824C84.3331 167.72 84.2777 167.655 84.2582 167.629V167.521C84.2452 167.515 84.1638 167.437 84.0141 167.287C84.001 167.385 83.9945 167.684 83.9945 168.186C83.9945 168.426 84.0141 168.68 84.0531 168.947L83.8578 169.064L84.0336 169.348C83.9815 169.751 83.9555 170.126 83.9555 170.471C83.9555 170.965 84.0043 171.298 84.102 171.467C84.0694 171.564 84.0531 171.636 84.0531 171.682C84.0531 171.792 84.0629 171.958 84.0824 172.18C84.1085 172.401 84.1215 172.564 84.1215 172.668V172.902C84.1215 173.007 84.154 173.101 84.2191 173.186L84.0824 173.625L84.4145 173.605C84.6033 173.99 84.7855 174.283 84.9613 174.484C84.9418 174.484 84.9092 174.481 84.8637 174.475C84.8181 174.468 84.7823 174.465 84.7563 174.465C84.6781 174.465 84.5544 174.475 84.3852 174.494C84.2159 174.514 84.0922 174.523 84.0141 174.523C83.8839 174.523 83.5681 174.514 83.0668 174.494C82.5655 174.475 82.2497 174.465 82.1195 174.465C82.0805 174.465 82.0186 174.475 81.934 174.494C81.8559 174.514 81.7973 174.523 81.7582 174.523L81.1137 174.484C81.1267 174.452 81.169 174.387 81.2406 174.289C81.3188 174.185 81.3643 174.117 81.3773 174.084C81.4945 173.947 81.5629 173.801 81.5824 173.645L81.7191 173.527C81.7712 173.371 81.8103 173.186 81.8363 172.971C81.8624 172.756 81.8884 172.593 81.9145 172.482L82.1391 172.268C82.1195 172.255 82.0935 172.222 82.0609 172.17C82.0349 172.118 82.0089 172.082 81.9828 172.062C82.0414 171.893 82.0805 171.701 82.1 171.486C82.113 171.434 82.1195 171.327 82.1195 171.164V170.305C82.1326 170.116 82.1423 169.787 82.1488 169.318C82.1619 168.85 82.1781 168.485 82.1977 168.225C82.2172 167.99 82.2172 167.756 82.1977 167.521C82.2497 167.417 82.2758 167.245 82.2758 167.004C82.2758 166.9 82.2693 166.753 82.2563 166.564C82.2432 166.376 82.2367 166.236 82.2367 166.145C82.2367 166.021 82.24 165.848 82.2465 165.627C82.253 165.406 82.2563 165.24 82.2563 165.129C82.2628 165.116 82.2335 165.018 82.1684 164.836C82.1033 164.654 82.0349 164.465 81.9633 164.27C81.8982 164.074 81.8624 163.96 81.8559 163.928V163.908C81.8559 163.798 81.8689 163.723 81.8949 163.684C81.934 163.632 81.9535 163.547 81.9535 163.43V163.244C81.9926 163.205 82.1293 163.169 82.3637 163.137C82.6046 163.098 82.7348 163.055 82.7543 163.01L83.3012 163.547C83.3923 163.71 83.5453 163.902 83.7602 164.123C83.975 164.338 84.1736 164.523 84.3559 164.68C84.5447 164.836 84.7725 165.021 85.0395 165.236C85.098 165.282 85.1436 165.318 85.1762 165.344C85.2283 165.376 85.2543 165.516 85.2543 165.764C85.4822 165.861 85.6156 165.936 85.6547 165.988C85.7198 166.073 85.837 166.184 86.0063 166.32C86.182 166.451 86.3057 166.558 86.3773 166.643C86.4034 166.669 86.4327 166.714 86.4652 166.779C86.4978 166.844 86.5206 166.887 86.5336 166.906C87.0284 167.473 87.5036 167.938 87.9594 168.303C88.1417 168.452 88.4802 168.771 88.975 169.26C89.4698 169.748 89.779 170.038 89.9027 170.129C89.9027 170.07 89.8897 169.979 89.8637 169.855C89.8441 169.732 89.8344 169.641 89.8344 169.582C89.8344 169.504 89.8409 169.354 89.8539 169.133C89.8669 168.911 89.8734 168.762 89.8734 168.684C89.8734 168.592 89.8507 168.462 89.8051 168.293C89.7595 168.124 89.7367 167.993 89.7367 167.902C89.7367 167.798 89.7465 167.648 89.766 167.453C89.7855 167.258 89.7953 167.108 89.7953 167.004V166.242C89.7953 165.695 89.7628 165.223 89.6977 164.826L89.9223 164.543L89.6 164.387L89.4145 164.006L89.2582 163.869C89.2191 163.798 89.154 163.736 89.0629 163.684C88.9717 163.625 88.9229 163.553 88.9164 163.469C88.9945 163.469 89.115 163.472 89.2777 163.479C89.4405 163.485 89.5609 163.488 89.6391 163.488H90.0199C90.1697 163.488 90.2901 163.475 90.3813 163.449C90.4984 163.462 90.6905 163.469 90.9574 163.469C91.1592 163.469 91.2927 163.449 91.3578 163.41C91.3904 163.404 91.475 163.391 91.6117 163.371C91.7484 163.352 91.8559 163.342 91.934 163.342C91.96 163.342 92.0479 163.358 92.1977 163.391C92.3539 163.417 92.4483 163.436 92.4809 163.449C92.3181 163.534 92.1781 163.661 92.0609 163.83C91.8721 164.064 91.7484 164.266 91.6898 164.436C91.6313 164.605 91.602 164.829 91.602 165.109C91.602 165.415 91.5954 165.62 91.5824 165.725L91.3773 165.93L91.5824 166.066C91.5629 166.125 91.5531 166.226 91.5531 166.369C91.5531 166.512 91.5727 166.734 91.6117 167.033C91.6573 167.326 91.6801 167.551 91.6801 167.707C91.6801 167.915 91.6573 168.221 91.6117 168.625C91.5727 169.029 91.5531 169.335 91.5531 169.543C91.5531 169.621 91.5076 169.761 91.4164 169.963C91.5271 170.373 91.5824 170.633 91.5824 170.744C91.5824 170.972 91.6052 171.145 91.6508 171.262C91.6964 171.372 91.7191 171.542 91.7191 171.77C91.7191 171.835 91.7257 171.929 91.7387 172.053C91.7517 172.17 91.7582 172.261 91.7582 172.326C91.7582 172.424 91.7973 172.658 91.8754 173.029C91.96 173.4 92.0023 173.638 92.0023 173.742L92.0805 173.85C92.0544 173.915 91.9405 174.064 91.7387 174.299C91.5434 174.533 91.4164 174.67 91.3578 174.709ZM103.418 174.562H103.32C102.285 174.562 101.523 174.478 101.035 174.309L100.879 174.426C100.8 174.387 100.686 174.367 100.537 174.367C100.452 174.367 100.341 174.374 100.205 174.387C100.068 174.4 99.9801 174.406 99.941 174.406C100.494 174.042 100.859 173.589 101.035 173.049L101.298 172.922C101.285 172.876 101.23 172.805 101.132 172.707C101.152 172.648 101.194 172.375 101.259 171.887L101.338 171.75L101.279 171.584L101.318 171.525C101.422 170.581 101.481 169.888 101.494 169.445L101.679 169.162L101.513 169.025C101.572 168.706 101.601 168.381 101.601 168.049C101.601 167.886 101.591 167.648 101.572 167.336C101.559 167.023 101.552 166.786 101.552 166.623C101.552 166.311 101.582 166.066 101.64 165.891C101.634 165.839 101.608 165.721 101.562 165.539C101.517 165.357 101.494 165.214 101.494 165.109C101.494 165.064 101.5 164.995 101.513 164.904C101.526 164.807 101.533 164.735 101.533 164.689C101.533 164.553 101.507 164.344 101.455 164.064C101.403 163.785 101.377 163.573 101.377 163.43C101.377 163.371 101.386 163.28 101.406 163.156C101.425 163.033 101.435 162.941 101.435 162.883C101.435 162.818 101.364 162.785 101.22 162.785C101.005 162.785 100.696 162.831 100.293 162.922C99.8954 163.007 99.622 163.055 99.4723 163.068C99.4788 163.049 99.5439 162.873 99.6676 162.541C99.7978 162.202 99.9085 161.978 99.9996 161.867L99.8727 161.643C99.9378 161.519 100.071 161.32 100.273 161.047C100.475 160.773 100.608 160.552 100.673 160.383C100.804 160.422 101.071 160.48 101.474 160.559C101.878 160.63 102.138 160.666 102.255 160.666C102.347 160.666 102.49 160.656 102.685 160.637C102.88 160.617 103.024 160.607 103.115 160.607C103.226 160.607 103.379 160.64 103.574 160.705C103.769 160.77 103.916 160.803 104.013 160.803C104.052 160.803 104.098 160.773 104.15 160.715C104.209 160.656 104.257 160.627 104.296 160.627C104.661 160.627 105.211 160.598 105.947 160.539C106.683 160.474 107.239 160.441 107.617 160.441C107.838 160.441 108.167 160.454 108.603 160.48C109.046 160.5 109.378 160.51 109.599 160.51C109.71 160.51 109.811 160.503 109.902 160.49C110 160.471 110.078 160.451 110.136 160.432C110.195 160.412 110.276 160.383 110.38 160.344C110.491 160.305 110.582 160.272 110.654 160.246V160.344C110.654 160.559 110.569 160.874 110.4 161.291C110.237 161.708 110.143 162.007 110.117 162.189C110.11 162.235 110.026 162.391 109.863 162.658C109.707 162.925 109.632 163.081 109.638 163.127C109.515 163.186 109.433 163.231 109.394 163.264C109.29 163.049 109.01 162.886 108.554 162.775C108.099 162.665 107.727 162.629 107.441 162.668C107.402 162.655 107.33 162.609 107.226 162.531C107.122 162.447 107.044 162.404 106.992 162.404C106.927 162.404 106.836 162.437 106.718 162.502C106.608 162.561 106.52 162.59 106.455 162.59C106.364 162.59 106.233 162.574 106.064 162.541C105.895 162.502 105.765 162.482 105.673 162.482C105.472 162.482 105.146 162.535 104.697 162.639C104.248 162.736 103.899 162.772 103.652 162.746C103.671 162.805 103.681 162.88 103.681 162.971C103.681 163.075 103.655 163.228 103.603 163.43C103.551 163.625 103.528 163.778 103.535 163.889L103.339 164.084L103.593 164.328C103.606 164.393 103.613 164.484 103.613 164.602C103.613 164.66 103.61 164.755 103.603 164.885C103.597 165.015 103.593 165.109 103.593 165.168C103.593 165.259 103.606 165.386 103.632 165.549C103.665 165.712 103.681 165.839 103.681 165.93L103.74 165.949L103.916 165.803V165.744C103.955 165.731 103.994 165.725 104.033 165.725C104.078 165.725 104.124 165.728 104.17 165.734C104.215 165.741 104.251 165.744 104.277 165.744C104.388 165.744 104.589 165.738 104.882 165.725C105.175 165.705 105.4 165.699 105.556 165.705L105.595 165.666C105.745 165.653 105.966 165.637 106.259 165.617C106.552 165.598 106.77 165.581 106.914 165.568V165.588C107.2 165.588 107.461 165.562 107.695 165.51C107.871 165.549 108.05 165.568 108.232 165.568L108.32 165.607L108.379 165.549C108.483 165.549 108.561 165.542 108.613 165.529C108.619 165.549 108.626 165.581 108.632 165.627C108.639 165.673 108.645 165.705 108.652 165.725C108.652 165.738 108.649 165.754 108.642 165.773C108.636 165.793 108.632 165.809 108.632 165.822C108.632 165.946 108.681 166.154 108.779 166.447C108.779 166.558 108.802 166.76 108.847 167.053C108.899 167.346 108.916 167.57 108.896 167.727L108.935 167.766C108.909 167.824 108.883 167.899 108.857 167.99C108.245 167.587 107.793 167.385 107.5 167.385L107.392 167.043L107.158 167.385H107.099H106.494C106.396 167.32 106.263 167.287 106.093 167.287L105.898 167.365C105.879 167.365 105.846 167.362 105.8 167.355C105.761 167.349 105.732 167.346 105.713 167.346C105.634 167.346 105.514 167.359 105.351 167.385C105.195 167.411 105.071 167.424 104.98 167.424L104.873 167.346L104.775 167.463H104.296C104.231 167.495 104.15 167.525 104.052 167.551C103.961 167.57 103.883 167.596 103.818 167.629C103.753 167.661 103.691 167.72 103.632 167.805L103.72 167.941L103.759 168.225L103.818 168.322C103.818 168.329 103.811 168.352 103.798 168.391C103.785 168.423 103.779 168.443 103.779 168.449C103.779 168.768 103.818 169.234 103.896 169.846L103.838 169.943V170.363C103.838 170.552 103.857 170.76 103.896 170.988C103.857 171.008 103.815 171.06 103.769 171.145C103.73 171.223 103.701 171.271 103.681 171.291C103.701 171.304 103.737 171.333 103.789 171.379C103.841 171.424 103.883 171.454 103.916 171.467C103.916 171.74 103.977 172.108 104.101 172.57C104.225 173.026 104.355 173.378 104.492 173.625L104.599 173.703L104.56 173.762C104.593 173.794 104.629 173.84 104.668 173.898C104.713 173.951 104.755 173.996 104.795 174.035C104.834 174.068 104.882 174.097 104.941 174.123C105.019 174.214 105.13 174.309 105.273 174.406C105.175 174.406 105.029 174.41 104.834 174.416C104.638 174.423 104.492 174.426 104.394 174.426C104.27 174.374 104.124 174.348 103.955 174.348C103.864 174.348 103.737 174.357 103.574 174.377C103.411 174.396 103.284 174.406 103.193 174.406L103.418 174.562ZM122.958 174.445C122.88 174.458 122.766 174.465 122.616 174.465C122.434 174.465 122.255 174.445 122.079 174.406C122.099 174.413 122.092 174.419 122.06 174.426C121.923 174.491 121.855 174.523 121.855 174.523C121.822 174.523 121.682 174.517 121.435 174.504C121.194 174.491 121.015 174.484 120.898 174.484C120.767 174.484 120.696 174.491 120.683 174.504C120.637 174.504 120.582 174.478 120.517 174.426C120.458 174.374 120.426 174.348 120.419 174.348C120.406 174.348 120.377 174.37 120.331 174.416C120.286 174.462 120.214 174.484 120.116 174.484C120.012 174.484 119.866 174.497 119.677 174.523C119.488 174.549 119.342 174.562 119.238 174.562H118.681C118.707 174.536 118.736 174.497 118.769 174.445C118.801 174.393 118.84 174.292 118.886 174.143C118.932 173.993 118.941 173.846 118.915 173.703C118.759 173.56 118.681 173.433 118.681 173.322C118.681 173.283 118.694 173.247 118.72 173.215C118.746 173.176 118.759 173.153 118.759 173.146C118.759 173.094 118.639 173.036 118.398 172.971C118.313 172.886 118.238 172.782 118.173 172.658C118.108 172.535 118.036 172.43 117.958 172.346C117.952 172.333 117.958 172.303 117.978 172.258C118.004 172.206 118.017 172.17 118.017 172.15C118.017 172.124 117.994 172.105 117.948 172.092C117.909 172.072 117.861 172.062 117.802 172.062C117.75 172.056 117.721 172.049 117.714 172.043C117.688 171.984 117.532 171.789 117.245 171.457C116.959 171.125 116.764 170.907 116.659 170.803C116.614 170.673 116.506 170.503 116.337 170.295C116.174 170.08 116.021 169.901 115.878 169.758L115.663 169.543C115.637 169.523 115.588 169.494 115.517 169.455C115.445 169.41 115.393 169.374 115.361 169.348C115.328 169.322 115.295 169.283 115.263 169.23C115.23 169.178 115.214 169.123 115.214 169.064V168.762C115.279 168.762 115.39 168.749 115.546 168.723C115.702 168.69 115.8 168.671 115.839 168.664C115.891 168.677 115.979 168.684 116.103 168.684C116.246 168.684 116.389 168.664 116.532 168.625C116.676 168.586 116.835 168.531 117.011 168.459C117.193 168.381 117.33 168.329 117.421 168.303L117.675 168.449L117.743 168.186C117.926 168.081 118.127 167.922 118.349 167.707C118.577 167.492 118.707 167.313 118.739 167.17C118.798 167.144 118.886 167.089 119.003 167.004C118.892 166.939 118.837 166.854 118.837 166.75V166.564C118.837 166.005 118.593 165.542 118.105 165.178C117.616 164.813 117.073 164.631 116.474 164.631C116.344 164.631 116.103 164.657 115.751 164.709C115.406 164.755 115.142 164.768 114.96 164.748L114.794 164.729C114.69 165.139 114.638 165.712 114.638 166.447C114.677 166.525 114.696 166.659 114.696 166.848C114.696 167.336 114.638 167.762 114.521 168.127L114.716 168.283C114.716 168.446 114.739 168.752 114.784 169.201C114.83 169.65 114.869 169.911 114.902 169.982L114.775 170.07C114.846 170.142 114.882 170.295 114.882 170.529C114.882 170.575 114.879 170.65 114.872 170.754C114.866 170.852 114.863 170.923 114.863 170.969C114.863 171.112 114.895 171.232 114.96 171.33C114.96 171.402 114.97 171.509 114.989 171.652C115.015 171.796 115.032 171.887 115.038 171.926C115.025 171.945 114.999 171.978 114.96 172.023C114.928 172.069 114.908 172.105 114.902 172.131L115.116 172.326C115.142 172.424 115.172 172.577 115.204 172.785C115.243 172.993 115.276 173.153 115.302 173.264C115.335 173.374 115.39 173.505 115.468 173.654C115.553 173.804 115.657 173.934 115.78 174.045C115.826 174.084 115.898 174.162 115.995 174.279C116.093 174.39 116.174 174.471 116.239 174.523H116.083C115.953 174.523 115.771 174.51 115.536 174.484C115.406 174.536 115.042 174.562 114.443 174.562H113.622C113.297 174.562 113.082 174.569 112.978 174.582C112.984 174.576 112.971 174.562 112.939 174.543C112.913 174.523 112.883 174.504 112.851 174.484L112.802 174.465V174.445C112.678 174.445 112.499 174.455 112.265 174.475C112.03 174.494 111.855 174.504 111.738 174.504C111.705 174.504 111.656 174.501 111.591 174.494C111.532 174.488 111.487 174.484 111.454 174.484C111.656 174.367 111.812 174.273 111.923 174.201C112.04 174.123 112.161 174.012 112.284 173.869C112.408 173.726 112.493 173.573 112.538 173.41L112.821 173.205L112.597 173.01L112.616 172.727C112.714 172.596 112.763 172.417 112.763 172.189C112.763 172.066 112.74 171.913 112.695 171.73C112.805 171.574 112.861 170.985 112.861 169.963C112.861 169.846 112.848 169.676 112.821 169.455C112.795 169.234 112.782 169.071 112.782 168.967C112.782 168.928 112.812 168.876 112.87 168.811C112.935 168.739 112.971 168.684 112.978 168.645V168.625C112.978 168.586 112.955 168.527 112.909 168.449C112.864 168.365 112.841 168.303 112.841 168.264C112.841 168.114 112.835 167.889 112.821 167.59C112.808 167.29 112.802 167.062 112.802 166.906C112.919 166.724 112.984 166.597 112.997 166.525C112.926 166.337 112.861 166.07 112.802 165.725C112.743 165.373 112.714 165.093 112.714 164.885C112.649 164.885 112.577 164.813 112.499 164.67C112.421 164.527 112.363 164.383 112.323 164.24L112.255 164.025L111.962 163.986L111.454 163.566L111.503 163.43C111.568 163.443 111.786 163.43 112.157 163.391C112.529 163.345 112.776 163.322 112.9 163.322C112.991 163.322 113.049 163.329 113.075 163.342C113.199 163.342 113.414 163.312 113.72 163.254C114.026 163.195 114.244 163.166 114.374 163.166C114.426 163.166 114.521 163.234 114.657 163.371C114.664 163.365 114.687 163.345 114.726 163.312C114.765 163.28 114.801 163.254 114.833 163.234C114.866 163.215 114.895 163.205 114.921 163.205C115.077 163.205 115.318 163.192 115.644 163.166C115.969 163.14 116.213 163.127 116.376 163.127C116.435 163.127 116.526 163.137 116.65 163.156C116.773 163.176 116.864 163.186 116.923 163.186C116.995 163.186 117.109 163.182 117.265 163.176C117.428 163.169 117.551 163.166 117.636 163.166C118.079 163.166 118.414 163.234 118.642 163.371L118.7 163.303C118.779 163.329 118.892 163.361 119.042 163.4C119.192 163.433 119.303 163.462 119.374 163.488C119.452 163.514 119.527 163.55 119.599 163.596C119.677 163.635 119.755 163.69 119.833 163.762C119.911 163.833 119.973 163.892 120.019 163.938C120.064 163.983 120.129 164.055 120.214 164.152C120.299 164.243 120.354 164.302 120.38 164.328H120.439C120.517 164.439 120.605 164.579 120.702 164.748L120.497 165.07C120.51 165.103 120.562 165.126 120.654 165.139C120.745 165.152 120.8 165.174 120.82 165.207L120.8 165.344C120.852 165.474 120.878 165.796 120.878 166.311C120.878 166.402 120.868 166.493 120.849 166.584C120.829 166.669 120.803 166.766 120.771 166.877C120.738 166.981 120.715 167.066 120.702 167.131C120.67 167.196 120.614 167.313 120.536 167.482C120.465 167.652 120.4 167.779 120.341 167.863C120.289 167.935 120.195 168.046 120.058 168.195C119.928 168.345 119.833 168.462 119.775 168.547C119.723 168.573 119.625 168.586 119.482 168.586H119.335C119.264 168.801 119.211 168.928 119.179 168.967C119.153 168.973 119.006 169.055 118.739 169.211C118.505 169.348 118.173 169.452 117.743 169.523C118.323 170.064 118.681 170.412 118.818 170.568L118.876 170.822C118.961 170.933 119.062 171.001 119.179 171.027C119.192 171.04 119.205 171.066 119.218 171.105C119.231 171.145 119.244 171.171 119.257 171.184V171.203C119.407 171.372 119.589 171.555 119.804 171.75C120.019 171.945 120.185 172.089 120.302 172.18C120.419 172.271 120.624 172.427 120.917 172.648L120.937 172.766C120.95 172.779 120.96 172.824 120.966 172.902C120.973 172.974 120.982 173.016 120.995 173.029C121.041 173.068 121.129 173.107 121.259 173.146C121.389 173.186 121.477 173.238 121.523 173.303C121.718 173.4 121.835 173.456 121.874 173.469C122.141 173.898 122.502 174.224 122.958 174.445ZM128.358 174.787C128.104 174.787 127.736 174.774 127.255 174.748C126.949 174.585 126.711 174.517 126.542 174.543C126.483 174.51 126.294 174.419 125.975 174.27C125.663 174.12 125.412 173.986 125.223 173.869C125.035 173.752 124.872 173.625 124.735 173.488C124.638 173.384 124.488 173.238 124.286 173.049C124.084 172.854 123.934 172.707 123.837 172.609C123.746 172.512 123.628 172.378 123.485 172.209C123.348 172.033 123.248 171.877 123.182 171.74C123.124 171.597 123.068 171.424 123.016 171.223C122.964 171.021 122.938 170.809 122.938 170.588C122.906 170.497 122.876 170.37 122.85 170.207C122.824 170.038 122.798 169.917 122.772 169.846L122.753 169.904C122.772 169.755 122.789 169.423 122.802 168.908C122.821 168.394 122.873 167.987 122.958 167.688L123.28 167.502L123.095 167.209C123.212 166.851 123.365 166.535 123.554 166.262C123.677 166.079 123.759 165.907 123.798 165.744C123.921 165.627 124.081 165.445 124.276 165.197C124.478 164.95 124.68 164.738 124.882 164.562C125.09 164.387 125.354 164.221 125.673 164.064C126.688 163.57 127.57 163.322 128.319 163.322C128.573 163.322 129.172 163.384 130.116 163.508C130.149 163.527 130.181 163.56 130.214 163.605C130.253 163.645 130.282 163.68 130.302 163.713L130.321 163.762C130.484 163.723 130.624 163.697 130.741 163.684C130.813 163.723 130.943 163.791 131.132 163.889C131.32 163.986 131.457 164.061 131.542 164.113C131.633 164.165 131.747 164.24 131.884 164.338C132.02 164.429 132.144 164.527 132.255 164.631L132.499 164.846C133.384 165.796 133.817 166.796 133.798 167.844C133.798 167.863 133.817 167.984 133.856 168.205C133.902 168.426 133.928 168.547 133.934 168.566C133.908 168.729 133.895 168.977 133.895 169.309C133.876 170.428 133.622 171.395 133.134 172.209C133.108 172.248 133.033 172.281 132.909 172.307C132.792 172.333 132.727 172.378 132.714 172.443C132.675 172.476 132.658 172.541 132.665 172.639C132.678 172.73 132.675 172.798 132.655 172.844C132.388 173.195 132.017 173.563 131.542 173.947C131.49 173.986 131.438 174.019 131.386 174.045C131.34 174.064 131.285 174.087 131.22 174.113C131.154 174.133 131.099 174.156 131.054 174.182C130.357 174.514 129.524 174.689 128.554 174.709L128.593 174.768C128.54 174.781 128.462 174.787 128.358 174.787ZM128.456 173.01C128.619 173.01 128.713 173.003 128.739 172.99L128.661 172.863C129.253 172.798 129.67 172.717 129.911 172.619C130.152 172.515 130.406 172.277 130.673 171.906L130.975 171.867L130.878 171.584C130.91 171.525 130.985 171.392 131.102 171.184C131.226 170.975 131.311 170.822 131.356 170.725C131.408 170.62 131.46 170.484 131.513 170.314C131.571 170.139 131.6 169.976 131.6 169.826C131.6 169.715 131.62 169.507 131.659 169.201C131.698 168.895 131.718 168.664 131.718 168.508C131.718 168.371 131.711 168.27 131.698 168.205C131.692 168.16 131.672 168.094 131.639 168.01C131.607 167.919 131.587 167.85 131.581 167.805V167.746C131.581 167.694 131.591 167.629 131.61 167.551C131.636 167.466 131.662 167.398 131.688 167.346L131.718 167.268C131.516 167.183 131.395 167.115 131.356 167.062C131.324 166.887 131.249 166.714 131.132 166.545C131.014 166.376 130.852 166.184 130.643 165.969C130.442 165.747 130.305 165.594 130.233 165.51H130.116C130.057 165.471 129.911 165.399 129.677 165.295C129.442 165.184 129.283 165.093 129.198 165.021C129.126 165.021 128.993 164.989 128.798 164.924C128.707 164.924 128.57 164.921 128.388 164.914C128.205 164.908 128.068 164.904 127.977 164.904C127.919 164.904 127.808 164.917 127.645 164.943C127.489 164.963 127.333 164.995 127.177 165.041C127.027 165.087 126.955 165.129 126.962 165.168C126.571 165.298 126.21 165.546 125.878 165.91C125.552 166.275 125.36 166.639 125.302 167.004H125.253V167.424C125.253 167.561 125.233 167.762 125.194 168.029C125.155 168.296 125.136 168.495 125.136 168.625C125.136 168.638 125.132 168.736 125.126 168.918C125.119 169.1 125.116 169.25 125.116 169.367C125.116 169.595 125.129 169.729 125.155 169.768C125.155 169.839 125.204 169.924 125.302 170.021C125.38 170.406 125.464 170.702 125.555 170.91C125.647 171.112 125.819 171.385 126.073 171.73C126.112 171.789 126.167 171.864 126.239 171.955C126.311 172.04 126.369 172.121 126.415 172.199C126.467 172.271 126.509 172.352 126.542 172.443H126.659C126.75 172.515 126.919 172.596 127.167 172.688C127.414 172.772 127.583 172.857 127.675 172.941C127.818 172.987 128.078 173.01 128.456 173.01ZM143.143 175.803C143.143 175.79 143.162 175.318 143.202 174.387C143.136 174.406 143.068 174.423 142.996 174.436C142.925 174.449 142.86 174.458 142.801 174.465C142.743 174.471 142.704 174.478 142.684 174.484C142.638 174.484 142.57 174.481 142.479 174.475C142.394 174.468 142.329 174.465 142.284 174.465C142.147 174.465 141.945 174.481 141.678 174.514C141.411 174.553 141.219 174.576 141.102 174.582H140.623C140.48 174.53 140.2 174.504 139.784 174.504C139.771 174.491 139.758 174.462 139.745 174.416C139.738 174.377 139.728 174.341 139.715 174.309C139.709 174.27 139.696 174.25 139.676 174.25C139.657 174.25 139.605 174.279 139.52 174.338C139.442 174.39 139.396 174.419 139.383 174.426C139.299 174.393 139.185 174.354 139.041 174.309C138.898 174.257 138.768 174.208 138.651 174.162C138.534 174.117 138.423 174.071 138.319 174.025C137.616 173.674 137.033 173.173 136.571 172.521C136.115 171.864 135.825 171.145 135.702 170.363C135.695 170.311 135.669 170.236 135.623 170.139C135.584 170.041 135.562 169.969 135.555 169.924C135.562 169.904 135.591 169.882 135.643 169.855C135.695 169.823 135.721 169.8 135.721 169.787C135.721 169.774 135.695 169.755 135.643 169.729C135.591 169.702 135.562 169.683 135.555 169.67C135.607 169.442 135.643 169.074 135.662 168.566C135.682 168.059 135.741 167.658 135.838 167.365L136.18 167.268L136.024 166.906C136.056 166.815 136.187 166.604 136.414 166.271C136.642 165.933 136.756 165.718 136.756 165.627C136.886 165.399 136.968 165.266 137 165.227C137.56 164.53 138.228 164.051 139.002 163.791C139.784 163.498 140.428 163.335 140.936 163.303C141.086 163.309 141.297 163.303 141.571 163.283C141.844 163.257 142.033 163.244 142.137 163.244C142.319 163.244 142.577 163.273 142.909 163.332C143.247 163.391 143.498 163.423 143.661 163.43C143.745 163.469 143.879 163.495 144.061 163.508C144.25 163.521 144.377 163.534 144.442 163.547L144.618 163.664L144.637 163.684V163.742C144.637 163.794 144.614 163.905 144.569 164.074C144.523 164.237 144.5 164.348 144.5 164.406C144.5 164.413 144.507 164.432 144.52 164.465C144.533 164.491 144.539 164.51 144.539 164.523C144.487 164.608 144.461 164.722 144.461 164.865C144.461 165.008 144.399 165.262 144.276 165.627C144.152 165.992 144.048 166.252 143.963 166.408L143.836 166.369C143.823 166.011 143.615 165.669 143.211 165.344C142.808 165.012 142.371 164.859 141.903 164.885L141.717 164.602L141.522 164.904C141.242 164.93 141.03 164.953 140.887 164.973C140.744 164.986 140.555 165.018 140.321 165.07C140.093 165.122 139.907 165.184 139.764 165.256C139.621 165.327 139.468 165.428 139.305 165.559C139.142 165.689 138.999 165.845 138.875 166.027C138.823 166.099 138.745 166.206 138.641 166.35C138.543 166.493 138.482 166.587 138.455 166.633C138.429 166.672 138.387 166.74 138.329 166.838C138.276 166.936 138.234 167.033 138.202 167.131C138.176 167.222 138.143 167.339 138.104 167.482C137.967 167.997 137.899 168.446 137.899 168.83C137.899 168.973 137.912 169.084 137.938 169.162C137.925 169.221 137.899 169.299 137.86 169.396C137.821 169.494 137.801 169.585 137.801 169.67C137.801 169.709 137.814 169.781 137.84 169.885V169.943C137.84 170.008 137.86 170.093 137.899 170.197C137.938 170.295 137.977 170.363 138.016 170.402C138.029 170.656 138.176 170.985 138.455 171.389C138.735 171.792 139.002 172.03 139.256 172.102C139.256 172.121 139.246 172.176 139.227 172.268C139.214 172.352 139.211 172.411 139.217 172.443L139.461 172.365C139.579 172.43 139.741 172.502 139.95 172.58C140.164 172.652 140.301 172.701 140.36 172.727C140.529 172.72 140.744 172.74 141.004 172.785C141.265 172.824 141.47 172.844 141.62 172.844C141.926 172.844 142.306 172.766 142.762 172.609C142.788 172.596 142.915 172.541 143.143 172.443C143.143 172.359 143.149 172.229 143.162 172.053C143.176 171.877 143.182 171.747 143.182 171.662V171.33L143.319 171.086L143.104 171.008C143.104 170.917 143.104 170.839 143.104 170.773C143.104 170.702 143.101 170.633 143.094 170.568C143.088 170.497 143.081 170.445 143.075 170.412C143.075 170.373 143.065 170.321 143.045 170.256C143.032 170.184 143.023 170.139 143.016 170.119C143.016 170.1 143 170.051 142.967 169.973C142.941 169.895 142.922 169.846 142.909 169.826C142.902 169.807 142.876 169.745 142.83 169.641C142.785 169.536 142.756 169.465 142.743 169.426C142.534 169.257 142.313 169.117 142.079 169.006C142.235 168.954 142.427 168.928 142.655 168.928C142.72 168.928 142.811 168.941 142.928 168.967C143.045 168.986 143.123 168.999 143.162 169.006C143.221 168.993 143.315 168.977 143.446 168.957C143.576 168.938 143.674 168.921 143.739 168.908C143.791 168.921 143.872 168.928 143.983 168.928C144.211 168.928 144.683 168.882 145.399 168.791C145.425 168.804 145.464 168.811 145.516 168.811C145.698 168.811 145.806 168.817 145.838 168.83L146.18 168.889C146.024 169.006 145.903 169.1 145.819 169.172C145.741 169.237 145.643 169.335 145.526 169.465C145.415 169.589 145.34 169.709 145.301 169.826L145.116 169.885L145.243 170.051L145.096 170.725C145.135 170.855 145.155 171.216 145.155 171.809L144.901 172.268L145.135 172.463L145.155 174.582L144.481 175.109L144.344 175.148L144.217 175.305C144.165 175.344 144.097 175.389 144.012 175.441C143.927 175.5 143.787 175.575 143.592 175.666C143.397 175.764 143.247 175.809 143.143 175.803Z" fill="black"/>
<defs>
<linearGradient id="paint0_linear_835_1672" x1="134.34" y1="205.709" x2="87.8936" y2="-12.5812" gradientUnits="userSpaceOnUse">
<stop stop-color="#FF4D55"/>
<stop offset="1" stop-color="#F4E8B0"/>
</linearGradient>
<linearGradient id="paint1_linear_835_1672" x1="134.34" y1="205.709" x2="87.8936" y2="-12.5812" gradientUnits="userSpaceOnUse">
<stop stop-color="#C55257"/>
<stop offset="1" stop-color="#D0C9A6"/>
</linearGradient>
<clipPath id="clip0_835_1672">
<rect width="130" height="149" fill="white" transform="translate(27.2539 31.8555)"/>
</clipPath>
</defs>
</svg>
