<svg width="248" height="309" viewBox="0 0 248 309" fill="none" xmlns="http://www.w3.org/2000/svg">
<mask id="path-1-inside-1_1008_19603" fill="white">
<path d="M51.0742 25.4307L61.6533 0H63.4961L71.3633 18.083L79.2305 0H216.297L223.689 16.7529L231.082 0H234.509C235.105 0 235.691 0.0433042 236.265 0.125L246.852 25.5723V296.222C246.852 303.038 241.325 308.564 234.509 308.564H188.758L177.028 281.128L165.312 308.53L155.794 285.651L146.262 308.564H29.4141L19.3457 285.991L10.4238 305.989L0 281.438V12.3428C0 5.52616 5.52616 0 12.3428 0H40.4951L51.0742 25.4307Z"/>
</mask>
<path d="M51.0742 25.4307L61.6533 0H63.4961L71.3633 18.083L79.2305 0H216.297L223.689 16.7529L231.082 0H234.509C235.105 0 235.691 0.0433042 236.265 0.125L246.852 25.5723V296.222C246.852 303.038 241.325 308.564 234.509 308.564H188.758L177.028 281.128L165.312 308.53L155.794 285.651L146.262 308.564H29.4141L19.3457 285.991L10.4238 305.989L0 281.438V12.3428C0 5.52616 5.52616 0 12.3428 0H40.4951L51.0742 25.4307Z" fill="white"/>
<path d="M51.0742 25.4307L47.6555 26.8529L51.0742 35.0711L54.493 26.8529L51.0742 25.4307ZM61.6533 0V-3.70277H59.1833L58.2346 -1.42219L61.6533 0ZM63.4961 0L66.8914 -1.47718L65.9232 -3.70277H63.4961V0ZM71.3633 18.083L67.9679 19.5602L71.3633 27.3645L74.7586 19.5602L71.3633 18.083ZM79.2305 0V-3.70277H76.8034L75.8351 -1.47718L79.2305 0ZM216.297 0L219.684 -1.49485L218.71 -3.70277H216.297V0ZM223.689 16.7529L220.302 18.2478L223.689 25.9247L227.077 18.2478L223.689 16.7529ZM231.082 0V-3.70277H228.669L227.694 -1.49485L231.082 0ZM236.265 0.125L239.683 -1.2973L238.874 -3.24353L236.787 -3.54077L236.265 0.125ZM246.852 25.5723H250.554V24.8328L250.27 24.15L246.852 25.5723ZM188.758 308.564L185.353 310.02L186.314 312.267H188.758V308.564ZM177.028 281.128L180.433 279.672L177.029 271.709L173.624 279.672L177.028 281.128ZM165.312 308.53L161.893 309.952L165.265 318.058L168.716 309.986L165.312 308.53ZM155.794 285.651L159.213 284.229L155.794 276.011L152.375 284.229L155.794 285.651ZM146.262 308.564V312.267H148.732L149.68 309.987L146.262 308.564ZM29.4141 308.564L26.0324 310.073L27.0112 312.267H29.4141V308.564ZM19.3457 285.991L22.7273 284.483L19.3461 276.902L15.9642 284.483L19.3457 285.991ZM10.4238 305.989L7.01552 307.436L10.3397 315.266L13.8053 307.498L10.4238 305.989ZM0 281.438H-3.70277V282.191L-3.40831 282.885L0 281.438ZM40.4951 0L43.9139 -1.42219L42.9652 -3.70277H40.4951V0ZM51.0742 25.4307L54.493 26.8529L65.0721 1.42219L61.6533 0L58.2346 -1.42219L47.6555 24.0085L51.0742 25.4307ZM61.6533 0V3.70277H63.4961V0V-3.70277H61.6533V0ZM63.4961 0L60.1007 1.47718L67.9679 19.5602L71.3633 18.083L74.7586 16.6058L66.8914 -1.47718L63.4961 0ZM71.3633 18.083L74.7586 19.5602L82.6258 1.47718L79.2305 0L75.8351 -1.47718L67.9679 16.6058L71.3633 18.083ZM79.2305 0V3.70277H216.297V0V-3.70277H79.2305V0ZM216.297 0L212.909 1.49485L220.302 18.2478L223.689 16.7529L227.077 15.2581L219.684 -1.49485L216.297 0ZM223.689 16.7529L227.077 18.2478L234.47 1.49485L231.082 0L227.694 -1.49485L220.302 15.2581L223.689 16.7529ZM231.082 0V3.70277H234.509V0V-3.70277H231.082V0ZM234.509 0V3.70277C234.925 3.70277 235.337 3.73301 235.743 3.79077L236.265 0.125L236.787 -3.54077C236.045 -3.6464 235.285 -3.70277 234.509 -3.70277V0ZM236.265 0.125L232.846 1.5473L243.433 26.9946L246.852 25.5723L250.27 24.15L239.683 -1.2973L236.265 0.125ZM246.852 25.5723H243.149V296.222H246.852H250.554V25.5723H246.852ZM246.852 296.222H243.149C243.149 300.993 239.28 304.862 234.509 304.862V308.564V312.267C243.37 312.267 250.554 305.083 250.554 296.222H246.852ZM234.509 308.564V304.862H188.758V308.564V312.267H234.509V308.564ZM188.758 308.564L192.162 307.109L180.433 279.672L177.028 281.128L173.624 282.583L185.353 310.02L188.758 308.564ZM177.028 281.128L173.624 279.672L161.907 307.075L165.312 308.53L168.716 309.986L180.433 282.584L177.028 281.128ZM165.312 308.53L168.73 307.108L159.213 284.229L155.794 285.651L152.375 287.074L161.893 309.952L165.312 308.53ZM155.794 285.651L152.375 284.229L142.843 307.142L146.262 308.564L149.68 309.987L159.213 287.074L155.794 285.651ZM146.262 308.564V304.862H29.4141V308.564V312.267H146.262V308.564ZM29.4141 308.564L32.7957 307.056L22.7273 284.483L19.3457 285.991L15.9641 287.5L26.0324 310.073L29.4141 308.564ZM19.3457 285.991L15.9642 284.483L7.04232 304.481L10.4238 305.989L13.8053 307.498L22.7272 287.5L19.3457 285.991ZM10.4238 305.989L13.8321 304.542L3.40831 279.99L0 281.438L-3.40831 282.885L7.01552 307.436L10.4238 305.989ZM0 281.438H3.70277V12.3428H0H-3.70277V281.438H0ZM0 12.3428H3.70277C3.70277 7.57114 7.57114 3.70277 12.3428 3.70277V0V-3.70277C3.48118 -3.70277 -3.70277 3.48118 -3.70277 12.3428H0ZM12.3428 0V3.70277H40.4951V0V-3.70277H12.3428V0ZM40.4951 0L37.0764 1.42219L47.6555 26.8529L51.0742 25.4307L54.493 24.0085L43.9139 -1.42219L40.4951 0Z" fill="#A2A2A2" mask="url(#path-1-inside-1_1008_19603)"/>
<mask id="path-3-inside-2_1008_19603" fill="white">
<path d="M51.0742 25.4307L61.6533 0H63.4961L71.3633 18.083L79.2305 0H216.297L223.689 16.7529L231.082 0H234.509C235.105 0 235.691 0.0433042 236.265 0.125L246.852 25.5723V296.222C246.852 303.038 241.325 308.564 234.509 308.564H188.758L177.028 281.128L165.312 308.53L155.794 285.651L146.262 308.564H29.4141L19.3457 285.991L10.4238 305.989L0 281.438V12.3428C0 5.52616 5.52616 0 12.3428 0H40.4951L51.0742 25.4307Z"/>
</mask>
<path d="M51.0742 25.4307L61.6533 0H63.4961L71.3633 18.083L79.2305 0H216.297L223.689 16.7529L231.082 0H234.509C235.105 0 235.691 0.0433042 236.265 0.125L246.852 25.5723V296.222C246.852 303.038 241.325 308.564 234.509 308.564H188.758L177.028 281.128L165.312 308.53L155.794 285.651L146.262 308.564H29.4141L19.3457 285.991L10.4238 305.989L0 281.438V12.3428C0 5.52616 5.52616 0 12.3428 0H40.4951L51.0742 25.4307Z" fill="white"/>
<path d="M51.0742 25.4307L47.6555 26.8529L51.0742 35.0711L54.493 26.8529L51.0742 25.4307ZM61.6533 0V-3.70277H59.1833L58.2346 -1.42219L61.6533 0ZM63.4961 0L66.8914 -1.47718L65.9232 -3.70277H63.4961V0ZM71.3633 18.083L67.9679 19.5602L71.3633 27.3645L74.7586 19.5602L71.3633 18.083ZM79.2305 0V-3.70277H76.8034L75.8351 -1.47718L79.2305 0ZM216.297 0L219.684 -1.49485L218.71 -3.70277H216.297V0ZM223.689 16.7529L220.302 18.2478L223.689 25.9247L227.077 18.2478L223.689 16.7529ZM231.082 0V-3.70277H228.669L227.694 -1.49485L231.082 0ZM236.265 0.125L239.683 -1.2973L238.874 -3.24353L236.787 -3.54077L236.265 0.125ZM246.852 25.5723H250.554V24.8328L250.27 24.15L246.852 25.5723ZM188.758 308.564L185.353 310.02L186.314 312.267H188.758V308.564ZM177.028 281.128L180.433 279.672L177.029 271.709L173.624 279.672L177.028 281.128ZM165.312 308.53L161.893 309.952L165.265 318.058L168.716 309.986L165.312 308.53ZM155.794 285.651L159.213 284.229L155.794 276.011L152.375 284.229L155.794 285.651ZM146.262 308.564V312.267H148.732L149.68 309.987L146.262 308.564ZM29.4141 308.564L26.0324 310.073L27.0112 312.267H29.4141V308.564ZM19.3457 285.991L22.7273 284.483L19.3461 276.902L15.9642 284.483L19.3457 285.991ZM10.4238 305.989L7.01552 307.436L10.3397 315.266L13.8053 307.498L10.4238 305.989ZM0 281.438H-3.70277V282.191L-3.40831 282.885L0 281.438ZM40.4951 0L43.9139 -1.42219L42.9652 -3.70277H40.4951V0ZM51.0742 25.4307L54.493 26.8529L65.0721 1.42219L61.6533 0L58.2346 -1.42219L47.6555 24.0085L51.0742 25.4307ZM61.6533 0V3.70277H63.4961V0V-3.70277H61.6533V0ZM63.4961 0L60.1007 1.47718L67.9679 19.5602L71.3633 18.083L74.7586 16.6058L66.8914 -1.47718L63.4961 0ZM71.3633 18.083L74.7586 19.5602L82.6258 1.47718L79.2305 0L75.8351 -1.47718L67.9679 16.6058L71.3633 18.083ZM79.2305 0V3.70277H216.297V0V-3.70277H79.2305V0ZM216.297 0L212.909 1.49485L220.302 18.2478L223.689 16.7529L227.077 15.2581L219.684 -1.49485L216.297 0ZM223.689 16.7529L227.077 18.2478L234.47 1.49485L231.082 0L227.694 -1.49485L220.302 15.2581L223.689 16.7529ZM231.082 0V3.70277H234.509V0V-3.70277H231.082V0ZM234.509 0V3.70277C234.925 3.70277 235.337 3.73301 235.743 3.79077L236.265 0.125L236.787 -3.54077C236.045 -3.6464 235.285 -3.70277 234.509 -3.70277V0ZM236.265 0.125L232.846 1.5473L243.433 26.9946L246.852 25.5723L250.27 24.15L239.683 -1.2973L236.265 0.125ZM246.852 25.5723H243.149V296.222H246.852H250.554V25.5723H246.852ZM246.852 296.222H243.149C243.149 300.993 239.28 304.862 234.509 304.862V308.564V312.267C243.37 312.267 250.554 305.083 250.554 296.222H246.852ZM234.509 308.564V304.862H188.758V308.564V312.267H234.509V308.564ZM188.758 308.564L192.162 307.109L180.433 279.672L177.028 281.128L173.624 282.583L185.353 310.02L188.758 308.564ZM177.028 281.128L173.624 279.672L161.907 307.075L165.312 308.53L168.716 309.986L180.433 282.584L177.028 281.128ZM165.312 308.53L168.73 307.108L159.213 284.229L155.794 285.651L152.375 287.074L161.893 309.952L165.312 308.53ZM155.794 285.651L152.375 284.229L142.843 307.142L146.262 308.564L149.68 309.987L159.213 287.074L155.794 285.651ZM146.262 308.564V304.862H29.4141V308.564V312.267H146.262V308.564ZM29.4141 308.564L32.7957 307.056L22.7273 284.483L19.3457 285.991L15.9641 287.5L26.0324 310.073L29.4141 308.564ZM19.3457 285.991L15.9642 284.483L7.04232 304.481L10.4238 305.989L13.8053 307.498L22.7272 287.5L19.3457 285.991ZM10.4238 305.989L13.8321 304.542L3.40831 279.99L0 281.438L-3.40831 282.885L7.01552 307.436L10.4238 305.989ZM0 281.438H3.70277V12.3428H0H-3.70277V281.438H0ZM0 12.3428H3.70277C3.70277 7.57114 7.57114 3.70277 12.3428 3.70277V0V-3.70277C3.48118 -3.70277 -3.70277 3.48118 -3.70277 12.3428H0ZM12.3428 0V3.70277H40.4951V0V-3.70277H12.3428V0ZM40.4951 0L37.0764 1.42219L47.6555 26.8529L51.0742 25.4307L54.493 24.0085L43.9139 -1.42219L40.4951 0Z" fill="#A2A2A2" mask="url(#path-3-inside-2_1008_19603)"/>
<mask id="path-5-inside-3_1008_19603" fill="white">
<path d="M51.1709 25.4307L61.7705 0H63.6191L71.501 18.083L79.3828 0H216.709L224.118 16.7578L231.527 0H234.981C235.57 0 236.15 0.0422941 236.717 0.12207L247.324 25.5703V296.222C247.324 303.038 241.798 308.564 234.981 308.564H189.12L177.366 281.124L165.627 308.528L156.092 285.651L146.541 308.564H29.4707L19.3828 285.991L10.4434 305.992L0 281.442V12.3428C0 5.52616 5.52616 0 12.3428 0H40.5713L51.1709 25.4307Z"/>
</mask>
<path d="M51.1709 25.4307L61.7705 0H63.6191L71.501 18.083L79.3828 0H216.709L224.118 16.7578L231.527 0H234.981C235.57 0 236.15 0.0422941 236.717 0.12207L247.324 25.5703V296.222C247.324 303.038 241.798 308.564 234.981 308.564H189.12L177.366 281.124L165.627 308.528L156.092 285.651L146.541 308.564H29.4707L19.3828 285.991L10.4434 305.992L0 281.442V12.3428C0 5.52616 5.52616 0 12.3428 0H40.5713L51.1709 25.4307Z" fill="#FBC25C"/>
<path d="M51.1709 25.4307L48.4018 26.5848L51.1709 33.2285L53.94 26.5848L51.1709 25.4307ZM61.7705 0V-3H59.7708L59.0014 -1.15417L61.7705 0ZM63.6191 0L66.3693 -1.19869L65.5841 -3H63.6191V0ZM71.501 18.083L68.7509 19.2817L71.501 25.5912L74.2511 19.2817L71.501 18.083ZM79.3828 0V-3H77.4178L76.6327 -1.19869L79.3828 0ZM216.709 0L219.453 -1.21312L218.663 -3H216.709V0ZM224.118 16.7578L221.374 17.9709L224.118 24.1767L226.862 17.9709L224.118 16.7578ZM231.527 0V-3H229.574L228.784 -1.21312L231.527 0ZM236.717 0.12207L239.486 -1.03215L238.828 -2.61042L237.135 -2.84867L236.717 0.12207ZM247.324 25.5703H250.324V24.9701L250.093 24.4161L247.324 25.5703ZM189.12 308.564L186.362 309.746L187.142 311.564H189.12V308.564ZM177.366 281.124L180.124 279.943L177.366 273.505L174.609 279.943L177.366 281.124ZM165.627 308.528L162.858 309.682L165.589 316.235L168.385 309.71L165.627 308.528ZM156.092 285.651L158.861 284.497L156.092 277.854L153.323 284.497L156.092 285.651ZM146.541 308.564V311.564H148.541L149.31 309.719L146.541 308.564ZM29.4707 308.564L26.7318 309.788L27.5254 311.564H29.4707V308.564ZM19.3828 285.991L22.1217 284.767L19.383 278.639L16.6439 284.767L19.3828 285.991ZM10.4434 305.992L7.68276 307.167L10.3754 313.496L13.1822 307.216L10.4434 305.992ZM0 281.442H-3V282.054L-2.7606 282.617L0 281.442ZM40.5713 0L43.3404 -1.15417L42.571 -3H40.5713V0ZM51.1709 25.4307L53.94 26.5848L64.5396 1.15417L61.7705 0L59.0014 -1.15417L48.4018 24.2765L51.1709 25.4307ZM61.7705 0V3H63.6191V0V-3H61.7705V0ZM63.6191 0L60.869 1.19869L68.7509 19.2817L71.501 18.083L74.2511 16.8843L66.3693 -1.19869L63.6191 0ZM71.501 18.083L74.2511 19.2817L82.1329 1.19869L79.3828 0L76.6327 -1.19869L68.7509 16.8843L71.501 18.083ZM79.3828 0V3H216.709V0V-3H79.3828V0ZM216.709 0L213.965 1.21312L221.374 17.9709L224.118 16.7578L226.862 15.5447L219.453 -1.21312L216.709 0ZM224.118 16.7578L226.862 17.9709L234.271 1.21312L231.527 0L228.784 -1.21312L221.374 15.5447L224.118 16.7578ZM231.527 0V3H234.981V0V-3H231.527V0ZM234.981 0V3C235.427 3 235.866 3.03196 236.299 3.09281L236.717 0.12207L237.135 -2.84867C236.433 -2.94737 235.714 -3 234.981 -3V0ZM236.717 0.12207L233.948 1.27629L244.555 26.7245L247.324 25.5703L250.093 24.4161L239.486 -1.03215L236.717 0.12207ZM247.324 25.5703H244.324V296.222H247.324H250.324V25.5703H247.324ZM247.324 296.222H244.324C244.324 301.381 240.141 305.564 234.981 305.564V308.564V311.564C243.455 311.564 250.324 304.695 250.324 296.222H247.324ZM234.981 308.564V305.564H189.12V308.564V311.564H234.981V308.564ZM189.12 308.564L191.878 307.383L180.124 279.943L177.366 281.124L174.609 282.305L186.362 309.746L189.12 308.564ZM177.366 281.124L174.609 279.943L162.869 307.347L165.627 308.528L168.385 309.71L180.124 282.305L177.366 281.124ZM165.627 308.528L168.396 307.374L158.861 284.497L156.092 285.651L153.323 286.806L162.858 309.682L165.627 308.528ZM156.092 285.651L153.323 284.497L143.772 307.41L146.541 308.564L149.31 309.719L158.861 286.806L156.092 285.651ZM146.541 308.564V305.564H29.4707V308.564V311.564H146.541V308.564ZM29.4707 308.564L32.2096 307.34L22.1217 284.767L19.3828 285.991L16.6439 287.215L26.7318 309.788L29.4707 308.564ZM19.3828 285.991L16.6439 284.767L7.70448 304.768L10.4434 305.992L13.1822 307.216L22.1217 287.215L19.3828 285.991ZM10.4434 305.992L13.204 304.818L2.7606 280.268L0 281.442L-2.7606 282.617L7.68276 307.167L10.4434 305.992ZM0 281.442H3V12.3428H0H-3V281.442H0ZM0 12.3428H3C3 7.18301 7.18301 3 12.3428 3V0V-3C3.86931 -3 -3 3.86931 -3 12.3428H0ZM12.3428 0V3H40.5713V0V-3H12.3428V0ZM40.5713 0L37.8022 1.15417L48.4018 26.5848L51.1709 25.4307L53.94 24.2765L43.3404 -1.15417L40.5713 0Z" fill="#E0A640" mask="url(#path-5-inside-3_1008_19603)"/>
<path fill-rule="evenodd" clip-rule="evenodd" d="M101.425 72.1556H145.425C150.453 72.1556 154.528 76.2314 154.528 81.2591V190.501C154.528 195.529 150.453 199.605 145.425 199.605H101.425C96.3971 199.605 92.3213 195.529 92.3213 190.501V81.2591C92.3213 76.2314 96.3971 72.1556 101.425 72.1556ZM89.2868 81.2591C89.2868 74.5555 94.7211 69.1211 101.425 69.1211H145.425C152.129 69.1211 157.563 74.5555 157.563 81.2591V104.018C158.401 104.018 159.08 104.697 159.08 105.535V117.673C159.08 118.511 158.401 119.19 157.563 119.19V190.501C157.563 197.205 152.129 202.639 145.425 202.639H101.425C94.7211 202.639 89.2868 197.205 89.2868 190.501V119.19C88.4488 119.19 87.7695 118.511 87.7695 117.673V108.57C87.7695 107.732 88.4488 107.052 89.2868 107.052V105.535C88.4488 105.535 87.7695 104.856 87.7695 104.018V97.9488C87.7695 97.1108 88.4488 96.4316 89.2868 96.4316V94.9143C88.4488 94.9143 87.7695 94.2351 87.7695 93.3971V90.3626C87.7695 89.5246 88.4488 88.8453 89.2868 88.8453V81.2591ZM115.08 75.1901C113.404 75.1901 112.046 76.5486 112.046 78.2246C112.046 79.9005 113.404 81.2591 115.08 81.2591H133.287C134.963 81.2591 136.321 79.9005 136.321 78.2246C136.321 76.5486 134.963 75.1901 133.287 75.1901H115.08Z" fill="#7E612E"/>
</svg>
