<svg width="43" height="54" viewBox="0 0 43 54" fill="none" xmlns="http://www.w3.org/2000/svg">
<path fill-rule="evenodd" clip-rule="evenodd" d="M11.6447 39.663L11.6447 53.1367L42.5205 26.5686L11.6447 0.000400543L11.6447 13.475C18.2737 14.3208 23.3924 19.8608 23.3924 26.569C23.3924 33.2772 18.2737 38.8172 11.6447 39.663Z" fill="#FBC25C"/>
<path fill-rule="evenodd" clip-rule="evenodd" d="M19.3126 26.6595C14.4351 25.0753 10.9176 20.5801 10.9176 15.2821C10.9176 15.1235 10.9208 14.9657 10.927 14.8086C5.03575 15.6852 0.521985 20.6567 0.521986 26.6583C0.521986 32.6598 5.03574 37.6312 10.927 38.5079C10.9208 38.3517 10.9177 38.1947 10.9177 38.037C10.9177 32.739 14.4352 28.2438 19.3126 26.6595Z" fill="#FBC25C"/>
</svg>
