<svg width="271" height="69" viewBox="0 0 271 69" fill="none" xmlns="http://www.w3.org/2000/svg">
<mask id="path-1-inside-1_1745_3491" fill="white">
<path d="M125.852 64.9326L123.518 68.3408L121.73 65.8467L119.472 69H25.9248L23.832 66.1191L21.7939 68.9258L19.0586 64.9326L16.2725 69H3.875C2.01104 69 0.5 67.489 0.5 65.625V3.375C0.500001 1.51104 2.01104 2.71805e-08 3.875 0H177.561L179.98 3.4375L182.364 0.0527344L184.3 2.87891L186.271 0H248.611L250.522 2.60156L252.336 0.132812L254.648 3.44141L257.055 0H267.125C268.989 0 270.5 1.51104 270.5 3.375V65.625C270.5 67.489 268.989 69 267.125 69H128.638L125.852 64.9326Z"/>
</mask>
<path d="M125.852 64.9326L123.518 68.3408L121.73 65.8467L119.472 69H25.9248L23.832 66.1191L21.7939 68.9258L19.0586 64.9326L16.2725 69H3.875C2.01104 69 0.5 67.489 0.5 65.625V3.375C0.500001 1.51104 2.01104 2.71805e-08 3.875 0H177.561L179.98 3.4375L182.364 0.0527344L184.3 2.87891L186.271 0H248.611L250.522 2.60156L252.336 0.132812L254.648 3.44141L257.055 0H267.125C268.989 0 270.5 1.51104 270.5 3.375V65.625C270.5 67.489 268.989 69 267.125 69H128.638L125.852 64.9326Z" fill="#CF4003"/>
<path d="M125.852 64.9326L126.78 64.2969L125.851 62.9417L124.923 64.297L125.852 64.9326ZM123.518 68.3408L122.603 68.9961L123.538 70.3014L124.446 68.9765L123.518 68.3408ZM121.73 65.8467L122.645 65.1914L121.73 63.915L120.816 65.1916L121.73 65.8467ZM119.472 69V70.125H120.05L120.386 69.6551L119.472 69ZM25.9248 69L25.0146 69.6612L25.3515 70.125H25.9248V69ZM23.832 66.1191L24.7422 65.4579L23.8319 64.2048L22.9217 65.4581L23.832 66.1191ZM21.7939 68.9258L20.8658 69.5616L21.7671 70.8773L22.7043 69.5868L21.7939 68.9258ZM19.0586 64.9326L19.9867 64.2968L19.0586 62.9419L18.1305 64.2969L19.0586 64.9326ZM16.2725 69V70.125H16.8655L17.2006 69.6358L16.2725 69ZM0.5 3.375L-0.625 3.375V3.375H0.5ZM3.875 0L3.875 -1.125H3.875L3.875 0ZM177.561 0L178.48 -0.647598L178.144 -1.125H177.561V0ZM179.98 3.4375L179.061 4.0851L179.98 5.39156L180.9 4.08528L179.98 3.4375ZM182.364 0.0527344L183.292 -0.582949L182.377 -1.91939L181.444 -0.595044L182.364 0.0527344ZM184.3 2.87891L183.372 3.51459L184.3 4.86987L185.228 3.51459L184.3 2.87891ZM186.271 0V-1.125H185.678L185.343 -0.635687L186.271 0ZM248.611 0L249.518 -0.666036L249.181 -1.125H248.611V0ZM250.522 2.60156L249.616 3.2676L250.522 4.50183L251.429 3.26758L250.522 2.60156ZM252.336 0.132812L253.258 -0.511675L252.359 -1.79843L251.429 -0.533202L252.336 0.132812ZM254.648 3.44141L253.726 4.08589L254.648 5.40492L255.57 4.08606L254.648 3.44141ZM257.055 0V-1.125H256.469L256.133 -0.644653L257.055 0ZM270.5 65.625L271.625 65.625V65.625H270.5ZM267.125 69L267.125 70.125H267.125L267.125 69ZM128.638 69L127.71 69.6358L128.045 70.125H128.638V69ZM125.852 64.9326L124.923 64.297L122.589 67.7052L123.518 68.3408L124.446 68.9765L126.78 65.5683L125.852 64.9326ZM123.518 68.3408L124.432 67.6856L122.645 65.1914L121.73 65.8467L120.816 66.5019L122.603 68.9961L123.518 68.3408ZM121.73 65.8467L120.816 65.1916L118.557 68.3449L119.472 69L120.386 69.6551L122.645 66.5018L121.73 65.8467ZM119.472 69V67.875H25.9248V69V70.125H119.472V69ZM25.9248 69L26.835 68.3388L24.7422 65.4579L23.832 66.1191L22.9218 66.7803L25.0146 69.6612L25.9248 69ZM23.832 66.1191L22.9217 65.4581L20.8836 68.2647L21.7939 68.9258L22.7043 69.5868L24.7423 66.7802L23.832 66.1191ZM21.7939 68.9258L22.7221 68.29L19.9867 64.2968L19.0586 64.9326L18.1305 65.5684L20.8658 69.5616L21.7939 68.9258ZM19.0586 64.9326L18.1305 64.2969L15.3443 68.3642L16.2725 69L17.2006 69.6358L19.9867 65.5684L19.0586 64.9326ZM16.2725 69V67.875H3.875V69V70.125H16.2725V69ZM3.875 69V67.875C2.63236 67.875 1.625 66.8676 1.625 65.625H0.5H-0.625C-0.625 68.1103 1.38972 70.125 3.875 70.125V69ZM0.5 65.625H1.625V3.375H0.5H-0.625V65.625H0.5ZM0.5 3.375L1.625 3.375C1.625 2.13236 2.63236 1.125 3.875 1.125L3.875 0L3.875 -1.125C1.38972 -1.125 -0.624999 0.88972 -0.625 3.375L0.5 3.375ZM3.875 0V1.125H177.561V0V-1.125H3.875V0ZM177.561 0L176.641 0.647598L179.061 4.0851L179.98 3.4375L180.9 2.7899L178.48 -0.647598L177.561 0ZM179.98 3.4375L180.9 4.08528L183.284 0.700513L182.364 0.0527344L181.444 -0.595044L179.061 2.78972L179.98 3.4375ZM182.364 0.0527344L181.436 0.688418L183.372 3.51459L184.3 2.87891L185.228 2.24322L183.292 -0.582949L182.364 0.0527344ZM184.3 2.87891L185.228 3.51459L187.2 0.635687L186.271 0L185.343 -0.635687L183.372 2.24322L184.3 2.87891ZM186.271 0V1.125H248.611V0V-1.125H186.271V0ZM248.611 0L247.705 0.666036L249.616 3.2676L250.522 2.60156L251.429 1.93553L249.518 -0.666036L248.611 0ZM250.522 2.60156L251.429 3.26758L253.243 0.798827L252.336 0.132812L251.429 -0.533202L249.616 1.93555L250.522 2.60156ZM252.336 0.132812L251.414 0.7773L253.726 4.08589L254.648 3.44141L255.571 2.79692L253.258 -0.511675L252.336 0.132812ZM254.648 3.44141L255.57 4.08606L257.977 0.644653L257.055 0L256.133 -0.644653L253.726 2.79675L254.648 3.44141ZM257.055 0V1.125H267.125V0V-1.125H257.055V0ZM267.125 0V1.125C268.368 1.125 269.375 2.13236 269.375 3.375H270.5H271.625C271.625 0.889719 269.61 -1.125 267.125 -1.125V0ZM270.5 3.375H269.375V65.625H270.5H271.625V3.375H270.5ZM270.5 65.625L269.375 65.625C269.375 66.8676 268.368 67.875 267.125 67.875L267.125 69L267.125 70.125C269.61 70.125 271.625 68.1103 271.625 65.625L270.5 65.625ZM267.125 69V67.875H128.638V69V70.125H267.125V69ZM128.638 69L129.566 68.3642L126.78 64.2969L125.852 64.9326L124.923 65.5684L127.71 69.6358L128.638 69Z" fill="#A73B0D" mask="url(#path-1-inside-1_1745_3491)"/>
</svg>
