<svg width="110" height="319" viewBox="0 0 110 319" fill="none" xmlns="http://www.w3.org/2000/svg">
<g clip-path="url(#clip0_1566_5414)">
<path d="M-6.77355 46.864L41.4745 61.3402L43.2545 61.6979L107.514 80.5869L109.814 62.2327L66.007 57.9081L109.114 50.7424L100.529 27.8108L63.7165 50.8768L94.0942 13.9042L69.9228 -2.4888L54.5942 49.0433L56.8416 -5.16624L32.6046 -2.52077L45.7355 49.3536L20.1343 6.27621L7.50892 19.5684L43.0901 53.302L-1.21862 33.0467L-6.77355 46.864Z" fill="url(#paint0_radial_1566_5414)"/>
<path d="M82.1494 80.5653C77.4515 83.8052 72.8167 91.3279 90.5583 96.1546C91.0345 96.2842 91.4085 95.6931 91.1279 95.2871C90.4679 94.3323 90.0632 93.4183 89.846 92.5653C89.19 89.9884 91.1494 89.0652 91.1494 87.0653C91.1494 84.3986 89.3494 79.3653 82.1494 80.5653Z" fill="#005B43"/>
<path d="M82.1494 80.5653C77.4515 83.8052 72.8167 91.3279 90.5583 96.1546C91.0345 96.2842 91.4085 95.6931 91.1279 95.2871C90.4679 94.3323 90.0632 93.4183 89.846 92.5653C89.19 89.9884 91.1494 89.0652 91.1494 87.0653C91.1494 84.3986 89.3494 79.3653 82.1494 80.5653Z" fill="#158E3E"/>
<path d="M13.6494 179.565C12.1494 179.565 4.64941 177.065 6.64941 166.065C15.0494 169.265 14.8161 176.399 13.6494 179.565Z" fill="#005B43"/>
<path d="M4.69725 275.565C7.53553 276.365 16.0454 276.053 19.9456 275.797H20.0667C20.3731 275.797 20.6075 275.524 20.5609 275.221L20.4601 274.565C16.3466 274.565 9.05775 272.706 6.48751 271.553V271.553C6.05412 271.359 5.43912 271.519 5.28977 271.97C4.825 273.373 4.69725 274.883 4.69725 275.565Z" fill="#8C8C83"/>
<path d="M4.69725 275.565C7.53553 276.365 16.0454 276.053 19.9456 275.797H20.0667C20.3731 275.797 20.6075 275.524 20.5609 275.221L20.4601 274.565C16.3466 274.565 9.05775 272.706 6.48751 271.553V271.553C6.05412 271.359 5.43912 271.519 5.28977 271.97C4.825 273.373 4.69725 274.883 4.69725 275.565Z" fill="black" fill-opacity="0.2"/>
<path d="M6.48751 271.553C9.05775 272.706 16.3466 274.565 20.4601 274.565C21.24 272.775 22.0894 271.15 22.8893 269.785C17.7394 269.879 7.64941 269.565 7.54449 268.565C7.2068 269.604 6.85464 270.602 6.48751 271.553Z" fill="#005B43"/>
<path d="M22.8893 269.785C23.5277 268.696 24.1345 267.773 24.6494 267.065C22.6494 267.065 13.2338 266.218 8.52603 265.295C6.42732 266.279 6.99721 267.885 7.54449 268.565C7.64941 269.565 17.7394 269.879 22.8893 269.785Z" fill="#8C8C83"/>
<path d="M22.8893 269.785C23.5277 268.696 24.1345 267.773 24.6494 267.065C22.6494 267.065 13.2338 266.218 8.52603 265.295C6.42732 266.279 6.99721 267.885 7.54449 268.565C7.64941 269.565 17.7394 269.879 22.8893 269.785Z" fill="black" fill-opacity="0.2"/>
<path d="M8.52603 265.295C13.2338 266.218 22.6494 267.065 24.6494 267.065H25.1969C25.4538 267.065 25.6689 266.871 25.6944 266.615L26.0967 262.592C26.1253 262.306 25.9074 262.055 25.6202 262.043L25.3836 262.033C20.6389 261.732 10.8494 261.074 9.64941 260.848H8.93278C8.69586 260.848 8.49147 261.014 8.44325 261.246L7.74607 264.6C7.6919 264.861 7.85135 265.118 8.10879 265.186L8.52603 265.295Z" fill="#8C8C83"/>
<path d="M35.4925 153.565C31.3782 154.565 22.7494 155.965 21.1494 153.565C20.1494 154.899 18.9494 157.965 22.1494 159.565C25.3494 161.165 31.5932 160.232 34.3151 159.565H35.4925L36.6494 153.565H35.4925Z" fill="#8C8C83"/>
<path d="M35.4925 153.565C31.0448 152.065 22.2494 148.865 22.6494 148.065C21.4827 148.899 19.5494 151.165 21.1494 153.565C22.7494 155.965 31.3782 154.565 35.4925 153.565Z" fill="#8C8C83"/>
<path d="M35.4925 153.565C31.0448 152.065 22.2494 148.865 22.6494 148.065C21.4827 148.899 19.5494 151.165 21.1494 153.565C22.7494 155.965 31.3782 154.565 35.4925 153.565Z" fill="black" fill-opacity="0.2"/>
<path d="M24.1494 137.565L22.6494 138.565V141.565V144.565C25.8329 145.232 33.3948 145.965 38.1747 143.565H39.1494L39.4145 142.902L40.1494 141.065L39.1494 140.565L35.4925 139.834L30.6462 138.865L27.6494 138.265L24.1494 137.565Z" fill="#8C8C83"/>
<path d="M24.1494 137.565L22.6494 138.565V141.565V144.565C25.8329 145.232 33.3948 145.965 38.1747 143.565H39.1494L39.4145 142.902L40.1494 141.065L39.1494 140.565L35.4925 139.834L30.6462 138.865L27.6494 138.265L24.1494 137.565Z" fill="black" fill-opacity="0.2"/>
<path d="M38.1747 143.565C33.6296 145.847 26.5691 145.296 23.1494 144.664C23.1494 145.33 23.0494 147.265 22.6494 148.065C22.2494 148.865 31.0448 152.065 35.4925 153.565C36.337 149.844 37.3309 146.296 38.1747 143.565Z" fill="#8C8C83"/>
<path d="M4.14941 276.565C4.98275 280.399 7.94941 289.465 13.1494 295.065C14.7494 300.265 13.8161 307.232 13.1494 310.065L18.6494 317.065C19.1494 311.899 19.6494 298.965 17.6494 288.565C17.241 284.277 18.3789 279.719 19.9456 275.797C16.0454 276.053 7.53553 276.365 4.69725 275.565C4.51762 275.909 4.33502 276.243 4.14941 276.565Z" fill="url(#paint1_linear_1566_5414)"/>
<path d="M27.8467 217.893C27.7356 217.359 27.8078 216.801 28.0892 216.334C31.1616 211.236 34.3712 206.134 36.067 203.475C36.4304 202.905 36.4827 202.194 36.2063 201.577L30.4326 188.697C30.2491 188.288 30.2084 187.833 30.313 187.397C31.3621 183.025 33.2701 173.531 33.6494 165.565C33.7385 163.694 33.9781 161.656 34.3151 159.565C31.5932 160.232 25.3494 161.165 22.1494 159.565C22.4827 162.232 21.6494 170.665 15.6494 183.065C11.7901 189.731 8.16152 195.346 6.31585 198.087C5.908 198.693 5.85242 199.471 6.17901 200.124L14.4273 216.621C14.5731 216.913 14.6458 217.23 14.6373 217.556C14.3714 227.755 13.0189 246.218 9.64941 260.848C10.8494 261.074 20.6389 261.732 25.3836 262.033C27.2887 248.312 29.6129 226.375 27.8467 217.893Z" fill="url(#paint2_linear_1566_5414)"/>
<path d="M53.1494 104.565C55.1494 98.9653 53.9827 96.8986 53.1494 96.5653C56.4827 94.0653 63.4494 87.3653 64.6494 80.5653C64.3632 80.1359 64.7898 78.5267 68.2088 75.2944C68.6088 74.9162 68.1891 74.1514 67.6542 74.2816C58.7531 76.4484 49.458 74.7841 45.6494 73.5653C41.8161 72.3986 33.2494 67.0653 29.6494 55.0653C26.0638 48.5459 20.685 47.118 17.1933 47.2637C16.3572 47.2986 16.1338 48.3066 16.7718 48.8481C20.6282 52.1206 26.1494 58.3177 26.1494 64.5652C26.1494 73.5653 35.1494 78.0652 33.6494 93.5652C32.4494 105.965 29.8161 109.732 28.6494 110.065C29.3165 110.828 29.9908 111.491 30.6462 112.065C32.7419 113.9 35.8005 115.311 36.6494 115.565C39.1959 116.221 41.085 116.63 42.4789 116.868C42.5298 116.751 42.5866 116.649 42.6494 116.565C42.6879 116.219 42.8418 115.713 43.1543 115.065C44.1955 112.908 46.9963 109.18 53.1494 104.565Z" fill="url(#paint3_linear_1566_5414)"/>
<path d="M22.1494 123.565C25.2402 129.59 26.4729 132.83 27.6494 138.265L30.6462 138.865C31.3032 134.269 31.0433 131.431 28.6494 125.565C31.9165 122.468 33.6728 120.216 36.6494 115.565C35.8005 115.311 32.7419 113.9 30.6462 112.065C27.6705 117.438 25.8602 120.108 22.1494 123.565Z" fill="#503C3C"/>
<path d="M22.1494 123.565C25.2402 129.59 26.4729 132.83 27.6494 138.265L30.6462 138.865C31.3032 134.269 31.0433 131.431 28.6494 125.565C31.9165 122.468 33.6728 120.216 36.6494 115.565C35.8005 115.311 32.7419 113.9 30.6462 112.065C27.6705 117.438 25.8602 120.108 22.1494 123.565Z" fill="#752929" fill-opacity="0.2"/>
<path d="M28.6494 125.565C31.0433 131.431 31.3032 134.269 30.6462 138.865C32.3608 133.744 33.8309 131.258 38.1747 128.065C36.8773 123.328 36.6007 120.58 36.6494 115.565C33.6728 120.216 31.9165 122.468 28.6494 125.565Z" fill="url(#paint4_linear_1566_5414)"/>
<path d="M35.4925 139.834C37.5506 136.316 38.9938 134.251 43.1543 130.065C42.521 126.433 41.557 118.999 42.4789 116.868C41.085 116.63 39.1959 116.221 36.6494 115.565C36.6007 120.58 36.8773 123.328 38.1747 128.065C33.8309 131.258 32.3608 133.744 30.6462 138.865L35.4925 139.834Z" fill="#503C3C"/>
<path d="M35.4925 139.834C37.5506 136.316 38.9938 134.251 43.1543 130.065C42.521 126.433 41.557 118.999 42.4789 116.868C41.085 116.63 39.1959 116.221 36.6494 115.565C36.6007 120.58 36.8773 123.328 38.1747 128.065C33.8309 131.258 32.3608 133.744 30.6462 138.865L35.4925 139.834Z" fill="#752929" fill-opacity="0.2"/>
<path d="M39.1494 140.565L46.4425 130.993C46.8793 130.42 46.9683 129.659 46.7359 128.977C45.818 126.281 44.8264 121.424 46.0186 117.018C45.6474 117.196 44.6809 117.245 42.4789 116.868C41.557 118.999 42.521 126.433 43.1543 130.065C38.9938 134.251 37.5506 136.316 35.4925 139.834L39.1494 140.565Z" fill="#351D1D"/>
<path d="M17.9467 122.563C17.4627 123.178 17.3736 124.014 17.7234 124.713L24.1494 137.565L27.6494 138.265C26.4729 132.83 25.2402 129.59 22.1494 123.565C25.8602 120.108 27.6705 117.438 30.6462 112.065C29.9908 111.491 29.3165 110.828 28.6494 110.065C28.3161 109.899 27.5494 109.365 27.1494 108.565C26.9649 108.196 26.4654 108.576 26.4941 109.353C26.3798 111.403 21.1671 118.476 17.9467 122.563Z" fill="#554040"/>
<path d="M17.9467 122.563C17.4627 123.178 17.3736 124.014 17.7234 124.713L24.1494 137.565L27.6494 138.265C26.4729 132.83 25.2402 129.59 22.1494 123.565C25.8602 120.108 27.6705 117.438 30.6462 112.065C29.9908 111.491 29.3165 110.828 28.6494 110.065C28.3161 109.899 27.5494 109.365 27.1494 108.565C26.9649 108.196 26.4654 108.576 26.4941 109.353C26.3798 111.403 21.1671 118.476 17.9467 122.563Z" fill="#351D1D"/>
<path d="M24.6494 267.065C24.1345 267.773 23.5277 268.696 22.8893 269.785M24.6494 267.065C22.6494 267.065 13.2338 266.218 8.52603 265.295M24.6494 267.065H25.1969C25.4538 267.065 25.6689 266.871 25.6944 266.615L26.0967 262.592C26.1253 262.306 25.9074 262.055 25.6202 262.043L25.3836 262.033M39.1494 140.565L46.4425 130.993C46.8793 130.42 46.9683 129.659 46.7359 128.977C45.818 126.281 44.8264 121.424 46.0186 117.018M39.1494 140.565L40.1494 141.065L39.4145 142.902L39.1494 143.565H38.1747M39.1494 140.565L35.4925 139.834M64.6494 80.5653C63.4494 87.3653 56.4827 94.0653 53.1494 96.5653C53.9827 96.8986 55.1494 98.9653 53.1494 104.565C46.9963 109.18 44.1955 112.908 43.1543 115.065M64.6494 80.5653C65.8494 73.7653 76.8161 77.732 82.1494 80.5653M64.6494 80.5653C64.3632 80.1359 64.7898 78.5267 68.2088 75.2944C68.6088 74.9162 68.1891 74.1514 67.6542 74.2816C58.7531 76.4484 49.458 74.7841 45.6494 73.5653C41.8161 72.3986 33.2494 67.0653 29.6494 55.0653C26.0638 48.5459 20.685 47.118 17.1933 47.2637C16.3572 47.2986 16.1338 48.3066 16.7718 48.8481C20.6282 52.1206 26.1494 58.3177 26.1494 64.5652C26.1494 73.5653 35.1494 78.0652 33.6494 93.5652C32.4494 105.965 29.8161 109.732 28.6494 110.065M82.1494 80.5653C77.4515 83.8052 72.8167 91.3279 90.5583 96.1546C91.0345 96.2842 91.4085 95.6931 91.1279 95.2871C90.4679 94.3323 90.0632 93.4183 89.846 92.5653C89.19 89.9884 91.1494 89.0652 91.1494 87.0653C91.1494 84.3986 89.3494 79.3653 82.1494 80.5653ZM82.1494 80.5653C83.4827 81.8986 86.1494 85.2652 86.1494 88.0652M28.6494 110.065C28.3161 109.899 27.5494 109.365 27.1494 108.565C26.9649 108.196 26.4654 108.576 26.4941 109.353C26.3798 111.403 21.1671 118.476 17.9467 122.563C17.4627 123.178 17.3736 124.014 17.7234 124.713L24.1494 137.565M28.6494 110.065C29.3165 110.828 29.9908 111.491 30.6462 112.065M24.1494 137.565L22.6494 138.565V141.565V144.565C25.8329 145.232 33.3948 145.965 38.1747 143.565M24.1494 137.565L27.6494 138.265M38.1747 143.565C37.3309 146.296 36.337 149.844 35.4925 153.565M38.1747 143.565C33.6296 145.847 26.5691 145.296 23.1494 144.664C23.1494 145.33 23.0494 147.265 22.6494 148.065M22.6494 148.065C22.2494 148.865 31.0448 152.065 35.4925 153.565M22.6494 148.065C21.4827 148.899 19.5494 151.165 21.1494 153.565M35.4925 153.565C31.3782 154.565 22.7494 155.965 21.1494 153.565M35.4925 153.565H36.6494L35.4925 159.565H34.3151M21.1494 153.565C20.1494 154.899 18.9494 157.965 22.1494 159.565M22.1494 159.565C25.3494 161.165 31.5932 160.232 34.3151 159.565M22.1494 159.565C22.4827 162.232 21.6494 170.665 15.6494 183.065M34.3151 159.565C33.9781 161.656 33.7385 163.694 33.6494 165.565C33.2701 173.531 31.3621 183.025 30.313 187.397C30.2084 187.833 30.2491 188.288 30.4326 188.697L36.2063 201.577C36.4827 202.194 36.4304 202.905 36.067 203.475C34.3712 206.134 31.1616 211.236 28.0892 216.334C27.8078 216.801 27.7356 217.359 27.8467 217.893C29.6129 226.375 27.2887 248.312 25.3836 262.033M15.6494 183.065C11.7901 189.731 8.16152 195.346 6.31585 198.087C5.908 198.693 5.85242 199.471 6.17901 200.124L14.4273 216.621C14.5731 216.913 14.6458 217.23 14.6373 217.556C14.3714 227.755 13.0189 246.218 9.64941 260.848M15.6494 183.065C15.4827 181.899 14.8494 179.565 13.6494 179.565M13.6494 179.565C12.1494 179.565 4.64941 177.065 6.64941 166.065C15.0494 169.265 14.8161 176.399 13.6494 179.565ZM13.6494 179.565L10.1494 173.065M36.6494 115.565C35.8005 115.311 32.7419 113.9 30.6462 112.065M36.6494 115.565C33.6728 120.216 31.9165 122.468 28.6494 125.565C31.0433 131.431 31.3032 134.269 30.6462 138.865M36.6494 115.565C36.6007 120.58 36.8773 123.328 38.1747 128.065C33.8309 131.258 32.3608 133.744 30.6462 138.865M36.6494 115.565C39.1959 116.221 41.085 116.63 42.4789 116.868M46.1494 116.565L43.1543 115.065M46.1494 116.565C46.2479 116.713 46.273 116.896 46.0186 117.018M46.1494 116.565C46.1032 116.716 46.0596 116.866 46.0186 117.018M43.1543 115.065C42.8418 115.713 42.6879 116.219 42.6494 116.565C42.5866 116.649 42.5298 116.751 42.4789 116.868M19.9456 275.797C18.3789 279.719 17.241 284.277 17.6494 288.565C19.6494 298.965 19.1494 311.899 18.6494 317.065L13.1494 310.065C13.8161 307.232 14.7494 300.265 13.1494 295.065C7.94941 289.465 4.98275 280.399 4.14941 276.565C4.33502 276.243 4.51762 275.909 4.69725 275.565M19.9456 275.797C16.0454 276.053 7.53553 276.365 4.69725 275.565M19.9456 275.797H20.0667C20.3731 275.797 20.6075 275.524 20.5609 275.221L20.4601 274.565M4.69725 275.565C4.69725 274.883 4.825 273.373 5.28977 271.97C5.43912 271.519 6.05412 271.359 6.48751 271.553V271.553M20.4601 274.565C16.3466 274.565 9.05775 272.706 6.48751 271.553M20.4601 274.565C21.24 272.775 22.0894 271.15 22.8893 269.785M6.48751 271.553C6.85464 270.602 7.2068 269.604 7.54449 268.565M22.8893 269.785C17.7394 269.879 7.64941 269.565 7.54449 268.565M7.54449 268.565C6.99721 267.885 6.42732 266.279 8.52603 265.295M8.52603 265.295L8.10879 265.186C7.85135 265.118 7.6919 264.861 7.74607 264.6L8.44325 261.246C8.49147 261.014 8.69586 260.848 8.93278 260.848H9.64941M9.64941 260.848C10.8494 261.074 20.6389 261.732 25.3836 262.033M27.6494 138.265C26.4729 132.83 25.2402 129.59 22.1494 123.565C25.8602 120.108 27.6705 117.438 30.6462 112.065M27.6494 138.265L30.6462 138.865M35.4925 139.834C37.5506 136.316 38.9938 134.251 43.1543 130.065C42.521 126.433 41.557 118.999 42.4789 116.868M35.4925 139.834L30.6462 138.865M42.4789 116.868C44.6809 117.245 45.6474 117.196 46.0186 117.018" stroke="#201414" stroke-linecap="round"/>
<path d="M30.1494 126.064C31.1494 129.064 31.6494 131.064 31.6494 133.564C33.1494 130.564 33.6494 130.064 36.6494 127.564C35.696 124.718 35.6136 122.578 35.6494 119.564C33.4619 122.359 32.6494 123.564 30.1494 126.064Z" fill="#F2F2F2" fill-opacity="0.5"/>
<mask id="path-5-inside-1_1566_5414" fill="white">
<path d="M55.6494 23.5645C56.5664 23.5645 57.4715 23.6167 58.3623 23.7148C52.2925 26.8867 48.1494 33.2415 48.1494 40.5645C48.1494 51.0579 56.656 59.5645 67.1494 59.5645C71.6482 59.5645 75.7805 57.9991 79.0352 55.3857C75.9219 65.3402 66.63 72.5645 55.6494 72.5645C42.1184 72.5645 31.1494 61.5954 31.1494 48.0645C31.1494 34.5335 42.1184 23.5645 55.6494 23.5645Z"/>
</mask>
<path d="M55.6494 23.5645C56.5664 23.5645 57.4715 23.6167 58.3623 23.7148C52.2925 26.8867 48.1494 33.2415 48.1494 40.5645C48.1494 51.0579 56.656 59.5645 67.1494 59.5645C71.6482 59.5645 75.7805 57.9991 79.0352 55.3857C75.9219 65.3402 66.63 72.5645 55.6494 72.5645C42.1184 72.5645 31.1494 61.5954 31.1494 48.0645C31.1494 34.5335 42.1184 23.5645 55.6494 23.5645Z" fill="url(#paint5_linear_1566_5414)"/>
<path d="M58.3623 23.7148L58.8255 24.6011L61.7355 23.0804L58.4718 22.7209L58.3623 23.7148ZM79.0352 55.3857L79.9896 55.6842L80.9699 52.5498L78.4091 54.606L79.0352 55.3857ZM55.6494 23.5645V24.5645C56.5284 24.5645 57.3968 24.6145 58.2528 24.7088L58.3623 23.7148L58.4718 22.7209C57.5461 22.6189 56.6044 22.5645 55.6494 22.5645V23.5645ZM58.3623 23.7148L57.8992 22.8286C51.5125 26.166 47.1494 32.8546 47.1494 40.5645H48.1494H49.1494C49.1494 33.6284 53.0726 27.6074 58.8255 24.6011L58.3623 23.7148ZM48.1494 40.5645H47.1494C47.1494 51.6101 56.1037 60.5645 67.1494 60.5645V59.5645V58.5645C57.2083 58.5645 49.1494 50.5056 49.1494 40.5645H48.1494ZM67.1494 59.5645V60.5645C71.8844 60.5645 76.2358 58.916 79.6613 56.1655L79.0352 55.3857L78.4091 54.606C75.3252 57.0822 71.4121 58.5645 67.1494 58.5645V59.5645ZM79.0352 55.3857L78.0807 55.0873C75.0943 64.6364 66.1802 71.5645 55.6494 71.5645V72.5645V73.5645C67.0798 73.5645 76.7496 66.044 79.9896 55.6842L79.0352 55.3857ZM55.6494 72.5645V71.5645C42.6707 71.5645 32.1494 61.0431 32.1494 48.0645H31.1494H30.1494C30.1494 62.1477 41.5662 73.5645 55.6494 73.5645V72.5645ZM31.1494 48.0645H32.1494C32.1494 35.0858 42.6707 24.5645 55.6494 24.5645V23.5645V22.5645C41.5662 22.5645 30.1494 33.9812 30.1494 48.0645H31.1494Z" fill="#00DFF6" mask="url(#path-5-inside-1_1566_5414)"/>
<path d="M20.546 210.594L16.243 200.191C16.184 200.048 16.1943 199.886 16.2709 199.752L20.484 192.376C20.6821 192.029 21.1867 192.043 21.3654 192.4L26.0329 201.732C26.1059 201.878 26.1031 202.05 26.0253 202.193L21.4477 210.641C21.2471 211.011 20.7069 210.983 20.546 210.594Z" fill="url(#paint6_linear_1566_5414)" stroke="#142542"/>
<path d="M21.0686 206.564L19.1494 201.344L21.0686 197.564L23.1494 202.244L21.0686 206.564Z" fill="#F2F2F2" fill-opacity="0.5"/>
<path d="M72.0686 44.5645L70.1494 39.3445L72.0686 35.5645L74.1494 40.2445L72.0686 44.5645Z" fill="white" stroke="#00DFF6" stroke-width="0.2"/>
<path d="M39.0686 185.564L37.1494 180.344L39.0686 176.564L41.1494 181.244L39.0686 185.564Z" fill="white" fill-opacity="0.5" stroke="#00DFF6" stroke-width="0.1"/>
<path d="M41.0686 79.5645L39.1494 74.3445L41.0686 70.5645L43.1494 75.2445L41.0686 79.5645Z" fill="#042A78" fill-opacity="0.5" stroke="#00DFF6" stroke-width="0.1"/>
<path d="M18.0686 67.5645L16.1494 62.3445L18.0686 58.5645L20.1494 63.2445L18.0686 67.5645Z" fill="#042A78" fill-opacity="0.5" stroke="#00DFF6" stroke-width="0.1"/>
<path d="M66.0686 71.5645L64.1494 66.3445L66.0686 62.5645L68.1494 67.2445L66.0686 71.5645Z" fill="#142542" fill-opacity="0.5" stroke="#00DFF6" stroke-width="0.1"/>
<path d="M33.508 32.5645L30.1494 23.8645L33.508 17.5645L37.1494 25.3645L33.508 32.5645Z" fill="#042A78" fill-opacity="0.5" stroke="#00DFF6" stroke-width="0.1"/>
<path d="M37.5888 35.5645L36.1494 32.6645L37.5888 30.5645L39.1494 33.1645L37.5888 35.5645Z" fill="white" stroke="#00DFF6" stroke-width="0.1"/>
<path d="M74.5888 47.5645L73.1494 44.6645L74.5888 42.5645L76.1494 45.1645L74.5888 47.5645Z" fill="#042A78" fill-opacity="0.5" stroke="#00DFF6" stroke-width="0.2"/>
<path d="M41.5888 188.564L40.1494 185.664L41.5888 183.564L43.1494 186.164L41.5888 188.564Z" fill="#042A78" fill-opacity="0.5" stroke="#00DFF6" stroke-width="0.1"/>
<path d="M14.5888 69.5645L13.1494 66.6645L14.5888 64.5645L16.1494 67.1645L14.5888 69.5645Z" fill="white" fill-opacity="0.5" stroke="#00DFF6" stroke-width="0.1"/>
<path d="M70.5484 74.5645L68.1494 68.1845L70.5484 63.5645L73.1494 69.2845L70.5484 74.5645Z" fill="#00C4F7" fill-opacity="0.5" stroke="#00DFF6" stroke-width="0.1"/>
<path d="M43.5888 72.5645L42.1494 69.6645L43.5888 67.5645L45.1494 70.1645L43.5888 72.5645Z" fill="white" fill-opacity="0.5" stroke="#00DFF6" stroke-width="0.1"/>
</g>
<defs>
<radialGradient id="paint0_radial_1566_5414" cx="0" cy="0" r="1" gradientUnits="userSpaceOnUse" gradientTransform="translate(55.9957 35.7353) rotate(101.364) scale(33.8206 59.3458)">
<stop stop-color="#00DFF6" stop-opacity="0.56"/>
<stop offset="1" stop-color="#FFF8AC" stop-opacity="0"/>
</radialGradient>
<linearGradient id="paint1_linear_1566_5414" x1="44.1494" y1="243.065" x2="48.1494" y2="317.065" gradientUnits="userSpaceOnUse">
<stop stop-color="#503C3C"/>
<stop offset="1" stop-color="#351D1D"/>
</linearGradient>
<linearGradient id="paint2_linear_1566_5414" x1="48.1494" y1="132.065" x2="48.1494" y2="302.565" gradientUnits="userSpaceOnUse">
<stop stop-color="#503C3C"/>
<stop offset="1" stop-color="#351D1D"/>
</linearGradient>
<linearGradient id="paint3_linear_1566_5414" x1="48.1494" y1="47.2539" x2="48.1494" y2="153.065" gradientUnits="userSpaceOnUse">
<stop stop-color="#503C3C"/>
<stop offset="1" stop-color="#351D1D"/>
</linearGradient>
<linearGradient id="paint4_linear_1566_5414" x1="48.1494" y1="47.2539" x2="48.1494" y2="317.065" gradientUnits="userSpaceOnUse">
<stop stop-color="#00DFF6"/>
<stop offset="1" stop-color="#008390"/>
</linearGradient>
<linearGradient id="paint5_linear_1566_5414" x1="47.6491" y1="27.0645" x2="59.1493" y2="77.0644" gradientUnits="userSpaceOnUse">
<stop stop-color="#B4EAFF"/>
<stop offset="0.390597" stop-color="#00DFF6"/>
<stop offset="1" stop-color="#1658E1"/>
</linearGradient>
<linearGradient id="paint6_linear_1566_5414" x1="21.1494" y1="196.064" x2="21.1494" y2="216.064" gradientUnits="userSpaceOnUse">
<stop stop-color="#00DFF6"/>
<stop offset="1" stop-color="#1658E1"/>
</linearGradient>
<clipPath id="clip0_1566_5414">
<rect width="109" height="319" fill="white" transform="translate(0.459961)"/>
</clipPath>
</defs>
</svg>
