<svg width="54" height="43" viewBox="0 0 54 43" fill="none" xmlns="http://www.w3.org/2000/svg">
<path d="M38.459 39.1855H15.7129C15.2207 39.1855 14.8984 38.9805 14.7461 38.5703C14.5938 38.1719 14.6699 37.7969 14.9746 37.4453L26.1719 24.7363C26.4062 24.4668 26.7051 24.332 27.0684 24.332C27.4434 24.332 27.748 24.4668 27.9824 24.7363L39.1797 37.4453C39.4844 37.7969 39.5605 38.1719 39.4082 38.5703C39.2559 38.9805 38.9395 39.1855 38.459 39.1855ZM43.1172 3.43164C44.9805 3.43164 46.4395 3.95898 47.4941 5.01367C48.5488 6.06836 49.0762 7.52734 49.0762 9.39062V28.0586C49.0762 29.9336 48.5488 31.3984 47.4941 32.4531C46.4395 33.4961 44.9805 34.0176 43.1172 34.0176H39.8828L35.3477 28.8672H42.4316C42.9238 28.8672 43.293 28.75 43.5391 28.5156C43.7969 28.2695 43.9258 27.8945 43.9258 27.3906V10.0762C43.9258 9.56055 43.7969 9.18555 43.5391 8.95117C43.293 8.70508 42.9238 8.58203 42.4316 8.58203H11.7227C11.2305 8.58203 10.8555 8.70508 10.5977 8.95117C10.3516 9.18555 10.2285 9.56055 10.2285 10.0762V27.3906C10.2285 27.8945 10.3516 28.2695 10.5977 28.5156C10.8555 28.75 11.2305 28.8672 11.7227 28.8672H18.8066L14.2715 34.0176H11.0195C9.15625 34.0176 7.69727 33.4961 6.64258 32.4531C5.59961 31.3984 5.07812 29.9336 5.07812 28.0586V9.39062C5.07812 7.52734 5.59961 6.06836 6.64258 5.01367C7.69727 3.95898 9.15625 3.43164 11.0195 3.43164H43.1172Z" fill="white"/>
</svg>
