<svg width="1239" height="339" viewBox="0 0 1239 339" fill="none" xmlns="http://www.w3.org/2000/svg">
<path d="M209.775 244.669C215.005 243.42 216.847 239.353 217.109 235.033C217.166 234.106 217.149 233.168 217.077 232.243C216.877 229.649 216.244 227.162 215.574 225.341C215.482 225.051 215.389 224.76 215.293 224.466L203.63 230.309L209.775 244.669Z" fill="#D9D9D9"/>
<path d="M104.298 240.095L107.062 230.309C101.27 229.556 88.5934 227.147 84.215 223.534C83.2771 226.884 82.4875 230.095 81.9022 233.069C81.4369 234.953 81.0833 237.495 81.1709 240.095C81.2022 241.022 81.2895 241.957 81.4479 242.872C81.7322 244.514 82.2454 246.094 83.074 247.453C84.3965 249.622 86.5224 251.229 89.803 251.637C90.8658 251.769 91.8475 251.788 92.7548 251.71C95.2843 251.494 97.2363 250.531 98.7572 249.197C101.666 246.645 103.518 242.735 104.298 240.095Z" fill="#D9D9D9"/>
<path d="M93.8488 282.298L100.999 329.947C101.101 330.628 100.845 331.314 100.322 331.762L99.1668 332.753C98.5164 333.31 98.8225 334.37 99.6712 334.485C107.177 335.507 119.698 336.735 123.105 335.221C125.195 330.624 135.121 300.461 139.823 285.954C121.506 285.997 105.956 284.428 93.8488 282.298Z" fill="#0D0D0D"/>
<path d="M192.287 335.356C193.174 335.313 193.552 334.22 192.888 333.63L190.932 331.892C190.349 331.374 190.121 330.564 190.347 329.817L205.649 279.318C187.599 282.847 170.777 284.758 155.496 285.534L171.169 334.176C173.453 334.829 180.721 335.91 192.287 335.356Z" fill="#0D0D0D"/>
<path d="M107.062 230.309L109.522 220.523L117.949 186.9L119.579 182.671C112.558 177.823 107.174 173.644 104.82 171.178C103.89 173.166 102.745 175.648 101.466 178.492C97.9072 186.403 93.3077 197.11 89.4024 207.748C88.4367 210.379 87.5134 213.005 86.6587 215.584C85.7575 218.304 84.9327 220.971 84.215 223.534C88.5934 227.147 101.27 229.556 107.062 230.309Z" fill="#0D0D0D"/>
<path d="M212.22 216.12C205.082 198.446 193.686 177.773 187.743 168.043C187.69 168.057 187.637 168.071 187.584 168.085C186.309 168.42 185.016 168.735 183.707 169.032C183.809 172.639 183.585 177.253 183.023 182.149L203.63 230.309L215.293 224.466C214.433 221.827 213.393 219.023 212.22 216.12Z" fill="#0D0D0D"/>
<path d="M81.9022 233.069C82.4875 230.095 83.2771 226.884 84.215 223.534C84.9327 220.971 85.7575 218.304 86.6587 215.584C84.0466 205.658 78.0784 184.343 75.1033 178.492C70.3949 175.831 64.7318 171.865 56.7564 166.476C60.8727 162.931 64.5355 160.74 67.7275 159.428C58.3237 137.398 35.1278 93.4402 17.5741 93.8581C0.0204433 94.276 -0.18853 103.436 1.90119 107.964C3.8167 110.228 9.11053 115.382 14.9618 117.89C22.2758 121.025 75.2714 202.001 79.7432 253.722C79.8051 254.379 79.8919 255.789 79.7432 256.179L83.074 247.453C82.2454 246.094 81.7322 244.514 81.4479 242.872C81.2895 241.957 81.2022 241.022 81.1709 240.095C81.0833 237.495 81.4369 234.953 81.9022 233.069Z" fill="#0D0D0D"/>
<path d="M153.928 44.7496L116.313 4C117.706 14.3229 117.881 38.2977 107.432 51.6138C93.7141 58.6147 84.4473 69.5094 81.3106 74.5282C54.3648 116.575 65.6878 143.798 82.878 158.759C89.9511 164.915 98.0175 168.995 104.82 171.178C120.466 173.325 155.569 175.419 183.707 169.032C185.016 168.735 186.309 168.42 187.584 168.085C187.637 168.071 187.69 168.057 187.743 168.043C190.123 167.416 192.44 166.721 194.678 165.954C231.771 146.101 221.322 105.874 216.098 95.9478L212.441 90.2011C207.007 74.3192 233.86 53.2826 247.966 44.7496C234.383 38.4804 189.454 44.7496 172.736 48.4066C164.899 44.7496 158.456 44.7496 153.928 44.7496Z" fill="#0D0D0D"/>
<path d="M216.098 95.9478C223.412 92.8132 245.354 60.945 247.966 44.7496C233.86 53.2826 207.007 74.3192 212.441 90.2011L216.098 95.9478Z" fill="#DB867D"/>
<path d="M116.313 4C102.904 14.4486 77.131 43.1823 81.3106 74.5282C84.4473 69.5094 93.7141 58.6147 107.432 51.6138C117.881 38.2977 117.706 14.3229 116.313 4Z" fill="#DB867D"/>
<path d="M107.062 230.309L104.298 240.095C103.518 242.735 101.666 246.645 98.7572 249.197C97.2363 250.531 95.2843 251.494 92.7548 251.71C91.8475 251.788 90.8658 251.769 89.803 251.637C86.5224 251.229 84.3965 249.622 83.074 247.453L79.7432 256.179L71.9067 276.709C76.8408 278.575 84.2667 280.612 93.8488 282.298C105.956 284.428 121.506 285.997 139.823 285.954C142.214 285.949 144.653 285.916 147.137 285.853C149.869 285.784 152.655 285.679 155.496 285.534C170.777 284.758 187.599 282.847 205.649 279.318C211.781 278.119 218.054 276.733 224.457 275.142C213.59 252.155 210.141 245.249 209.775 244.669L203.63 230.309L183.023 182.149C181.732 193.4 178.656 206.14 173.637 211.573C173.11 212.143 172.286 212.276 171.567 211.985C155.396 205.449 134.023 192.645 119.579 182.671L117.949 186.9L109.522 220.523L107.062 230.309Z" fill="#213B77"/>
<path d="M89.4024 207.748C93.3077 197.11 97.9072 186.403 101.466 178.492C98.8605 180.337 96.1396 181.578 93.3266 182.268C83.2959 189.469 86.531 202.255 89.4024 207.748Z" fill="#FF4D55"/>
<path d="M104.82 171.178C98.0175 168.995 89.9511 164.915 82.878 158.759C81.36 158.672 76.203 155.947 67.7275 159.428C64.5355 160.74 60.8727 162.931 56.7564 166.476C64.7318 171.865 70.3949 175.831 75.1033 178.492C81.8068 182.281 86.5752 183.426 93.3266 182.268C96.1396 181.578 98.8605 180.337 101.466 178.492C102.745 175.648 103.89 173.166 104.82 171.178Z" fill="#FF4D55"/>
<path d="M183.707 169.032C155.569 175.419 120.466 173.325 104.82 171.178C107.174 173.644 112.558 177.823 119.579 182.671C134.023 192.645 155.396 205.449 171.567 211.985C172.286 212.276 173.11 212.143 173.637 211.573C178.656 206.14 181.732 193.4 183.023 182.149C183.585 177.253 183.809 172.639 183.707 169.032Z" fill="#FF4D55"/>
<path d="M187.743 168.043C193.686 177.773 205.082 198.446 212.22 216.12C213.393 219.023 214.433 221.827 215.293 224.466M187.743 168.043C187.69 168.057 187.637 168.071 187.584 168.085M187.743 168.043C190.123 167.416 192.44 166.721 194.678 165.954M209.775 244.669C215.005 243.42 216.847 239.353 217.109 235.033C217.166 234.106 217.149 233.168 217.077 232.243C216.877 229.649 216.244 227.162 215.574 225.341C215.482 225.051 215.389 224.76 215.293 224.466M209.775 244.669C210.141 245.249 213.59 252.155 224.457 275.142C218.054 276.733 211.781 278.119 205.649 279.318M209.775 244.669L203.63 230.309M104.82 171.178C120.466 173.325 155.569 175.419 183.707 169.032M104.82 171.178C107.174 173.644 112.558 177.823 119.579 182.671M104.82 171.178C98.0175 168.995 89.9511 164.915 82.878 158.759M104.82 171.178C103.89 173.166 102.745 175.648 101.466 178.492M107.062 230.309L104.298 240.095C103.518 242.735 101.666 246.645 98.7572 249.197C97.2363 250.531 95.2843 251.494 92.7548 251.71C91.8475 251.788 90.8658 251.769 89.803 251.637C86.5224 251.229 84.3965 249.622 83.074 247.453M107.062 230.309L109.522 220.523L117.949 186.9L119.579 182.671M107.062 230.309C101.27 229.556 88.5934 227.147 84.215 223.534M84.215 223.534C83.2771 226.884 82.4875 230.095 81.9022 233.069C81.4369 234.953 81.0833 237.495 81.1709 240.095C81.2022 241.022 81.2895 241.957 81.4479 242.872C81.7322 244.514 82.2454 246.094 83.074 247.453M84.215 223.534C84.9327 220.971 85.7575 218.304 86.6587 215.584M81.3106 74.5282C77.131 43.1823 102.904 14.4486 116.313 4M81.3106 74.5282C54.3648 116.575 65.6878 143.798 82.878 158.759M81.3106 74.5282C84.4473 69.5094 93.7141 58.6147 107.432 51.6138M116.313 4L153.928 44.7496M116.313 4C117.706 14.3229 117.881 38.2977 107.432 51.6138M153.928 44.7496C158.456 44.7496 164.899 44.7496 172.736 48.4066M153.928 44.7496C151.839 44.9237 146.823 45.5855 143.48 46.8393M172.736 48.4066C189.454 44.7496 234.383 38.4804 247.966 44.7496M172.736 48.4066C175.174 49.6256 180.154 52.2726 180.572 53.1085M247.966 44.7496C245.354 60.945 223.412 92.8132 216.098 95.9478M247.966 44.7496C233.86 53.2826 207.007 74.3192 212.441 90.2011M216.098 95.9478C221.322 105.874 231.771 146.101 194.678 165.954M216.098 95.9478L212.441 90.2011M194.678 165.954C192.39 166.738 190.02 167.446 187.584 168.085M183.707 169.032C183.809 172.639 183.585 177.253 183.023 182.149M183.707 169.032C185.016 168.735 186.309 168.42 187.584 168.085M119.579 182.671C134.023 192.645 155.396 205.449 171.567 211.985C172.286 212.276 173.11 212.143 173.637 211.573C178.656 206.14 181.732 193.4 183.023 182.149M183.023 182.149L203.63 230.309M82.878 158.759C81.36 158.672 76.203 155.947 67.7275 159.428M101.466 178.492C97.9072 186.403 93.3077 197.11 89.4024 207.748M101.466 178.492C98.8605 180.337 96.1396 181.578 93.3266 182.268M89.4024 207.748C86.531 202.255 83.2959 189.469 93.3266 182.268M89.4024 207.748C88.4367 210.379 87.5134 213.005 86.6587 215.584M93.3266 182.268C86.5752 183.426 81.8068 182.281 75.1033 178.492M86.6587 215.584C84.0466 205.658 78.0784 184.343 75.1033 178.492M75.1033 178.492C70.3949 175.831 64.7318 171.865 56.7564 166.476C60.8727 162.931 64.5355 160.74 67.7275 159.428M67.7275 159.428C58.3237 137.398 35.1278 93.4402 17.5741 93.8581C0.0204433 94.276 -0.18853 103.436 1.90119 107.964C3.8167 110.228 9.11053 115.382 14.9618 117.89C22.2758 121.025 75.2714 202.001 79.7432 253.722C79.8051 254.379 79.8919 255.789 79.7432 256.179M83.074 247.453L79.7432 256.179M79.7432 256.179L71.9067 276.709C76.8408 278.575 84.2667 280.612 93.8488 282.298M93.8488 282.298L100.999 329.947C101.101 330.628 100.845 331.314 100.322 331.762L99.1668 332.753C98.5164 333.31 98.8225 334.37 99.6712 334.485C107.177 335.507 119.698 336.735 123.105 335.221C125.195 330.624 135.121 300.461 139.823 285.954M93.8488 282.298C105.956 284.428 121.506 285.997 139.823 285.954M155.496 285.534C152.655 285.679 149.869 285.784 147.137 285.853C144.653 285.916 142.214 285.949 139.823 285.954M155.496 285.534C170.777 284.758 187.599 282.847 205.649 279.318M155.496 285.534L171.169 334.176C173.453 334.829 180.721 335.91 192.287 335.356C193.174 335.313 193.552 334.22 192.888 333.63L190.932 331.892C190.349 331.374 190.121 330.564 190.347 329.817L205.649 279.318M112.134 49.4515C110.514 50.1161 108.946 50.8413 107.432 51.6138M208.784 84.4543L212.441 90.2011M203.63 230.309L215.293 224.466" stroke="#333131" stroke-width="2" stroke-linecap="round"/>
<path d="M143.635 129.293L138.192 123.401C137.939 123.127 138.068 122.71 138.397 122.616C142.615 121.418 145.448 121.444 149.604 122.618C149.934 122.711 150.063 123.13 149.81 123.405L144.37 129.293C144.172 129.508 143.833 129.508 143.635 129.293Z" fill="#DB867D" stroke="#333131"/>
<path d="M128.329 98.5608C128.329 105.197 122.482 110.577 115.269 110.577C108.055 110.577 102.208 105.197 102.208 98.5608C102.208 91.9246 108.055 86.5449 115.269 86.5449C122.482 86.5449 128.329 91.9246 128.329 98.5608Z" fill="#0D0D0D"/>
<path d="M160.72 98.5608C160.72 105.197 166.567 110.577 173.781 110.577C180.994 110.577 186.842 105.197 186.842 98.5608C186.842 91.9246 180.994 86.5449 173.781 86.5449C166.567 86.5449 160.72 91.9246 160.72 98.5608Z" fill="#0D0D0D"/>
<path fill-rule="evenodd" clip-rule="evenodd" d="M156.541 103.785C156.541 113.884 165.195 122.07 175.87 122.07C179.095 122.07 182.136 121.323 184.809 120.002C187.012 118.913 188.965 117.435 190.567 115.663C192.168 113.893 193.417 111.829 194.213 109.57C194.854 107.752 195.2 105.807 195.2 103.785C195.2 93.6865 186.546 85.5 175.87 85.5C165.195 85.5 156.541 93.6865 156.541 103.785ZM173.781 110.577C166.567 110.577 160.72 105.197 160.72 98.5608C160.72 91.9246 166.567 86.5449 173.781 86.5449C180.994 86.5449 186.842 91.9246 186.842 98.5608C186.842 105.197 180.994 110.577 173.781 110.577Z" fill="#D9D9D9"/>
<path fill-rule="evenodd" clip-rule="evenodd" d="M132.509 103.785C132.509 113.884 123.854 122.07 113.179 122.07C109.936 122.07 106.88 121.315 104.197 119.98C102.291 119.033 100.573 117.793 99.109 116.323C98.9186 116.132 98.7324 115.937 98.5507 115.738C96.9554 113.993 95.7033 111.959 94.8937 109.731C94.2165 107.867 93.8488 105.866 93.8488 103.785C93.8488 93.6865 102.503 85.5 113.179 85.5C123.854 85.5 132.509 93.6865 132.509 103.785ZM115.269 110.577C122.482 110.577 128.329 105.197 128.329 98.5608C128.329 91.9246 122.482 86.5449 115.269 86.5449C108.055 86.5449 102.208 91.9246 102.208 98.5608C102.208 105.197 108.055 110.577 115.269 110.577Z" fill="#D9D9D9"/>
<path d="M94.8937 109.731L95.8336 109.389L94.8937 109.731ZM88.9153 110.126C88.3781 110.254 88.0462 110.793 88.1742 111.331C88.3021 111.868 88.8414 112.2 89.3786 112.072L88.9153 110.126ZM99.109 116.323L99.8174 115.618L99.8174 115.618L99.109 116.323ZM102.284 123.387C102.146 123.922 102.468 124.468 103.003 124.606C103.537 124.744 104.083 124.422 104.221 123.887L102.284 123.387ZM94.3034 117.606C93.8576 117.932 93.7605 118.558 94.0866 119.003C94.4126 119.449 95.0383 119.546 95.4841 119.22L94.3034 117.606ZM199.57 111.873C200.107 112.001 200.646 111.669 200.774 111.132C200.902 110.595 200.571 110.055 200.033 109.927L199.57 111.873ZM184.728 123.689C184.866 124.223 185.411 124.545 185.946 124.407C186.481 124.269 186.802 123.723 186.664 123.189L184.728 123.689ZM193.465 119.021C193.91 119.347 194.536 119.25 194.862 118.805C195.188 118.359 195.091 117.733 194.645 117.407L193.465 119.021ZM131.509 103.785C131.509 113.28 123.355 121.07 113.179 121.07V123.07C124.354 123.07 133.509 114.488 133.509 103.785H131.509ZM94.8488 103.785C94.8488 94.2904 103.002 86.5 113.179 86.5V84.5C102.004 84.5 92.8488 93.0826 92.8488 103.785H94.8488ZM113.179 86.5C123.355 86.5 131.509 94.2904 131.509 103.785H133.509C133.509 93.0826 124.354 84.5 113.179 84.5V86.5ZM155.541 103.785C155.541 114.488 164.696 123.07 175.87 123.07V121.07C165.694 121.07 157.541 113.28 157.541 103.785H155.541ZM196.2 103.785C196.2 93.0826 187.045 84.5 175.87 84.5V86.5C186.047 86.5 194.2 94.2904 194.2 103.785H196.2ZM175.87 84.5C164.696 84.5 155.541 93.0826 155.541 103.785H157.541C157.541 94.2904 165.694 86.5 175.87 86.5V84.5ZM159.72 98.5608C159.72 105.826 166.095 111.577 173.781 111.577V109.577C167.04 109.577 161.72 104.568 161.72 98.5608H159.72ZM173.781 111.577C181.466 111.577 187.842 105.826 187.842 98.5608H185.842C185.842 104.568 180.522 109.577 173.781 109.577V111.577ZM187.842 98.5608C187.842 91.2954 181.466 85.5449 173.781 85.5449V87.5449C180.522 87.5449 185.842 92.5537 185.842 98.5608H187.842ZM173.781 85.5449C166.095 85.5449 159.72 91.2954 159.72 98.5608H161.72C161.72 92.5537 167.04 87.5449 173.781 87.5449V85.5449ZM127.329 98.5608C127.329 104.568 122.01 109.577 115.269 109.577V111.577C122.954 111.577 129.329 105.826 129.329 98.5608H127.329ZM115.269 109.577C108.527 109.577 103.208 104.568 103.208 98.5608H101.208C101.208 105.826 107.583 111.577 115.269 111.577V109.577ZM103.208 98.5608C103.208 92.5537 108.527 87.5449 115.269 87.5449V85.5449C107.583 85.5449 101.208 91.2954 101.208 98.5608H103.208ZM115.269 87.5449C122.01 87.5449 127.329 92.5537 127.329 98.5608H129.329C129.329 91.2954 122.954 85.5449 115.269 85.5449V87.5449ZM95.8336 109.389C95.1954 107.633 94.8488 105.748 94.8488 103.785H92.8488C92.8488 105.985 93.2376 108.101 93.9538 110.072L95.8336 109.389ZM94.6621 108.758L88.9153 110.126L89.3786 112.072L95.1254 110.704L94.6621 108.758ZM113.179 121.07C110.093 121.07 107.189 120.352 104.642 119.085L103.752 120.876C106.572 122.278 109.78 123.07 113.179 123.07V121.07ZM104.642 119.085C102.833 118.185 101.204 117.009 99.8174 115.618L98.4006 117.029C99.9418 118.576 101.749 119.88 103.752 120.876L104.642 119.085ZM103.229 119.73L102.284 123.387L104.221 123.887L105.165 120.23L103.229 119.73ZM99.8174 115.618C99.6371 115.437 99.4608 115.252 99.2889 115.064L97.8126 116.413C98.004 116.622 98.2 116.828 98.4006 117.029L99.8174 115.618ZM99.2889 115.064C97.7787 113.412 96.5968 111.49 95.8336 109.389L93.9538 110.072C94.8099 112.428 96.1322 114.575 97.8126 116.413L99.2889 115.064ZM97.9604 114.931L94.3034 117.606L95.4841 119.22L99.1411 116.546L97.9604 114.931ZM175.87 123.07C179.251 123.07 182.443 122.287 185.252 120.899L184.366 119.106C181.829 120.359 178.94 121.07 175.87 121.07V123.07ZM185.252 120.899C187.566 119.755 189.622 118.2 191.309 116.334L189.825 114.993C188.309 116.67 186.457 118.072 184.366 119.106L185.252 120.899ZM191.309 116.334C192.995 114.469 194.315 112.291 195.156 109.902L193.27 109.237C192.52 111.367 191.34 113.316 189.825 114.993L191.309 116.334ZM195.156 109.902C195.834 107.979 196.2 105.922 196.2 103.785H194.2C194.2 105.691 193.874 107.524 193.27 109.237L195.156 109.902ZM193.823 110.505L193.982 110.542L194.445 108.597L194.287 108.559L193.823 110.505ZM193.982 110.542L199.57 111.873L200.033 109.927L194.445 108.597L193.982 110.542ZM189.807 116.347L189.977 116.47L191.157 114.856L190.988 114.732L189.807 116.347ZM189.977 116.47L193.465 119.021L194.645 117.407L191.157 114.856L189.977 116.47ZM183.784 120.032L183.84 120.252L185.777 119.752L185.72 119.532L183.784 120.032ZM183.84 120.252L184.728 123.689L186.664 123.189L185.777 119.752L183.84 120.252Z" fill="#333131"/>
<path d="M504.657 224.187L507.59 234.571C508.418 237.373 510.382 241.523 513.469 244.23C515.083 245.646 517.154 246.668 519.838 246.897C520.801 246.979 521.843 246.96 522.971 246.819C526.452 246.387 528.708 244.681 530.111 242.379C530.99 240.937 531.535 239.261 531.837 237.518C532.005 236.547 532.097 235.555 532.131 234.571C532.224 231.812 531.848 229.116 531.355 227.116C530.734 223.96 529.896 220.553 528.9 216.998C528.139 214.279 527.264 211.449 526.307 208.563C525.4 205.826 524.421 203.039 523.396 200.247C519.252 188.958 514.371 177.597 510.595 169.202L509.808 163.104L491.374 173.637L493.104 178.124L504.657 224.187Z" fill="#B34C29"/>
<path d="M387.881 229.201C388.159 233.785 390.115 238.1 395.664 239.425L424.052 173.083C423.455 167.888 423.218 167.122 423.326 163.294C423.202 163.268 423.078 163.242 422.955 163.216C420.998 162.802 419.265 162.39 417.782 161.995C411.476 172.32 400.644 190.377 393.069 209.131C391.687 212.554 390.477 215.848 389.511 218.916C388.799 220.848 388.128 223.487 387.915 226.239C387.839 227.221 387.822 228.217 387.881 229.201Z" fill="#B34C29"/>
<path d="M539.19 105.646C545.842 137.423 524.394 156.913 512.752 162.402C521.68 160.089 532.742 155.568 541.136 147.419C543.239 145.378 545.175 143.108 546.868 140.589C546.916 140.518 546.963 140.447 547.011 140.375C552.448 132.17 555.316 121.335 553.049 107.113C552.948 106.482 552.84 105.856 552.724 105.235C545.56 66.7497 509.934 47.153 494.84 41.6973L479.317 37.8166C473.035 35.5991 451.155 23.0703 447.164 4C437.851 26.1748 445.131 36.8926 449.936 39.4797C444.577 38.3709 431.974 34.4904 424.435 27.8379C425.765 34.0469 430.533 38.9253 432.75 40.5884C421.037 44.8222 396.958 57.5723 383.412 81.0574C379.221 88.3235 376.038 96.6172 374.541 106.004C372.277 120.209 375.364 131.051 380.992 139.266C390.519 153.173 407.328 159.556 417.782 161.995C406.141 156.507 384.52 137.587 391.173 105.81C397.825 74.0336 416.119 60.5458 424.435 57.7739C431.457 55.2425 448.938 53.9346 464.904 69.6119C480.87 53.9346 494.84 56.1108 501.492 57.7739C508.145 59.437 532.537 73.8692 539.19 105.646Z" fill="#B34C29"/>
<path d="M650.064 17.3049C610.513 0.288931 582.421 46.6865 572.992 72.7419C576.89 76.4627 582.082 82.8903 586.663 89.373C593.568 66.6438 617.134 22.6268 647.292 32.8272C668.358 42.8059 661.705 64.4263 658.379 68.6676C653.445 74.9594 634.652 77.066 637.313 54.4477C637.683 51.6758 636.648 46.5756 629.552 48.3496C620.682 50.5671 612.366 87.7099 648.955 87.7099C675.565 89.9274 697.739 37.8166 650.064 17.3049Z" fill="#B34C29"/>
<path d="M519.232 173.21C529.876 180.85 526.443 194.418 523.396 200.247C524.421 203.039 525.4 205.826 526.307 208.563C529.079 198.03 535.412 175.411 538.569 169.202C531.456 173.223 526.396 174.438 519.232 173.21Z" fill="#B34C29"/>
<path d="M546.868 140.589C545.175 143.108 543.239 145.378 541.136 147.419C542.728 147.699 544.482 148.187 546.396 148.974L549.168 142.799C548.242 141.875 547.553 141.085 547.011 140.375C546.963 140.447 546.916 140.518 546.868 140.589Z" fill="#B34C29"/>
<path d="M512.752 162.402C524.394 156.913 545.842 137.423 539.19 105.646C532.537 73.8692 508.145 59.437 501.492 57.7739C494.84 56.1108 480.87 53.9346 464.904 69.6119C448.938 53.9346 431.457 55.2425 424.435 57.7739C416.119 60.5458 397.825 74.0336 391.173 105.81C384.52 137.587 406.141 156.507 417.782 161.995C419.265 162.39 420.998 162.802 422.955 163.216C423.078 163.242 423.202 163.268 423.326 163.294C440.763 166.933 475.388 170.621 509.808 163.104C510.756 162.897 511.738 162.664 512.747 162.403L512.752 162.402Z" fill="#F7DBC6"/>
<path d="M374.541 106.004C376.038 96.6172 379.221 88.3235 383.412 81.0574L370.661 69.97C369.183 68.8613 363.676 67.3091 357.911 69.97C352.145 72.631 336.29 93.808 331.301 104.341C329.083 110.439 329.748 113.654 332.409 119.863C335.07 126.072 349.873 143.84 359.574 148.691C361.791 149.799 365.672 152.571 371.215 148.691C376.205 144.81 379.581 141.114 380.992 139.266C375.364 131.051 372.277 120.209 374.541 106.004Z" fill="#F7DBC6"/>
<path d="M556.375 69.7763L543.526 81.0574C547.75 88.1041 551.032 96.1424 552.724 105.235C552.84 105.856 552.948 106.482 553.049 107.113C555.316 121.335 552.448 132.17 547.011 140.375C547.553 141.085 548.242 141.875 549.168 142.799C550.654 144.281 552.748 146.107 555.821 148.497C561.365 152.377 565.245 149.606 567.463 148.497C577.164 143.646 591.966 125.879 594.627 119.67C597.288 113.461 597.953 110.245 595.736 104.147C593.868 100.204 590.477 94.7695 586.663 89.373C582.082 82.8903 576.89 76.4627 572.992 72.7419C571.467 71.286 570.14 70.2445 569.126 69.7763C563.36 67.1154 557.854 68.6676 556.375 69.7763Z" fill="#F7DBC6"/>
<path d="M436.209 204.743C450.266 199.061 468.028 188.916 482.418 179.614C485.593 177.562 488.604 175.551 491.374 173.637L509.808 163.104C475.388 170.621 440.763 166.933 423.326 163.294C423.218 167.122 423.455 167.888 424.052 173.083C424.618 178.022 425.509 183.232 426.736 188.051C428.475 194.881 430.889 200.926 434.011 204.306C434.57 204.911 435.445 205.052 436.209 204.743Z" fill="#FDB600"/>
<path d="M510.595 169.202C513.36 171.16 516.247 172.478 519.232 173.21C526.396 174.438 531.456 173.223 538.569 169.202C543.565 166.378 549.575 162.17 558.038 156.452C553.67 152.691 549.783 150.365 546.396 148.974C544.482 148.187 542.728 147.699 541.136 147.419C532.742 155.568 521.68 160.089 512.752 162.402L512.747 162.403C511.738 162.664 510.756 162.897 509.808 163.104L510.595 169.202Z" fill="#FDB600"/>
<path d="M510.595 169.202C514.371 177.597 519.252 188.958 523.396 200.247C526.443 194.418 529.876 180.85 519.232 173.21C516.247 172.478 513.36 171.16 510.595 169.202Z" fill="#FDB600"/>
<path fill-rule="evenodd" clip-rule="evenodd" d="M504.657 224.187L507.59 234.571C508.418 237.373 510.382 241.523 513.469 244.23C515.083 245.646 517.154 246.668 519.838 246.897C520.801 246.979 521.843 246.96 522.971 246.819C526.452 246.387 528.708 244.681 530.111 242.379L533.646 251.639L535.863 259.565L518.678 279.355L511.099 329.865C510.985 330.62 511.269 331.38 511.848 331.877L512.955 332.826C513.677 333.444 513.339 334.619 512.398 334.746C504.422 335.827 491.233 337.113 487.633 335.513C485.415 330.635 474.882 298.628 469.893 283.235C467.356 283.229 464.768 283.194 462.132 283.127C459.233 283.054 456.276 282.942 453.262 282.789L436.631 334.405C434.214 335.095 426.542 336.237 414.337 335.662C413.353 335.615 412.933 334.404 413.669 333.749L415.613 332.021C416.26 331.446 416.513 330.548 416.262 329.721L400.042 276.192L387.881 262.337L395.664 239.425L424.052 173.083C424.618 178.022 425.509 183.232 426.736 188.051C415.428 209.487 401.052 253.799 434.011 259.565C475.211 266.771 488.516 197.233 482.418 179.614C485.593 177.562 488.604 175.551 491.374 173.637L493.104 178.124L504.657 224.187Z" fill="#B34C29"/>
<path d="M436.209 204.743C435.445 205.052 434.57 204.911 434.011 204.306C430.889 200.926 428.475 194.881 426.736 188.051C415.428 209.487 401.052 253.799 434.011 259.565C475.211 266.771 488.516 197.233 482.418 179.614C468.028 188.916 450.266 199.061 436.209 204.743Z" fill="#F7DBC6"/>
<path d="M512.752 162.402L513.002 163.37L513.003 163.37L512.752 162.402ZM464.904 69.6119L464.203 70.3254L464.904 71.0134L465.605 70.3254L464.904 69.6119ZM389.511 218.916L390.449 219.261L390.458 219.239L390.465 219.216L389.511 218.916ZM387.881 229.201L386.883 229.261L387.881 229.201ZM393.069 209.131L393.996 209.506L393.069 209.131ZM387.915 226.239L388.912 226.316L388.912 226.316L387.915 226.239ZM493.104 178.124L494.074 177.881L494.059 177.822L494.037 177.765L493.104 178.124ZM531.355 227.116L530.373 227.309L530.378 227.333L530.384 227.356L531.355 227.116ZM522.971 246.819L523.094 247.812L522.971 246.819ZM507.59 234.571L506.628 234.843L506.631 234.855L507.59 234.571ZM531.837 237.518L532.822 237.689L531.837 237.518ZM504.657 224.187L503.687 224.431L503.691 224.445L503.695 224.459L504.657 224.187ZM528.9 216.998L529.863 216.729L529.863 216.729L528.9 216.998ZM532.131 234.571L531.131 234.538L532.131 234.571ZM519.838 246.897L519.753 247.893L519.838 246.897ZM513.469 244.23L512.81 244.982L512.81 244.982L513.469 244.23ZM423.326 163.294L423.53 162.315L423.53 162.315L423.326 163.294ZM434.011 204.306L434.746 203.627L434.746 203.627L434.011 204.306ZM491.374 173.637L490.878 172.769L490.841 172.79L490.806 172.814L491.374 173.637ZM436.209 204.743L435.834 203.816L435.834 203.816L436.209 204.743ZM558.038 156.452L558.598 157.28L559.682 156.548L558.69 155.694L558.038 156.452ZM510.595 169.202L509.603 169.33L509.622 169.477L509.683 169.613L510.595 169.202ZM523.396 200.247L522.457 200.592L523.396 200.247ZM546.396 148.974L546.016 149.899L546.016 149.899L546.396 148.974ZM533.646 251.639L534.609 251.369L534.596 251.325L534.58 251.282L533.646 251.639ZM518.678 279.355L517.923 278.699L517.732 278.919L517.689 279.206L518.678 279.355ZM462.132 283.127L462.107 284.127L462.132 283.127ZM453.262 282.789L453.313 281.79L452.546 281.751L452.31 282.482L453.262 282.789ZM400.042 276.192L400.999 275.902L400.937 275.695L400.794 275.533L400.042 276.192ZM436.631 334.405L436.906 335.366L437.419 335.22L437.583 334.711L436.631 334.405ZM487.633 335.513L486.723 335.927L486.88 336.273L487.227 336.427L487.633 335.513ZM469.893 283.235L470.844 282.926L470.621 282.236L469.895 282.235L469.893 283.235ZM387.881 262.337L386.935 262.015L386.749 262.562L387.13 262.996L387.881 262.337ZM535.863 259.565L536.618 260.22L536.971 259.814L536.826 259.295L535.863 259.565ZM432.75 40.5884L433.09 41.5289L434.832 40.8994L433.35 39.7884L432.75 40.5884ZM424.435 27.8379L425.096 27.0881L422.821 25.0806L423.457 28.0474L424.435 27.8379ZM449.936 39.4797L449.733 40.4589L450.41 38.5992L449.936 39.4797ZM447.164 4L448.143 3.79514L447.485 0.652978L446.242 3.61277L447.164 4ZM479.317 37.8166L478.985 38.7596L479.029 38.7753L479.075 38.7867L479.317 37.8166ZM413.669 333.749L414.333 334.497L414.333 334.497L413.669 333.749ZM414.337 335.662L414.29 336.661L414.337 335.662ZM512.955 332.826L512.305 333.585L512.305 333.585L512.955 332.826ZM512.398 334.746L512.532 335.737L512.398 334.746ZM415.613 332.021L414.949 331.274L414.949 331.274L415.613 332.021ZM416.262 329.721L417.219 329.431L417.219 329.431L416.262 329.721ZM511.099 329.865L510.11 329.716L510.11 329.716L511.099 329.865ZM511.848 331.877L512.499 331.118L512.499 331.118L511.848 331.877ZM553.049 107.113L554.036 106.956L554.036 106.956L553.049 107.113ZM494.84 41.6973L495.18 40.7568L495.132 40.7395L495.082 40.7272L494.84 41.6973ZM541.136 147.419L540.44 146.702L540.44 146.702L541.136 147.419ZM370.661 69.97L371.317 69.2154L371.29 69.1917L371.261 69.17L370.661 69.97ZM331.301 104.341L330.397 103.913L330.377 103.955L330.361 103.999L331.301 104.341ZM371.215 148.691L371.789 149.51L371.809 149.495L371.829 149.48L371.215 148.691ZM380.992 139.266L381.817 138.701L380.992 139.266ZM355.693 96.0254L356.124 96.9276L356.124 96.9276L355.693 96.0254ZM362.939 114.57C363.383 114.243 363.478 113.617 363.151 113.172C362.823 112.727 362.197 112.633 361.752 112.96L362.939 114.57ZM543.526 81.0574L542.866 80.306L542.24 80.8562L542.668 81.5716L543.526 81.0574ZM556.375 69.7763L555.775 68.9763L555.745 68.9994L555.716 69.0249L556.375 69.7763ZM569.126 69.7763L569.545 68.8684L569.545 68.8684L569.126 69.7763ZM595.736 104.147L596.675 103.806L596.659 103.762L596.639 103.719L595.736 104.147ZM555.821 148.497L555.207 149.286L555.227 149.302L555.247 149.316L555.821 148.497ZM547.011 140.375L546.177 139.823L546.177 139.823L547.011 140.375ZM571.343 95.8317L570.912 96.7339L571.343 95.8317ZM565.284 112.767C564.839 112.439 564.213 112.534 563.886 112.978C563.558 113.423 563.653 114.049 564.098 114.377L565.284 112.767ZM572.992 72.7419L572.302 73.4652L572.992 72.7419ZM650.064 17.3049L649.668 18.2235L650.064 17.3049ZM648.955 87.7099L649.038 86.7133L648.996 86.7099H648.955V87.7099ZM647.292 32.8272L647.72 31.9235L647.667 31.8986L647.612 31.88L647.292 32.8272ZM658.379 68.6676L659.166 69.2847L658.379 68.6676ZM637.313 54.4477L636.322 54.3155L636.321 54.3232L636.32 54.3308L637.313 54.4477ZM424.435 57.7739L424.751 58.7226L424.763 58.7188L424.774 58.7146L424.435 57.7739ZM546.868 140.589L547.698 141.146L547.698 141.146L546.868 140.589ZM422.955 163.216L423.162 162.238L423.162 162.238L422.955 163.216ZM512.747 162.403L512.496 161.435L512.496 161.435L512.747 162.403ZM426.736 188.051L427.705 187.804L426.736 188.051ZM434.011 259.565L434.184 258.58L434.011 259.565ZM482.418 179.614L481.875 178.774L481.875 178.774L482.418 179.614ZM513.178 163.306C525.078 157.697 546.948 137.825 540.168 105.441L538.211 105.851C544.736 137.021 523.71 156.13 512.325 161.497L513.178 163.306ZM540.168 105.441C536.796 89.334 528.925 77.6141 521.049 69.7114C513.206 61.8406 505.291 57.6929 501.735 56.8038L501.25 58.744C504.346 59.518 511.954 63.418 519.633 71.1232C527.28 78.7966 534.93 90.1812 538.211 105.851L540.168 105.441ZM501.735 56.8038C498.34 55.9551 493.024 54.9619 486.503 56.208C479.973 57.4559 472.315 60.9338 464.203 68.8984L465.605 70.3254C473.459 62.6127 480.769 59.34 486.878 58.1725C492.997 57.0032 497.992 57.9296 501.25 58.744L501.735 56.8038ZM386.883 229.261C387.029 231.665 387.618 234.08 388.965 236.091C390.328 238.127 392.423 239.679 395.432 240.398L395.897 238.453C393.356 237.846 391.698 236.578 390.627 234.978C389.54 233.355 389.012 231.321 388.88 229.14L386.883 229.261ZM390.465 219.216C391.421 216.179 392.621 212.911 393.996 209.506L392.142 208.757C390.753 212.197 389.533 215.516 388.557 218.615L390.465 219.216ZM393.996 209.506C401.537 190.835 412.33 172.839 418.636 162.517L416.929 161.474C410.622 171.8 399.75 189.918 392.142 208.757L393.996 209.506ZM388.573 218.57C387.833 220.578 387.139 223.307 386.918 226.162L388.912 226.316C389.117 223.667 389.765 221.119 390.449 219.261L388.573 218.57ZM386.918 226.162C386.839 227.183 386.821 228.226 386.883 229.261L388.88 229.14C388.823 228.208 388.84 227.259 388.912 226.316L386.918 226.162ZM508.552 234.3L505.619 223.916L503.695 224.459L506.628 234.843L508.552 234.3ZM532.336 226.923C531.708 223.735 530.864 220.301 529.863 216.729L527.937 217.268C528.928 220.804 529.759 224.185 530.373 227.309L532.336 226.923ZM530.384 227.356C530.858 229.278 531.221 231.882 531.131 234.538L533.13 234.605C533.226 231.743 532.838 228.953 532.325 226.876L530.384 227.356ZM531.131 234.538C531.099 235.482 531.011 236.428 530.851 237.348L532.822 237.689C532.999 236.667 533.096 235.628 533.13 234.605L531.131 234.538ZM522.847 245.827C521.783 245.959 520.812 245.977 519.924 245.901L519.753 247.893C520.791 247.982 521.903 247.96 523.094 247.812L522.847 245.827ZM519.924 245.901C517.465 245.691 515.592 244.762 514.129 243.479L512.81 244.982C514.574 246.53 516.844 247.645 519.753 247.893L519.924 245.901ZM514.129 243.479C511.234 240.939 509.345 236.985 508.549 234.288L506.631 234.855C507.49 237.762 509.531 242.106 512.81 244.982L514.129 243.479ZM433.277 204.984C434.155 205.935 435.487 206.113 436.583 205.67L435.834 203.816C435.402 203.99 434.986 203.887 434.746 203.627L433.277 204.984ZM494.037 177.765L492.308 173.278L490.441 173.997L492.17 178.484L494.037 177.765ZM425.045 172.969C424.445 167.736 424.221 167.06 424.326 163.322L422.327 163.266C422.216 167.184 422.466 168.04 423.058 173.197L425.045 172.969ZM396.584 239.819L424.971 173.476L423.132 172.69L394.745 239.032L396.584 239.819ZM524.335 199.903C520.179 188.583 515.288 177.197 511.507 168.792L509.683 169.613C513.454 177.996 518.324 189.334 522.457 200.592L524.335 199.903ZM519.47 172.238C516.613 171.538 513.84 170.275 511.173 168.386L510.017 170.019C512.879 172.045 515.881 173.418 518.994 174.181L519.47 172.238ZM524.282 200.71C525.865 197.681 527.543 192.667 527.448 187.39C527.352 182.076 525.451 176.443 519.815 172.397L518.649 174.022C523.657 177.617 525.361 182.588 525.448 187.426C525.536 192.3 523.973 196.984 522.51 199.784L524.282 200.71ZM529.863 216.729C529.097 213.991 528.217 211.146 527.257 208.248L525.358 208.877C526.31 211.751 527.181 214.566 527.937 217.268L529.863 216.729ZM527.257 208.248C526.346 205.5 525.362 202.703 524.335 199.903L522.457 200.592C523.479 203.375 524.455 206.152 525.358 208.877L527.257 208.248ZM557.478 155.623C548.985 161.361 543.028 165.534 538.077 168.332L539.061 170.073C544.103 167.223 550.164 162.979 558.598 157.28L557.478 155.623ZM538.077 168.332C534.568 170.315 531.623 171.573 528.71 172.196C525.808 172.818 522.883 172.821 519.401 172.224L519.063 174.195C522.745 174.826 525.932 174.836 529.129 174.152C532.315 173.47 535.457 172.11 539.061 170.073L538.077 168.332ZM527.274 208.817C528.658 203.559 530.931 195.282 533.252 187.548C535.584 179.774 537.931 172.663 539.461 169.656L537.678 168.749C536.05 171.95 533.652 179.253 531.336 186.974C529.008 194.734 526.728 203.034 525.34 208.308L527.274 208.817ZM546.016 149.899C549.288 151.243 553.085 153.507 557.385 157.21L558.69 155.694C554.255 151.875 550.278 149.487 546.776 148.049L546.016 149.899ZM530.851 237.348C530.565 239.003 530.055 240.551 529.257 241.859L530.965 242.9C531.926 241.323 532.505 239.52 532.822 237.689L530.851 237.348ZM529.257 241.859C528.008 243.907 526.018 245.433 522.847 245.827L523.094 247.812C526.886 247.34 529.407 245.455 530.965 242.9L529.257 241.859ZM529.177 242.736L532.711 251.995L534.58 251.282L531.045 242.023L529.177 242.736ZM532.65 248.938C532.616 249.303 532.574 249.876 532.562 250.419C532.556 250.69 532.557 250.967 532.572 251.215C532.584 251.427 532.612 251.735 532.711 251.995L534.58 251.282C534.6 251.336 534.58 251.302 534.568 251.095C534.558 250.924 534.556 250.706 534.562 250.464C534.572 249.981 534.61 249.457 534.641 249.126L532.65 248.938ZM517.689 279.206L510.11 329.716L512.088 330.013L519.667 279.503L517.689 279.206ZM511.198 332.637L512.305 333.585L513.606 332.067L512.499 331.118L511.198 332.637ZM462.157 282.127C459.267 282.054 456.318 281.943 453.313 281.79L453.211 283.788C456.234 283.941 459.199 284.053 462.107 284.127L462.157 282.127ZM414.333 334.497L416.278 332.768L414.949 331.274L413.005 333.002L414.333 334.497ZM417.219 329.431L400.999 275.902L399.085 276.482L415.305 330.011L417.219 329.431ZM452.31 282.482L435.679 334.098L437.583 334.711L454.214 283.096L452.31 282.482ZM436.356 333.443C434.086 334.092 426.534 335.235 414.384 334.663L414.29 336.661C426.55 337.238 434.343 336.098 436.906 335.366L436.356 333.443ZM512.264 333.755C508.291 334.294 503.028 334.882 498.32 335.137C495.965 335.264 493.767 335.307 491.946 335.222C490.085 335.134 488.753 334.917 488.039 334.6L487.227 336.427C488.313 336.91 489.98 337.132 491.853 337.219C493.767 337.309 496.039 337.263 498.428 337.134C503.209 336.875 508.529 336.28 512.532 335.737L512.264 333.755ZM469.895 282.235C467.365 282.229 464.786 282.194 462.157 282.127L462.107 284.127C464.75 284.194 467.346 284.229 469.891 284.235L469.895 282.235ZM488.543 335.1C487.462 332.721 484.296 323.568 480.751 312.999C477.218 302.468 473.338 290.621 470.844 282.926L468.942 283.543C471.437 291.242 475.319 303.095 478.854 313.635C482.377 324.138 485.586 333.428 486.723 335.927L488.543 335.1ZM400.794 275.533L388.633 261.677L387.13 262.996L399.291 276.852L400.794 275.533ZM388.828 262.658L396.611 239.747L394.717 239.104L386.935 262.015L388.828 262.658ZM519.433 280.01L536.618 260.22L535.108 258.909L517.923 278.699L519.433 280.01ZM536.826 259.295L534.609 251.369L532.683 251.908L534.9 259.834L536.826 259.295ZM433.35 39.7884C431.24 38.2055 426.674 33.514 425.413 27.6284L423.457 28.0474C424.857 34.5798 429.826 39.6451 432.15 41.3884L433.35 39.7884ZM423.773 28.5878C427.663 32.0197 432.814 34.7038 437.626 36.6638C442.446 38.6273 446.995 39.8924 449.733 40.4589L450.138 38.5004C447.518 37.9583 443.086 36.7286 438.38 34.8116C433.666 32.891 428.746 30.3086 425.096 27.0881L423.773 28.5878ZM450.41 38.5992C446.243 36.3557 438.879 26.3091 448.086 4.38723L446.242 3.61277C436.822 26.0405 444.019 37.4295 449.462 40.3602L450.41 38.5992ZM446.185 4.20486C448.245 14.0471 454.897 22.126 461.73 27.9871C468.565 33.849 475.711 37.6041 478.985 38.7596L479.65 36.8736C476.641 35.8116 469.707 32.1936 463.033 26.4691C456.358 20.7438 450.074 13.0233 448.143 3.79514L446.185 4.20486ZM413.005 333.002C411.61 334.241 412.395 336.571 414.29 336.661L414.384 334.663C414.347 334.661 414.335 334.651 414.331 334.648C414.323 334.642 414.311 334.628 414.302 334.604C414.294 334.581 414.295 334.561 414.298 334.547C414.3 334.539 414.304 334.522 414.333 334.497L413.005 333.002ZM512.305 333.585C512.332 333.609 512.338 333.626 512.341 333.636C512.345 333.65 512.346 333.67 512.339 333.692C512.333 333.715 512.322 333.729 512.314 333.737C512.309 333.741 512.298 333.751 512.264 333.755L512.532 335.737C514.346 335.491 514.969 333.235 513.606 332.067L512.305 333.585ZM416.278 332.768C417.215 331.935 417.583 330.632 417.219 329.431L415.305 330.011C415.443 330.465 415.304 330.958 414.949 331.274L416.278 332.768ZM510.11 329.716C509.945 330.812 510.356 331.915 511.198 332.637L512.499 331.118C512.181 330.845 512.025 330.428 512.088 330.013L510.11 329.716ZM505.627 223.944L494.074 177.881L492.134 178.368L503.687 224.431L505.627 223.944ZM479.075 38.7867L494.597 42.6674L495.082 40.7272L479.56 36.8464L479.075 38.7867ZM540.963 148.404C542.482 148.672 544.167 149.139 546.016 149.899L546.776 148.049C544.797 147.236 542.974 146.727 541.31 146.434L540.963 148.404ZM491.871 174.506L510.304 163.973L509.312 162.236L490.878 172.769L491.871 174.506ZM511.587 169.074L510.8 162.976L508.816 163.232L509.603 169.33L511.587 169.074ZM375.529 106.162C377.005 96.9046 380.143 88.7261 384.278 81.5571L382.546 80.5578C378.299 87.9209 375.071 96.3297 373.554 105.847L375.529 106.162ZM384.278 81.5571C397.661 58.3541 421.496 45.7194 433.09 41.5289L432.41 39.648C420.577 43.925 396.254 56.7905 382.546 80.5578L384.278 81.5571ZM384.068 80.3028L371.317 69.2154L370.005 70.7247L382.756 81.8121L384.068 80.3028ZM371.261 69.17C370.316 68.4617 368.363 67.7628 365.978 67.56C363.55 67.3535 360.554 67.6486 357.491 69.0621L358.33 70.878C361.033 69.6305 363.673 69.3712 365.809 69.5528C367.988 69.7381 369.527 70.3697 370.061 70.77L371.261 69.17ZM357.491 69.0621C356.645 69.4527 355.684 70.1455 354.665 71.0202C353.634 71.905 352.496 73.0187 351.294 74.2966C348.888 76.8531 346.187 80.1071 343.52 83.5962C338.196 90.5611 332.936 98.5532 330.397 103.913L332.204 104.769C334.655 99.5958 339.817 91.7329 345.109 84.8108C347.75 81.3564 350.406 78.1589 352.75 75.6672C353.923 74.421 355.008 73.3614 355.968 72.5376C356.939 71.7037 357.735 71.1526 358.33 70.878L357.491 69.0621ZM330.361 103.999C329.22 107.136 328.79 109.619 329.03 112.155C329.268 114.663 330.155 117.141 331.49 120.257L333.329 119.469C332.003 116.377 331.227 114.143 331.021 111.966C330.818 109.818 331.164 107.644 332.241 104.683L330.361 103.999ZM331.49 120.257C332.202 121.919 333.683 124.269 335.605 126.895C337.541 129.54 339.965 132.521 342.608 135.456C347.865 141.292 354.096 147.07 359.126 149.585L360.021 147.796C355.35 145.461 349.33 139.93 344.095 134.117C341.492 131.228 339.111 128.299 337.219 125.714C335.315 123.112 333.947 120.913 333.329 119.469L331.49 120.257ZM359.126 149.585C360.126 150.085 361.845 151.166 363.971 151.546C366.183 151.941 368.808 151.597 371.789 149.51L370.642 147.871C368.079 149.665 365.991 149.875 364.323 149.577C362.569 149.264 361.239 148.405 360.021 147.796L359.126 149.585ZM418.01 161.022C407.637 158.601 391.132 152.297 381.817 138.701L380.167 139.831C389.907 154.049 407.018 160.511 417.555 162.969L418.01 161.022ZM381.817 138.701C376.34 130.707 373.303 120.126 375.529 106.162L373.554 105.847C371.251 120.293 374.388 131.395 380.167 139.831L381.817 138.701ZM371.829 149.48C376.88 145.551 380.319 141.795 381.787 139.873L380.198 138.659C378.843 140.433 375.529 144.069 370.601 147.901L371.829 149.48ZM375.476 105.649C374.417 102.856 372.163 98.963 368.788 96.3815C365.349 93.7515 360.747 92.4997 355.262 95.1233L356.124 96.9276C360.839 94.6727 364.645 95.7308 367.573 97.97C370.564 100.258 372.633 103.793 373.606 106.359L375.476 105.649ZM355.262 95.1233C348.306 98.4499 347.265 105.453 349.365 110.478C350.413 112.986 352.282 115.113 354.707 116.057C357.181 117.02 360.067 116.686 362.939 114.57L361.752 112.96C359.357 114.725 357.185 114.876 355.432 114.193C353.629 113.491 352.103 111.842 351.211 109.707C349.43 105.447 350.329 99.6991 356.124 96.9276L355.262 95.1233ZM544.186 81.8089L557.035 70.5278L555.716 69.0249L542.866 80.306L544.186 81.8089ZM556.975 70.5763C557.509 70.1759 559.049 69.5444 561.228 69.3591C563.363 69.1775 566.004 69.4368 568.707 70.6843L569.545 68.8684C566.482 67.4549 563.487 67.1598 561.058 67.3663C558.673 67.5691 556.72 68.268 555.775 68.9763L556.975 70.5763ZM594.796 104.489C595.872 107.45 596.219 109.624 596.015 111.773C595.809 113.949 595.033 116.183 593.708 119.276L595.546 120.064C596.882 116.947 597.769 114.469 598.006 111.961C598.246 109.425 597.816 106.943 596.675 103.806L594.796 104.489ZM593.708 119.276C593.089 120.719 591.722 122.918 589.817 125.521C587.925 128.105 585.544 131.034 582.942 133.923C577.706 139.736 571.686 145.267 567.015 147.602L567.91 149.391C572.94 146.876 579.172 141.098 584.428 135.262C587.071 132.327 589.496 129.346 591.431 126.702C593.354 124.075 594.834 121.725 595.546 120.064L593.708 119.276ZM567.015 147.602C565.797 148.212 564.468 149.07 562.713 149.383C561.045 149.681 558.957 149.471 556.394 147.678L555.247 149.316C558.229 151.403 560.853 151.747 563.065 151.352C565.191 150.973 566.911 149.891 567.91 149.391L567.015 147.602ZM570.912 96.7339C576.707 99.5054 577.606 105.253 575.826 109.513C574.934 111.648 573.407 113.298 571.604 114C569.852 114.682 567.679 114.531 565.284 112.767L564.098 114.377C566.969 116.492 569.855 116.827 572.33 115.863C574.754 114.919 576.623 112.793 577.671 110.284C579.771 105.259 578.73 98.2562 571.775 94.9296L570.912 96.7339ZM556.435 147.708C553.38 145.332 551.32 143.534 549.875 142.091L548.462 143.507C549.987 145.028 552.116 146.882 555.207 149.286L556.435 147.708ZM549.875 142.091C548.975 141.193 548.316 140.437 547.806 139.768L546.216 140.982C546.789 141.733 547.509 142.557 548.462 143.507L549.875 142.091ZM547.308 149.383L550.081 143.209L548.256 142.39L545.484 148.564L547.308 149.383ZM568.707 70.6843C569.561 71.0785 570.787 72.0195 572.302 73.4652L573.683 72.0186C572.147 70.5525 570.72 69.4106 569.545 68.8684L568.707 70.6843ZM573.932 73.0822C578.616 60.1405 587.928 42.1782 600.928 29.59C613.9 17.0287 630.393 9.93056 649.668 18.2235L650.459 16.3863C630.184 7.66325 612.856 15.256 599.537 28.1532C586.245 41.0237 576.797 59.2879 572.052 72.4016L573.932 73.0822ZM649.668 18.2235C661.415 23.2774 668.781 30.2407 672.867 37.7489C676.956 45.2611 677.801 53.3903 676.384 60.8441C674.966 68.3069 671.285 75.0648 666.364 79.8092C661.444 84.5532 655.339 87.2384 649.038 86.7133L648.872 88.7064C655.876 89.2901 662.521 86.293 667.753 81.2489C672.984 76.2052 676.857 69.0692 678.349 61.2175C679.843 53.3569 678.955 44.751 674.624 36.7928C670.291 28.8306 662.55 21.5882 650.459 16.3863L649.668 18.2235ZM572.302 73.4652C576.131 77.1205 581.28 83.4876 585.847 89.9501L587.48 88.7959C582.885 82.2931 577.649 75.8049 573.683 72.0186L572.302 73.4652ZM585.847 89.9501C589.648 95.3292 593 100.709 594.832 104.575L596.639 103.719C594.735 99.6992 591.306 94.2099 587.48 88.7959L585.847 89.9501ZM587.62 89.6637C591.044 78.3938 598.607 61.8366 609.024 49.3935C619.47 36.9171 632.5 28.8797 646.971 33.7745L647.612 31.88C631.926 26.5744 618.094 35.4453 607.491 48.1096C596.86 60.8071 589.188 77.623 585.707 89.0823L587.62 89.6637ZM646.864 33.731C657.04 38.5515 660.456 46.1141 660.986 52.9759C661.252 56.4336 660.785 59.7291 660.048 62.417C659.304 65.1292 658.31 67.1352 657.592 68.0505L659.166 69.2847C660.111 68.0794 661.196 65.7923 661.977 62.946C662.764 60.0754 663.267 56.5469 662.98 52.822C662.4 45.3186 658.609 37.0816 647.72 31.9235L646.864 33.731ZM657.592 68.0505C656.517 69.4212 654.615 70.6373 652.343 71.3235C650.081 72.0063 647.557 72.1315 645.289 71.4421C643.045 70.7602 641.015 69.2735 639.68 66.6437C638.333 63.9901 637.655 60.0962 638.306 54.5645L636.32 54.3308C635.64 60.1083 636.314 64.4329 637.897 67.5491C639.491 70.6891 641.969 72.5235 644.707 73.3557C647.421 74.1805 650.354 74.0129 652.921 73.2381C655.476 72.4665 657.774 71.0599 659.166 69.2847L657.592 68.0505ZM638.304 54.5798C638.507 53.0575 638.352 50.7733 637.019 49.0762C635.597 47.267 633.1 46.4318 629.309 47.3795L629.794 49.3198C633.1 48.4934 634.668 49.3213 635.446 50.3117C636.312 51.4141 636.488 53.066 636.322 54.3155L638.304 54.5798ZM629.309 47.3795C627.911 47.729 626.641 48.7285 625.564 50.0442C624.477 51.3732 623.519 53.1055 622.763 55.077C621.251 59.0181 620.498 64.0413 621.217 69.0047C621.938 73.9806 624.148 78.936 628.601 82.6404C633.052 86.3437 639.639 88.7099 648.955 88.7099V86.7099C639.976 86.7099 633.883 84.4332 629.88 81.1029C625.878 77.7738 623.861 73.3048 623.196 68.7179C622.53 64.1185 623.231 59.4401 624.63 55.7933C625.329 53.9709 626.19 52.4376 627.112 51.3108C628.045 50.1708 628.975 49.5246 629.794 49.3198L629.309 47.3795ZM418.209 161.091C406.807 155.716 385.629 137.171 392.152 106.015L390.194 105.605C383.412 138.004 405.474 157.299 417.356 162.9L418.209 161.091ZM392.152 106.015C398.741 74.54 416.816 61.3677 424.751 58.7226L424.119 56.8252C415.423 59.7238 396.91 73.5273 390.194 105.605L392.152 106.015ZM424.774 58.7146C431.488 56.2941 448.55 54.9552 464.203 70.3254L465.605 68.8984C449.326 52.9139 431.425 54.1909 424.096 56.8332L424.774 58.7146ZM513.003 163.37C522.021 161.033 533.267 156.452 541.833 148.137L540.44 146.702C532.217 154.684 521.339 159.144 512.501 161.433L513.003 163.37ZM547.844 140.927C553.432 132.497 556.34 121.405 554.036 106.956L552.061 107.27C554.292 121.266 551.465 131.843 546.177 139.823L547.844 140.927ZM554.036 106.956C553.934 106.316 553.825 105.682 553.707 105.052L551.741 105.418C551.855 106.031 551.962 106.648 552.061 107.27L554.036 106.956ZM553.707 105.052C550.074 85.5336 539.225 70.8277 527.42 60.3327C515.622 49.8436 502.826 43.5207 495.18 40.7568L494.5 42.6378C501.947 45.3296 514.512 51.5329 526.091 61.8274C537.664 72.1161 548.21 86.4513 551.741 105.418L553.707 105.052ZM553.43 106.165C553.497 105.989 553.569 105.807 553.647 105.621L551.802 104.85C551.715 105.056 551.635 105.258 551.56 105.456L553.43 106.165ZM553.647 105.621C554.738 103.011 556.835 99.6613 559.777 97.5436C562.656 95.4711 566.356 94.5552 570.912 96.7339L571.775 94.9296C566.486 92.4 562.011 93.4713 558.609 95.9204C555.269 98.3243 552.98 102.03 551.802 104.85L553.647 105.621ZM546.038 140.031C544.387 142.488 542.497 144.705 540.44 146.702L541.833 148.137C543.982 146.051 545.963 143.728 547.698 141.146L546.038 140.031ZM546.177 139.823C546.131 139.892 546.085 139.962 546.038 140.031L547.698 141.146C547.747 141.074 547.796 141.001 547.844 140.927L546.177 139.823ZM547.698 141.146C553.38 132.69 556.36 121.531 554.036 106.956L552.061 107.27C554.312 121.387 551.416 132.027 546.038 140.031L547.698 141.146ZM417.525 162.962C419.027 163.361 420.777 163.777 422.748 164.195L423.162 162.238C421.219 161.827 419.503 161.418 418.039 161.029L417.525 162.962ZM422.748 164.194C422.872 164.221 422.996 164.247 423.122 164.273L423.53 162.315C423.407 162.289 423.284 162.264 423.162 162.238L422.748 164.194ZM423.122 164.273C440.648 167.93 475.423 171.637 510.021 164.081L509.594 162.127C475.354 169.605 440.878 165.935 423.53 162.315L423.122 164.273ZM422.748 164.195C440.152 167.877 475.176 171.691 510.021 164.081L509.594 162.127C475.109 169.659 440.385 165.882 423.162 162.238L422.748 164.195ZM542.668 81.5716C546.837 88.5251 550.072 96.4522 551.741 105.418L553.707 105.052C551.991 95.8326 548.664 87.683 544.384 80.5433L542.668 81.5716ZM512.502 161.433L512.497 161.434L512.997 163.371L513.002 163.37L512.502 161.433ZM512.496 161.435C511.5 161.693 510.53 161.923 509.594 162.127L510.021 164.081C510.981 163.872 511.976 163.636 512.998 163.371L512.496 161.435ZM512.998 163.371C522.017 161.035 533.265 156.454 541.833 148.137L540.44 146.702C532.215 154.686 521.335 159.146 512.496 161.435L512.998 163.371ZM434.746 203.627C431.804 200.443 429.438 194.61 427.705 187.804L425.767 188.298C427.512 195.152 429.974 201.409 433.277 204.984L434.746 203.627ZM427.705 187.804C426.491 183.037 425.608 177.872 425.045 172.969L423.058 173.197C423.629 178.172 424.527 183.427 425.767 188.298L427.705 187.804ZM425.852 187.584C420.166 198.362 413.675 214.944 412.775 229.623C412.325 236.966 413.267 243.941 416.517 249.479C419.793 255.062 425.345 259.064 433.839 260.55L434.184 258.58C426.197 257.183 421.187 253.484 418.242 248.467C415.271 243.405 414.334 236.881 414.772 229.745C415.647 215.468 421.998 199.175 427.621 188.517L425.852 187.584ZM490.806 172.814C488.044 174.721 485.042 176.727 481.875 178.774L482.96 180.454C486.144 178.397 489.163 176.38 491.943 174.46L490.806 172.814ZM481.875 178.774C467.507 188.062 449.806 198.168 435.834 203.816L436.583 205.67C450.727 199.953 468.55 189.769 482.96 180.454L481.875 178.774ZM433.839 260.55C444.459 262.407 453.307 259.307 460.453 253.359C467.568 247.437 472.983 238.709 476.875 229.281C480.771 219.843 483.171 209.633 484.214 200.668C485.252 191.744 484.963 183.91 483.363 179.287L481.473 179.941C482.922 184.128 483.256 191.593 482.227 200.437C481.203 209.241 478.845 219.269 475.027 228.517C471.205 237.775 465.95 246.182 459.174 251.822C452.428 257.436 444.163 260.325 434.184 258.58L433.839 260.55Z" fill="black"/>
<path d="M458.806 115.127L446.055 154.195C457.816 157.096 470.885 157.233 482.756 154.195L471.57 115.127C466.968 116.326 462.559 116.052 458.806 115.127Z" fill="#F2F2F2"/>
<path d="M480.204 111.03C477.326 113.086 474.411 114.387 471.57 115.127L482.756 154.195C492.042 151.819 500.595 147.5 507.215 141.042C508.154 140.125 509.017 139.221 509.808 138.33L485.369 107.887C483.697 108.731 481.972 109.767 480.204 111.03Z" fill="#F2F2F2"/>
<path d="M507.215 106.117C503.569 104.69 495.443 102.8 485.369 107.887L509.808 138.33C524.31 121.988 514.399 110.147 507.215 106.117Z" fill="#F2F2F2"/>
<path d="M449.714 111.03C447.897 109.807 446.121 108.764 444.392 107.887L419.224 139.857C425.864 146.693 435.425 151.573 446.055 154.195L458.806 115.127C454.88 114.16 451.673 112.481 449.714 111.03Z" fill="#F2F2F2"/>
<path d="M419.224 139.857C401.499 121.61 417.111 94.0488 444.392 107.887L419.224 139.857Z" fill="#F2F2F2"/>
<path d="M419.224 139.857C401.499 121.61 417.111 94.0488 444.392 107.887M419.224 139.857L444.392 107.887M419.224 139.857C425.864 146.693 435.425 151.573 446.055 154.195M444.392 107.887C446.121 108.764 447.897 109.807 449.714 111.03C451.673 112.481 454.88 114.16 458.806 115.127M458.806 115.127L446.055 154.195M458.806 115.127C462.559 116.052 466.968 116.326 471.57 115.127M446.055 154.195C457.816 157.096 470.885 157.233 482.756 154.195M471.57 115.127C474.411 114.387 477.326 113.086 480.204 111.03C481.972 109.767 483.697 108.731 485.369 107.887M471.57 115.127L482.756 154.195M482.756 154.195C492.042 151.819 500.595 147.5 507.215 141.042C508.154 140.125 509.017 139.221 509.808 138.33M485.369 107.887C495.443 102.8 503.569 104.69 507.215 106.117C514.399 110.147 524.31 121.988 509.808 138.33M485.369 107.887L509.808 138.33" stroke="black" stroke-width="2"/>
<path d="M400.925 102.89C400.925 101.277 401.78 97.767 406.054 97.4824C410.156 97.9378 410.992 101.277 410.897 102.89C410.802 104.313 409.757 107.729 406.054 107.444C401.495 107.094 402.304 100.558 406.054 101.183C409.472 101.752 407.478 105.737 406.054 104.598" stroke="#FF6056" stroke-linecap="round"/>
<path d="M528.43 102.89C528.43 101.277 527.576 97.767 523.302 97.4824C519.199 97.9378 518.364 101.277 518.459 102.89C518.554 104.313 519.598 107.729 523.302 107.444C527.861 107.094 527.052 100.558 523.302 101.183C519.883 101.752 521.878 105.737 523.302 104.598" stroke="#FF6056" stroke-linecap="round"/>
<path fill-rule="evenodd" clip-rule="evenodd" d="M451.501 85.0262C445.65 80.5396 439.622 77.3077 437.984 76.6837C437.873 76.6413 437.751 76.5933 437.619 76.5413C435.809 75.8284 432.091 74.3643 427.461 76.2361C422.493 78.2444 416.631 82.9891 414.322 85.1104L411.592 88.6728L420.462 94.7709L416.027 89.2272L418.104 87.4906C419.244 86.2704 424.023 82.1503 427.585 81.293C426.619 82.4992 426.022 83.9824 425.953 85.6047C425.771 89.8872 429.343 93.517 433.931 93.712C438.52 93.9071 442.387 90.5935 442.569 86.311C442.636 84.7345 442.194 83.2464 441.38 81.9856C443.294 82.3562 445.494 83.0825 447.788 83.8398C449.009 84.2428 450.256 84.6546 451.501 85.0262Z" fill="black"/>
<path fill-rule="evenodd" clip-rule="evenodd" d="M476.176 85.3758C482.028 80.8893 488.055 77.6573 489.693 77.0333C489.805 76.9909 489.927 76.9429 490.059 76.8909C491.869 76.178 495.586 74.7139 500.217 76.5857C505.185 78.594 511.047 83.3387 513.356 85.46L516.086 89.0224L507.216 95.1205L511.651 89.5768L509.573 87.8402C508.434 86.62 503.655 82.4999 500.093 81.6427C501.058 82.8488 501.656 84.332 501.725 85.9543C501.907 90.2368 498.335 93.8666 493.747 94.0616C489.158 94.2567 485.291 90.9431 485.109 86.6606C485.042 85.0841 485.484 83.596 486.298 82.3352C484.384 82.7058 482.184 83.4321 479.89 84.1894C478.669 84.5924 477.421 85.0042 476.176 85.3758Z" fill="black"/>
<path d="M787.088 268.76C794.921 283.964 810.7 317.328 817.611 332.109C818.955 335.18 826.71 340.074 846.982 336.389H848.997H851.013C871.285 340.074 879.04 334.853 880.384 331.782C887.295 317 903.074 283.636 910.906 268.433C923.475 243.295 915.774 213.972 904.612 189.862C912.139 215.201 910.906 273.367 848.997 273.367C789.392 273.367 786.514 215.585 794.002 189.862C782.634 214.21 774.613 243.81 787.088 268.76Z" fill="#00755F"/>
<path d="M854.468 164.523H848.134C833.433 164.881 821.049 162.974 810.7 159.667C805.615 167.818 799.427 178.242 794.002 189.862C786.514 215.585 789.392 273.367 848.997 273.367C910.906 273.367 912.139 215.201 904.612 189.862C899.432 178.673 893.507 168.607 888.516 160.603C878.881 163.326 867.599 164.843 854.468 164.523Z" fill="#C0DA92"/>
<path d="M833.16 18.2443C830.281 14.213 819.914 4.99868 812.428 5.57451C799.182 5.57458 753.11 79.2895 765.204 117.299L765.78 117.299C792.271 101.75 863.568 79.9806 936.822 117.299L937.2 117.509C937.27 117.252 937.336 116.998 937.398 116.749C949.492 78.7394 903.42 5.02448 890.174 5.02441C882.688 4.44858 872.321 14.213 869.442 18.2443C854.238 15.9406 838.919 17.2844 833.16 18.2443Z" fill="#00755F"/>
<path d="M848.134 164.523H854.468C867.599 164.843 878.881 163.326 888.516 160.603C919.825 151.753 933.742 130.168 937.2 117.509L936.822 117.299C863.568 79.9806 792.271 101.75 765.78 117.299L765.204 117.299C768.19 129.383 781.156 150.227 810.7 159.667C821.049 162.974 833.433 164.881 848.134 164.523Z" fill="#C0DA92"/>
<path d="M765.204 117.299C753.11 79.2895 799.182 5.57458 812.428 5.57451C819.914 4.99868 830.281 14.213 833.16 18.2443C838.919 17.2844 854.238 15.9406 869.442 18.2443C872.321 14.213 882.688 4.44858 890.174 5.02441C903.42 5.02448 949.492 78.7394 937.398 116.749C937.336 116.998 937.27 117.252 937.2 117.509M765.204 117.299L765.78 117.299C792.271 101.75 863.568 79.9806 936.822 117.299L937.2 117.509M765.204 117.299C768.19 129.383 781.156 150.227 810.7 159.667M937.2 117.509C933.742 130.168 919.825 151.753 888.516 160.603M810.7 159.667C821.049 162.974 833.433 164.881 848.134 164.523H854.468C867.599 164.843 878.881 163.326 888.516 160.603M810.7 159.667C805.615 167.818 799.427 178.242 794.002 189.862M888.446 160.491C888.47 160.528 888.493 160.565 888.516 160.603M848.997 336.389H846.982C826.71 340.074 818.955 335.18 817.611 332.109C810.7 317.328 794.921 283.964 787.088 268.76C774.613 243.81 782.634 214.21 794.002 189.862M848.997 336.389H851.013C871.285 340.074 879.04 334.853 880.384 331.782C887.295 317 903.074 283.636 910.906 268.433C923.475 243.295 915.774 213.972 904.612 189.862M848.997 336.389V284.309M794.002 189.862C786.514 215.585 789.392 273.367 848.997 273.367C910.906 273.367 912.139 215.201 904.612 189.862M904.612 189.862C899.432 178.673 893.507 168.607 888.516 160.603" stroke="black" stroke-width="2"/>
<path d="M813.81 64.6894C812.261 69.5339 808.394 71.2962 806.021 70.5375C803.647 69.7788 801.52 66.1002 803.068 61.2557C804.617 56.4112 808.484 54.6489 810.857 55.4076C813.231 56.1663 815.358 59.8449 813.81 64.6894ZM897.242 70.5375C894.868 71.2962 891.001 69.5339 889.453 64.6894C887.904 59.8449 890.032 56.1663 892.405 55.4076C894.779 54.6489 898.646 56.4112 900.194 61.2557C901.743 66.1002 899.615 69.7788 897.242 70.5375Z" stroke="black" stroke-width="6"/>
<path d="M837.192 64.3137C837.192 85.6237 819.917 102.899 798.607 102.899C777.297 102.899 760.021 85.6237 760.021 64.3137C760.021 43.0037 777.297 25.7285 798.607 25.7285C819.917 25.7285 837.192 43.0037 837.192 64.3137Z" fill="#59C1B8" fill-opacity="0.2"/>
<path d="M943.157 64.3137C943.157 85.6237 925.882 102.899 904.572 102.899C883.262 102.899 865.987 85.6237 865.987 64.3137C865.987 43.0037 883.262 25.7285 904.572 25.7285C925.882 25.7285 943.157 43.0037 943.157 64.3137Z" fill="#59C1B8" fill-opacity="0.2"/>
<path d="M836.616 57.4029C841.799 54.3315 853.704 50.0314 866.604 57.4029M837.192 64.3137C837.192 85.6237 819.917 102.899 798.607 102.899C777.297 102.899 760.021 85.6237 760.021 64.3137C760.021 43.0037 777.297 25.7285 798.607 25.7285C819.917 25.7285 837.192 43.0037 837.192 64.3137ZM943.157 64.3137C943.157 85.6237 925.882 102.899 904.572 102.899C883.262 102.899 865.987 85.6237 865.987 64.3137C865.987 43.0037 883.262 25.7285 904.572 25.7285C925.882 25.7285 943.157 43.0037 943.157 64.3137Z" stroke="#FF4D55" stroke-width="2"/>
<path d="M842.95 176.678C845.446 177.852 851.704 179.495 856.772 176.679C857.728 174.784 858.161 173.008 858.27 171.43C858.476 168.449 857.525 166.179 856.772 165.161C854.084 164.414 847.557 163.37 842.95 165.161C840.186 169.359 841.798 174.589 842.95 176.678Z" fill="#FF4D55"/>
<path d="M878.08 161.129C874.855 143.622 862.531 156.522 856.772 165.161C857.525 166.179 858.476 168.449 858.27 171.43C858.161 173.008 857.728 174.784 856.772 176.679C859.076 187.736 868.866 187.045 873.473 185.317C876.353 184.549 881.305 178.637 878.08 161.129Z" fill="#FF4D55"/>
<path d="M842.95 165.161C837.191 156.522 824.867 143.622 821.642 161.129C818.417 178.637 823.37 184.549 826.249 185.317C830.856 187.045 840.647 187.736 842.95 176.678C841.798 174.589 840.186 169.359 842.95 165.161Z" fill="#FF4D55"/>
<path d="M842.95 165.161C837.191 156.522 824.867 143.622 821.642 161.129C818.417 178.637 823.37 184.549 826.249 185.317C830.856 187.045 840.647 187.736 842.95 176.678M842.95 165.161C847.557 163.37 854.084 164.414 856.772 165.161M842.95 165.161C840.186 169.359 841.798 174.589 842.95 176.678M842.95 176.678C845.446 177.852 851.704 179.495 856.772 176.679M856.772 165.161C862.531 156.522 874.855 143.622 878.08 161.129C881.305 178.637 876.353 184.549 873.473 185.317C868.866 187.045 859.076 187.736 856.772 176.679M856.772 165.161C857.525 166.179 858.476 168.449 858.27 171.43C858.161 173.008 857.728 174.784 856.772 176.679" stroke="black" stroke-width="2"/>
<path d="M809.549 206.564C817.803 218.082 836.271 239.851 844.103 234.783C853.893 228.449 831.433 214.051 832.585 206.564M891.501 206.564C883.246 218.082 864.779 239.851 856.947 234.783C847.157 228.449 869.617 214.051 868.465 206.564" stroke="black" stroke-width="2" stroke-linecap="round"/>
<path d="M1103.95 23.0168C1058.07 22.5664 1040.54 74.2543 1037.51 100.155C1036.44 107.832 1037.2 118.198 1041.71 128.308C1047.05 140.308 1057.66 151.947 1076.69 158.298C1080.19 159.465 1083.97 160.453 1088.05 161.232C1095.66 162.684 1104.32 163.411 1114.17 163.216C1114.94 163.201 1115.69 163.184 1116.44 163.164C1129.36 162.831 1140.06 161.877 1149 160.402C1156.91 159.097 1163.45 157.385 1168.95 155.334C1189.01 147.85 1198.21 132.812 1202.18 124.929C1206.16 117.047 1206.39 115.847 1207.05 111.416C1209.02 98.0487 1205.82 79.2991 1199.03 62.2342C1195.61 55.161 1192.25 48.594 1189.08 42.7243C1183.41 34.0004 1178.9 29.7742 1169.25 23.0168C1147.83 8.02566 1120.23 5.93791 1110.2 5C1113.79 7.62756 1120.98 13.8961 1120.98 17.9497C1103.27 11.1932 1091.27 13.2577 1087.48 15.1345C1090.7 14.1961 1098.5 14.4588 1103.95 23.0168Z" fill="#F2E9DD"/>
<path d="M1050.56 211.639C1039.19 234.611 1050.9 235.475 1058.17 233.035C1058.87 227.866 1059.91 222.505 1061.36 216.963C1055.46 216.717 1051.7 213.311 1050.56 211.639Z" fill="#F2E9DD"/>
<path d="M1184.01 244.296C1189.77 243.552 1192.23 239.246 1193.02 234.461C1193.19 233.435 1193.29 232.386 1193.32 231.346C1193.41 228.428 1193.03 225.577 1192.53 223.463C1191.9 220.126 1191.05 216.523 1190.04 212.765C1185.32 216.819 1171.65 219.522 1165.41 220.366L1168.95 231.346C1169.79 234.308 1171.22 238.695 1174.36 241.558C1176 243.055 1178.1 244.136 1180.83 244.378C1181.81 244.465 1182.87 244.444 1184.01 244.296Z" fill="#F2E9DD"/>
<path d="M1037.51 100.155C1024.83 143.001 1010.94 231.831 1056.82 244.378C1056.93 244.408 1057.04 244.438 1057.15 244.468C1057.31 240.77 1057.64 236.957 1058.17 233.035C1050.9 235.475 1039.19 234.611 1050.56 211.639C1042.61 198.602 1032.36 168.453 1041.71 128.308C1037.2 118.198 1036.44 107.832 1037.51 100.155Z" fill="#F2E9DD"/>
<path d="M1207.05 111.416C1215.46 143.135 1224.33 209.95 1192.53 223.463C1193.03 225.577 1193.41 228.428 1193.32 231.346C1196.46 230.283 1203.43 229.545 1206.16 235.1C1209.21 234.868 1212.42 234.38 1215.81 233.598C1259.58 213.907 1227.34 120.748 1199.03 62.2342C1205.82 79.2991 1209.02 98.0487 1207.05 111.416Z" fill="#F2E9DD"/>
<path d="M1193.02 234.461C1192.23 239.246 1189.77 243.552 1184.01 244.296C1182.87 244.444 1181.81 244.465 1180.83 244.378C1181.47 247.597 1180.95 261.43 1180.61 267.944C1183.75 269.633 1190.2 270.984 1190.83 262.876C1211.84 267.944 1215.81 244.859 1201.05 243.17C1207.86 242.269 1207.29 237.415 1206.16 235.1C1203.43 229.545 1196.46 230.283 1193.32 231.346C1193.29 232.386 1193.19 233.435 1193.02 234.461Z" fill="#F2E9DD"/>
<path d="M1093.08 336.742C1094.42 336.742 1096.44 331.046 1097.28 328.198C1089.17 328.605 1077.36 328.831 1072.88 327.63V332.57C1071.9 332.57 1069.93 333.07 1069.93 335.073C1071.19 337.577 1091.39 336.742 1093.08 336.742Z" fill="#F2E9DD"/>
<path d="M1139.72 325.67C1140.86 329.513 1143.58 337.199 1145.4 337.199C1147.67 337.199 1174.93 338.325 1176.63 334.947C1176.63 332.244 1173.98 331.568 1172.66 331.568V324.904C1166.6 326.524 1150.67 326.218 1139.72 325.67Z" fill="#F2E9DD"/>
<path d="M1207.05 111.416C1206.39 115.847 1206.16 117.047 1202.18 124.929C1198.21 132.812 1189.01 147.85 1168.95 155.334C1174.16 166.921 1184.5 192.171 1190.04 212.765C1191.05 216.523 1191.9 220.126 1192.53 223.463C1224.33 209.95 1215.46 143.135 1207.05 111.416Z" fill="#DB867D"/>
<path d="M1132.34 312.425C1147.79 316.479 1167.55 313.176 1174.36 310.736C1175.86 306.272 1178.24 288.192 1179.77 275.264C1165.47 269.858 1155.82 253.935 1152.78 246.65C1122.59 252.105 1093.93 250.71 1074.42 247.871C1072.12 254.187 1065.82 267.831 1059.04 271.885C1063.01 293.768 1068.43 309.461 1071.61 317.131C1076.66 318.939 1091.31 321.387 1102.76 318.382C1102.76 313.428 1109.82 290.156 1113.6 279.584C1116.01 280.253 1118.38 280.749 1120.42 280.894C1125.41 287.2 1130.45 304.542 1132.34 312.425Z" fill="#A33C3E"/>
<path fill-rule="evenodd" clip-rule="evenodd" d="M1168.95 231.346L1165.41 220.366L1161.87 209.387L1154.68 179.545C1154.98 176.73 1158.26 167.946 1168.95 155.334C1163.45 157.385 1156.91 159.097 1149 160.402C1143.14 167.422 1139.86 171.348 1134.04 177.293C1132.91 178.419 1130.52 180.897 1127.8 179.545C1124.62 178.644 1118.9 168.249 1116.44 163.164C1113.03 167.874 1105.2 177.293 1101.11 177.293C1097.48 176.392 1089.98 167.533 1086.69 163.216C1073.54 182.574 1065.66 200.566 1061.36 216.963C1059.91 222.505 1058.87 227.866 1058.17 233.035C1070.77 236.976 1110.56 242.156 1168.95 231.346ZM1085.21 216.143C1084.03 210.738 1086.61 197 1088.05 190.806C1102.06 189.492 1132.45 187.653 1141.99 190.806C1141.54 205.22 1141.05 215.205 1140.86 217.833C1131.46 223.929 1126.15 227.121 1116.44 231.346C1112.47 233.598 1106.33 234.161 1103.38 232.472C1097.82 229.281 1086.39 221.549 1085.21 216.143Z" fill="#A33C3E"/>
<path d="M1161.87 209.387L1165.41 220.366C1171.65 219.522 1185.32 216.819 1190.04 212.765C1184.5 192.171 1174.16 166.921 1168.95 155.334C1158.26 167.946 1154.98 176.73 1154.68 179.545L1161.87 209.387Z" fill="#FCB93E"/>
<path d="M1168.95 231.346C1110.56 242.156 1070.77 236.976 1058.17 233.035C1057.64 236.957 1057.31 240.77 1057.15 244.468C1061.46 245.62 1067.34 246.841 1074.42 247.871C1093.93 250.71 1122.59 252.105 1152.78 246.65C1159.92 245.359 1167.15 243.686 1174.36 241.558C1171.22 238.695 1169.79 234.308 1168.95 231.346Z" fill="#A33C3E"/>
<path d="M1059.04 271.885C1065.82 267.831 1072.12 254.187 1074.42 247.871C1067.34 246.841 1061.46 245.62 1057.15 244.468C1056.72 254.466 1057.54 263.63 1059.04 271.885Z" fill="#A33C3E"/>
<path d="M1102.76 318.382C1091.31 321.387 1076.66 318.939 1071.61 317.131C1069.93 315.461 1067.41 324.641 1071.61 327.145C1071.92 327.328 1072.35 327.489 1072.88 327.63C1077.36 328.831 1089.17 328.605 1097.28 328.198C1098.67 328.128 1099.95 328.053 1101.07 327.98C1102.33 326.45 1104.44 322.388 1102.76 318.382Z" fill="#A33C3E"/>
<path d="M1174.36 310.736C1167.55 313.176 1147.79 316.479 1132.34 312.425C1130.07 317.83 1132.91 323.31 1134.61 325.375C1136.12 325.475 1137.85 325.576 1139.72 325.67C1150.67 326.218 1166.6 326.524 1172.66 324.904C1173.37 324.713 1173.95 324.496 1174.36 324.249C1180.04 320.87 1176.63 308.483 1174.36 310.736Z" fill="#A33C3E"/>
<path d="M1180.61 267.944C1180.95 261.43 1181.47 247.597 1180.83 244.378C1178.1 244.136 1176 243.055 1174.36 241.558C1167.15 243.686 1159.92 245.359 1152.78 246.65C1155.82 253.935 1165.47 269.858 1179.77 275.264C1180.09 272.535 1180.38 270.037 1180.61 267.944Z" fill="#A33C3E"/>
<path d="M1088.05 190.806C1086.61 197 1084.03 210.738 1085.21 216.143C1086.39 221.549 1097.82 229.281 1103.38 232.472C1106.33 234.161 1112.47 233.598 1116.44 231.346C1126.15 227.121 1131.46 223.929 1140.86 217.833C1141.05 215.205 1141.54 205.22 1141.99 190.806C1132.45 187.653 1102.06 189.492 1088.05 190.806Z" fill="#98CAD3"/>
<path d="M1041.71 128.308C1032.36 168.453 1042.61 198.602 1050.56 211.639C1056.62 195.973 1070.33 163.373 1076.69 158.298C1057.66 151.947 1047.05 140.308 1041.71 128.308Z" fill="#DB867D"/>
<path d="M1088.05 161.232C1083.97 160.453 1080.19 159.465 1076.69 158.298C1070.33 163.373 1056.62 195.973 1050.56 211.639C1051.7 213.311 1055.46 216.717 1061.36 216.963C1065.66 200.566 1073.54 182.574 1086.69 163.216C1087.14 162.556 1087.59 161.895 1088.05 161.232Z" fill="#FCB93E"/>
<path d="M1114.17 163.216C1104.32 163.411 1095.66 162.684 1088.05 161.232C1087.59 161.895 1087.14 162.556 1086.69 163.216C1089.98 167.533 1097.48 176.392 1101.11 177.293C1105.2 177.293 1113.03 167.874 1116.44 163.164C1115.69 163.184 1114.94 163.201 1114.17 163.216Z" fill="#FCB93E"/>
<path d="M1116.44 163.164C1118.9 168.249 1124.62 178.644 1127.8 179.545C1130.52 180.897 1132.91 178.419 1134.04 177.293C1139.86 171.348 1143.14 167.422 1149 160.402C1140.06 161.877 1129.36 162.831 1116.44 163.164Z" fill="#FCB93E"/>
<path d="M1037.51 100.155C1040.54 74.2543 1058.07 22.5664 1103.95 23.0168C1098.5 14.4588 1090.7 14.1961 1087.48 15.1345C1091.27 13.2577 1103.27 11.1932 1120.98 17.9497C1120.98 13.8961 1113.79 7.62756 1110.2 5C1120.23 5.93791 1147.83 8.02566 1169.25 23.0168C1178.9 29.7742 1183.41 34.0004 1189.08 42.7243M1037.51 100.155C1024.83 143.001 1010.94 231.831 1056.82 244.378C1056.93 244.408 1057.04 244.438 1057.15 244.468M1037.51 100.155C1036.44 107.832 1037.2 118.198 1041.71 128.308M1189.08 42.7243C1192.25 48.594 1195.61 55.161 1199.03 62.2342M1189.08 42.7243C1192.92 48.632 1196.27 55.2937 1199.03 62.2342M1152.78 171.662L1154.68 179.545M1207.05 111.416C1206.39 115.847 1206.16 117.047 1202.18 124.929C1198.21 132.812 1189.01 147.85 1168.95 155.334M1207.05 111.416C1215.46 143.135 1224.33 209.95 1192.53 223.463M1207.05 111.416C1209.02 98.0487 1205.82 79.2991 1199.03 62.2342M1192.53 223.463C1191.9 220.126 1191.05 216.523 1190.04 212.765M1192.53 223.463C1193.03 225.577 1193.41 228.428 1193.32 231.346M1168.95 155.334C1174.16 166.921 1184.5 192.171 1190.04 212.765M1168.95 155.334C1158.26 167.946 1154.98 176.73 1154.68 179.545M1168.95 155.334C1163.45 157.385 1156.91 159.097 1149 160.402M1168.95 231.346L1165.41 220.366M1168.95 231.346C1110.56 242.156 1070.77 236.976 1058.17 233.035M1168.95 231.346C1169.79 234.308 1171.22 238.695 1174.36 241.558M1165.41 220.366L1161.87 209.387L1154.68 179.545M1165.41 220.366C1171.65 219.522 1185.32 216.819 1190.04 212.765M1193.32 231.346C1193.29 232.386 1193.19 233.435 1193.02 234.461C1192.23 239.246 1189.77 243.552 1184.01 244.296C1182.87 244.444 1181.81 244.465 1180.83 244.378M1193.32 231.346C1196.46 230.283 1203.43 229.545 1206.16 235.1M1206.16 235.1C1209.21 234.868 1212.42 234.38 1215.81 233.598C1259.58 213.907 1227.34 120.748 1199.03 62.2342M1206.16 235.1C1207.29 237.415 1207.86 242.269 1201.05 243.17C1215.81 244.859 1211.84 267.944 1190.83 262.876C1190.2 270.984 1183.75 269.633 1180.61 267.944M1180.61 267.944C1180.95 261.43 1181.47 247.597 1180.83 244.378M1180.61 267.944C1180.38 270.037 1180.09 272.535 1179.77 275.264M1174.36 310.736C1167.55 313.176 1147.79 316.479 1132.34 312.425M1174.36 310.736C1176.63 308.483 1180.04 320.87 1174.36 324.249C1173.95 324.496 1173.37 324.713 1172.66 324.904M1174.36 310.736C1175.86 306.272 1178.24 288.192 1179.77 275.264M1180.83 244.378C1178.1 244.136 1176 243.055 1174.36 241.558M1132.34 312.425C1130.07 317.83 1132.91 323.31 1134.61 325.375C1136.12 325.475 1137.85 325.576 1139.72 325.67M1132.34 312.425C1130.45 304.542 1125.41 287.2 1120.42 280.894C1118.38 280.749 1116.01 280.253 1113.6 279.584M1139.72 325.67C1140.86 329.513 1143.58 337.199 1145.4 337.199C1147.67 337.199 1174.93 338.325 1176.63 334.947C1176.63 332.244 1173.98 331.568 1172.66 331.568V324.904M1139.72 325.67C1150.67 326.218 1166.6 326.524 1172.66 324.904M1041.71 128.308C1032.36 168.453 1042.61 198.602 1050.56 211.639M1041.71 128.308C1047.05 140.308 1057.66 151.947 1076.69 158.298M1071.61 317.131C1068.43 309.461 1063.01 293.768 1059.04 271.885M1071.61 317.131C1076.66 318.939 1091.31 321.387 1102.76 318.382M1071.61 317.131C1069.93 315.461 1067.41 324.641 1071.61 327.145C1071.92 327.328 1072.35 327.489 1072.88 327.63M1088.05 161.232C1095.66 162.684 1104.32 163.411 1114.17 163.216C1114.94 163.201 1115.69 163.184 1116.44 163.164M1088.05 161.232C1083.97 160.453 1080.19 159.465 1076.69 158.298M1088.05 161.232C1087.59 161.895 1087.14 162.556 1086.69 163.216M1058.17 233.035C1050.9 235.475 1039.19 234.611 1050.56 211.639M1058.17 233.035C1058.87 227.866 1059.91 222.505 1061.36 216.963M1058.17 233.035C1057.64 236.957 1057.31 240.77 1057.15 244.468M1050.56 211.639C1056.62 195.973 1070.33 163.373 1076.69 158.298M1050.56 211.639C1051.7 213.311 1055.46 216.717 1061.36 216.963M1061.36 216.963C1065.66 200.566 1073.54 182.574 1086.69 163.216M1086.69 163.216C1089.98 167.533 1097.48 176.392 1101.11 177.293C1105.2 177.293 1113.03 167.874 1116.44 163.164M1116.44 163.164C1118.9 168.249 1124.62 178.644 1127.8 179.545C1130.52 180.897 1132.91 178.419 1134.04 177.293C1139.86 171.348 1143.14 167.422 1149 160.402M1116.44 163.164C1129.36 162.831 1140.06 161.877 1149 160.402M1174.36 241.558C1167.15 243.686 1159.92 245.359 1152.78 246.65M1074.42 247.871C1072.12 254.187 1065.82 267.831 1059.04 271.885M1074.42 247.871C1093.93 250.71 1122.59 252.105 1152.78 246.65M1074.42 247.871C1067.34 246.841 1061.46 245.62 1057.15 244.468M1059.04 271.885C1057.54 263.63 1056.72 254.466 1057.15 244.468M1152.78 246.65C1155.82 253.935 1165.47 269.858 1179.77 275.264M1100.54 274.7C1103.24 275.975 1108.51 278.168 1113.6 279.584M1113.6 279.584C1109.82 290.156 1102.76 313.428 1102.76 318.382M1102.76 318.382C1104.44 322.388 1102.33 326.45 1101.07 327.98C1099.95 328.053 1098.67 328.128 1097.28 328.198M1097.28 328.198C1096.44 331.046 1094.42 336.742 1093.08 336.742C1091.39 336.742 1071.19 337.577 1069.93 335.073C1069.93 333.07 1071.9 332.57 1072.88 332.57V327.63M1097.28 328.198C1089.17 328.605 1077.36 328.831 1072.88 327.63M1088.05 190.806C1086.61 197 1084.03 210.738 1085.21 216.143C1086.39 221.549 1097.82 229.281 1103.38 232.472C1106.33 234.161 1112.47 233.598 1116.44 231.346C1126.15 227.121 1131.46 223.929 1140.86 217.833C1141.05 215.205 1141.54 205.22 1141.99 190.806C1132.45 187.653 1102.06 189.492 1088.05 190.806Z" stroke="#503C3C" stroke-width="2" stroke-linecap="round"/>
<path d="M1101.3 219.534C1100.89 223.755 1102.88 222.834 1104.71 221.785C1110.17 218.651 1118.46 212.36 1118.17 207.146C1118.08 205.491 1117.12 203.945 1114.93 202.642C1112.9 201.432 1111.13 201.215 1109.6 201.696C1104.3 203.364 1101.89 213.416 1101.3 219.534Z" fill="#F96B35"/>
<path d="M1109.6 201.696C1111.13 201.215 1112.9 201.432 1114.93 202.642C1117.12 203.945 1118.08 205.491 1118.17 207.146C1121.74 208.835 1124.58 203.213 1120.61 200.398C1125.15 197.022 1115.5 190.828 1114.36 196.457C1108.68 193.079 1106.41 200.39 1109.6 201.696Z" fill="#5FBE50"/>
<path d="M1109.6 201.696C1104.3 203.364 1101.89 213.416 1101.3 219.534C1100.89 223.755 1102.88 222.834 1104.71 221.785C1110.17 218.651 1118.46 212.36 1118.17 207.146M1109.6 201.696C1111.13 201.215 1112.9 201.432 1114.93 202.642C1117.12 203.945 1118.08 205.491 1118.17 207.146M1109.6 201.696C1106.41 200.39 1108.68 193.079 1114.36 196.457C1115.5 190.828 1125.15 197.022 1120.61 200.398C1124.58 203.213 1121.74 208.835 1118.17 207.146" stroke="#503C3C" stroke-width="2"/>
<path d="M1093.25 170.967C1092.77 170.318 1091.76 170.429 1091.5 171.19C1090.49 174.133 1089.06 179.115 1088.8 182.886C1088.76 183.497 1089.3 183.966 1089.9 183.885C1103.66 182.054 1132.31 182.912 1140.86 183.899C1141.47 183.969 1142 183.497 1142.03 182.885C1142.23 179.001 1143.36 174.744 1144.72 170.95C1145.13 169.81 1142.99 168.446 1142.18 169.35C1137.36 174.767 1133.91 178.069 1130.21 180.108C1126.66 181.512 1119.42 164.343 1115.44 164.906C1111.47 165.469 1104.09 177.293 1100.68 177.293C1098.24 177.293 1094.94 173.264 1093.25 170.967Z" fill="#FCB93E" stroke="#503C3C" stroke-width="2"/>
<path d="M1097.84 319.181C1101.6 295.105 1102.74 284.028 1100.11 275.826C1102.12 276.779 1103.94 277.449 1106.49 278.36C1109.53 279.443 1112.04 280.331 1112.04 280.331C1110.86 283.512 1100.12 318.2 1101.82 318.055C1102.92 322.152 1101.42 325.188 1100.68 327.064H1095.57C1097.39 325.262 1097.84 321.621 1097.84 319.181Z" fill="#2A5375" fill-opacity="0.5"/>
<path d="M1154.06 180.111C1156.44 203.392 1160.87 247.114 1172.23 240.358C1166.69 235.79 1156.84 197.717 1154.06 180.111Z" fill="#2A5375" fill-opacity="0.5"/>
<path d="M1050.74 231.808C1051.91 235.098 1056.57 233.405 1057.52 232.47C1060.3 207.154 1077.68 175.016 1086.53 161.831C1083.64 161.525 1085.35 161.926 1083.64 161.363C1075.58 169.821 1049.12 221.941 1050.71 231.674C1050.72 231.721 1050.73 231.762 1050.74 231.808Z" fill="#775959" fill-opacity="0.5"/>
<path d="M1116.01 163.22C1088.57 165.284 1034.58 155.562 1038.22 100.158C1040.31 114.972 1057.42 154.89 1116.01 163.22Z" fill="#503C3C" fill-opacity="0.3"/>
<path d="M1068.88 169.41C1038.44 161.302 1033.11 127.556 1037.08 105.785C1035.26 137.316 1061.69 153.832 1075.13 158.149C1071.15 164.905 1072.29 162.653 1068.88 169.41Z" fill="#503C3C" fill-opacity="0.3" stroke="#503C3C" stroke-opacity="0.3" stroke-width="2"/>
<path d="M1208.57 100.158C1210.38 131.689 1181.69 151.02 1168.25 155.337C1176.95 173.398 1192.38 215.122 1194.37 230.786C1197.21 228.533 1193.8 177.859 1185.29 162.657C1207.63 139.796 1210.27 110.192 1208.57 100.158Z" fill="#503C3C" fill-opacity="0.3" stroke="#503C3C" stroke-opacity="0.3" stroke-width="2"/>
<path d="M1104.65 23.581C1102.84 18.6262 1096.7 15.5107 1093.87 14.5723C1102.04 15.0227 1111.66 21.8919 1114.88 25.2702C1114.31 24.7071 1110.56 23.581 1104.65 23.581Z" fill="#503C3C" fill-opacity="0.3" stroke="#503C3C" stroke-opacity="0.3" stroke-width="2"/>
<path d="M1122.26 19.079C1120.44 14.1242 1114.31 7.06732 1111.47 6.12891C1119.65 6.57935 1131.53 20.2051 1134.75 23.5834C1134.18 23.0204 1128.5 20.7682 1122.26 19.079Z" fill="#503C3C" fill-opacity="0.3" stroke="#503C3C" stroke-opacity="0.3" stroke-width="2"/>
<path d="M1100.11 181.797C1093.75 181.347 1079.67 152.519 1087.05 164.343C1094.43 176.167 1099.57 178.955 1101.25 178.419C1106.05 177.125 1112.62 166.053 1115.44 166.032C1118.27 166.012 1125.32 181.234 1130.21 181.234C1135.09 181.234 1143.27 168.284 1149.51 161.528C1133.61 188.554 1130.21 182.924 1127.37 182.924C1124.53 182.924 1119.98 175.041 1115.44 168.284C1106.36 176.73 1106.47 182.248 1100.11 181.797Z" fill="#503C3C" fill-opacity="0.3" stroke="#503C3C" stroke-opacity="0.3" stroke-width="2"/>
<path d="M1091.52 87.1609C1088.74 96.0729 1083.6 102.413 1075.63 99.9686C1068.18 97.6806 1067.04 89.4151 1069.82 80.5031C1072.6 71.5911 1077.26 65.2537 1085.78 66.9421C1093.16 69.1952 1094.3 78.249 1091.52 87.1609Z" fill="black"/>
<path d="M1147.73 83.4075C1147.07 92.7133 1149.54 100.468 1157.86 101.05C1165.65 101.595 1169.73 94.2992 1170.39 84.9935C1171.05 75.6878 1169.02 68.1068 1160.47 66.6221C1152.76 66.0713 1148.4 74.1018 1147.73 83.4075Z" fill="black"/>
<path d="M1061.36 68.0679C1062.69 60.7483 1069.99 47.9108 1088.62 55.1178" stroke="black" stroke-width="2" stroke-linecap="round"/>
<path d="M1176.68 69.3645C1175.83 61.9752 1169.38 48.6961 1150.32 54.6936" stroke="black" stroke-width="2" stroke-linecap="round"/>
<mask id="path-40-inside-1_878_1560" fill="white">
<ellipse cx="1056.82" cy="100.724" rx="1.13566" ry="1.1261"/>
</mask>
<ellipse cx="1056.82" cy="100.724" rx="1.13566" ry="1.1261" fill="black"/>
<path d="M1055.95 100.724C1055.95 100.225 1056.36 99.8499 1056.82 99.8499V103.85C1058.53 103.85 1059.95 102.466 1059.95 100.724H1055.95ZM1056.82 99.8499C1057.28 99.8499 1057.68 100.225 1057.68 100.724H1053.68C1053.68 102.466 1055.1 103.85 1056.82 103.85V99.8499ZM1057.68 100.724C1057.68 101.222 1057.28 101.598 1056.82 101.598V97.5977C1055.1 97.5977 1053.68 98.9813 1053.68 100.724H1057.68ZM1056.82 101.598C1056.36 101.598 1055.95 101.222 1055.95 100.724H1059.95C1059.95 98.9813 1058.53 97.5977 1056.82 97.5977V101.598Z" fill="#503C3C" mask="url(#path-40-inside-1_878_1560)"/>
<mask id="path-42-inside-2_878_1560" fill="white">
<ellipse cx="1.13566" cy="1.1261" rx="1.13566" ry="1.1261" transform="matrix(-1 0 0 1 1178.33 102.977)"/>
</mask>
<ellipse cx="1.13566" cy="1.1261" rx="1.13566" ry="1.1261" transform="matrix(-1 0 0 1 1178.33 102.977)" fill="black"/>
<path d="M1178.06 104.103C1178.06 103.604 1177.66 103.229 1177.2 103.229V107.229C1175.48 107.229 1174.06 105.845 1174.06 104.103H1178.06ZM1177.2 103.229C1176.74 103.229 1176.33 103.604 1176.33 104.103H1180.33C1180.33 105.845 1178.91 107.229 1177.2 107.229V103.229ZM1176.33 104.103C1176.33 104.601 1176.74 104.977 1177.2 104.977V100.977C1178.91 100.977 1180.33 102.36 1180.33 104.103H1176.33ZM1177.2 104.977C1177.66 104.977 1178.06 104.601 1178.06 104.103H1174.06C1174.06 102.36 1175.48 100.977 1177.2 100.977V104.977Z" fill="#503C3C" mask="url(#path-42-inside-2_878_1560)"/>
<mask id="path-44-inside-3_878_1560" fill="white">
<ellipse cx="1059.09" cy="111.985" rx="1.13566" ry="1.1261"/>
</mask>
<ellipse cx="1059.09" cy="111.985" rx="1.13566" ry="1.1261" fill="black"/>
<path d="M1058.23 111.985C1058.23 111.487 1058.63 111.112 1059.09 111.112V115.112C1060.81 115.112 1062.23 113.728 1062.23 111.985H1058.23ZM1059.09 111.112C1059.55 111.112 1059.95 111.487 1059.95 111.985H1055.95C1055.95 113.728 1057.37 115.112 1059.09 115.112V111.112ZM1059.95 111.985C1059.95 112.484 1059.55 112.859 1059.09 112.859V108.859C1057.37 108.859 1055.95 110.243 1055.95 111.985H1059.95ZM1059.09 112.859C1058.63 112.859 1058.23 112.484 1058.23 111.985H1062.23C1062.23 110.243 1060.81 108.859 1059.09 108.859V112.859Z" fill="#503C3C" mask="url(#path-44-inside-3_878_1560)"/>
<mask id="path-46-inside-4_878_1560" fill="white">
<ellipse cx="1.13566" cy="1.1261" rx="1.13566" ry="1.1261" transform="matrix(-1 0 0 1 1176.06 114.236)"/>
</mask>
<ellipse cx="1.13566" cy="1.1261" rx="1.13566" ry="1.1261" transform="matrix(-1 0 0 1 1176.06 114.236)" fill="black"/>
<path d="M1175.79 115.362C1175.79 114.864 1175.39 114.489 1174.93 114.489V118.489C1173.21 118.489 1171.79 117.105 1171.79 115.362H1175.79ZM1174.93 114.489C1174.46 114.489 1174.06 114.864 1174.06 115.362H1178.06C1178.06 117.105 1176.64 118.489 1174.93 118.489V114.489ZM1174.06 115.362C1174.06 115.861 1174.46 116.236 1174.93 116.236V112.236C1176.64 112.236 1178.06 113.62 1178.06 115.362H1174.06ZM1174.93 116.236C1175.39 116.236 1175.79 115.861 1175.79 115.362H1171.79C1171.79 113.62 1173.21 112.236 1174.93 112.236V116.236Z" fill="#503C3C" mask="url(#path-46-inside-4_878_1560)"/>
<mask id="path-48-inside-5_878_1560" fill="white">
<ellipse cx="1067.04" cy="101.853" rx="1.13566" ry="1.1261"/>
</mask>
<ellipse cx="1067.04" cy="101.853" rx="1.13566" ry="1.1261" fill="black"/>
<path d="M1066.18 101.853C1066.18 101.354 1066.58 100.979 1067.04 100.979V104.979C1068.76 104.979 1070.18 103.595 1070.18 101.853H1066.18ZM1067.04 100.979C1067.5 100.979 1067.9 101.354 1067.9 101.853H1063.9C1063.9 103.595 1065.32 104.979 1067.04 104.979V100.979ZM1067.9 101.853C1067.9 102.351 1067.5 102.727 1067.04 102.727V98.7266C1065.32 98.7266 1063.9 100.11 1063.9 101.853H1067.9ZM1067.04 102.727C1066.58 102.727 1066.18 102.351 1066.18 101.853H1070.18C1070.18 100.11 1068.76 98.7266 1067.04 98.7266V102.727Z" fill="#503C3C" mask="url(#path-48-inside-5_878_1560)"/>
<mask id="path-50-inside-6_878_1560" fill="white">
<ellipse cx="1.13566" cy="1.1261" rx="1.13566" ry="1.1261" transform="matrix(-1 0 0 1 1168.11 104.104)"/>
</mask>
<ellipse cx="1.13566" cy="1.1261" rx="1.13566" ry="1.1261" transform="matrix(-1 0 0 1 1168.11 104.104)" fill="black"/>
<path d="M1167.84 105.23C1167.84 104.731 1167.44 104.356 1166.98 104.356V108.356C1165.26 108.356 1163.84 106.972 1163.84 105.23H1167.84ZM1166.98 104.356C1166.52 104.356 1166.11 104.731 1166.11 105.23H1170.11C1170.11 106.972 1168.69 108.356 1166.98 108.356V104.356ZM1166.11 105.23C1166.11 105.728 1166.52 106.104 1166.98 106.104V102.104C1168.69 102.104 1170.11 103.487 1170.11 105.23H1166.11ZM1166.98 106.104C1167.44 106.104 1167.84 105.728 1167.84 105.23H1163.84C1163.84 103.487 1165.26 102.104 1166.98 102.104V106.104Z" fill="#503C3C" mask="url(#path-50-inside-6_878_1560)"/>
<path d="M1101.18 94.8619C1100.57 95.226 1099.34 96.5249 1099.34 98.807C1099.34 101.089 1107.63 108.093 1111.77 111.31L1126.21 100.385C1127.03 99.3128 1128.17 96.8648 1126.21 95.6509C1123.77 94.1335 1110.73 90.1884 1101.18 94.8619Z" fill="#DB867D"/>
<path d="M1111.9 111.419C1107.36 108.229 1098.5 101.059 1099.41 97.9062M1111.9 111.419L1126.09 100.158M1111.9 111.419V117.613M1111.9 117.613L1107.92 122.117M1111.9 117.613L1116.44 122.117" stroke="black" stroke-width="2" stroke-linecap="round"/>
<path d="M1101.11 94.5285C1104.9 92.8393 1115.19 90.6997 1126.09 95.6546" stroke="black" stroke-width="2" stroke-linecap="round"/>
</svg>
